<svg width="100" height="110" viewBox="0 0 100 110" xmlns="http://www.w3.org/2000/svg"><title>bossrevolution</title><g fill="none" fill-rule="evenodd"><path d="M4.767 11.19c.257-.414.962-.45 1.58-.07.637.362.93 1 .688 1.414-.257.38-.962.413-1.58.052-.637-.362-.93-1-.688-1.397zm2.423 1.706l12.083 7.274.172-.31-12.083-7.257" fill="#000"/><path d="M18.706 21.514c-.206.328-.292.707-.292 1.086 0 .62.24 1.276.653 1.862.43.603 1.03 1.155 1.77 1.603l39.446 23.2c.91.535 1.89.81 2.75.81.5 0 .963-.086 1.358-.275.397-.19.74-.466.964-.828l6.67-10.876c.206-.327.31-.707.29-1.086 0-.62-.24-1.258-.67-1.86-.41-.605-1.03-1.156-1.77-1.605l-39.41-23.2c-.912-.535-1.89-.81-2.75-.81-.5 0-.963.086-1.36.275-.394.173-.755.466-.978.828l-6.67 10.876z" fill="#FFF"/><path d="M25.77 10.88c.172-.277.447-.484.774-.64.326-.154.72-.223 1.168-.223.774 0 1.668.242 2.51.74L69.668 33.96c.687.396 1.237.913 1.615 1.464.378.535.585 1.103.585 1.586 0 .31-.07.586-.224.827l-6.67 10.877c-.17.276-.428.5-.755.638-.33.155-.724.224-1.17.224-.774 0-1.668-.242-2.51-.74L21.08 25.633c-.688-.414-1.238-.914-1.616-1.465-.378-.536-.584-1.105-.584-1.587 0-.31.07-.585.223-.827l6.67-10.876-.395-.242-6.67 10.876c-.205.33-.29.708-.29 1.087 0 .62.24 1.276.652 1.862.43.602 1.03 1.154 1.77 1.602l39.446 23.2c.91.535 1.89.81 2.75.81.5 0 .963-.086 1.358-.275.396-.19.74-.466.963-.828l6.67-10.877c.206-.327.31-.707.29-1.086 0-.62-.24-1.258-.67-1.86-.41-.605-1.03-1.156-1.77-1.605l-39.41-23.2c-.912-.535-1.89-.81-2.75-.81-.5 0-.963.086-1.36.275-.394.173-.755.466-.978.828l.394.24zm17.463 23.424l14.472 8.515.206-.347-14.47-8.515-.206.344zm2.44.19l.894-1.5 2.407 1.413-.877 1.43-2.424-1.343-.67.086 3.266 1.913 1.39-2.258-3.266-1.913-1.392 2.258.67-.086zm3.433 2l.882-1.414 2.423 1.413-.875 1.43-2.428-1.43-.665.19 3.266 1.913 1.375-2.258-3.247-1.913-1.392 2.258.666-.19zm1.484-2.362l.893-1.5 2.406 1.413-.878 1.43-2.423-1.343-.67.086 3.264 1.913 1.375-2.256-3.25-1.913-1.39 2.26.67-.087zm2.042 4.378l.862-1.43 2.406 1.43-.876 1.43-2.392-1.43-.702.172 3.265 1.913 1.393-2.258-3.266-1.913-1.392 2.258.702-.172z" fill="#000"/><path d="M26.097 24.962c-.207-.12-.378-.276-.482-.43-.12-.157-.154-.312-.154-.432 0-.07.02-.138.053-.19l5.31-8.67c.036-.07.104-.12.173-.155.086-.035.19-.07.327-.07.223 0 .498.07.756.225l13.354 7.843c.206.12.378.276.48.43.104.156.156.31.156.432 0 .07-.018.137-.053.19l-5.328 8.67c-.036.068-.105.103-.174.154-.086.033-.19.067-.326.067-.223 0-.498-.07-.756-.224L26.097 24.96l-.224.43 13.338 7.827c.328.19.67.293 1 .293.19 0 .36-.033.514-.102.155-.07.293-.19.396-.345l5.31-8.67c.086-.138.12-.293.12-.448 0-.242-.103-.5-.24-.707-.155-.224-.38-.414-.637-.586L32.32 14.81c-.328-.19-.672-.294-.998-.294-.19 0-.36.035-.516.103-.155.067-.292.19-.395.343l-5.31 8.67c-.085.138-.12.293-.12.448 0 .26.086.5.258.725.155.224.378.414.636.586l.224-.43z" fill="#000"/><path d="M41.91 17.412l6.77 1.723-2.525 5.86-7.563-.792 3.317-6.79z" fill="#FFF"/><path d="M39.094 23.92l2.936-6.232 6.308 1.62L46 24.738l-6.906-.818-.88.49 8.095.845 2.697-6.275-7.236-1.86-3.557 7.29.88-.49z" fill="#000"/><path d="M50.228 19.584l6.308 2.533-3.626 8.36-.636-4.74-4.727-.638 2.68-5.517z" fill="#FFF"/><path d="M50.308 19.855l5.902 2.383-3.18 7.343-.55-4.05-4.572-.62 2.4-5.054-.16-.546-2.962 5.996 4.864.655.74 5.415 4.055-9.394-6.696-2.67.157.546z" fill="#000"/><path d="M58.41 23.427l-6.927 12.325 5.362 1.896 6.463-11.532-4.898-2.69z" fill="#FFF"/><path d="M58.324 23.1L51.14 35.89l5.826 2.068 6.686-11.945-5.328-2.913.193.633 4.465 2.47-6.24 11.152-4.898-1.74 6.673-11.882-.193-.633z" fill="#000"/><path d="M65.044 27.857l-5.208 9.963 3.317 1.57 5.672-8.05-3.78-3.483z" fill="#FFF"/><path d="M64.975 27.46L59.51 37.925l3.73 1.758 5.912-8.377-4.177-3.844.127.8 3.397 3.114-5.434 7.705-2.904-1.38 4.94-9.44-.128-.8z" fill="#000"/><path d="M62.174 49.007l-13.56-8.067-3.456-4.895-4.9-.638 1.256-1.258-1.255-1.416 3.642 1.26 7.253-2.38-.326-4.258-14.817-2.068-7.1 11.375 13.253 17.392-1.1 27.734h19.147L58.72 52.937c-.018.017 2.08-2.465 3.454-3.93" fill="#FFF"/><path d="M62.517 48.955l-13.763-8.187-3.484-4.947-4.514-.584 1.082-1.086-.807-.898 2.85.983 7.483-2.465-.343-4.637L35.9 25.03l-7.26 11.653 13.266 17.46-1.098 27.666h19.615l-1.51-28.874 3.604-3.982-.753.12c-1.39 1.466-3.28 3.724-3.28 3.724l1.442 28.526H41.288l1.082-27.338-13.18-17.34 6.916-11.1 14.45 2.016.29 3.88-6.983 2.308-3.553-1.24-.257.378 1.115 1.242-1.44 1.447 5.267.69 3.415 4.86 13.354 7.946M85.74 89.05h-2.457v5.103l-1.65-5.102h-2.458v11.327h2.458v-5.154l1.53 5.154h2.578V89.05zm-7.63 6.637V93.74c0-1.155-.035-1.983-.086-2.448-.052-.466-.224-.896-.516-1.293-.292-.398-.687-.69-1.17-.898-.48-.19-1.03-.293-1.63-.293-.637 0-1.204.102-1.686.31-.48.206-.86.516-1.134.895-.275.397-.447.828-.5 1.293-.05.464-.085 1.275-.085 2.412v1.948c0 1.172.035 1.982.086 2.448.05.465.222.896.514 1.292.292.397.688.69 1.17.897.48.19 1.03.293 1.632.293.636 0 1.186-.104 1.667-.31.48-.207.86-.518 1.134-.914.292-.38.464-.793.516-1.276.05-.465.086-1.275.086-2.413zm-2.94 1.483c0 .655-.034 1.086-.085 1.258-.052.172-.19.276-.378.276-.19 0-.327-.07-.378-.224-.054-.156-.088-.552-.088-1.207V91.98c0-.585.05-.93.12-1.05.086-.12.206-.173.36-.173.19 0 .31.07.362.225.05.155.086.482.086 1.017v5.17zm-5.12 3.206V89.05h-2.94v11.326h2.94zm-3.972-9.084v-2.275h-6.462v2.275h1.753v9.1h2.954v-9.1h1.753zm-7.665 5.326V89.05h-2.94v8.344c0 .568-.034.913-.085 1.068-.052.155-.172.224-.36.224-.156 0-.276-.07-.328-.206-.05-.138-.086-.45-.086-.948v-8.498h-2.94v6.705c0 1.273.018 2.12.07 2.515.05.396.19.775.447 1.137.26.362.638.655 1.153.88.516.223 1.118.327 1.788.327.62 0 1.135-.087 1.6-.277.446-.19.807-.465 1.082-.827.293-.362.465-.724.517-1.07.05-.344.085-.947.085-1.81zm-7.58 3.758V98.1h-1.77v-9.066h-2.94v11.342h4.71zm-5.792-4.69V93.74c0-1.155-.033-1.983-.084-2.448-.052-.466-.224-.896-.516-1.293-.293-.398-.688-.69-1.17-.898-.48-.19-1.03-.293-1.633-.293-.635 0-1.203.102-1.684.31-.48.206-.86.516-1.134.895-.295.397-.45.828-.5 1.293-.05.464-.07 1.275-.07 2.412v1.948c0 1.172.035 1.982.086 2.448.052.465.24.896.533 1.292.29.397.687.69 1.17.897.48.19 1.03.293 1.63.293.637 0 1.204-.104 1.685-.31.48-.207.86-.518 1.152-.914.223-.38.395-.793.447-1.276.05-.465.086-1.275.086-2.413zm-2.937 1.484c0 .655-.035 1.086-.086 1.258-.052.172-.19.276-.38.276-.205 0-.325-.07-.377-.224-.052-.156-.087-.552-.087-1.207V91.98c0-.585.052-.93.12-1.05.087-.12.207-.173.362-.173.19 0 .31.07.36.225.052.155.087.482.087 1.017v5.17zm-4.28-8.12H34.73s-.534 5.758-.69 7.93c-.153-2.155-.41-4.792-.772-7.93h-3.094l1.702 11.326h4.45l1.497-11.325zm-7.82 11.326V98.1h-2.15v-2.482h1.84v-2.154h-1.84V91.31h1.96v-2.276h-4.898v11.342H30zm-6.223 0v-2.982c0-.914-.018-1.465-.07-1.672-.05-.207-.17-.43-.377-.673-.207-.243-.585-.43-1.17-.588.637-.05 1.066-.24 1.29-.55.223-.31.326-.897.326-1.777 0-.965-.156-1.672-.466-2.102-.31-.45-.704-.724-1.203-.828-.497-.103-1.425-.155-2.82-.155h-2.077v11.326h2.94v-5.102c.394 0 .652.068.738.224.104.138.138.517.138 1.12v3.758h2.75zm-2.733-7.895c0 .5-.07.795-.19.898-.137.087-.36.138-.687.138v-2.533c.344 0 .567.05.705.172.12.12.19.345.19.707v.62h-.018z" fill="#000"/><g fill-opacity=".2" fill="#000"><path d="M25.945 86.552h-6.72c-.5 0-.946-.293-1.135-.758l-.137-.31c-.104-.242-.12-.518-.052-.776l4.127-15.703c.138-.534.62-.914 1.186-.914h8.594c2.905 0 4.71.588 5.69 1.847.704.913.876 2.103.497 3.5-.412 1.585-1.29 2.79-2.595 3.6.17.156.326.33.463.518.653.897.79 2.07.413 3.482-.91 3.5-4.675 5.516-10.33 5.516zm1.272-6.62l-.24.915c.893-.104.996-.483 1.065-.74.017-.036.017-.07.017-.105-.12-.034-.363-.07-.758-.07h-.086zm1.615-6.17l-.154.586c.533-.103.67-.344.722-.568-.104-.018-.24-.018-.447-.018h-.12z"/><path d="M44.387 86.862h-.43c-3.214 0-5.362-.793-6.617-2.413-1.615-2.105-1.15-4.95-.498-7.448.91-3.447 2.423-9.222 11.705-9.222 3.454 0 5.758.794 6.995 2.414 1.702 2.207.91 5.24.327 7.447-1.12 4.294-3.44 9.223-11.484 9.223zm.258-6.136c.052.017.19.052.5.052 1.22 0 1.563-.535 2.405-3.775.258-1 .705-2.655.55-3.103-.052-.017-.206-.05-.5-.05-1.22 0-1.563.533-2.405 3.773-.275 1-.705 2.655-.55 3.103z"/><path d="M59.89 86.862c-2.165 0-4.262-.586-5.603-1.55-.412-.294-.6-.81-.464-1.31l.894-3.38c.138-.534.602-.896 1.152-.913l.65-.02c.31-.016.585.104.826.294.67.57 1.856.93 3.076.93.997 0 1.565-.137 1.77-.292-.343-.224-1.048-.517-1.546-.724-2.13-.88-5.706-2.346-4.624-6.413.963-3.637 4.486-5.706 9.71-5.706 2.923 0 4.66.5 6.172 1.76.36.31.515.79.395 1.257l-.895 3.395c-.137.535-.618.897-1.168.914h-.464c-.327 0-.636-.12-.877-.362-.533-.534-1.65-.896-2.853-.896-.722 0-1.203.067-1.513.17.31.14.672.294.964.397 2.045.828 5.844 2.362 4.76 6.43-.72 2.758-3.11 6.015-10.363 6.015z"/><path d="M74.896 86.862c-2.166 0-4.263-.586-5.604-1.55-.412-.294-.6-.81-.464-1.31 0 0 .602-2.293.894-3.38.137-.534.602-.896 1.152-.913l.636-.02c.292-.016.584.104.807.294.67.57 1.857.93 3.077.93.997 0 1.547-.137 1.77-.275-.343-.225-1.048-.518-1.547-.725-2.13-.88-5.69-2.362-4.623-6.412.962-3.637 4.486-5.706 9.71-5.706 2.923 0 4.66.5 6.17 1.76.362.31.517.79.397 1.257 0 0-.634 2.38-.892 3.396-.138.535-.602.897-1.152.914l-.464-.017c-.325 0-.652-.12-.893-.362-.55-.552-1.668-.896-2.836-.896-.722 0-1.204.066-1.513.17.31.14.67.293.963.396 2.045.828 5.843 2.362 4.76 6.43-.704 2.758-3.076 6.015-10.346 6.015z"/></g><g fill="#FFF"><path d="M25.086 85.862h-6.72c-.5 0-.946-.293-1.135-.758l-.135-.31c-.104-.242-.12-.518-.052-.776l4.125-15.703c.138-.534.62-.914 1.186-.914h8.594c2.905 0 4.71.588 5.69 1.847.704.913.876 2.103.497 3.5-.412 1.585-1.29 2.79-2.595 3.6.17.156.326.33.463.518.653.897.79 2.07.413 3.482-.91 3.5-4.675 5.516-10.33 5.516zm1.272-6.62l-.24.915c.893-.104.996-.483 1.065-.74.017-.036.017-.07.017-.105-.12-.034-.36-.07-.756-.07h-.086zm1.615-6.17l-.154.586c.53-.103.67-.344.72-.568-.104-.018-.24-.018-.447-.018h-.12z"/><path d="M43.528 86.172H43.1c-3.216 0-5.364-.793-6.62-2.413-1.614-2.105-1.15-4.95-.497-7.448.91-3.447 2.423-9.222 11.705-9.222 3.454 0 5.758.794 6.995 2.414 1.702 2.207.91 5.24.327 7.447-1.118 4.294-3.438 9.223-11.482 9.223zm.258-6.136c.052.017.19.052.5.052 1.22 0 1.563-.535 2.405-3.775.26-1 .707-2.655.55-3.103-.05-.017-.204-.05-.497-.05-1.22 0-1.564.533-2.406 3.773-.275 1-.705 2.655-.55 3.103z"/><path d="M59.032 86.172c-2.166 0-4.263-.586-5.604-1.55-.412-.294-.6-.81-.464-1.31l.894-3.38c.138-.534.602-.896 1.152-.913l.653-.02c.31-.016.584.104.825.294.67.57 1.856.93 3.076.93.997 0 1.565-.137 1.77-.292-.343-.224-1.048-.517-1.546-.724-2.13-.88-5.706-2.346-4.624-6.413.963-3.637 4.486-5.706 9.71-5.706 2.923 0 4.66.5 6.172 1.76.36.31.515.79.395 1.257l-.892 3.395c-.137.535-.618.897-1.168.914h-.465c-.327 0-.636-.12-.877-.362-.533-.534-1.65-.896-2.853-.896-.722 0-1.203.067-1.513.17.31.14.67.294.963.397 2.045.828 5.844 2.362 4.76 6.43-.72 2.758-3.11 6.015-10.363 6.015z"/><path d="M74.037 86.172c-2.166 0-4.263-.586-5.604-1.55-.412-.294-.6-.81-.464-1.31 0 0 .6-2.293.892-3.38.137-.534.602-.896 1.152-.913l.636-.02c.293-.017.585.103.808.293.67.57 1.857.93 3.077.93.997 0 1.547-.137 1.77-.275-.343-.224-1.048-.517-1.547-.724-2.13-.88-5.69-2.362-4.623-6.412.962-3.637 4.486-5.706 9.71-5.706 2.923 0 4.66.5 6.17 1.76.362.31.517.79.397 1.257 0 0-.636 2.38-.894 3.396-.138.534-.602.896-1.152.913l-.464-.017c-.326 0-.653-.12-.894-.362-.55-.552-1.667-.896-2.835-.896-.722 0-1.204.067-1.513.17.31.14.67.294.963.397 2.045.828 5.843 2.362 4.76 6.43-.704 2.758-3.076 6.015-10.346 6.015z"/></g><path d="M18.47 84.535c.583-2.24 4.124-15.703 4.124-15.703h8.593c4.126 0 5.672 1.275 5.002 3.81-.466 1.757-1.72 3.446-5.158 3.877l-.017.05c3.49.207 3.953 1.81 3.454 3.672-.826 3.12-4.418 4.602-9.18 4.602h-6.72l-.102-.31zm6.29-2.913h1.03c1.582 0 2.493-.518 2.802-1.69.31-1.172-.326-1.706-1.908-1.706h-1.03l-.895 3.396zm1.718-6.482h1.03c1.36 0 2.2-.5 2.476-1.585.293-1.103-.31-1.483-1.632-1.483h-1.066l-.808 3.068zm27.604 1.69c-.98 3.74-2.87 8.41-10.52 8.325-7.7.086-7.132-4.568-6.153-8.325.98-3.74 2.37-8.326 10.517-8.326 8.164.018 7.133 4.585 6.154 8.326zm-9.574 4.688c2.32 0 2.836-1.793 3.592-4.688.756-2.896 1.186-4.69-1.134-4.69s-2.836 1.794-3.592 4.69c-.74 2.895-1.186 4.688 1.134 4.688zM69.12 73.4c-.755-.76-2.148-1.26-3.712-1.26-1.478 0-2.887.294-3.145 1.277-.48 1.86 7.477 1.723 6.187 6.636-.876 3.344-4.02 5.085-9.195 5.085-1.873 0-3.747-.5-4.88-1.327 0 0 .6-2.29.892-3.377l.654-.017c.895.74 2.34 1.207 3.87 1.207 2.25 0 2.886-.62 3.075-1.328.62-2.36-7.648-1.93-6.307-7.015.79-3.035 3.798-4.793 8.525-4.793 2.767 0 4.16.448 5.397 1.482 0 0-.637 2.394-.895 3.394l-.464.035zm15.006 0c-.757-.76-2.15-1.26-3.696-1.26-1.478 0-2.887.294-3.145 1.277-.498 1.86 7.477 1.723 6.188 6.636-.877 3.344-4.022 5.085-9.196 5.085-1.873 0-3.747-.5-4.88-1.327 0 0 .6-2.29.893-3.377l.653-.017c.893.74 2.337 1.207 3.867 1.207 2.252 0 2.887-.62 3.077-1.328.618-2.36-7.65-1.93-6.308-7.015.79-3.035 3.796-4.793 8.523-4.793 2.767 0 4.16.448 5.397 1.482 0 0-.618 2.377-.893 3.394l-.48.035z" fill="#6D1B00"/><path d="M18.073 84.208c.584-2.24 4.125-15.703 4.125-15.703h8.594c4.125 0 5.672 1.276 5.002 3.81-.465 1.74-1.72 3.447-5.157 3.878l-.017.05c3.49.208 3.953 1.81 3.455 3.673-.825 3.12-4.417 4.602-9.178 4.602h-6.72l-.104-.31zm6.29-2.93h1.032c1.58 0 2.492-.518 2.802-1.69.31-1.172-.327-1.706-1.908-1.706h-1.034l-.893 3.396zm1.702-6.482h1.032c1.357 0 2.2-.5 2.475-1.585.292-1.1-.31-1.48-1.633-1.48H26.87l-.808 3.067zm27.62 1.707c-.98 3.74-2.87 8.41-10.52 8.325-7.7.086-7.13-4.567-6.15-8.325.98-3.74 2.37-8.325 10.52-8.325 8.145.017 7.13 4.585 6.15 8.325zm-9.573 4.688c2.32 0 2.836-1.79 3.593-4.686.756-2.896 1.186-4.69-1.135-4.69-2.32 0-2.836 1.794-3.592 4.69-.756 2.896-1.186 4.688 1.134 4.688zm24.613-8.117c-.756-.76-2.148-1.24-3.712-1.24-1.478 0-2.888.292-3.146 1.274-.498 1.862 7.477 1.724 6.188 6.636-.877 3.344-4.04 5.085-9.196 5.085-1.875 0-3.748-.5-4.883-1.327 0 0 .602-2.29.894-3.376l.637-.018c.876.742 2.337 1.224 3.867 1.224 2.252 0 2.888-.62 3.077-1.328.62-2.36-7.65-1.93-6.307-7.015.79-3.034 3.798-4.792 8.525-4.792 2.766 0 4.158.448 5.396 1.482 0 0-.636 2.396-.894 3.396h-.447zm14.988 0c-.756-.76-2.15-1.24-3.695-1.24-1.48 0-2.87.292-3.13 1.274-.48 1.862 7.478 1.724 6.19 6.636-.878 3.344-4.023 5.085-9.196 5.085-1.874 0-3.747-.5-4.882-1.327 0 0 .602-2.29.894-3.376l.636-.018c.894.742 2.337 1.224 3.867 1.224 2.252 0 2.888-.62 3.077-1.328.62-2.36-7.65-1.93-6.308-7.015.79-3.034 3.816-4.792 8.525-4.792 2.77 0 4.16.448 5.4 1.482 0 0-.637 2.38-.895 3.396h-.48z" fill="#DC0814"/><path d="M75 33.5c-1.48 0-2.5-1.07-2.5-2.5 0-1.526 1.15-2.5 2.5-2.5s2.5 1.006 2.5 2.5c-.033 1.494-1.184 2.5-2.5 2.5zm0-4.578c-1.118 0-1.974.844-1.974 2.078 0 1.136.757 2.078 1.974 2.078 1.086 0 1.94-.844 1.94-2.078s-.854-2.078-1.94-2.078zm-.526 3.507h-.46v-2.795H75.1c.69 0 1.017.228 1.017.812 0 .52-.33.714-.723.747l.79 1.234h-.527l-.724-1.203h-.427v1.202h-.033zM75 30.87c.362 0 .658-.032.658-.454 0-.325-.33-.39-.625-.39h-.56v.812H75v.032zM90 93.5c-1.48 0-2.5-1.07-2.5-2.5 0-1.526 1.15-2.5 2.5-2.5s2.5 1.006 2.5 2.5c-.033 1.494-1.184 2.5-2.5 2.5zm0-4.578c-1.118 0-1.974.844-1.974 2.078 0 1.136.757 2.078 1.974 2.078 1.086 0 1.94-.844 1.94-2.078s-.854-2.078-1.94-2.078zm-.526 3.507h-.46v-2.795H90.1c.69 0 1.017.228 1.017.812 0 .52-.33.714-.723.747l.79 1.234h-.527l-.724-1.203h-.427v1.202h-.033zM90 90.87c.362 0 .658-.032.658-.454 0-.325-.33-.39-.625-.39h-.56v.812H90v.032z" fill="#000"/></g></svg>