<svg xmlns="http://www.w3.org/2000/svg" xmlns:xlink="http://www.w3.org/1999/xlink" width="64" height="64"><defs><path id="a" d="M19.23 0h25.54c6.687 0 9.112.696 11.556 2.003a13.63 13.63 0 0 1 5.67 5.67C63.305 10.119 64 12.544 64 19.23v25.542c0 6.686-.696 9.11-2.003 11.555a13.63 13.63 0 0 1-5.67 5.67C53.881 63.305 51.456 64 44.77 64H19.229c-6.686 0-9.11-.696-11.555-2.003a13.63 13.63 0 0 1-5.67-5.67C.695 53.881 0 51.456 0 44.77V19.229c0-6.686.696-9.11 2.003-11.555a13.63 13.63 0 0 1 5.67-5.67C10.119.695 12.544 0 19.23 0z"/></defs><g fill="none" fill-rule="evenodd"><mask id="b" fill="#fff"><use xlink:href="#a"/></mask><use fill="#979797" fill-rule="nonzero" xlink:href="#a"/><g mask="url(#b)"><path fill="#E21B23" d="M0.29 63.658L63.711 63.658 63.711 0.237 0.29 0.237z"/><g transform="translate(1.766 2.207)"><path fill="#FEFEFE" d="M2.072 19.48l-.028-.021.028.02"/><path fill="#FEFEFE" d="M41.685 26.124L47.773 18.901 43.354 15.747 38.227 24.066z"/><path fill="#FEFEFE" d="M47.333 30.27L53.37 23.777 49.932 20.755 44.371 27.941z"/><path fill="#FEFEFE" d="M42.25 50.406l3.09-4.948-13.825-8.167a.612.612 0 0 1-.154-.128l-3.568-4.08-5.681-1.569a.63.63 0 0 1-.156-1.148l1.37-.82-.266-1.788a.63.63 0 1 1 1.03-.574l3.11 2.62 6.746-1.651.286-2.29L20.6 19.671l-8.174 12.464 12.98 18.25c.095.134.133.3.108.463l-1.67 10.602h19.57l-1.254-10.637a.633.633 0 0 1 .091-.407m2.431 11.044l-1.244-10.564L44.68 61.45z"/><path fill="#FEFEFE" d="M45.643 32.142l-.002.002-1.232 2.046a.845.845 0 0 1-1.151.287l-2.866-1.727a.84.84 0 0 1-.288-1.148l1.235-2.048a.834.834 0 0 1 .514-.38.834.834 0 0 1 .637.094l2.864 1.725c.394.24.523.754.29 1.149m-2.616 4.386l-.002.003-1.232 2.046a.84.84 0 0 1-1.15.286l-2.866-1.726a.834.834 0 0 1-.286-1.152l1.233-2.044a.831.831 0 0 1 .517-.381.83.83 0 0 1 .635.096l2.862 1.723a.843.843 0 0 1 .289 1.15m-6.744-.43a.839.839 0 0 1-.43-.12l-2.867-1.726a.842.842 0 0 1-.285-1.15l1.232-2.047a.843.843 0 0 1 1.148-.286l2.868 1.727a.84.84 0 0 1 .288 1.148v.001l-1.233 2.047a.843.843 0 0 1-.721.405m-.967-7.381l1.232-2.046a.834.834 0 0 1 .517-.381.831.831 0 0 1 .635.096l2.864 1.724a.83.83 0 0 1 .381.518.83.83 0 0 1-.096.634l-1.23 2.044a.833.833 0 0 1-.72.407c-.151 0-.3-.04-.432-.12l-2.864-1.726a.841.841 0 0 1-.287-1.15m21.81-.517l-3.95-2.367-5.316 5.72a.629.629 0 0 1-.85.066l-3.91-3.074a.631.631 0 0 1-.109-.881l4.196-5.421-.387-.233-4.496 5.335a.63.63 0 0 1-.805.135l-4.468-2.66a.63.63 0 0 1-.213-.871l3.565-5.784-.483-.289-3.889 5.737a.632.632 0 0 1-.802.21l-5.215-2.587a.632.632 0 0 1-.273-.866l3.532-6.479-.423-.253-3.89 6.47a.628.628 0 0 1-.784.256l-5.74-2.409a.629.629 0 0 1-.326-.848l2.17-4.616-10.321-6.22a1.454 1.454 0 0 0-1.127-.145 1.561 1.561 0 0 0-.938.717l-5.12 8.71c-.434.734-.212 1.672.495 2.09l9.44 5.69 3.152-4.804a.629.629 0 0 1 .787-.228l14.547 6.607a.63.63 0 0 1 .364.652l-.397 3.18a.632.632 0 0 1-.475.533l-1.478.362a.837.837 0 0 1 .256 1.128l-1.23 2.045a.831.831 0 0 1-.72.408.828.828 0 0 1-.434-.123L28.2 31.369a.825.825 0 0 1-.35-.427l-.66.161a.632.632 0 0 1-.556-.13l-2.08-1.753.081.559a.63.63 0 0 1-.298.633l-.469.28 4.443 1.226c.118.033.225.1.307.193l3.626 4.147 13.865 8.19.001-.002.328.196.099.06.003.002.507.303a3.19 3.19 0 0 0 4.359-1.118l6.841-11.331c.43-.727.55-1.583.338-2.409a3.154 3.154 0 0 0-1.456-1.95"/><path fill="#FEFEFE" d="M40.997 31.989L43.648 33.587 44.752 31.755 42.1 30.158z"/><path fill="#FEFEFE" d="M35.278 22.45L40.848 14.235 35.931 11.611 31.141 20.398z"/><path fill="#FEFEFE" d="M39.961 28.871L37.31 27.274 36.206 29.106 38.859 30.704z"/><path fill="#FEFEFE" d="M38.381 36.376L41.033 37.974 42.137 36.141 39.485 34.545z"/><path fill="#FEFEFE" d="M32.557 30.374L31.867 29.958 28.92 30.68 31.454 32.205z"/><path fill="#FEFEFE" d="M33.591 33.492L36.244 35.09 37.347 33.258 34.694 31.66z"/><path fill="#FEFEFE" d="M5.835 15.01l5.119-8.71a2.62 2.62 0 0 1 1.58-1.206 2.51 2.51 0 0 1 1.954.259l10.23 6.166 1.007-2.14L13.279 1.92a3.186 3.186 0 0 0-4.357 1.119l-6.844 11.33a3.189 3.189 0 0 0 1.12 4.36l11.854 7.103 1.052-1.603-9.403-5.668c-1.21-.717-1.6-2.311-.866-3.552"/><path fill="#FEFEFE" d="M28.141 18.991L33.318 10.383 27.658 8.228 23.51 17.048z"/><path fill="#221E1F" d="M58.246 32.558L51.404 43.89a3.19 3.19 0 0 1-4.359 1.118l-.506-.303-.003-.003-.1-.059-.327-.196-.001.002-13.865-8.19-3.627-4.147a.632.632 0 0 0-.306-.192l-4.443-1.227.468-.28a.63.63 0 0 0 .3-.634l-.083-.558 2.08 1.753c.155.13.361.178.557.13l.661-.161a.826.826 0 0 0 .349.428l2.863 1.723a.832.832 0 0 0 .636.098.828.828 0 0 0 .517-.383l1.231-2.044a.837.837 0 0 0-.257-1.13l1.478-.36a.63.63 0 0 0 .476-.534l.398-3.18a.63.63 0 0 0-.365-.652L20.629 18.3a.63.63 0 0 0-.787.228l-3.15 4.805-9.442-5.69c-.707-.42-.93-1.357-.494-2.092l5.118-8.709c.21-.355.544-.61.94-.717.39-.105.79-.054 1.125.144l10.322 6.221-2.17 4.615a.63.63 0 0 0 .326.85l5.74 2.408a.629.629 0 0 0 .783-.256l3.891-6.47.422.253-3.531 6.48a.628.628 0 0 0 .273.865l5.216 2.588a.63.63 0 0 0 .802-.211l3.888-5.737.483.289-3.566 5.784a.63.63 0 0 0 .214.872l4.469 2.66a.627.627 0 0 0 .803-.136L46.8 22.01l.388.232-4.196 5.421a.63.63 0 0 0 .109.88l3.91 3.075a.627.627 0 0 0 .85-.066l5.318-5.72 3.949 2.367a3.158 3.158 0 0 1 1.456 1.95 3.161 3.161 0 0 1-.338 2.408zm-26.379-2.6l.69.416-1.103 1.832-2.534-1.526 2.947-.722zm-16.815-4.126L3.2 18.728a3.19 3.19 0 0 1-1.121-4.358L8.922 3.039a3.188 3.188 0 0 1 4.356-1.12l12.446 7.46-1.006 2.14-10.23-6.166a2.508 2.508 0 0 0-1.953-.259 2.626 2.626 0 0 0-1.581 1.207l-5.119 8.708c-.734 1.24-.344 2.835.866 3.552l9.403 5.667-1.052 1.604zM27.658 8.228l5.66 2.155-5.176 8.608-4.632-1.943 4.148-8.82zm8.273 3.383l4.917 2.623-5.57 8.217-4.137-2.053 4.79-8.787zm7.423 4.136l4.419 3.154-6.088 7.223-3.458-2.058 5.127-8.319zm6.578 5.008l3.437 3.022-6.036 6.493-2.962-2.33 5.56-7.185zm9.872 9.082a4.405 4.405 0 0 0-2.031-2.72l-3.718-2.227.677-.73a.629.629 0 0 0-.045-.901l-4.427-3.893a.63.63 0 0 0-.914.088l-1.382 1.785-.34-.204 1.553-1.844a.628.628 0 0 0-.117-.919l-5.523-3.942a.629.629 0 0 0-.902.182l-1.59 2.58-.435-.261 1.674-2.47a.63.63 0 0 0-.225-.908l-6.086-3.248a.63.63 0 0 0-.85.255l-1.266 2.324-.376-.226 1.305-2.171a.633.633 0 0 0-.316-.913l-6.91-2.631a.63.63 0 0 0-.793.321l-.503 1.07L13.924.836A4.447 4.447 0 0 0 7.84 2.392L.94 13.812c-1.181 2.044-.524 4.355 1.104 5.646.008.008.018.015.027.022a4.71 4.71 0 0 0 .482.33l11.807 7.077-3.225 4.918a.627.627 0 0 0 .013.71l13.08 18.39-1.66 10.545h1.275l1.67-10.602a.632.632 0 0 0-.109-.463l-12.98-18.25L20.6 19.672l13.634 6.19-.287 2.29-6.746 1.652-3.11-2.62a.629.629 0 0 0-1.03.574l.267 1.79-1.371.818a.629.629 0 0 0 .156 1.148l5.68 1.569 3.57 4.08c.043.05.096.094.153.128l13.825 8.167-3.09 4.949a.632.632 0 0 0-.09.406l1.253 10.637h1.269l-1.245-10.565 2.987-4.784a4.443 4.443 0 0 0 6.062-1.566l6.84-11.328.002-.005a4.411 4.411 0 0 0 .476-3.365z"/><path fill="#221E1F" d="M41.033 37.974l-2.652-1.598 1.104-1.832 2.652 1.597-1.104 1.833zm1.706-2.595l-2.863-1.723a.829.829 0 0 0-.634-.097.83.83 0 0 0-.517.382l-1.233 2.044a.833.833 0 0 0-.095.636c.054.218.19.402.381.516l2.866 1.726a.841.841 0 0 0 1.15-.286l1.232-2.046.002-.002a.843.843 0 0 0-.289-1.15zm-6.495-.289l-2.653-1.598 1.103-1.832 2.653 1.598-1.103 1.832zm1.994-1.445a.842.842 0 0 0-.288-1.148l-2.868-1.727a.845.845 0 0 0-1.148.286l-1.232 2.047a.841.841 0 0 0 .286 1.15l2.866 1.727a.842.842 0 0 0 1.15-.287l1.233-2.047zm5.41-.057l-2.652-1.599 1.103-1.831 2.653 1.597-1.104 1.833zm1.706-2.594l-2.864-1.725a.832.832 0 0 0-.636-.095.833.833 0 0 0-.515.38l-1.234 2.048a.84.84 0 0 0 .288 1.148l2.865 1.727a.845.845 0 0 0 1.152-.287l1.232-2.046v-.002a.844.844 0 0 0-.288-1.148zm-8.044-3.72l2.65 1.597-1.101 1.833-2.653-1.598 1.104-1.832zm-1.706 2.593l2.864 1.725a.826.826 0 0 0 .635.096.834.834 0 0 0 .517-.381l1.23-2.045a.829.829 0 0 0 .096-.634.83.83 0 0 0-.38-.517L37.7 26.386a.83.83 0 0 0-.635-.096.835.835 0 0 0-.517.381l-1.232 2.046a.838.838 0 0 0 .287 1.15zm23.463-4.35h.128c.15 0 .275-.05.275-.192 0-.101-.072-.2-.275-.2a.63.63 0 0 0-.128.011v.382zm0 .632h-.187v-1.137c.099-.013.19-.027.321-.027.176 0 .288.034.355.088.067.047.106.126.106.233 0 .15-.1.24-.222.278v.008c.1.02.168.107.188.276a.937.937 0 0 0 .074.281h-.193a.95.95 0 0 1-.075-.291c-.027-.144-.098-.197-.242-.197h-.125v.488zm.186-1.451c-.446 0-.814.384-.814.858 0 .485.368.863.82.863.452.005.811-.378.811-.857 0-.48-.359-.864-.812-.864h-.005zm.005-.16c.555 0 .999.451.999 1.018 0 .575-.444 1.021-1.004 1.021a1.01 1.01 0 0 1-1.008-1.021c0-.567.454-1.018 1.008-1.018h.005z"/></g></g></g></svg>