<svg xmlns="http://www.w3.org/2000/svg" viewBox="0 0 36.7 53.26"><defs><style>.cls-1{fill:#e31b23;}</style></defs><title>Asset 3</title><g id="Layer_2" data-name="Layer 2"><g id="ELEMENTS_OTHERS" data-name="ELEMENTS + OTHERS"><path class="cls-1" d="M29.62,0H7.08A7.2,7.2,0,0,0,0,7.3V46a7.2,7.2,0,0,0,7.08,7.3H29.62A7.21,7.21,0,0,0,36.7,46V7.3A7.21,7.21,0,0,0,29.62,0Zm3.81,46a3.88,3.88,0,0,1-3.81,3.93H7.08A3.88,3.88,0,0,1,3.27,46V43.77H33.43Zm0-5.55H3.27V12.85H33.43Zm0-30.93H3.27V7.3A3.87,3.87,0,0,1,7.08,3.37H29.62A3.87,3.87,0,0,1,33.43,7.3Z"/><path d="M25,23.27l-6.77-7-6.77,7a1.73,1.73,0,0,0,0,2.39,1.6,1.6,0,0,0,2.31,0l2.82-2.92V34.89a1.64,1.64,0,1,0,3.27,0V22.74l2.83,2.92a1.62,1.62,0,0,0,1.15.49A1.65,1.65,0,0,0,25,25.66a1.73,1.73,0,0,0,0-2.39"/></g></g></svg>