<?xml version="1.0" encoding="UTF-8"?>
<svg width="58px" height="73px" viewBox="0 0 58 73" version="1.1" xmlns="http://www.w3.org/2000/svg" xmlns:xlink="http://www.w3.org/1999/xlink">
    <g id="MT-Service-page" stroke="none" stroke-width="1" fill="none" fill-rule="evenodd">
        <g id="Group-34" transform="translate(0.000000, 0.000000)">
            <path d="M16.3977997,0.299665282 L16.5889886,0.399580459 L25.6789886,5.77958046 L26.0089886,5.15958046 C26.0624886,5.05898046 26.1513886,4.98178046 26.2585886,4.94298046 C26.3389136,4.91388046 26.4252573,4.90789921 26.5079167,4.92491015 L26.5889886,4.94958046 L30.8989886,6.59958046 C30.9617886,6.62418046 31.0187886,6.66178046 31.0660886,6.70988046 C31.1133886,6.75798046 31.1500886,6.81548046 31.1736886,6.87878046 C31.1972886,6.94198046 31.2072886,7.00948046 31.2029886,7.07678046 C31.2001886,7.12171379 31.1910774,7.16589157 31.1760108,7.20803972 L31.1489886,7.26958046 L30.3989886,8.60958046 L30.9789886,8.95958046 L31.8189886,7.49958046 C31.8798886,7.39348046 31.9797886,7.31528046 32.0974886,7.28168046 C32.1856886,7.25648046 32.2786698,7.25783046 32.3651261,7.28450702 L32.4489886,7.31958046 L36.5589886,9.55958046 C36.6154886,9.58968046 36.6652886,9.63108046 36.7052886,9.68118046 C36.7452886,9.73118046 36.7745886,9.78888046 36.7914886,9.85078046 C36.8082886,9.91258046 36.8123886,9.97718046 36.8032886,10.0405805 C36.7972886,10.0828471 36.7855552,10.1240471 36.7685034,10.1629953 L36.7389886,10.2195805 L35.7389886,11.8195805 L36.4089886,12.1595805 L37.4089886,10.5295805 C37.4441886,10.4767805 37.4895886,10.4314805 37.5423886,10.3963805 C37.5952886,10.3611805 37.6545886,10.3368805 37.7168886,10.3247805 C37.7791886,10.3126805 37.8432886,10.3130805 37.9053886,10.3258805 C37.9468552,10.3344805 37.9868997,10.3484582 38.0245145,10.3674286 L38.0789886,10.3995805 L41.6889886,13.0495805 C41.7892886,13.1267805 41.8550886,13.2405805 41.8719886,13.3660805 C41.8845886,13.4602055 41.8689511,13.5551742 41.8281136,13.6393851 L41.7789886,13.7195805 L40.9289886,14.8195805 L41.4989886,15.0895805 L42.3389886,14.0095805 C42.3837886,13.9632805 42.4373886,13.9264805 42.4965886,13.9013805 C42.5558886,13.8762805 42.6195886,13.8632805 42.6839886,13.8632805 C42.7483886,13.8632805 42.8120886,13.8762805 42.8713886,13.9013805 C42.9108552,13.9181138 42.947833,13.9400471 42.9813737,13.9665286 L43.0289886,14.0095805 L46.1189886,16.8395805 C46.2062886,16.9291805 46.2551886,17.0494805 46.2551886,17.1745805 C46.2551886,17.2684805 46.2276823,17.359568 46.1770995,17.437043 L46.1189886,17.5095805 L45.8789886,17.7595805 L47.3989886,18.6595805 C47.7452886,18.8596805 48.0480886,19.1270805 48.2895886,19.4459805 C48.5310886,19.7647805 48.7063886,20.1287805 48.8050886,20.5163805 C48.9038886,20.9039805 48.9240886,21.3073805 48.8646886,21.7029805 C48.8171686,22.0193805 48.7193446,22.3256685 48.5754662,22.6103245 L48.4589886,22.8195805 L43.8589886,30.6095805 C43.4688886,31.2797805 42.8343886,31.7727805 42.0885886,31.9852805 C41.4106795,32.1785532 40.6886381,32.1262887 40.0484601,31.8418605 L39.8589886,31.7495805 L37.5889886,34.6095805 L38.4753633,45.0143846 C38.1694362,45.0708188 37.8720923,45.1400857 37.5843492,45.2216127 L36.6289886,34.5095805 C36.6224636,34.4206305 36.6408573,34.332243 36.6813011,34.2540367 L36.7289886,34.1795805 L39.0389886,31.2695805 L29.1489886,25.4095805 C29.1202552,25.3955138 29.0939219,25.377136 29.0709071,25.3551582 L29.0389886,25.3195805 L26.4789886,22.4695805 L22.9089886,21.6495805 C22.8296886,21.6332805 22.7561886,21.5958805 22.6963886,21.5412805 C22.6364886,21.4867805 22.5924886,21.4170805 22.5689886,21.3395805 C22.5442886,21.2630805 22.5395886,21.1815805 22.5552886,21.1028805 C22.5658219,21.0503471 22.5851997,21.0001693 22.6124145,20.9544805 L22.6589886,20.8895805 L23.1489886,20.3095805 L22.4589886,18.8095805 C22.4199886,18.7166805 22.4106886,18.6139805 22.4320886,18.5155805 C22.4535886,18.4171805 22.5048886,18.3277805 22.5789886,18.2595805 C22.6536886,18.1942805 22.7470886,18.1542805 22.8458886,18.1452805 C22.9199886,18.1385305 22.9942573,18.1494992 23.0627042,18.1768367 L23.1289886,18.2095805 L25.3489886,19.5195805 L30.7489886,17.0695805 L30.5289886,15.5495805 L20.5289886,13.9295805 L15.2389886,22.4195805 L24.8189886,34.4895805 C24.8738136,34.5599305 24.9075448,34.643668 24.9173136,34.7311742 L24.9189886,34.8195805 L24.1472142,45.1038825 C23.8076398,45.1745666 23.4868613,45.2579625 23.1837029,45.3526652 L23.9989886,34.9895805 L14.3289886,22.7795805 C14.2705886,22.7016805 14.2389886,22.6069805 14.2389886,22.5095805 C14.2389886,22.4365305 14.2567636,22.3649992 14.2902886,22.3009351 L14.3289886,22.2395805 L16.8689886,18.1595805 L8.92898855,13.4595805 C8.29298855,13.0805805 7.81958855,12.4796805 7.59988855,11.7726805 C7.40215855,11.1362905 7.42256155,10.4543785 7.65402625,9.83396166 L7.73898855,9.62958046 L2.73898855,6.62958046 C2.86848855,6.53688046 2.98018855,6.42178046 3.06898855,6.28958046 C3.10858855,6.22098046 3.14129966,6.14864713 3.16661818,6.07373601 L3.19898855,5.95958046 L8.06898855,8.87958046 L12.4689886,1.45958046 C12.8840886,0.783080459 13.5458886,0.294280459 14.3146886,0.0964804586 C15.0135067,-0.0832468142 15.7510026,-0.00983359103 16.3977997,0.299665282 Z M1.55898855,4.66958046 C2.13898855,5.01958046 2.42898855,5.57958046 2.18898855,5.95958046 C1.94898855,6.33958046 1.29898855,6.34958046 0.718988552,6.00958046 C0.138988552,5.67958046 -0.151011448,5.09958046 0.0789885521,4.72958046 C0.308988552,4.35958046 0.978988552,4.31958046 1.55898855,4.66958046 Z" id="Combined-Shape-Copy" fill="#231F20" fill-rule="nonzero"></path>
            <path d="M32.3989886,13.2995805 C32.4949886,13.3170805 32.5830886,13.3640805 32.6511886,13.4339805 C32.7192886,13.5037805 32.7639886,13.5931805 32.7789886,13.6895805 L32.9289886,14.6095805 L35.6489886,10.1095805 L32.4089886,8.36958046 L29.8189886,12.8195805 L32.3989886,13.2995805 Z" id="Path-Copy" fill="#FFFFFF" fill-rule="nonzero"></path>
            <polygon id="Path-Copy-2" fill="#FFFFFF" fill-rule="nonzero" points="40.2189886 22.3495805 45.1089886 17.2095805 42.7389886 15.0395805 38.2189886 20.8495805"></polygon>
            <polygon id="Path-Copy-3" fill="#FFFFFF" fill-rule="nonzero" points="36.2889886 19.2895805 40.7389886 13.5195805 37.9389886 11.4595805 34.0889886 17.6195805"></polygon>
            <path d="M18.1189886,16.0095805 L12.2889886,12.5295805 C12.0964886,12.4160805 11.9281886,12.2657805 11.7938886,12.0871805 C11.6594886,11.9086805 11.5615886,11.7053805 11.5058886,11.4889805 C11.4501886,11.2725805 11.4376886,11.0472805 11.4690886,10.8260805 C11.5004886,10.6047805 11.5751886,10.3918805 11.6889886,10.1995805 L15.0989886,4.43958046 C15.3336886,4.05408046 15.7097886,3.77558046 16.1468886,3.66348046 C16.5840886,3.55138046 17.0477886,3.61458046 17.4389886,3.83958046 L24.4389886,7.99958046 L25.2089886,6.56958046 L16.1089886,1.18958046 C15.7878886,1.00008046 15.4218886,0.899980459 15.0489886,0.899487778 C14.6852886,0.896180459 14.3268886,0.986380459 14.0081886,1.16148046 C13.6893886,1.33658046 13.4210886,1.59078046 13.2289886,1.89958046 L8.58898855,9.75958046 C8.30718855,10.2400805 8.22678855,10.8125805 8.36548855,11.3520805 C8.50408855,11.8915805 8.85048855,12.3543805 9.32898855,12.6395805 L17.3289886,17.3495805 L18.1189886,16.0095805 Z" id="Path-Copy-4" fill="#FFFFFF" fill-rule="nonzero"></path>
            <polygon id="Path-Copy-5" fill="#FFFFFF" fill-rule="nonzero" points="27.1989886 12.3895805 30.0589886 7.28958046 26.6089886 5.96958046 23.4589886 11.7495805"></polygon>
            <path d="M46.9389886,19.4395805 L45.2389886,18.4395805 L40.5889886,23.2995805 C40.5462886,23.3473805 40.4937886,23.3854805 40.4351886,23.4112805 C40.3765886,23.4371805 40.3130886,23.4501805 40.2489886,23.4495805 C40.1483886,23.4502805 40.0502886,23.4187805 39.9689886,23.3595805 L37.2489886,21.3595805 C37.1985886,21.3214805 37.1565886,21.2733805 37.1256886,21.2182805 C37.0946886,21.1632805 37.0753886,21.1023805 37.0689886,21.0395805 C37.0589886,20.9781805 37.0617886,20.9153805 37.0772886,20.8551805 C37.0927886,20.7948805 37.1205886,20.7384805 37.1589886,20.6895805 L40.8889886,15.9095805 L40.3489886,15.5895805 L36.7289886,20.2795805 C36.6854886,20.3362805 36.6294886,20.3819805 36.5651886,20.4132805 C36.5009886,20.4444805 36.4303886,20.4603805 36.3589886,20.4595805 C36.2536886,20.4603805 36.1513886,20.4250805 36.0689886,20.3595805 L33.1589886,18.1495805 C33.0671886,18.0781805 33.0050886,17.9752805 32.9847886,17.8606805 C32.9644886,17.7461805 32.9873886,17.6281805 33.0489886,17.5295805 L35.9189886,12.9295805 L35.2789886,12.5495805 L33.0489886,16.2395805 C33.0048886,16.3079805 32.9441886,16.3640805 32.8723886,16.4025805 C32.8006886,16.4410805 32.7203886,16.4606805 32.6389886,16.4595805 L32.5889886,16.4595805 C32.4953886,16.4388805 32.4101886,16.3907805 32.3442886,16.3212805 C32.2782886,16.2516805 32.2346886,16.1640805 32.2189886,16.0695805 L31.9289886,14.2095805 L29.0089886,13.6795805 C28.9347886,13.6651805 28.8650886,13.6331805 28.8058886,13.5861805 C28.7467886,13.5391805 28.6997886,13.4785805 28.6689886,13.4095805 C28.6321886,13.3438805 28.6128886,13.2698805 28.6128886,13.1945805 C28.6128886,13.1192805 28.6321886,13.0452805 28.6689886,12.9795805 L30.5889886,9.69958046 L30.0189886,9.35958046 L27.8989886,13.1395805 C27.8589886,13.2130805 27.7995886,13.2742805 27.7273886,13.3165805 C27.6550886,13.3588805 27.5726886,13.3806805 27.4889886,13.3795805 L27.4089886,13.3795805 L22.6889886,12.5795805 C22.6148886,12.5687805 22.5446886,12.5391805 22.4851886,12.4936805 C22.4256886,12.4481805 22.3787886,12.3882805 22.3489886,12.3195805 C22.3147886,12.2530805 22.2968886,12.1793805 22.2968886,12.1045805 C22.2968886,12.0297805 22.3147886,11.9560805 22.3489886,11.8895805 L24.0589886,8.74958046 L17.0589886,4.57958046 C16.9267886,4.50838046 16.7791886,4.47058046 16.6289886,4.46958046 C16.4812886,4.47118046 16.3362886,4.50948046 16.2071886,4.58098046 C16.0779886,4.65258046 15.9685886,4.75518046 15.8889886,4.87958046 L12.4789886,10.6395805 C12.3651886,10.8348805 12.3328886,11.0671805 12.3889886,11.2860805 C12.4451886,11.5050805 12.5852886,11.6930805 12.7789886,11.8095805 L18.5889886,15.2895805 L19.9189886,13.1695805 C19.9670886,13.0907805 20.0372886,13.0279805 20.1208886,12.9887805 C20.2044886,12.9496805 20.2976886,12.9360805 20.3889886,12.9495805 L31.0289886,14.6795805 C31.1281886,14.6957805 31.2196886,14.7433805 31.2898886,14.8153805 C31.3600886,14.8873805 31.4052886,14.9799805 31.4189886,15.0795805 L31.7289886,17.2895805 C31.7391886,17.3915805 31.7177886,17.4942805 31.6676886,17.5836805 C31.6175886,17.6730805 31.5412886,17.7449805 31.4489886,17.7895805 L25.4889886,20.4795805 C25.4224886,20.5137805 25.3487886,20.5316805 25.2739886,20.5316805 C25.1991886,20.5316805 25.1254886,20.5137805 25.0589886,20.4795805 L23.9189886,19.8195805 L24.1089886,20.2295805 C24.1448886,20.3111805 24.1573886,20.4011805 24.1449886,20.4894805 C24.1326886,20.5778805 24.0959886,20.6609805 24.0389886,20.7295805 L23.8489886,20.9495805 L26.8489886,21.6295805 C26.9468886,21.6496805 27.0350886,21.7025805 27.0989886,21.7795805 L29.7089886,24.6795805 L40.1989886,30.9295805 C40.6806886,31.2060805 41.2514886,31.2835805 41.7894886,31.1452805 C42.3274886,31.0070805 42.7901886,30.6640805 43.0789886,30.1895805 L47.7189886,22.3595805 C47.8631886,22.1175805 47.9573886,21.8491805 47.9961886,21.5701805 C48.0349886,21.2911805 48.0174886,21.0071805 47.9447886,20.7350805 C47.8720886,20.4628805 47.7456886,20.2080805 47.5728886,19.9855805 C47.4001886,19.7630805 47.1845886,19.5774805 46.9389886,19.4395805 Z" id="Path-Copy-6" fill="#FFFFFF" fill-rule="nonzero"></path>
            <path d="M30.9589886,19.3195805 C31.0654886,19.3184805 31.1699886,19.2903805 31.2626886,19.2378805 C31.3552886,19.1853805 31.4331886,19.1102805 31.4889886,19.0195805 L31.9189886,18.2995805 L30.2989886,19.0295805 L30.6389886,19.2295805 C30.7354886,19.2881805 30.8460886,19.3192805 30.9589886,19.3195805 Z" id="Path-Copy-7" fill="#231F20" fill-rule="nonzero"></path>
            <path d="M30.7089886,19.9795805 C30.6897886,19.9007805 30.6538886,19.8270805 30.6038886,19.7632805 C30.5538886,19.6994805 30.4908886,19.6470805 30.4189886,19.6095805 L29.8189886,19.2495805 L29.0089886,19.6195805 L29.9589886,20.1795805 L29.1989886,21.4595805 L27.3589886,20.3695805 L26.6589886,20.6895805 C26.7066886,20.7839805 26.7792886,20.8634805 26.8689886,20.9195805 L28.8689886,22.1395805 C28.9679886,22.1906805 29.0775886,22.2179805 29.1889886,22.2195805 C29.2960886,22.2213805 29.4016886,22.1945805 29.4948886,22.1417805 C29.5880886,22.0890805 29.6654886,22.0122805 29.7189886,21.9195805 L30.5889886,20.4495805 C30.6411886,20.3841805 30.6788886,20.3084805 30.6994886,20.2274805 C30.7201886,20.1464805 30.7234886,20.0619805 30.7089886,19.9795805 Z" id="Path-Copy-8" fill="#231F20" fill-rule="nonzero"></path>
            <path d="M32.0189886,20.0495805 L34.0789886,21.2695805 C34.1739886,21.3216805 34.2805886,21.3491805 34.3889886,21.3495805 C34.4973886,21.3511805 34.6042886,21.3242805 34.6989886,21.2715805 C34.7937886,21.2189805 34.8730886,21.1423805 34.9289886,21.0495805 L35.2089886,20.5695805 L34.5889886,20.1195805 L34.3189886,20.5895805 L32.4889886,19.4795805 L32.8989886,18.7895805 L32.3089886,18.3495805 L31.8089886,19.1995805 C31.7243886,19.3401805 31.6988886,19.5086805 31.7382886,19.6679805 C31.7776886,19.8272805 31.8785886,19.9645805 32.0189886,20.0495805 Z" id="Path-Copy-9" fill="#231F20" fill-rule="nonzero"></path>
            <path d="M37.7889886,22.6195805 L35.9189886,21.5095805 L36.0789886,21.2395805 L35.4989886,20.8195805 L35.2389886,21.2695805 C35.1583886,21.4104805 35.1362886,21.5774805 35.1773886,21.7344805 C35.2184886,21.8915805 35.3195886,22.0262805 35.4589886,22.1095805 L37.5089886,23.3295805 C37.5788886,23.3723805 37.6565886,23.4007805 37.7376886,23.4128805 C37.8186886,23.4249805 37.9013886,23.4206805 37.9806886,23.4000805 C38.0600886,23.3795805 38.1343886,23.3432805 38.1993886,23.2933805 C38.2643886,23.2434805 38.3186886,23.1809805 38.3589886,23.1095805 L38.3589886,23.0495805 L37.7789886,22.5995805 L37.7889886,22.6195805 Z" id="Path-Copy-10" fill="#231F20" fill-rule="nonzero"></path>
            <path d="M34.1389886,22.0195805 C34.1203886,21.9405805 34.0860886,21.8661805 34.0378886,21.8008805 C33.9897886,21.7355805 33.9288886,21.6806805 33.8589886,21.6395805 L31.7989886,20.4195805 C31.6569886,20.3439805 31.4916886,20.3245805 31.3359886,20.3653805 C31.1802886,20.4060805 31.0456886,20.5039805 30.9589886,20.6395805 L30.0889886,22.1095805 C30.0458886,22.1789805 30.0174886,22.2565805 30.0054886,22.3373805 C29.9934886,22.4181805 29.9979886,22.5005805 30.0189886,22.5795805 C30.0376886,22.6571805 30.0721886,22.7301805 30.1203886,22.7937805 C30.1685886,22.8574805 30.2293886,22.9104805 30.2989886,22.9495805 L32.3589886,24.1695805 C32.4519886,24.2277805 32.5592886,24.2589805 32.6689886,24.2595805 C32.7781886,24.2590805 32.8852886,24.2302805 32.9799886,24.1759805 C33.0745886,24.1215805 33.1535886,24.0435805 33.2089886,23.9495805 L34.0789886,22.4895805 C34.1583886,22.3463805 34.1798886,22.1781805 34.1389886,22.0195805 Z M32.6389886,23.4895805 L30.7689886,22.3795805 L31.5289886,21.1095805 L33.3889886,22.2095805 L32.6389886,23.4895805 Z" id="Shape-Copy" fill="#231F20" fill-rule="nonzero"></path>
            <path d="M37.2889886,23.6695805 L35.2389886,22.4595805 C35.0971886,22.3800805 34.9303886,22.3574805 34.7724886,22.3964805 C34.6145886,22.4354805 34.4774886,22.5331805 34.3889886,22.6695805 L33.5189886,24.1395805 C33.4378886,24.2820805 33.4154886,24.4504805 33.4564886,24.6091805 C33.4975886,24.7679805 33.5988886,24.9043805 33.7389886,24.9895805 L35.7989886,26.2095805 C35.8939886,26.2616805 36.0005886,26.2891805 36.1089886,26.2895805 C36.2154886,26.2884805 36.3199886,26.2603805 36.4126886,26.2078805 C36.5052886,26.1553805 36.5831886,26.0802805 36.6389886,25.9895805 L37.5089886,24.5195805 C37.5504886,24.4493805 37.5776886,24.3716805 37.5890886,24.2908805 C37.6004886,24.2100805 37.5957886,24.1278805 37.5753886,24.0489805 C37.5548886,23.9699805 37.5190886,23.8957805 37.4699886,23.8306805 C37.4207886,23.7656805 37.3592886,23.7108805 37.2889886,23.6695805 Z M36.0689886,25.5195805 L34.1989886,24.4195805 L34.9589886,23.1395805 L36.8289886,24.2395805 L36.0689886,25.5195805 Z" id="Shape-Copy-2" fill="#231F20" fill-rule="nonzero"></path>
            <path d="M20.5289886,13.9295805 L30.5289886,15.5495805 L30.7489886,17.0695805 L25.3489886,19.5195805 L23.1289886,18.2095805 C23.0437886,18.1587805 22.9446886,18.1362805 22.8458886,18.1452805 C22.7470886,18.1542805 22.6536886,18.1942805 22.5789886,18.2595805 C22.5048886,18.3277805 22.4535886,18.4171805 22.4320886,18.5155805 C22.4106886,18.6139805 22.4199886,18.7166805 22.4589886,18.8095805 L23.1489886,20.3095805 L22.6589886,20.8895805 C22.6067886,20.9505805 22.5710886,21.0240805 22.5552886,21.1028805 C22.5395886,21.1815805 22.5442886,21.2630805 22.5689886,21.3395805 C22.5924886,21.4170805 22.6364886,21.4867805 22.6963886,21.5412805 C22.7561886,21.5958805 22.8296886,21.6332805 22.9089886,21.6495805 L26.4789886,22.4695805 L29.0389886,25.3195805 C29.0681886,25.3576805 29.1058886,25.3884805 29.1489886,25.4095805 L39.0389886,31.2695805 L36.7289886,34.1795805 C36.6558886,34.2733805 36.6202886,34.3909805 36.6289886,34.5095805 L37.5843492,45.2216127 C35.6544243,45.7684237 34.1563939,46.8667646 33.3972971,48.3439259 C33.2572971,47.8739259 32.1072971,44.8339259 26.9972971,44.8339259 C25.9234799,44.8339259 24.9795367,44.9307111 24.1482234,45.1036725 L24.9189886,34.8195805 C24.9276886,34.7009805 24.8920886,34.5833805 24.8189886,34.4895805 L15.2389886,22.4195805 L20.5289886,13.9295805 Z" id="Combined-Shape-Copy-2" fill="#FFFFFF" fill-rule="nonzero"></path>
            <path d="M2.58898855,62.9800075 L4.28898855,62.9800075 C5.04468855,62.9535075 5.80128855,62.9970075 6.54898855,63.1100075 C6.75068855,63.1459075 6.94318855,63.2219075 7.11488855,63.3336075 C7.28668855,63.4452075 7.43428855,63.5902075 7.54898855,63.7600075 C7.84108855,64.2693075 7.97348855,64.8546075 7.92898855,65.4400075 C7.95508855,65.9331075 7.83698855,66.4230075 7.58898855,66.8500075 C7.46128855,66.9872075 7.30638855,67.0962075 7.13428855,67.1703075 C6.96208855,67.2443075 6.77638855,67.2817075 6.58898855,67.2800075 C6.94598855,67.3366075 7.27738855,67.5005075 7.53898855,67.7500075 C7.67818855,67.8998075 7.77788855,68.0820075 7.82898855,68.2800075 C7.89658855,68.7199075 7.92008855,69.1654075 7.89898855,69.6100075 L7.89898855,71.9800075 L5.69898855,71.9800075 L5.69898855,68.9800075 C5.72948855,68.6780075 5.68838855,68.3731075 5.57898855,68.0900075 C5.50568855,67.9700075 5.30568855,67.9100075 4.97898855,67.9100075 L4.97898855,71.9800075 L2.58898855,71.9800075 L2.58898855,62.9800075 Z M4.94898855,64.5200075 L4.94898855,66.5200075 C5.14118855,66.5368075 5.33448855,66.5023075 5.50898855,66.4200075 C5.61898855,66.3400075 5.66898855,66.1100075 5.66898855,65.7100075 L5.66898855,65.2200075 C5.68358855,65.1191075 5.67688855,65.0162075 5.64938855,64.9181075 C5.62178855,64.8199075 5.57398855,64.7286075 5.50898855,64.6500075 C5.35078855,64.5509075 5.16498855,64.5054075 4.97898855,64.5200075 L4.94898855,64.5200075 Z M8.58898855,62.9800075 L12.5289886,62.9800075 L12.5289886,64.7800075 L10.9489886,64.7800075 L10.9489886,66.4900075 L12.4189886,66.4900075 L12.4189886,68.2000075 L10.9489886,68.2000075 L10.9489886,70.2000075 L12.6789886,70.2000075 L12.6789886,71.9800075 L8.58898855,71.9800075 L8.58898855,62.9800075 Z M19.1489886,62.9800075 L17.9489886,71.9800075 L14.3489886,71.9800075 L12.9789886,62.9800075 L15.4789886,62.9800075 C15.7689886,65.4600075 15.9689886,67.5600075 16.0989886,69.2700075 C16.2189886,67.5400075 16.3489886,66.0000075 16.4789886,64.6600075 L16.6489886,62.9800075 L19.1489886,62.9800075 Z M24.8089886,68.2500075 C24.8089886,69.1633075 24.7889886,69.8033075 24.7489886,70.1700075 C24.7066886,70.5347075 24.5647886,70.8806075 24.3389886,71.1700075 C24.1062886,71.4878075 23.7917886,71.7366075 23.4289886,71.8900075 C23.0010886,72.0656075 22.5413886,72.1508075 22.0789886,72.1400075 C21.6328886,72.1691075 21.1851886,72.1148075 20.7589886,71.9800075 C20.3888886,71.8298075 20.0646886,71.5849075 19.8189886,71.2700075 C19.5965886,70.9776075 19.4520886,70.6335075 19.3989886,70.2700075 C19.3589886,69.8967075 19.3389886,69.2300075 19.3389886,68.2700075 L19.3389886,66.7100075 C19.3389886,65.8100075 19.3589886,65.1700075 19.3989886,64.7900075 C19.4448886,64.4280075 19.5825886,64.0838075 19.7989886,63.7900075 C20.0378886,63.4742075 20.3549886,63.2260075 20.7189886,63.0700075 C21.1482886,62.8991075 21.6069886,62.8142075 22.0689886,62.8200075 C22.5171886,62.8129075 22.9623886,62.8944075 23.3789886,63.0600075 C23.7520886,63.2050075 24.0774886,63.4508075 24.3189886,63.7700075 C24.5398886,64.0633075 24.6841886,64.4070075 24.7389886,64.7700075 C24.7389886,65.1400075 24.7989886,65.7700075 24.7989886,66.7100075 L24.7989886,68.2500075 L24.8089886,68.2500075 Z M22.4489886,65.2500075 C22.4667886,64.9813075 22.4430886,64.7115075 22.3789886,64.4500075 C22.3569886,64.3931075 22.3163886,64.3452075 22.2636886,64.3144075 C22.2109886,64.2835075 22.1493886,64.2714075 22.0889886,64.2800075 C22.0328886,64.2776075 21.9769886,64.2891075 21.9263886,64.3135075 C21.8757886,64.3379075 21.8319886,64.3745075 21.7989886,64.4200075 C21.7139886,64.6879075 21.6833886,64.9701075 21.7089886,65.2500075 L21.7089886,69.4600075 C21.6900886,69.7945075 21.7101886,70.1301075 21.7689886,70.4600075 C21.7938886,70.5204075 21.8361886,70.5720075 21.8904886,70.6083075 C21.9447886,70.6446075 22.0086886,70.6640075 22.0739886,70.6640075 C22.1392886,70.6640075 22.2031886,70.6446075 22.2574886,70.6083075 C22.3117886,70.5720075 22.3540886,70.5204075 22.3789886,70.4600075 C22.4430886,70.1308075 22.4666886,69.7949075 22.4489886,69.4600075 L22.4489886,65.2500075 Z M27.9789886,62.9800075 L27.9789886,70.1800075 L29.4189886,70.1800075 L29.4189886,71.9800075 L25.5889886,71.9800075 L25.5889886,62.9800075 L27.9789886,62.9800075 Z M35.6789886,62.9800075 L35.6789886,68.9800075 C35.6862886,69.4683075 35.6561886,69.9563075 35.5889886,70.4400075 C35.5249886,70.7511075 35.3878886,71.0424075 35.1889886,71.2900075 C34.9636886,71.5843075 34.6630886,71.8123075 34.3189886,71.9500075 C33.9108886,72.1066075 33.4759886,72.1814075 33.0389886,72.1700075 C32.5422886,72.1802075 32.0487886,72.0883075 31.5889886,71.9000075 C31.2226886,71.7576075 30.9014886,71.5193075 30.6589886,71.2100075 C30.4643886,70.9455075 30.3404886,70.6357075 30.2989886,70.3100075 C30.2989886,69.9900075 30.2389886,69.3100075 30.2389886,68.3100075 L30.2389886,62.9800075 L32.6089886,62.9800075 L32.6089886,69.7300075 C32.5965886,69.9849075 32.6167886,70.2403075 32.6689886,70.4900075 C32.6898886,70.5407075 32.7262886,70.5834075 32.7729886,70.6122075 C32.8196886,70.6409075 32.8742886,70.6542075 32.9289886,70.6500075 C32.9906886,70.6580075 33.0531886,70.6444075 33.1060886,70.6116075 C33.1588886,70.5788075 33.1987886,70.5288075 33.2189886,70.4700075 C33.2729886,70.1867075 33.2930886,69.8980075 33.2789886,69.6100075 L33.2789886,62.9800075 L35.6789886,62.9800075 Z M41.3589886,62.9800075 L41.3589886,64.7800075 L39.9489886,64.7800075 L39.9489886,71.9800075 L37.5889886,71.9800075 L37.5889886,64.7800075 L36.1889886,64.7800075 L36.1889886,62.9800075 L41.3589886,62.9800075 Z M44.7089886,62.9800075 L44.7089886,71.9800075 L42.4189886,71.9800075 L42.4189886,62.9800075 L44.7089886,62.9800075 Z M50.8689886,68.2500075 C50.8689886,69.1633075 50.8489886,69.8033075 50.8089886,70.1700075 C50.7666886,70.5347075 50.6248886,70.8806075 50.3989886,71.1700075 C50.1662886,71.4878075 49.8517886,71.7366075 49.4889886,71.8900075 C49.0610886,72.0656075 48.6013886,72.1508075 48.1389886,72.1400075 C47.6961886,72.1688075 47.2518886,72.1145075 46.8289886,71.9800075 C46.4588886,71.8298075 46.1346886,71.5849075 45.8889886,71.2700075 C45.6665886,70.9776075 45.5220886,70.6335075 45.4689886,70.2700075 C45.4689886,69.9000075 45.3989886,69.2700075 45.3989886,68.2700075 L45.3989886,66.7100075 C45.3863886,66.0692075 45.4097886,65.4282075 45.4689886,64.7900075 C45.5148886,64.4280075 45.6525886,64.0838075 45.8689886,63.7900075 C46.1078886,63.4742075 46.4249886,63.2260075 46.7889886,63.0700075 C47.2182886,62.8991075 47.6769886,62.8142075 48.1389886,62.8200075 C48.5871886,62.8129075 49.0323886,62.8944075 49.4489886,63.0600075 C49.8083886,63.2053075 50.1231886,63.4425075 50.3618886,63.7479075 C50.6005886,64.0534075 50.7547886,64.4162075 50.8089886,64.8000075 C50.8089886,65.1700075 50.8689886,65.8000075 50.8689886,66.7400075 L50.8689886,68.2800075 L50.8689886,68.2500075 Z M48.5089886,65.2500075 C48.5267886,64.9813075 48.5030886,64.7115075 48.4389886,64.4500075 C48.4169886,64.3931075 48.3763886,64.3452075 48.3236886,64.3144075 C48.2709886,64.2835075 48.2093886,64.2714075 48.1489886,64.2800075 C48.0928886,64.2776075 48.0369886,64.2891075 47.9863886,64.3135075 C47.9357886,64.3379075 47.8919886,64.3745075 47.8589886,64.4200075 C47.7739886,64.6879075 47.7433886,64.9701075 47.7689886,65.2500075 L47.7689886,69.4600075 C47.7500886,69.7945075 47.7701886,70.1301075 47.8289886,70.4600075 C47.8492886,70.5215075 47.8902886,70.5740075 47.9449886,70.6086075 C47.9996886,70.6433075 48.0646886,70.6579075 48.1289886,70.6500075 C48.1971886,70.6573075 48.2656886,70.6402075 48.3223886,70.6017075 C48.3791886,70.5633075 48.4204886,70.5060075 48.4389886,70.4400075 C48.5030886,70.1108075 48.5266886,69.7749075 48.5089886,69.4400075 L48.5089886,65.2500075 Z M56.8389886,62.9800075 L56.8389886,71.9800075 L54.7689886,71.9800075 L53.5889886,67.3100075 L53.5889886,71.9800075 L51.5889886,71.9800075 L51.5889886,62.9800075 L53.5889886,62.9800075 L54.9189886,67.8400075 L54.9189886,62.9800075 L56.8389886,62.9800075 Z" id="Shape-Copy-3" fill="#333333" fill-rule="nonzero"></path>
            <path d="M56.6889886,50.9595805 L57.5189886,47.8595805 C56.0946886,47.1945805 54.5408886,46.8530805 52.9689886,46.8594894 C49.5489886,46.8594894 46.9689886,48.4195805 46.2889886,50.7195805 C45.0289886,55.0495805 51.6389886,54.5995805 51.1989886,56.2495805 C50.9889886,56.9495805 50.1989886,57.3495805 49.1089886,57.3495805 C47.7101886,57.2942805 46.3609886,56.8166805 45.2389886,55.9795805 L44.3789886,59.0695805 C45.9418886,60.0237805 47.7617886,60.4709805 49.5889886,60.3495805 C53.0089886,60.3495805 55.2189886,58.9795805 55.9189886,56.2595805 C56.9189886,52.1895805 50.2689886,52.4495805 50.8289886,50.6995805 C50.9689886,50.2395805 51.7289886,49.9095805 53.1289886,49.9095805 C54.3898886,49.9237805 55.6221886,50.2871805 56.6889886,50.9595805 Z M44.4089886,50.9595805 L45.2389886,47.8595805 C43.8115886,47.1933805 42.2541886,46.8518805 40.6789886,46.8594531 C37.2589886,46.8594531 34.6789886,48.4195805 34.0089886,50.7195805 C32.7489886,55.0495805 39.3589886,54.5995805 38.9189886,56.2495805 C38.7089886,56.9495805 37.9189886,57.3495805 36.8189886,57.3495805 C35.4236886,57.2922805 34.0781886,56.8147805 32.9589886,55.9795805 L32.0989886,59.0695805 C33.6573886,60.0377805 35.4775886,60.4989805 37.3089886,60.3895805 C40.7289886,60.3895805 42.9389886,59.0195805 43.6389886,56.2995805 C44.6889886,52.2295805 37.9889886,52.4895805 38.5389886,50.7395805 C38.6789886,50.2795805 39.4489886,49.9495805 40.8489886,49.9495805 C42.1060886,49.9516805 43.3380886,50.3012805 44.4089886,50.9595805 Z M26.2589886,49.9595805 C24.3989886,49.9595805 23.8389886,50.9595805 23.1489886,53.4995805 C22.3789886,56.2395805 22.3489886,57.3595805 24.2189886,57.3595805 C26.0889886,57.3595805 26.6289886,56.3595805 27.3289886,53.8495805 C28.0789886,51.1195805 28.0789886,49.9595805 26.2589886,49.9595805 Z M27.1189886,46.8695805 C33.7489886,46.8695805 32.8689886,50.7295805 31.9589886,53.9795805 C31.2189886,56.6795805 30.0489886,60.4995805 23.4689886,60.4995805 C16.8889886,60.4995805 17.7289886,56.5395805 18.5889886,53.3095805 C19.3489886,50.5895805 20.5189886,46.8195805 27.1189886,46.8195805 L27.1189886,46.8695805 Z M8.99898855,52.3295805 L10.5889886,52.3295805 C10.9859886,52.3914805 11.3918886,52.3027805 11.7267886,52.0806805 C12.0616886,51.8586805 12.3014886,51.5193805 12.3989886,51.1295805 C12.6289886,50.4095805 12.0689886,49.9895805 11.2089886,49.9895805 L9.64898855,49.9895805 L8.99898855,52.3195805 L8.99898855,52.3295805 Z M7.64898855,57.2395805 L9.25898855,57.2395805 C10.2589886,57.2395805 11.2589886,56.8195805 11.5089886,56.0095805 C11.7589886,55.1995805 11.2389886,54.3995805 10.0989886,54.3995805 L8.43898855,54.3995805 L7.64898855,57.2395805 Z M2.58898855,60.1295805 L6.14898855,47.1295805 L12.6689886,47.1295805 C16.8289886,47.1295805 17.8989886,48.3595805 17.4589886,50.2195805 C17.0189886,52.0795805 15.7989886,52.8795805 13.1089886,53.4595805 C15.8889886,53.7995805 16.5889886,55.1295805 16.1889886,56.8695805 C15.5889886,59.1895805 13.8189886,60.1295805 8.58898855,60.1295805 L2.58898855,60.1295805 Z" id="Shape-Copy-4" fill="#FFFFFF"></path>
        </g>
    </g>
</svg>