<svg xmlns="http://www.w3.org/2000/svg" xmlns:xlink="http://www.w3.org/1999/xlink" width="64" height="64"><defs><path id="a" d="M19.23 0h25.54c6.687 0 9.112.696 11.556 2.003a13.63 13.63 0 0 1 5.67 5.67C63.305 10.119 64 12.544 64 19.23v25.542c0 6.686-.696 9.11-2.003 11.555a13.63 13.63 0 0 1-5.67 5.67C53.881 63.305 51.456 64 44.77 64H19.229c-6.686 0-9.11-.696-11.555-2.003a13.63 13.63 0 0 1-5.67-5.67C.695 53.881 0 51.456 0 44.77V19.229c0-6.686.696-9.11 2.003-11.555a13.63 13.63 0 0 1 5.67-5.67C10.119.695 12.544 0 19.23 0z"/><path id="c" d="M0.057 0.012L46.189 0.012 46.189 41.309 0.057 41.309z"/></defs><g fill="none" fill-rule="evenodd"><mask id="b" fill="#fff"><use xlink:href="#a"/></mask><use fill="#979797" fill-rule="nonzero" xlink:href="#a"/><g mask="url(#b)"><path fill="#E21A23" d="M0.004 63.996L64 63.996 64 0 0.004 0z"/><path fill="#1A1919" d="M60.94 29.12c0 .134-.154.187-.34.187h-.157v-.368a1.72 1.72 0 0 1 .157-.007c.252 0 .34.094.34.188zm-.719-.299v1.088h.222v-.466h.153c.177 0 .267.049.299.19.03.14.061.241.096.276h.23a.788.788 0 0 1-.087-.268c-.028-.161-.111-.248-.232-.265v-.007c.15-.036.27-.124.27-.266a.24.24 0 0 0-.127-.223c-.083-.051-.222-.084-.432-.084a3.2 3.2 0 0 0-.392.025z"/><path fill="#1A1919" d="M61.36 29.346c0 .46-.346.827-.778.823-.437 0-.784-.362-.784-.83 0-.452.347-.822.78-.822h.004c.432 0 .779.37.779.829zm-.783-.98a.969.969 0 0 0-.966.974.965.965 0 1 0 1.927 0 .962.962 0 0 0-.956-.974h-.005z"/><path fill="#15A748" d="M6.697 24.956l43.145 24.91a2.304 2.304 0 0 0 3.152-.845l7.582-13.131a2.31 2.31 0 0 0-.845-3.152L16.585 7.828a2.304 2.304 0 0 0-3.151.844L5.852 21.803a2.31 2.31 0 0 0 .845 3.152"/><path fill="#1A1919" d="M15.435 6.133a3.69 3.69 0 0 0-3.2 1.847L4.653 21.111a3.692 3.692 0 0 0 1.352 5.043l43.145 24.91a3.69 3.69 0 0 0 5.043-1.351l7.582-13.131a3.692 3.692 0 0 0-1.352-5.043L17.278 6.629a3.675 3.675 0 0 0-1.843-.495zm0 1.385c.402 0 .8.107 1.15.31l43.146 24.91a2.31 2.31 0 0 1 .845 3.152L52.994 49.02a2.305 2.305 0 0 1-3.152.845L6.697 24.956a2.31 2.31 0 0 1-.845-3.152l7.582-13.132a2.317 2.317 0 0 1 2.001-1.154z"/><path fill="#79BB43" d="M54.095 42.193l1.118-1.937a8.76 8.76 0 0 1-2.33-8.63L20.972 13.202a8.801 8.801 0 0 1-6.252 2.632 8.642 8.642 0 0 1-2.386-.333l-1.118 1.936a8.76 8.76 0 0 1 2.33 8.63l31.912 18.425a8.801 8.801 0 0 1 6.251-2.633c.814 0 1.613.112 2.387.334"/><path fill="#1A1919" d="M15.433 8.903a.923.923 0 0 0-.8.461l-2.089 3.617a6.193 6.193 0 0 0 3.803.178 6.217 6.217 0 0 0 3.185-2.031l-3.639-2.101a.918.918 0 0 0-.46-.124zm.055 1.133l2.25 1.3c-.499.355-1.062.62-1.67.783a5.223 5.223 0 0 1-1.87.153l1.29-2.236zM9.14 18.88l-2.088 3.617a.923.923 0 0 0 .338 1.26l3.639 2.102a6.217 6.217 0 0 0 .167-3.774 6.216 6.216 0 0 0-2.056-3.205zm.212 1.786c.366.506.638 1.079.804 1.697.162.608.214 1.228.156 1.838l-2.25-1.3 1.29-2.235zM55.4 31.835a6.217 6.217 0 0 0-.167 3.775 6.217 6.217 0 0 0 2.056 3.204l2.088-3.616a.923.923 0 0 0-.338-1.261l-3.64-2.101zm.717 1.658l2.25 1.3-1.29 2.235a5.183 5.183 0 0 1-.804-1.697 5.187 5.187 0 0 1-.156-1.838zM51.71 44.318a6.29 6.29 0 0 0-1.63.216 6.217 6.217 0 0 0-3.185 2.032l3.639 2.1a.923.923 0 0 0 1.26-.338l2.089-3.616a6.195 6.195 0 0 0-2.173-.394zm0 1.077c.174 0 .347.01.52.027l-1.291 2.235-2.25-1.299c.499-.355 1.062-.62 1.67-.783.443-.12.898-.18 1.35-.18z"/><path fill="#1A1919" d="M20.745 11.828a7.652 7.652 0 0 1-8.9 2.365l-2.006 3.474a7.65 7.65 0 0 1 2.402 8.89l33.442 19.309a7.652 7.652 0 0 1 8.9-2.366l2.006-3.474a7.65 7.65 0 0 1-2.402-8.89L20.745 11.828zm.226 1.374l31.913 18.424a8.76 8.76 0 0 0 2.329 8.63l-1.118 1.937a8.642 8.642 0 0 0-2.387-.334c-2.35 0-4.624.97-6.251 2.633L13.544 26.067a8.76 8.76 0 0 0-2.329-8.63l1.118-1.937a8.642 8.642 0 0 0 2.386.334c2.35 0 4.625-.97 6.252-2.632z"/><path fill="#15A748" d="M36.166 23.754a5.895 5.895 0 0 0-2.942-.791 5.92 5.92 0 0 0-5.114 2.95 5.859 5.859 0 0 0-.59 4.475 5.859 5.859 0 0 0 2.748 3.581 5.895 5.895 0 0 0 2.943.792 5.92 5.92 0 0 0 5.114-2.95 5.905 5.905 0 0 0-2.159-8.057"/><path fill="#79BB43" d="M10.155 22.362a5.185 5.185 0 0 0-.804-1.697l-1.29 2.236 2.25 1.3c.058-.61.006-1.231-.156-1.839m5.333-12.326l-1.29 2.236a5.14 5.14 0 0 0 1.87-.153 5.186 5.186 0 0 0 1.67-.784l-2.25-1.299m40.785 25.295c.166.619.438 1.191.804 1.697l1.29-2.236-2.25-1.299c-.058.61-.006 1.23.156 1.838M48.69 46.358l2.25 1.3 1.291-2.236a5.12 5.12 0 0 0-1.87.153 5.188 5.188 0 0 0-1.67.783"/><path fill="#1A1919" d="M33.224 21.886a6.975 6.975 0 1 0 3.48.936 6.943 6.943 0 0 0-3.48-.936zm0 1.077c1.028 0 2.046.273 2.942.791a5.905 5.905 0 0 1 2.159 8.057 5.92 5.92 0 0 1-5.114 2.95 5.895 5.895 0 0 1-2.943-.792 5.86 5.86 0 0 1-2.748-3.58 5.859 5.859 0 0 1 .59-4.476 5.92 5.92 0 0 1 5.114-2.95z"/><path fill="#FFFFFE" d="M28.717 21.898L23.327 20.986 27.866 12.664 32.83 14.559 28.717 21.898"/><path fill="#FFFFFE" d="M36.958 25.098l-.212-1.327a.672.672 0 0 0-.547-.56l-3.718-.674 3.726-6.429 4.667 2.506-3.916 6.484"/><path fill="#FFFFFE" d="M41.798 31.839L38.635 29.434 44.167 20.559 48.206 23.533 41.798 31.839"/><path fill="#FFFFFE" d="M44.57 34.081L51.08 25.72 54.486 28.838 47.452 36.243 44.57 34.081"/><path fill="#1A1919" d="M28.717 21.898l-5.39-.912 4.54-8.322 4.963 1.895-4.113 7.34zm5.675-7.363c.098-.17.227-.658-.346-.962l-6.25-2.385a.677.677 0 0 0-.835.308l-5.276 9.676a.676.676 0 0 0-.015.619.67.67 0 0 0 .496.373l6.796 1.15a.685.685 0 0 0 .704-.334l4.726-8.445zm2.566 10.563l-.212-1.327a.672.672 0 0 0-.547-.56l-3.718-.674 3.726-6.429 4.667 2.506-3.916 6.484zm5.445-6.394c.094-.159.245-.59-.26-.945l-5.871-3.152a.68.68 0 0 0-.906.257l-4.54 7.829a.675.675 0 0 0 .464 1.004l4.197.76.42 2.682a.68.68 0 0 0 .67.572.68.68 0 0 0 .58-.327l5.246-8.68zm-.605 13.135l-3.163-2.405 5.532-8.875 4.039 2.974-6.408 8.306zm7.902-8.028c.109-.145.301-.591-.135-.958l-5.184-3.82c-.476-.303-.876.028-.975.19L37.16 29.24a.672.672 0 0 0 .165.896l4.19 3.188a.68.68 0 0 0 .946-.127l7.24-9.387z"/><g transform="translate(9.938 22.688)"><mask id="d" fill="#fff"><use xlink:href="#c"/></mask><path fill="#1A1919" d="M37.515 13.556l-2.882-2.163 6.51-8.36 3.406 3.118-7.034 7.405zm8.455-7.938l-4.453-4.076c-.445-.368-.877-.068-.991.082l-7.385 9.482a.676.676 0 0 0 .127.957L37.185 15a.674.674 0 0 0 .897-.076l7.923-8.342a.682.682 0 0 0-.035-.964z" mask="url(#d)"/><path fill="#FFFFFE" d="M15.489 31.526l-.752 9.787H33.24l-.916-10.254a.682.682 0 0 1 .144-.482c1.827-2.304 2.795-3.526 3.324-4.182l-14.236-8.438a.71.71 0 0 1-.157-.129l-3.695-4.098-5.129-1.182a.675.675 0 0 1-.49-.445.674.674 0 0 1 .125-.652l.704-.838-.985-2.159a.674.674 0 1 1 .959-.863l3.194 1.883 7.768-3.516-.304-2.196L9.174 1.429 1.56 13.65l13.785 17.41a.685.685 0 0 1 .144.467" mask="url(#d)"/><path fill="#1A1919" d="M14.12 31.694l-.737 9.619h1.354l.752-9.787a.685.685 0 0 0-.144-.467L1.56 13.65 9.174 1.43l14.372 2.333.304 2.196-7.768 3.516-3.194-1.883a.674.674 0 0 0-.959.863l.985 2.159-.704.838a.674.674 0 0 0-.125.652.675.675 0 0 0 .49.445l5.13 1.182 3.694 4.098c.046.05.1.095.157.129l14.236 8.438c-.529.656-1.497 1.878-3.324 4.182a.682.682 0 0 0-.144.482l.916 10.253h1.338l-.88-10.104 4.092-5.155-15.456-9.207-3.767-4.18a.673.673 0 0 0-.35-.208l-4.26-.982.27-.319a.68.68 0 0 0 .098-.717l-.27-.59 1.642.969c.19.113.42.127.621.034l8.55-3.871a.679.679 0 0 0 .392-.71l-.44-3.189a.678.678 0 0 0-.563-.576L8.947.021a.682.682 0 0 0-.685.31l-8.1 13.005a.672.672 0 0 0 .042.78l13.917 17.578" mask="url(#d)"/></g></g></g></svg>