<?xml version="1.0" standalone="no"?>
<!-- Generator: Adobe Fireworks 10, Export SVG Extension by Aaron Beall (http://fireworks.abeall.com) . Version: 0.6.1  -->
<!DOCTYPE svg PUBLIC "-//W3C//DTD SVG 1.1//EN" "http://www.w3.org/Graphics/SVG/1.1/DTD/svg11.dtd">
<svg id="Icons.fw-share-fb" viewBox="0 0 25 25" style="background-color:#ffffff00" version="1.1"
	xmlns="http://www.w3.org/2000/svg" xmlns:xlink="http://www.w3.org/1999/xlink" xml:space="preserve"
	x="0px" y="0px" width="25px" height="25px"
>
	<g id="colored">
		<rect x="0" y="0" width="25" height="25" fill="#35518b" rx="1.75" ry="1.75"/>
		<g>
			<path opacity="0.098" d="M 25 18.8596 L 0 18.8596 L 0 25 L 25 25 L 25 18.8596 Z" fill="#ffffff"/>
			<path d="M 17.9825 22.3684 L 13.5965 22.3684 L 13.5965 12.7193 L 11.4035 12.7193 L 11.4035 9.2105 L 13.5965 9.2105 L 13.5965 7.304 C 13.5965 4.5795 14.7272 3.0702 17.9387 3.0702 L 20.614 3.0702 L 20.614 6.5789 L 18.973 6.5789 C 17.7224 6.5789 17.9825 7.0459 17.9825 7.9167 L 17.9825 9.2105 L 21.0115 9.2105 L 20.622 12.7193 L 17.9825 12.7193 L 17.9825 22.3684 Z" fill="#1d305c"/>
			<path d="M 17.9825 22.3684 L 13.5965 22.3684 L 13.5965 12.7193 L 11.4035 12.7193 L 11.4035 9.2105 L 13.5965 9.2105 L 13.5965 7.5698 C 13.5965 4.8452 14.7271 3.0702 17.9387 3.0702 L 20.614 3.0702 L 20.614 6.5789 L 19.2388 6.5789 C 17.9881 6.5789 17.9825 7.046 17.9825 7.9168 L 17.9825 9.2105 L 21.0115 9.2105 L 20.3563 12.7193 L 17.9825 12.7193 L 17.9825 22.3684 Z" fill="#ffffff"/>
		</g>
	</g>
</svg>