<?xml version="1.0" encoding="utf-8"?>
<!-- Generator: Adobe Illustrator 18.1.1, SVG Export Plug-In . SVG Version: 6.00 Build 0)  -->
<svg version="1.1" id="Untitled-Page_x25_201" xmlns="http://www.w3.org/2000/svg" xmlns:xlink="http://www.w3.org/1999/xlink"
     x="0px" y="0px" width="135px" height="40px" viewBox="0 0 135 40" style="background-color:#ffffff00" xml:space="preserve">
<path fill="none" d="z"/>
<g id="gplay">
    <path d="M-103,377v40h-135v-40H-103z"/>
    <g>
        <path fill="#FFFFFF" d="M-151,405.7l-0.9,0.8c-0.2,0.1-0.4,0.2-0.6,0.3c-0.6,0.3-1.2,0.3-1.8,0.3c-0.6,0-1.5,0-2.4-0.7
            c-1.3-0.9-1.9-2.5-1.9-3.9c0-2.8,2.3-4.2,4.2-4.2c0.7,0,1.3,0.2,1.9,0.5c0.9,0.6,1.2,1.4,1.3,1.8l-4.3,1.7l-1.4,0.1
            c0.5,2.3,2,3.7,3.8,3.7C-152.3,406.3-151.7,406-151,405.7C-151.1,405.7-151,405.6-151,405.7z M-153.6,401.1
            c0.3-0.1,0.5-0.2,0.5-0.5c0-0.7-0.8-1.6-1.8-1.6c-0.7,0-2.1,0.6-2.1,2.6c0,0.3,0,0.6,0.1,1L-153.6,401.1z"/>
        <path fill="#FFFFFF" d="M-160.1,405.6c0,0.7,0.1,0.8,0.7,0.9c0.3,0,0.6,0.1,0.9,0.1l-0.7,0.4h-3.2c0.4-0.5,0.5-0.6,0.5-1v-0.4
            l0-10.9h-1.4l1.4-0.7h2.6c-0.6,0.3-0.7,0.5-0.8,1.2L-160.1,405.6z"/>
        <path fill="#FFFFFF" d="M-165.1,399.3c0.4,0.3,1.3,1.1,1.3,2.5c0,1.4-0.8,2-1.5,2.6c-0.2,0.2-0.5,0.5-0.5,0.9
            c0,0.4,0.3,0.6,0.5,0.8l0.7,0.5c0.8,0.7,1.5,1.3,1.5,2.6c0,1.7-1.7,3.5-4.8,3.5c-2.7,0-3.9-1.3-3.9-2.6c0-0.7,0.3-1.6,1.4-2.2
            c1.1-0.7,2.7-0.8,3.5-0.8c-0.3-0.3-0.6-0.7-0.6-1.2c0-0.3,0.1-0.5,0.2-0.7c-0.2,0-0.4,0-0.6,0c-1.9,0-3.1-1.5-3.1-2.9
            c0-0.8,0.4-1.8,1.2-2.5c1-0.9,2.3-1,3.3-1h3.8l-1.2,0.7H-165.1L-165.1,399.3z M-166.4,407.4c-0.2,0-0.2,0-0.4,0
            c-0.2,0-1.2,0-1.9,0.3c-0.4,0.1-1.6,0.6-1.6,1.9c0,1.3,1.3,2.2,3.2,2.2c1.8,0,2.7-0.8,2.7-2C-164.4,408.9-165,408.4-166.4,407.4z
             M-165.9,404c0.4-0.4,0.5-1,0.5-1.3c0-1.3-0.8-3.4-2.3-3.4c-0.5,0-1,0.2-1.3,0.6c-0.3,0.4-0.4,0.9-0.4,1.4c0,1.2,0.7,3.3,2.3,3.3
            C-166.7,404.5-166.2,404.2-165.9,404z"/>
        <path fill="#FFFFFF" d="M-176.5,407.2c-2.9,0-4.5-2.3-4.5-4.3c0-2.4,2-4.5,4.8-4.5c2.7,0,4.4,2.1,4.4,4.3
            C-171.8,404.9-173.5,407.2-176.5,407.2z M-174.2,405.7c0.4-0.6,0.6-1.3,0.6-2c0-1.6-0.8-4.7-3.1-4.7c-0.6,0-1.2,0.2-1.7,0.6
            c-0.7,0.6-0.8,1.4-0.8,2.2c0,1.8,0.9,4.8,3.1,4.8C-175.3,406.6-174.6,406.3-174.2,405.7z"/>
        <path fill="#FFFFFF" d="M-186.3,407.2c-2.9,0-4.5-2.3-4.5-4.3c0-2.4,2-4.5,4.8-4.5c2.7,0,4.4,2.1,4.4,4.3
            C-181.6,404.9-183.3,407.2-186.3,407.2z M-184,405.7c0.4-0.6,0.6-1.3,0.6-2c0-1.6-0.8-4.7-3-4.7c-0.6,0-1.2,0.2-1.7,0.6
            c-0.7,0.6-0.8,1.4-0.8,2.2c0,1.8,0.9,4.8,3.1,4.8C-185.1,406.6-184.4,406.3-184,405.7z"/>
        <path fill="#FFFFFF" d="M-191.9,406.5l-2.5,0.6c-1,0.2-1.9,0.3-2.8,0.3c-4.7,0-6.6-3.5-6.6-6.2c0-3.3,2.6-6.4,7-6.4
            c0.9,0,1.8,0.1,2.6,0.4c1.3,0.4,1.9,0.8,2.3,1.1l-1.4,1.4l-0.6,0.1l0.4-0.7c-0.6-0.6-1.7-1.6-3.7-1.6c-2.7,0-4.8,2.1-4.8,5.1
            c0,3.2,2.3,6.3,6.1,6.3c1.1,0,1.7-0.2,2.2-0.4v-2.8l-2.6,0.1l1.4-0.7h3.6l-0.4,0.4c-0.1,0.1-0.1,0.1-0.2,0.3c0,0.2,0,0.7,0,0.8
            L-191.9,406.5L-191.9,406.5L-191.9,406.5z"/>
    </g>
    <g>
        <path fill="#FFFFFF" d="M-145.7,405.8v4.7h-0.9v-11.9h0.9v1.4c0.6-0.9,1.7-1.6,3-1.6c2.3,0,3.9,1.7,3.9,4.5c0,2.7-1.6,4.5-3.9,4.5
            C-144,407.4-145.1,406.8-145.7,405.8z M-139.9,402.9c0-2.1-1.1-3.7-3-3.7c-1.2,0-2.3,0.9-2.8,1.8v3.8c0.5,0.8,1.6,1.8,2.8,1.8
            C-141,406.6-139.9,405-139.9,402.9z"/>
        <path fill="#FFFFFF" d="M-137.6,407.2v-11.9h0.9v11.9H-137.6z"/>
        <path fill="#FFFFFF" d="M-126.3,409.7c0.2,0.1,0.5,0.1,0.8,0.1c0.6,0,1-0.2,1.3-1.1l0.7-1.5l-3.7-8.7h1l3.1,7.5l3.1-7.5h1.1
            l-4.5,10.5c-0.5,1.1-1.2,1.6-2.2,1.6c-0.3,0-0.7-0.1-0.9-0.1L-126.3,409.7z"/>
        <path fill="#FFFFFF" d="M-129,407.2c-0.1-0.3-0.1-0.6-0.1-0.8c0-0.2,0-0.4,0-0.7c-0.3,0.5-0.8,0.9-1.3,1.2
            c-0.6,0.3-1.1,0.5-1.9,0.5c-0.9,0-1.6-0.2-2.1-0.7c-0.5-0.4-0.8-1.1-0.8-1.8c0-0.8,0.4-1.4,1.1-1.9c0.7-0.5,1.7-0.7,2.8-0.7h2.2
            v-1.1c0-0.6-0.2-1.1-0.6-1.5c-0.4-0.4-1-0.5-1.8-0.5c-0.7,0-1.3,0.2-1.7,0.5c-0.4,0.3-0.6,0.7-0.6,1.2h-1l0,0
            c0-0.6,0.3-1.2,0.9-1.7c0.6-0.5,1.5-0.7,2.5-0.7c1,0,1.8,0.2,2.4,0.7c0.6,0.5,0.9,1.2,0.9,2.1v4.2c0,0.3,0,0.6,0.1,0.9
            c0,0.3,0.1,0.6,0.2,0.9L-129,407.2L-129,407.2z M-132.3,406.5c0.8,0,1.4-0.2,1.9-0.5c0.6-0.3,1-0.8,1.2-1.3V403h-2.2
            c-0.8,0-1.5,0.2-2.1,0.6c-0.5,0.4-0.8,0.8-0.8,1.3c0,0.5,0.2,0.9,0.5,1.2C-133.4,406.3-132.9,406.5-132.3,406.5z"/>
    </g>
    <g>
        <path fill="none" d="M-215.9,402.4l3-3h0L-215.9,402.4l-9.5-9.5l0,0L-215.9,402.4l-9.5,9.5l0,0L-215.9,402.4l3,3h0L-215.9,402.4z"
            />

            <linearGradient id="SVGID_1_" gradientUnits="userSpaceOnUse" x1="-456.3479" y1="753.7435" x2="-456.6139" y2="755.2556" gradientTransform="matrix(12.4927 0 0 -9.5331 5483.1152 7587.0947)">
            <stop  offset="1.000000e-02" style="stop-color:#D6E59C"/>
            <stop  offset="0.44" style="stop-color:#93C3A9"/>
            <stop  offset="0.99" style="stop-color:#00A3B5"/>
        </linearGradient>
        <path fill="url(#SVGID_1_)" d="M-212.9,399.4l-11.6-6.4c-0.3-0.2-0.6-0.2-0.9-0.1l9.5,9.5L-212.9,399.4z"/>

            <linearGradient id="SVGID_2_" gradientUnits="userSpaceOnUse" x1="-444.8488" y1="732.4169" x2="-443.7245" y2="729.9864" gradientTransform="matrix(7.5625 0 0 -5.9646 3145.8657 4760.3013)">
            <stop  offset="1.000000e-02" style="stop-color:#ED2E7B"/>
            <stop  offset="0.7" style="stop-color:#F6BC80"/>
            <stop  offset="0.99" style="stop-color:#FDEA73"/>
        </linearGradient>
        <path fill="url(#SVGID_2_)" d="M-212.9,405.4l4-2.2c0.8-0.4,0.8-1.2,0-1.6l-4-2.2l-3,3L-212.9,405.4z"/>

            <linearGradient id="SVGID_3_" gradientUnits="userSpaceOnUse" x1="-451.9148" y1="773.5278" x2="-452.424" y2="774.5693" gradientTransform="matrix(10.0949 0 0 -19.0114 4341.1816 15112.9365)">
            <stop  offset="1.000000e-02" style="stop-color:#88CEBC"/>
            <stop  offset="9.000000e-02" style="stop-color:#7CBDBA"/>
            <stop  offset="0.53" style="stop-color:#447BAB"/>
            <stop  offset="0.85" style="stop-color:#1B59A1"/>
            <stop  offset="0.99" style="stop-color:#074C9E"/>
        </linearGradient>
        <path fill="url(#SVGID_3_)" d="M-225.4,392.9c-0.4,0.1-0.6,0.5-0.6,1l0,17c0,0.5,0.2,0.9,0.6,1l9.5-9.5L-225.4,392.9z"/>

            <linearGradient id="SVGID_4_" gradientUnits="userSpaceOnUse" x1="-455.8012" y1="754.3929" x2="-457.2241" y2="754.1379" gradientTransform="matrix(12.5225 0 0 -9.5541 5497.2847 7613.3032)">
            <stop  offset="1.000000e-02" style="stop-color:#EF492A"/>
            <stop  offset="0.47" style="stop-color:#B44E6A"/>
            <stop  offset="0.83" style="stop-color:#8A5090"/>
            <stop  offset="0.99" style="stop-color:#7750A0"/>
        </linearGradient>
        <path fill="url(#SVGID_4_)" d="M-225.4,411.9c0.2,0.1,0.6,0,0.9-0.1l11.6-6.4l-3-3L-225.4,411.9z"/>
    </g>
</g>
<path fill="none" d="z"/>
<g>
    <path fill="#FFFFFF" d="M-203.3,382.4h2.5c0.5,0,0.9,0.1,1.2,0.2s0.6,0.4,0.8,0.7c0.2,0.3,0.4,0.6,0.5,1c0.1,0.4,0.2,0.8,0.2,1.2
        c0,0.4-0.1,0.8-0.2,1.2c-0.1,0.4-0.3,0.7-0.5,1c-0.2,0.3-0.5,0.5-0.8,0.7s-0.7,0.2-1.2,0.2h-2.5V382.4z M-202.2,387.6h1
        c0.4,0,0.8-0.1,1-0.2s0.5-0.3,0.6-0.5c0.1-0.2,0.3-0.4,0.3-0.7c0.1-0.3,0.1-0.5,0.1-0.9c0-0.3,0-0.6-0.1-0.9
        c-0.1-0.3-0.2-0.5-0.3-0.7c-0.2-0.2-0.4-0.3-0.6-0.5c-0.3-0.1-0.6-0.2-1-0.2h-1V387.6z"/>
    <path fill="#FFFFFF" d="M-197.2,382.4h1.1v6.1h-1.1V382.4z"/>
    <path fill="#FFFFFF" d="M-194.1,386.4c0,0.2,0,0.4,0.1,0.6c0.1,0.2,0.2,0.3,0.3,0.4c0.1,0.1,0.3,0.2,0.5,0.2c0.2,0,0.4,0.1,0.6,0.1
        c0.2,0,0.4,0,0.6-0.1s0.3-0.1,0.4-0.2c0.1-0.1,0.2-0.2,0.2-0.3c0-0.1,0.1-0.2,0.1-0.3c0-0.2-0.1-0.4-0.2-0.5
        c-0.1-0.1-0.2-0.2-0.3-0.2c-0.2-0.1-0.5-0.2-0.8-0.2s-0.6-0.2-1.1-0.3c-0.3-0.1-0.5-0.2-0.6-0.3s-0.3-0.2-0.4-0.4
        c-0.1-0.1-0.2-0.3-0.2-0.4c0-0.2-0.1-0.3-0.1-0.5c0-0.3,0.1-0.6,0.2-0.8c0.1-0.2,0.3-0.4,0.5-0.6c0.2-0.1,0.4-0.3,0.7-0.3
        c0.3-0.1,0.5-0.1,0.8-0.1c0.3,0,0.6,0,0.9,0.1c0.3,0.1,0.5,0.2,0.7,0.4c0.2,0.2,0.4,0.4,0.5,0.6c0.1,0.2,0.2,0.5,0.2,0.8h-1.1
        c0-0.4-0.2-0.7-0.4-0.8c-0.2-0.2-0.5-0.2-0.9-0.2c-0.1,0-0.3,0-0.4,0c-0.1,0-0.2,0.1-0.4,0.1s-0.2,0.1-0.3,0.2s-0.1,0.2-0.1,0.4
        c0,0.2,0.1,0.4,0.2,0.5c0.1,0.1,0.3,0.2,0.5,0.3c0,0,0.1,0,0.3,0.1c0.2,0,0.3,0.1,0.5,0.1c0.2,0.1,0.4,0.1,0.6,0.1
        c0.2,0,0.3,0.1,0.4,0.1c0.2,0.1,0.4,0.1,0.5,0.3c0.1,0.1,0.3,0.2,0.4,0.4c0.1,0.1,0.2,0.3,0.2,0.4s0.1,0.3,0.1,0.5
        c0,0.3-0.1,0.6-0.2,0.9c-0.1,0.2-0.3,0.4-0.5,0.6c-0.2,0.2-0.5,0.3-0.8,0.3s-0.6,0.1-0.9,0.1c-0.3,0-0.7,0-1-0.1s-0.6-0.2-0.8-0.4
        s-0.4-0.4-0.5-0.7s-0.2-0.6-0.2-1H-194.1z"/>
    <path fill="#FFFFFF" d="M-189.3,382.4h2.7c0.4,0,0.8,0.1,1.1,0.2c0.3,0.1,0.5,0.3,0.6,0.5c0.1,0.2,0.2,0.4,0.3,0.6
        c0.1,0.2,0.1,0.4,0.1,0.6s0,0.4-0.1,0.6c-0.1,0.2-0.2,0.4-0.3,0.6c-0.1,0.2-0.4,0.3-0.6,0.5c-0.3,0.1-0.6,0.2-1.1,0.2h-1.6v2.3
        h-1.1V382.4z M-188.2,385.2h1.6c0.1,0,0.2,0,0.4-0.1c0.1,0,0.2-0.1,0.3-0.2c0.1-0.1,0.2-0.2,0.3-0.3s0.1-0.3,0.1-0.5
        c0-0.2,0-0.4-0.1-0.5s-0.1-0.2-0.2-0.3c-0.1-0.1-0.2-0.1-0.3-0.2c-0.1,0-0.3,0-0.4,0h-1.6V385.2z"/>
    <path fill="#FFFFFF" d="M-181,382.2c0.5,0,0.9,0.1,1.2,0.3c0.4,0.2,0.7,0.4,0.9,0.7s0.4,0.6,0.6,1c0.1,0.4,0.2,0.8,0.2,1.2
        c0,0.4-0.1,0.8-0.2,1.2c-0.1,0.4-0.3,0.7-0.6,1s-0.6,0.5-0.9,0.7c-0.4,0.2-0.8,0.3-1.2,0.3c-0.5,0-0.9-0.1-1.2-0.3
        c-0.4-0.2-0.7-0.4-0.9-0.7c-0.2-0.3-0.4-0.6-0.6-1c-0.1-0.4-0.2-0.8-0.2-1.2c0-0.4,0.1-0.8,0.2-1.2c0.1-0.4,0.3-0.7,0.6-1
        c0.2-0.3,0.6-0.5,0.9-0.7C-181.9,382.3-181.5,382.2-181,382.2z M-181,383.1c-0.3,0-0.6,0.1-0.8,0.2s-0.4,0.3-0.6,0.5
        c-0.1,0.2-0.3,0.5-0.3,0.7c-0.1,0.3-0.1,0.6-0.1,0.8s0,0.6,0.1,0.9c0.1,0.3,0.2,0.5,0.3,0.7c0.1,0.2,0.3,0.4,0.6,0.5
        s0.5,0.2,0.8,0.2c0.3,0,0.6-0.1,0.8-0.2s0.4-0.3,0.6-0.5c0.1-0.2,0.3-0.5,0.3-0.7c0.1-0.3,0.1-0.6,0.1-0.9s0-0.6-0.1-0.8
        c-0.1-0.3-0.2-0.5-0.3-0.7c-0.1-0.2-0.3-0.4-0.6-0.5S-180.7,383.1-181,383.1z"/>
    <path fill="#FFFFFF" d="M-177.2,382.4h1.1l2.8,4.5h0v-4.5h1v6.1h-1.1l-2.8-4.5h0v4.5h-1V382.4z"/>
    <path fill="#FFFFFF" d="M-171,382.4h1.1v6.1h-1.1V382.4z"/>
    <path fill="#FFFFFF" d="M-168.7,382.4h2.9c0.5,0,1,0.1,1.3,0.4c0.3,0.2,0.5,0.6,0.5,1.1c0,0.3-0.1,0.6-0.2,0.8
        c-0.1,0.2-0.4,0.4-0.6,0.5v0c0.4,0.1,0.7,0.3,0.9,0.5c0.2,0.3,0.3,0.6,0.3,1c0,0.2,0,0.5-0.1,0.7c-0.1,0.2-0.2,0.4-0.4,0.5
        c-0.2,0.2-0.4,0.3-0.7,0.4s-0.6,0.1-1,0.1h-2.8V382.4z M-167.6,384.9h1.7c0.3,0,0.5-0.1,0.6-0.2s0.3-0.4,0.3-0.6
        c0-0.3-0.1-0.5-0.2-0.6c-0.2-0.1-0.4-0.2-0.7-0.2h-1.7V384.9z M-167.6,387.6h1.9c0.3,0,0.6-0.1,0.8-0.3c0.2-0.2,0.3-0.4,0.3-0.7
        c0-0.3-0.1-0.5-0.3-0.7c-0.2-0.2-0.4-0.2-0.8-0.2h-1.9V387.6z"/>
    <path fill="#FFFFFF" d="M-162.7,382.4h1.1v5.2h3.1v0.9h-4.1V382.4z"/>
    <path fill="#FFFFFF" d="M-157.8,382.4h4.4v0.9h-3.3v1.6h3.1v0.9h-3.1v1.8h3.4v0.9h-4.4V382.4z"/>
    <path fill="#FFFFFF" d="M-150.1,382.4h4.4v0.9h-3.3v1.6h3.1v0.9h-3.1v1.8h3.4v0.9h-4.4V382.4z"/>
    <path fill="#FFFFFF" d="M-144.8,382.4h1.1l2.8,4.5h0v-4.5h1v6.1h-1.1l-2.8-4.5h0v4.5h-1V382.4z"/>
</g>
</svg>
