<?xml version="1.0" standalone="no"?><!-- Generator: Adobe Fireworks CS6, Export SVG Extension by Aaron Beall (http://fireworks.abeall.com) . Version: 0.6.1  --><!DOCTYPE svg PUBLIC "-//W3C//DTD SVG 1.1//EN" "http://www.w3.org/Graphics/SVG/1.1/DTD/svg11.dtd"><svg id="Untitled-Page%201" viewBox="0 0 135 40" style="background-color:#ffffff" version="1.1"	xmlns="http://www.w3.org/2000/svg" xmlns:xlink="http://www.w3.org/1999/xlink" xml:space="preserve"	x="0px" y="0px" width="135px" height="40px">	<defs>		<linearGradient id="gradient1" x1="60.0942%" y1="91.9735%" x2="33.4966%" y2="-59.2442%">			<stop stop-color="#d6e59c" stop-opacity="1" offset="1%"/>			<stop stop-color="#93c3a9" stop-opacity="1" offset="44%"/>			<stop stop-color="#00a3b5" stop-opacity="1" offset="99%"/>		</linearGradient>		<linearGradient id="gradient2" x1="-31.9745%" y1="-128.7886%" x2="80.449%" y2="114.2679%">			<stop stop-color="#ed2e7b" stop-opacity="1" offset="1%"/>			<stop stop-color="#f6bc80" stop-opacity="1" offset="70%"/>			<stop stop-color="#fdea73" stop-opacity="1" offset="99%"/>		</linearGradient>		<linearGradient id="gradient3" x1="50.8964%" y1="74.718%" x2="-0.02%" y2="-29.4339%">			<stop stop-color="#88cebc" stop-opacity="1" offset="1%"/>			<stop stop-color="#7cbdba" stop-opacity="1" offset="9%"/>			<stop stop-color="#447bab" stop-opacity="1" offset="53%"/>			<stop stop-color="#1b59a1" stop-opacity="1" offset="85%"/>			<stop stop-color="#074c9e" stop-opacity="1" offset="99%"/>		</linearGradient>		<linearGradient id="gradient4" x1="119.3005%" y1="35.6732%" x2="-22.9873%" y2="61.1797%">			<stop stop-color="#ef492a" stop-opacity="1" offset="1%"/>			<stop stop-color="#b44e6a" stop-opacity="1" offset="47%"/>			<stop stop-color="#8a5090" stop-opacity="1" offset="83%"/>			<stop stop-color="#7750a0" stop-opacity="1" offset="99%"/>		</linearGradient>	</defs>	<g id="Layer%201">		<g>			<path d="M 135 0 L 135 40 L 0 40 L 0 0 L 135 0 L 135 0 Z" fill="#000000"/>			<g>				<path d="M 84.3515 24.0749 C 84.7014 23.9476 84.8845 23.8379 84.8845 23.582 C 84.8845 22.8495 84.0545 22.0059 83.0645 22.0059 C 82.3308 22.0059 80.9529 22.5746 80.9529 24.5569 C 80.9529 24.8657 80.9895 25.1947 81.0085 25.5251 L 84.3515 24.0749 L 84.3515 24.0749 ZM 86.9568 28.7125 L 86.0766 29.5385 C 85.8745 29.6496 85.6724 29.7809 85.4704 29.8716 C 84.8614 30.1478 84.2403 30.2169 83.6897 30.2169 C 83.1024 30.2169 82.183 30.179 81.2458 29.502 C 79.9411 28.5853 79.3715 27.0105 79.3715 25.6361 C 79.3715 22.7926 81.6907 21.3993 83.5812 21.3993 C 84.2417 21.3993 84.9211 21.5644 85.4731 21.9124 C 86.3912 22.5177 86.6286 23.3058 86.7601 23.7269 L 82.442 25.4696 L 81.0261 25.5792 C 81.4845 27.9096 83.0658 29.265 84.8099 29.265 C 85.6819 29.265 86.3302 28.982 86.9229 28.6882 C 86.9229 28.6895 87.0422 28.6272 86.9568 28.7125 L 86.9568 28.7125 Z" fill="#ffffff"/>				<path d="M 77.9286 28.569 C 77.9286 29.2826 78.056 29.3923 78.6595 29.4492 C 78.9742 29.4871 79.2875 29.502 79.5994 29.5412 L 78.9199 29.9434 L 75.684 29.9434 C 76.1085 29.3936 76.1804 29.3395 76.1804 28.9739 L 76.1804 28.5636 L 76.1736 17.661 L 74.7442 17.661 L 76.1194 16.9989 L 78.745 16.9989 C 78.1767 17.3279 78.0059 17.5277 77.9313 18.1688 L 77.9286 28.569 L 77.9286 28.569 Z" fill="#ffffff"/>				<path d="M 72.1349 26.955 C 72.5607 26.5311 72.5973 25.9475 72.5973 25.6158 C 72.5973 24.2969 71.8094 22.2428 70.2823 22.2428 C 69.8063 22.2428 69.2909 22.4811 68.9966 22.8495 C 68.6874 23.2327 68.5952 23.7282 68.5952 24.2035 C 68.5952 25.4316 69.3113 27.4695 70.8885 27.4695 C 71.3496 27.4695 71.8446 27.2447 72.1349 26.955 L 72.1349 26.955 ZM 71.6073 30.4403 C 71.4568 30.4214 71.3659 30.4214 71.1855 30.4214 C 71.0187 30.4214 70.0273 30.4579 69.2584 30.7152 C 68.8529 30.8641 67.677 31.3029 67.677 32.6055 C 67.677 33.9054 68.9464 34.8437 70.9075 34.8437 C 72.6719 34.8437 73.6091 33.9988 73.6091 32.8641 C 73.6077 31.9257 73.0015 31.4315 71.6073 30.4403 L 71.6073 30.4403 ZM 72.9093 22.2983 C 73.3297 22.645 74.2112 23.3789 74.2112 24.7722 C 74.2112 26.129 73.4436 26.7708 72.6706 27.3774 C 72.4332 27.6157 72.1566 27.8744 72.1566 28.2752 C 72.1566 28.68 72.4332 28.8994 72.6339 29.0646 L 73.2985 29.5751 C 74.1027 30.2548 74.8391 30.879 74.8391 32.1451 C 74.8391 33.8688 73.1683 35.6088 70.0083 35.6088 C 67.3461 35.6088 66.0591 34.3441 66.0591 32.9873 C 66.0591 32.3265 66.3887 31.3909 67.475 30.7491 C 68.6142 30.0544 70.1562 29.961 70.9835 29.9082 C 70.7244 29.5751 70.4301 29.2271 70.4301 28.6584 C 70.4301 28.3469 70.5251 28.1614 70.6146 27.9434 C 70.4138 27.9624 70.2118 27.9841 70.0273 27.9841 C 68.0785 27.9841 66.9759 26.5298 66.9759 25.1026 C 66.9759 24.259 67.3624 23.3234 68.1531 22.645 C 69.2001 21.7838 70.4491 21.6349 71.4391 21.6349 L 75.2243 21.6349 L 74.0498 22.2983 L 72.9093 22.2983 L 72.9093 22.2983 L 72.9093 22.2983 Z" fill="#ffffff"/>				<path d="M 63.8186 28.6963 C 64.2635 28.11 64.3706 27.3788 64.3706 26.6638 C 64.3706 25.0484 63.599 21.968 61.3205 21.968 C 60.7157 21.968 60.1054 22.2049 59.666 22.5908 C 58.9472 23.2327 58.8211 24.0383 58.8211 24.8291 C 58.8211 26.6408 59.7175 29.6306 61.9444 29.6306 C 62.6632 29.6306 63.3955 29.284 63.8186 28.6963 L 63.8186 28.6963 ZM 61.5213 30.1817 C 58.6014 30.1817 57.0404 27.9109 57.0404 25.8568 C 57.0404 23.4547 59.0041 21.3993 61.7966 21.3993 C 64.4967 21.3993 66.1879 23.5102 66.1879 25.7255 C 66.1879 27.8893 64.5171 30.1817 61.5213 30.1817 L 61.5213 30.1817 Z" fill="#ffffff"/>				<path d="M 54.0438 28.6963 C 54.4839 28.11 54.5945 27.3788 54.5945 26.6638 C 54.5945 25.0484 53.8221 21.968 51.5457 21.968 C 50.9381 21.968 50.334 22.2049 49.8932 22.5908 C 49.1744 23.2327 49.0483 24.0383 49.0483 24.8291 C 49.0483 26.6408 49.9474 29.6306 52.1703 29.6306 C 52.8884 29.6306 53.62 29.284 54.0438 28.6963 L 54.0438 28.6963 ZM 51.7458 30.1817 C 48.8259 30.1817 47.2669 27.9109 47.2669 25.8568 C 47.2669 23.4547 49.232 21.3993 52.0238 21.3993 C 54.7226 21.3993 56.4111 23.5102 56.4111 25.7255 C 56.4111 27.8893 54.743 30.1817 51.7458 30.1817 L 51.7458 30.1817 Z" fill="#ffffff"/>				<path d="M 46.0999 29.5453 L 43.6371 30.1072 C 42.6396 30.2656 41.7438 30.4038 40.7951 30.4038 C 36.0457 30.4038 34.2359 26.913 34.2359 24.1805 C 34.2359 20.8441 36.7998 17.7517 41.1911 17.7517 C 42.1195 17.7517 43.0139 17.8872 43.8283 18.1085 C 45.118 18.4708 45.7229 18.9176 46.0999 19.1789 L 44.6684 20.5367 L 44.0656 20.6694 L 44.4948 19.9856 C 43.913 19.4186 42.8423 18.3692 40.8107 18.3692 C 38.0936 18.3692 36.0444 20.4297 36.0444 23.4412 C 36.0444 26.6733 38.3852 29.7159 42.1371 29.7159 C 43.2397 29.7159 43.8079 29.4938 44.3219 29.288 L 44.3219 26.5163 L 41.7221 26.6557 L 43.1007 25.9164 L 46.7488 25.9164 L 46.302 26.3456 C 46.1813 26.4485 46.1664 26.4824 46.1325 26.6205 C 46.1141 26.7776 46.0972 27.2745 46.0972 27.4492 L 46.0972 29.5453 L 46.0999 29.5453 L 46.0999 29.5453 L 46.0999 29.5453 Z" fill="#ffffff"/>			</g>			<g>				<path d="M 98.1047 25.8677 C 98.1047 23.7865 97.0184 22.1981 95.0899 22.1981 C 93.8924 22.1981 92.7491 23.1379 92.2514 23.9557 L 92.2514 27.7606 C 92.7491 28.5812 93.8924 29.5548 95.0899 29.5548 C 97.0184 29.5548 98.1047 27.9543 98.1047 25.8677 L 98.1047 25.8677 ZM 92.2514 28.7911 L 92.2514 33.4612 L 91.3224 33.4612 L 91.3224 21.5753 L 92.2514 21.5753 L 92.2514 22.928 C 92.8562 22.0533 93.9615 21.36 95.2459 21.36 C 97.5487 21.36 99.1029 23.1054 99.1029 25.8663 C 99.1029 28.611 97.55 30.3916 95.2459 30.3916 C 94.0348 30.3929 92.9485 29.7687 92.2514 28.7911 L 92.2514 28.7911 Z" fill="#ffffff"/>				<path d="M 100.3709 30.1803 L 100.3709 18.2947 L 101.3013 18.2947 L 101.3013 30.1803 L 100.3709 30.1803 L 100.3709 30.1803 Z" fill="#ffffff"/>				<path d="M 111.725 32.6935 C 111.923 32.7815 112.2621 32.837 112.4777 32.837 C 113.0446 32.837 113.442 32.6041 113.796 31.7836 L 114.4754 30.2508 L 110.815 21.5753 L 111.8512 21.5753 L 114.9908 29.0944 L 118.1005 21.5753 L 119.1516 21.5753 L 114.687 32.0706 C 114.2245 33.1539 113.4949 33.6738 112.494 33.6738 C 112.1929 33.6738 111.7983 33.6197 111.5664 33.5479 L 111.725 32.6935 L 111.725 32.6935 Z" fill="#ffffff"/>				<path d="M 105.7144 29.4776 C 106.5037 29.4776 107.0706 29.3016 107.651 28.9536 C 108.226 28.6069 108.6193 28.1574 108.8241 27.6103 L 108.8241 25.957 L 106.6461 25.957 C 105.8147 25.957 105.1271 26.1412 104.5833 26.5122 C 104.0422 26.8805 103.7655 27.3287 103.7655 27.85 C 103.7655 28.3402 103.9405 28.7315 104.2863 29.0294 C 104.6348 29.3286 105.1095 29.4776 105.7144 29.4776 L 105.7144 29.4776 ZM 109.0113 30.1533 C 108.9489 29.854 108.9028 29.5913 108.8689 29.372 C 108.8404 29.154 108.8255 28.9278 108.8255 28.7004 C 108.5068 29.1689 108.0552 29.5561 107.4801 29.8635 C 106.9024 30.1695 106.3545 30.3225 105.6018 30.3225 C 104.6972 30.3225 103.9961 30.1005 103.4929 29.6482 C 102.9938 29.1986 102.7416 28.5866 102.7416 27.8148 C 102.7416 27.043 103.1064 26.4161 103.832 25.9394 C 104.5589 25.4574 105.496 25.2204 106.6583 25.2204 L 108.8255 25.2204 L 108.8255 24.1494 C 108.8255 23.5333 108.6139 23.0499 108.1949 22.6978 C 107.7744 22.3457 107.1818 22.1697 106.4155 22.1697 C 105.7144 22.1697 105.1461 22.3308 104.7148 22.6477 C 104.2863 22.97 104.0693 23.3694 104.0693 23.8515 L 103.1186 23.8515 L 103.0996 23.8054 C 103.0657 23.1555 103.3627 22.5854 103.9961 22.0939 C 104.6253 21.601 105.4526 21.3546 106.4698 21.3546 C 107.4801 21.3546 108.3006 21.5997 108.9191 22.0831 C 109.5361 22.5637 109.8454 23.2597 109.8454 24.1697 L 109.8454 28.4133 C 109.8454 28.718 109.8603 29.0118 109.8982 29.2988 C 109.9389 29.5873 110 29.873 110.084 30.1519 L 109.0113 30.1533 L 109.0113 30.1533 L 109.0113 30.1533 Z" fill="#ffffff"/>			</g>			<g>				<path d="M 22.1033 25.3843 L 25.0842 22.4094 L 25.0836 22.4094 L 22.1033 25.3843 L 12.5909 15.8865 L 12.5909 15.8865 L 22.1033 25.3856 L 12.5753 34.8979 L 12.5753 34.8979 L 22.1033 25.3856 L 25.0978 28.374 L 25.0992 28.374 L 22.1033 25.3843 L 22.1033 25.3843 Z" fill="none"/>				<path d="M 25.0836 22.4094 L 13.4697 16.0328 C 13.1415 15.8534 12.8364 15.8114 12.5909 15.8872 L 22.104 25.3843 L 25.0836 22.4094 L 25.0836 22.4094 Z" fill="url(#gradient1)"/>				<path d="M 25.0992 28.374 L 29.0633 26.1967 C 29.8676 25.7526 29.8676 25.0322 29.0633 24.5921 L 25.0842 22.4094 L 22.104 25.3843 L 25.0992 28.374 L 25.0992 28.374 Z" fill="url(#gradient2)"/>				<path d="M 12.5909 15.8865 C 12.2376 15.9969 12.0091 16.3544 12.0091 16.8946 L 12.0105 33.8945 C 12.0105 34.4294 12.2329 34.7801 12.5753 34.8979 L 22.104 25.3843 L 12.5909 15.8865 L 12.5909 15.8865 Z" fill="url(#gradient3)"/>				<path d="M 12.5753 34.8979 C 12.8228 34.9818 13.1334 34.9412 13.4697 34.7584 L 25.0978 28.374 L 22.104 25.3856 L 12.5753 34.8979 L 12.5753 34.8979 Z" fill="url(#gradient4)"/>			</g>			<g>				<path d="M 34.8823 5.3721 L 37.3979 5.3721 C 37.8628 5.3721 38.2651 5.4512 38.605 5.6099 C 38.9448 5.7686 39.2222 5.9854 39.438 6.2603 C 39.6528 6.5352 39.813 6.8564 39.9185 7.2251 C 40.0229 7.5933 40.0757 7.9873 40.0757 8.4062 C 40.0757 8.8257 40.0229 9.2197 39.9185 9.5879 C 39.813 9.9565 39.6528 10.2778 39.438 10.5527 C 39.2222 10.8276 38.9448 11.0444 38.605 11.2031 C 38.2651 11.3618 37.8628 11.4409 37.3979 11.4409 L 34.8823 11.4409 L 34.8823 5.3721 ZM 35.9448 10.5737 L 36.9897 10.5737 C 37.4038 10.5737 37.7417 10.5186 38.0054 10.4082 C 38.269 10.2979 38.4761 10.1445 38.6265 9.9492 C 38.7759 9.7539 38.8784 9.5239 38.9321 9.2607 C 38.9858 8.9971 39.0132 8.7124 39.0132 8.4062 C 39.0132 8.1006 38.9858 7.8154 38.9321 7.5522 C 38.8784 7.2886 38.7759 7.0591 38.6265 6.8638 C 38.4761 6.668 38.269 6.5151 38.0054 6.4048 C 37.7417 6.2939 37.4038 6.2388 36.9897 6.2388 L 35.9448 6.2388 L 35.9448 10.5737 Z" fill="#ffffff"/>				<path d="M 41.019 5.3721 L 42.0815 5.3721 L 42.0815 11.4409 L 41.019 11.4409 L 41.019 5.3721 Z" fill="#ffffff"/>				<path d="M 44.0786 9.418 C 44.0786 9.6504 44.1187 9.8486 44.1978 10.0127 C 44.2769 10.1772 44.3872 10.312 44.5298 10.4165 C 44.6714 10.5215 44.8335 10.5981 45.0181 10.646 C 45.2026 10.6943 45.4019 10.7183 45.6177 10.7183 C 45.8501 10.7183 46.0483 10.6914 46.2124 10.6377 C 46.3765 10.584 46.5103 10.5146 46.6118 10.4292 C 46.7134 10.3442 46.7876 10.2466 46.8325 10.1362 C 46.8784 10.0259 46.9009 9.9141 46.9009 9.8003 C 46.9009 9.5684 46.8481 9.3965 46.7437 9.2861 C 46.6382 9.1758 46.5239 9.0977 46.3989 9.0522 C 46.1841 8.9731 45.9331 8.8979 45.647 8.8271 C 45.3608 8.7563 45.0083 8.6646 44.5884 8.5508 C 44.3286 8.4829 44.1118 8.3936 43.939 8.2832 C 43.7661 8.1729 43.6284 8.0493 43.5259 7.9136 C 43.4243 7.7773 43.3521 7.6328 43.3101 7.48 C 43.2671 7.3271 43.2456 7.1709 43.2456 7.0122 C 43.2456 6.7065 43.3101 6.4414 43.437 6.2178 C 43.5649 5.9937 43.7329 5.8081 43.9429 5.6611 C 44.1528 5.5137 44.3901 5.4048 44.6567 5.3335 C 44.9233 5.2627 45.1919 5.2275 45.4644 5.2275 C 45.7817 5.2275 46.0806 5.2686 46.3608 5.3506 C 46.6411 5.4331 46.8882 5.5562 47.1011 5.7202 C 47.313 5.8848 47.4819 6.0874 47.606 6.3281 C 47.731 6.5688 47.7935 6.8481 47.7935 7.1655 L 46.731 7.1655 C 46.7026 6.7744 46.5698 6.498 46.3315 6.3364 C 46.0933 6.1753 45.7905 6.0942 45.4214 6.0942 C 45.2974 6.0942 45.1694 6.1069 45.0396 6.1328 C 44.9087 6.1582 44.7896 6.2007 44.6821 6.2603 C 44.5747 6.3198 44.4858 6.4004 44.4146 6.5024 C 44.3433 6.6045 44.3081 6.7319 44.3081 6.8848 C 44.3081 7.1001 44.3745 7.269 44.5083 7.3906 C 44.6411 7.5127 44.8149 7.6045 45.0308 7.667 C 45.0532 7.6729 45.1431 7.6968 45.2983 7.7393 C 45.4546 7.7817 45.6284 7.8286 45.8218 7.8794 C 46.0142 7.9302 46.2026 7.98 46.3862 8.0283 C 46.5708 8.0762 46.7026 8.1118 46.7817 8.1343 C 46.98 8.1968 47.1528 8.2817 47.3003 8.3896 C 47.4478 8.4971 47.5708 8.6206 47.6704 8.7593 C 47.769 8.8979 47.8433 9.0469 47.8911 9.2056 C 47.939 9.3643 47.9634 9.5229 47.9634 9.6816 C 47.9634 10.0215 47.894 10.312 47.7554 10.5527 C 47.6157 10.7935 47.4331 10.9902 47.2065 11.1436 C 46.98 11.2964 46.7222 11.4082 46.4331 11.479 C 46.144 11.5498 45.8501 11.5854 45.5493 11.5854 C 45.2036 11.5854 44.8774 11.543 44.5718 11.458 C 44.2661 11.373 43.9995 11.2427 43.7729 11.0669 C 43.5464 10.8911 43.3647 10.666 43.229 10.3911 C 43.0933 10.1162 43.022 9.792 43.0161 9.418 L 44.0786 9.418 Z" fill="#ffffff"/>				<path d="M 48.8901 5.3721 L 51.5669 5.3721 C 51.9976 5.3721 52.3491 5.4346 52.6216 5.5591 C 52.8931 5.6836 53.103 5.8394 53.2505 6.0264 C 53.397 6.2134 53.4976 6.4175 53.5522 6.6382 C 53.606 6.8594 53.6323 7.0635 53.6323 7.2505 C 53.6323 7.4375 53.606 7.6401 53.5522 7.8584 C 53.4976 8.0762 53.397 8.2788 53.2505 8.4658 C 53.103 8.6528 52.8931 8.8076 52.6216 8.9292 C 52.3491 9.0513 51.9976 9.1118 51.5669 9.1118 L 49.9526 9.1118 L 49.9526 11.4409 L 48.8901 11.4409 L 48.8901 5.3721 ZM 49.9526 8.2451 L 51.5073 8.2451 C 51.6265 8.2451 51.7485 8.228 51.8735 8.1938 C 51.9976 8.1602 52.1128 8.1045 52.2173 8.0283 C 52.3218 7.9517 52.4067 7.8496 52.4722 7.7222 C 52.5376 7.5947 52.5698 7.4346 52.5698 7.2417 C 52.5698 7.0435 52.5415 6.8794 52.4849 6.749 C 52.4282 6.6187 52.3521 6.5151 52.2554 6.4385 C 52.1597 6.3623 52.0483 6.3101 51.9243 6.2812 C 51.7993 6.2529 51.6665 6.2388 51.5249 6.2388 L 49.9526 6.2388 L 49.9526 8.2451 Z" fill="#ffffff"/>				<path d="M 57.144 5.2275 C 57.5972 5.2275 58.0034 5.3125 58.3638 5.4824 C 58.7231 5.6523 59.0278 5.8818 59.2769 6.1709 C 59.5259 6.46 59.7173 6.7974 59.8511 7.1826 C 59.9839 7.5679 60.0503 7.9761 60.0503 8.4062 C 60.0503 8.8428 59.9839 9.2534 59.8511 9.6392 C 59.7173 10.0244 59.5259 10.3613 59.2769 10.6504 C 59.0278 10.9395 58.7231 11.1675 58.3638 11.3345 C 58.0034 11.502 57.5972 11.5854 57.144 11.5854 C 56.6899 11.5854 56.2837 11.502 55.9233 11.3345 C 55.564 11.1675 55.2593 10.9395 55.0103 10.6504 C 54.7603 10.3613 54.5698 10.0244 54.436 9.6392 C 54.3032 9.2534 54.2368 8.8428 54.2368 8.4062 C 54.2368 7.9761 54.3032 7.5679 54.436 7.1826 C 54.5698 6.7974 54.7603 6.46 55.0103 6.1709 C 55.2593 5.8818 55.564 5.6523 55.9233 5.4824 C 56.2837 5.3125 56.6899 5.2275 57.144 5.2275 ZM 57.144 6.0942 C 56.8208 6.0942 56.5415 6.1597 56.3062 6.29 C 56.0708 6.4204 55.8794 6.5947 55.7329 6.8125 C 55.5854 7.0308 55.4761 7.2788 55.4058 7.5566 C 55.3345 7.834 55.2993 8.1172 55.2993 8.4062 C 55.2993 8.6953 55.3345 8.979 55.4058 9.2563 C 55.4761 9.5342 55.5854 9.7822 55.7329 10 C 55.8794 10.2183 56.0708 10.3926 56.3062 10.5229 C 56.5415 10.6533 56.8208 10.7183 57.144 10.7183 C 57.4663 10.7183 57.7456 10.6533 57.981 10.5229 C 58.2163 10.3926 58.4067 10.2183 58.5542 10 C 58.7017 9.7822 58.811 9.5342 58.8813 9.2563 C 58.9526 8.979 58.9878 8.6953 58.9878 8.4062 C 58.9878 8.1172 58.9526 7.834 58.8813 7.5566 C 58.811 7.2788 58.7017 7.0308 58.5542 6.8125 C 58.4067 6.5947 58.2163 6.4204 57.981 6.29 C 57.7456 6.1597 57.4663 6.0942 57.144 6.0942 Z" fill="#ffffff"/>				<path d="M 60.9761 5.3721 L 62.0981 5.3721 L 64.8687 9.8428 L 64.8862 9.8428 L 64.8862 5.3721 L 65.8979 5.3721 L 65.8979 11.4409 L 64.7759 11.4409 L 62.0132 6.9785 L 61.9878 6.9785 L 61.9878 11.4409 L 60.9761 11.4409 L 60.9761 5.3721 Z" fill="#ffffff"/>				<path d="M 67.1567 5.3721 L 68.2197 5.3721 L 68.2197 11.4409 L 67.1567 11.4409 L 67.1567 5.3721 Z" fill="#ffffff"/>				<path d="M 69.5195 5.3721 L 72.4688 5.3721 C 73.0127 5.3721 73.4492 5.4966 73.7773 5.7461 C 74.1064 5.9951 74.2705 6.3721 74.2705 6.8765 C 74.2705 7.1826 74.1953 7.4448 74.0449 7.6626 C 73.8955 7.8809 73.6807 8.0493 73.4033 8.1685 L 73.4033 8.1855 C 73.7773 8.2646 74.0605 8.4419 74.2539 8.7168 C 74.4463 8.9917 74.543 9.3359 74.543 9.7495 C 74.543 9.9873 74.5 10.21 74.415 10.4165 C 74.3301 10.6235 74.1973 10.8022 74.0156 10.9521 C 73.834 11.1025 73.6016 11.2212 73.3184 11.3091 C 73.0352 11.397 72.6982 11.4409 72.3066 11.4409 L 69.5195 11.4409 L 69.5195 5.3721 ZM 70.582 7.9136 L 72.3154 7.9136 C 72.5703 7.9136 72.7832 7.8413 72.9531 7.6968 C 73.123 7.5522 73.208 7.3437 73.208 7.0718 C 73.208 6.7661 73.1318 6.5508 72.9785 6.4258 C 72.8252 6.3013 72.6045 6.2388 72.3154 6.2388 L 70.582 6.2388 L 70.582 7.9136 ZM 70.582 10.5737 L 72.46 10.5737 C 72.7832 10.5737 73.0342 10.4902 73.2119 10.3232 C 73.3906 10.1562 73.4805 9.9194 73.4805 9.6133 C 73.4805 9.313 73.3906 9.082 73.2119 8.9209 C 73.0342 8.7593 72.7832 8.6782 72.46 8.6782 L 70.582 8.6782 L 70.582 10.5737 Z" fill="#ffffff"/>				<path d="M 75.5039 5.3721 L 76.5664 5.3721 L 76.5664 10.5229 L 79.6514 10.5229 L 79.6514 11.4409 L 75.5039 11.4409 L 75.5039 5.3721 Z" fill="#ffffff"/>				<path d="M 80.3828 5.3721 L 84.751 5.3721 L 84.751 6.29 L 81.4453 6.29 L 81.4453 7.8794 L 84.5049 7.8794 L 84.5049 8.7466 L 81.4453 8.7466 L 81.4453 10.5229 L 84.8105 10.5229 L 84.8105 11.4409 L 80.3828 11.4409 L 80.3828 5.3721 Z" fill="#ffffff"/>				<path d="M 88.1006 5.3721 L 92.4688 5.3721 L 92.4688 6.29 L 89.1631 6.29 L 89.1631 7.8794 L 92.2227 7.8794 L 92.2227 8.7466 L 89.1631 8.7466 L 89.1631 10.5229 L 92.5283 10.5229 L 92.5283 11.4409 L 88.1006 11.4409 L 88.1006 5.3721 Z" fill="#ffffff"/>				<path d="M 93.4121 5.3721 L 94.5342 5.3721 L 97.3047 9.8428 L 97.3223 9.8428 L 97.3223 5.3721 L 98.334 5.3721 L 98.334 11.4409 L 97.2119 11.4409 L 94.4492 6.9785 L 94.4238 6.9785 L 94.4238 11.4409 L 93.4121 11.4409 L 93.4121 5.3721 Z" fill="#ffffff"/>			</g>		</g>	</g></svg>