<?xml version="1.0" standalone="no"?><!-- Generator: Adobe Fireworks CS6, Export SVG Extension by Aaron Beall (http://fireworks.abeall.com) . Version: 0.6.1  --><!DOCTYPE svg PUBLIC "-//W3C//DTD SVG 1.1//EN" "http://www.w3.org/Graphics/SVG/1.1/DTD/svg11.dtd"><svg id="Untitled-Page%201" viewBox="0 0 135 40" style="background-color:#ffffff" version="1.1"	xmlns="http://www.w3.org/2000/svg" xmlns:xlink="http://www.w3.org/1999/xlink" xml:space="preserve"	x="0px" y="0px" width="135px" height="40px">	<g>		<rect x="0" y="0" width="135" height="40" fill="#000000"/>		<g>			<path d="M 30.1279 19.7842 C 30.0991 16.561 32.7671 14.9932 32.8892 14.9199 C 31.3779 12.7168 29.0361 12.416 28.2129 12.3921 C 26.2461 12.1851 24.3379 13.5688 23.3359 13.5688 C 22.314 13.5688 20.771 12.4121 19.1079 12.4458 C 16.9678 12.479 14.9658 13.7178 13.8682 15.6421 C 11.6021 19.5649 13.292 25.3301 15.4629 28.501 C 16.5488 30.0547 17.8179 31.7881 19.479 31.7266 C 21.104 31.6611 21.7109 30.6914 23.6719 30.6914 C 25.6152 30.6914 26.1851 31.7266 27.8789 31.6875 C 29.623 31.6611 30.7212 30.1279 31.769 28.5605 C 33.0239 26.7822 33.5278 25.0273 33.5479 24.9375 C 33.5068 24.9238 30.1611 23.6465 30.1279 19.7842 L 30.1279 19.7842 Z" fill="#ffffff"/>			<path d="M 26.9282 10.3062 C 27.8022 9.2129 28.3999 7.7261 28.2339 6.2168 C 26.9692 6.2729 25.3872 7.0918 24.4761 8.1611 C 23.6699 9.103 22.9502 10.647 23.1362 12.0991 C 24.5571 12.2051 26.0161 11.3818 26.9282 10.3062 L 26.9282 10.3062 Z" fill="#ffffff"/>		</g>		<g>			<path d="M 49.7549 25.9551 L 48.6299 22.4805 C 48.5112 22.125 48.2881 21.2891 47.959 19.9731 L 47.9189 19.9731 C 47.7881 20.5391 47.5771 21.375 47.2871 22.4805 L 46.1821 25.9551 L 49.7549 25.9551 L 49.7549 25.9551 ZM 53.645 31.5039 L 51.374 31.5039 L 50.1299 27.5947 L 45.8062 27.5947 L 44.6211 31.5039 L 42.4102 31.5039 L 46.6938 18.1958 L 49.3398 18.1958 L 53.645 31.5039 L 53.645 31.5039 Z" fill="#ffffff"/>			<path d="M 62.4902 26.666 C 62.4902 25.7324 62.2798 24.9619 61.8579 24.3555 C 61.397 23.7246 60.7778 23.4082 60.002 23.4082 C 59.4761 23.4082 58.998 23.584 58.5708 23.9316 C 58.1431 24.2813 57.8628 24.7383 57.7319 25.3047 C 57.666 25.5684 57.6328 25.7832 57.6328 25.9531 L 57.6328 27.5547 C 57.6328 28.251 57.8472 28.8398 58.2749 29.3223 C 58.7031 29.8018 59.2588 30.043 59.9429 30.043 C 60.7461 30.043 61.3711 29.7324 61.8179 29.1152 C 62.2661 28.4961 62.4902 27.6797 62.4902 26.666 L 62.4902 26.666 ZM 64.6621 26.5879 C 64.6621 28.2197 64.2212 29.5098 63.3389 30.457 C 62.5488 31.2998 61.5679 31.7207 60.397 31.7207 C 59.1328 31.7207 58.2251 31.2676 57.6719 30.3594 L 57.6318 30.3594 L 57.6318 35.415 L 55.5 35.415 L 55.5 25.0664 C 55.5 24.041 55.4731 22.9883 55.4209 21.9082 L 57.2959 21.9082 L 57.415 23.4297 L 57.4551 23.4297 C 58.166 22.2832 59.2451 21.71 60.6929 21.71 C 61.8252 21.71 62.77 22.1572 63.5259 23.0518 C 64.2842 23.9492 64.6621 25.127 64.6621 26.5879 L 64.6621 26.5879 Z" fill="#ffffff"/>			<path d="M 73.5273 26.666 C 73.5273 25.7324 73.3164 24.9619 72.8945 24.3555 C 72.4336 23.7246 71.8164 23.4082 71.0391 23.4082 C 70.5117 23.4082 70.0352 23.584 69.6074 23.9316 C 69.1797 24.2813 68.9004 24.7383 68.7695 25.3047 C 68.7041 25.5684 68.6689 25.7832 68.6689 25.9531 L 68.6689 27.5547 C 68.6689 28.251 68.8828 28.8398 69.3105 29.3223 C 69.7383 29.8008 70.293 30.043 70.9805 30.043 C 71.7832 30.043 72.4082 29.7324 72.8555 29.1152 C 73.3027 28.4961 73.5273 27.6797 73.5273 26.666 L 73.5273 26.666 ZM 75.6992 26.5879 C 75.6992 28.2197 75.2578 29.5098 74.375 30.457 C 73.5859 31.2998 72.6055 31.7207 71.4336 31.7207 C 70.1699 31.7207 69.2617 31.2676 68.71 30.3594 L 68.6699 30.3594 L 68.6699 35.415 L 66.5381 35.415 L 66.5381 25.0664 C 66.5381 24.041 66.5112 22.9883 66.459 21.9082 L 68.334 21.9082 L 68.4531 23.4297 L 68.4932 23.4297 C 69.2031 22.2832 70.2822 21.71 71.7305 21.71 C 72.8613 21.71 73.8066 22.1572 74.5645 23.0518 C 75.3203 23.9492 75.6992 25.127 75.6992 26.5879 L 75.6992 26.5879 Z" fill="#ffffff"/>			<path d="M 88.0391 27.7715 C 88.0391 28.9043 87.6465 29.8252 86.8574 30.5361 C 85.9902 31.3125 84.7832 31.7012 83.2324 31.7012 C 81.7988 31.7012 80.6523 31.4248 79.7832 30.8721 L 80.2773 29.0947 C 81.2129 29.6611 82.2402 29.9453 83.3594 29.9453 C 84.1621 29.9453 84.7871 29.7637 85.2363 29.4004 C 85.6836 29.04 85.9063 28.5527 85.9063 27.9482 C 85.9063 27.4082 85.7227 26.9531 85.3535 26.584 C 84.9863 26.2148 84.373 25.8721 83.5176 25.5566 C 81.1875 24.6875 80.0234 23.4131 80.0234 21.7402 C 80.0234 20.6465 80.4316 19.749 81.248 19.0508 C 82.0625 18.3521 83.1484 18.0029 84.5059 18.0029 C 85.7168 18.0029 86.7227 18.2139 87.5254 18.6348 L 86.9941 20.373 C 86.2441 19.9648 85.3945 19.7607 84.4453 19.7607 C 83.6953 19.7607 83.1094 19.9458 82.6895 20.314 C 82.3359 20.6426 82.1582 21.0439 82.1582 21.5195 C 82.1582 22.0449 82.3594 22.4805 82.7676 22.8232 C 83.123 23.1387 83.7676 23.4805 84.7051 23.8496 C 85.8516 24.3105 86.6895 24.8496 87.2305 25.4668 C 87.7695 26.0811 88.0391 26.8516 88.0391 27.7715 L 88.0391 27.7715 Z" fill="#ffffff"/>			<path d="M 95.0879 23.5078 L 92.7383 23.5078 L 92.7383 28.167 C 92.7383 29.3516 93.1523 29.9434 93.9824 29.9434 C 94.3633 29.9434 94.6797 29.9111 94.9297 29.8438 L 94.9883 31.4629 C 94.5684 31.6201 94.0156 31.6992 93.3301 31.6992 C 92.4883 31.6992 91.8301 31.4414 91.3555 30.9277 C 90.8809 30.4141 90.6445 29.5527 90.6445 28.3408 L 90.6445 23.5039 L 89.2441 23.5039 L 89.2441 21.9043 L 90.6445 21.9043 L 90.6445 20.147 L 92.7383 19.5151 L 92.7383 21.9043 L 95.0879 21.9043 L 95.0879 23.5078 L 95.0879 23.5078 Z" fill="#ffffff"/>			<path d="M 103.4785 26.6953 C 103.4785 25.8105 103.291 25.0508 102.9082 24.4189 C 102.4609 23.6523 101.8203 23.2715 100.9941 23.2715 C 100.1387 23.2715 99.4844 23.6553 99.0391 24.4189 C 98.6543 25.0527 98.4668 25.8242 98.4668 26.7363 C 98.4668 27.6211 98.6543 28.3799 99.0391 29.0107 C 99.5 29.7773 100.1426 30.1592 100.9766 30.1592 C 101.7891 30.1592 102.4277 29.7676 102.8906 28.9912 C 103.2813 28.3477 103.4785 27.5801 103.4785 26.6953 L 103.4785 26.6953 ZM 105.6914 26.627 C 105.6914 28.1016 105.2695 29.3125 104.4277 30.2598 C 103.543 31.2344 102.3711 31.7207 100.9102 31.7207 C 99.502 31.7207 98.3809 31.2539 97.5449 30.3203 C 96.709 29.3857 96.291 28.208 96.291 26.7871 C 96.291 25.2998 96.7227 24.082 97.584 23.1348 C 98.4434 22.1875 99.6055 21.7129 101.0664 21.7129 C 102.4746 21.7129 103.6074 22.1816 104.4629 23.1152 C 105.2832 24.0215 105.6914 25.1914 105.6914 26.627 L 105.6914 26.627 Z" fill="#ffffff"/>			<path d="M 112.6211 23.7832 C 112.4102 23.7441 112.1855 23.7246 111.9492 23.7246 C 111.1992 23.7246 110.6191 24.0059 110.2109 24.5742 C 109.8555 25.0742 109.6777 25.7061 109.6777 26.4688 L 109.6777 31.5039 L 107.5469 31.5039 L 107.5664 24.9297 C 107.5664 23.8252 107.541 22.8164 107.4863 21.9092 L 109.3438 21.9092 L 109.4219 23.7451 L 109.4805 23.7451 C 109.707 23.1143 110.0605 22.6055 110.5469 22.2246 C 111.0215 21.8809 111.5352 21.71 112.0879 21.71 C 112.2852 21.71 112.4629 21.7246 112.6211 21.749 L 112.6211 23.7832 L 112.6211 23.7832 Z" fill="#ffffff"/>			<path d="M 120.123 25.6992 C 120.1367 25.0664 119.998 24.5215 119.709 24.0605 C 119.3398 23.4658 118.7734 23.1699 118.0098 23.1699 C 117.3125 23.1699 116.7461 23.459 116.3125 24.0391 C 115.959 24.5 115.748 25.0547 115.6816 25.6973 L 120.123 25.6992 L 120.123 25.6992 L 120.123 25.6992 ZM 122.1563 26.252 C 122.1563 26.6338 122.1309 26.9561 122.0781 27.2188 L 115.6816 27.2188 C 115.707 28.167 116.0156 28.8926 116.6094 29.3926 C 117.1484 29.8389 117.8457 30.0625 118.7031 30.0625 C 119.6484 30.0625 120.5156 29.9131 121.291 29.6094 L 121.625 31.0889 C 120.7168 31.4844 119.6465 31.6816 118.4082 31.6816 C 116.9199 31.6816 115.752 31.2441 114.9004 30.3691 C 114.0527 29.4941 113.6289 28.3184 113.6289 26.8457 C 113.6289 25.3984 114.0254 24.1934 114.8164 23.2324 C 115.6445 22.207 116.7637 21.6934 118.1699 21.6934 C 119.5527 21.6934 120.6016 22.207 121.3125 23.2324 C 121.873 24.0469 122.1563 25.0547 122.1563 26.252 L 122.1563 26.252 Z" fill="#ffffff"/>		</g>		<g>			<path d="M 47.945 10.038 C 47.945 9.275 47.743 8.69 47.339 8.282 C 46.935 7.875 46.345 7.671 45.568 7.671 C 45.238 7.671 44.957 7.693 44.724 7.739 L 44.724 12.628 C 44.853 12.648 45.089 12.657 45.432 12.657 C 46.234 12.657 46.853 12.434 47.289 11.988 C 47.725 11.542 47.945 10.892 47.945 10.038 L 47.945 10.038 ZM 49.05 10.009 C 49.05 11.186 48.697 12.072 47.992 12.667 C 47.339 13.216 46.411 13.491 45.209 13.491 C 44.613 13.491 44.103 13.465 43.676 13.413 L 43.676 6.982 C 44.233 6.892 44.833 6.846 45.481 6.846 C 46.626 6.846 47.489 7.095 48.071 7.593 C 48.723 8.156 49.05 8.961 49.05 10.009 L 49.05 10.009 Z" fill="#ffffff"/>			<path d="M 53.482 10.582 C 53.489 10.271 53.42 10.003 53.279 9.777 C 53.097 9.485 52.82 9.34 52.445 9.34 C 52.102 9.34 51.824 9.482 51.61 9.767 C 51.436 9.994 51.333 10.265 51.3 10.582 L 53.482 10.582 L 53.482 10.582 ZM 54.482 10.853 C 54.482 11.041 54.468 11.199 54.443 11.328 L 51.3 11.328 C 51.313 11.794 51.464 12.149 51.755 12.395 C 52.021 12.615 52.363 12.725 52.783 12.725 C 53.249 12.725 53.673 12.651 54.054 12.502 L 54.218 13.23 C 53.772 13.424 53.245 13.521 52.637 13.521 C 51.907 13.521 51.332 13.306 50.915 12.876 C 50.498 12.446 50.29 11.869 50.29 11.145 C 50.29 10.434 50.483 9.842 50.872 9.37 C 51.279 8.866 51.828 8.614 52.52 8.614 C 53.199 8.614 53.713 8.866 54.062 9.37 C 54.342 9.77 54.482 10.265 54.482 10.853 L 54.482 10.853 Z" fill="#ffffff"/>			<path d="M 58.884 12.079 C 58.884 12.517 58.723 12.869 58.4 13.134 C 58.077 13.399 57.63 13.531 57.061 13.531 C 56.524 13.531 56.069 13.424 55.694 13.211 L 55.917 12.435 C 56.279 12.655 56.664 12.765 57.071 12.765 C 57.608 12.765 57.876 12.568 57.876 12.173 C 57.876 11.999 57.818 11.855 57.702 11.741 C 57.585 11.628 57.378 11.516 57.081 11.407 C 56.24 11.096 55.82 10.644 55.82 10.049 C 55.82 9.642 55.975 9.302 56.285 9.03 C 56.596 8.759 57.007 8.623 57.517 8.623 C 57.983 8.623 58.38 8.718 58.71 8.908 L 58.487 9.66 C 58.183 9.479 57.863 9.389 57.527 9.389 C 57.307 9.389 57.135 9.441 57.012 9.544 C 56.89 9.648 56.828 9.779 56.828 9.941 C 56.828 10.102 56.892 10.234 57.021 10.337 C 57.131 10.434 57.344 10.54 57.662 10.656 C 58.477 10.966 58.884 11.44 58.884 12.079 L 58.884 12.079 Z" fill="#ffffff"/>			<path d="M 63.813 8.845 L 63.61 9.641 C 63.344 9.512 63.041 9.447 62.698 9.447 C 62.239 9.447 61.875 9.601 61.606 9.908 C 61.338 10.215 61.204 10.605 61.204 11.077 C 61.204 11.575 61.345 11.969 61.626 12.26 C 61.907 12.551 62.265 12.697 62.698 12.697 C 63.021 12.697 63.338 12.633 63.648 12.503 L 63.794 13.289 C 63.451 13.451 63.019 13.532 62.494 13.532 C 61.776 13.532 61.204 13.314 60.777 12.877 C 60.35 12.44 60.137 11.857 60.137 11.126 C 60.137 10.396 60.366 9.795 60.825 9.327 C 61.284 8.859 61.901 8.624 62.678 8.624 C 63.118 8.622 63.497 8.696 63.813 8.845 L 63.813 8.845 Z" fill="#ffffff"/>			<path d="M 68.313 6.74 L 67.139 8.146 L 66.411 8.146 L 67.246 6.74 L 68.313 6.74 L 68.313 6.74 ZM 67.692 11.813 L 67.692 11.086 C 66.535 11.066 65.957 11.383 65.957 12.036 C 65.957 12.282 66.024 12.466 66.159 12.589 C 66.294 12.712 66.465 12.773 66.67 12.773 C 66.901 12.773 67.115 12.7 67.312 12.555 C 67.509 12.41 67.629 12.224 67.674 11.997 C 67.686 11.946 67.692 11.884 67.692 11.813 L 67.692 11.813 ZM 68.779 13.433 L 67.838 13.433 L 67.76 12.89 L 67.731 12.89 C 67.408 13.323 66.949 13.54 66.354 13.54 C 65.908 13.54 65.548 13.397 65.277 13.113 C 65.031 12.855 64.909 12.534 64.909 12.153 C 64.909 11.577 65.149 11.138 65.632 10.834 C 66.113 10.53 66.791 10.381 67.664 10.388 L 67.664 10.3 C 67.664 9.679 67.338 9.369 66.686 9.369 C 66.221 9.369 65.811 9.486 65.457 9.718 L 65.244 9.03 C 65.682 8.759 66.223 8.623 66.861 8.623 C 68.094 8.623 68.711 9.273 68.711 10.573 L 68.711 12.309 C 68.71 12.78 68.734 13.155 68.779 13.433 L 68.779 13.433 Z" fill="#ffffff"/>			<path d="M 73.037 9.641 C 72.933 9.621 72.824 9.612 72.707 9.612 C 72.338 9.612 72.055 9.751 71.853 10.029 C 71.679 10.275 71.591 10.585 71.591 10.96 L 71.591 13.434 L 70.542 13.434 L 70.552 10.204 C 70.552 9.661 70.54 9.166 70.515 8.72 L 71.425 8.72 L 71.464 9.622 L 71.493 9.622 C 71.602 9.311 71.778 9.062 72.016 8.875 C 72.25 8.707 72.502 8.623 72.774 8.623 C 72.87 8.623 72.958 8.629 73.036 8.642 L 73.036 9.641 L 73.037 9.641 Z" fill="#ffffff"/>			<path d="M 77.42 11.416 L 77.42 10.582 C 77.42 10.265 77.322 9.994 77.123 9.767 C 76.926 9.54 76.664 9.428 76.34 9.428 C 75.983 9.428 75.688 9.576 75.457 9.874 C 75.227 10.172 75.111 10.569 75.111 11.067 C 75.111 11.52 75.218 11.885 75.433 12.163 C 75.654 12.467 75.956 12.619 76.339 12.619 C 76.571 12.619 76.782 12.55 76.966 12.411 C 77.152 12.272 77.284 12.083 77.361 11.844 C 77.4 11.726 77.42 11.583 77.42 11.416 L 77.42 11.416 ZM 78.508 8.719 C 78.481 9.101 78.469 9.547 78.469 10.058 L 78.469 12.754 C 78.469 13.769 78.242 14.481 77.789 14.888 C 77.375 15.263 76.793 15.45 76.043 15.45 C 75.391 15.45 74.863 15.327 74.463 15.081 L 74.705 14.276 C 75.1 14.515 75.545 14.635 76.043 14.635 C 76.969 14.635 77.43 14.137 77.43 13.141 L 77.43 12.685 L 77.41 12.685 C 77.119 13.164 76.658 13.403 76.023 13.403 C 75.455 13.403 74.986 13.187 74.617 12.753 C 74.248 12.32 74.064 11.77 74.064 11.104 C 74.064 10.348 74.277 9.736 74.705 9.271 C 75.1 8.838 75.58 8.621 76.15 8.621 C 76.791 8.621 77.25 8.87 77.527 9.368 L 77.547 9.368 L 77.586 8.718 L 78.508 8.718 L 78.508 8.719 Z" fill="#ffffff"/>			<path d="M 82.775 11.813 L 82.775 11.086 C 81.617 11.066 81.039 11.383 81.039 12.036 C 81.039 12.282 81.107 12.466 81.242 12.589 C 81.377 12.712 81.547 12.773 81.752 12.773 C 81.984 12.773 82.197 12.7 82.395 12.555 C 82.59 12.409 82.711 12.224 82.756 11.997 C 82.77 11.946 82.775 11.884 82.775 11.813 L 82.775 11.813 ZM 83.861 13.433 L 82.92 13.433 L 82.844 12.89 L 82.815 12.89 C 82.491 13.323 82.032 13.54 81.438 13.54 C 80.991 13.54 80.631 13.397 80.36 13.113 C 80.114 12.855 79.993 12.534 79.993 12.153 C 79.993 11.577 80.233 11.138 80.716 10.834 C 81.196 10.53 81.874 10.381 82.747 10.388 L 82.747 10.3 C 82.747 9.679 82.421 9.369 81.77 9.369 C 81.305 9.369 80.895 9.486 80.54 9.718 L 80.327 9.03 C 80.766 8.759 81.306 8.623 81.944 8.623 C 83.178 8.623 83.794 9.273 83.794 10.573 L 83.794 12.309 C 83.793 12.78 83.816 13.155 83.861 13.433 L 83.861 13.433 Z" fill="#ffffff"/>			<path d="M 86.674 13.433 L 85.627 13.433 L 85.627 6.556 L 86.674 6.556 L 86.674 13.433 L 86.674 13.433 Z" fill="#ffffff"/>			<path d="M 91.756 11.071 C 91.756 10.636 91.662 10.263 91.475 9.952 C 91.256 9.576 90.942 9.388 90.536 9.388 C 90.114 9.388 89.794 9.576 89.575 9.952 C 89.387 10.263 89.294 10.642 89.294 11.09 C 89.294 11.525 89.388 11.898 89.575 12.209 C 89.802 12.585 90.118 12.773 90.526 12.773 C 90.926 12.773 91.239 12.582 91.465 12.199 C 91.66 11.882 91.756 11.506 91.756 11.071 L 91.756 11.071 ZM 92.844 11.037 C 92.844 11.762 92.637 12.356 92.223 12.822 C 91.789 13.301 91.213 13.54 90.496 13.54 C 89.803 13.54 89.252 13.311 88.842 12.851 C 88.432 12.392 88.227 11.813 88.227 11.115 C 88.227 10.385 88.438 9.786 88.862 9.321 C 89.286 8.856 89.856 8.623 90.573 8.623 C 91.266 8.623 91.821 8.852 92.243 9.311 C 92.643 9.757 92.844 10.333 92.844 11.037 L 92.844 11.037 Z" fill="#ffffff"/>			<path d="M 100.098 10.582 C 100.106 10.271 100.037 10.003 99.895 9.777 C 99.713 9.486 99.436 9.34 99.061 9.34 C 98.719 9.34 98.44 9.482 98.227 9.767 C 98.053 9.994 97.95 10.265 97.916 10.582 L 100.098 10.582 L 100.098 10.582 ZM 101.098 10.853 C 101.098 11.041 101.084 11.199 101.059 11.328 L 97.916 11.328 C 97.93 11.794 98.08 12.149 98.371 12.395 C 98.637 12.615 98.98 12.725 99.4 12.725 C 99.865 12.725 100.289 12.651 100.671 12.502 L 100.835 13.23 C 100.388 13.424 99.862 13.521 99.253 13.521 C 98.523 13.521 97.948 13.306 97.532 12.876 C 97.114 12.446 96.907 11.869 96.907 11.145 C 96.907 10.434 97.1 9.842 97.489 9.37 C 97.895 8.866 98.444 8.614 99.137 8.614 C 99.815 8.614 100.33 8.866 100.678 9.37 C 100.959 9.77 101.098 10.265 101.098 10.853 L 101.098 10.853 Z" fill="#ffffff"/>			<path d="M 106.713 13.433 L 105.666 13.433 L 105.666 10.733 C 105.666 9.901 105.35 9.485 104.715 9.485 C 104.404 9.485 104.153 9.599 103.959 9.828 C 103.765 10.057 103.668 10.327 103.668 10.636 L 103.668 13.432 L 102.619 13.432 L 102.619 10.066 C 102.619 9.652 102.607 9.203 102.582 8.717 L 103.502 8.717 L 103.551 9.454 L 103.58 9.454 C 103.703 9.225 103.885 9.036 104.123 8.885 C 104.408 8.709 104.725 8.62 105.074 8.62 C 105.513 8.62 105.879 8.762 106.17 9.047 C 106.533 9.396 106.713 9.917 106.713 10.609 L 106.713 13.433 L 106.713 13.433 Z" fill="#ffffff"/>			<path d="M 114.27 10.582 C 114.276 10.271 114.208 10.003 114.067 9.777 C 113.885 9.486 113.608 9.34 113.233 9.34 C 112.889 9.34 112.612 9.482 112.397 9.767 C 112.223 9.994 112.12 10.265 112.088 10.582 L 114.27 10.582 L 114.27 10.582 ZM 115.27 10.853 C 115.27 11.041 115.256 11.199 115.231 11.328 L 112.088 11.328 C 112.1 11.794 112.252 12.149 112.543 12.395 C 112.809 12.615 113.15 12.725 113.57 12.725 C 114.037 12.725 114.461 12.651 114.841 12.502 L 115.005 13.23 C 114.56 13.424 114.032 13.521 113.425 13.521 C 112.695 13.521 112.12 13.306 111.702 12.876 C 111.286 12.446 111.077 11.869 111.077 11.145 C 111.077 10.434 111.27 9.842 111.659 9.37 C 112.067 8.866 112.616 8.614 113.307 8.614 C 113.987 8.614 114.5 8.866 114.85 9.37 C 115.129 9.77 115.27 10.265 115.27 10.853 L 115.27 10.853 Z" fill="#ffffff"/>			<path d="M 117.84 13.433 L 116.791 13.433 L 116.791 6.556 L 117.84 6.556 L 117.84 13.433 L 117.84 13.433 Z" fill="#ffffff"/>		</g>	</g></svg>