<svg width="24" height="24" viewBox="0 0 24 24" fill="none" xmlns="http://www.w3.org/2000/svg">
<g clip-path="url(#clip0)">
<path d="M12.5241 9.38067C12.2277 9.41487 11.9087 9.29182 11.7979 9.01475V9.01475C11.6887 8.74174 11.822 8.42678 12.1101 8.36831C13.076 8.17238 14.0913 8.46297 14.81 9.17C15.4893 9.85628 15.7892 10.8181 15.6408 11.7511C15.5945 12.0426 15.2835 12.1885 15.0059 12.0885V12.0885C14.7315 11.9897 14.5964 11.6863 14.6155 11.3952C14.6511 10.8516 14.4551 10.3084 14.06 9.91C13.6479 9.50346 13.0804 9.31651 12.5241 9.38067ZM11.4088 5.44301C11.1245 5.50633 10.8282 5.35552 10.7394 5.07807V5.07807C10.6511 4.80214 10.8011 4.50443 11.0821 4.43391C13.4381 3.84272 15.9495 4.51531 17.6975 6.23774C19.4451 7.95975 20.1547 10.4601 19.5991 12.8241C19.5327 13.1066 19.236 13.2606 18.9588 13.1746V13.1746C18.6825 13.089 18.5293 12.797 18.5879 12.5137C18.9978 10.5313 18.38 8.45988 16.9204 7.02345C15.462 5.58815 13.3831 5.00339 11.4088 5.44301ZM10.293 1.35308C10.0134 1.4216 9.72296 1.26652 9.64024 0.990797V0.990797C9.55733 0.714448 9.71461 0.422017 9.99469 0.352763C13.8002 -0.58821 17.8388 0.512597 20.6434 3.28724C23.4465 6.0605 24.5908 10.0844 23.6932 13.8981C23.6265 14.1812 23.3321 14.3416 23.0536 14.2581V14.2581C22.78 14.176 22.6248 13.8892 22.6896 13.6111C23.4944 10.16 22.4553 6.5213 19.9173 4.01317C17.3808 1.50642 13.7327 0.510104 10.293 1.35308ZM17.53 24C16.3052 23.9375 15.1052 23.6315 14 23.1C11.1456 21.7769 8.55912 19.9397 6.37 17.68C4.09808 15.4941 2.24435 12.9118 0.899999 10.06C0.302405 8.6761 0.00158544 7.46257 0.00186176 6.46982C0.00228958 4.9328 1.36819 3.88842 2.59978 2.96883L3 2.67C3.67275 2.12096 4.65781 2.19572 5.24 2.84L8.16 6C8.73464 6.61353 8.75618 7.561 8.21 8.2L7.21 9.38C6.72 9.87 7.21 11.71 9.72 14.25C12.23 16.79 14.1 17.25 14.59 16.76L15.77 15.76C16.3883 15.2189 17.3117 15.2189 17.93 15.76L21.14 18.69C21.8329 19.2728 21.9224 20.3068 21.34 21L21.0988 21.3246C20.1614 22.5857 19.0983 24.0975 17.53 24V24ZM2.93742 4.3899C2.08813 5.00828 1.25728 5.78123 1.3459 6.82805C1.40386 7.5127 1.63328 8.40864 2.12 9.53C3.38713 12.2221 5.12819 14.6643 7.26 16.74C9.33462 18.8775 11.7812 20.6192 14.48 21.88C15.0723 22.1321 15.6011 22.3149 16.0688 22.4401C17.8045 22.9049 19.2193 21.6131 20.29 20.17V20.17C20.4043 20.0533 20.4043 19.8667 20.29 19.75L17.08 16.82C16.9661 16.7181 16.7939 16.7181 16.68 16.82L15.54 17.75C14.6825 18.3812 13.5385 18.463 12.6 17.96C11.171 17.3009 9.88381 16.3703 8.81 15.22C7.63507 14.1521 6.68047 12.8645 6 11.43C5.49705 10.4915 5.57877 9.34745 6.21 8.49L7.15 7.34C7.25186 7.22612 7.25186 7.05388 7.15 6.94L4.25 3.74V3.74C4.02879 3.52317 3.70429 3.83153 3.45388 4.01385L2.93742 4.3899Z" fill="#e21a23"/>
</g>
<defs>
<clipPath id="clip0">
<rect width="24" height="24" fill="white"/>
</clipPath>
</defs>
</svg>
