<svg width="24" height="24" viewBox="0 0 24 24" fill="none" xmlns="http://www.w3.org/2000/svg">
<path d="M11.47 9.15449L9.64 11C9.42955 11.2084 9.09046 11.2084 8.88 11C8.67807 10.7908 8.67807 10.4592 8.88 10.25L12 7.11L15.12 10.23C15.3219 10.4392 15.3219 10.7708 15.12 10.98C15.0208 11.0834 14.8833 11.1413 14.74 11.14C14.5967 11.1413 14.4592 11.0834 14.36 10.98L12.53 9.15V16.13C12.5301 16.4244 12.2943 16.6645 12 16.67C11.7057 16.6645 11.47 16.4244 11.47 16.13V9.15449ZM19.2 18.37V5.61H4.79986V18.37H19.2ZM19.2 19.44H4.79986V21.51C4.81094 22.2864 5.4435 22.91 6.22 22.91H17.78C18.1566 22.91 18.5178 22.7604 18.7841 22.4941C19.0504 22.2278 19.2 21.8666 19.2 21.49V19.44ZM19.2 4.54V2.49C19.2 2.11339 19.0504 1.75221 18.7841 1.48591C18.5178 1.21961 18.1566 1.07 17.78 1.07H6.22C5.8399 1.07 5.47566 1.22231 5.20877 1.49295C4.94189 1.7636 4.79465 2.12994 4.79986 2.51V4.54H19.2ZM17.78 0C18.4439 0 19.0803 0.265061 19.5478 0.736361C20.0154 1.20766 20.2753 1.84615 20.2701 2.51V21.51C20.2701 22.1704 20.0077 22.8037 19.5407 23.2707C19.0737 23.7377 18.4404 24 17.78 24H6.22C5.55613 24 4.91974 23.7349 4.4522 23.2636C3.98465 22.7923 3.72467 22.1538 3.72992 21.49V2.49C3.72992 1.11481 4.84481 0 6.22 0H17.78Z" fill="#e21a23"/>
</svg>
