<svg width="24" height="24" viewBox="0 0 24 24" fill="none" xmlns="http://www.w3.org/2000/svg">
<g clip-path="url(#clip0)">
<path d="M0.424236 8.68C0.156832 8.64336 -0.04245 8.4149 -0.04245 8.145C-0.04245 7.8751 0.156832 7.64665 0.424236 7.61H4.78424C4.99284 7.58142 5.19903 7.67668 5.31247 7.85406C5.42591 8.03143 5.42591 8.25857 5.31247 8.43595C5.19903 8.61332 4.99284 8.70859 4.78424 8.68H0.424236ZM0.424236 12.8C0.156832 12.7634 -0.04245 12.5349 -0.04245 12.265C-0.04245 11.9951 0.156832 11.7666 0.424236 11.73H4.78424C4.99284 11.7014 5.19903 11.7967 5.31247 11.9741C5.42591 12.1514 5.42591 12.3786 5.31247 12.5559C5.19903 12.7333 4.99284 12.8286 4.78424 12.8H0.424236ZM0.424236 16.86C0.156832 16.8234 -0.04245 16.5949 -0.04245 16.325C-0.04245 16.0551 0.156832 15.8266 0.424236 15.79H4.78424C4.99284 15.7614 5.19903 15.8567 5.31247 16.0341C5.42591 16.2114 5.42591 16.4386 5.31247 16.6159C5.19903 16.7933 4.99284 16.8886 4.78424 16.86H0.424236ZM17.4842 12.21C17.5232 15.3411 15.0251 17.9152 11.8942 17.97C8.76341 17.9152 6.26523 15.3411 6.30424 12.21C6.25968 9.07506 8.75946 6.49479 11.8942 6.44C15.029 6.49479 17.5288 9.07506 17.4842 12.21ZM7.37424 12.21C7.32959 14.7541 9.35038 16.8553 11.8942 16.91C13.117 16.8864 14.2802 16.3778 15.1279 15.4964C15.9756 14.6149 16.4383 13.4327 16.4142 12.21C16.4383 10.9873 15.9756 9.8051 15.1279 8.92363C14.2802 8.04215 13.117 7.53364 11.8942 7.51C9.35038 7.56468 7.32959 9.66595 7.37424 12.21ZM0.424236 3.97H22.8942C23.4465 3.97 23.8942 4.41772 23.8942 4.97V19.5C23.8942 20.0523 23.4465 20.5 22.8942 20.5H0.424236C0.156832 20.4634 -0.04245 20.2349 -0.04245 19.965C-0.04245 19.6951 0.156832 19.4666 0.424236 19.43H18.5042C18.7348 17.121 20.5238 15.2741 22.8242 14.97V9.5C20.5238 9.1959 18.7348 7.349 18.5042 5.04H0.424236C0.156832 5.00336 -0.04245 4.7749 -0.04245 4.505C-0.04245 4.2351 0.156832 4.00665 0.424236 3.97ZM19.5842 5.04C19.7916 6.76411 21.1113 8.14486 22.8242 8.43V6.04C22.8242 5.48772 22.3765 5.04 21.8242 5.04H19.5842ZM19.5842 19.38L21.8304 19.3661C22.3803 19.3627 22.8242 18.916 22.8242 18.3662V15.97C21.1048 16.2573 19.7833 17.6482 19.5842 19.38ZM12.2442 15.59L11.7642 15.62V14.86C11.0437 14.8387 10.3652 14.5158 9.89424 13.97L10.2842 13.41C10.6583 13.8495 11.1821 14.1346 11.7542 14.21V12.14C10.9242 11.9 10.0542 11.57 10.0542 10.57C10.0697 10.1374 10.2586 9.72933 10.5785 9.43771C10.8983 9.14609 11.3221 8.99553 11.7542 9.02V8.24H12.2442V9.02C12.8561 9.06368 13.4283 9.33905 13.8442 9.79L13.4442 10.31C13.1313 9.96304 12.7067 9.73661 12.2442 9.67V11.5C13.0842 11.75 13.9742 12.08 13.9742 13.18C13.9748 13.6318 13.79 14.0641 13.463 14.3759C13.1361 14.6878 12.6955 14.8519 12.2442 14.83V15.59ZM12.3342 12.32V13.95C12.5517 13.95 12.7603 13.8636 12.9141 13.7098C13.0678 13.556 13.1542 13.3475 13.1542 13.13C13.1542 12.66 12.7942 12.47 12.3342 12.32ZM11.7142 11.36V9.73C11.4941 9.73264 11.284 9.82262 11.1302 9.98016C10.9765 10.1377 10.8213 10.3499 10.8239 10.57C10.8239 11.02 11.2542 11.2 11.7142 11.36Z" fill="#e21a23"/>
</g>
<defs>
<clipPath id="clip0">
<rect width="24" height="24" fill="white"/>
</clipPath>
</defs>
</svg>
