<svg id="Layer_1" data-name="Layer 1" xmlns="http://www.w3.org/2000/svg" viewBox="0 0 23.16 14.35"><defs></defs><title>money-transfer</title><g id="b"><path id="a" d="M.69,4.48A.49.49,0,0,1,.24,4a.49.49,0,0,1,.45-.4H4.91a.5.5,0,0,1,.58.4.49.49,0,0,1-.44.53H.69Zm0,3.57a.48.48,0,0,1-.45-.53.51.51,0,0,1,.45-.4H4.91a.51.51,0,0,1,.58.4.48.48,0,0,1-.44.53H.69Zm0,3.53a.48.48,0,0,1-.45-.53.5.5,0,0,1,.45-.4H4.91a.5.5,0,0,1,.58.4.48.48,0,0,1-.44.53H.69Zm16.5-4a5.22,5.22,0,0,1-5.4,5,5.22,5.22,0,0,1-5.41-5,5.22,5.22,0,0,1,5.41-5A5.22,5.22,0,0,1,17.19,7.54Zm-9.78,0a4.24,4.24,0,0,0,4.38,4.08,4.23,4.23,0,0,0,4.37-4.08h0a4.23,4.23,0,0,0-4.37-4.08h0A4.24,4.24,0,0,0,7.41,7.54ZM.69.39H23.4V14.74H.69a.48.48,0,0,1-.45-.53.5.5,0,0,1,.45-.4H18.18a4.58,4.58,0,0,1,4.18-3.87V5.19a4.6,4.6,0,0,1-4.18-3.88H.69A.47.47,0,0,1,.24.79.49.49,0,0,1,.69.39Zm18.54.92a3.58,3.58,0,0,0,3.13,2.95V1.31Zm0,12.46,3.13,0V10.8A3.58,3.58,0,0,0,19.23,13.77Zm-7.11-3.3-.46,0V9.84a2.63,2.63,0,0,1-1.81-.77l.38-.49a2.37,2.37,0,0,0,1.42.7V7.48C10.85,7.27,10,7,10,6.12a1.49,1.49,0,0,1,1.61-1.35h0V4.09h.47v.68a2.45,2.45,0,0,1,1.55.67l-.38.45a2.08,2.08,0,0,0-1.17-.56V6.92c.82.22,1.68.51,1.68,1.46a1.53,1.53,0,0,1-1.6,1.44h-.08Zm.09-2.83V9.05A.75.75,0,0,0,13,8.34C13,7.93,12.66,7.77,12.21,7.64Zm-.78-.72V5.51a.76.76,0,0,0-.8.73h0C10.63,6.63,11,6.78,11.43,6.92Z" transform="translate(-0.24 -0.39)"/></g></svg>