<svg xmlns="http://www.w3.org/2000/svg"><defs><path id="svgstore7d03b15c2c68e51b5d007110c9bc605ca" d="M19.23 0h25.54c6.687 0 9.112.696 11.556 2.003a13.63 13.63 0 0 1 5.67 5.67C63.305 10.119 64 12.544 64 19.23v25.542c0 6.686-.696 9.11-2.003 11.555a13.63 13.63 0 0 1-5.67 5.67C53.881 63.305 51.456 64 44.77 64H19.229c-6.686 0-9.11-.696-11.555-2.003a13.63 13.63 0 0 1-5.67-5.67C.695 53.881 0 51.456 0 44.77V19.229c0-6.686.696-9.11 2.003-11.555a13.63 13.63 0 0 1 5.67-5.67C10.119.695 12.544 0 19.23 0z"/><path id="svgstore37222061dda91252178de9ef89144684a" d="M19.23 0h25.54c6.687 0 9.112.696 11.556 2.003a13.63 13.63 0 0 1 5.67 5.67C63.305 10.119 64 12.544 64 19.23v25.542c0 6.686-.696 9.11-2.003 11.555a13.63 13.63 0 0 1-5.67 5.67C53.881 63.305 51.456 64 44.77 64H19.229c-6.686 0-9.11-.696-11.555-2.003a13.63 13.63 0 0 1-5.67-5.67C.695 53.881 0 51.456 0 44.77V19.229c0-6.686.696-9.11 2.003-11.555a13.63 13.63 0 0 1 5.67-5.67C10.119.695 12.544 0 19.23 0z"/><path id="svgstore37222061dda91252178de9ef89144684c" d="M0.057 0.012L46.189 0.012 46.189 41.309 0.057 41.309z"/></defs><symbol viewBox="0 0 52 52" id="i--account-info"><title>account-info</title><path d="m27 44.3c-7 0-12.1-4.6-12.1-4.6-.3-.3-.4-.8-.3-1.2 2.2-5.8 6.9-9.5 12.3-9.5 9.5 0 12.3 9.3 12.3 9.4.1.4 0 .9-.3 1.1-4.2 3.6-8.3 4.8-11.9 4.8zm-10.1-5.8c2.2 1.8 10.6 7.3 20-.2-.8-1.9-3.4-7.2-10-7.2-4.3.1-8 2.8-10 7.4z"/><path d="m26.9 27.1c-3.8 0-6.8-3.1-6.8-6.8 0-3.8 3.1-6.8 6.8-6.8 3.8 0 6.8 3.1 6.8 6.8s-3.1 6.8-6.8 6.8zm0-11.4c-2.5 0-4.6 2.1-4.6 4.6s2.1 4.6 4.6 4.6 4.6-2.1 4.6-4.6-2.1-4.6-4.6-4.6z"/><path d="m14.6 38.5c.2-.6.5-1.1.7-1.7-2.7-2.9-4.3-6.8-4.3-10.9 0-8.7 7.1-15.9 15.9-15.9s15.9 7.1 15.9 15.9c0 4-1.5 7.9-4.3 10.8.5 1 .7 1.7.7 1.7.1.3 0 .6-.1.8 3.7-3.4 5.9-8.2 5.9-13.3 0-10-8.1-18.1-18.1-18.1s-18.1 8.1-18.1 18.1c0 5 2.1 9.8 5.8 13.2-.1-.2-.1-.4 0-.6z" fill="#e31b23"/></symbol><symbol id="i--calling-app"><title>calling-app</title><g fill="none" fill-rule="evenodd"><mask id="svgstore7d03b15c2c68e51b5d007110c9bc605cb" fill="#fff"><use xlink:href="#svgstore7d03b15c2c68e51b5d007110c9bc605ca"/></mask><use fill="#979797" fill-rule="nonzero" xlink:href="#svgstore7d03b15c2c68e51b5d007110c9bc605ca"/><g mask="url(#svgstore7d03b15c2c68e51b5d007110c9bc605cb)"><path fill="#E21B23" d="M0.29 63.658L63.711 63.658 63.711 0.237 0.29 0.237z"/><g transform="translate(1.766 2.207)"><path fill="#FEFEFE" d="M2.072 19.48l-.028-.021.028.02"/><path fill="#FEFEFE" d="M41.685 26.124L47.773 18.901 43.354 15.747 38.227 24.066z"/><path fill="#FEFEFE" d="M47.333 30.27L53.37 23.777 49.932 20.755 44.371 27.941z"/><path fill="#FEFEFE" d="M42.25 50.406l3.09-4.948-13.825-8.167a.612.612 0 0 1-.154-.128l-3.568-4.08-5.681-1.569a.63.63 0 0 1-.156-1.148l1.37-.82-.266-1.788a.63.63 0 1 1 1.03-.574l3.11 2.62 6.746-1.651.286-2.29L20.6 19.671l-8.174 12.464 12.98 18.25c.095.134.133.3.108.463l-1.67 10.602h19.57l-1.254-10.637a.633.633 0 0 1 .091-.407m2.431 11.044l-1.244-10.564L44.68 61.45z"/><path fill="#FEFEFE" d="M45.643 32.142l-.002.002-1.232 2.046a.845.845 0 0 1-1.151.287l-2.866-1.727a.84.84 0 0 1-.288-1.148l1.235-2.048a.834.834 0 0 1 .514-.38.834.834 0 0 1 .637.094l2.864 1.725c.394.24.523.754.29 1.149m-2.616 4.386l-.002.003-1.232 2.046a.84.84 0 0 1-1.15.286l-2.866-1.726a.834.834 0 0 1-.286-1.152l1.233-2.044a.831.831 0 0 1 .517-.381.83.83 0 0 1 .635.096l2.862 1.723a.843.843 0 0 1 .289 1.15m-6.744-.43a.839.839 0 0 1-.43-.12l-2.867-1.726a.842.842 0 0 1-.285-1.15l1.232-2.047a.843.843 0 0 1 1.148-.286l2.868 1.727a.84.84 0 0 1 .288 1.148v.001l-1.233 2.047a.843.843 0 0 1-.721.405m-.967-7.381l1.232-2.046a.834.834 0 0 1 .517-.381.831.831 0 0 1 .635.096l2.864 1.724a.83.83 0 0 1 .381.518.83.83 0 0 1-.096.634l-1.23 2.044a.833.833 0 0 1-.72.407c-.151 0-.3-.04-.432-.12l-2.864-1.726a.841.841 0 0 1-.287-1.15m21.81-.517l-3.95-2.367-5.316 5.72a.629.629 0 0 1-.85.066l-3.91-3.074a.631.631 0 0 1-.109-.881l4.196-5.421-.387-.233-4.496 5.335a.63.63 0 0 1-.805.135l-4.468-2.66a.63.63 0 0 1-.213-.871l3.565-5.784-.483-.289-3.889 5.737a.632.632 0 0 1-.802.21l-5.215-2.587a.632.632 0 0 1-.273-.866l3.532-6.479-.423-.253-3.89 6.47a.628.628 0 0 1-.784.256l-5.74-2.409a.629.629 0 0 1-.326-.848l2.17-4.616-10.321-6.22a1.454 1.454 0 0 0-1.127-.145 1.561 1.561 0 0 0-.938.717l-5.12 8.71c-.434.734-.212 1.672.495 2.09l9.44 5.69 3.152-4.804a.629.629 0 0 1 .787-.228l14.547 6.607a.63.63 0 0 1 .364.652l-.397 3.18a.632.632 0 0 1-.475.533l-1.478.362a.837.837 0 0 1 .256 1.128l-1.23 2.045a.831.831 0 0 1-.72.408.828.828 0 0 1-.434-.123L28.2 31.369a.825.825 0 0 1-.35-.427l-.66.161a.632.632 0 0 1-.556-.13l-2.08-1.753.081.559a.63.63 0 0 1-.298.633l-.469.28 4.443 1.226c.118.033.225.1.307.193l3.626 4.147 13.865 8.19.001-.002.328.196.099.06.003.002.507.303a3.19 3.19 0 0 0 4.359-1.118l6.841-11.331c.43-.727.55-1.583.338-2.409a3.154 3.154 0 0 0-1.456-1.95"/><path fill="#FEFEFE" d="M40.997 31.989L43.648 33.587 44.752 31.755 42.1 30.158z"/><path fill="#FEFEFE" d="M35.278 22.45L40.848 14.235 35.931 11.611 31.141 20.398z"/><path fill="#FEFEFE" d="M39.961 28.871L37.31 27.274 36.206 29.106 38.859 30.704z"/><path fill="#FEFEFE" d="M38.381 36.376L41.033 37.974 42.137 36.141 39.485 34.545z"/><path fill="#FEFEFE" d="M32.557 30.374L31.867 29.958 28.92 30.68 31.454 32.205z"/><path fill="#FEFEFE" d="M33.591 33.492L36.244 35.09 37.347 33.258 34.694 31.66z"/><path fill="#FEFEFE" d="M5.835 15.01l5.119-8.71a2.62 2.62 0 0 1 1.58-1.206 2.51 2.51 0 0 1 1.954.259l10.23 6.166 1.007-2.14L13.279 1.92a3.186 3.186 0 0 0-4.357 1.119l-6.844 11.33a3.189 3.189 0 0 0 1.12 4.36l11.854 7.103 1.052-1.603-9.403-5.668c-1.21-.717-1.6-2.311-.866-3.552"/><path fill="#FEFEFE" d="M28.141 18.991L33.318 10.383 27.658 8.228 23.51 17.048z"/><path fill="#221E1F" d="M58.246 32.558L51.404 43.89a3.19 3.19 0 0 1-4.359 1.118l-.506-.303-.003-.003-.1-.059-.327-.196-.001.002-13.865-8.19-3.627-4.147a.632.632 0 0 0-.306-.192l-4.443-1.227.468-.28a.63.63 0 0 0 .3-.634l-.083-.558 2.08 1.753c.155.13.361.178.557.13l.661-.161a.826.826 0 0 0 .349.428l2.863 1.723a.832.832 0 0 0 .636.098.828.828 0 0 0 .517-.383l1.231-2.044a.837.837 0 0 0-.257-1.13l1.478-.36a.63.63 0 0 0 .476-.534l.398-3.18a.63.63 0 0 0-.365-.652L20.629 18.3a.63.63 0 0 0-.787.228l-3.15 4.805-9.442-5.69c-.707-.42-.93-1.357-.494-2.092l5.118-8.709c.21-.355.544-.61.94-.717.39-.105.79-.054 1.125.144l10.322 6.221-2.17 4.615a.63.63 0 0 0 .326.85l5.74 2.408a.629.629 0 0 0 .783-.256l3.891-6.47.422.253-3.531 6.48a.628.628 0 0 0 .273.865l5.216 2.588a.63.63 0 0 0 .802-.211l3.888-5.737.483.289-3.566 5.784a.63.63 0 0 0 .214.872l4.469 2.66a.627.627 0 0 0 .803-.136L46.8 22.01l.388.232-4.196 5.421a.63.63 0 0 0 .109.88l3.91 3.075a.627.627 0 0 0 .85-.066l5.318-5.72 3.949 2.367a3.158 3.158 0 0 1 1.456 1.95 3.161 3.161 0 0 1-.338 2.408zm-26.379-2.6l.69.416-1.103 1.832-2.534-1.526 2.947-.722zm-16.815-4.126L3.2 18.728a3.19 3.19 0 0 1-1.121-4.358L8.922 3.039a3.188 3.188 0 0 1 4.356-1.12l12.446 7.46-1.006 2.14-10.23-6.166a2.508 2.508 0 0 0-1.953-.259 2.626 2.626 0 0 0-1.581 1.207l-5.119 8.708c-.734 1.24-.344 2.835.866 3.552l9.403 5.667-1.052 1.604zM27.658 8.228l5.66 2.155-5.176 8.608-4.632-1.943 4.148-8.82zm8.273 3.383l4.917 2.623-5.57 8.217-4.137-2.053 4.79-8.787zm7.423 4.136l4.419 3.154-6.088 7.223-3.458-2.058 5.127-8.319zm6.578 5.008l3.437 3.022-6.036 6.493-2.962-2.33 5.56-7.185zm9.872 9.082a4.405 4.405 0 0 0-2.031-2.72l-3.718-2.227.677-.73a.629.629 0 0 0-.045-.901l-4.427-3.893a.63.63 0 0 0-.914.088l-1.382 1.785-.34-.204 1.553-1.844a.628.628 0 0 0-.117-.919l-5.523-3.942a.629.629 0 0 0-.902.182l-1.59 2.58-.435-.261 1.674-2.47a.63.63 0 0 0-.225-.908l-6.086-3.248a.63.63 0 0 0-.85.255l-1.266 2.324-.376-.226 1.305-2.171a.633.633 0 0 0-.316-.913l-6.91-2.631a.63.63 0 0 0-.793.321l-.503 1.07L13.924.836A4.447 4.447 0 0 0 7.84 2.392L.94 13.812c-1.181 2.044-.524 4.355 1.104 5.646.008.008.018.015.027.022a4.71 4.71 0 0 0 .482.33l11.807 7.077-3.225 4.918a.627.627 0 0 0 .013.71l13.08 18.39-1.66 10.545h1.275l1.67-10.602a.632.632 0 0 0-.109-.463l-12.98-18.25L20.6 19.672l13.634 6.19-.287 2.29-6.746 1.652-3.11-2.62a.629.629 0 0 0-1.03.574l.267 1.79-1.371.818a.629.629 0 0 0 .156 1.148l5.68 1.569 3.57 4.08c.043.05.096.094.153.128l13.825 8.167-3.09 4.949a.632.632 0 0 0-.09.406l1.253 10.637h1.269l-1.245-10.565 2.987-4.784a4.443 4.443 0 0 0 6.062-1.566l6.84-11.328.002-.005a4.411 4.411 0 0 0 .476-3.365z"/><path fill="#221E1F" d="M41.033 37.974l-2.652-1.598 1.104-1.832 2.652 1.597-1.104 1.833zm1.706-2.595l-2.863-1.723a.829.829 0 0 0-.634-.097.83.83 0 0 0-.517.382l-1.233 2.044a.833.833 0 0 0-.095.636c.054.218.19.402.381.516l2.866 1.726a.841.841 0 0 0 1.15-.286l1.232-2.046.002-.002a.843.843 0 0 0-.289-1.15zm-6.495-.289l-2.653-1.598 1.103-1.832 2.653 1.598-1.103 1.832zm1.994-1.445a.842.842 0 0 0-.288-1.148l-2.868-1.727a.845.845 0 0 0-1.148.286l-1.232 2.047a.841.841 0 0 0 .286 1.15l2.866 1.727a.842.842 0 0 0 1.15-.287l1.233-2.047zm5.41-.057l-2.652-1.599 1.103-1.831 2.653 1.597-1.104 1.833zm1.706-2.594l-2.864-1.725a.832.832 0 0 0-.636-.095.833.833 0 0 0-.515.38l-1.234 2.048a.84.84 0 0 0 .288 1.148l2.865 1.727a.845.845 0 0 0 1.152-.287l1.232-2.046v-.002a.844.844 0 0 0-.288-1.148zm-8.044-3.72l2.65 1.597-1.101 1.833-2.653-1.598 1.104-1.832zm-1.706 2.593l2.864 1.725a.826.826 0 0 0 .635.096.834.834 0 0 0 .517-.381l1.23-2.045a.829.829 0 0 0 .096-.634.83.83 0 0 0-.38-.517L37.7 26.386a.83.83 0 0 0-.635-.096.835.835 0 0 0-.517.381l-1.232 2.046a.838.838 0 0 0 .287 1.15zm23.463-4.35h.128c.15 0 .275-.05.275-.192 0-.101-.072-.2-.275-.2a.63.63 0 0 0-.128.011v.382zm0 .632h-.187v-1.137c.099-.013.19-.027.321-.027.176 0 .288.034.355.088.067.047.106.126.106.233 0 .15-.1.24-.222.278v.008c.1.02.168.107.188.276a.937.937 0 0 0 .074.281h-.193a.95.95 0 0 1-.075-.291c-.027-.144-.098-.197-.242-.197h-.125v.488zm.186-1.451c-.446 0-.814.384-.814.858 0 .485.368.863.82.863.452.005.811-.378.811-.857 0-.48-.359-.864-.812-.864h-.005zm.005-.16c.555 0 .999.451.999 1.018 0 .575-.444 1.021-1.004 1.021a1.01 1.01 0 0 1-1.008-1.021c0-.567.454-1.018 1.008-1.018h.005z"/></g></g></g></symbol><symbol viewBox="0 0 58 73" id="i--logo-white"><title>logo-white</title> <g id="svgstoree0530f74f6b3a555aa647938d38b93e6MT-Service-page" stroke="none" stroke-width="1" fill="none" fill-rule="evenodd"> <g id="svgstoree0530f74f6b3a555aa647938d38b93e6Group-34" transform="translate(0.000000, 0.000000)"> <path d="M16.3977997,0.299665282 L16.5889886,0.399580459 L25.6789886,5.77958046 L26.0089886,5.15958046 C26.0624886,5.05898046 26.1513886,4.98178046 26.2585886,4.94298046 C26.3389136,4.91388046 26.4252573,4.90789921 26.5079167,4.92491015 L26.5889886,4.94958046 L30.8989886,6.59958046 C30.9617886,6.62418046 31.0187886,6.66178046 31.0660886,6.70988046 C31.1133886,6.75798046 31.1500886,6.81548046 31.1736886,6.87878046 C31.1972886,6.94198046 31.2072886,7.00948046 31.2029886,7.07678046 C31.2001886,7.12171379 31.1910774,7.16589157 31.1760108,7.20803972 L31.1489886,7.26958046 L30.3989886,8.60958046 L30.9789886,8.95958046 L31.8189886,7.49958046 C31.8798886,7.39348046 31.9797886,7.31528046 32.0974886,7.28168046 C32.1856886,7.25648046 32.2786698,7.25783046 32.3651261,7.28450702 L32.4489886,7.31958046 L36.5589886,9.55958046 C36.6154886,9.58968046 36.6652886,9.63108046 36.7052886,9.68118046 C36.7452886,9.73118046 36.7745886,9.78888046 36.7914886,9.85078046 C36.8082886,9.91258046 36.8123886,9.97718046 36.8032886,10.0405805 C36.7972886,10.0828471 36.7855552,10.1240471 36.7685034,10.1629953 L36.7389886,10.2195805 L35.7389886,11.8195805 L36.4089886,12.1595805 L37.4089886,10.5295805 C37.4441886,10.4767805 37.4895886,10.4314805 37.5423886,10.3963805 C37.5952886,10.3611805 37.6545886,10.3368805 37.7168886,10.3247805 C37.7791886,10.3126805 37.8432886,10.3130805 37.9053886,10.3258805 C37.9468552,10.3344805 37.9868997,10.3484582 38.0245145,10.3674286 L38.0789886,10.3995805 L41.6889886,13.0495805 C41.7892886,13.1267805 41.8550886,13.2405805 41.8719886,13.3660805 C41.8845886,13.4602055 41.8689511,13.5551742 41.8281136,13.6393851 L41.7789886,13.7195805 L40.9289886,14.8195805 L41.4989886,15.0895805 L42.3389886,14.0095805 C42.3837886,13.9632805 42.4373886,13.9264805 42.4965886,13.9013805 C42.5558886,13.8762805 42.6195886,13.8632805 42.6839886,13.8632805 C42.7483886,13.8632805 42.8120886,13.8762805 42.8713886,13.9013805 C42.9108552,13.9181138 42.947833,13.9400471 42.9813737,13.9665286 L43.0289886,14.0095805 L46.1189886,16.8395805 C46.2062886,16.9291805 46.2551886,17.0494805 46.2551886,17.1745805 C46.2551886,17.2684805 46.2276823,17.359568 46.1770995,17.437043 L46.1189886,17.5095805 L45.8789886,17.7595805 L47.3989886,18.6595805 C47.7452886,18.8596805 48.0480886,19.1270805 48.2895886,19.4459805 C48.5310886,19.7647805 48.7063886,20.1287805 48.8050886,20.5163805 C48.9038886,20.9039805 48.9240886,21.3073805 48.8646886,21.7029805 C48.8171686,22.0193805 48.7193446,22.3256685 48.5754662,22.6103245 L48.4589886,22.8195805 L43.8589886,30.6095805 C43.4688886,31.2797805 42.8343886,31.7727805 42.0885886,31.9852805 C41.4106795,32.1785532 40.6886381,32.1262887 40.0484601,31.8418605 L39.8589886,31.7495805 L37.5889886,34.6095805 L38.4753633,45.0143846 C38.1694362,45.0708188 37.8720923,45.1400857 37.5843492,45.2216127 L36.6289886,34.5095805 C36.6224636,34.4206305 36.6408573,34.332243 36.6813011,34.2540367 L36.7289886,34.1795805 L39.0389886,31.2695805 L29.1489886,25.4095805 C29.1202552,25.3955138 29.0939219,25.377136 29.0709071,25.3551582 L29.0389886,25.3195805 L26.4789886,22.4695805 L22.9089886,21.6495805 C22.8296886,21.6332805 22.7561886,21.5958805 22.6963886,21.5412805 C22.6364886,21.4867805 22.5924886,21.4170805 22.5689886,21.3395805 C22.5442886,21.2630805 22.5395886,21.1815805 22.5552886,21.1028805 C22.5658219,21.0503471 22.5851997,21.0001693 22.6124145,20.9544805 L22.6589886,20.8895805 L23.1489886,20.3095805 L22.4589886,18.8095805 C22.4199886,18.7166805 22.4106886,18.6139805 22.4320886,18.5155805 C22.4535886,18.4171805 22.5048886,18.3277805 22.5789886,18.2595805 C22.6536886,18.1942805 22.7470886,18.1542805 22.8458886,18.1452805 C22.9199886,18.1385305 22.9942573,18.1494992 23.0627042,18.1768367 L23.1289886,18.2095805 L25.3489886,19.5195805 L30.7489886,17.0695805 L30.5289886,15.5495805 L20.5289886,13.9295805 L15.2389886,22.4195805 L24.8189886,34.4895805 C24.8738136,34.5599305 24.9075448,34.643668 24.9173136,34.7311742 L24.9189886,34.8195805 L24.1472142,45.1038825 C23.8076398,45.1745666 23.4868613,45.2579625 23.1837029,45.3526652 L23.9989886,34.9895805 L14.3289886,22.7795805 C14.2705886,22.7016805 14.2389886,22.6069805 14.2389886,22.5095805 C14.2389886,22.4365305 14.2567636,22.3649992 14.2902886,22.3009351 L14.3289886,22.2395805 L16.8689886,18.1595805 L8.92898855,13.4595805 C8.29298855,13.0805805 7.81958855,12.4796805 7.59988855,11.7726805 C7.40215855,11.1362905 7.42256155,10.4543785 7.65402625,9.83396166 L7.73898855,9.62958046 L2.73898855,6.62958046 C2.86848855,6.53688046 2.98018855,6.42178046 3.06898855,6.28958046 C3.10858855,6.22098046 3.14129966,6.14864713 3.16661818,6.07373601 L3.19898855,5.95958046 L8.06898855,8.87958046 L12.4689886,1.45958046 C12.8840886,0.783080459 13.5458886,0.294280459 14.3146886,0.0964804586 C15.0135067,-0.0832468142 15.7510026,-0.00983359103 16.3977997,0.299665282 Z M1.55898855,4.66958046 C2.13898855,5.01958046 2.42898855,5.57958046 2.18898855,5.95958046 C1.94898855,6.33958046 1.29898855,6.34958046 0.718988552,6.00958046 C0.138988552,5.67958046 -0.151011448,5.09958046 0.0789885521,4.72958046 C0.308988552,4.35958046 0.978988552,4.31958046 1.55898855,4.66958046 Z" id="svgstoree0530f74f6b3a555aa647938d38b93e6Combined-Shape-Copy" fill="#231F20" fill-rule="nonzero"/> <path d="M32.3989886,13.2995805 C32.4949886,13.3170805 32.5830886,13.3640805 32.6511886,13.4339805 C32.7192886,13.5037805 32.7639886,13.5931805 32.7789886,13.6895805 L32.9289886,14.6095805 L35.6489886,10.1095805 L32.4089886,8.36958046 L29.8189886,12.8195805 L32.3989886,13.2995805 Z" id="svgstoree0530f74f6b3a555aa647938d38b93e6Path-Copy" fill="#FFFFFF" fill-rule="nonzero"/> <polygon id="svgstoree0530f74f6b3a555aa647938d38b93e6Path-Copy-2" fill="#FFFFFF" fill-rule="nonzero" points="40.2189886 22.3495805 45.1089886 17.2095805 42.7389886 15.0395805 38.2189886 20.8495805"/> <polygon id="svgstoree0530f74f6b3a555aa647938d38b93e6Path-Copy-3" fill="#FFFFFF" fill-rule="nonzero" points="36.2889886 19.2895805 40.7389886 13.5195805 37.9389886 11.4595805 34.0889886 17.6195805"/> <path d="M18.1189886,16.0095805 L12.2889886,12.5295805 C12.0964886,12.4160805 11.9281886,12.2657805 11.7938886,12.0871805 C11.6594886,11.9086805 11.5615886,11.7053805 11.5058886,11.4889805 C11.4501886,11.2725805 11.4376886,11.0472805 11.4690886,10.8260805 C11.5004886,10.6047805 11.5751886,10.3918805 11.6889886,10.1995805 L15.0989886,4.43958046 C15.3336886,4.05408046 15.7097886,3.77558046 16.1468886,3.66348046 C16.5840886,3.55138046 17.0477886,3.61458046 17.4389886,3.83958046 L24.4389886,7.99958046 L25.2089886,6.56958046 L16.1089886,1.18958046 C15.7878886,1.00008046 15.4218886,0.899980459 15.0489886,0.899487778 C14.6852886,0.896180459 14.3268886,0.986380459 14.0081886,1.16148046 C13.6893886,1.33658046 13.4210886,1.59078046 13.2289886,1.89958046 L8.58898855,9.75958046 C8.30718855,10.2400805 8.22678855,10.8125805 8.36548855,11.3520805 C8.50408855,11.8915805 8.85048855,12.3543805 9.32898855,12.6395805 L17.3289886,17.3495805 L18.1189886,16.0095805 Z" id="svgstoree0530f74f6b3a555aa647938d38b93e6Path-Copy-4" fill="#FFFFFF" fill-rule="nonzero"/> <polygon id="svgstoree0530f74f6b3a555aa647938d38b93e6Path-Copy-5" fill="#FFFFFF" fill-rule="nonzero" points="27.1989886 12.3895805 30.0589886 7.28958046 26.6089886 5.96958046 23.4589886 11.7495805"/> <path d="M46.9389886,19.4395805 L45.2389886,18.4395805 L40.5889886,23.2995805 C40.5462886,23.3473805 40.4937886,23.3854805 40.4351886,23.4112805 C40.3765886,23.4371805 40.3130886,23.4501805 40.2489886,23.4495805 C40.1483886,23.4502805 40.0502886,23.4187805 39.9689886,23.3595805 L37.2489886,21.3595805 C37.1985886,21.3214805 37.1565886,21.2733805 37.1256886,21.2182805 C37.0946886,21.1632805 37.0753886,21.1023805 37.0689886,21.0395805 C37.0589886,20.9781805 37.0617886,20.9153805 37.0772886,20.8551805 C37.0927886,20.7948805 37.1205886,20.7384805 37.1589886,20.6895805 L40.8889886,15.9095805 L40.3489886,15.5895805 L36.7289886,20.2795805 C36.6854886,20.3362805 36.6294886,20.3819805 36.5651886,20.4132805 C36.5009886,20.4444805 36.4303886,20.4603805 36.3589886,20.4595805 C36.2536886,20.4603805 36.1513886,20.4250805 36.0689886,20.3595805 L33.1589886,18.1495805 C33.0671886,18.0781805 33.0050886,17.9752805 32.9847886,17.8606805 C32.9644886,17.7461805 32.9873886,17.6281805 33.0489886,17.5295805 L35.9189886,12.9295805 L35.2789886,12.5495805 L33.0489886,16.2395805 C33.0048886,16.3079805 32.9441886,16.3640805 32.8723886,16.4025805 C32.8006886,16.4410805 32.7203886,16.4606805 32.6389886,16.4595805 L32.5889886,16.4595805 C32.4953886,16.4388805 32.4101886,16.3907805 32.3442886,16.3212805 C32.2782886,16.2516805 32.2346886,16.1640805 32.2189886,16.0695805 L31.9289886,14.2095805 L29.0089886,13.6795805 C28.9347886,13.6651805 28.8650886,13.6331805 28.8058886,13.5861805 C28.7467886,13.5391805 28.6997886,13.4785805 28.6689886,13.4095805 C28.6321886,13.3438805 28.6128886,13.2698805 28.6128886,13.1945805 C28.6128886,13.1192805 28.6321886,13.0452805 28.6689886,12.9795805 L30.5889886,9.69958046 L30.0189886,9.35958046 L27.8989886,13.1395805 C27.8589886,13.2130805 27.7995886,13.2742805 27.7273886,13.3165805 C27.6550886,13.3588805 27.5726886,13.3806805 27.4889886,13.3795805 L27.4089886,13.3795805 L22.6889886,12.5795805 C22.6148886,12.5687805 22.5446886,12.5391805 22.4851886,12.4936805 C22.4256886,12.4481805 22.3787886,12.3882805 22.3489886,12.3195805 C22.3147886,12.2530805 22.2968886,12.1793805 22.2968886,12.1045805 C22.2968886,12.0297805 22.3147886,11.9560805 22.3489886,11.8895805 L24.0589886,8.74958046 L17.0589886,4.57958046 C16.9267886,4.50838046 16.7791886,4.47058046 16.6289886,4.46958046 C16.4812886,4.47118046 16.3362886,4.50948046 16.2071886,4.58098046 C16.0779886,4.65258046 15.9685886,4.75518046 15.8889886,4.87958046 L12.4789886,10.6395805 C12.3651886,10.8348805 12.3328886,11.0671805 12.3889886,11.2860805 C12.4451886,11.5050805 12.5852886,11.6930805 12.7789886,11.8095805 L18.5889886,15.2895805 L19.9189886,13.1695805 C19.9670886,13.0907805 20.0372886,13.0279805 20.1208886,12.9887805 C20.2044886,12.9496805 20.2976886,12.9360805 20.3889886,12.9495805 L31.0289886,14.6795805 C31.1281886,14.6957805 31.2196886,14.7433805 31.2898886,14.8153805 C31.3600886,14.8873805 31.4052886,14.9799805 31.4189886,15.0795805 L31.7289886,17.2895805 C31.7391886,17.3915805 31.7177886,17.4942805 31.6676886,17.5836805 C31.6175886,17.6730805 31.5412886,17.7449805 31.4489886,17.7895805 L25.4889886,20.4795805 C25.4224886,20.5137805 25.3487886,20.5316805 25.2739886,20.5316805 C25.1991886,20.5316805 25.1254886,20.5137805 25.0589886,20.4795805 L23.9189886,19.8195805 L24.1089886,20.2295805 C24.1448886,20.3111805 24.1573886,20.4011805 24.1449886,20.4894805 C24.1326886,20.5778805 24.0959886,20.6609805 24.0389886,20.7295805 L23.8489886,20.9495805 L26.8489886,21.6295805 C26.9468886,21.6496805 27.0350886,21.7025805 27.0989886,21.7795805 L29.7089886,24.6795805 L40.1989886,30.9295805 C40.6806886,31.2060805 41.2514886,31.2835805 41.7894886,31.1452805 C42.3274886,31.0070805 42.7901886,30.6640805 43.0789886,30.1895805 L47.7189886,22.3595805 C47.8631886,22.1175805 47.9573886,21.8491805 47.9961886,21.5701805 C48.0349886,21.2911805 48.0174886,21.0071805 47.9447886,20.7350805 C47.8720886,20.4628805 47.7456886,20.2080805 47.5728886,19.9855805 C47.4001886,19.7630805 47.1845886,19.5774805 46.9389886,19.4395805 Z" id="svgstoree0530f74f6b3a555aa647938d38b93e6Path-Copy-6" fill="#FFFFFF" fill-rule="nonzero"/> <path d="M30.9589886,19.3195805 C31.0654886,19.3184805 31.1699886,19.2903805 31.2626886,19.2378805 C31.3552886,19.1853805 31.4331886,19.1102805 31.4889886,19.0195805 L31.9189886,18.2995805 L30.2989886,19.0295805 L30.6389886,19.2295805 C30.7354886,19.2881805 30.8460886,19.3192805 30.9589886,19.3195805 Z" id="svgstoree0530f74f6b3a555aa647938d38b93e6Path-Copy-7" fill="#231F20" fill-rule="nonzero"/> <path d="M30.7089886,19.9795805 C30.6897886,19.9007805 30.6538886,19.8270805 30.6038886,19.7632805 C30.5538886,19.6994805 30.4908886,19.6470805 30.4189886,19.6095805 L29.8189886,19.2495805 L29.0089886,19.6195805 L29.9589886,20.1795805 L29.1989886,21.4595805 L27.3589886,20.3695805 L26.6589886,20.6895805 C26.7066886,20.7839805 26.7792886,20.8634805 26.8689886,20.9195805 L28.8689886,22.1395805 C28.9679886,22.1906805 29.0775886,22.2179805 29.1889886,22.2195805 C29.2960886,22.2213805 29.4016886,22.1945805 29.4948886,22.1417805 C29.5880886,22.0890805 29.6654886,22.0122805 29.7189886,21.9195805 L30.5889886,20.4495805 C30.6411886,20.3841805 30.6788886,20.3084805 30.6994886,20.2274805 C30.7201886,20.1464805 30.7234886,20.0619805 30.7089886,19.9795805 Z" id="svgstoree0530f74f6b3a555aa647938d38b93e6Path-Copy-8" fill="#231F20" fill-rule="nonzero"/> <path d="M32.0189886,20.0495805 L34.0789886,21.2695805 C34.1739886,21.3216805 34.2805886,21.3491805 34.3889886,21.3495805 C34.4973886,21.3511805 34.6042886,21.3242805 34.6989886,21.2715805 C34.7937886,21.2189805 34.8730886,21.1423805 34.9289886,21.0495805 L35.2089886,20.5695805 L34.5889886,20.1195805 L34.3189886,20.5895805 L32.4889886,19.4795805 L32.8989886,18.7895805 L32.3089886,18.3495805 L31.8089886,19.1995805 C31.7243886,19.3401805 31.6988886,19.5086805 31.7382886,19.6679805 C31.7776886,19.8272805 31.8785886,19.9645805 32.0189886,20.0495805 Z" id="svgstoree0530f74f6b3a555aa647938d38b93e6Path-Copy-9" fill="#231F20" fill-rule="nonzero"/> <path d="M37.7889886,22.6195805 L35.9189886,21.5095805 L36.0789886,21.2395805 L35.4989886,20.8195805 L35.2389886,21.2695805 C35.1583886,21.4104805 35.1362886,21.5774805 35.1773886,21.7344805 C35.2184886,21.8915805 35.3195886,22.0262805 35.4589886,22.1095805 L37.5089886,23.3295805 C37.5788886,23.3723805 37.6565886,23.4007805 37.7376886,23.4128805 C37.8186886,23.4249805 37.9013886,23.4206805 37.9806886,23.4000805 C38.0600886,23.3795805 38.1343886,23.3432805 38.1993886,23.2933805 C38.2643886,23.2434805 38.3186886,23.1809805 38.3589886,23.1095805 L38.3589886,23.0495805 L37.7789886,22.5995805 L37.7889886,22.6195805 Z" id="svgstoree0530f74f6b3a555aa647938d38b93e6Path-Copy-10" fill="#231F20" fill-rule="nonzero"/> <path d="M34.1389886,22.0195805 C34.1203886,21.9405805 34.0860886,21.8661805 34.0378886,21.8008805 C33.9897886,21.7355805 33.9288886,21.6806805 33.8589886,21.6395805 L31.7989886,20.4195805 C31.6569886,20.3439805 31.4916886,20.3245805 31.3359886,20.3653805 C31.1802886,20.4060805 31.0456886,20.5039805 30.9589886,20.6395805 L30.0889886,22.1095805 C30.0458886,22.1789805 30.0174886,22.2565805 30.0054886,22.3373805 C29.9934886,22.4181805 29.9979886,22.5005805 30.0189886,22.5795805 C30.0376886,22.6571805 30.0721886,22.7301805 30.1203886,22.7937805 C30.1685886,22.8574805 30.2293886,22.9104805 30.2989886,22.9495805 L32.3589886,24.1695805 C32.4519886,24.2277805 32.5592886,24.2589805 32.6689886,24.2595805 C32.7781886,24.2590805 32.8852886,24.2302805 32.9799886,24.1759805 C33.0745886,24.1215805 33.1535886,24.0435805 33.2089886,23.9495805 L34.0789886,22.4895805 C34.1583886,22.3463805 34.1798886,22.1781805 34.1389886,22.0195805 Z M32.6389886,23.4895805 L30.7689886,22.3795805 L31.5289886,21.1095805 L33.3889886,22.2095805 L32.6389886,23.4895805 Z" id="svgstoree0530f74f6b3a555aa647938d38b93e6Shape-Copy" fill="#231F20" fill-rule="nonzero"/> <path d="M37.2889886,23.6695805 L35.2389886,22.4595805 C35.0971886,22.3800805 34.9303886,22.3574805 34.7724886,22.3964805 C34.6145886,22.4354805 34.4774886,22.5331805 34.3889886,22.6695805 L33.5189886,24.1395805 C33.4378886,24.2820805 33.4154886,24.4504805 33.4564886,24.6091805 C33.4975886,24.7679805 33.5988886,24.9043805 33.7389886,24.9895805 L35.7989886,26.2095805 C35.8939886,26.2616805 36.0005886,26.2891805 36.1089886,26.2895805 C36.2154886,26.2884805 36.3199886,26.2603805 36.4126886,26.2078805 C36.5052886,26.1553805 36.5831886,26.0802805 36.6389886,25.9895805 L37.5089886,24.5195805 C37.5504886,24.4493805 37.5776886,24.3716805 37.5890886,24.2908805 C37.6004886,24.2100805 37.5957886,24.1278805 37.5753886,24.0489805 C37.5548886,23.9699805 37.5190886,23.8957805 37.4699886,23.8306805 C37.4207886,23.7656805 37.3592886,23.7108805 37.2889886,23.6695805 Z M36.0689886,25.5195805 L34.1989886,24.4195805 L34.9589886,23.1395805 L36.8289886,24.2395805 L36.0689886,25.5195805 Z" id="svgstoree0530f74f6b3a555aa647938d38b93e6Shape-Copy-2" fill="#231F20" fill-rule="nonzero"/> <path d="M20.5289886,13.9295805 L30.5289886,15.5495805 L30.7489886,17.0695805 L25.3489886,19.5195805 L23.1289886,18.2095805 C23.0437886,18.1587805 22.9446886,18.1362805 22.8458886,18.1452805 C22.7470886,18.1542805 22.6536886,18.1942805 22.5789886,18.2595805 C22.5048886,18.3277805 22.4535886,18.4171805 22.4320886,18.5155805 C22.4106886,18.6139805 22.4199886,18.7166805 22.4589886,18.8095805 L23.1489886,20.3095805 L22.6589886,20.8895805 C22.6067886,20.9505805 22.5710886,21.0240805 22.5552886,21.1028805 C22.5395886,21.1815805 22.5442886,21.2630805 22.5689886,21.3395805 C22.5924886,21.4170805 22.6364886,21.4867805 22.6963886,21.5412805 C22.7561886,21.5958805 22.8296886,21.6332805 22.9089886,21.6495805 L26.4789886,22.4695805 L29.0389886,25.3195805 C29.0681886,25.3576805 29.1058886,25.3884805 29.1489886,25.4095805 L39.0389886,31.2695805 L36.7289886,34.1795805 C36.6558886,34.2733805 36.6202886,34.3909805 36.6289886,34.5095805 L37.5843492,45.2216127 C35.6544243,45.7684237 34.1563939,46.8667646 33.3972971,48.3439259 C33.2572971,47.8739259 32.1072971,44.8339259 26.9972971,44.8339259 C25.9234799,44.8339259 24.9795367,44.9307111 24.1482234,45.1036725 L24.9189886,34.8195805 C24.9276886,34.7009805 24.8920886,34.5833805 24.8189886,34.4895805 L15.2389886,22.4195805 L20.5289886,13.9295805 Z" id="svgstoree0530f74f6b3a555aa647938d38b93e6Combined-Shape-Copy-2" fill="#FFFFFF" fill-rule="nonzero"/> <path d="M2.58898855,62.9800075 L4.28898855,62.9800075 C5.04468855,62.9535075 5.80128855,62.9970075 6.54898855,63.1100075 C6.75068855,63.1459075 6.94318855,63.2219075 7.11488855,63.3336075 C7.28668855,63.4452075 7.43428855,63.5902075 7.54898855,63.7600075 C7.84108855,64.2693075 7.97348855,64.8546075 7.92898855,65.4400075 C7.95508855,65.9331075 7.83698855,66.4230075 7.58898855,66.8500075 C7.46128855,66.9872075 7.30638855,67.0962075 7.13428855,67.1703075 C6.96208855,67.2443075 6.77638855,67.2817075 6.58898855,67.2800075 C6.94598855,67.3366075 7.27738855,67.5005075 7.53898855,67.7500075 C7.67818855,67.8998075 7.77788855,68.0820075 7.82898855,68.2800075 C7.89658855,68.7199075 7.92008855,69.1654075 7.89898855,69.6100075 L7.89898855,71.9800075 L5.69898855,71.9800075 L5.69898855,68.9800075 C5.72948855,68.6780075 5.68838855,68.3731075 5.57898855,68.0900075 C5.50568855,67.9700075 5.30568855,67.9100075 4.97898855,67.9100075 L4.97898855,71.9800075 L2.58898855,71.9800075 L2.58898855,62.9800075 Z M4.94898855,64.5200075 L4.94898855,66.5200075 C5.14118855,66.5368075 5.33448855,66.5023075 5.50898855,66.4200075 C5.61898855,66.3400075 5.66898855,66.1100075 5.66898855,65.7100075 L5.66898855,65.2200075 C5.68358855,65.1191075 5.67688855,65.0162075 5.64938855,64.9181075 C5.62178855,64.8199075 5.57398855,64.7286075 5.50898855,64.6500075 C5.35078855,64.5509075 5.16498855,64.5054075 4.97898855,64.5200075 L4.94898855,64.5200075 Z M8.58898855,62.9800075 L12.5289886,62.9800075 L12.5289886,64.7800075 L10.9489886,64.7800075 L10.9489886,66.4900075 L12.4189886,66.4900075 L12.4189886,68.2000075 L10.9489886,68.2000075 L10.9489886,70.2000075 L12.6789886,70.2000075 L12.6789886,71.9800075 L8.58898855,71.9800075 L8.58898855,62.9800075 Z M19.1489886,62.9800075 L17.9489886,71.9800075 L14.3489886,71.9800075 L12.9789886,62.9800075 L15.4789886,62.9800075 C15.7689886,65.4600075 15.9689886,67.5600075 16.0989886,69.2700075 C16.2189886,67.5400075 16.3489886,66.0000075 16.4789886,64.6600075 L16.6489886,62.9800075 L19.1489886,62.9800075 Z M24.8089886,68.2500075 C24.8089886,69.1633075 24.7889886,69.8033075 24.7489886,70.1700075 C24.7066886,70.5347075 24.5647886,70.8806075 24.3389886,71.1700075 C24.1062886,71.4878075 23.7917886,71.7366075 23.4289886,71.8900075 C23.0010886,72.0656075 22.5413886,72.1508075 22.0789886,72.1400075 C21.6328886,72.1691075 21.1851886,72.1148075 20.7589886,71.9800075 C20.3888886,71.8298075 20.0646886,71.5849075 19.8189886,71.2700075 C19.5965886,70.9776075 19.4520886,70.6335075 19.3989886,70.2700075 C19.3589886,69.8967075 19.3389886,69.2300075 19.3389886,68.2700075 L19.3389886,66.7100075 C19.3389886,65.8100075 19.3589886,65.1700075 19.3989886,64.7900075 C19.4448886,64.4280075 19.5825886,64.0838075 19.7989886,63.7900075 C20.0378886,63.4742075 20.3549886,63.2260075 20.7189886,63.0700075 C21.1482886,62.8991075 21.6069886,62.8142075 22.0689886,62.8200075 C22.5171886,62.8129075 22.9623886,62.8944075 23.3789886,63.0600075 C23.7520886,63.2050075 24.0774886,63.4508075 24.3189886,63.7700075 C24.5398886,64.0633075 24.6841886,64.4070075 24.7389886,64.7700075 C24.7389886,65.1400075 24.7989886,65.7700075 24.7989886,66.7100075 L24.7989886,68.2500075 L24.8089886,68.2500075 Z M22.4489886,65.2500075 C22.4667886,64.9813075 22.4430886,64.7115075 22.3789886,64.4500075 C22.3569886,64.3931075 22.3163886,64.3452075 22.2636886,64.3144075 C22.2109886,64.2835075 22.1493886,64.2714075 22.0889886,64.2800075 C22.0328886,64.2776075 21.9769886,64.2891075 21.9263886,64.3135075 C21.8757886,64.3379075 21.8319886,64.3745075 21.7989886,64.4200075 C21.7139886,64.6879075 21.6833886,64.9701075 21.7089886,65.2500075 L21.7089886,69.4600075 C21.6900886,69.7945075 21.7101886,70.1301075 21.7689886,70.4600075 C21.7938886,70.5204075 21.8361886,70.5720075 21.8904886,70.6083075 C21.9447886,70.6446075 22.0086886,70.6640075 22.0739886,70.6640075 C22.1392886,70.6640075 22.2031886,70.6446075 22.2574886,70.6083075 C22.3117886,70.5720075 22.3540886,70.5204075 22.3789886,70.4600075 C22.4430886,70.1308075 22.4666886,69.7949075 22.4489886,69.4600075 L22.4489886,65.2500075 Z M27.9789886,62.9800075 L27.9789886,70.1800075 L29.4189886,70.1800075 L29.4189886,71.9800075 L25.5889886,71.9800075 L25.5889886,62.9800075 L27.9789886,62.9800075 Z M35.6789886,62.9800075 L35.6789886,68.9800075 C35.6862886,69.4683075 35.6561886,69.9563075 35.5889886,70.4400075 C35.5249886,70.7511075 35.3878886,71.0424075 35.1889886,71.2900075 C34.9636886,71.5843075 34.6630886,71.8123075 34.3189886,71.9500075 C33.9108886,72.1066075 33.4759886,72.1814075 33.0389886,72.1700075 C32.5422886,72.1802075 32.0487886,72.0883075 31.5889886,71.9000075 C31.2226886,71.7576075 30.9014886,71.5193075 30.6589886,71.2100075 C30.4643886,70.9455075 30.3404886,70.6357075 30.2989886,70.3100075 C30.2989886,69.9900075 30.2389886,69.3100075 30.2389886,68.3100075 L30.2389886,62.9800075 L32.6089886,62.9800075 L32.6089886,69.7300075 C32.5965886,69.9849075 32.6167886,70.2403075 32.6689886,70.4900075 C32.6898886,70.5407075 32.7262886,70.5834075 32.7729886,70.6122075 C32.8196886,70.6409075 32.8742886,70.6542075 32.9289886,70.6500075 C32.9906886,70.6580075 33.0531886,70.6444075 33.1060886,70.6116075 C33.1588886,70.5788075 33.1987886,70.5288075 33.2189886,70.4700075 C33.2729886,70.1867075 33.2930886,69.8980075 33.2789886,69.6100075 L33.2789886,62.9800075 L35.6789886,62.9800075 Z M41.3589886,62.9800075 L41.3589886,64.7800075 L39.9489886,64.7800075 L39.9489886,71.9800075 L37.5889886,71.9800075 L37.5889886,64.7800075 L36.1889886,64.7800075 L36.1889886,62.9800075 L41.3589886,62.9800075 Z M44.7089886,62.9800075 L44.7089886,71.9800075 L42.4189886,71.9800075 L42.4189886,62.9800075 L44.7089886,62.9800075 Z M50.8689886,68.2500075 C50.8689886,69.1633075 50.8489886,69.8033075 50.8089886,70.1700075 C50.7666886,70.5347075 50.6248886,70.8806075 50.3989886,71.1700075 C50.1662886,71.4878075 49.8517886,71.7366075 49.4889886,71.8900075 C49.0610886,72.0656075 48.6013886,72.1508075 48.1389886,72.1400075 C47.6961886,72.1688075 47.2518886,72.1145075 46.8289886,71.9800075 C46.4588886,71.8298075 46.1346886,71.5849075 45.8889886,71.2700075 C45.6665886,70.9776075 45.5220886,70.6335075 45.4689886,70.2700075 C45.4689886,69.9000075 45.3989886,69.2700075 45.3989886,68.2700075 L45.3989886,66.7100075 C45.3863886,66.0692075 45.4097886,65.4282075 45.4689886,64.7900075 C45.5148886,64.4280075 45.6525886,64.0838075 45.8689886,63.7900075 C46.1078886,63.4742075 46.4249886,63.2260075 46.7889886,63.0700075 C47.2182886,62.8991075 47.6769886,62.8142075 48.1389886,62.8200075 C48.5871886,62.8129075 49.0323886,62.8944075 49.4489886,63.0600075 C49.8083886,63.2053075 50.1231886,63.4425075 50.3618886,63.7479075 C50.6005886,64.0534075 50.7547886,64.4162075 50.8089886,64.8000075 C50.8089886,65.1700075 50.8689886,65.8000075 50.8689886,66.7400075 L50.8689886,68.2800075 L50.8689886,68.2500075 Z M48.5089886,65.2500075 C48.5267886,64.9813075 48.5030886,64.7115075 48.4389886,64.4500075 C48.4169886,64.3931075 48.3763886,64.3452075 48.3236886,64.3144075 C48.2709886,64.2835075 48.2093886,64.2714075 48.1489886,64.2800075 C48.0928886,64.2776075 48.0369886,64.2891075 47.9863886,64.3135075 C47.9357886,64.3379075 47.8919886,64.3745075 47.8589886,64.4200075 C47.7739886,64.6879075 47.7433886,64.9701075 47.7689886,65.2500075 L47.7689886,69.4600075 C47.7500886,69.7945075 47.7701886,70.1301075 47.8289886,70.4600075 C47.8492886,70.5215075 47.8902886,70.5740075 47.9449886,70.6086075 C47.9996886,70.6433075 48.0646886,70.6579075 48.1289886,70.6500075 C48.1971886,70.6573075 48.2656886,70.6402075 48.3223886,70.6017075 C48.3791886,70.5633075 48.4204886,70.5060075 48.4389886,70.4400075 C48.5030886,70.1108075 48.5266886,69.7749075 48.5089886,69.4400075 L48.5089886,65.2500075 Z M56.8389886,62.9800075 L56.8389886,71.9800075 L54.7689886,71.9800075 L53.5889886,67.3100075 L53.5889886,71.9800075 L51.5889886,71.9800075 L51.5889886,62.9800075 L53.5889886,62.9800075 L54.9189886,67.8400075 L54.9189886,62.9800075 L56.8389886,62.9800075 Z" id="svgstoree0530f74f6b3a555aa647938d38b93e6Shape-Copy-3" fill="#333333" fill-rule="nonzero"/> <path d="M56.6889886,50.9595805 L57.5189886,47.8595805 C56.0946886,47.1945805 54.5408886,46.8530805 52.9689886,46.8594894 C49.5489886,46.8594894 46.9689886,48.4195805 46.2889886,50.7195805 C45.0289886,55.0495805 51.6389886,54.5995805 51.1989886,56.2495805 C50.9889886,56.9495805 50.1989886,57.3495805 49.1089886,57.3495805 C47.7101886,57.2942805 46.3609886,56.8166805 45.2389886,55.9795805 L44.3789886,59.0695805 C45.9418886,60.0237805 47.7617886,60.4709805 49.5889886,60.3495805 C53.0089886,60.3495805 55.2189886,58.9795805 55.9189886,56.2595805 C56.9189886,52.1895805 50.2689886,52.4495805 50.8289886,50.6995805 C50.9689886,50.2395805 51.7289886,49.9095805 53.1289886,49.9095805 C54.3898886,49.9237805 55.6221886,50.2871805 56.6889886,50.9595805 Z M44.4089886,50.9595805 L45.2389886,47.8595805 C43.8115886,47.1933805 42.2541886,46.8518805 40.6789886,46.8594531 C37.2589886,46.8594531 34.6789886,48.4195805 34.0089886,50.7195805 C32.7489886,55.0495805 39.3589886,54.5995805 38.9189886,56.2495805 C38.7089886,56.9495805 37.9189886,57.3495805 36.8189886,57.3495805 C35.4236886,57.2922805 34.0781886,56.8147805 32.9589886,55.9795805 L32.0989886,59.0695805 C33.6573886,60.0377805 35.4775886,60.4989805 37.3089886,60.3895805 C40.7289886,60.3895805 42.9389886,59.0195805 43.6389886,56.2995805 C44.6889886,52.2295805 37.9889886,52.4895805 38.5389886,50.7395805 C38.6789886,50.2795805 39.4489886,49.9495805 40.8489886,49.9495805 C42.1060886,49.9516805 43.3380886,50.3012805 44.4089886,50.9595805 Z M26.2589886,49.9595805 C24.3989886,49.9595805 23.8389886,50.9595805 23.1489886,53.4995805 C22.3789886,56.2395805 22.3489886,57.3595805 24.2189886,57.3595805 C26.0889886,57.3595805 26.6289886,56.3595805 27.3289886,53.8495805 C28.0789886,51.1195805 28.0789886,49.9595805 26.2589886,49.9595805 Z M27.1189886,46.8695805 C33.7489886,46.8695805 32.8689886,50.7295805 31.9589886,53.9795805 C31.2189886,56.6795805 30.0489886,60.4995805 23.4689886,60.4995805 C16.8889886,60.4995805 17.7289886,56.5395805 18.5889886,53.3095805 C19.3489886,50.5895805 20.5189886,46.8195805 27.1189886,46.8195805 L27.1189886,46.8695805 Z M8.99898855,52.3295805 L10.5889886,52.3295805 C10.9859886,52.3914805 11.3918886,52.3027805 11.7267886,52.0806805 C12.0616886,51.8586805 12.3014886,51.5193805 12.3989886,51.1295805 C12.6289886,50.4095805 12.0689886,49.9895805 11.2089886,49.9895805 L9.64898855,49.9895805 L8.99898855,52.3195805 L8.99898855,52.3295805 Z M7.64898855,57.2395805 L9.25898855,57.2395805 C10.2589886,57.2395805 11.2589886,56.8195805 11.5089886,56.0095805 C11.7589886,55.1995805 11.2389886,54.3995805 10.0989886,54.3995805 L8.43898855,54.3995805 L7.64898855,57.2395805 Z M2.58898855,60.1295805 L6.14898855,47.1295805 L12.6689886,47.1295805 C16.8289886,47.1295805 17.8989886,48.3595805 17.4589886,50.2195805 C17.0189886,52.0795805 15.7989886,52.8795805 13.1089886,53.4595805 C15.8889886,53.7995805 16.5889886,55.1295805 16.1889886,56.8695805 C15.5889886,59.1895805 13.8189886,60.1295805 8.58898855,60.1295805 L2.58898855,60.1295805 Z" id="svgstoree0530f74f6b3a555aa647938d38b93e6Shape-Copy-4" fill="#FFFFFF"/> </g> </g> </symbol><symbol id="i--money-app"><title>money-app</title><g fill="none" fill-rule="evenodd"><mask id="svgstore37222061dda91252178de9ef89144684b" fill="#fff"><use xlink:href="#svgstore37222061dda91252178de9ef89144684a"/></mask><use fill="#979797" fill-rule="nonzero" xlink:href="#svgstore37222061dda91252178de9ef89144684a"/><g mask="url(#svgstore37222061dda91252178de9ef89144684b)"><path fill="#E21A23" d="M0.004 63.996L64 63.996 64 0 0.004 0z"/><path fill="#1A1919" d="M60.94 29.12c0 .134-.154.187-.34.187h-.157v-.368a1.72 1.72 0 0 1 .157-.007c.252 0 .34.094.34.188zm-.719-.299v1.088h.222v-.466h.153c.177 0 .267.049.299.19.03.14.061.241.096.276h.23a.788.788 0 0 1-.087-.268c-.028-.161-.111-.248-.232-.265v-.007c.15-.036.27-.124.27-.266a.24.24 0 0 0-.127-.223c-.083-.051-.222-.084-.432-.084a3.2 3.2 0 0 0-.392.025z"/><path fill="#1A1919" d="M61.36 29.346c0 .46-.346.827-.778.823-.437 0-.784-.362-.784-.83 0-.452.347-.822.78-.822h.004c.432 0 .779.37.779.829zm-.783-.98a.969.969 0 0 0-.966.974.965.965 0 1 0 1.927 0 .962.962 0 0 0-.956-.974h-.005z"/><path fill="#15A748" d="M6.697 24.956l43.145 24.91a2.304 2.304 0 0 0 3.152-.845l7.582-13.131a2.31 2.31 0 0 0-.845-3.152L16.585 7.828a2.304 2.304 0 0 0-3.151.844L5.852 21.803a2.31 2.31 0 0 0 .845 3.152"/><path fill="#1A1919" d="M15.435 6.133a3.69 3.69 0 0 0-3.2 1.847L4.653 21.111a3.692 3.692 0 0 0 1.352 5.043l43.145 24.91a3.69 3.69 0 0 0 5.043-1.351l7.582-13.131a3.692 3.692 0 0 0-1.352-5.043L17.278 6.629a3.675 3.675 0 0 0-1.843-.495zm0 1.385c.402 0 .8.107 1.15.31l43.146 24.91a2.31 2.31 0 0 1 .845 3.152L52.994 49.02a2.305 2.305 0 0 1-3.152.845L6.697 24.956a2.31 2.31 0 0 1-.845-3.152l7.582-13.132a2.317 2.317 0 0 1 2.001-1.154z"/><path fill="#79BB43" d="M54.095 42.193l1.118-1.937a8.76 8.76 0 0 1-2.33-8.63L20.972 13.202a8.801 8.801 0 0 1-6.252 2.632 8.642 8.642 0 0 1-2.386-.333l-1.118 1.936a8.76 8.76 0 0 1 2.33 8.63l31.912 18.425a8.801 8.801 0 0 1 6.251-2.633c.814 0 1.613.112 2.387.334"/><path fill="#1A1919" d="M15.433 8.903a.923.923 0 0 0-.8.461l-2.089 3.617a6.193 6.193 0 0 0 3.803.178 6.217 6.217 0 0 0 3.185-2.031l-3.639-2.101a.918.918 0 0 0-.46-.124zm.055 1.133l2.25 1.3c-.499.355-1.062.62-1.67.783a5.223 5.223 0 0 1-1.87.153l1.29-2.236zM9.14 18.88l-2.088 3.617a.923.923 0 0 0 .338 1.26l3.639 2.102a6.217 6.217 0 0 0 .167-3.774 6.216 6.216 0 0 0-2.056-3.205zm.212 1.786c.366.506.638 1.079.804 1.697.162.608.214 1.228.156 1.838l-2.25-1.3 1.29-2.235zM55.4 31.835a6.217 6.217 0 0 0-.167 3.775 6.217 6.217 0 0 0 2.056 3.204l2.088-3.616a.923.923 0 0 0-.338-1.261l-3.64-2.101zm.717 1.658l2.25 1.3-1.29 2.235a5.183 5.183 0 0 1-.804-1.697 5.187 5.187 0 0 1-.156-1.838zM51.71 44.318a6.29 6.29 0 0 0-1.63.216 6.217 6.217 0 0 0-3.185 2.032l3.639 2.1a.923.923 0 0 0 1.26-.338l2.089-3.616a6.195 6.195 0 0 0-2.173-.394zm0 1.077c.174 0 .347.01.52.027l-1.291 2.235-2.25-1.299c.499-.355 1.062-.62 1.67-.783.443-.12.898-.18 1.35-.18z"/><path fill="#1A1919" d="M20.745 11.828a7.652 7.652 0 0 1-8.9 2.365l-2.006 3.474a7.65 7.65 0 0 1 2.402 8.89l33.442 19.309a7.652 7.652 0 0 1 8.9-2.366l2.006-3.474a7.65 7.65 0 0 1-2.402-8.89L20.745 11.828zm.226 1.374l31.913 18.424a8.76 8.76 0 0 0 2.329 8.63l-1.118 1.937a8.642 8.642 0 0 0-2.387-.334c-2.35 0-4.624.97-6.251 2.633L13.544 26.067a8.76 8.76 0 0 0-2.329-8.63l1.118-1.937a8.642 8.642 0 0 0 2.386.334c2.35 0 4.625-.97 6.252-2.632z"/><path fill="#15A748" d="M36.166 23.754a5.895 5.895 0 0 0-2.942-.791 5.92 5.92 0 0 0-5.114 2.95 5.859 5.859 0 0 0-.59 4.475 5.859 5.859 0 0 0 2.748 3.581 5.895 5.895 0 0 0 2.943.792 5.92 5.92 0 0 0 5.114-2.95 5.905 5.905 0 0 0-2.159-8.057"/><path fill="#79BB43" d="M10.155 22.362a5.185 5.185 0 0 0-.804-1.697l-1.29 2.236 2.25 1.3c.058-.61.006-1.231-.156-1.839m5.333-12.326l-1.29 2.236a5.14 5.14 0 0 0 1.87-.153 5.186 5.186 0 0 0 1.67-.784l-2.25-1.299m40.785 25.295c.166.619.438 1.191.804 1.697l1.29-2.236-2.25-1.299c-.058.61-.006 1.23.156 1.838M48.69 46.358l2.25 1.3 1.291-2.236a5.12 5.12 0 0 0-1.87.153 5.188 5.188 0 0 0-1.67.783"/><path fill="#1A1919" d="M33.224 21.886a6.975 6.975 0 1 0 3.48.936 6.943 6.943 0 0 0-3.48-.936zm0 1.077c1.028 0 2.046.273 2.942.791a5.905 5.905 0 0 1 2.159 8.057 5.92 5.92 0 0 1-5.114 2.95 5.895 5.895 0 0 1-2.943-.792 5.86 5.86 0 0 1-2.748-3.58 5.859 5.859 0 0 1 .59-4.476 5.92 5.92 0 0 1 5.114-2.95z"/><path fill="#FFFFFE" d="M28.717 21.898L23.327 20.986 27.866 12.664 32.83 14.559 28.717 21.898"/><path fill="#FFFFFE" d="M36.958 25.098l-.212-1.327a.672.672 0 0 0-.547-.56l-3.718-.674 3.726-6.429 4.667 2.506-3.916 6.484"/><path fill="#FFFFFE" d="M41.798 31.839L38.635 29.434 44.167 20.559 48.206 23.533 41.798 31.839"/><path fill="#FFFFFE" d="M44.57 34.081L51.08 25.72 54.486 28.838 47.452 36.243 44.57 34.081"/><path fill="#1A1919" d="M28.717 21.898l-5.39-.912 4.54-8.322 4.963 1.895-4.113 7.34zm5.675-7.363c.098-.17.227-.658-.346-.962l-6.25-2.385a.677.677 0 0 0-.835.308l-5.276 9.676a.676.676 0 0 0-.015.619.67.67 0 0 0 .496.373l6.796 1.15a.685.685 0 0 0 .704-.334l4.726-8.445zm2.566 10.563l-.212-1.327a.672.672 0 0 0-.547-.56l-3.718-.674 3.726-6.429 4.667 2.506-3.916 6.484zm5.445-6.394c.094-.159.245-.59-.26-.945l-5.871-3.152a.68.68 0 0 0-.906.257l-4.54 7.829a.675.675 0 0 0 .464 1.004l4.197.76.42 2.682a.68.68 0 0 0 .67.572.68.68 0 0 0 .58-.327l5.246-8.68zm-.605 13.135l-3.163-2.405 5.532-8.875 4.039 2.974-6.408 8.306zm7.902-8.028c.109-.145.301-.591-.135-.958l-5.184-3.82c-.476-.303-.876.028-.975.19L37.16 29.24a.672.672 0 0 0 .165.896l4.19 3.188a.68.68 0 0 0 .946-.127l7.24-9.387z"/><g transform="translate(9.938 22.688)"><mask id="svgstore37222061dda91252178de9ef89144684d" fill="#fff"><use xlink:href="#svgstore37222061dda91252178de9ef89144684c"/></mask><path fill="#1A1919" d="M37.515 13.556l-2.882-2.163 6.51-8.36 3.406 3.118-7.034 7.405zm8.455-7.938l-4.453-4.076c-.445-.368-.877-.068-.991.082l-7.385 9.482a.676.676 0 0 0 .127.957L37.185 15a.674.674 0 0 0 .897-.076l7.923-8.342a.682.682 0 0 0-.035-.964z" mask="url(#svgstore37222061dda91252178de9ef89144684d)"/><path fill="#FFFFFE" d="M15.489 31.526l-.752 9.787H33.24l-.916-10.254a.682.682 0 0 1 .144-.482c1.827-2.304 2.795-3.526 3.324-4.182l-14.236-8.438a.71.71 0 0 1-.157-.129l-3.695-4.098-5.129-1.182a.675.675 0 0 1-.49-.445.674.674 0 0 1 .125-.652l.704-.838-.985-2.159a.674.674 0 1 1 .959-.863l3.194 1.883 7.768-3.516-.304-2.196L9.174 1.429 1.56 13.65l13.785 17.41a.685.685 0 0 1 .144.467" mask="url(#svgstore37222061dda91252178de9ef89144684d)"/><path fill="#1A1919" d="M14.12 31.694l-.737 9.619h1.354l.752-9.787a.685.685 0 0 0-.144-.467L1.56 13.65 9.174 1.43l14.372 2.333.304 2.196-7.768 3.516-3.194-1.883a.674.674 0 0 0-.959.863l.985 2.159-.704.838a.674.674 0 0 0-.125.652.675.675 0 0 0 .49.445l5.13 1.182 3.694 4.098c.046.05.1.095.157.129l14.236 8.438c-.529.656-1.497 1.878-3.324 4.182a.682.682 0 0 0-.144.482l.916 10.253h1.338l-.88-10.104 4.092-5.155-15.456-9.207-3.767-4.18a.673.673 0 0 0-.35-.208l-4.26-.982.27-.319a.68.68 0 0 0 .098-.717l-.27-.59 1.642.969c.19.113.42.127.621.034l8.55-3.871a.679.679 0 0 0 .392-.71l-.44-3.189a.678.678 0 0 0-.563-.576L8.947.021a.682.682 0 0 0-.685.31l-8.1 13.005a.672.672 0 0 0 .042.78l13.917 17.578" mask="url(#svgstore37222061dda91252178de9ef89144684d)"/></g></g></g></symbol><symbol viewBox="0 0 25 25" id="i--share-fb"><title>share-fb</title> <g id="svgstore01b556529565d8e333d0353b8ab39da1colored"> <rect x="0" y="0" width="25" height="25" fill="#35518b" rx="1.75" ry="1.75"/> <g> <path opacity="0.098" d="M 25 18.8596 L 0 18.8596 L 0 25 L 25 25 L 25 18.8596 Z" fill="#ffffff"/> <path d="M 17.9825 22.3684 L 13.5965 22.3684 L 13.5965 12.7193 L 11.4035 12.7193 L 11.4035 9.2105 L 13.5965 9.2105 L 13.5965 7.304 C 13.5965 4.5795 14.7272 3.0702 17.9387 3.0702 L 20.614 3.0702 L 20.614 6.5789 L 18.973 6.5789 C 17.7224 6.5789 17.9825 7.0459 17.9825 7.9167 L 17.9825 9.2105 L 21.0115 9.2105 L 20.622 12.7193 L 17.9825 12.7193 L 17.9825 22.3684 Z" fill="#1d305c"/> <path d="M 17.9825 22.3684 L 13.5965 22.3684 L 13.5965 12.7193 L 11.4035 12.7193 L 11.4035 9.2105 L 13.5965 9.2105 L 13.5965 7.5698 C 13.5965 4.8452 14.7271 3.0702 17.9387 3.0702 L 20.614 3.0702 L 20.614 6.5789 L 19.2388 6.5789 C 17.9881 6.5789 17.9825 7.046 17.9825 7.9168 L 17.9825 9.2105 L 21.0115 9.2105 L 20.3563 12.7193 L 17.9825 12.7193 L 17.9825 22.3684 Z" fill="#ffffff"/> </g> </g> </symbol><symbol viewBox="0 0 25 25" id="i--share-gplus"><title>share-gplus</title> <g id="svgstore8dff0c509a007c143e6769a0f96c5293colored"> <rect x="0" y="0" width="25" height="25" fill="#cc1a20" rx="1.75" ry="1.75"/> <g> <path d="M 3.2204 18.4414 C 2.6132 18.5575 2.1883 18.7155 1.5711 18.9137 C 1.0146 19.0923 0.4904 19.3235 0 19.6064 L 0 25 L 0.481 25 C 0.1854 24.4738 0.0374 23.8856 0.0374 23.2349 C 0.0374 22.6049 0.1597 22.0805 0.4042 21.6603 C 0.6494 21.2406 0.9343 20.8909 1.2612 20.6104 C 1.5876 20.3304 1.9201 20.115 2.2587 19.9632 C 2.5957 19.8113 2.8586 19.7006 3.0451 19.6312 C 3.4177 19.5142 3.8023 19.4153 4.1996 19.3337 C 4.5954 19.2518 4.9691 19.1933 5.3186 19.1583 C 5.668 19.1237 5.9712 19.0996 6.2278 19.0887 C 6.4836 19.0766 6.648 19.0708 6.7169 19.0708 C 6.9035 19.0708 7.0495 19.0708 7.1546 19.0708 C 7.2595 19.0708 7.382 19.0827 7.5215 19.1063 C 8.1742 19.5724 8.7452 19.9923 9.235 20.3655 C 9.7251 20.7388 10.121 21.1 10.4243 21.4505 C 10.7268 21.8 10.9545 22.1553 11.1063 22.5172 C 11.2575 22.879 11.3337 23.2813 11.3337 23.7242 C 11.3337 24.1834 11.256 24.6083 11.1026 25 L 12.9591 25 C 13.0019 24.9235 13.0433 24.8464 13.0824 24.7683 C 13.4783 23.974 13.677 23.1677 13.677 22.3505 C 13.677 21.7433 13.5951 21.2054 13.4319 20.7393 C 13.2688 20.2718 13.0533 19.8516 12.7852 19.4788 C 12.5171 19.1041 12.2021 18.753 11.8409 18.427 C 11.4792 18.1001 11.112 17.7729 10.7389 17.4453 L 9.4802 16.4651 C 9.2931 16.3015 9.0952 16.1081 8.8853 15.8862 C 8.6757 15.6648 8.5711 15.3556 8.5711 14.9583 C 8.5711 14.5612 8.6757 14.2339 8.8853 13.9765 C 9.0952 13.7204 9.3166 13.4751 9.5497 13.2408 C 9.923 12.9612 10.2846 12.6637 10.6343 12.3479 C 10.9843 12.033 11.299 11.6826 11.5789 11.2972 C 11.8578 10.9117 12.0798 10.4741 12.2434 9.9828 C 12.4053 9.4924 12.4879 8.9201 12.4879 8.2659 C 12.4879 7.613 12.3946 7.0287 12.2081 6.5147 C 12.021 6.0006 11.7999 5.5519 11.5437 5.1665 C 11.2871 4.7803 11.0187 4.426 10.7389 4.1568 C 10.4593 3.889 10.2142 3.6731 10.0043 3.5088 L 12.1728 3.5088 L 14.412 2.193 L 7.2067 2.193 C 6.2507 2.193 5.2194 2.3099 4.1113 2.5424 C 3.0039 2.7764 2.1362 3.4205 1.1341 4.2364 C 0.6896 4.6252 0.312 5.0455 0 5.4964 L 0 12.2319 C 0.1235 12.3954 0.2558 12.5532 0.3995 12.7035 C 0.8892 13.2166 1.3079 13.6303 2.031 13.9453 C 2.7536 14.2604 3.5816 14.4174 4.514 14.4174 C 4.7005 14.4174 4.8863 14.4123 5.0734 14.3999 C 5.2598 14.3888 5.4463 14.3714 5.6327 14.3478 C 5.5403 14.5578 5.4589 14.7618 5.3881 14.9604 C 5.3186 15.1586 5.283 15.4097 5.283 15.7122 C 5.283 16.2491 5.3936 16.6977 5.6155 17.0591 C 5.8369 17.4216 6.0754 17.7651 6.3323 18.092 C 5.9357 18.1149 5.4695 18.1498 4.9336 18.1962 C 4.3972 18.243 3.8261 18.3247 3.2204 18.4414 ZM 6.1577 13.4384 C 5.4116 13.4384 4.7641 13.222 4.2165 12.7888 C 3.6683 12.3558 3.2138 11.823 2.8527 11.1915 C 2.4906 10.5592 2.2234 9.8804 2.0487 9.1546 C 1.8735 8.4293 1.7858 7.7736 1.7858 7.1884 C 1.7858 6.7202 1.8388 6.2642 1.943 5.8196 C 2.0487 5.3747 2.2521 4.9649 2.5554 4.5898 C 2.8351 4.2388 3.1963 3.9583 3.6394 3.748 C 4.0821 3.5374 4.5366 3.4316 5.0035 3.4316 C 5.7261 3.4316 6.3616 3.648 6.9098 4.0813 C 7.4571 4.5136 7.9172 5.0584 8.291 5.7144 C 8.6639 6.3692 8.9437 7.0718 9.1308 7.8205 C 9.3166 8.5694 9.4103 9.2595 9.4103 9.8916 C 9.4103 10.2197 9.3633 10.6292 9.2702 11.1204 C 9.1769 11.6127 8.9326 12.0569 8.5359 12.4549 C 8.2555 12.736 7.9004 12.9695 7.4694 13.1576 C 7.0378 13.3447 6.6001 13.4384 6.1577 13.4384 Z" fill="#9e1418"/> <g> <path d="M 0.5693 25 C 0.2684 24.5617 0.0779 24.0769 0 23.5447 L 0 25 L 0.5693 25 Z" fill="#ffffff"/> <path d="M 0.9955 20.3446 C 1.3219 20.0647 1.6544 19.8492 1.993 19.6974 C 2.33 19.5455 2.593 19.4349 2.7794 19.3653 C 3.152 19.2484 3.5366 19.1495 3.9339 19.0679 C 4.3296 18.986 4.7035 18.9275 5.0529 18.8925 C 5.4023 18.8578 5.7056 18.8338 5.9622 18.8229 C 6.2178 18.8108 6.3823 18.8049 6.4512 18.8049 C 6.6377 18.8049 6.7838 18.8049 6.8889 18.8049 C 6.9938 18.8049 7.1164 18.8169 7.2558 18.8404 C 7.9085 19.3065 8.4796 19.7265 8.9693 20.0997 C 9.4594 20.473 9.8554 20.8342 10.1587 21.1847 C 10.4611 21.5342 10.6888 21.8895 10.8406 22.2514 C 10.9918 22.6132 11.068 23.0156 11.068 23.4584 C 11.068 24.0235 10.9509 24.5371 10.7186 25 L 12.5356 25 C 12.6377 24.838 12.7317 24.6723 12.8168 24.5025 C 13.2126 23.7082 13.4113 22.9019 13.4113 22.0848 C 13.4113 21.4775 13.3294 20.9397 13.1662 20.4735 C 13.0031 20.006 12.7876 19.5858 12.5195 19.213 C 12.2514 18.8383 11.9364 18.4872 11.5752 18.1612 C 11.2135 17.8344 10.8463 17.5071 10.4732 17.1796 L 9.2145 16.1993 C 9.0274 16.0357 8.8295 15.8423 8.6196 15.6204 C 8.4099 15.399 8.3054 15.0898 8.3054 14.6926 C 8.3054 14.2953 8.4099 13.9681 8.6196 13.7107 C 8.8295 13.4547 9.0509 13.2093 9.284 12.9749 C 9.6573 12.6954 10.019 12.3978 10.3686 12.0821 C 10.7186 11.7671 11.0334 11.4168 11.3132 11.0314 C 11.5921 10.646 11.8141 10.2082 11.9776 9.717 C 12.1397 9.2266 12.2222 8.6543 12.2222 8.0001 C 12.2222 7.3472 12.1288 6.763 11.9424 6.2489 C 11.7553 5.7347 11.5342 5.2861 11.278 4.9007 C 11.0214 4.5145 10.753 4.426 10.4732 4.1568 C 10.1937 3.889 9.9485 3.6731 9.7385 3.5088 L 11.9071 3.5088 L 14.1463 2.193 L 6.9411 2.193 C 5.985 2.193 4.9538 2.3099 3.8457 2.5424 C 2.7381 2.7764 1.8705 3.1547 0.8684 3.9707 C 0.5435 4.2548 0.2541 4.5557 0 4.8732 L 0 12.2906 C 0.0439 12.3401 0.0878 12.3896 0.1338 12.4376 C 0.6235 12.9509 1.0422 13.3645 1.7653 13.6795 C 2.4879 13.9947 3.3158 14.1515 4.2483 14.1515 C 4.4348 14.1515 4.6206 14.1465 4.8077 14.1341 C 4.9941 14.123 5.1805 14.1057 5.367 14.0819 C 5.2746 14.292 5.1932 14.4961 5.1224 14.6946 C 5.0529 14.8928 5.0173 15.1439 5.0173 15.4464 C 5.0173 15.9833 5.1279 16.4319 5.3499 16.7933 C 5.5712 17.1558 5.8097 17.4993 6.0667 17.8262 C 5.67 17.8491 5.2038 17.884 4.6679 17.9304 C 4.1315 17.9772 3.5604 18.0589 2.9547 18.1756 C 2.3474 18.2917 1.9226 18.4497 1.3055 18.6479 C 0.8482 18.7946 0.4128 18.9767 0 19.1938 L 0 22.3836 C 0.0539 22.007 0.1617 21.6767 0.3259 21.3945 C 0.5711 20.9748 0.6687 20.6251 0.9955 20.3446 ZM 5.892 13.1727 C 5.1459 13.1727 4.4984 12.9562 3.9508 12.523 C 3.4026 12.09 2.9481 11.5572 2.587 10.9257 C 2.2249 10.2935 1.9578 9.6145 1.7831 8.8888 C 1.6077 8.1635 1.5202 7.5078 1.5202 6.9226 C 1.5202 6.4544 1.5731 5.9984 1.6773 5.5538 C 1.7831 5.109 1.9864 4.6992 2.2896 4.3241 C 2.5694 3.973 2.9306 3.6925 3.3737 3.4822 C 3.8164 3.2716 4.2709 3.1658 4.7378 3.1658 C 5.4604 3.1658 6.0959 3.3822 6.6441 3.8154 C 7.1914 4.2478 7.6515 4.7926 8.0253 5.4486 C 8.3982 6.1034 8.678 6.806 8.8651 7.5547 C 9.0509 8.3036 9.1446 8.9936 9.1446 9.6257 C 9.1446 9.9539 9.0976 10.3633 9.0045 10.8546 C 8.9112 11.3469 8.6669 11.791 8.2702 12.1891 C 7.9898 12.4702 7.6347 12.7038 7.2037 12.8917 C 6.7721 13.0789 6.3345 13.1727 5.892 13.1727 Z" fill="#ffffff"/> </g> <path d="M 24.5614 6.5789 L 20.614 6.5789 L 20.614 2.6316 L 18.8596 2.6316 L 18.8596 6.5789 L 14.4737 6.5789 L 14.4737 8.7719 L 18.8596 8.7719 L 18.8596 12.7193 L 20.614 12.7193 L 20.614 8.7719 L 24.5614 8.7719 L 24.5614 6.5789 Z" fill="#9e1418"/> <path d="M 20.614 6.5789 L 20.614 2.193 L 18.8596 2.193 L 18.8596 6.5789 L 14.0351 6.5789 L 14.0351 8.3333 L 18.8596 8.3333 L 18.8596 12.7193 L 20.614 12.7193 L 20.614 8.3333 L 25 8.3333 L 25 6.5789 L 20.614 6.5789 Z" fill="#ffffff"/> </g> </g> </symbol><symbol viewBox="0 0 25 25" id="i--share-tw"><title>share-tw</title> <g id="svgstored43197aa46f089208163b8dc4fa5c6f1colored"> <rect x="0" y="0" width="25" height="25" fill="#00adee" rx="1.75" ry="1.75"/> <g> <path d="M 21.5859 7.3235 C 20.9467 7.6072 20.2599 7.7989 19.5388 7.8851 C 20.2746 7.4437 20.8396 6.7451 21.1058 5.9126 C 20.4172 6.321 19.6546 6.618 18.8428 6.7777 C 18.1927 6.0848 17.2664 5.652 16.2414 5.652 C 14.2733 5.652 12.6775 7.2481 12.6775 9.2171 C 12.6775 9.4965 12.709 9.7685 12.7699 10.0296 C 9.808 9.8808 7.182 8.4614 5.4242 6.3043 C 5.1174 6.8312 4.9416 7.4432 4.9416 8.097 C 4.9416 9.3338 5.5708 10.425 6.5272 11.0643 C 5.943 11.0459 5.3933 10.8856 4.9129 10.6185 C 4.9125 10.6333 4.9125 10.6484 4.9125 10.6634 C 4.9125 12.3907 6.141 13.8316 7.7714 14.1595 C 7.4723 14.2408 7.1575 14.2845 6.8324 14.2845 C 6.6027 14.2845 6.3796 14.2621 6.162 14.2204 C 6.6154 15.6368 7.9317 16.6678 9.491 16.6963 C 8.2713 17.6526 6.7348 18.2225 5.0649 18.2225 C 4.7774 18.2225 4.4936 18.2057 4.2149 18.1728 C 5.7919 19.1843 7.6654 19.7747 9.6779 19.7747 C 16.2331 19.7747 19.8177 14.3419 19.8177 9.6306 C 19.8177 9.476 19.8143 9.3223 19.8073 9.1692 C 20.5039 8.6665 21.108 8.0388 21.5859 7.3235 Z" fill="#005d81"/> <path d="M 21.3201 7.0046 C 20.681 7.2883 19.9942 7.48 19.2731 7.5661 C 20.0089 7.1248 20.5739 6.4262 20.8401 5.5937 C 20.1516 6.002 19.3889 6.299 18.5771 6.4588 C 17.927 5.7658 17.0007 5.333 15.9757 5.333 C 14.0076 5.333 12.4119 6.9292 12.4119 8.8982 C 12.4119 9.1776 12.4434 9.4496 12.5042 9.7106 C 9.5423 9.5618 6.9162 8.1424 5.1585 5.9854 C 4.8517 6.5121 4.6759 7.1242 4.6759 7.778 C 4.6759 9.0148 5.3051 10.106 6.2615 10.7455 C 5.6773 10.727 5.1277 10.5667 4.6472 10.2995 C 4.6468 10.3144 4.6468 10.3295 4.6468 10.3444 C 4.6468 12.0717 5.8752 13.5126 7.5057 13.8405 C 7.2066 13.9219 6.8918 13.9654 6.5667 13.9654 C 6.3371 13.9654 6.1139 13.9431 5.8963 13.9015 C 6.3497 15.3179 7.666 16.3487 9.2254 16.3773 C 8.0056 17.3336 6.4691 17.9035 4.7992 17.9035 C 4.5118 17.9035 4.2278 17.8867 3.9492 17.8539 C 5.5263 18.8653 7.3998 19.4557 9.4122 19.4557 C 15.9674 19.4557 19.5519 14.0229 19.5519 9.3116 C 19.5519 9.157 19.5486 9.0033 19.5417 8.8503 C 20.2382 8.3476 20.8423 7.7199 21.3201 7.0046 Z" fill="#ffffff"/> </g> </g> </symbol></svg>