<?xml version="1.0" standalone="no"?>
<!-- Generator: Adobe Fireworks 10, Export SVG Extension by Aaron Beall (http://fireworks.abeall.com) . Version: 0.6.1  -->
<!DOCTYPE svg PUBLIC "-//W3C//DTD SVG 1.1//EN" "http://www.w3.org/Graphics/SVG/1.1/DTD/svg11.dtd">
<svg id="Untitled-Page%201" viewBox="0 0 210 210" style="background-color:#ffffff00" version="1.1"
	xmlns="http://www.w3.org/2000/svg" xmlns:xlink="http://www.w3.org/1999/xlink" xml:space="preserve"
	x="0px" y="0px" width="210px" height="210px"
>
	<path id="base" d="M 105.0007 0 C 47.1034 0 0 47.1031 0 105 C 0 162.8969 47.1034 210 105.0007 210 C 162.8979 210 210 162.8969 210 105 C 210 47.1031 162.8979 0 105.0007 0 ZM 113.6025 39.4792 C 113.6996 39.2981 113.8033 39.1195 113.9333 38.9528 C 115.1895 37.3409 117.5168 37.0534 119.1248 38.3109 L 150.7362 62.9703 C 152.3481 64.2265 152.6343 66.5512 151.3781 68.1619 C 150.6483 69.0977 149.5601 69.5861 148.4587 69.5861 C 147.6633 69.5861 146.8613 69.3314 146.1865 68.8037 L 135.2757 60.2925 C 135.1077 69.0282 130.2076 76.484 124.2192 77.5512 C 118.1378 78.6355 112.3358 70.6677 111.1912 59.6559 C 110.1896 49.9869 110.7435 42.7503 113.6025 39.4792 ZM 85.782 77.5512 C 79.7951 76.4854 74.8975 69.0321 74.7269 60.2991 L 63.8174 68.8076 C 63.1414 69.3354 62.3394 69.5913 61.5425 69.5913 C 60.4399 69.5913 59.3491 69.1017 58.6193 68.1645 C 57.3604 66.5526 57.6492 64.2239 59.2625 62.9664 L 90.8647 38.3175 C 92.4766 37.06 94.8052 37.3461 96.0627 38.9607 C 96.1809 39.1116 96.2701 39.2731 96.3608 39.4346 C 99.2551 42.6847 99.817 49.9423 98.8102 59.6559 C 97.6682 70.6677 91.8662 78.6355 85.782 77.5512 ZM 152.7551 147.09 C 152.4177 147.1898 118.6982 157.372 99.9167 175.5955 C 99.1331 176.3556 98.121 176.7336 97.1089 176.7336 C 96.0575 176.7336 95.006 176.324 94.2145 175.5089 C 92.6643 173.9114 92.7024 171.3582 94.3012 169.8067 C 114.52 150.1891 149.0009 139.7917 150.4579 139.3586 C 152.5949 138.7272 154.8356 139.94 155.4709 142.0757 C 156.1063 144.2101 154.8895 146.4547 152.7551 147.09 Z" fill="#ffffff"/>
</svg>