<svg baseProfile="tiny" xmlns="http://www.w3.org/2000/svg" preserveAspectRatio="xMinYMin meet" viewBox="0 0 6006 66" width="6006" height="66"><path d="M12.5.198c-6.171 0-12.5 4.092-12.5 12.302s6.329 12.302 12.5 12.302 12.5-4.092 12.5-12.302-6.329-12.302-12.5-12.302zm.001 2.769c5.259 0 9.538 4.276 9.538 9.531 0 5.256-4.278 9.531-9.538 9.531-5.259 0-9.537-4.276-9.537-9.531 0-5.255 4.278-9.531 9.537-9.531zm9.148 10.142c.013-.202.023-.405.023-.611 0-.206-.009-.409-.023-.611h-1.457c.016.202.027.405.027.611 0 .206-.011.409-.027.611h1.457zm-2.795-4.982c.231.335.437.687.614 1.057l1.261-.728c-.181-.367-.385-.72-.612-1.057l-1.263.728zm-3.037-2.591c.37.177.723.383 1.057.613l.73-1.262c-.338-.227-.692-.431-1.059-.612l-.728 1.26zm-3.585 7.963l3.812-2.199-.734-1.27-2.542 1.466-2.568-4.445-1.271.733 3.302 5.714zm-.343-8.686c.202-.016.405-.027.611-.027.206 0 .409.011.612.027v-1.456c-.203-.013-.406-.023-.612-.023-.206 0-.409.009-.611.023v1.457zm-4.492.074l.729 1.262c.335-.231.688-.437 1.058-.613l-.728-1.26c-.367.181-.721.385-1.058.612zm1.787 14.573c-.37-.177-.723-.383-1.058-.613l-.729 1.262c.337.226.691.43 1.058.611l.729-1.26zm-4.912-11.004l1.261.728c.177-.37.383-.722.614-1.057l-1.263-.728c-.227.337-.431.691-.612 1.057zm.511 4.042c0-.206.011-.409.026-.611h-1.458c-.014.203-.023.405-.023.611 0 .206.009.409.023.611h1.458c-.016-.202-.026-.405-.026-.611zm1.364 4.371c-.231-.334-.437-.687-.614-1.056l-1.261.728c.181.367.385.72.612 1.057l1.263-.729zm6.965 3.314c-.202.017-.405.027-.612.027-.206 0-.409-.011-.611-.027v1.457c.202.014.406.023.611.023.206 0 .409-.009.612-.023v-1.457zm4.491-.074l-.729-1.262c-.334.231-.688.436-1.057.613l.728 1.26c.367-.181.721-.384 1.058-.611zm3.125-3.569l-1.261-.728c-.177.369-.383.722-.614 1.056l1.263.729c.227-.337.431-.691.612-1.057z" fill="#fff"/><g transform="translate(66)"><path d="M10 3v7h-7v5h7v7h5v-7h7v-5h-7v-7h-5z" fill="#fff"/></g><g transform="translate(132)"><g fill="#fff"><path d="M4.905 5.804l-.905 1.033v18.164h8.718v-11.631l-3.904-7.565h-3.91zm5.608 8.734l-.391 1.131c-.299-.135-.846-.418-1.693-.418-.871 0-1.182.442-1.182.86 0 .504.448.787 1.506 1.204 1.394.517 2.146 1.18 2.146 2.274 0 1.044-.734 1.966-2.103 2.188v1.437h-.872v-1.192c-.784-.025-1.296-.417-1.744-.712v-1.155c.485.283 1.182.541 1.941.541.784 0 1.104-.381 1.104-.971 0-.553-.435-.909-1.356-1.242-1.307-.467-1.949-1.057-1.949-2.2 0-1.057.746-1.868 2.003-2.089v-.801h.872v.85c.784.024 1.319.099 1.717.295zM15.798 4.126c1.098 0 1.988-.924 1.988-2.063 0-1.139-.89-2.063-1.988-2.063-1.098 0-1.988.924-1.988 2.063 0 1.139.89 2.063 1.988 2.063zM19.24 5.439c-.241-.866-1.113-1.368-1.948-1.115-.616.184-1.037.726-1.119 1.345-.781 1.672-1.445 3.056-1.787 3.227-.711.358-1.487.733-1.489.734-.46.222-.659.789-.445 1.266.156.346.487.55.833.55.13 0 .262-.029.387-.089 0 0 .791-.382 1.515-.746.607-.305.712-.906 1.306-2.055l1.02 3.665v11.147c0 .902.705 1.633 1.574 1.633.869 0 1.914-.731 1.914-1.633v-11.61l-1.76-6.319z"/></g></g><g transform="translate(198)"><path d="M25 6.25l-8.909 6.25v-3.572c-1.545-.063-14.254-1.786-16.036 3.572 0 0-1.853-9.651 16.036-8.928v-3.572l8.909 6.25zm-16.091 9.822c1.545.063 14.254 1.786 16.036-3.572 0 0 1.853 9.651-16.036 8.928v3.572l-8.909-6.25 8.909-6.25v3.572z" fill="#fff"/></g><g transform="translate(264)"><path d="M6.312 10.988c0-1.066.883-1.931 1.972-1.931 1.09 0 1.973.864 1.973 1.931 0 1.066-.883 1.931-1.973 1.931-1.089 0-1.972-.864-1.972-1.931zm5.281-3.662c-.958.426-1.61-.981-.652-1.406 1.736-.771 4.486-1.118 6.413-.216.949.444.268 1.838-.681 1.393-1.367-.64-3.604-.427-5.08.229zm-8.437 2.504l-3.156.772v5.406s3.647 2.263 6.204 2.588c0 1.555.263 2.833.897 4.363h3.156s.833-.853 1.096-2.395c.798.349 4.75.594 6.005.078.281 1.184.452 1.853.789 2.317.915.093 3.156 0 3.156 0s1.059-2.748.717-4.363c1.309-1.169 3.198-3.35 2.959-6.683-.284-3.954-3.812-8.02-9.615-8.187-3.754-.108-5.69 1.281-5.69 1.281l-3.357-3.007-.005 4.74-3.156 3.089z" fill="#fff"/></g><g transform="translate(330)"><g fill="#e00000"><path d="M1.331 17.661c.547.398 1.246.634 2.098.718v1.621h1.054v-1.621c.812-.095 1.489-.303 2.018-.634.417-.269.744-.645.981-1.127.231-.482.349-1.01.349-1.593 0-.841-.259-1.52-.778-2.025-.519-.505-1.376-.925-2.571-1.262v-3.13c.389.056.688.23.896.533.209.303.316.695.316 1.167h1.985c0-.97-.288-1.75-.863-2.345-.575-.589-1.353-.886-2.334-.886v-1.077h-1.054v1.032c-1.004.095-1.787.409-2.34.948-.553.538-.829 1.245-.829 2.115 0 1.722 1.054 2.827 3.169 3.309v3.326c-.88-.157-1.348-.791-1.398-1.907h-2.03v.14c0 1.167.44 2.064 1.331 2.698zm2.098-9.053v2.821c-.84-.269-1.257-.729-1.257-1.385 0-.791.417-1.268 1.257-1.436zm1.054 5.059c.868.269 1.302.785 1.302 1.548 0 .791-.434 1.296-1.302 1.514v-3.063zM16.261 18.205v-1.772h-4.657c.135-.303.333-.583.603-.853.271-.264.812-.701 1.635-1.318.947-.735 1.596-1.374 1.945-1.913.344-.538.519-1.2.519-1.98 0-1.111-.338-1.997-1.015-2.659-.677-.662-1.596-.993-2.751-.993-1.139 0-2.03.337-2.667 1.004s-.953 1.598-.953 2.799l.017.398h2.08v-.376c0-.645.135-1.15.412-1.509.271-.359.66-.544 1.156-.544.485 0 .863.163 1.139.488.271.325.412.768.412 1.329 0 .628-.169 1.144-.496 1.559-.333.415-1.105 1.066-2.312 1.941-.936.651-1.579 1.29-1.934 1.907-.361.623-.564 1.453-.609 2.49h7.476zM17.512 14.262c.056.527.163 1.049.333 1.559.164.516.383.937.66 1.273.271.337.637.606 1.094.808.451.202.992.303 1.612.303.586 0 1.105-.09 1.545-.275.44-.179.829-.482 1.178-.909.344-.421.609-1.01.789-1.761.18-.752.276-1.66.276-2.726 0-.69-.028-1.301-.079-1.829-.056-.527-.163-1.049-.327-1.57-.169-.522-.383-.948-.654-1.284-.271-.337-.632-.606-1.094-.819-.462-.208-1.004-.314-1.635-.314-.609 0-1.145.101-1.596.297-.457.202-.823.466-1.094.802-.276.337-.502.757-.671 1.262-.169.505-.282 1.027-.338 1.559-.056.533-.085 1.144-.085 1.829 0 .673.028 1.268.085 1.795zm2.763-5.452c.22-.213.53-.32.936-.32.395 0 .694.09.908.269.214.179.383.572.513 1.178s.197 1.47.197 2.603c0 1.054-.062 1.862-.175 2.429-.113.566-.282.954-.502 1.155-.226.208-.536.309-.942.309-.395 0-.699-.09-.913-.275-.22-.185-.389-.567-.513-1.144-.124-.578-.186-1.413-.186-2.502 0-1.088.056-1.93.169-2.513.113-.583.282-.976.507-1.189z"/></g></g><g transform="translate(396)"><g fill="#1e90ff"><path d="M.988 16.329c.406.285.925.453 1.558.513v1.158h.783v-1.158c.603-.068 1.106-.216 1.499-.453.31-.192.553-.461.729-.805.172-.345.26-.721.26-1.138 0-.601-.193-1.086-.578-1.446-.385-.361-1.022-.661-1.91-.901v-2.236c.289.04.511.164.666.381.155.216.234.497.234.833h1.474c0-.693-.213-1.25-.641-1.675-.427-.421-1.005-.633-1.734-.633v-.769h-.783v.737c-.745.068-1.328.292-1.738.677-.41.385-.616.889-.616 1.51 0 1.23.783 2.019 2.353 2.364v2.376c-.653-.112-1.001-.565-1.039-1.362h-1.508v.1c0 .833.327 1.474.988 1.927zm1.558-6.466v2.015c-.624-.192-.934-.521-.934-.99 0-.565.31-.905.934-1.026zm.783 3.614c.645.192.967.561.967 1.106 0 .565-.322.925-.967 1.082v-2.188zM12.077 16.718v-1.266h-3.459c.101-.216.247-.417.448-.609.201-.188.603-.501 1.214-.941.704-.525 1.185-.982 1.445-1.366.255-.385.385-.857.385-1.414 0-.793-.251-1.426-.754-1.899-.502-.473-1.185-.709-2.044-.709-.846 0-1.508.24-1.981.717-.473.477-.708 1.142-.708 1.999l.013.284h1.545v-.268c0-.461.1-.821.306-1.078.201-.256.49-.389.858-.389.36 0 .641.116.846.349.201.232.306.549.306.95 0 .449-.126.817-.369 1.114-.247.296-.821.761-1.717 1.386-.695.465-1.173.921-1.436 1.362-.268.445-.419 1.038-.452 1.779h5.553zM13.007 13.901c.042.377.121.749.247 1.114.121.369.285.669.49.909.201.24.473.433.812.577.335.144.737.216 1.198.216.435 0 .821-.064 1.147-.196.327-.128.616-.345.875-.649.255-.3.452-.721.586-1.258.134-.537.205-1.186.205-1.947 0-.493-.021-.93-.059-1.306-.042-.377-.121-.749-.243-1.122-.126-.373-.285-.677-.486-.917s-.469-.433-.812-.585c-.343-.148-.745-.224-1.214-.224-.452 0-.85.072-1.185.212-.339.144-.611.333-.812.573-.205.24-.373.541-.498.901-.126.361-.209.733-.251 1.114-.042.381-.063.817-.063 1.306 0 .481.021.905.063 1.282zm2.052-3.894c.163-.152.394-.228.695-.228.293 0 .515.064.674.192.159.128.285.409.381.841.096.433.147 1.05.147 1.859 0 .753-.046 1.33-.13 1.735s-.209.681-.373.825c-.168.148-.398.22-.699.22-.293 0-.519-.064-.678-.196-.163-.132-.289-.405-.381-.817-.092-.413-.138-1.01-.138-1.787 0-.777.042-1.378.126-1.795.084-.417.209-.697.377-.849zM19.439 13.901c.042.377.121.749.247 1.114.122.369.285.669.49.909.201.24.473.433.812.577.335.144.737.216 1.198.216.436 0 .821-.064 1.147-.196.327-.128.616-.345.875-.649.255-.3.452-.721.586-1.258.134-.537.205-1.186.205-1.947 0-.493-.021-.93-.059-1.306-.042-.377-.122-.749-.243-1.122-.126-.373-.285-.677-.486-.917s-.469-.433-.812-.585c-.343-.148-.745-.224-1.214-.224-.452 0-.85.072-1.185.212-.339.144-.611.333-.812.573-.205.24-.373.541-.498.901-.126.361-.209.733-.251 1.114-.042.381-.063.817-.063 1.306 0 .481.021.905.063 1.282zm2.052-3.894c.163-.152.394-.228.695-.228.293 0 .515.064.674.192.159.128.285.409.381.841.096.433.147 1.05.147 1.859 0 .753-.046 1.33-.13 1.735s-.209.681-.373.825c-.168.148-.398.22-.699.22-.293 0-.519-.064-.678-.196-.163-.132-.289-.405-.381-.817-.092-.413-.138-1.01-.138-1.787 0-.777.042-1.378.126-1.795.084-.417.209-.697.377-.849z"/></g></g><g transform="translate(462)"><path d="M6.757 15.56v1.36h4.73v-1.36h-4.73zm-.676 2.04v1.36h4.73v-1.36h-4.73zm0 2.04v1.36h4.73v-1.36h-4.73zm-6.081 0v1.36h4.73v-1.36h-4.73zm0-2.04v1.36h4.73v-1.36h-4.73zm.676-2.04v1.36h4.73v-1.36h-4.73zm-.676-2.04v1.36h4.73v-1.36h-4.73zm1.351-4.08v1.36h4.73v-1.36h-4.73zm0 2.04v1.36h4.73v-1.36h-4.73zm16.41 8.273l-3.804-4.222 1.242-1.346 2.419 1.549 5.032-4.145 1.385 1.538-6.274 6.626zm-7.627-15.753v10.88h2.027v2.72h-.676v3.4h13.514v-12.92l-4.054-4.08h-10.811zm10.135.68l4.054 4.08h-4.054v-4.08zm-8.108 1.36h6.081v.68h-6.081v-.68zm0 2.04h6.081v.68h-6.081v-.68zm0 2.04h8.108v.68h-8.108v-.68zm0 2.04h6.081v.68h-6.081v-.68z" fill="#fff"/></g><g transform="translate(528)"><path d="M20.662 15.757c-1.843 0-3.338 1.493-3.338 3.335 0 1.842 1.495 3.335 3.338 3.335 1.844 0 3.338-1.493 3.338-3.335 0-1.841-1.494-3.335-3.338-3.335zm-.307 4.854l-1.498-1.464.724-.635.803.85 1.653-1.651.646.635-2.327 2.266zm-8.139-3.263v1.02h3.985c.081-.418 0-.689 0-1.02h-3.985zm0 2.551v1.021h4.082c-.164-.369.056-.606 0-1.021h-4.082zm5.619-4.098v-1.004h-5.619v1.021h5.263l.355-.016zm1.648 7.669h-15.95v-14.796h7.151v-7.143h9.194v13.265h1.532v-14.796h-12.082l-7.328 7.233v17.767h19.41v-1.53h-1.927zm-11.353-2.551v-1.181c1.332-.231 2.203-.94 2.203-1.97 0-1.042-.556-1.678-1.935-2.164-.985-.37-1.391-.614-1.391-.995 0-.324.234-.649.987-.649.835 0 1.368.267 1.668.394v-1.307c-.381-.186-.903-.347-1.679-.382l.147-.928h-1.022v1.1c-1.24.243-1.958.951-1.958 1.969 0 1.123.93 1.702 2.17 2.119.858.29 1.228.567 1.228 1.007 0 .463-.451.718-1.112.718-.754 0-1.437-.243-1.924-.509l-.375 1.354c.442.255 1.194.463 1.971.498v.929h1.022zm9.705-15.816h-5.619v1.02h5.619v-1.02zm0 7.143h-5.619v1.02h5.619v-1.02zm0-4.592h-5.619v1.02h5.619v-1.02z" fill="#fff"/></g><g transform="translate(594)"><path d="M10.449 13.618l9.635-7.527 1.796 1.812-10.213 10.497-.999 1.028-.96-1.062-5.439-6.016 1.774-1.819 4.407 3.087zm2.051-13.618c-6.904 0-12.5 5.596-12.5 12.5s5.596 12.5 12.5 12.5 12.5-5.596 12.5-12.5-5.596-12.5-12.5-12.5z" fill="#fff"/></g><g transform="translate(660)"><path d="M12.7 15.836c-.48.102-1.006.57-2.115 1.582-1.249-.595-2.958-2.185-3.764-3.122-.872-1.012-1.959-2.718-2.351-3.993 1.263-1.155 1.79-1.657 1.824-2.215.018-.3-.585-4.024-1.22-4.403l-.191-.124c-.404-.268-1.015-.675-1.693-.532-.165.035-.324.102-.474.198-.457.296-1.571 1.095-2.079 2.138-.314.65-.457 6.581 3.851 11.593 4.257 4.957 9.507 5.172 10.295 5.005l.022-.004.069-.02c1.064-.394 1.967-1.441 2.307-1.874.625-.797.178-1.747-.062-2.257l-.096-.213c-.286-.695-3.799-1.76-4.089-1.778l-.235.018zm7.3-6.861v2.087c-2.489.019-3.061-.198-4.062-1.006 0 2.117.915 3.902 4.062 3.902v2.07l4.541-3.599-4.541-3.453zm-6 1.053v-2.087c2.489-.019 3.061.198 4.061 1.006 0-2.117-.914-3.902-4.061-3.902v-2.07l-5.48 3.599 5.48 3.453z" fill="#fff"/></g><g transform="translate(726)"><g fill="#fff"><path d="M13.405 13.406l-2.155-3.504-.239 3 2.393.504zm-1.93-6.324l4.308 6.824 1.632.345-5.785-9.116-.155 1.948zm3.324-2.158h.134l-.014.183-.12-.183zm-.975-1.485c.483-1.05 1.122-1.751 1.789-2.138-.133.349-.222.696-.28.933-.148.61-.271 1.355-.359 2.234h-.475l-.676-1.029zm-.935-1.426c.354-.219.727-.406 1.113-.559-.277.317-.532.684-.759 1.1l-.354-.541zm8.8 12.788c1.939-1.321 3.311-3.551 3.311-6.683 0-5.395-4.072-8.114-8.101-8.118l-.037.001c-1.535.005-3.053.389-4.368 1.18l-.587 1.04 8.195 12.71 1.633-.101-.045-.029zm-1.133-1.107c.368-.671.665-1.467.873-2.382h2.014c-.561 1.272-1.459 2.242-2.535 2.909l-.014-.012-.338-.515zm-1.563-2.382h1.491c-.138.561-.312 1.058-.512 1.494l-.979-1.494zm-2.097-3.194h1.16c-.003.318-.014.938-.051 1.688l-1.109-1.688zm1.157-.456h-1.456l-.826-1.259c.021-.53.051-1.023.09-1.478h2.063c.094 1.111.122 2.164.13 2.738zm-1.819-5.216c.079-.328.326-1.259.651-1.516.547.429.841 1.984.997 3.538h-1.977c.085-.804.198-1.477.33-2.022zm4.599 5.672c0 1.032-.09 1.942-.248 2.738h-1.701c.082-1.155.096-2.193.097-2.738h1.852zm-.35-3.194c.193.785.315 1.695.343 2.738h-1.845c-.003-.539-.02-1.586-.116-2.738h1.618zm-2.303-3.627c.867.499 1.686 1.527 2.178 3.171h-1.535c-.114-1.131-.31-2.309-.644-3.171zm5.894 6.821c0 1.021-.161 1.934-.449 2.738h-2.102c.154-.827.236-1.741.236-2.738h2.315zm-.632-3.194c.351.794.57 1.707.62 2.738h-2.31c-.027-1.003-.14-1.918-.326-2.738h2.016zm-3.63-3.459c1.411.566 2.637 1.566 3.407 3.002h-1.907c-.341-1.256-.862-2.265-1.5-3.002z"/><path d="M14.848 18.052c1.117-.008 4.216 1.696 4.538 2.101.646.815.675 1.842.163 2.658-.857 1.366-2.687 2.185-3.426 2.189-1.896.01-7.113-.829-11.449-5.704-5.048-5.67-4.881-12.38-4.513-13.116.595-1.18 1.9-2.086 2.437-2.419.561-.349 1.536-.337 1.901-.023 1.366 1.173 2.402 3.33 2.291 5.522-.031.609-.674 1.298-2.137 2.506.459 1.442 1.733 3.373 2.755 4.518.944 1.061 2.947 2.859 4.41 3.533.606-.534 1.982-1.758 3.03-1.765z"/></g></g><g transform="translate(792)"><path d="M10.519 18.064l.119.253c.105.331.499 4.713-.098 5.339l-.179.201c-.425.493-1.216 1.411-2.307 1.068-.592-.186-2.059-.728-2.919-1.738l-.051-.068-.014-.022c-.508-.804-2.52-6.744.793-13.676 3.347-7.014 9.54-9.48 10.346-9.419 1.295.103 2.595.991 3.095 1.368.163.124.3.271.407.44.436.691.277 1.552.171 2.12l-.047.267c-.121.874-3.715 3.194-4.033 3.307-.591.21-1.334-.155-3.066-1.049-1.151 1-2.453 2.966-3.128 4.385-.627 1.312-1.542 3.918-1.626 5.572 1.519.786 2.227 1.165 2.536 1.654z" fill="#fff"/></g><g transform="translate(858)"><g fill="#fff"><path d="M17.459 1.425l-1.053-1.053c-.497-.496-1.309-.496-1.805.001l-14.228 14.228c-.497.497-.497 1.309 0 1.805l1.053 1.053 16.033-16.034zM24.628 8.594l-5.578-5.578-16.034 16.033 5.578 5.579c.497.496 1.309.496 1.805 0l14.228-14.228c.496-.496.496-1.309 0-1.805z"/></g></g><g transform="translate(924)"><g fill="#fff"><path d="M16.338 10.559c-1.527-1.526-3.56.2-3.813.452l-.304.305-.763-.763.178-.179c.074-.074.575-.364.787-.422.339-.088 1.265.177 1.805-.362.287-.288.154-.813-.077-1.044-.749-.749-1.8-.329-1.919-.265-.481.242-1.365 1.142-1.513 1.29l-.087.087-.21-.21-.106-.063-.923.922.038.117.168.168-.274.274-.248.248c-.505.505-1.738 1.961-.331 3.368 1.547 1.547 3.752-.391 4.117-.757l.728.729c-.046.059-.42.364-.606.508-.227.156-.688.183-1.037.181-.439.005-.86-.007-1.283.415-.252.252-.108.78.173 1.06.966.966 2.199.18 3.335-.955l.257-.257.182.182.093.006.897-.897-.015-.084-.168-.168.224-.168.338-.323.341-.355c.692-.693.911-2.144.015-3.04zm-5.201 1.771c-.113.113-.577.493-.934.136-.287-.287-.027-.645.055-.728l.309-.309.735.735-.165.166zm3.51 1.081l-.165.165-.77-.77.148-.148c.078-.078.614-.543.992-.165.302.302-.004.719-.205.918zM15.331 0l-15.331 15.331 9.669 9.669 15.331-15.331-9.669-9.669zm-13.507 15.331l13.507-13.506 7.845 7.845-13.507 13.506-7.845-7.845z"/></g></g><g transform="translate(990)"><path d="M8 7h9c1.105 0 2 .895 2 2v4c0 1.105-.895 2-2 2h-.7l-6.32 5.132 2.645-5.132h-4.625c-1.104 0-2-.895-2-2v-4c0-1.105.896-2 2-2zm4.493-6.999c-6.902 0-12.5 5.596-12.5 12.499 0 6.903 5.598 12.5 12.5 12.5 6.903 0 12.499-5.596 12.499-12.5 0-6.903-5.596-12.499-12.499-12.499z" fill="#fff"/></g><g transform="translate(1056)"><path d="M6.674 8l.826-2.348.826 2.348h2.674l-2.164 1.652.828 2.348-2.164-1.653-2.164 1.653.828-2.348-2.164-1.652h2.674zm-6.674 4.5c0 .508.031 1.008.09 1.5h24.82c.059-.492.09-.992.09-1.5v-.5h-12v-2h11.75c-.14-.689-.337-1.357-.585-2h-11.165v-2h10.18c-2.195-3.598-6.157-6-10.68-6-6.904 0-12.5 5.596-12.5 12.5zm23.73 5.5c.313-.638.573-1.306.775-2h-24.005c.202.694.462 1.362.775 2h22.455zm-21.23 2c2.279 3.036 5.91 5 10 5s7.724-1.964 10.005-5h-20.005z" fill="#fff"/></g><g transform="translate(1122)"><path d="M24.873 15.971c0-3.481-3.141-6.303-7.015-6.303-3.875 0-7.016 2.822-7.016 6.303s3.141 6.303 7.016 6.303c.645 0 1.27-.079 1.864-.226 1.755.674 4.212 1.705 5.278 2.561 0 0-1.332-2.41-2.101-4.255 1.223-1.134 1.974-2.679 1.974-4.383zm-24.649-5.424c0 2.851 1.327 5.437 3.486 7.334-1.358 3.086-3.71 7.119-3.71 7.119 1.883-1.433 6.221-3.158 9.32-4.285.419.098.848.177 1.283.237-.966-1.338-1.531-2.952-1.531-4.693 0-4.611 3.962-8.349 8.849-8.349 2.88 0 5.436 1.299 7.052 3.309.016-.222.027-.447.027-.672 0-5.825-5.546-10.546-12.388-10.546s-12.388 4.722-12.388 10.546z" fill="#fff"/></g><g transform="translate(1188)"><path stroke="#449FDB" d="M0 0"/><path d="M13.5 2l-7.5 7.5-3.5-3.5-2.5 2.5 6 6 10-10z" fill="#fff"/></g><g transform="translate(1254)"><path d="M4.234 7.764l4.236 4.236-4.235 4.235 3.529 3.529 4.236-4.235 4.235 4.234 3.529-3.529-4.234-4.235 4.234-4.235-3.529-3.529-4.235 4.235-4.236-4.235-3.529 3.529z" fill="#fff"/></g><g transform="translate(1320)"><path stroke="#449FDB" d="M0 0"/><path d="M15.854 12.854l-4.854-4.854 4.854-4.854.114-.178c.066-.178.028-.386-.114-.529l-2.293-2.293c-.143-.143-.351-.181-.529-.114l-.178.114-4.854 4.854-4.854-4.854-.178-.114c-.178-.066-.386-.029-.529.114l-2.293 2.293c-.143.143-.181.351-.114.529l.114.178 4.854 4.854-4.854 4.854-.114.178c-.066.178-.029.386.114.529l2.293 2.293c.143.143.351.181.529.114l.178-.114 4.854-4.854 4.854 4.854.178.114c.178.066.386.029.529-.114l2.293-2.293c.143-.143.181-.351.114-.529l-.114-.178z" fill="#fff"/></g><g transform="translate(1386)"><path d="M11 16h-4v-1h1v-1h1v-1h1v-1h1v-1h1v-1h1v1h1v1h1v1h1v1h1v1h1v1h-4v4h-3v-4zm0-8v-3h3v3h-3zm1.5-8c-6.904 0-12.5 5.596-12.5 12.5s5.596 12.5 12.5 12.5 12.5-5.596 12.5-12.5-5.596-12.5-12.5-12.5z" fill="#fff"/></g><g transform="translate(1452)"><path d="M15.705 10.395l6.493 6.101h-11.74v1.748h11.74l-6.493 6.101.693.654h1.195l7.408-6.993v-1.273l-7.408-6.993h-1.195l-.693.654zm-6.41-8.741l-.693-.654h-1.195l-7.408 6.993v1.273l7.408 6.993h1.195l.693-.654-6.493-6.101h11.739v-1.748h-11.739l6.493-6.101z" fill="#fff"/></g><g transform="translate(1518)"><g fill="#fff"><path d="M14.5 5.882h-7.5v1.961h7.5v-1.961zM7 19.118h11v-8.823h-11v8.823zm6-6.863h3v1.961h-3v-1.961zm0 2.941h3v1.961h-3v-1.961zm-4-2.941h3v1.961h-3v-1.961zm0 2.941h3v1.961h-3v-1.961zM16.186 0h-15.186v25h23v-18.347l-7.814-6.653zm4.814 22.059h-17v-19.118h10.184l6.816 5.557v13.56z"/></g></g><g transform="translate(1584)"><g fill="#fff"><path d="M21.51 20.546c-.262-.404-.811-.524-1.227-.271-1.817 1.112-3.919 1.699-6.077 1.699-6.301 0-11.427-4.98-11.427-11.101 0-3.754 1.931-7.226 5.166-9.288.41-.261.525-.797.255-1.196-.27-.399-.821-.51-1.232-.248-3.738 2.382-5.968 6.394-5.968 10.732 0 5.721 3.876 10.578 9.21 12.227-1.509.418-2.596 1.1-2.909 1.899h12.708c-.276-.702-1.151-1.314-2.381-1.736 1.267-.329 2.482-.84 3.603-1.526.415-.255.54-.788.279-1.192zM13.917 1.138c-5.568 0-10.083 4.385-10.083 9.795s4.515 9.795 10.083 9.795c5.568 0 10.083-4.385 10.083-9.795s-4.515-9.795-10.083-9.795zm4.264 12.807c0 .154-.055.394-.123.533l-.736 1.509c-.068.139-.219.338-.334.444l-2.397 2.174c-.115.105-.08.191.078.191h.274c.158 0 .288.11.288.245s-.13.246-.288.246h-1.178c-.158 0-.288-.127-.288-.281v-2.977c0-.155.129-.28.288-.28h.328c.159 0 .288-.126.288-.28v-.318c0-.154-.13-.28-.288-.28h-.328c-.158 0-.288-.126-.288-.28v-1.745c0-.153-.13-.28-.289-.28h-.488c-.158 0-.394-.073-.523-.162l-1.55-1.065c-.13-.088-.302-.27-.382-.403l-.725-1.196c-.08-.133-.276-.241-.434-.241h-.346c-.159 0-.344-.113-.413-.252l-.841-1.691c-.068-.138-.125-.378-.125-.532v-.964c0-.154-.124-.243-.275-.198l-.338.101c1.463-1.986 3.777-3.34 6.421-3.557v1.163c0 .153.106.352.236.44l.54.369c.13.088.365.161.524.161h.427c.159 0 .288.102.288.226 0 .124-.089.317-.198.429l-.615.63c-.11.111-.069.203.09.203l.41.001c.158 0 .288.126.288.28l-.002 1.005c0 .154.13.28.287.28h.463c.158 0 .288.095.288.213 0 .117-.13.212-.288.212h-1.421c-.158 0-.391.077-.517.17l-.582.431c-.126.093-.229.295-.229.449v1.672c0 .154-.129.28-.288.28h-.08c-.158 0-.288-.126-.288-.28v-.963c0-.154-.129-.28-.288-.28h-.777c-.158 0-.288.126-.289.28l-.004.777c-.001.154.1.358.224.455l1.147.894c.123.097.354.175.512.176l1.915.001c.159 0 .403.059.543.13l2.441 1.239c.14.071.255.255.255.41v.085h.001zm-.74-8.385c-.128.091-.362.166-.52.166h-.124c-.158 0-.288-.126-.288-.28v-.91c0-.154-.129-.28-.287-.28h-.417c-.158 0-.288-.126-.288-.28v-1.459c1.379.247 2.648.804 3.722 1.597-.037.12-1.797 1.445-1.797 1.445z"/></g></g><g transform="translate(1650)"><g fill="#fff"><path d="M9.314 14.325l-5.002.006c-.756-.438-1.429-1.015-1.971-1.728l6.958-.006v-1.916l-7.963.003c-.176-.531-.296-1.105-.35-1.726l8.321.003-.007-1.923h-2.038v-1.727l2.053-.008.08-1.032c0-.295.085-.639.211-.883l-2.344.004v-1.727l4.411.001c.453.202.884.448 1.284.738h1.48c-1.603-1.605-3.868-2.404-6.103-2.404-4.117 0-8.333 2.709-8.333 8.173s4.217 8.173 8.333 8.173c.163 0 .817-.003.98-.012v-2.009zm-5.957-9.728l.631-1.978.631 1.978h2.042l-1.652 1.222.632 1.978-1.652-1.223-1.652 1.223.632-1.978-1.652-1.222h2.042z"/><path d="M24.161 3.365h-13.055c-.447 0-.812.488-.812.914v19.947c0 .426.365.774.812.774h13.082c.447 0 .812-.348.812-.774v-19.947c0-.426-.365-.914-.812-.914h-.027zm-6.497 21.035c-.746 0-1.354-.58-1.354-1.29 0-.711.608-1.29 1.354-1.29.746 0 1.354.579 1.354 1.29 0 .711-.608 1.29-1.354 1.29zm5.865-3.985c0 .406-.348.737-.774.737h-10.217c-.426 0-.774-.332-.774-.737v-14.871c0-.406.348-.738.774-.738h10.217c.425 0 .774.332.774.738v14.871zm-10.294-.705h8.823v-13.462h-8.823v13.462z"/></g></g><g transform="translate(1716)"><path d="M0 23v-5.793h2.941v2.896h19.118v-2.896h2.941v5.793h-25zm4.963-13.759h3.125v-7.241h8.823v7.241h3.125l-7.537 7.242-7.537-7.242z" fill="#fff"/></g><g transform="translate(1782)"><path d="M3.583 6.5h17.833l-8.917 7.408-8.917-7.408zm20.659-1.5h-23.486l-.246.244c-.184.085-.357.191-.511.314l.106.088-.106.105v13.5l.758.75h23.485000000000003l.758-.75v-13.5l-.106-.105.106-.088c-.155-.122-.327-.229-.511-.314l-.246-.244zm-20.951 13.5l4.277-3.472-1.197-1.028-4.856 3.941v-11.126l10.449 8.685.536.434.536-.434 10.449-8.685v11.126l-4.856-3.941-1.201 1.032 4.273 3.468h-18.409z" fill="#fff"/></g><g transform="translate(1848)"><path d="M24.795 19.194l-7.694-6.616 7.794-6.762c.06.161.105.329.105.51v12.155c0 .263-.084.498-.205.713zm-23.074-14.167l.132-.027h21.582l.217.043-11.005 9.383-10.927-9.4zm-1.58 14.072c-.087-.19-.141-.397-.141-.619v-12.155c0-.208.045-.406.12-.588l8.077 6.817-8.056 6.544zm12.5-2.642l3.294-2.866 7.431 6.408h-21.513l-.081-.016 7.588-6.409 3.282 2.883z" fill="#fff"/></g><g transform="translate(1914)"><path stroke="#449FDB" d="M0 0"/><path d="M6 8h-5v-2h5v-2l3 3-3 3zm10-8v13l-6 3v-3h-6v-4h1v3h5v-9l4-2h-9v4h-1v-5z" fill="#fff"/></g><g transform="translate(1980)"><path stroke="#449FDB" d="M0 0"/><path d="M12 10v-2h-5v-2h5v-2l3 3zm-1-1v4h-5v3l-6-3v-13h11v5h-1v-4h-8l4 2v9h4v-3z" fill="#fff"/></g><g transform="translate(2046)"><path d="M14 10v4h4v1h-1v1h-1v1h-1v1h-1v1h-1v1h-1v-1h-1v-1h-1v-1h-1v-1h-1v-1h-1v-1h4v-4h3zm-3-2v-3h3v3h-3zm1.5-8c-6.904 0-12.5 5.596-12.5 12.5s5.596 12.5 12.5 12.5 12.5-5.596 12.5-12.5-5.596-12.5-12.5-12.5z" fill="#fff"/></g><g transform="translate(2112)"><g><g fill="#84c2ff"><path d="M10.885 10.885v3.231h7.269v-3.231h-7.269zm-1.615 3.231v-3.231h-3.231v3.231h3.231z"/><path d="M18.558 12.096h.808v1.615h-.808zM15.327 8.865h.808v8.077h-.808zM14.519 8.058h.808v9.692h-.808zM16.942 11.288h.808v3.231h-.808zM16.134 9.673h.808v6.461h-.808zM16.942 10.481h.808v4.846h-.808z"/></g><path d="M2 12.5c0-5.799 4.701-10.5 10.5-10.5s10.5 4.701 10.5 10.5-4.701 10.5-10.5 10.5-10.5-4.701-10.5-10.5z" stroke="#fff" stroke-width="2" fill="none"/></g></g><g transform="translate(2178)"><path d="M8.652 8.715l.015-.216c0-1.345.461-2.464 1.172-3.344.711-.88 1.612-1.333 2.703-1.333 1.015 0 1.865.39 2.551 1.157.685.767 1.028 1.71 1.028 2.841 0 .792-.152 1.421-.444 1.898-.305.478-.965 1.144-1.98 1.999-1.282 1.094-2.066 2.1-2.548 3.03-.482.93-.723 2.062-.723 3.37l.009.473 4.664.016c0-1.119.017-1.891.271-2.319.254-.427.434-1.024 1.461-1.754 1.586-1.119 2.665-2.15 3.236-3.08.571-.93.933-2.125.933-3.571 0-2.326-.87-4.224-2.444-5.683-1.586-1.458-3.629-2.2-6.129-2.2-2.563 0-4.594.609-6.066 2.08-1.485 1.484-2.362 3.668-2.362 6.635h4.652zm6.433 16.285v-4.645h-4.66v4.645h4.66z" fill="#fff"/></g><g transform="translate(2244)"><path d="M2.34 16.691c.448-.31 1.696-.816 2.583-.814.598.001 1.203.11 1.905.428s1.772 1.137 2.181 2.069c.409.932.616 2.071.624 2.231 2.01.242 4.063-.437 5.54-2.047.884-.966 1.438-2.14 1.683-3.38-.927.931-1.78 1.501-3.223 1.771-.63.118-1.145.149-1.752.119-.747-.038-1.686-.343-2.389-.677-.551-.262-1.31-.692-2.042-1.675-.312-.419-.556-.678-.956-1.591-.4-.914-.584-2.482-.572-3.053.022-1.094.218-1.768.569-2.595l.01-.022c.072-.167.15-.332.235-.494.274-.522.611-1.019 1.024-1.47 1.272-1.388 2.956-2.095 4.643-2.113.254 0 .768-.465.996-.848-2.966-.566-6.319.543-8.774 3.224-2.883 3.147-3.675 7.527-2.283 10.94zm-1.34 4.169c0 2.287 1.756 4.14 3.923 4.14s3.923-1.854 3.923-4.14c0-2.286-1.756-4.14-3.923-4.14s-3.923 1.854-3.923 4.14zm20.66-12.551c-.448.31-1.696.816-2.583.814-.598-.001-1.203-.11-1.905-.428s-1.772-1.137-2.181-2.068c-.409-.932-.616-2.071-.624-2.231-2.01-.242-4.063.437-5.54 2.048-.884.966-1.438 2.14-1.683 3.38.927-.931 1.78-1.501 3.223-1.772.63-.118 1.145-.149 1.752-.119.747.038 1.686.343 2.389.677.551.262 1.31.692 2.042 1.675.312.419.556.678.956 1.591.4.914.584 2.482.572 3.053-.022 1.094-.218 1.768-.569 2.595l-.01.022c-.072.167-.15.332-.235.494-.274.523-.611 1.02-1.024 1.47-1.272 1.388-2.956 2.095-4.643 2.113-.254 0-.768.465-.996.848 2.966.566 6.319-.543 8.774-3.224 2.883-3.147 3.675-7.527 2.283-10.939zm1.34-4.169c0-2.287-1.756-4.14-3.923-4.14s-3.923 1.853-3.923 4.14c0 2.286 1.756 4.14 3.923 4.14s3.923-1.854 3.923-4.14z" fill="#fff"/></g><g transform="translate(2310)"><path d="M16.897 5.023c-.71 1.059-2.467.853-2.467.853s.442-1.499 1.389-1.974c1.039-.522 1.581.373 1.078 1.122zm2.276.581c1.109-1.901.163-4.472-2.865-4.204-3.605.318-3.354 5.94-3.354 5.94s5.131.128 6.219-1.736zm-12.084-1.118c-.619-.922.047-2.025 1.327-1.381 1.166.586 1.711 2.432 1.711 2.432s-2.163.253-3.038-1.051zm.725-4.462c-3.728-.33-4.895 2.836-3.528 5.178 1.34 2.295 7.659 2.138 7.659 2.138s.309-6.923-4.131-7.316zm-5.814 10.739v1.308c0 .582.149 1.119.481 1.552h8.519v-5.442h-6.495c-1.435 0-2.505 1.162-2.505 2.582zm12 14.238h4.804c1.794 0 3.196-1.873 3.196-3.648v-6.74h-8v10.389zm-11-3.505c0 1.775 1.468 3.505 3.262 3.505h4.738v-10.389h-8v6.884zm17.456-13.315h-6.456v5.442h8.536c.332-.432.464-.97.464-1.552v-1.308c0-1.42-1.109-2.582-2.544-2.582z" fill="#fff"/></g><g transform="translate(2376)"><path d="M7.609 18.742l.428.583 6.445 1.294.69-.287 1.067-2.173 5.728 1.345.002 1.496h3.03v-17h-3.03l-.002.984-19.696 4.622.001-1.222h-2.273v8.048h2.273l-.001-1.549 6.088 1.43-.751 2.429zm1.291-.225l.522-1.86 5.672 1.266-.829 1.672-5.365-1.077z" fill="#fff"/></g><g transform="translate(2442)"><path d="M13.793 9.483v10.345h-2.586v-10.345h2.586zm-2.586-1.724v-2.586h2.586v2.586h-2.586zm1.293-7.759c-6.904 0-12.5 5.596-12.5 12.5s5.596 12.5 12.5 12.5 12.5-5.596 12.5-12.5-5.596-12.5-12.5-12.5z" fill="#fff"/></g><g transform="translate(2508)"><defs><filter id="a" x="-100%" y="-100%" width="300%" height="300%"><feOffset result="out" in="SourceGraphic" dx=".719" dy=".695"/><feColorMatrix result="out" in="out" values="0 0 0 0 0 0 0 0 0 0 0 0 0 0 0 0 0 0 0.251 0"/><feGaussianBlur result="out" in="out"/><feBlend in="SourceGraphic" in2="out" result="Drop_Shadow1"/></filter></defs><g filter="url(#a)" fill="#fff"><path d="M3.499 10.033h1.345v-7.554h-1.345v7.554zM8.284 4.8l4.21 5.234h1.072v-7.554h-1.258v5.255l-4.21-5.255h-1.072v7.554h1.258v-5.234zM16.232 16.066c-1.466 0-2.559 1.09-2.559 2.654 0 1.511 1.126 2.655 2.559 2.655 1.608 0 2.57-1.165 2.57-2.655 0-1.565-1.127-2.654-2.57-2.654zM19.644 12.626h-3.653v-10.238c0-1.313-1.089-2.388-2.42-2.388h-10.151c-1.331 0-2.42 1.074-2.42 2.388v17.837c0 2.627 2.178 4.775 4.84 4.775h13.805l4.356-6.187-4.356-6.187zm-18.132-1.933v-8.305c0-1.038.856-1.882 1.908-1.882h10.151c1.052 0 1.908.844 1.908 1.882v10.238h-10.605999999999998c-1.434 0-2.691-.782-3.359-1.933zm8.981 10.866c-.678.669-1.914 1.058-2.865 1.058-2.504 0-3.992-1.543-3.992-3.896 0-2.169 1.476-3.895 3.817-3.895 1.094 0 1.837.28 2.461.766l-.569 1.057c-.383-.356-1.061-.583-1.728-.583-1.476 0-2.559.971-2.559 2.654 0 1.608 1.039 2.655 2.592 2.655.591 0 1.301-.248 1.586-.518v-1.187h-1.848v-1.241h3.106v3.129zm5.74 1.058c-2.275 0-3.981-1.543-3.981-3.896 0-2.19 1.629-3.895 3.981-3.895 2.275 0 3.992 1.543 3.992 3.895 0 2.266-1.717 3.896-3.992 3.896zM21.614 24.136h.334v.864h.255v-.864h.335v-.236h-.924v.236zM23.312 24.364l-.344-.463h-.256v1.1h.255v-.696l.309.424h.037l.311-.429v.701h.255v-1.1h-.24l-.325.463z"/></g></g><g transform="translate(2574)"><g fill="#fff"><path d="M5.374 8.664l-2.343-.004.803.787.003.595c0 .462.393.836.877.836v2.758l.744.347v-.525l1.335-1.272v-.614c.484 0 .877-.375.877-.836l.003-.596h-.778l-1.521-1.477zm-3.089-.004h.747v-.893h.891c.366 0 .663-.283.663-.631h.759l.794-.757v-.701l-.785-.749h-.799v.623h-.775c-.412 0-.747-.319-.747-.712 0-.393.334-.712.747-.712v-.729h-.691c1.339-1.399 3.267-2.277 5.411-2.277 1.599 0 3.077.491 4.281 1.321h1.794c-1.544-1.506-3.697-2.442-6.075-2.442-4.686 0-8.498 3.633-8.498 8.099s3.812 8.099 8.498 8.099c.268 0 .532-.011.793-.034v-1.127c-.261.027-.525.04-.793.04-4.044 0-7.321-3.124-7.321-6.977 0-.314.024-.622.066-.924l1.042 1.485zm5.81.034c0 .705.51 1.294 1.197 1.455v-2.433l-.674.001c-.289 0-.523.223-.523.498v.479zm-2.377-6.147l-.573.83.325.475.007.745.786.749.47-1.03c.764 0 1.383-.59 1.383-1.318l-2.398-.451z"/><path d="M24.161 3.365h-13.055c-.447 0-.812.488-.812.914v19.947c0 .426.365.774.812.774h13.082c.447 0 .812-.348.812-.774v-19.947c0-.426-.365-.914-.812-.914h-.027zm-6.497 21.035c-.746 0-1.354-.58-1.354-1.29 0-.711.608-1.29 1.354-1.29.746 0 1.354.579 1.354 1.29 0 .711-.608 1.29-1.354 1.29zm5.865-3.985c0 .406-.348.737-.774.737h-10.217c-.426 0-.774-.332-.774-.737v-14.871c0-.406.348-.738.774-.738h10.217c.425 0 .774.332.774.738v14.871zm-10.294-.705h8.823v-13.462h-8.823v13.462z"/></g></g><g transform="translate(2640)"><g fill="#fff"><path d="M12 2.435c5.843 0 11.582 3.858 11.582 11.565h1.418c0-8.669-6.553-13-13-13v1.435zm0 4.805c3.447 0 6.782 2.259 6.782 6.76h1.403c0-5.463-4.148-8.185-8.185-8.185v1.426zm0 4.352c1.33 0 2.408 1.078 2.408 2.407h1.444c0-2.127-1.724-3.852-3.852-3.852v1.444z"/><path d="M14.848 18.052c1.117-.008 4.216 1.696 4.538 2.101.646.815.675 1.842.163 2.658-.857 1.366-2.687 2.185-3.426 2.189-1.896.01-7.113-.829-11.449-5.704-5.048-5.67-4.881-12.38-4.513-13.116.595-1.18 1.9-2.086 2.437-2.419.561-.349 1.536-.337 1.901-.023 1.366 1.173 2.402 3.33 2.291 5.522-.031.609-.674 1.298-2.137 2.506.459 1.442 1.733 3.373 2.755 4.518.944 1.061 2.947 2.859 4.41 3.533.606-.534 1.982-1.758 3.03-1.765z"/></g></g><g transform="translate(2706)"><path d="M23.485 16.429v1.97l-1.072 1.078h-19.826l-1.072-1.078v-1.97h21.97zm-1.072-9.905l1.072 1.078v6.541h-21.97v-6.541l1.072-1.078h19.826zm.314-1.524h-20.455l-.536.223-1.515 1.524-.222.539v11.429l.222.539 1.515 1.524.536.223h20.455l.536-.223 1.515-1.524.222-.539v-11.429l-.222-.539-1.515-1.524-.536-.223zm-19.697 4.952c0 1.052.848 1.905 1.894 1.905 1.046 0 1.894-.853 1.894-1.905s-.848-1.905-1.894-1.905c-1.046 0-1.894.853-1.894 1.905z" fill="#fff"/></g><g transform="translate(2772)"><path d="M12.5 0c-6.903 0-12.5 5.597-12.5 12.5 0 6.905 5.597 12.5 12.5 12.5s12.5-5.595 12.5-12.5c0-6.903-5.597-12.5-12.5-12.5zm0 24.003c-6.342 0-11.503-5.158-11.503-11.503 0-6.342 5.161-11.503 11.503-11.503 6.342 0 11.503 5.161 11.503 11.503 0 6.346-5.161 11.503-11.503 11.503zm6.228-14.635l-3.128-3.085-3.171 3.114-3.174-3.114-3.129 3.085 3.174 3.114-3.174 3.114 3.131 3.085 3.171-3.114 3.171 3.114 3.128-3.085-3.171-3.114 3.171-3.114z" fill="#fff"/></g><g transform="translate(2838)"><path stroke="#449FDB" d="M0 0"/><path d="M15.658 4.91l-1.58-1.58-1.409-1.409-1.58-1.58c-.387-.387-1.077-.456-1.533-.152l-4.319 2.88c-.456.304-.628.954-.383 1.444l1.101 2.203.115.213-5.571 5.571-.5 3.5h3v-1h2v-2h2v-2h2v-1.112l.284.157 2.203 1.101c.49.245 1.14.072 1.444-.383l2.88-4.319c.304-.456.236-1.146-.152-1.533zm-13.304 8.444l-.707-.707 4.868-4.868.707.707-4.868 4.868zm11.974-6.733l-.707.707c-.194.194-.513.194-.707 0l-4.243-4.243c-.194-.194-.194-.513 0-.707l.707-.707c.194-.194.513-.194.707 0l4.243 4.243c.194.194.194.513 0 .707z" fill="#fff"/></g><g transform="translate(2904)"><path stroke="#449FDB" d="M0 0"/><path d="M11 0c-2.761 0-5 2.239-5 5 0 .313.029.619.084.916l-6.084 6.084v3c0 .552.448 1 1 1h1v-1h2v-2h2v-2h2l1.298-1.298c.531.192 1.105.298 1.702.298 2.761 0 5-2.239 5-5s-2.239-5-5-5zm1.498 5.002c-.828 0-1.5-.672-1.5-1.5s.672-1.5 1.5-1.5 1.5.672 1.5 1.5-.672 1.5-1.5 1.5z" fill="#fff"/></g><g transform="translate(2970)"><path d="M12.499 0c-6.907 0-12.5 5.598-12.5 12.5 0 6.903 5.593 12.5 12.5 12.5 6.903 0 12.5-5.597 12.5-12.5 0-6.902-5.597-12.5-12.5-12.5zm5.501 13.999h-4v4.001h-3v-4.001h-4v-3h4v-4.001h3v4.001h4v3z" fill="#fff"/></g><g transform="translate(3036)"><path stroke="#449FDB" d="M0 0"/><path d="M1 3h14v3h-14zm0 4h14v3h-14zm0 4h14v3h-14z" fill="#fff"/></g><g transform="translate(3102)"><path stroke="#449FDB" d="M0 0"/><path d="M0 6.5v3c0 .276.224.5.5.5h15c.276 0 .5-.224.5-.5v-3c0-.276-.224-.5-.5-.5h-15c-.276 0-.5.224-.5.5z" fill="#fff"/></g><g transform="translate(3168)"><path d="M20.031 0h-15.092c-.517 0-.939.564-.939 1.056v23.049c0 .493.422.894.939.894h15.122c.517 0 .939-.402.939-.894v-23.049c0-.493-.422-1.056-.939-1.056h-.03zm-7.51 24.308c-.862 0-1.565-.67-1.565-1.491 0-.821.703-1.491 1.565-1.491s1.565.67 1.565 1.491c0 .821-.703 1.491-1.565 1.491zm6.78-4.604c0 .469-.403.852-.895.852h-11.811c-.492 0-.894-.383-.894-.852v-17.185c0-.469.403-.852.894-.852h11.811c.492 0 .895.384.895.852v17.185zm-11.9-.814h10.2v-15.556h-10.2v15.556z" fill="#fff"/></g><g transform="translate(3234)"><path d="M23.254 20h-21.508c-.964 0-1.746-.785-1.746-1.748v-11.507c0-.964.782-1.745 1.746-1.745h21.508c.964 0 1.746.781 1.746 1.745v11.511c0 .963-.782 1.744-1.746 1.744zm.43-11.951c0-.963-.782-1.744-1.746-1.744h-18.876c-.964 0-1.746.781-1.746 1.744v8.903c0 .964.782 1.744 1.746 1.744h18.876c.964 0 1.746-.781 1.746-1.744v-8.903zm-3.062 9.343h-16.244c-.965 0-1.746-.396-1.746-1.36v-6.679c0-.963.782-1.744 1.746-1.744h16.244c.965 0 1.746.781 1.746 1.744v6.294c0 .964-.782 1.745-1.746 1.745zm-13.385-5.217h-2.632v1.304h2.632v-1.304zm5.18-3.295c-2.011 0-3.645 1.63-3.645 3.641 0 2.012 1.634 3.641 3.645 3.641 2.015 0 3.645-1.629 3.645-3.641s-1.63-3.641-3.645-3.641zm7.978 3.295h-2.632v1.304h2.632v-1.304zm-7.49-.025c.846.298.926.697.926 1.342 0 .632-.514 1.164-1.331 1.299v.645h-.658v-.674c-.476-.022-.939-.301-1.209-.45l.413-.693c.299.163.8.406 1.262.406.412 0 .635-.203.655-.479.024-.323-.225-.505-.921-.735-.604-.199-1.092-.569-1.092-1.258 0-.632.245-1.146.893-1.293v-.693h.658l.007.693c.466.021 1.149.222 1.398.336l-.226.794c-.178-.085-.609-.274-1.119-.312-.434-.032-.635.105-.635.451 0 .325.369.4.98.62z" fill="#fff"/></g><g transform="translate(3300)"><path d="M12.5 0c-6.904 0-12.5 5.596-12.5 12.5s5.596 12.5 12.5 12.5 12.5-5.596 12.5-12.5-5.596-12.5-12.5-12.5zm4.5 16.03v-2.03h-3v3h2.161l-3.624 4-3.469-4h1.931v-3h-3v2.03l-3.984-3.588 3.984-3.628v2.186h3v-3h-2.087l3.624-4 3.488 4h-2.025v3h3v-2.124l4.005 3.639-4.005 3.515z" fill="#fff"/></g><g transform="translate(3366)"><path d="M17 16.03v-2.03h-3v3h2.161l-3.624 4-3.469-4h1.931v-3h-3v2.03l-3.984-3.588 3.984-3.628v2.186h3v-3h-2.087l3.624-4 3.488 4h-2.025v3h3v-2.124l4.005 3.639-4.005 3.515z" fill="#fff"/></g><g transform="translate(3432)"><path d="M17.412 15.841l-.008.097-.002.011c-.074.471-.493.833-.999.833v.001h-.301l-.043-.001-.043.001c-.323.02-.586.262-.626.572l-.005.064-.541 6.578-.015.196c-.084.459-.497.807-.994.807h-2.666c-.504 0-.922-.359-.998-.829l-.012-.153-.541-6.59-.008-.086c-.044-.304-.304-.541-.624-.56l-.043-.001-.043.001h-.306v-.001c-.493 0-.904-.344-.993-.799l-.017-.189-.583-6.245c0-.836.698-1.515 1.559-1.515h7.882c.861 0 1.559.678 1.559 1.515l-.588 6.291zm-4.912-9.134c-1.906 0-3.451-1.502-3.451-3.353 0-1.852 1.545-3.354 3.451-3.354 1.906 0 3.452 1.502 3.452 3.354 0 1.851-1.546 3.353-3.452 3.353z" fill="#fff"/></g><g transform="translate(3498)"><path d="M18.019 6.259h-2.059l1.059-2.677h2.063l-1.064 2.677zm-5.976 0v.892h1.972l-1.059 2.677h1.591l1.061-2.677h2.059l-1.059 2.677h1.591l1.061-2.677h1.913v-.892h-1.561l1.059-2.677h2.328v-.892h-1.972l1.059-2.677h-1.591l-1.061 2.677h-2.059l1.059-2.677h-1.591l-1.061 2.677h-1.913v.892h1.561l-1.064 2.677h-2.324zm-1.892 17.863c-.846 0-1.535-.658-1.535-1.464 0-.806.689-1.464 1.535-1.464.845 0 1.534.658 1.534 1.464 0 .806-.689 1.464-1.534 1.464zm4.519-24.122l-11.75.012c-.507 0-.92.801-.92 1.285v22.825c0 .484.413.878.92.878h13.681c.507 0 .92-.394.92-.878v-13.401h-.913v8.98c0 .46-.395.837-.877.837h-11.942c-.482 0-.877-.377-.877-.837v-17.068c0-.46.395-.837.877-.837h9.084l1.796-1.797zm-9.931 18.753h10.044v-8.032h-2.739l.004-2.728-.917.05.021-3.067 1.832-.467.01-.928h-8.254v15.171z" fill="#fff"/></g><g transform="translate(3564)"><path d="M0 9.925v15.075000000000001h25v-15.075000000000001h-6.482v1.884h4.63v11.307h-21.296v-11.307h1.852v-1.884h-3.704zm5.556 1.884l-.842 4.74 4.546-.971-3.704-3.769zm2.179-1.884l3.377 3.329 9.858-9.925-3.377-3.329-9.858 9.925zm5.229 5.653v1.884h7.407v-1.884h-7.407zm-3.704 2.827v1.884h11.111v-1.884h-11.111z" fill="#fff"/></g><g transform="translate(3630)"><path d="M21.875 22h-18.75c-1.718 0-3.125-1.425-3.125-3.167v-12.667c0-1.742 1.407-3.166 3.125-3.166h18.75c1.718 0 3.125 1.425 3.125 3.167v12.667c0 1.742-1.407 3.167-3.125 3.167zm1.563-15.834c0-.873-.699-1.583-1.563-1.583h-18.75c-.861 0-1.562.71-1.562 1.583v1.584h21.875v-1.584zm0 4.75h-21.875v7.917c0 .873.702 1.584 1.562 1.584h18.75c.863 0 1.563-.71 1.563-1.584v-7.917zm-6.25 1.583h4.688v3.167h-4.688v-3.167zm-14.063 0h9.375v1.583h-9.375v-1.583zm3.125 4.75h-3.125v-1.583h3.125v1.583z" fill="#fff"/></g><g transform="translate(3696)"><path d="M18.965 7.52h-2.082l1.071-2.76h2.086l-1.075 2.76zm-6.041 0v.92h1.994l-1.071 2.76h1.609l1.073-2.76h2.082l-1.071 2.76h1.609l1.073-2.76h1.934v-.92h-1.579l1.071-2.76h2.354v-.92h-1.994l1.071-2.76h-1.609l-1.073 2.76h-2.082l1.071-2.76h-1.609l-1.073 2.76h-1.934v.92h1.579l-1.075 2.76h-2.349zm3.695 9.37c-.653.134-1.371.75-2.881 2.082-1.701-.783-4.029-2.875-5.127-4.109-1.187-1.332-2.669-3.577-3.202-5.255 1.721-1.52 2.438-2.18 2.484-2.914.025-.395-.797-5.295-1.661-5.793l-.259-.163c-.55-.353-1.383-.888-2.306-.7-.226.047-.442.134-.646.261-.622.389-2.141 1.44-2.832 2.813-.428.856-.622 8.659 5.245 15.253 5.798 6.522 12.95 6.805 14.024 6.586l.03-.006.095-.027c1.449-.519 2.68-1.896 3.142-2.465.852-1.049.243-2.299-.084-2.97l-.131-.28c-.39-.915-5.175-2.316-5.57-2.339l-.319.024z" fill="#fff"/></g><g transform="translate(3762)"><path stroke="#449FDB" d="M0 0"/><path d="M8 0c-4.418 0-8 3.582-8 8s3.582 8 8 8 8-3.582 8-8-3.582-8-8-8zm0 14.5c-3.59 0-6.5-2.91-6.5-6.5s2.91-6.5 6.5-6.5 6.5 2.91 6.5 6.5-2.91 6.5-6.5 6.5zm-2-10l6 3.5-6 3.5z" fill="#fff"/></g><g transform="translate(3828)"><path stroke="#449FDB" d="M0 0"/><path d="M15.5 6h-5.5v-5.5c0-.276-.224-.5-.5-.5h-3c-.276 0-.5.224-.5.5v5.5h-5.5c-.276 0-.5.224-.5.5v3c0 .276.224.5.5.5h5.5v5.5c0 .276.224.5.5.5h3c.276 0 .5-.224.5-.5v-5.5h5.5c.276 0 .5-.224.5-.5v-3c0-.276-.224-.5-.5-.5z" fill="#fff"/></g><g transform="translate(3894)"><path d="M8.774 13.723l-6.256-4.397-2.518 2.591 7.721 8.57 1.363 1.513 1.419-1.464 14.498-14.954-2.549-2.582-13.677 10.723z" fill="#e00000"/></g><g transform="translate(3960)"><path d="M18.055 15.13h3.472v1.391h-3.472v-1.391zm-4.861 0h3.472v1.391h-3.472v-1.391zm-4.861 0h3.472v1.391h-3.472v-1.391zm-4.861 0h3.472v1.391h-3.472v-1.391zm9.722-5.217c0-1.345 1.088-2.435 2.43-2.435.68 0 1.295.279 1.736.73.441-.451 1.056-.73 1.736-.73 1.342 0 2.431 1.09 2.431 2.435s-1.088 2.435-2.431 2.435c-.68 0-1.295-.279-1.736-.73-.441.451-1.056.73-1.736.73-1.342 0-2.431-1.09-2.431-2.435zm-11.052-5.913c-1.183 0-2.143.934-2.143 2.087v11.826c0 1.153.959 2.087 2.143 2.087h20.714c1.183 0 2.143-.934 2.143-2.087v-11.826c0-1.153-.959-2.087-2.143-2.087h-20.714z" fill="#fff"/></g><g transform="translate(4026)"><path d="M6 9v8h13v-2h1v3h-15v-10h15v3h-1v-2h-13zm1 1h11v2h-1v2h1v2h-11v-6zm5.501-9.992c-6.902 0-12.497 5.594-12.497 12.496 0 6.9 5.595 12.496 12.497 12.496 6.901 0 12.496-5.596 12.496-12.496 0-6.902-5.594-12.496-12.496-12.496z" fill="#fff"/></g><g transform="translate(4092)"><path d="M15.767 17.254l.714-.182.33-.084-.148.417-.181.508-5.884 5.395-1.021.365.284-1.033 5.906-5.385zm4.231-5.197c0-.74.611-1.34 1.364-1.34.753 0 1.364.6 1.364 1.34 0 .74-.611 1.34-1.364 1.34-.753 0-1.364-.6-1.364-1.34zm-2.783 7.526c.214-.047.42-.137.609-.207.541.176 1.118.272 1.719.272 3.013 0 5.456-2.399 5.456-5.359s-2.443-5.359-5.456-5.359c-3.013 0-5.456 2.399-5.456 5.359 0 .665.124 1.301.35 1.889l-.137.145c-1.948 1.853-4.207 3.754-6.125 5.578v2.211l1.378.887h1.333c.577-.328 1.381-.888 1.381-.888v-1.338h1.376l.463-1.34h1.433l.806-1.787s.663-.02.87-.065zm-5.73-19.583h-2.173c-1.744.426-2.979 1.541-4.077 2.868-1.018 1.23-2.291 1.618-3.9 1.615l-1.32-.017c-.119 4.283.472 8.47 2.455 12.138 1.175 2.173 2.787 3.914 4.813 5.27l.002-.375c.362-.345.735-.694 1.116-1.046-3.921-2.504-6.678-8.13-6.588-14.202 2.359-.137 4.11-1.234 5.522-2.997.758-.947 1.823-1.482 3.137-1.483l.015 16.78c.99-.898 1.981-1.797 2.905-2.676-.136-.508-.214-1.037-.214-1.587 0-3.453 2.85-6.252 6.366-6.252.442 0 .872.043 1.289.127.084-1.255.073-2.514.058-3.678-.288-.029-.613-.002-.743-.001-2.153.014-3.805-.486-5.122-2.187-.902-1.165-2.096-1.928-3.541-2.3z" fill="#fff"/></g><g transform="translate(4158)"><path d="M23.829 6.273l1.171-2.963h-18.274l1.171 2.963 1.171 2.963.349.883.279.707 1.172 2.963h9.99l1.171-2.963.279-.707.349-.883 1.171-2.963zm-14.748-1.374h13.563l-.543 1.374h-12.477l-.543-1.374zm10.677 7.301h-7.792l-.543-1.374h8.878l-.543 1.374zm-8.963-2.963l-.543-1.374h11.221l-.543 1.374h-10.135zm7.708 10.085c-1.308 0-2.369 1.048-2.369 2.34 0 1.292 1.06 2.339 2.369 2.339 1.308 0 2.369-1.047 2.369-2.339s-1.061-2.34-2.369-2.34zm-7.387 0c-1.308 0-2.369 1.048-2.369 2.34 0 1.292 1.06 2.339 2.369 2.339 1.308 0 2.369-1.047 2.369-2.339s-1.061-2.34-2.369-2.34zm9.756-4.122h-10.875l-3.68-9.308-3.448-4.289c-.553-.687-1.565-.802-2.261-.256-.696.546-.813 1.545-.26 2.233l3.147 3.915 4.303 10.885h13.073c.889 0 1.609-.712 1.609-1.589s-.72-1.589-1.609-1.589z" fill="#e00000"/></g><g transform="translate(4224)"><g fill="#fff"><path d="M19.155 15.66h-10.463l-3.54-9.318-2.392-3.355c-.532-.687-1.506-.803-2.175-.257-.67.546-.782 1.547-.25 2.235l2.102 2.98 4.14 10.896h12.578c.855 0 1.548-.712 1.548-1.591s-.693-1.591-1.548-1.591zM9.769 19.317c-1.259 0-2.279 1.049-2.279 2.342 0 1.293 1.02 2.341 2.279 2.341s2.279-1.048 2.279-2.341c0-1.293-1.021-2.342-2.279-2.342zM16.876 19.317c-1.259 0-2.279 1.049-2.279 2.342 0 1.293 1.02 2.341 2.279 2.341s2.279-1.048 2.279-2.341c0-1.293-1.021-2.342-2.279-2.342zM18.556 6.725h-10.686l-.522-1.376h10.449c-.127-.397-.198-.819-.198-1.26l.016-.331h-12.534l1.127 2.966 1.127 2.966.336.884.269.707 1.127 2.966h9.611l1.127-2.966.337-.889.267-.702.608-1.601c-.981-.132-1.847-.633-2.462-1.365zm-.936 5.932h-7.496l-.523-1.376h8.542l-.523 1.376zm1.127-2.966h-9.75l-.522-1.375h10.795l-.522 1.375zM21.993 1c-1.66 0-3.007 1.383-3.007 3.09 0 1.707 1.346 3.09 3.007 3.09s3.007-1.383 3.007-3.09c0-1.706-1.346-3.09-3.007-3.09zm1.376 3.423h-1.052v1.081h-.648v-1.081h-1.052v-.666h1.052v-1.081h.648v1.081h1.052v.666z"/></g></g><g transform="translate(4290)"><path d="M12.5 0c6.904 0 12.5 5.597 12.5 12.5s-5.596 12.5-12.5 12.5-12.5-5.597-12.5-12.5 5.596-12.5 12.5-12.5zm.5 15v3.011l6.913-5.958-6.913-6.218v3.01c-3.011 0-6.926 1.639-6.926 9.165 1.505-3.011 3.651-5.279 6.95-2.998l-.023-.012z" fill="#fff"/></g><g transform="translate(4356)"><path d="M1.852 20.32h4.63v1.84h-4.63v-1.84zm-1.852-11.085v14.765h25v-14.65l-11.082 10.05h-1.91l-12.008-10.165zm12.963-3.635c0-2.541-2.066-4.6-4.623-4.6-2.557 0-4.63 2.059-4.63 4.6 0 1.829 1.121 3.239 2.626 4.619l6.627 5.582 6.633-5.582c1.506-1.38 2.626-2.79 2.626-4.619 0-2.541-2.073-4.6-4.63-4.6s-4.63 2.059-4.63 4.6z" fill="#fff"/></g><g transform="translate(4422)"><path d="M21.182 3.704v17.593h-16.364v-17.593h16.364zm-15.454-1.852h-2.727v21.295999999999996h2.727v1.852h.909v-1.852h1.818v1.852h.909v-1.852h1.818v1.852h.909v-1.852h1.818v1.852h.909v-1.852h1.818v1.852h.909v-1.852h1.818v1.852h.909v-1.852h2.727v-21.295999999999996h-2.727v-1.852h-.909v1.852h-1.818v-1.852h-.909v1.852h-1.818v-1.852h-.909v1.852h-1.818v-1.852h-.909v1.852h-1.818v-1.852h-.909v1.852h-1.818v-1.852h-.909v1.852zm8.381 15.885c.454.521 1.122.781 1.989.781v.926h.753v-.926c.881 0 1.563-.26 2.031-.81.469-.535.71-1.259.71-2.17 0-.984-.369-1.707-1.08-2.17-.256-.159-.81-.391-1.662-.68v-3.501c.412 0 .753.174 1.037.506.27.333.412.752.426 1.273h.994c0-.796-.227-1.447-.653-1.939-.44-.492-1.037-.781-1.804-.854v-.767h-.753v.767c-.824.116-1.449.42-1.875.897-.426.492-.639 1.129-.639 1.924 0 .897.298 1.591.909 2.054.27.232.81.477 1.605.738v3.834c-.625-.087-1.08-.362-1.349-.81-.099-.145-.17-.289-.199-.463-.028-.174-.071-.506-.128-1.013h-.994l-.014.13v.116c0 .911.227 1.635.696 2.156zm.895-7.986c.256-.289.611-.478 1.094-.564v3.4c-.994-.289-1.477-.854-1.477-1.707 0-.463.128-.839.383-1.128zm1.847 4.167c.653.217 1.094.449 1.335.709.241.261.369.608.369 1.071 0 .521-.156.955-.44 1.302-.298.347-.724.564-1.264.622v-3.704zm-10.213 4.601v.926h4.545v-.926h-4.545zm0-2.778v.926h2.727v-.926h-2.727zm0-2.778v.926h3.636v-.926h-3.636zm0-2.778v.926h4.545v-.926h-4.545zm0-2.778v.926h5.454v-.926h-5.454zm16.364 15.741h-.909v1.852h.909v-1.852zm-.909-23.148v1.852h.909v-1.852h-.909zm-18.182 25v-1.852h-.909v1.852h.909zm-.909-23.148h.909v-1.852h-.909v1.852z" fill="#fff"/></g><g transform="translate(4488)"><path d="M25 4h-25v17h25v-5.035c-.163.023-.33.035-.5.035-1.933 0-3.5-1.567-3.5-3.5s1.567-3.5 3.5-3.5c.17 0 .337.012.5.035v-5.035zm-24 1h23v2.615c-2.353.202-4.5 1.834-4.5 4.885 0 3.051 2.147 4.683 4.5 4.885v2.615h-23v-15zm22 1.765v-.765h-21v13h21v-.765c-2.405-.554-4.5-2.463-4.5-5.735 0-3.272 2.095-5.181 4.5-5.735z" fill="#fff"/></g><g transform="translate(4554)"><g fill="#c00"><path d="M19.288 15.393c-.006.312-.181.86-.511.862-.377.002-.482-.541-.52-.838-.14-1.095-.139-2.208-.288-3.301-.4-2.951-2.542-4.985-5.268-5.064-3.192-.093-5.727 2.474-5.644 5.699.035 1.364.172 2.744.017 4.088-.198 1.717-1.107 3.151-2.394 4.296-.226.201-.744.524-.97.269-.306-.346.061-.761.266-.957 1.991-1.915 2.523-4.248 2.122-6.909-.538-3.577 1.861-6.893 5.327-7.43 3.593-.556 6.869 1.786 7.486 5.385.167.975.307 1.742.358 2.949.001.012.025.656.019.951zM11.971 1.038c-1.725-.024-3.689.591-5.51 1.706l-.418.281c-.258.137-.608.261-.8-.099-.18-.337.072-.645.282-.769 1.211-.715 2.986-1.594 4.577-1.91 7.476-1.482 14.323 3.879 14.86 11.507.036.513.175 1.383-.431 1.431-.561.045-.566-.826-.585-1.335-.222-5.925-5.456-10.835-11.973-10.812zM16.328 15.205c-.051 3.334-.937 6.402-2.736 9.19-.185.287-.725.677-.876.594-.381-.211-.199-.776.032-1.149 2.108-3.401 2.909-7.079 2.288-11.045-.092-.588-.276-1.205-.582-1.706-.524-.859-1.663-1.198-2.603-.913-1.062.321-1.68 1.126-1.799 2.245-.049.46.045 1.288-.561 1.179-.395-.071-.494-.869-.467-1.321.11-1.829 1.55-3.166 3.355-3.239 1.737-.071 3.241 1.125 3.565 2.88.208 1.127.261 2.19.385 3.287zM22.25 15.29c-.053 1.827-.206 3.348-.692 5.354-.066.271-.351.874-.652.85-.336-.028-.378-.66-.319-.967.431-2.242.718-3.66.743-5.815.022-1.972-.46-4.597-1.475-6.375-.896-1.571-2.179-2.699-3.769-3.526-.321-.167-.951-.575-.748-.917.236-.398.869-.121 1.199.038 2.971 1.435 4.755 3.978 5.448 7.168.274 1.261.32 2.352.266 4.191zM12.573 4.056c-3.604-.074-6.853 2.25-8.074 5.723-.162.46-.345 1.348-.91 1.125-.531-.21-.195-1.021-.039-1.487 1.39-4.144 5.673-6.903 9.805-6.33.348.048 1.017.142.993.519-.026.403-.279.437-.776.486-.213.021-.772-.025-.999-.035zM13.226 15.386c.004 3.286-1.05 6.203-3.129 8.728-.206.25-.729.629-.989.372-.267-.264.038-.74.24-1.003 2.298-2.982 3.241-6.318 2.777-10.074-.051-.414-.046-1.165.309-1.239.74-.153.744 1.001.787 1.728.029.495.005.992.005 1.487zM0 12.918c.067-3.659 1.135-6.484 3.325-8.845.227-.245.816-.663 1.102-.351.244.266-.132.744-.341.982-2.626 2.98-3.505 6.416-2.806 10.313.049.27-.059.843-.381.907-.397.079-.539-.449-.591-.716-.174-.894-.248-1.807-.308-2.289zM10.314 15.583c-.157 2.936-1.193 5.29-3.051 7.222-.26.271-.817.773-1.113.489-.307-.294.094-.873.332-1.134 1.174-1.291 1.99-2.764 2.408-4.454.154-.62.136-1.287.308-1.9.114-.405.248-1.109.65-1.126.406-.017.496.347.466.903zM4.185 14.473c.23 1.74-.257 3.164-1.431 4.324-.185.183-.609.431-.848.251-.316-.239-.064-.708.096-.869 1.331-1.344 1.336-2.961 1.101-4.673-.07-.507-.131-1.43.318-1.458.634-.039.588.847.697 1.377.075.368.051.755.067 1.049zM19.171 18.109c-.064.191-.137.537-.272.969-.544 1.74-.937 2.994-1.542 4.664-.082.225-.458.616-.742.493-.279-.121-.221-.635-.148-.902.497-1.831 1.03-3.651 1.593-5.462.073-.233.36-.795.715-.725.388.076.521.481.396.963z"/></g></g><g transform="translate(4620)"><path d="M12.5 0c-6.903 0-12.5 5.597-12.5 12.5 0 6.904 5.597 12.5 12.5 12.5s12.5-5.596 12.5-12.5c0-6.903-5.597-12.5-12.5-12.5zm3.541 18h-7.074l2.265-6.468c-1.096-.486-1.857-1.381-1.857-2.657 0-1.726 1.388-3.059 3.112-3.059 1.728 0 3.138 1.333 3.138 3.059 0 1.276-.766 2.119-1.862 2.605l2.278 6.52z" fill="#fff"/></g><g transform="translate(4686)"><path d="M16.041 19h-7.074l2.265-6.468c-1.096-.486-1.857-1.381-1.857-2.657 0-1.726 1.388-3.059 3.112-3.059 1.728 0 3.138 1.333 3.138 3.059 0 1.276-.766 2.119-1.862 2.605l2.278 6.52z" fill="#fff"/></g><g transform="translate(4752)"><rect width="25" height="25" fill="#35518b" rx="1.75" ry="1.75"/><path opacity=".098" d="M25 18.86h-25v6.14h25v-6.14z" fill="#fff"/><path d="M17.983 22.368h-4.386v-9.649h-2.193v-3.509h2.193v-1.906c0-2.724 1.131-4.234 4.342-4.234h2.675v3.509h-1.641c-1.251 0-.99.467-.99 1.338v1.294h3.029l-.39 3.509h-2.639v9.649z" fill="#1d305c"/><path d="M17.983 22.368h-4.386v-9.649h-2.193v-3.509h2.193v-1.641c0-2.725 1.131-4.5 4.342-4.5h2.675v3.509h-1.375c-1.251 0-1.256.467-1.256 1.338v1.294h3.029l-.655 3.509h-2.374v9.649z" fill="#fff"/></g><g transform="translate(4818)"><g><rect width="25" height="25" fill="#cc1a20" rx="1.75" ry="1.75"/><path d="M3.22 18.441c-.607.116-1.032.274-1.649.472-.556.179-1.081.41-1.571.693v5.394h.481c-.296-.526-.444-1.114-.444-1.765 0-.63.122-1.154.367-1.575.245-.42.53-.769.857-1.05.326-.28.659-.495.998-.647.337-.152.6-.263.786-.332.373-.117.757-.216 1.155-.297.396-.082.769-.14 1.119-.175.349-.035.653-.059.909-.07l.489-.018h.438c.105 0 .227.012.367.036.653.466 1.224.886 1.713 1.259.49.373.886.735 1.189 1.085.303.349.53.705.682 1.067.151.362.227.764.227 1.207 0 .459-.078.884-.231 1.276h1.856l.123-.232c.396-.794.595-1.601.595-2.418 0-.607-.082-1.145-.245-1.611-.163-.468-.379-.888-.647-1.261-.268-.375-.583-.726-.944-1.052-.362-.327-.729-.654-1.102-.982l-1.259-.98c-.187-.164-.385-.357-.595-.579-.21-.221-.314-.531-.314-.928s.105-.724.314-.982c.21-.256.431-.501.664-.736.373-.28.735-.577 1.085-.893.35-.315.665-.665.945-1.051.279-.386.501-.823.664-1.314.162-.49.245-1.063.245-1.717 0-.653-.093-1.237-.28-1.751-.187-.514-.408-.963-.664-1.348-.257-.386-.525-.74-.805-1.01-.28-.268-.525-.484-.735-.648h2.168l2.239-1.316h-7.205c-.956 0-1.987.117-3.095.349-1.107.234-1.975.878-2.977 1.694-.445.389-.822.809-1.134 1.26v6.735c.123.164.256.321.4.472.49.513.908.927 1.632 1.242.723.315 1.551.472 2.483.472l.559-.018.559-.052c-.092.21-.174.414-.245.613-.069.198-.105.449-.105.752 0 .537.111.986.332 1.347.221.363.46.706.717 1.033-.397.023-.863.058-1.399.104-.536.047-1.108.128-1.713.245zm2.937-5.003c-.746 0-1.394-.216-1.941-.65-.548-.433-1.003-.966-1.364-1.597-.362-.632-.629-1.311-.804-2.037-.175-.725-.263-1.381-.263-1.966 0-.468.053-.924.157-1.369.106-.445.309-.855.612-1.23.28-.351.641-.632 1.084-.842.443-.211.897-.316 1.364-.316.723 0 1.358.216 1.906.65.547.432 1.007.977 1.381 1.633.373.655.653 1.357.84 2.106.186.749.279 1.439.279 2.071 0 .328-.047.738-.14 1.229-.093.492-.338.937-.734 1.335-.28.281-.635.515-1.066.703-.432.187-.869.281-1.312.281z" fill="#9e1418"/><g fill="#fff"><path d="M.569 25c-.301-.438-.491-.923-.569-1.455v1.455h.569zM.996 20.345c.326-.28.659-.495.998-.647.337-.152.6-.262.786-.332.373-.117.757-.216 1.155-.297.396-.082.77-.14 1.119-.175.349-.035.653-.059.909-.07l.489-.018h.438l.367.035c.653.466 1.224.886 1.714 1.259.49.373.886.735 1.189 1.085.302.349.53.705.682 1.067.151.362.227.764.227 1.207 0 .565-.117 1.079-.349 1.542h1.817c.102-.162.196-.328.281-.497.396-.794.595-1.601.595-2.418 0-.607-.082-1.145-.245-1.611-.163-.468-.379-.888-.647-1.261-.268-.375-.583-.726-.944-1.052-.362-.327-.729-.654-1.102-.982l-1.259-.98c-.187-.164-.385-.357-.595-.579-.21-.221-.314-.531-.314-.928s.104-.725.314-.982c.21-.256.431-.501.664-.736.373-.28.735-.577 1.085-.893.35-.315.665-.665.945-1.051.279-.385.501-.823.664-1.314.162-.49.245-1.063.245-1.717 0-.653-.093-1.237-.28-1.751-.187-.514-.408-.963-.664-1.348-.257-.386-.525-.475-.805-.744-.28-.268-.525-.484-.735-.648h2.169l2.239-1.316h-7.205c-.956 0-1.987.117-3.095.349-1.108.234-1.975.612-2.977 1.428-.325.284-.614.585-.868.902v7.417l.134.147c.49.513.908.927 1.632 1.242.723.315 1.55.472 2.483.472l.559-.017.559-.052c-.092.21-.174.414-.245.613-.069.198-.105.449-.105.752 0 .537.111.985.333 1.347.221.363.46.706.717 1.033-.397.023-.863.058-1.399.104-.536.047-1.108.129-1.713.245-.607.116-1.032.274-1.649.472-.457.147-.893.329-1.306.546v3.19c.054-.377.162-.707.326-.989.245-.42.343-.769.67-1.05zm4.897-7.172c-.746 0-1.394-.216-1.941-.65-.548-.433-1.003-.966-1.364-1.597-.362-.632-.629-1.311-.804-2.037-.175-.725-.263-1.381-.263-1.966 0-.468.053-.924.157-1.369.106-.445.309-.855.612-1.23.28-.351.641-.632 1.084-.842.443-.211.897-.316 1.364-.316.723 0 1.358.216 1.906.65.547.432 1.007.977 1.381 1.633.373.655.653 1.357.84 2.106.186.749.28 1.439.28 2.071 0 .328-.047.738-.14 1.229-.093.492-.338.936-.734 1.335-.28.281-.636.515-1.067.703-.432.187-.869.281-1.312.281z"/></g><path d="M24.561 6.579h-3.947v-3.947h-1.754v3.947h-4.386v2.193h4.386v3.947h1.754v-3.947h3.947v-2.193z" fill="#9e1418"/><path d="M20.614 6.579v-4.386h-1.754v4.386h-4.825v1.754h4.825v4.386h1.754v-4.386h4.386v-1.754h-4.386z" fill="#fff"/></g></g><g transform="translate(4884)"><rect width="25" height="25" fill="#00adee" rx="1.75" ry="1.75"/><path d="M21.586 7.324c-.639.284-1.326.475-2.047.562.736-.441 1.301-1.14 1.567-1.973-.689.408-1.451.705-2.263.865-.65-.693-1.576-1.126-2.601-1.126-1.968 0-3.564 1.596-3.564 3.565 0 .279.031.551.092.813-2.962-.149-5.588-1.568-7.346-3.725-.307.527-.483 1.139-.483 1.793 0 1.237.629 2.328 1.586 2.967-.584-.018-1.134-.179-1.614-.446v.045c0 1.727 1.229 3.168 2.859 3.496-.299.081-.614.125-.939.125-.23 0-.453-.022-.67-.064.453 1.416 1.77 2.447 3.329 2.476-1.22.956-2.756 1.526-4.426 1.526-.287 0-.571-.017-.85-.05 1.577 1.012 3.45 1.602 5.463 1.602 6.555 0 10.14-5.433 10.14-10.144l-.01-.461c.697-.503 1.301-1.13 1.779-1.846z" fill="#005d81"/><path d="M21.32 7.005c-.639.284-1.326.475-2.047.561.736-.441 1.301-1.14 1.567-1.972-.689.408-1.451.705-2.263.865-.65-.693-1.576-1.126-2.601-1.126-1.968 0-3.564 1.596-3.564 3.565 0 .279.032.551.092.812-2.962-.149-5.588-1.568-7.346-3.725-.307.527-.483 1.139-.483 1.793 0 1.237.629 2.328 1.586 2.968-.584-.018-1.134-.179-1.614-.446v.045c0 1.727 1.228 3.168 2.859 3.496-.299.081-.614.125-.939.125-.23 0-.453-.022-.67-.064.453 1.416 1.77 2.447 3.329 2.476-1.22.956-2.756 1.526-4.426 1.526-.287 0-.571-.017-.85-.05 1.577 1.011 3.451 1.602 5.463 1.602 6.555 0 10.14-5.433 10.14-10.144l-.01-.461c.697-.503 1.301-1.13 1.778-1.846z" fill="#fff"/></g><g transform="translate(4950)"><path d="M14 7.5c0-1.381 1.119-2.5 2.5-2.5s2.5 1.119 2.5 2.5-1.119 2.5-2.5 2.5c-.771 0-1.461-.351-1.92-.9l-5.625 2.935c.028.151.045.306.045.465 0 .258-.037.51-.11.745l5.615 2.75c.456-.605 1.179-.995 1.995-.995 1.381 0 2.5 1.119 2.5 2.5s-1.119 2.5-2.5 2.5-2.5-1.119-2.5-2.5c0-.207.027-.407.075-.6l-5.67-2.78c-.458.539-1.142.88-1.905.88-1.381 0-2.5-1.119-2.5-2.5s1.119-2.5 2.5-2.5c.864 0 1.626.439 2.075 1.105l5.53-2.885c-.069-.228-.105-.469-.105-.72zm-1.501-7.498c-6.906 0-12.499 5.597-12.499 12.499s5.592 12.499 12.499 12.499c6.902 0 12.499-5.597 12.499-12.499s-5.597-12.499-12.499-12.499z" fill="#fff"/></g><g transform="translate(5016)"><path d="M17.635.187c-.459-.336-1.08-.206-1.458.295l-8.663 10.902c-.242.335-.514.498-.514 1.115 0 .616.272.782.514 1.117l8.663 10.902c.378.501.999.631 1.458.295.413-.302.503-1.021.125-1.522l-8.634-10.793 8.634-10.79c.378-.501.287-1.22-.125-1.522z" fill="#fff"/></g><g transform="translate(5082)"><path d="M7.365.187c.459-.336 1.08-.206 1.458.295l8.664 10.902c.242.335.514.498.514 1.115 0 .616-.272.782-.514 1.117l-8.664 10.902c-.378.501-.999.631-1.458.295-.413-.302-.503-1.021-.125-1.522l8.634-10.793-8.634-10.79c-.378-.501-.287-1.22.125-1.522z" fill="#fff"/></g><g transform="translate(5148)"><g><path d="M3.635 0c-2.007 0-3.635 1.663-3.635 3.713v7.458c0 2.051 1.627 3.713 3.635 3.713h10.493l-4.806 10.115s12.71-10.115 13.624-11.171c0 0 1.055-1.485 1.055-2.658v-8.013c0-2.051-1.627-3.159-3.634-3.159h-16.731z" fill="#1e90ff"/><g fill="#fff"><path d="M4.744 9.851c.407.298.981.448 1.703.448.722 0 1.286-.14 1.694-.429.407-.28.611-.69.611-1.212 0-.401-.12-.709-.352-.923-.241-.215-.62-.373-1.138-.466l-.879-.159c-.407-.075-.694-.159-.842-.252-.148-.093-.222-.233-.222-.42 0-.196.083-.354.259-.466.176-.112.416-.177.713-.177.37 0 .657.075.87.215.204.14.315.336.315.587h1.074c0-.541-.194-.951-.583-1.24-.389-.28-.935-.429-1.62-.429-.676 0-1.203.14-1.573.42-.37.28-.555.671-.555 1.175 0 .41.12.718.361.923.241.214.648.373 1.222.466l.787.149c.389.075.666.159.824.252.148.103.231.252.231.457 0 .214-.102.382-.305.494-.204.112-.472.168-.824.168-.407 0-.713-.075-.935-.224-.222-.149-.333-.364-.333-.643h-1.12c0 .559.204.988.62 1.287zM10.87 10.299v-4.122l1.009 4.122h1.157l.99-4.122v4.122h1.157v-5.371h-1.74l-.99 4.289-1.018-4.289h-1.721v5.371h1.157zM16.59 9.851c.407.298.981.448 1.703.448.722 0 1.287-.14 1.694-.429.407-.28.611-.69.611-1.212 0-.401-.12-.709-.352-.923-.241-.215-.62-.373-1.138-.466l-.879-.159c-.407-.075-.694-.159-.842-.252-.148-.093-.222-.233-.222-.42 0-.196.083-.354.259-.466.176-.112.417-.177.713-.177.37 0 .657.075.87.215.204.14.315.336.315.587h1.073c0-.541-.194-.951-.583-1.24-.389-.28-.935-.429-1.62-.429-.675 0-1.203.14-1.573.42-.37.28-.555.671-.555 1.175 0 .41.12.718.361.923.241.214.648.373 1.222.466l.787.149c.389.075.666.159.824.252.148.103.231.252.231.457 0 .214-.102.382-.305.494-.204.112-.472.168-.824.168-.407 0-.713-.075-.935-.224-.222-.149-.333-.364-.333-.643h-1.12c0 .559.204.988.62 1.287z"/></g></g></g><g transform="translate(5214)"><path d="M12.5 0c-6.903 0-12.5 5.598-12.5 12.501 0 6.904 5.597 12.499 12.5 12.499s12.5-5.596 12.5-12.499c0-6.903-5.597-12.501-12.5-12.501zm3.309 12.448h-2.164v7.72h-3.209v-7.72h-1.525v-2.726h1.525v-1.766c0-1.264.6-3.237 3.238-3.237l2.375.009v2.647h-1.725c-.281 0-.68.141-.68.742v1.605h2.445l-.281 2.726z" fill="#fff"/></g><g transform="translate(5280)"><path d="M12.5 0c-6.903 0-12.5 5.598-12.5 12.501 0 6.904 5.597 12.499 12.5 12.499s12.5-5.596 12.5-12.499c0-6.903-5.597-12.501-12.5-12.501zm1.2 15.963c-.964 0-1.872-.521-2.182-1.113 0 0-.519 2.058-.629 2.455-.386 1.404-1.524 2.808-1.612 2.923-.062.08-.198.055-.212-.052-.025-.178-.315-1.949.027-3.394l1.149-4.867s-.285-.571-.285-1.414c0-1.324.767-2.312 1.722-2.312.812 0 1.205.61 1.205 1.34 0 .817-.52 2.039-.789 3.17-.224.948.475 1.721 1.41 1.721 1.691 0 2.832-2.174 2.832-4.749 0-1.957-1.318-3.422-3.717-3.422-2.708 0-4.397 2.021-4.397 4.278 0 .778.23 1.328.589 1.752.165.195.188.273.129.497l-.183.717c-.059.227-.242.307-.447.223-1.247-.509-1.829-1.876-1.829-3.412 0-2.537 2.14-5.58 6.383-5.58 3.41 0 5.654 2.467 5.654 5.117 0 3.504-1.948 6.121-4.819 6.121z" fill="#fff"/></g><g transform="translate(5346)"><path d="M12.501 0c-6.904 0-12.501 5.598-12.501 12.501 0 6.904 5.597 12.499 12.501 12.499 6.904 0 12.499-5.596 12.499-12.499 0-6.903-5.596-12.501-12.499-12.501zm6.297 9.98l.009.408c0 4.163-3.168 8.963-8.963 8.963-1.779 0-3.435-.521-4.829-1.415.247.029.497.044.751.044 1.476 0 2.835-.504 3.913-1.348-1.378-.026-2.542-.937-2.942-2.188.192.037.389.056.593.056.287 0 .566-.038.83-.111-1.442-.29-2.527-1.563-2.527-3.088v-.04c.425.236.91.378 1.427.395-.845-.566-1.402-1.529-1.402-2.623 0-.578.155-1.119.426-1.584 1.554 1.906 3.875 3.16 6.493 3.291-.054-.23-.082-.471-.082-.718 0-1.739 1.411-3.15 3.15-3.15.906 0 1.725.383 2.299.994.718-.141 1.392-.403 2.001-.764-.235.736-.735 1.353-1.386 1.743.638-.076 1.245-.246 1.81-.496-.422.632-.957 1.187-1.572 1.631z" fill="#fff"/></g><g transform="translate(5412)"><g fill="#fff"><path d="M7.163 13.552h.905v4.496h.874v-4.496h.905v-.765h-2.684v.765zM12.534 9.816c.118 0 .213-.032.282-.096.07-.066.105-.157.105-.271v-2.33c0-.093-.036-.17-.107-.226-.071-.058-.165-.087-.28-.087-.107 0-.193.029-.26.087-.066.057-.099.133-.099.226v2.33c0 .117.031.207.093.271.061.064.151.096.266.096zM14.463 14.119c-.121 0-.24.031-.358.092-.116.062-.228.153-.332.271v-1.695h-.784v5.262h.784v-.298c.101.12.213.207.332.264.117.057.253.084.406.084.229 0 .406-.072.527-.219.122-.148.183-.358.183-.633v-2.154c0-.318-.064-.56-.195-.725-.129-.166-.317-.249-.562-.249zm-.043 3.021c0 .125-.023.213-.067.268-.045.056-.114.082-.21.082l-.187-.042-.183-.137v-2.418l.16-.119.165-.039c.105 0 .185.034.242.1.054.068.081.168.081.299v2.005zM11.628 17.116c-.073.083-.153.152-.24.207-.087.055-.161.081-.216.081-.073 0-.126-.02-.16-.061-.031-.041-.048-.107-.048-.198v-2.978h-.776v3.246c0 .232.046.402.136.52.092.115.226.172.405.172.146 0 .296-.04.451-.123.155-.084.304-.203.448-.36v.425h.776v-3.882h-.776v2.949zM12.5 0c-6.903 0-12.5 5.597-12.5 12.5 0 6.904 5.597 12.5 12.5 12.5s12.5-5.596 12.5-12.5c0-6.903-5.597-12.5-12.5-12.5zm2.02 6.174h.872v3.279c0 .102.02.175.056.219.036.046.096.069.178.069.064 0 .145-.031.244-.09.098-.061.188-.138.269-.232v-3.245h.874v4.276h-.874v-.472c-.16.174-.327.307-.502.398-.174.09-.342.137-.507.137-.203 0-.354-.065-.457-.192-.102-.126-.153-.316-.153-.573v-3.573zm-3.244.978c0-.33.117-.594.352-.792.236-.194.552-.293.948-.293.362 0 .658.104.89.31.229.206.345.474.345.801v2.208c0 .367-.114.653-.339.861-.227.207-.539.311-.936.311-.382 0-.688-.107-.917-.32-.229-.216-.344-.506-.344-.868v-2.217zm-2.38-2.497l.639 2.316h.062l.608-2.316h.999l-1.145 3.392v2.404h-.984v-2.297l-1.171-3.499h.99zm11.442 12.2c0 1.547-1.254 2.802-2.801 2.802h-9.734c-1.548 0-2.802-1.255-2.802-2.802v-2.253c0-1.548 1.254-2.802 2.802-2.802h9.734c1.547 0 2.801 1.254 2.801 2.802v2.253zM16.805 14.07c-.348 0-.63.105-.849.318-.22.211-.33.487-.33.821v1.745c0 .375.101.668.3.88.199.213.473.32.821.32.387 0 .677-.1.87-.3.196-.202.292-.502.292-.9v-.199h-.798v.177c0 .229-.027.377-.077.443-.051.066-.141.1-.27.1-.124 0-.212-.039-.263-.117-.05-.08-.075-.221-.075-.426v-.731h1.483v-.991c0-.367-.094-.648-.286-.846-.19-.195-.463-.293-.819-.293zm.307 1.527h-.686v-.393c0-.163.025-.28.08-.348.054-.072.142-.107.266-.107.118 0 .205.035.258.107.054.067.082.185.082.348v.393z"/></g></g><g transform="translate(5478)"><path d="M12.493.001c-6.902 0-12.5 5.596-12.5 12.499 0 6.903 5.598 12.5 12.5 12.5 6.903 0 12.499-5.596 12.499-12.5 0-6.903-5.596-12.499-12.499-12.499zm6.663 17.062c-.469.469-1.422.703-2.01.185l-5.704-4.398-.04-.045-.154-.181-.111-.159-.065-.2-.059-.213-.013-.062v-4.398c0-.608.845-1.614 1.476-1.614.63 0 1.524 1.006 1.524 1.614v3.868l4.891 3.665c.49.38.781 1.422.266 1.938z" fill="#fff"/></g><g transform="translate(5544)"><path d="M22.338 2.525l-2.128 2.1 2.662 2.618 2.128-2.1-2.662-2.618zm-3.192 3.15l-10.104 9.974v2.626h2.675l10.091-9.982-2.662-2.618zm-19.146 5.775v2.1h7.979v-2.1h-7.979zm0 9.45v2.1h20.745v-2.1h-20.745zm0-14.175v2.1h11.702v-2.1h-11.702zm0 9.45v2.1h5.851v-2.1h-5.851zm0-14.175v2.1h15.957v-2.1h-15.957z" fill="#fff"/></g><g transform="translate(5610)"><path d="M12.5 22.256c-3.72 0-6.747-3.015-6.747-6.722 0-3.707 3.026-6.721 6.747-6.721 3.72 0 6.747 3.015 6.747 6.721s-3.027 6.721-6.747 6.721zm-1.824-19.067c0-1.002.818-1.817 1.824-1.817 1.006 0 1.824.815 1.824 1.817 0 .62-.314 1.169-.791 1.497v-.605c0-.568-.462-1.029-1.032-1.029-.57 0-1.033.46-1.033 1.029v.605c-.478-.328-.792-.877-.792-1.497zm3.025 2.956c1.172-.474 2.001-1.62 2.001-2.956 0-1.758-1.436-3.189-3.201-3.189-1.765 0-3.201 1.431-3.201 3.189 0 1.336.829 2.482 2 2.956-1.533.193-2.952.75-4.167 1.58l-.802-.798c-.738-.735-1.939-.735-2.677 0l-.097.097c-.738.735-.738 1.932 0 2.667l.866.862c-.901 1.447-1.422 3.154-1.422 4.981 0 5.227 4.253 9.465 9.5 9.465s9.5-4.238 9.5-9.465c0-4.822-3.619-8.802-8.299-9.39zm-1.201 10.316c-.512 0-.929-.416-.929-.926 0-.511.417-.926.929-.926s.929.415.929.926c0 .511-.417.926-.929.926zm2.957-5.121l-2.079 2.071c-.271-.111-.568-.173-.878-.173-1.272 0-2.306 1.031-2.306 2.297 0 1.267 1.035 2.298 2.306 2.298 1.272 0 2.306-1.03 2.306-2.298 0-.197-.025-.387-.072-.569l.041-.037 2.142-2.134c.403-.402.403-1.053 0-1.455-.403-.402-1.057-.402-1.46-.001z" fill="#fff"/></g><g transform="translate(5676)"><g fill="#fff"><path d="M11.435 9.538c-.214-.04-.431-.281-.626-.477-.249-.241-.478-.484-.951-.484-.283 0-.497.383-.497.696 0 1.077 1.132 1.327 2.405 1.327h.294v.353l.048.047h1.119l.039-.055v-.337l.22.031.251.008.39-.008c.776 0 1.712-.765 1.712-1.765 0-1.703-2.108-1.873-2.39-1.874h-.183v-.852l.2.078c.083 0 .368.118.519.204.239.14.61.804 1.215.805.322-.001.542-.368.542-.625 0-.836-.825-1.187-.927-1.218-.405-.133-1.286-.125-1.451-.125h-.098v-.173l-.024-.093h-1.154c-.03 0-.045.236-.044.274v.126h-.585c-.566 0-2.13.125-2.13 1.694 0 1.726 2.322 1.687 2.732 1.687v.813c-.059.007-.439-.032-.625-.055zm1.831-.797h.166c.087 0 .49.04.49.461 0 .337-.246.398-.471.398h-.185v-.859zm-1.392-1.702c-.127 0-.543-.066-.543-.464 0-.32.346-.375.439-.375h.289v.82l-.186.019zM20.904 3h-16.482v10h16.482v-10zm-.804 9.2h-14.874v-8.4h14.874v8.4zM20.98 14.2h-16.759l-4.02 4.8h24.799l-4.02-4.8zm-10.994 3.6l.837-1.6h3.154l.837 1.6h-4.827zM0 21h24.924v-1.2h-24.924v1.2z"/></g></g><g transform="translate(5742)"><path d="M8.706 7.87c0-1.79 1.475-3.241 3.294-3.241s3.294 1.451 3.294 3.241-1.475 3.241-3.294 3.241-3.294-1.451-3.294-3.241zm-4.706 0c0 1.53.446 2.958 1.214 4.167l6.932 12.963 6.645-12.963c.768-1.208 1.209-2.637 1.209-4.167 0-4.347-3.582-7.87-8-7.87s-8 3.524-8 7.87z" fill="#fff"/></g><g transform="translate(5808)"><path d="M12.5 25c-6.903 0-12.5-5.596-12.5-12.5 0-6.903 5.597-12.5 12.5-12.5s12.5 5.597 12.5 12.5c0 6.904-5.597 12.5-12.5 12.5zm0-24.003c-6.342 0-11.503 5.161-11.503 11.503 0 6.345 5.161 11.503 11.503 11.503 6.342 0 11.503-5.158 11.503-11.503 0-6.342-5.161-11.503-11.503-11.503zm-2.213 18.169l-.929-1.08-4.336-5.18 1.716-1.85 3.338 2.201 7.47-5.778 1.737 1.843-8.029 8.799-.967 1.045z" fill="#fff"/></g><g transform="translate(5874)"><path d="M20.139 14.435h1.389v1.391h-1.389v-1.391zm-3.472 0h1.389v1.391h-1.389v-1.391zm-3.472 0h1.389v1.391h-1.389v-1.391zm-10.417-2.087h4.861v3.478h-4.861v-3.478zm-2.778-1.391v6.957c0 1.153.959 2.087 2.143 2.087h20.714c1.183 0 2.143-.934 2.143-2.087v-6.957h-25zm2.143-6.957c-1.183 0-2.143.934-2.143 2.087v2.783h25v-2.783c0-1.153-.959-2.087-2.143-2.087h-20.714z" fill="#fff"/></g><g transform="translate(5940)"><path d="M12.5 0c-6.893 0-12.5 5.608-12.5 12.5s5.607 12.5 12.5 12.5 12.5-5.608 12.5-12.5-5.607-12.5-12.5-12.5zm-10.639 13.409h3.429c.063 1.293.259 2.518.569 3.643h-3.018c-.531-1.122-.87-2.35-.98-3.643zm11.549-7.281v-2.95c1.187.369 2.253 1.438 3.051 2.95h-3.051zm3.813 1.819c.357 1.106.591 2.34.666 3.643h-4.479v-3.643h3.813zm-5.632-4.769v2.95h-3.051c.798-1.512 1.863-2.581 3.051-2.95zm0 4.769v3.643h-4.479c.075-1.303.309-2.537.666-3.643h3.814zm-6.301 3.643h-3.429c.109-1.293.449-2.522.98-3.643h3.018c-.31 1.125-.506 2.351-.569 3.643zm1.822 1.819h4.479v3.643h-3.814c-.357-1.106-.591-2.34-.666-3.643zm4.479 5.462v2.95c-1.187-.369-2.253-1.438-3.051-2.95h3.051zm1.819 2.95v-2.95h3.051c-.798 1.512-1.863 2.581-3.051 2.95zm0-4.769v-3.643h4.479c-.075 1.303-.309 2.537-.666 3.643h-3.813zm6.301-3.643h3.429c-.11 1.293-.449 2.522-.98 3.643h-3.018c.31-1.125.506-2.351.569-3.643zm0-1.819c-.063-1.293-.259-2.518-.569-3.643h3.018c.531 1.122.87 2.35.98 3.643h-3.429zm1.356-5.462h-2.558c-.712-1.651-1.698-2.978-2.865-3.837 2.191.676 4.083 2.039 5.423 3.837zm-11.71-3.837c-1.167.858-2.153 2.186-2.865 3.837h-2.558c1.34-1.798 3.232-3.161 5.423-3.837zm-5.423 16.58h2.558c.712 1.651 1.698 2.978 2.865 3.837-2.191-.676-4.083-2.039-5.423-3.837zm11.71 3.837c1.167-.858 2.153-2.186 2.865-3.837h2.558c-1.34 1.798-3.232 3.161-5.423 3.837z" fill="#fff"/></g></svg>