<svg baseProfile="tiny" xmlns="http://www.w3.org/2000/svg" preserveAspectRatio="xMinYMin meet" viewBox="0 0 6204 66" width="6204" height="66"><path stroke="#449FDB" d="M0 0"/><path d="M11 0C8.24 0 6 2.24 6 5c0 .313.03.62.084.916L0 12v3c0 .552.448 1 1 1h1v-1h2v-2h2v-2h2l1.298-1.298c.53.192 1.105.298 1.702.298 2.76 0 5-2.24 5-5s-2.24-5-5-5zm1.498 5.002c-.828 0-1.5-.672-1.5-1.5s.672-1.5 1.5-1.5 1.5.672 1.5 1.5-.672 1.5-1.5 1.5zM76 3v7h-7v5h7v7h5v-7h7v-5h-7V3h-5zM136.905 5.804L136 6.836V25h8.718V13.37l-3.904-7.567h-3.91zm-126.393 8.734l-.39 1.13c-.3-.135-.847-.417-1.693-.417-.873 0-1.184.444-1.184.86 0 .506.447.79 1.505 1.207 1.395.516 2.147 1.18 2.147 2.274 0 1.045-.734 1.967-2.103 2.19v1.435h-.872v-1.192c-.784-.025-1.296-.417-1.744-.712v-1.154c.485.283 1.182.54 1.94.54.785 0 1.105-.38 1.105-.97 0-.553-.435-.91-1.356-1.242-1.308-.466-1.95-1.056-1.95-2.2 0-1.057.746-1.868 2.003-2.09v-.8h.872v.85c.784.024 1.32.098 1.717.295zm5.286-10.412c1.098 0 1.988-.924 1.988-2.063 0-1.14-.89-2.063-1.988-2.063-1.098 0-1.99.924-1.99 2.063.002 1.14.892 2.063 1.99 2.063zM19.24 5.44c-.24-.867-1.113-1.37-1.948-1.116-.616.184-1.037.726-1.12 1.345-.78 1.67-1.445 3.053-1.787 3.225-.71.358-1.487.733-1.488.734-.46.22-.66.79-.445 1.264.156.347.487.55.833.55.13 0 .26-.028.387-.09 0 0 .79-.38 1.514-.745.607-.306.712-.907 1.306-2.056l1.02 3.665v11.146c0 .902.705 1.633 1.574 1.633.87 0 1.914-.73 1.914-1.634v-11.61L19.24 5.44zM223 6.25l-8.91 6.25V8.928c-1.543-.06-14.252-1.785-16.033 3.572 0 0-1.853-9.65 16.035-8.928V0L223 6.25zm-214.09 9.822c1.544.062 14.253 1.785 16.034-3.572 0 0 1.853 9.65-16.035 8.928V25L0 18.75l8.91-6.25v3.572zM270.312 10.988c0-1.066.883-1.93 1.973-1.93s1.972.864 1.972 1.93c0 1.066-.883 1.93-1.972 1.93-1.09 0-1.973-.864-1.973-1.93zm-258.72-3.662c-.957.425-1.61-.98-.65-1.407 1.735-.773 4.486-1.12 6.412-.218.95.444.268 1.838-.68 1.393-1.367-.64-3.604-.426-5.08.23zM3.157 9.83L0 10.602v5.406s3.647 2.263 6.204 2.588c0 1.555.262 2.833.897 4.363h3.158s.833-.855 1.097-2.397c.797.35 4.75.594 6.004.078.28 1.185.45 1.853.79 2.318.913.09 3.154 0 3.154 0s1.06-2.75.718-4.364c1.31-1.17 3.2-3.35 2.96-6.683-.285-3.953-3.813-8.02-9.616-8.186-3.754-.108-5.69 1.28-5.69 1.28L6.316 2l-.004 4.74-3.156 3.09z" fill="#fff"/><path d="M331.33 17.66c.547.4 1.247.635 2.098.72V20h1.054v-1.62c.812-.096 1.49-.304 2.02-.635.416-.27.743-.645.98-1.127.23-.483.35-1.01.35-1.593 0-.84-.26-1.52-.78-2.025-.517-.505-1.374-.925-2.57-1.262v-3.13c.39.056.688.23.897.533.207.305.314.697.314 1.17h1.986c0-.97-.288-1.75-.863-2.346-.575-.59-1.354-.886-2.335-.886V6h-1.054v1.032c-1.004.095-1.787.41-2.34.948-.552.538-.83 1.245-.83 2.115 0 1.72 1.056 2.826 3.17 3.31v3.325c-.88-.157-1.348-.79-1.398-1.907H330v.14c0 1.167.44 2.064 1.33 2.698zm-327.9-9.05v2.822c-.84-.27-1.257-.73-1.257-1.386 0-.79.418-1.268 1.258-1.436zm1.054 5.06c.87.27 1.303.785 1.303 1.548 0 .79-.434 1.295-1.303 1.514V13.67zm11.776 4.535v-1.772h-4.657c.136-.303.333-.584.604-.853.27-.264.812-.7 1.635-1.318.947-.735 1.595-1.374 1.945-1.913.344-.54.52-1.2.52-1.98 0-1.11-.34-1.998-1.016-2.66-.675-.66-1.594-.993-2.75-.993-1.14 0-2.03.337-2.666 1.004s-.953 1.6-.953 2.8c0 .15.006.286.018.398h2.08v-.377c0-.644.136-1.15.412-1.507.27-.36.658-.545 1.155-.545.484 0 .862.163 1.138.488.27.326.412.77.412 1.33 0 .628-.17 1.144-.496 1.56-.335.414-1.107 1.065-2.314 1.94-.936.65-1.58 1.29-1.934 1.907-.36.622-.564 1.453-.61 2.49h7.478zm1.252-3.943c.057.527.164 1.05.333 1.56.164.515.384.936.66 1.273.27.336.637.605 1.094.807.45.202.99.303 1.61.303.586 0 1.105-.09 1.545-.275.44-.18.83-.482 1.178-.908.344-.42.61-1.01.79-1.762.18-.75.276-1.66.276-2.726 0-.69-.03-1.3-.08-1.828-.056-.527-.163-1.05-.327-1.57-.17-.522-.383-.948-.654-1.285-.27-.335-.633-.604-1.095-.817-.462-.208-1.003-.314-1.635-.314-.608 0-1.143.1-1.595.296-.456.202-.823.466-1.093.802-.277.337-.502.758-.67 1.262-.17.504-.283 1.026-.34 1.56-.056.53-.084 1.143-.084 1.827 0 .673.028 1.268.084 1.795zm2.763-5.452c.22-.213.53-.32.936-.32.397 0 .696.09.91.27.214.18.383.572.513 1.178.13.605.197 1.47.197 2.602 0 1.055-.063 1.862-.175 2.43-.113.565-.282.952-.502 1.154-.226.208-.536.31-.942.31-.393 0-.697-.09-.91-.276-.22-.185-.39-.567-.514-1.144-.124-.578-.186-1.414-.186-2.502 0-1.088.055-1.93.168-2.513.113-.585.282-.978.507-1.19z" fill="#e00000"/><path d="M396.988 16.33c.407.284.926.452 1.558.512V18h.783v-1.158c.6-.068 1.104-.216 1.497-.453.31-.194.553-.46.73-.807.17-.344.26-.72.26-1.138 0-.6-.194-1.085-.58-1.446-.385-.36-1.02-.66-1.91-.9V9.86c.29.04.512.164.667.38.155.217.234.497.234.834h1.473c0-.693-.212-1.25-.64-1.675-.426-.42-1.004-.632-1.733-.632V8h-.784v.737c-.745.068-1.327.293-1.738.677-.41.385-.615.89-.615 1.51 0 1.23.783 2.02 2.353 2.365v2.373c-.653-.112-1-.565-1.038-1.362H396v.1c0 .835.327 1.476.988 1.928zm-394.442-6.467v2.015c-.624-.192-.934-.52-.934-.99 0-.564.31-.905.934-1.025zm.783 3.614c.643.192.965.56.965 1.105 0 .565-.322.926-.967 1.082v-2.187zm8.747 3.24v-1.265h-3.46c.102-.216.248-.417.45-.61.2-.187.602-.5 1.214-.94.705-.525 1.187-.982 1.446-1.367.256-.384.386-.857.386-1.414 0-.79-.25-1.424-.753-1.897-.504-.473-1.186-.71-2.045-.71-.846 0-1.507.24-1.98.718-.474.478-.708 1.143-.708 2 0 .108.004.205.012.285h1.545v-.27c0-.46.1-.82.305-1.076.2-.258.49-.39.86-.39.36 0 .64.116.845.35.2.23.305.547.305.95 0 .447-.125.815-.368 1.112-.247.297-.82.762-1.717 1.387-.695.464-1.173.92-1.437 1.36-.268.445-.418 1.038-.452 1.78h5.553zm.93-2.817c.042.378.12.75.247 1.115.12.37.285.67.49.91.2.24.473.432.812.577.335.144.737.216 1.198.216.435 0 .82-.064 1.147-.196.33-.13.618-.345.877-.65.256-.3.453-.72.587-1.257.134-.537.205-1.186.205-1.947 0-.493-.02-.93-.06-1.307-.04-.374-.12-.747-.243-1.12-.125-.372-.284-.677-.485-.917-.2-.24-.468-.433-.812-.585-.343-.148-.745-.224-1.214-.224-.452 0-.85.072-1.185.212-.34.144-.612.333-.813.573-.205.24-.372.54-.498.9-.127.36-.21.734-.25 1.114-.044.38-.065.818-.065 1.306 0 .48.02.905.063 1.28zm2.052-3.893c.16-.152.39-.228.693-.228.293 0 .515.062.674.19.16.13.285.41.38.84.097.434.148 1.05.148 1.86 0 .754-.046 1.33-.13 1.735s-.21.68-.373.826c-.167.15-.398.22-.7.22-.292 0-.518-.063-.678-.195-.163-.133-.29-.405-.38-.818-.093-.412-.14-1.01-.14-1.787 0-.776.043-1.377.127-1.793.084-.417.21-.697.378-.85zm4.38 3.893c.04.378.12.75.246 1.115.12.37.285.67.49.91.2.24.473.432.812.577.335.144.737.216 1.198.216.435 0 .82-.064 1.147-.196.327-.13.616-.345.876-.65.253-.3.45-.72.584-1.257.134-.537.205-1.186.205-1.947 0-.493-.02-.93-.06-1.307-.04-.374-.12-.747-.243-1.12-.125-.372-.284-.677-.485-.917-.2-.24-.47-.433-.813-.585-.344-.148-.746-.224-1.215-.224-.452 0-.85.072-1.185.212-.338.144-.61.333-.812.573-.205.24-.372.54-.498.9s-.21.734-.25 1.114c-.043.38-.064.818-.064 1.306 0 .48.02.905.063 1.28zm2.05-3.893c.164-.152.394-.228.696-.228.293 0 .515.062.674.19.16.13.285.41.38.84.098.434.148 1.05.148 1.86 0 .754-.046 1.33-.13 1.735s-.21.68-.373.826c-.167.15-.398.22-.7.22-.292 0-.518-.063-.677-.195-.164-.133-.29-.405-.38-.818-.094-.412-.14-1.01-.14-1.787 0-.776.042-1.377.126-1.793.084-.417.21-.697.377-.85z" fill="#1e90ff"/><path d="M468.757 15.56v1.36h4.73v-1.36h-4.73zM-455.92 17.6v1.36h4.73V17.6H6.08zm0 2.04V21h4.73v-1.36H6.08zm-6.08 0V21h4.73v-1.36H0zm0-2.04v1.36h4.73V17.6H0zm.676-2.04v1.36h4.73v-1.36H.676zM0 13.52v1.36h4.73v-1.36H0zm1.35-4.08v1.36h4.73V9.44H1.35zm0 2.04v1.36h4.73v-1.36H1.35zm16.412 8.273l-3.804-4.222 1.242-1.344 2.42 1.55 5.03-4.146 1.386 1.537-6.274 6.626zM10.135 4v10.88h2.027v2.72h-.676V21H25V8.08L20.946 4h-10.81zm10.135.68l4.054 4.08H20.27V4.68zm-8.108 1.36h6.08v.68h-6.08v-.68zm0 2.04h6.08v.68h-6.08v-.68zm0 2.04h8.108v.68h-8.108v-.68zm0 2.04h6.08v.68h-6.08v-.68zM548.662 15.757c-1.844 0-3.338 1.493-3.338 3.334 0 1.844 1.494 3.337 3.337 3.337 1.847 0 3.34-1.493 3.34-3.335 0-1.84-1.493-3.333-3.337-3.333zm-528.308 4.853l-1.498-1.464.724-.635.803.85 1.652-1.65.646.635-2.325 2.266zm-8.138-3.263v1.02H16.2c.08-.418 0-.688 0-1.02h-3.984zm0 2.55v1.022l4.08-.003c-.162-.37.057-.605 0-1.02h-4.08zm5.618-4.097v-1.004h-5.618v1.02h5.263c.102-.08.242.057.353-.016zm1.648 7.67H3.532V8.674h7.15V1.53h9.195v13.266h1.533V0H9.328L2 7.233V25h19.41v-1.53h-1.928zM8.13 20.92v-1.183c1.332-.23 2.203-.94 2.203-1.97 0-1.042-.556-1.678-1.935-2.165-.985-.37-1.39-.613-1.39-.995 0-.324.232-.65.985-.65.835 0 1.368.268 1.67.395v-1.307c-.383-.186-.904-.348-1.68-.383l.146-.927H7.106v1.1c-1.24.242-1.958.95-1.958 1.968 0 1.123.93 1.702 2.17 2.12.856.288 1.226.566 1.226 1.006 0 .46-.45.715-1.112.715-.753 0-1.436-.242-1.923-.51l-.374 1.355c.442.256 1.194.465 1.97.5v.93l1.022-.002zM17.833 5.1h-5.618v1.02h5.618V5.1zm0 7.143h-5.618v1.02h5.618v-1.02zm0-4.592h-5.618v1.02h5.618V7.65zM604.45 13.618l9.633-7.526 1.796 1.812L605.664 18.4l-1 1.03-.96-1.063-5.438-6.016 1.774-1.817 4.408 3.086zM-581.5 0C5.596 0 0 5.596 0 12.5S5.596 25 12.5 25 25 19.404 25 12.5 19.404 0 12.5 0zM673.5 4l4.138-4-5.17 2.79L667.36.046 671.5 4h2zM-660 22.5h25v-18H0v18zM3 7h19v12.5H3V7zm19.79 15.982H2.708c-.282 0-.706.2-.706.518v1c0 .32.425.5.708.5h20.085c.286 0 .708-.18.708-.5v-1c0-.32-.42-.518-.71-.518zM9.237 24.495h-.982c-.19 0-.343-.23-.343-.505 0-.278.154-.503.34-.503h.985c.187 0 .342.225.342.503 0 .276-.155.505-.342.505zm2.507-.085h-.995c-.192 0-.348-.19-.348-.42 0-.235.156-.425.348-.425h.996c.192 0 .35.19.35.425 0 .23-.158.42-.35.42zm2.5 0h-.998c-.19 0-.347-.19-.347-.42 0-.235.157-.425.347-.425h.998c.194 0 .347.19.347.425 0 .23-.153.42-.347.42zm2.5 0h-1c-.19 0-.346-.19-.346-.42 0-.235.157-.425.347-.425h1c.193 0 .35.19.35.425 0 .23-.157.42-.35.42zM738.7 15.836c-.48.102-1.007.57-2.115 1.583-1.25-.598-2.96-2.187-3.764-3.125-.87-1.012-1.957-2.718-2.35-3.993 1.264-1.155 1.79-1.657 1.825-2.215.018-.3-.585-4.024-1.22-4.403l-.19-.123c-.405-.27-1.015-.674-1.694-.53-.164.034-.323.1-.473.197-.456.295-1.57 1.094-2.08 2.138-.313.65-.455 6.58 3.852 11.593 4.256 4.955 9.506 5.17 10.294 5.004l.022-.005.07-.02c1.064-.395 1.967-1.442 2.306-1.875.627-.797.18-1.747-.06-2.257l-.097-.212c-.286-.695-3.8-1.76-4.09-1.778l-.233.018zM-706 8.976v2.086c-2.49.02-3.06-.197-4.062-1.006 0 2.117.915 3.902 4.062 3.902v2.07l4.54-3.6L20 8.976zm-6 1.052V7.94c2.49-.018 3.06.2 4.06 1.007 0-2.117-.913-3.9-4.06-3.9V2.974l-5.48 3.6L14 10.028z" fill="#fff"/><g fill="#fff"><path d="M805.405 13.406l-2.155-3.504-.24 3 2.395.504zm-793.93-6.324l4.307 6.824 1.632.344-5.784-9.116-.155 1.948zM14.8 4.924h.132l-.014.182-.12-.182zm-.977-1.485c.483-1.053 1.122-1.753 1.79-2.14-.134.35-.223.695-.28.933-.148.61-.27 1.355-.36 2.234H14.5l-.676-1.03zm-.935-1.428c.353-.22.726-.406 1.112-.56-.276.318-.53.685-.76 1.1l-.353-.54zm8.8 12.787C23.628 13.48 25 11.25 25 8.117 25 2.722 20.928.003 16.9 0h-.04c-1.534.006-3.052.39-4.367 1.18l-.588 1.04L20.1 14.93l1.633-.1-.044-.03zm-1.135-1.108c.368-.67.666-1.466.873-2.38h2.014c-.56 1.27-1.458 2.24-2.535 2.907l-.014-.01-.337-.518zm-1.562-2.38h1.49c-.136.56-.31 1.057-.51 1.493l-.98-1.494zm-2.096-3.195h1.16c-.003.318-.015.938-.05 1.688l-1.11-1.688zm1.157-.457h-1.455l-.826-1.258c.02-.53.05-1.023.09-1.478h2.063c.093 1.11.122 2.164.13 2.737zm-1.82-5.214c.08-.328.328-1.26.653-1.516.547.43.84 1.984.997 3.538h-1.977c.085-.804.198-1.478.33-2.022zm4.6 5.672c0 1.032-.09 1.942-.246 2.737h-1.702c.082-1.155.096-2.193.097-2.737h1.852zm-.35-3.194c.195.785.317 1.695.344 2.737H18.98c-.002-.537-.018-1.584-.114-2.735h1.618zm-2.3-3.628c.868.5 1.686 1.527 2.18 3.17h-1.536c-.114-1.13-.31-2.307-.644-3.17zm5.894 6.822c0 1.02-.16 1.934-.45 2.737h-2.1c.153-.826.235-1.74.235-2.737h2.313zm-.632-3.194c.35.794.57 1.707.62 2.737h-2.31c-.026-1-.14-1.915-.326-2.735h2.016zm-3.63-3.46c1.41.567 2.638 1.567 3.408 3.004h-1.907c-.342-1.256-.862-2.265-1.5-3.003zM806.848 18.052c1.117-.008 4.216 1.695 4.538 2.1.646.816.675 1.843.164 2.66-.857 1.365-2.687 2.184-3.427 2.188-1.896.01-7.112-.83-11.45-5.704-5.046-5.67-4.88-12.38-4.51-13.116.594-1.18 1.897-2.084 2.437-2.417.56-.35 1.536-.337 1.9-.024 1.366 1.17 2.402 3.328 2.29 5.52-.03.61-.674 1.3-2.137 2.506.46 1.442 1.734 3.373 2.755 4.518.944 1.06 2.947 2.86 4.41 3.533.606-.535 1.983-1.758 3.03-1.765z"/></g><path d="M868.52 18.064l.118.253c.105.33.5 4.713-.098 5.34l-.18.2c-.423.493-1.215 1.41-2.306 1.068-.592-.186-2.06-.728-2.92-1.738l-.05-.07-.014-.02c-.508-.805-2.52-6.745.793-13.677 3.347-7.014 9.54-9.48 10.347-9.42 1.294.104 2.595.992 3.095 1.37.163.123.3.27.406.44.44.69.28 1.55.173 2.12l-.047.266c-.12.874-3.715 3.194-4.033 3.307-.59.21-1.333-.155-3.066-1.05-1.15 1-2.452 2.967-3.128 4.385-.627 1.312-1.543 3.918-1.627 5.572 1.52.786 2.227 1.165 2.537 1.654zM941.46 1.425L940.405.372c-.497-.496-1.31-.496-1.806 0l-14.228 14.23c-.496.496-.496 1.31 0 1.805l1.053 1.053L941.46 1.424zm-916.832 7.17l-5.58-5.58L3.018 19.05l5.577 5.578c.497.496 1.31.496 1.805 0L24.627 10.4c.496-.497.496-1.31 0-1.806zM1006.338 10.56c-1.526-1.527-3.56.2-3.812.45l-.305.306-.76-.763.18-.18c.07-.073.573-.363.785-.42.34-.09 1.264.176 1.805-.363.286-.288.152-.813-.08-1.044-.748-.75-1.798-.33-1.918-.266-.48.243-1.365 1.142-1.513 1.29l-.09.087-.21-.21c-.05-.05-.083-.084-.105-.063l-.923.923c-.026.026.003.082.038.117l.17.168-.274.274-.25.248c-.504.505-1.736 1.96-.33 3.368 1.548 1.547 3.752-.39 4.118-.757l.728.73c-.046.057-.42.362-.606.507-.226.156-.687.183-1.036.18-.44.007-.86-.006-1.283.416-.252.253-.108.78.173 1.06.966.967 2.2.18 3.335-.955l.257-.257.182.182c.035.036.075.023.092.006l.897-.896c.013-.014.027-.043-.015-.085l-.168-.167s.164-.108.225-.168c.104-.105.26-.246.337-.324.074-.074.258-.272.34-.355.693-.695.913-2.146.016-3.04zm-995.2 1.77c-.113.113-.578.493-.935.136-.287-.287-.027-.645.055-.728l.31-.31.735.736-.165.166zm3.51 1.082l-.166.165-.77-.77.148-.15c.078-.077.614-.542.992-.164.302.302-.004.72-.205.918zM15.33 0L0 15.33 9.67 25 25 9.67 15.33 0zM1.825 15.33L15.33 1.825l7.846 7.845L9.67 23.175 1.823 15.33zM1064 7h9c1.105 0 2 .895 2 2v4c0 1.105-.895 2-2 2h-.7l-6.32 5.132 2.645-5.132H1064c-1.104 0-2-.895-2-2V9c0-1.105.896-2 2-2zm-1051.507-7C5.59 0-.007 5.598-.007 12.5c0 6.904 5.598 12.5 12.5 12.5 6.903 0 12.5-5.596 12.5-12.5 0-6.903-5.597-12.5-12.5-12.5zM1128.674 8l.826-2.348.826 2.348H1133l-2.164 1.652.828 2.348-2.164-1.653-2.164 1.653.828-2.348L1126 8h2.674zM-1122 12.5c0 .508.03 1.008.09 1.5h24.82c.06-.492.09-.992.09-1.5 0-.168.007-.334 0-.5H13v-2h11.75c-.14-.69-.337-1.357-.585-2H13V6h10.18c-2.195-3.598-6.157-6-10.68-6C5.596 0 0 5.596 0 12.5zM23.73 18c.313-.638.573-1.306.775-2H.5c.202.694.462 1.362.775 2H23.73zM2.5 20c2.28 3.036 5.91 5 10 5s7.724-1.964 10.005-5H2.5zM1212.873 15.97c0-3.48-3.14-6.302-7.015-6.302-3.875 0-7.016 2.822-7.016 6.303 0 3.483 3.14 6.304 7.016 6.304.645 0 1.27-.08 1.864-.225 1.755.672 4.212 1.703 5.278 2.56 0 0-1.332-2.41-2.1-4.255 1.222-1.134 1.973-2.68 1.973-4.383zm-1212.65-5.423c0 2.85 1.328 5.437 3.487 7.335C2.353 20.968 0 25 0 25c1.883-1.433 6.22-3.158 9.32-4.285.42.098.848.177 1.283.237-.966-1.337-1.53-2.952-1.53-4.693 0-4.613 3.96-8.35 8.848-8.35 2.88 0 5.44 1.3 7.054 3.31.017-.224.027-.45.027-.675C25 4.723 19.455 0 12.613 0S.224 4.722.224 10.546z" fill="#fff"/><path stroke="#449FDB" d="M1254 0"/><path d="M1267.5 2l-7.5 7.5-3.5-3.5-2.5 2.5 6 6 10-10zM1324.234 7.764L1328.47 12l-4.235 4.235 3.53 3.53L1332 15.53l4.235 4.234 3.53-3.53L1335.53 12l4.234-4.235-3.53-3.53L1332 8.47l-4.236-4.235-3.53 3.53z" fill="#fff"/><path stroke="#449FDB" d="M1386 0"/><path d="M1401.854 12.854L1397 8l4.854-4.854c.052-.052.09-.113.114-.178.066-.178.028-.386-.114-.53l-2.294-2.29c-.142-.144-.35-.18-.528-.115-.065.024-.126.062-.178.114L1394 5l-4.854-4.854c-.052-.052-.113-.09-.178-.114-.178-.066-.386-.03-.53.114l-2.29 2.294c-.144.142-.18.35-.115.528.024.065.062.126.114.178L1391 8l-4.854 4.854c-.052.052-.09.113-.114.178-.066.178-.03.386.114.53l2.293 2.292c.14.143.35.18.527.114.065-.024.126-.062.178-.114L1394 11l4.854 4.854c.052.052.113.09.178.114.178.066.386.03.53-.114l2.292-2.293c.143-.14.18-.35.114-.527-.024-.065-.062-.126-.114-.178zM1463 16h-4v-1h1v-1h1v-1h1v-1h1v-1h1v-1h1v1h1v1h1v1h1v1h1v1h1v1h-4v4h-3v-4zm-1452-8V5h3v3h-3zm1.5-8C5.596 0 0 5.596 0 12.5S5.596 25 12.5 25 25 19.404 25 12.5 19.404 0 12.5 0zM1542.897 13.647l-.314-.818-21.1 7.32.316.817c.305.81 1.224 1.23 2.052.94l18.11-6.28c.825-.29 1.246-1.174.934-1.98zM-1496.8 4.03c-.308-.805-1.227-1.227-2.057-.94L1.04 9.372c-.83.29-1.25 1.173-.936 1.982l2.518 6.553 21.103-7.32L21.2 4.03zm-8.533 8.078l.227.67-.762.252-.208-.613c-.477.128-.974.152-1.28.106l-.086-.98c.35.045.813.054 1.275-.098.334-.11.544-.28.473-.49-.07-.205-.306-.267-.86-.253-.806.01-1.435-.158-1.66-.822-.203-.6.057-1.212.762-1.61l-.205-.606.762-.25.187.552c.468-.13.814-.142 1.088-.123l.083.946c-.205-.015-.577-.06-1.086.106-.394.13-.468.307-.42.45.057.166.327.217.955.23.934-.007 1.37.267 1.572.866.208.612-.064 1.257-.817 1.665zM1599.705 10.395l6.493 6.102h-11.74v1.748h11.74l-6.493 6.1.692.655h1.195l7.408-6.993v-1.273l-7.408-6.994h-1.195l-.692.655zm-1590.41-8.74L8.603 1H7.408L0 7.993v1.273l7.408 6.993h1.195l.692-.656-6.493-6.1h11.74v-1.75H2.802l6.493-6.1zM1664.5 5.882h-7.5v1.96h7.5v-1.96zM-1643 19.118h11v-8.824H7v8.824zm6-6.863h3v1.96h-3v-1.96zm0 2.94h3v1.962h-3v-1.96zm-4-2.94h3v1.96H9v-1.96zm0 2.94h3v1.962H9v-1.96zM16.186 0H1v25h23V6.653L16.186 0zM21 22.06H4V2.94h10.184L21 8.5v13.56zM1737.51 20.546c-.262-.404-.81-.524-1.227-.27-1.817 1.11-3.92 1.7-6.077 1.7-6.3 0-11.427-4.982-11.427-11.102 0-3.754 1.93-7.226 5.164-9.288.41-.262.525-.797.255-1.196-.27-.4-.82-.51-1.233-.248-3.737 2.382-5.967 6.394-5.967 10.732 0 5.72 3.876 10.578 9.21 12.227-1.51.42-2.595 1.1-2.91 1.9h12.71c-.277-.7-1.152-1.313-2.382-1.735 1.267-.33 2.482-.84 3.603-1.526.417-.256.54-.79.28-1.193zM-1702.083 1.138c-5.568 0-10.083 4.385-10.083 9.795s4.515 9.795 10.083 9.795c5.568 0 10.083-4.385 10.083-9.795s-4.515-9.795-10.083-9.795zm4.264 12.807c.003.154-.053.394-.12.533l-.737 1.51c-.068.138-.22.337-.334.443l-2.398 2.176c-.115.105-.08.19.078.19h.275c.158 0 .288.112.288.246 0 .137-.13.247-.287.247h-1.178c-.16 0-.288-.127-.288-.28v-2.98c0-.156.13-.28.288-.28h.327c.16 0 .288-.127.288-.28v-.32c0-.153-.13-.28-.288-.28h-.327c-.16 0-.288-.125-.288-.278v-1.745c0-.154-.13-.28-.29-.28h-.486c-.157 0-.393-.072-.522-.162l-1.55-1.065c-.13-.088-.302-.27-.382-.403L9.52 9.74c-.08-.132-.275-.24-.434-.24H8.74c-.16 0-.345-.114-.413-.252l-.84-1.69c-.07-.14-.126-.38-.126-.533V6.06c0-.153-.122-.243-.273-.197l-.338.1c1.462-1.986 3.776-3.34 6.42-3.557V3.57c0 .153.106.35.235.44l.54.368c.13.09.364.16.523.16h.427c.16 0 .288.103.288.227 0 .124-.09.317-.198.43l-.615.63c-.11.11-.07.202.09.202h.41c.157.002.287.128.287.282l-.002 1.003c0 .154.13.28.288.28h.463c.16 0 .29.096.29.213 0 .117-.13.212-.29.212h-1.42c-.158 0-.39.076-.517.17l-.584.43c-.126.093-.23.296-.23.45v1.672c0 .154-.128.28-.286.28h-.08c-.158 0-.288-.126-.288-.28v-.96c0-.155-.13-.28-.288-.28h-.777c-.158 0-.288.125-.29.28l-.003.776c0 .154.1.36.224.455l1.147.896c.122.097.353.176.512.176l1.915.002c.16 0 .403.06.543.13l2.44 1.24c.14.07.256.254.256.41v.083h.003zm-.74-8.385c-.125.09-.36.166-.52.166H16.8c-.158 0-.288-.126-.288-.28v-.91c0-.154-.13-.28-.288-.28h-.418c-.158 0-.287-.126-.287-.28V2.52c1.378.247 2.647.804 3.72 1.597-.036.12-1.796 1.445-1.796 1.445z" fill="#fff"/><g fill="#fff"><path d="M1791.314 14.325l-5.003.007c-.754-.438-1.427-1.015-1.97-1.73l6.96-.002-.002-1.916-7.962.003c-.176-.53-.296-1.105-.35-1.726l8.32.003-.006-1.923h-2.04V5.31l2.054-.01.08-1.03c0-.295.085-.64.21-.884l-2.344.004V1.665h4.412c.452.203.884.45 1.284.74h1.48C1794.833.798 1792.57 0 1790.333 0c-4.116 0-8.333 2.71-8.333 8.173 0 5.464 4.217 8.173 8.333 8.173.164 0 .817-.003.98-.012v-2.01zm-1787.957-9.728l.63-1.978.63 1.976H6.66L5.008 5.82l.632 1.977-1.653-1.222-1.652 1.222.632-1.978-1.652-1.224h2.042zM1806.16 3.365h-13.053c-.447 0-.812.488-.812.914v19.945c0 .426.365.774.812.774h13.082c.446 0 .81-.35.81-.775V4.28c0-.427-.364-.915-.81-.915h-.028zM-1764.334 24.4c-.746 0-1.354-.58-1.354-1.29 0-.71.61-1.29 1.355-1.29s1.354.58 1.354 1.29c0 .71-.61 1.29-1.354 1.29zm5.864-3.984c0 .406-.35.738-.774.738H12.54c-.427 0-.775-.332-.775-.738V5.546c0-.406.348-.738.774-.738h10.215c.425 0 .773.332.773.737v14.87zm-10.295-.704h8.824V6.25h-8.826v13.462z"/></g><path d="M1848 23v-5.793h2.94v2.896h19.12v-2.896h2.94V23h-25zM-1843.037 9.24h3.125V2h8.824v7.24h3.125L12.5 16.484 4.963 9.24zM1917.583 6.5h17.834l-8.917 7.408-8.917-7.408zM-1889.757 5H.758l-.247.244c-.182.085-.354.19-.51.313l.107.088L0 5.75v13.5l.758.75h23.484l.758-.75V5.75l-.106-.105.106-.088c-.155-.122-.327-.228-.51-.313L24.24 5zM3.293 18.5l4.274-3.472L6.37 14l-4.855 3.94V6.816l10.45 8.685.535.435.536-.434 10.45-8.684V17.94L18.628 14l-1.202 1.032L21.7 18.5H3.293zM2004.795 19.194l-7.695-6.614 7.795-6.763c.06.16.105.328.105.51V18.48c0 .263-.084.498-.205.714zM-1978.28 5.027L1.855 5h21.582l.217.043-11.005 9.384-10.928-9.4zM.142 19.1C.055 18.91 0 18.7 0 18.48V6.327c0-.208.045-.406.12-.587l8.078 6.816L.142 19.1zm12.502-2.642l3.294-2.866L23.366 20H1.856l-.083-.016 7.588-6.41 3.283 2.884z" fill="#fff"/><path stroke="#449FDB" d="M2046 0"/><path d="M2052 8h-5V6h5V4l3 3-3 3zm-2036-8v13l-6 3v-3H4V9h1v3h5V3l4-2H5v4H4V0z" fill="#fff"/><path stroke="#449FDB" d="M2112 0"/><path d="M2124 10V8h-5V6h5V4l3 3zm-2113-1v4H6v3l-6-3V0h11v5h-1V1H2l4 2v9h4V9zM2192 10v4h4v1h-1v1h-1v1h-1v1h-1v1h-1v1h-1v-1h-1v-1h-1v-1h-1v-1h-1v-1h-1v-1h4v-4h3zm-2181-2V5h3v3h-3zm1.5-8C5.596 0 0 5.596 0 12.5S5.596 25 12.5 25 25 19.404 25 12.5 19.404 0 12.5 0z" fill="#fff"/><g fill="#84c2ff"><path d="M2254.885 10.885v3.23h7.27v-3.23h-7.27zm-2245.616 3.23v-3.23H6.04l-.002 3.23h3.23zM2262.558 12.096h.808v1.615h-.808zm-2247.23-3.23h.807v8.076h-.808zm-.808-.808h.807v9.692h-.808zm2.422 3.23h.808v3.23h-.808zm-.808-1.615h.808v6.46h-.808zm.808.807h.808v4.847h-.808z"/></g><path d="M2246 12.5c0-5.8 4.7-10.5 10.5-10.5s10.5 4.7 10.5 10.5-4.7 10.5-10.5 10.5-10.5-4.7-10.5-10.5z" stroke="#fff" stroke-width="2" fill="none"/><path d="M2318.652 8.715l.015-.216c0-1.347.46-2.466 1.172-3.346.71-.88 1.61-1.333 2.7-1.333 1.016 0 1.866.39 2.55 1.158.686.766 1.03 1.71 1.03 2.84 0 .792-.153 1.42-.445 1.9-.305.476-.965 1.143-1.98 1.998-1.28 1.094-2.066 2.1-2.548 3.03-.482.93-.723 2.062-.723 3.37l.01.473 4.663.016c0-1.12.018-1.892.27-2.32.255-.427.435-1.024 1.463-1.753 1.587-1.12 2.666-2.15 3.237-3.08.57-.93.933-2.125.933-3.57 0-2.327-.87-4.225-2.444-5.684-1.586-1.458-3.63-2.2-6.13-2.2-2.56 0-4.59.61-6.063 2.08-1.486 1.484-2.363 3.668-2.363 6.635h4.652zM-2294.915 25v-4.645h-4.66V25h4.66zM2378.34 16.69c.448-.31 1.696-.815 2.583-.814.598.002 1.203.11 1.905.43.702.317 1.772 1.135 2.18 2.067.41.932.617 2.07.625 2.23 2.01.243 4.063-.436 5.54-2.046.884-.966 1.437-2.14 1.682-3.38-.927.93-1.78 1.5-3.223 1.772-.63.116-1.145.147-1.752.116-.747-.038-1.686-.343-2.39-.677-.55-.263-1.31-.693-2.04-1.676-.312-.42-.557-.678-.957-1.592-.4-.913-.584-2.482-.572-3.053.024-1.095.22-1.77.57-2.596l.01-.022c.07-.167.15-.332.236-.494.274-.523.61-1.02 1.023-1.47 1.27-1.39 2.956-2.096 4.643-2.114.254 0 .768-.466.996-.85-2.967-.564-6.32.545-8.776 3.225-2.884 3.15-3.676 7.53-2.284 10.94zM-2375 20.86C1 23.147 2.756 25 4.923 25c2.166 0 3.923-1.854 3.923-4.14 0-2.287-1.757-4.14-3.923-4.14C2.756 16.72 1 18.574 1 20.86zM21.66 8.31c-.448.31-1.696.815-2.583.813-.598 0-1.203-.11-1.905-.428S15.4 7.56 14.992 6.627c-.41-.932-.617-2.07-.625-2.23-2.01-.243-4.063.436-5.54 2.046-.884.966-1.437 2.14-1.682 3.38.927-.93 1.78-1.5 3.223-1.772.63-.116 1.145-.147 1.752-.116.747.038 1.686.343 2.39.677.55.263 1.31.693 2.04 1.676.312.42.557.678.957 1.592.4.913.584 2.482.572 3.053-.024 1.095-.22 1.77-.57 2.596l-.01.022c-.07.167-.15.332-.236.494-.274.523-.61 1.02-1.024 1.47-1.27 1.39-2.955 2.096-4.64 2.114-.255 0-.77.466-.998.85 2.966.564 6.32-.545 8.775-3.225 2.883-3.147 3.675-7.53 2.283-10.94zM23 4.14C23 1.854 21.244 0 19.077 0c-2.166 0-3.923 1.853-3.923 4.14s1.757 4.14 3.923 4.14C21.244 8.28 23 6.427 23 4.14zM2462.225 14.818c-2.8-6.083-.993-8.034-.975-8.053.032-.032.036-.083.012-.12-.026-.04-.074-.053-.116-.036-.04.014-3.938 1.643-3.446 5.253-1.07-.964-6.063-5.91-3.01-11.722.02-.035.014-.08-.013-.11-.03-.03-.072-.04-.107-.024-.067.028-1.626.695-2.866 2.383-1.146 1.552-2.21 4.3-.777 8.555.524 2.002-.46 3.624-.99 4.313.13-.476.294-1.28.268-2.203-.044-1.353-.53-3.22-2.605-4.427-.033-.018-.073-.016-.104.007-.033.024-.046.06-.037.1.004.036.78 3.59-.58 5.235-1.178 1.418-2.33 3.888-1.706 6.174.522 1.913 2.155 3.374 4.855 4.34.69.213 1.353.375 2.085.512.046.01.094-.018.11-.065.012-.05-.01-.097-.054-.117-1.385-.604-2.815-1.858-1.752-4.408 1.01-2.198.83-3.33.627-3.817.523.295 1.56 1.063 1.302 2.41-.008.04.01.08.046.1.033.022.076.02.108-.007.035-.025 3.156-2.602 1.738-5.76.7.407 2.554 1.82 1.46 5.07-.364 1.396.63 2.4.67 2.443.033.03.082.037.12.01.037-.022.053-.07.037-.114-.033-.087-.772-2.087.833-3.19-.086.513-.22 1.782.355 2.474.515.624 1.013 1.645.86 2.642-.105.7-.518 1.293-1.23 1.756-.043.03-.058.08-.037.123.02.045.072.065.118.05 1.76-.584 4.072-1.745 5.08-3.96.742-1.632.648-3.588-.28-5.818zM2524.897 5.023c-.71 1.06-2.467.853-2.467.853s.443-1.5 1.39-1.975c1.038-.52 1.58.375 1.077 1.124zm-2505.724.58c1.11-1.9.162-4.47-2.865-4.203-3.605.318-3.354 5.94-3.354 5.94s5.13.128 6.22-1.736zM7.088 4.487c-.62-.922.048-2.025 1.327-1.38 1.166.584 1.712 2.43 1.712 2.43s-2.164.253-3.04-1.05zM7.814.024c-3.73-.33-4.896 2.836-3.53 5.178 1.34 2.295 7.66 2.138 7.66 2.138s.31-6.923-4.13-7.316zM2 10.762v1.308c0 .582.15 1.12.48 1.552H11V8.18H4.505C3.07 8.18 2 9.342 2 10.762zM14 25h4.804C20.598 25 22 23.127 22 21.352v-6.74h-8V25zM3 21.495C3 23.27 4.468 25 6.262 25H11V14.61H3v6.885zM20.456 8.18H14v5.442h8.536c.332-.432.464-.97.464-1.552v-1.308c0-1.42-1.11-2.582-2.544-2.582zM2581.61 18.742l.427.583 6.445 1.294.69-.29 1.067-2.172 5.726 1.344.004 1.498h3.03V4h-3.03l-.003.984-19.695 4.622V8.384H2574v8.048h2.273v-1.55l6.086 1.43-.75 2.43zm-2572.71-.226l.522-1.86 5.672 1.266-.83 1.672L8.9 18.516zM2653.793 9.483v10.345h-2.586V9.483h2.586zM-2628.793 7.76V5.17h2.586v2.59h-2.586zM12.5 0C5.596 0 0 5.596 0 12.5S5.596 25 12.5 25 25 19.404 25 12.5 19.404 0 12.5 0z" fill="#fff"/><g transform="translate(2706)"><defs><filter id="a" x="-100%" y="-100%" width="300%" height="300%"><feOffset result="out" in="SourceGraphic" dx=".719" dy=".695"/><feColorMatrix result="out" in="out" values="0 0 0 0 0 0 0 0 0 0 0 0 0 0 0 0 0 0 0.251 0"/><feGaussianBlur result="out" in="out"/><feBlend in="SourceGraphic" in2="out" result="Drop_Shadow1"/></filter></defs><path d="M3.5 10.033h1.345V2.48H3.5v7.553zM8.284 4.8l4.21 5.233h1.073V2.48H12.31v5.255L8.1 2.48H7.026v7.553h1.257V4.8zm7.948 11.266c-1.465 0-2.56 1.09-2.56 2.654 0 1.51 1.128 2.655 2.56 2.655 1.608 0 2.57-1.166 2.57-2.655 0-1.564-1.126-2.654-2.57-2.654zm3.412-3.44H15.99V2.388C15.99 1.074 14.903 0 13.57 0H3.42C2.09 0 1 1.074 1 2.388v17.838C1 22.85 3.178 25 5.84 25h13.803L24 18.813l-4.356-6.187zM1.512 10.693V2.388c0-1.038.856-1.883 1.908-1.883h10.15c1.053 0 1.908.845 1.908 1.883v10.238H4.872c-1.435 0-2.69-.782-3.36-1.933zm8.98 10.865c-.677.67-1.913 1.058-2.865 1.058-2.504 0-3.99-1.543-3.99-3.896 0-2.17 1.475-3.895 3.815-3.895 1.094 0 1.838.28 2.46.766l-.568 1.06c-.382-.356-1.06-.583-1.727-.583-1.477 0-2.56.97-2.56 2.654 0 1.61 1.04 2.656 2.592 2.656.59 0 1.3-.248 1.584-.518V19.67H7.387v-1.24h3.106v3.128zm5.74 1.058c-2.274 0-3.98-1.543-3.98-3.896 0-2.19 1.63-3.895 3.98-3.895 2.275 0 3.992 1.543 3.992 3.895 0 2.267-1.717 3.896-3.992 3.896zm5.382 1.52h.334V25h.255v-.864h.334V23.9h-.923v.236zm1.698.228l-.344-.464h-.256V25h.255v-.696l.31.424h.035l.31-.43V25h.256v-1.1h-.24l-.326.464z" filter="url(#a)" fill="#fff"/></g><g fill="#fff"><path d="M2777.374 8.664l-2.342-.004.802.787.003.596c0 .462.393.835.878.835v2.758l.743.347v-.525l1.335-1.272v-.613c.484 0 .877-.375.877-.836l.003-.596h-.777l-1.522-1.475zm-2775.09-.004h.748v-.893h.89c.366 0 .663-.283.663-.632h.76l.793-.756v-.704l-.786-.748h-.8v.62H3.78c-.412 0-.746-.317-.746-.71 0-.393.334-.712.746-.712v-.73h-.69C4.426 2 6.355 1.123 8.498 1.123c1.6 0 3.078.49 4.28 1.32h1.795C13.03.936 10.877 0 8.498 0 3.812 0 0 3.633 0 8.1c0 4.465 3.812 8.098 8.498 8.098.268 0 .532-.01.794-.035v-1.127c-.26.027-.525.04-.794.04-4.043 0-7.32-3.123-7.32-6.977 0-.316.023-.624.065-.926L2.285 8.66zm5.81.034c0 .705.51 1.294 1.198 1.455V7.714h-.675c-.288 0-.522.224-.522.5v.478zM5.72 2.547l-.573.83.325.475.007.744.785.75.47-1.03c.764 0 1.383-.59 1.383-1.318l-2.398-.45zM2796.16 3.365h-13.053c-.447 0-.812.488-.812.914v19.945c0 .426.365.774.812.774h13.082c.446 0 .81-.35.81-.775V4.28c0-.427-.364-.915-.81-.915h-.028zM-2754.334 24.4c-.746 0-1.354-.58-1.354-1.29 0-.71.61-1.29 1.355-1.29s1.354.58 1.354 1.29c0 .71-.61 1.29-1.354 1.29zm5.864-3.984c0 .406-.35.738-.774.738H12.54c-.427 0-.775-.332-.775-.738V5.546c0-.406.348-.738.774-.738h10.215c.425 0 .773.332.773.737v14.87zm-10.295-.704h8.824V6.25h-8.826v13.462z"/></g><g fill="#fff"><path d="M2850 2.435c5.843 0 11.582 3.858 11.582 11.565H2863c0-8.67-6.553-13-13-13v1.435zM-2826 7.24c3.447 0 6.782 2.26 6.782 6.76h1.403c0-5.463-4.148-8.185-8.185-8.185V7.24zm0 4.353c1.33 0 2.408 1.077 2.408 2.407h1.444c0-2.127-1.725-3.852-3.852-3.852v1.445zM2852.848 18.052c1.117-.008 4.216 1.695 4.538 2.1.646.816.675 1.843.164 2.66-.857 1.365-2.687 2.184-3.427 2.188-1.896.01-7.112-.83-11.45-5.704-5.046-5.67-4.88-12.38-4.51-13.116.594-1.18 1.897-2.084 2.437-2.417.56-.35 1.536-.337 1.9-.024 1.366 1.17 2.402 3.328 2.29 5.52-.03.61-.674 1.3-2.137 2.506.46 1.442 1.734 3.373 2.755 4.518.944 1.06 2.947 2.86 4.41 3.533.606-.535 1.983-1.758 3.03-1.765z"/></g><path d="M2927.485 16.43v1.968l-1.072 1.078h-19.826l-1.072-1.078v-1.97h21.97zm-2905.072-9.906l1.072 1.078v6.54H1.515v-6.54l1.072-1.078h19.826zM22.727 5H2.273l-.536.223L.222 6.747 0 7.287v11.427l.222.54 1.515 1.523.536.223h20.454l.536-.223 1.515-1.524.222-.54V7.287l-.222-.54-1.515-1.523L22.727 5zM3.03 9.952c0 1.052.848 1.905 1.894 1.905 1.046 0 1.894-.853 1.894-1.905S5.97 8.048 4.924 8.048c-1.046 0-1.894.852-1.894 1.904zM2982.5 0c-6.903 0-12.5 5.597-12.5 12.5 0 6.905 5.597 12.5 12.5 12.5s12.5-5.595 12.5-12.5c0-6.903-5.597-12.5-12.5-12.5zm-2970 24.003C6.158 24.003.997 18.846.997 12.5.997 6.158 6.157.997 12.5.997c6.342 0 11.503 5.16 11.503 11.503 0 6.346-5.16 11.503-11.503 11.503zM18.728 9.37l-3.13-3.087-3.17 3.115-3.174-3.115L6.126 9.37 9.3 12.482l-3.174 3.113 3.13 3.086 3.172-3.113 3.17 3.114 3.13-3.085-3.17-3.113 3.17-3.114z" fill="#fff"/><path stroke="#449FDB" d="M3036 0"/><path d="M3051.658 4.91l-1.58-1.58-1.41-1.41-1.578-1.58c-.386-.386-1.076-.455-1.532-.15l-4.32 2.88c-.455.303-.627.953-.382 1.443l1.1 2.203c.035.067.074.14.116.213l-5.572 5.57-.5 3.5h3v-1h2v-2h2v-2h2V9.888c.1.06.195.113.283.157l2.203 1.1c.49.246 1.14.073 1.444-.382l2.88-4.32c.304-.455.236-1.145-.152-1.532zm-3049.304 8.444l-.707-.707L6.515 7.78l.707.706-4.868 4.868zM14.328 6.62l-.707.708c-.192.194-.51.194-.705 0L8.67 3.085c-.193-.194-.193-.513 0-.707l.708-.707c.194-.192.513-.192.707 0l4.243 4.245c.194.194.194.513 0 .707zM3114.5 0c-6.908 0-12.5 5.598-12.5 12.5 0 6.903 5.592 12.5 12.5 12.5 6.9 0 12.5-5.597 12.5-12.5 0-6.902-5.598-12.5-12.5-12.5zM-3084 14h-4v4h-3v-4H7v-3h4V6.997h3v4h4v3zM3180.5.198c-6.17 0-12.5 4.092-12.5 12.302s6.33 12.302 12.5 12.302S3193 20.71 3193 12.5 3186.67.198 3180.5.198zm-3168 2.77c5.26 0 9.54 4.275 9.54 9.53 0 5.256-4.28 9.532-9.54 9.532-5.258 0-9.536-4.276-9.536-9.532 0-5.255 4.278-9.53 9.537-9.53zm9.15 10.14c.013-.2.022-.404.022-.61 0-.205-.01-.408-.023-.61h-1.46c.016.2.026.405.026.61 0 .207-.01.41-.026.61h1.457zm-2.796-4.98c.23.334.437.687.614 1.056l1.26-.727c-.18-.367-.384-.72-.61-1.058l-1.264.726zm-3.036-2.592c.37.177.723.383 1.057.614l.73-1.262c-.338-.227-.692-.43-1.06-.612l-.727 1.26zM12.233 13.5l3.812-2.2-.734-1.27-2.54 1.467-2.567-4.445-1.27.733 3.3 5.715zm-.343-8.686c.202-.017.405-.027.61-.027.207 0 .41.01.613.026V3.357c-.203-.014-.406-.023-.612-.023-.203 0-.407.01-.61.023v1.457zm-4.492.074l.73 1.262c.334-.23.687-.437 1.057-.614l-.728-1.26c-.367.18-.72.385-1.06.612zM9.185 19.46c-.37-.176-.723-.382-1.058-.613l-.73 1.262c.34.225.693.43 1.06.61l.728-1.26zM4.273 8.457l1.262.728c.176-.37.383-.722.613-1.057L4.886 7.4c-.227.336-.43.69-.613 1.056zm.51 4.043c0-.207.012-.41.028-.613H3.355c-.013.203-.022.406-.022.61 0 .207.01.41.023.612H4.81c-.015-.203-.026-.406-.026-.61zm1.365 4.37c-.23-.335-.437-.688-.613-1.057l-1.262.727c.182.367.386.72.613 1.058l1.262-.73zm6.965 3.313c-.202.017-.406.028-.612.028-.204 0-.407-.01-.61-.026v1.457c.203.015.407.024.61.024.208 0 .41-.01.614-.023v-1.456zm4.49-.074l-.728-1.264c-.334.23-.688.437-1.057.614l.728 1.26c.367-.18.72-.384 1.058-.61zm3.126-3.57l-1.263-.728c-.177.37-.383.722-.614 1.056l1.263.728c.227-.338.43-.69.612-1.058z" fill="#fff"/><path stroke="#449FDB" d="M3234 0"/><path d="M3235 3h14v3h-14zm-3234 4h14v3H1zm0 4h14v3H1z" fill="#fff"/><path stroke="#449FDB" d="M3300 0"/><path d="M3300 6.5v3c0 .276.224.5.5.5h15c.276 0 .5-.224.5-.5v-3c0-.276-.224-.5-.5-.5h-15c-.276 0-.5.224-.5.5zM3386.03 0h-15.09c-.52 0-.94.564-.94 1.056v23.05c0 .492.422.894.94.894h15.12c.518 0 .94-.402.94-.894V1.056c0-.492-.422-1.056-.94-1.056h-.03zm-3373.51 24.308c-.862 0-1.565-.67-1.565-1.49 0-.823.703-1.492 1.566-1.492.864 0 1.567.67 1.567 1.49 0 .822-.704 1.492-1.566 1.492zm6.78-4.605c0 .47-.402.852-.894.852H6.594c-.492 0-.894-.383-.894-.852V2.52c0-.47.402-.853.894-.853h11.812c.492 0 .894.383.894.852V19.7zM7.4 18.89h10.2V3.332H7.4V18.89zM3455.254 20h-21.508c-.964 0-1.746-.785-1.746-1.748V6.745c0-.965.782-1.745 1.746-1.745h21.508c.964 0 1.746.78 1.746 1.745v11.51c0 .965-.782 1.745-1.746 1.745zm-3431.57-11.95c0-.965-.782-1.746-1.746-1.746H3.062c-.964 0-1.746.78-1.746 1.745v8.9c0 .964.782 1.745 1.746 1.745h18.876c.964 0 1.746-.78 1.746-1.745v-8.9zm-3.062 9.34H4.378c-.965 0-1.746-.395-1.746-1.358v-6.68c0-.962.78-1.743 1.746-1.743h16.244c.965 0 1.746.78 1.746 1.742v6.294c0 .963-.78 1.744-1.746 1.744zM7.237 12.175H4.605v1.304h2.632v-1.305zm5.18-3.295c-2.01 0-3.645 1.63-3.645 3.64 0 2.012 1.633 3.642 3.644 3.642 2.015 0 3.645-1.63 3.645-3.64 0-2.013-1.63-3.643-3.642-3.643zm7.978 3.294h-2.632v1.304h2.632v-1.304zm-7.49-.025c.846.296.926.694.926 1.34 0 .632-.512 1.164-1.33 1.3v.644h-.657v-.675c-.476-.02-.94-.3-1.21-.45l.414-.694c.3.163.8.406 1.262.406.41 0 .634-.203.654-.48.023-.322-.226-.504-.92-.734-.605-.2-1.094-.57-1.094-1.26 0-.63.245-1.145.892-1.292v-.693h.658l.007.693c.466.02 1.15.223 1.398.336l-.225.795c-.178-.086-.61-.276-1.12-.313-.434-.03-.635.105-.635.45 0 .327.37.4.98.622zM3510.5 0c-6.904 0-12.5 5.596-12.5 12.5s5.596 12.5 12.5 12.5 12.5-5.596 12.5-12.5S3517.404 0 3510.5 0zM-3481 16.03V14h-3v3h2.16l-3.623 4-3.468-4H11v-3H8v2.03l-3.984-3.588L8 8.814V11h3V8H8.913l3.624-4 3.488 4H14v3h3V8.876l4.005 3.64L17 16.03zM3581 16.03V14h-3v3h2.16l-3.623 4-3.468-4h1.93v-3h-3v2.03l-3.984-3.588L3572 8.814V11h3V8h-2.087l3.624-4 3.488 4H3578v3h3V8.876l4.005 3.64L3581 16.03zM3647.412 15.84l-.008.098c0 .004 0 .008-.002.01-.075.472-.494.833-1 .833v.003h-.386c-.324.02-.586.262-.626.573-.003.02-.006.042-.006.064l-.54 6.576-.016.197c-.084.46-.497.807-.993.807h-2.665c-.505 0-.923-.36-1-.83l-.01-.152-.542-6.59c0-.028-.004-.056-.01-.085-.043-.304-.302-.54-.623-.56-.014-.002-.027-.002-.043-.002-.014 0-.03 0-.043.003h-.308c-.493 0-.904-.345-.993-.8l-.018-.188L3637 9.55c0-.837.698-1.515 1.56-1.515h7.88c.862 0 1.56.678 1.56 1.514l-.588 6.29zM-3617.5 6.708c-1.906 0-3.45-1.502-3.45-3.353C9.05 1.502 10.593 0 12.5 0c1.906 0 3.452 1.502 3.452 3.354 0 1.85-1.546 3.353-3.452 3.353zM3714.02 6.26h-2.06l1.06-2.678h2.063l-1.063 2.678zm-3701.976 0v.89h1.972l-1.06 2.68h1.592l1.06-2.68h2.06l-1.06 2.68H18.2l1.06-2.68h1.914v-.89h-1.56l1.056-2.68H23v-.89h-1.972l1.06-2.68h-1.592l-1.06 2.677h-2.06L18.436.01h-1.593l-1.06 2.677H13.87v.892h1.56l-1.062 2.68h-2.324zM10.15 24.12c-.844 0-1.533-.658-1.533-1.464 0-.806.69-1.463 1.534-1.463.847 0 1.537.657 1.537 1.463s-.69 1.464-1.535 1.464zM14.67 0L2.92.012c-.507 0-.92.8-.92 1.285v22.825c0 .484.413.878.92.878H16.6c.508 0 .922-.394.922-.878v-13.4h-.913v8.98c0 .46-.397.836-.88.836H3.79c-.482 0-.877-.377-.877-.837V2.636c0-.46.395-.837.877-.837h9.084L14.67 0zM4.74 18.753h10.043V10.72h-2.74l.004-2.727-.917.05.02-3.066 1.833-.467.01-.928H4.74v15.17zM3762 9.925V25h25V9.924h-6.482v1.884h4.63v11.306h-21.296V11.81h1.852V9.924H3762zm-3756.444 1.884l-.843 4.74 4.546-.973-3.705-3.77zm2.178-1.886l3.377 3.33 9.86-9.926L17.593 0l-9.86 9.925zm5.23 5.653v1.884h7.406v-1.883h-7.407zM9.26 18.403v1.885h11.11v-1.886H9.26zM3849.875 22h-18.75c-1.718 0-3.125-1.425-3.125-3.167V6.167c0-1.743 1.407-3.167 3.125-3.167h18.75c1.718 0 3.125 1.425 3.125 3.167v12.666c0 1.742-1.407 3.167-3.125 3.167zM-3804.562 6.166c0-.872-.7-1.583-1.563-1.583H3.125c-.86 0-1.562.71-1.562 1.583V7.75h21.875V6.167zm0 4.75H1.563v7.917c0 .873.7 1.584 1.562 1.584h18.75c.863 0 1.563-.71 1.563-1.584v-7.916zm-6.25 1.584h4.687v3.167h-4.688V12.5zm-14.063 0H12.5v1.583H3.125V12.5zm3.125 4.75H3.125v-1.583H6.25v1.583zM3912.965 7.52h-2.082l1.07-2.76h2.087l-1.075 2.76zm-3900.042 0v.92h1.994l-1.07 2.76h1.608l1.073-2.76h2.08l-1.07 2.76h1.61l1.072-2.76h1.934v-.92h-1.58l1.072-2.76H24v-.92h-1.994l1.07-2.76H21.47l-1.073 2.76h-2.08l1.07-2.76h-1.61l-1.072 2.76H14.77v.92h1.578l-1.076 2.76h-2.35zm3.695 9.37c-.654.134-1.37.75-2.88 2.082-1.702-.784-4.03-2.875-5.128-4.11-1.187-1.33-2.668-3.576-3.202-5.253 1.72-1.52 2.438-2.18 2.484-2.916C7.916 6.3 7.095 1.4 6.23.902L5.97.74C5.42.384 4.59-.15 3.666.04 3.44.085 3.223.172 3.02.3 2.396.69.877 1.74.186 3.113c-.427.856-.622 8.66 5.246 15.253 5.798 6.523 12.95 6.806 14.023 6.587l.03-.006.095-.027c1.45-.52 2.68-1.896 3.143-2.466.852-1.05.243-2.3-.085-2.97l-.13-.28c-.39-.914-5.175-2.315-5.57-2.338l-.32.024zM3972.636.59l-11.416 17.35c-.42.637-.22 1.534.44 1.994l6.903 4.793c.662.464 1.544.322 1.964-.317l11.42-17.35c.417-.63.218-1.534-.445-1.992l-6.9-4.795c-.662-.463-1.547-.323-1.967.317zM-3951.95 11.58l1.062.743c.096.063.12.196.054.295l-.624.955c-.07.1-.2.123-.29.06l-1.066-.74c-.09-.064-.115-.194-.05-.295l.624-.954c.067-.097.194-.128.29-.065zm-1.69 2.568l1.066.738c.09.064.117.2.05.302l-.623.95c-.068.1-.2.125-.293.06L5.5 15.46c-.095-.06-.12-.2-.052-.3l.627-.95c.066-.097.194-.124.285-.06zm-1.687 2.57l1.066.732c.087.067.113.206.046.305l-.627.95c-.064.1-.196.127-.29.064l-1.06-.74c-.094-.07-.12-.2-.055-.3l.63-.95c.062-.1.196-.128.287-.064zm3.994-.967l1.066.74c.092.064.112.2.047.3l-.623.957c-.07.094-.194.125-.292.058l-1.062-.74c-.095-.063-.118-.2-.054-.3l.627-.95c.067-.1.195-.127.29-.063zm-.3 5.186l.627-.95c.063-.105.198-.13.288-.068l1.063.745c.094.062.12.195.05.294l-.624.954c-.065.1-.19.13-.285.065L8.42 21.23c-.093-.06-.12-.194-.052-.295zm1.076-6.74l.623-.95c.064-.1.195-.125.29-.062l1.064.744c.092.063.114.194.05.295l-.627.95c-.062.1-.19.13-.287.063l-1.065-.74c-.09-.062-.113-.194-.046-.3zm.612 4.172l.627-.95c.067-.1.197-.13.29-.063l1.064.74c.093.06.112.2.05.294l-.625.954c-.064.1-.192.13-.29.062l-1.062-.738c-.093-.07-.117-.2-.052-.3zm1.69-2.568l.63-.95c.062-.1.192-.127.288-.065l1.06.74c.096.063.12.2.052.3l-.627.954c-.063.094-.194.126-.29.057l-1.063-.74c-.093-.06-.112-.2-.05-.3zm-5.057 2.578c.065-.1.197-.127.29-.064l1.062.744c.096.063.117.2.054.3l-.627.95c-.07.1-.2.127-.29.064l-1.063-.74c-.094-.068-.117-.2-.055-.3l.627-.954zm8.974-6.155l-5.35-3.717c-.136-.096-.18-.274-.096-.4l3.728-5.665c.08-.12.26-.145.395-.05l5.345 3.715c.14.098.18.276.096.397l-3.725 5.67c-.084.12-.26.143-.394.053zM21.88 2.6l-.91 1.303 1.12.78.91-1.31-1.12-.776z" fill="#fff"/><path stroke="#449FDB" d="M4026 0"/><path d="M4034 0c-4.418 0-8 3.582-8 8s3.582 8 8 8 8-3.582 8-8-3.582-8-8-8zm-4026 14.5c-3.59 0-6.5-2.91-6.5-6.5S4.41 1.5 8 1.5s6.5 2.91 6.5 6.5-2.91 6.5-6.5 6.5zm-2-10L12 8l-6 3.5z" fill="#fff"/><path stroke="#449FDB" d="M4092 0"/><path d="M4107.5 6h-5.5V.5c0-.276-.224-.5-.5-.5h-3c-.276 0-.5.224-.5.5V6h-5.5c-.276 0-.5.224-.5.5v3c0 .276.224.5.5.5h5.5v5.5c0 .276.224.5.5.5h3c.276 0 .5-.224.5-.5V10h5.5c.276 0 .5-.224.5-.5v-3c0-.276-.224-.5-.5-.5z" fill="#fff"/><path d="M4166.774 13.723l-6.256-4.397-2.518 2.59 7.72 8.57 1.364 1.514 1.42-1.464L4183 5.582 4180.45 3l-13.675 10.723z" fill="#e00000"/><path d="M4236.745 3.042h-.49V0h.49v3.042zm-4229.17 1.504l-.4.284-1.74-2.49.4-.284 1.74 2.49zM4.31 8.644l-.18.505-2.856-1.04.18-.507 2.856 1.04zm-.375 5.27l.175.522-2.935.787L1 14.7l2.935-.787zm13.49-9.368l.4.284 1.74-2.49-.4-.284-1.74 2.49zm3.265 4.098l.18.505 2.856-1.04-.18-.507-2.856 1.04zm.375 5.27l-.175.522 2.936.787L24 14.7l-2.935-.787zM12.5 5.003c-3.763 0-6.813 3.052-6.813 6.816 0 2.155 1.52 4.034 1.52 4.034.575.71 1.17 2.093 1.17 3.006h1.736v-2.193s-.955-.74-1.59-1.522c0 0-1.14-1.413-1.14-3.032 0-2.83 2.29-5.122 5.117-5.122 2.828 0 5.12 2.295 5.12 5.124 0 1.664-1.224 3.12-1.224 3.12-.31.37-1.51 1.434-1.51 1.434v2.193h1.736c0-.912.476-2.19 1.063-2.89 0 0 1.627-1.935 1.627-4.15 0-3.763-3.05-6.815-6.812-6.815zm-4.122 16.05c0 .556 1.055.876 2.17.876h3.905c1.114 0 2.17-.32 2.17-.877v-1.316H8.377v1.316zm2.17 1.314H9.244v.44c0 .37.808.876 1.736.876h3.04c.928 0 1.736-.505 1.736-.877v-.44h-5.21zm-.435 1.755v.438c0 .28.53.44 1.457.44h1.496c.93 0 1.82-.16 1.82-.44v-.436h-4.773zm2.604-15.606v1.077c1.358.164 2.418 1.31 2.418 2.712 0 .174-.02.343-.053.51h1.077c.02-.168.037-.337.037-.51 0-1.99-1.534-3.62-3.48-3.79zM4308.055 15.13h3.473v1.392h-3.473V15.13zm-4294.86 0h3.472v1.392h-3.473V15.13zm-4.862 0h3.473v1.392H8.332V15.13zm-4.86 0h3.47l.002 1.392H3.47V15.13zm9.722-5.217c0-1.345 1.088-2.435 2.43-2.435.68 0 1.295.28 1.736.73.443-.45 1.058-.73 1.738-.73 1.343 0 2.43 1.09 2.43 2.435s-1.087 2.435-2.43 2.435c-.68 0-1.295-.28-1.736-.73-.44.45-1.055.73-1.735.73-1.342 0-2.43-1.09-2.43-2.435zM2.143 4C.96 4 0 4.934 0 6.087v11.826C0 19.066.96 20 2.143 20h20.714C24.04 20 25 19.066 25 17.913V6.087C25 4.934 24.04 4 22.857 4H2.143zM4362 9v8h13v-2h1v3h-15V8h15v3h-1V9h-13zm-4355 1h11v2h-1v2h1v2H7v-6zM12.5.008C5.6.008.005 5.602.005 12.504.005 19.404 5.6 25 12.5 25s12.496-5.596 12.496-12.496C24.996 5.602 19.402.008 12.5.008zM4437.767 17.254l.714-.182.333-.084-.15.416-.18.508-5.883 5.395-1.023.365.285-1.033 5.905-5.387zm-4417.77-5.197c0-.74.612-1.34 1.365-1.34.754 0 1.365.6 1.365 1.34 0 .74-.61 1.34-1.365 1.34-.753 0-1.364-.6-1.364-1.34zm-2.782 7.526c.215-.047.42-.137.61-.207.54.176 1.118.272 1.72.272 3.012 0 5.455-2.4 5.455-5.358 0-2.96-2.443-5.36-5.456-5.36-3.014 0-5.457 2.4-5.457 5.36 0 .665.125 1.3.35 1.89-.044.042-.09.09-.136.143-1.946 1.853-4.205 3.754-6.123 5.578v2.214l1.38.887h1.332c.576-.327 1.38-.887 1.38-.887v-1.338h1.375l.463-1.34h1.433l.807-1.786s.663-.02.87-.066zM11.485 0H9.312c-1.744.426-2.98 1.54-4.077 2.868-1.018 1.23-2.29 1.618-3.9 1.615-.41 0-.882-.017-1.32-.017-.12 4.283.47 8.47 2.455 12.138 1.175 2.173 2.787 3.915 4.813 5.27l.002-.374c.362-.345.735-.694 1.116-1.046-3.92-2.504-6.676-8.13-6.586-14.2 2.36-.138 4.11-1.235 5.522-2.998.757-.947 1.822-1.483 3.136-1.484l.016 16.78c.99-.898 1.98-1.797 2.905-2.675-.135-.51-.212-1.037-.212-1.587 0-3.453 2.85-6.252 6.367-6.252.44 0 .872.043 1.29.127.083-1.254.072-2.514.057-3.677-.288-.03-.612-.002-.742-.002C18 4.5 16.347 4 15.03 2.3 14.128 1.134 12.934.37 11.49 0z" fill="#fff"/><path d="M4511.83 6.273L4513 3.31h-18.274l1.17 2.963 1.174 2.963.35.883.278.704 1.172 2.964h9.99l1.17-2.965.28-.706.35-.884 1.17-2.963zM-4478.92 4.9h13.564L22.1 6.272H9.625L9.08 4.9zm10.68 7.3h-7.793l-.543-1.375h8.878L19.76 12.2zm-8.965-2.964l-.543-1.374h11.22l-.542 1.374H10.795zm7.71 10.085c-1.31 0-2.37 1.05-2.37 2.34 0 1.294 1.06 2.34 2.37 2.34 1.307 0 2.368-1.046 2.368-2.34 0-1.29-1.06-2.34-2.37-2.34zm-7.39 0c-1.307 0-2.367 1.05-2.367 2.34 0 1.294 1.06 2.34 2.368 2.34 1.31 0 2.37-1.046 2.37-2.34 0-1.29-1.06-2.34-2.37-2.34zm9.758-4.12H9.998l-3.68-9.31L2.87 1.6C2.317.915 1.305.8.61 1.346c-.698.544-.815 1.544-.26 2.23l3.147 3.916L7.8 18.377H20.87c.89 0 1.61-.71 1.61-1.59 0-.876-.72-1.588-1.61-1.588z" fill="#e00000"/><path d="M4573.155 15.66h-10.462l-3.54-9.318-2.393-3.355c-.53-.687-1.503-.803-2.173-.257-.67.547-.782 1.547-.25 2.235l2.102 2.98 4.14 10.896h12.576c.855 0 1.548-.71 1.548-1.59 0-.877-.693-1.59-1.548-1.59zm-4563.385 3.657c-1.26 0-2.28 1.048-2.28 2.342 0 1.29 1.02 2.34 2.28 2.34 1.258 0 2.278-1.048 2.278-2.34 0-1.295-1.02-2.343-2.28-2.343zm7.106 0c-1.26 0-2.28 1.048-2.28 2.342 0 1.29 1.02 2.34 2.28 2.34 1.26 0 2.28-1.05 2.28-2.34 0-1.296-1.02-2.344-2.28-2.344zm1.68-12.592H7.87L7.348 5.35h10.45c-.127-.398-.198-.82-.198-1.26 0-.112.007-.222.016-.33H5.082l1.126 2.965L7.335 9.69l.336.885.27.707 1.128 2.966h9.61l1.128-2.966.338-.89.266-.7.608-1.602c-.98-.132-1.847-.633-2.462-1.365zm-.936 5.932h-7.496l-.522-1.375h8.54l-.522 1.375zm1.128-2.966h-9.75l-.523-1.373H19.27l-.522 1.375zM21.993 1c-1.66 0-3.007 1.383-3.007 3.09 0 1.706 1.346 3.09 3.007 3.09C23.653 7.18 25 5.795 25 4.09 25 2.383 23.654 1 21.993 1zm1.376 3.423h-1.054v1.08h-.648v-1.08h-1.053v-.666h1.052v-1.08h.647v1.08h1.052v.666zM4632.5 0c6.904 0 12.5 5.597 12.5 12.5s-5.596 12.5-12.5 12.5-12.5-5.597-12.5-12.5S4625.596 0 4632.5 0zM-4607 15v3.01l6.913-5.957L13 5.835v3.01c-3.01 0-6.926 1.64-6.926 9.165 1.505-3.01 3.65-5.278 6.95-2.998L13 15zM4687.852 20.32h4.63v1.84h-4.632v-1.84zM-4686 9.235V24h25V9.35L13.918 19.4h-1.91L0 9.235zM12.963 5.6c0-2.54-2.066-4.6-4.623-4.6-2.557 0-4.63 2.06-4.63 4.6 0 1.83 1.12 3.24 2.626 4.62l6.627 5.58 6.633-5.58c1.506-1.38 2.626-2.79 2.626-4.62 0-2.54-2.073-4.6-4.63-4.6-2.556 0-4.63 2.06-4.63 4.6zM4773.182 3.704v17.592h-16.364V3.704h16.364zm-4767.455-1.852H3v21.296h2.727V25h.91v-1.852h1.817V25h.91v-1.852h1.818V25h.91v-1.852h1.817V25h.907v-1.852h1.818V25h.91v-1.852h1.818V25h.91v-1.852H23V1.852h-2.727V0h-.91v1.852h-1.817V0h-.91v1.852h-1.818V0h-.91v1.852H12.09V0h-.907v1.852h-1.82V0h-.91v1.852H6.637V0h-.91v1.852zm8.38 15.885c.456.52 1.123.782 1.99.782v.923h.752v-.925c.88-.002 1.56-.262 2.03-.812.47-.535.71-1.258.71-2.17 0-.984-.37-1.707-1.08-2.17-.255-.16-.81-.39-1.66-.68v-3.5c.41 0 .75.172 1.035.505.27.334.412.754.427 1.274h.994c0-.795-.227-1.446-.654-1.938-.44-.492-1.037-.782-1.804-.854v-.767h-.753v.767c-.824.116-1.45.42-1.875.897-.426.492-.64 1.13-.64 1.924 0 .897.3 1.592.91 2.055.27.23.81.476 1.605.737v3.834c-.625-.086-1.08-.36-1.35-.81-.1-.144-.17-.29-.2-.463-.027-.173-.07-.506-.127-1.012h-.994c0 .03-.014.072-.014.13v.116c0 .91.227 1.635.696 2.156zm.896-7.986c.255-.287.61-.475 1.094-.562v3.4c-.995-.29-1.478-.854-1.478-1.707 0-.462.126-.84.382-1.13zm1.846 4.17c.652.216 1.092.447 1.334.71.24.26.37.605.37 1.07 0 .52-.157.953-.44 1.3-.3.35-.726.565-1.266.622V13.92zm-10.215 4.6v.925h4.546v-.925l-4.545-.002zm0-2.778v.927h2.728v-.927H6.636zm0-2.777v.926h3.637v-.926H6.636zm0-2.778v.926h4.546v-.925H6.637zm0-2.778v.925h5.455V7.41H6.637zM23 23.146h-.91V25H23v-1.852zM22.09 0v1.852H23V0h-.91zM3.91 25v-1.852H3V25h.91zM3 1.852h.91V0H3v1.852zM4843 4h-25v17h25v-5.035c-.163.023-.33.035-.5.035-1.933 0-3.5-1.567-3.5-3.5s1.567-3.5 3.5-3.5c.17 0 .337.012.5.035V4zm-4842 1h23v2.615c-2.353.202-4.5 1.834-4.5 4.885 0 3.05 2.147 4.683 4.5 4.885V20H1V5zm22 1.765V6H2v13h21v-.765c-2.405-.554-4.5-2.463-4.5-5.735 0-3.272 2.095-5.18 4.5-5.735z" fill="#fff"/><path d="M4903.288 15.393c-.006.312-.18.86-.51.862-.378.002-.483-.54-.52-.837-.14-1.095-.14-2.21-.288-3.302-.4-2.95-2.543-4.985-5.27-5.064-3.19-.094-5.726 2.474-5.643 5.7.035 1.362.172 2.743.017 4.086-.198 1.717-1.107 3.15-2.394 4.296-.226.2-.744.524-.97.27-.306-.347.06-.762.266-.958 1.99-1.915 2.522-4.248 2.122-6.91-.538-3.576 1.86-6.892 5.327-7.428 3.593-.557 6.87 1.786 7.486 5.385.17.974.31 1.742.36 2.95 0 .01.025.655.02.95zM-4872.03 1.038c-1.724-.024-3.688.59-5.51 1.706-.128.08-.298.218-.417.28-.258.138-.608.262-.8-.098-.18-.336.072-.645.28-.77 1.213-.713 2.99-1.593 4.58-1.91 7.476-1.48 14.323 3.88 14.86 11.51.036.512.174 1.382-.43 1.43-.56.045-.567-.826-.586-1.335C23.722 5.927 18.49 1.016 11.97 1.04zm4.358 14.167c-.05 3.335-.938 6.403-2.736 9.19-.186.287-.726.677-.877.593-.38-.21-.2-.776.033-1.148 2.108-3.402 2.908-7.08 2.287-11.046-.092-.588-.276-1.205-.582-1.706-.525-.86-1.663-1.198-2.603-.914-1.062.32-1.68 1.126-1.8 2.245-.048.46.046 1.286-.56 1.177-.395-.07-.494-.87-.467-1.32.11-1.83 1.55-3.167 3.355-3.24 1.737-.07 3.24 1.126 3.565 2.88.208 1.128.26 2.19.385 3.287zm5.922.085c-.053 1.827-.206 3.348-.692 5.354-.066.27-.35.874-.652.85-.337-.028-.378-.66-.32-.968.432-2.242.72-3.66.744-5.815.022-1.97-.46-4.595-1.475-6.373-.897-1.57-2.18-2.7-3.77-3.526-.32-.166-.95-.574-.747-.916.235-.398.87-.12 1.198.038 2.97 1.436 4.755 3.978 5.448 7.17.274 1.26.32 2.35.266 4.19zM12.573 4.056C8.97 3.982 5.72 6.306 4.5 9.78c-.163.46-.346 1.347-.91 1.124-.53-.21-.195-1.02-.04-1.487 1.39-4.144 5.673-6.903 9.806-6.33.348.048 1.017.14.992.52-.026.402-.278.436-.776.485-.213.02-.772-.025-1-.036zm.653 11.33c.004 3.286-1.05 6.203-3.13 8.728-.206.25-.73.63-.99.372-.266-.264.04-.74.24-1.003 2.3-2.982 3.242-6.318 2.778-10.074-.05-.415-.046-1.167.31-1.24.74-.154.744 1 .787 1.73.03.493.007.99.007 1.485zM0 12.918c.067-3.66 1.135-6.484 3.325-8.845.227-.245.816-.663 1.103-.35.244.265-.132.743-.342.98C1.46 7.683.58 11.12 1.28 15.017c.048.27-.06.843-.38.908-.398.08-.54-.45-.592-.717C.133 14.313.06 13.4 0 12.918zm10.314 2.665c-.158 2.936-1.193 5.29-3.05 7.222-.26.27-.82.773-1.115.49-.308-.295.093-.874.33-1.135 1.174-1.29 1.99-2.764 2.41-4.453.152-.62.134-1.287.306-1.9.114-.405.248-1.11.65-1.127.406-.017.497.347.467.903zm-6.13-1.11c.23 1.74-.256 3.164-1.43 4.324-.185.183-.61.43-.85.25-.314-.238-.06-.707.1-.868 1.33-1.347 1.335-2.964 1.1-4.676-.07-.507-.13-1.43.317-1.458.637-.04.59.847.7 1.377.074.368.05.756.066 1.05zM19.17 18.11c-.063.19-.136.537-.27.968-.545 1.74-.938 2.994-1.543 4.664-.08.225-.458.617-.742.494-.278-.12-.22-.635-.148-.902.497-1.83 1.03-3.652 1.593-5.463.073-.23.36-.793.715-.723.388.076.52.48.396.963z" fill="#c00"/><path d="M4962.5 0c-6.903 0-12.5 5.597-12.5 12.5 0 6.904 5.597 12.5 12.5 12.5s12.5-5.596 12.5-12.5c0-6.903-5.597-12.5-12.5-12.5zm-4946.46 18H8.968l2.265-6.468c-1.095-.486-1.857-1.38-1.857-2.657 0-1.726 1.388-3.06 3.112-3.06 1.727 0 3.138 1.334 3.138 3.06 0 1.276-.766 2.12-1.862 2.605L16.04 18zM5032.04 19h-7.072l2.265-6.468c-1.095-.486-1.857-1.38-1.857-2.657 0-1.726 1.388-3.06 3.112-3.06 1.727 0 3.138 1.334 3.138 3.06 0 1.276-.766 2.12-1.862 2.605l2.276 6.52zM5096 7.5c0-1.38 1.12-2.5 2.5-2.5s2.5 1.12 2.5 2.5-1.12 2.5-2.5 2.5c-.77 0-1.46-.35-1.92-.9l-5.625 2.935c.028.15.045.306.045.465 0 .258-.037.51-.11.745l5.615 2.75c.455-.605 1.18-.995 1.995-.995 1.38 0 2.5 1.12 2.5 2.5s-1.12 2.5-2.5 2.5-2.5-1.12-2.5-2.5c0-.207.027-.407.075-.6l-5.67-2.78c-.458.54-1.142.88-1.905.88-1.38 0-2.5-1.12-2.5-2.5s1.12-2.5 2.5-2.5c.864 0 1.626.44 2.075 1.105l5.53-2.885c-.07-.228-.105-.47-.105-.72zM-5069.5.002C5.592.002 0 5.6 0 12.502 0 19.4 5.594 25 12.5 25 19.4 25 25 19.403 25 12.5 25 5.6 19.4.003 12.5.003zM5165.635.187c-.46-.337-1.08-.207-1.458.295l-8.663 10.902c-.242.336-.514.498-.514 1.116 0 .615.272.78.514 1.116l8.663 10.902c.378.502 1 .632 1.458.295.413-.302.504-1.02.126-1.522l-8.632-10.79 8.632-10.79c.38-.503.288-1.22-.125-1.523zM5221.365.187c.46-.337 1.08-.207 1.458.295l8.663 10.902c.242.335.514.498.514 1.115 0 .614-.272.78-.514 1.115l-8.663 10.903c-.378.502-1 .632-1.458.295-.413-.302-.504-1.02-.126-1.522l8.632-10.79-8.632-10.79c-.38-.504-.29-1.22.124-1.524z" fill="#fff"/><path d="M5283.635 0c-2.008 0-3.635 1.663-3.635 3.713v7.46c0 2.05 1.627 3.712 3.635 3.712h10.493L5289.32 25s12.71-10.115 13.625-11.17c0 0 1.055-1.486 1.055-2.658V3.16c0-2.053-1.627-3.16-3.634-3.16h-16.732z" fill="#1e90ff"/><path d="M5284.744 9.85c.407.3.98.45 1.703.45.72-.002 1.286-.14 1.693-.43.407-.28.61-.69.61-1.213 0-.4-.12-.708-.35-.923-.24-.214-.62-.373-1.14-.466l-.878-.16c-.407-.073-.694-.157-.842-.25-.15-.094-.223-.233-.223-.42 0-.196.084-.354.26-.466.175-.112.416-.177.712-.177.37 0 .655.074.87.214.202.14.313.334.313.586h1.073c0-.54-.194-.952-.583-1.24-.388-.28-.934-.43-1.62-.43-.675 0-1.202.14-1.573.42-.37.28-.554.67-.554 1.175 0 .41.12.72.36.924.242.215.65.373 1.223.466l.784.15c.39.075.667.16.824.252.147.103.23.252.23.457 0 .213-.1.38-.305.492-.204.112-.472.168-.824.168-.407 0-.71-.073-.934-.223-.223-.15-.334-.363-.334-.643h-1.12c0 .56.204.99.62 1.287zm-5273.874.45V6.175l1.01 4.122 1.156-.002.99-4.12v4.12h1.157V4.93h-1.74l-.99 4.29-1.018-4.29H9.713v5.37h1.157zm5.72-.45c.407.3.98.45 1.703.45.722-.002 1.286-.14 1.693-.43.407-.28.61-.69.61-1.213 0-.4-.12-.708-.35-.923-.24-.214-.62-.373-1.14-.466l-.878-.16c-.407-.073-.694-.157-.842-.25-.148-.094-.222-.233-.222-.42 0-.196.083-.354.26-.466.175-.112.415-.177.71-.177.372 0 .658.074.87.214.205.14.316.334.316.586h1.073c0-.54-.194-.952-.582-1.24-.387-.28-.933-.43-1.62-.43-.674 0-1.2.14-1.57.42-.37.28-.557.67-.557 1.175 0 .41.12.72.36.924.242.215.65.373 1.223.466l.787.15c.388.075.666.16.823.252.148.103.232.252.232.457 0 .213-.102.38-.306.492-.203.112-.47.168-.822.168-.408 0-.713-.073-.935-.223-.222-.15-.333-.363-.333-.643h-1.12c0 .56.203.99.62 1.287zM5358.5 0c-6.903 0-12.5 5.598-12.5 12.5 0 6.904 5.597 12.5 12.5 12.5s12.5-5.596 12.5-12.5c0-6.9-5.597-12.5-12.5-12.5zm-5342.69 12.448h-2.165v7.72h-3.21v-7.72H8.912V9.722h1.526V7.957c0-1.265.6-3.238 3.238-3.238l2.375.007v2.648h-1.725c-.28 0-.68.14-.68.74V9.72h2.446l-.28 2.727zM5424.5 0c-6.903 0-12.5 5.598-12.5 12.5 0 6.904 5.597 12.5 12.5 12.5s12.5-5.596 12.5-12.5c0-6.9-5.597-12.5-12.5-12.5zm-5410.8 15.963c-.964 0-1.872-.52-2.182-1.113 0 0-.52 2.058-.63 2.455-.385 1.403-1.522 2.808-1.61 2.923-.063.08-.198.055-.213-.052-.025-.178-.315-1.95.027-3.393.17-.726 1.15-4.867 1.15-4.867s-.286-.57-.286-1.414c0-1.323.767-2.312 1.722-2.312.812 0 1.205.61 1.205 1.34 0 .818-.52 2.04-.79 3.17-.223.948.476 1.72 1.41 1.72 1.692 0 2.833-2.173 2.833-4.748 0-1.957-1.318-3.423-3.717-3.423-2.71 0-4.4 2.02-4.4 4.276 0 .778.23 1.328.59 1.752.166.194.19.272.13.496-.045.165-.14.56-.184.717-.06.228-.242.308-.447.224-1.248-.51-1.83-1.875-1.83-3.41 0-2.538 2.14-5.58 6.383-5.58 3.41 0 5.654 2.466 5.654 5.116 0 3.504-1.948 6.12-4.818 6.12zM5490.5 0c-6.902 0-12.5 5.598-12.5 12.5 0 6.904 5.597 12.5 12.5 12.5 6.904 0 12.5-5.596 12.5-12.5 0-6.9-5.596-12.5-12.5-12.5zm-5471.702 9.98c.006.136.01.27.01.408-.002 4.163-3.17 8.963-8.964 8.963-1.78 0-3.435-.52-4.83-1.413.247.03.498.043.752.043 1.476 0 2.834-.504 3.912-1.35-1.378-.025-2.54-.935-2.942-2.187.192.037.39.057.593.057.285 0 .563-.038.83-.11-1.444-.29-2.53-1.564-2.53-3.09v-.04c.425.237.91.378 1.428.395-.847-.566-1.403-1.53-1.403-2.622 0-.578.155-1.12.426-1.584 1.555 1.904 3.877 3.16 6.495 3.29-.054-.23-.082-.47-.082-.72 0-1.74 1.41-3.15 3.15-3.15.907 0 1.725.384 2.3.996.718-.14 1.392-.404 2-.765-.235.738-.735 1.355-1.385 1.744.638-.076 1.245-.245 1.81-.496-.422.63-.957 1.186-1.572 1.63zM5551.163 13.552h.905v4.496h.875v-4.496h.904v-.765h-2.684v.765zm-5538.63-3.736c.12 0 .214-.032.283-.096.07-.066.105-.157.105-.27V7.12c0-.094-.033-.17-.105-.227-.07-.058-.164-.087-.28-.087-.106 0-.193.03-.26.087-.066.057-.1.133-.1.227v2.33c0 .116.032.207.094.27.06.064.15.096.265.096zm1.93 4.304c-.12 0-.24.03-.36.09-.115.063-.226.154-.33.272v-1.695h-.785v5.26h.784v-.296c.1.12.213.21.332.265.117.057.253.085.406.085.23 0 .406-.074.527-.22.12-.148.182-.358.182-.633v-2.154c0-.32-.066-.56-.196-.725-.13-.166-.317-.25-.563-.25zm-.044 3.02c0 .125-.024.213-.07.268-.044.055-.113.082-.21.082-.064 0-.125-.015-.186-.042-.06-.026-.12-.074-.183-.137v-2.416c.054-.054.107-.094.16-.12.055-.025.11-.037.165-.037.105 0 .186.033.242.1.055.068.08.167.08.3v2.004zm-2.792-.024c-.073.083-.153.152-.24.207-.088.055-.16.082-.216.082-.073 0-.126-.02-.16-.062-.03-.04-.048-.107-.048-.198v-2.978h-.776v3.246c0 .232.046.402.136.52.092.115.226.173.406.173.146 0 .296-.04.45-.123.156-.085.304-.204.448-.36v.425h.776v-3.88h-.776v2.948zM12.5 0C5.597 0 0 5.597 0 12.5 0 19.404 5.597 25 12.5 25S25 19.404 25 12.5C25 5.597 19.403 0 12.5 0zm2.02 6.174h.872v3.278c0 .103.02.175.056.22.036.045.096.07.178.07.064 0 .145-.032.244-.09.098-.063.188-.14.27-.233V6.172h.873v4.276h-.874v-.473c-.16.173-.33.307-.505.397-.174.09-.342.137-.506.137-.204 0-.356-.063-.458-.19-.102-.127-.153-.317-.153-.574V6.174zm-3.244.977c0-.33.117-.592.352-.79.236-.194.552-.293.948-.293.362 0 .658.104.89.31.23.206.345.474.345.8v2.21c0 .366-.11.652-.336.86-.228.207-.54.31-.936.31-.382 0-.688-.106-.917-.32-.23-.216-.343-.505-.343-.868V7.15zm-2.38-2.495l.64 2.316h.06l.61-2.315h1l-1.146 3.39v2.405h-.983V8.153l-1.17-3.5h.99zm11.442 12.2c0 1.546-1.254 2.8-2.802 2.8H7.803C6.255 19.655 5 18.4 5 16.855V14.6c0-1.547 1.255-2.8 2.803-2.8h9.733c1.548 0 2.802 1.253 2.802 2.8v2.253zm-3.533-2.785c-.348 0-.63.105-.85.32-.22.21-.33.486-.33.82v1.744c0 .375.102.67.3.88.2.214.474.32.822.32.387 0 .677-.1.87-.3.197-.2.292-.5.292-.9v-.2h-.8v.178c0 .23-.027.377-.077.443s-.14.1-.27.1c-.123 0-.21-.04-.263-.117-.05-.08-.074-.22-.074-.426v-.73h1.483v-.992c0-.367-.096-.65-.287-.846-.19-.195-.464-.294-.82-.294zm.307 1.527h-.686v-.392c0-.163.025-.28.08-.348.054-.073.142-.107.266-.107.118 0 .205.034.258.107.054.067.082.185.082.348v.392zM5622.493 0c-6.903 0-12.5 5.598-12.5 12.5 0 6.904 5.598 12.5 12.5 12.5 6.903 0 12.5-5.596 12.5-12.5 0-6.903-5.597-12.5-12.5-12.5zm-5603.337 17.063c-.47.47-1.422.703-2.01.185l-5.704-4.4-.04-.044-.154-.18-.11-.16-.066-.2-.06-.212L11 11.99V7.592c0-.608.845-1.614 1.476-1.614.63 0 1.524 1.006 1.524 1.614v3.868l4.89 3.665c.49.38.782 1.422.266 1.938zM5698.338 2.525l-2.128 2.1 2.662 2.618 2.128-2.1-2.662-2.618zm-5679.192 3.15L9.043 15.65v2.625h2.675l10.09-9.982-2.662-2.618zM0 11.45v2.1h7.98v-2.1H0zm0 9.45V23h20.745v-2.1H0zM0 6.725v2.1h11.702v-2.1H0zm0 9.45v2.1h5.85v-2.1H0zM0 2v2.1h15.957V2H0zM5754.5 22.256c-3.72 0-6.747-3.015-6.747-6.72 0-3.708 3.027-6.723 6.747-6.723 3.72 0 6.747 3.016 6.747 6.722 0 3.706-3.027 6.72-6.747 6.72zM-5731.324 3.19c0-1.003.818-1.818 1.824-1.818 1.006 0 1.824.815 1.824 1.817 0 .62-.313 1.17-.79 1.495V4.08c0-.567-.463-1.028-1.034-1.028-.57 0-1.032.46-1.032 1.03v.604c-.478-.327-.792-.876-.792-1.497zM13.7 6.144c1.173-.474 2-1.62 2-2.956C15.7 1.43 14.266 0 12.5 0c-1.765 0-3.2 1.43-3.2 3.19 0 1.335.828 2.48 2 2.955-1.534.193-2.953.75-4.168 1.58l-.8-.798c-.74-.735-1.94-.735-2.678 0l-.098.097c-.738.735-.738 1.932 0 2.667l.866.865C3.522 12 3 13.707 3 15.535 3 20.762 7.253 25 12.5 25s9.5-4.238 9.5-9.465c0-4.822-3.62-8.802-8.3-9.39zM12.5 16.46c-.512 0-.93-.415-.93-.925s.418-.926.93-.926.93.413.93.924c0 .51-.418.926-.93.926zm2.957-5.12l-2.08 2.07c-.27-.11-.566-.172-.877-.172-1.272 0-2.306 1.03-2.306 2.297 0 1.267 1.035 2.298 2.306 2.298 1.272 0 2.306-1.03 2.306-2.298 0-.197-.025-.387-.072-.57l.04-.036 2.143-2.136c.403-.402.403-1.053 0-1.454-.403-.402-1.057-.402-1.46 0zM5819.435 9.538c-.214-.04-.43-.28-.626-.477-.25-.24-.48-.48-.953-.482-.283 0-.497.383-.497.696 0 1.078 1.133 1.327 2.406 1.327h.294v.354c0 .04.03.047.05.047h1.117c.015 0 .04-.007.04-.054v-.337s.15.03.22.03c.116 0 .162.01.25.01.083 0 .297-.01.39-.01.776 0 1.712-.765 1.712-1.765 0-1.705-2.11-1.875-2.39-1.875h-.184v-.852l.2.08c.083 0 .368.117.52.203.24.14.61.805 1.214.806.322 0 .542-.367.542-.625 0-.835-.825-1.186-.927-1.22-.405-.13-1.285-.122-1.45-.122h-.1v-.174c.002-.054.002-.093-.023-.093h-1.154c-.03 0-.044.237-.044.275V5.4h-.587c-.565 0-2.13.125-2.13 1.694 0 1.725 2.323 1.686 2.733 1.686v.813c-.06.007-.44-.032-.625-.055zm-5806.17-.797h.167c.088 0 .49.04.49.463 0 .337-.246.398-.47.398h-.186v-.86zm-1.39-1.7c-.127 0-.543-.065-.543-.464 0-.32.346-.375.44-.375h.288v.82l-.186.02zM20.905 3H4.42v10h16.482V3zm-.805 9.2H5.226V3.8H20.1v8.4zm.88 2H4.22L.2 19H25l-4.02-4.8zM9.986 17.8l.836-1.6h3.154l.837 1.6H9.986zM0 21h24.924v-1.2H0V21zM5882.706 7.87c0-1.79 1.475-3.24 3.294-3.24 1.82 0 3.294 1.45 3.294 3.24 0 1.79-1.475 3.24-3.294 3.24-1.82 0-3.294-1.45-3.294-3.24zM-5870 7.87c0 1.53.446 2.96 1.214 4.167L12.146 25l6.645-12.963C19.56 10.83 20 9.4 20 7.87 20 3.524 16.418 0 12 0S4 3.524 4 7.87zM5952.5 25c-6.903 0-12.5-5.596-12.5-12.5 0-6.903 5.597-12.5 12.5-12.5s12.5 5.597 12.5 12.5c0 6.904-5.597 12.5-12.5 12.5zM-5927.5.997C6.158.997.997 6.157.997 12.5c0 6.346 5.16 11.503 11.503 11.503 6.342 0 11.503-5.157 11.503-11.503C24.003 6.158 18.843.997 12.5.997zm-2.213 18.17l-.93-1.08-4.334-5.18 1.716-1.852 3.335 2.2 7.47-5.777 1.737 1.844-8.03 8.8-.966 1.044zM6026.14 14.435h1.388v1.39h-1.39v-1.39zm-6009.473 0h1.388v1.39h-1.388v-1.39zm-3.473 0h1.39v1.39h-1.39v-1.39zM2.778 12.348h4.86v3.478H2.78v-3.478zM0 10.956v6.957C0 19.066.96 20 2.143 20h20.714C24.04 20 25 19.066 25 17.913v-6.957H0zM2.143 4C.96 4 0 4.934 0 6.087V8.87h25V6.087C25 4.934 24.04 4 22.857 4H2.143zM6090.044 22.117c0 3.844 4.96 3.844 4.96 0 0-.703-2.03-5.604-2.48-6.536-.45.7-2.48 5.835-2.48 6.538zm-6066.56-9.35v-.533l-.03-2.225c0-1.88-1.448-3.628-3.63-3.628h-5.23V5.32c0-.474-.586-1.065-1.045-1.065h-2.094V3.192c.173-.106.402-.37.523-.532h4.182c.284.377.893.52 1.39.52.846 0 1.534-.71 1.534-1.59 0-.878-.69-1.59-1.535-1.59-.506 0-1.11.137-1.39.532h-4.18C11.697.137 11.414 0 10.906 0c-.507 0-.74.137-1.018.532H5.184C4.904.137 4.33 0 3.824 0 2.976 0 2.29.712 2.29 1.59c0 .88.686 1.59 1.534 1.59.494 0 1.08-.143 1.36-.52H9.89c.12.166.344.43.52.532v1.063H8.32c-.458 0-1.046.59-1.046 1.064V6.38H1v5.32h6.797c.676 1.404 1.785 2.127 3.137 2.127 1.353 0 2.46-.724 3.137-2.13h2.617c.522 0 1.045 0 1.045 1.065-.522 0-.538.716-.538 1.01 0 .475.604.586 1.062.586h4.706c.458 0 1.04-.11 1.04-.586 0-.372.006-1.01-.517-1.01zM6150.5 0c-6.893 0-12.5 5.608-12.5 12.5s5.607 12.5 12.5 12.5 12.5-5.608 12.5-12.5S6157.393 0 6150.5 0zm-6148.64 13.41h3.43c.062 1.292.258 2.518.568 3.643H2.84c-.53-1.122-.87-2.35-.98-3.644zm11.55-7.282v-2.95c1.187.37 2.252 1.438 3.05 2.95h-3.05zm3.813 1.82c.357 1.105.59 2.34.666 3.643h-4.48V7.95h3.812zm-5.632-4.77v2.95H8.54c.798-1.512 1.863-2.58 3.05-2.95zm0 4.77v3.643H7.11c.076-1.302.31-2.536.667-3.642h3.814zm-6.3 3.643H1.86c.11-1.292.45-2.52.98-3.642h3.018c-.31 1.125-.506 2.35-.57 3.644zm1.82 1.82h4.48v3.644H7.778c-.357-1.106-.59-2.34-.666-3.644zm4.48 5.463v2.95c-1.186-.37-2.25-1.438-3.05-2.95h3.05zm1.82 2.95v-2.95h3.05c-.797 1.512-1.862 2.58-3.05 2.95zm0-4.77V13.41h4.48c-.075 1.303-.31 2.537-.666 3.643H13.41zm6.3-3.643h3.43c-.11 1.293-.45 2.52-.98 3.643h-3.017c.31-1.126.506-2.35.57-3.644zm0-1.82c-.06-1.292-.257-2.518-.567-3.643h3.018c.53 1.122.87 2.35.98 3.644h-3.43zm1.358-5.462h-2.56c-.71-1.65-1.697-2.978-2.864-3.837 2.19.678 4.083 2.04 5.424 3.84zM9.358 2.29C8.19 3.15 7.203 4.477 6.49 6.128h-2.56C5.275 4.33 7.167 2.968 9.358 2.29zM3.932 18.873h2.56c.71 1.65 1.697 2.978 2.864 3.837-2.19-.678-4.083-2.04-5.424-3.838zm11.71 3.837c1.167-.86 2.154-2.187 2.865-3.838h2.56c-1.342 1.798-3.234 3.16-5.425 3.837z" fill="#fff"/></svg>