<svg baseProfile="tiny" xmlns="http://www.w3.org/2000/svg" preserveAspectRatio="xMinYMin meet" viewBox="0 0 4686 66" width="4686" height="66"><path d="M12.5.198C6.33.198 0 4.29 0 12.5s6.33 12.302 12.5 12.302S25 20.71 25 12.5 18.67.198 12.5.198zm0 2.77c5.26 0 9.54 4.275 9.54 9.53 0 5.256-4.28 9.532-9.54 9.532-5.258 0-9.536-4.276-9.536-9.532 0-5.255 4.278-9.53 9.537-9.53zm9.15 10.14c.013-.2.022-.404.022-.61 0-.205-.01-.408-.023-.61h-1.46c.016.2.026.405.026.61 0 .207-.01.41-.026.61h1.457zm-2.796-4.98c.23.334.437.687.614 1.056l1.26-.727c-.18-.367-.384-.72-.61-1.058l-1.264.726zm-3.036-2.592c.37.177.723.383 1.057.614l.73-1.262c-.338-.227-.692-.43-1.06-.612l-.727 1.26zM12.233 13.5l3.812-2.2-.734-1.27-2.54 1.467-2.567-4.445-1.27.733 3.3 5.715zm-.343-8.686c.202-.017.405-.027.61-.027.207 0 .41.01.613.026V3.357c-.203-.014-.406-.023-.612-.023-.203 0-.407.01-.61.023v1.457zm-4.492.074l.73 1.262c.334-.23.687-.437 1.057-.614l-.728-1.26c-.367.18-.72.385-1.06.612zM9.185 19.46c-.37-.176-.723-.382-1.058-.613l-.73 1.262c.34.225.693.43 1.06.61l.728-1.26zM4.273 8.457l1.262.728c.176-.37.383-.722.613-1.057L4.886 7.4c-.227.336-.43.69-.613 1.056zm.51 4.043c0-.207.012-.41.028-.613H3.355c-.013.203-.022.406-.022.61 0 .207.01.41.023.612H4.81c-.015-.203-.026-.406-.026-.61zm1.365 4.37c-.23-.335-.437-.688-.613-1.057l-1.262.727c.182.367.386.72.613 1.058l1.262-.73zm6.965 3.313c-.202.017-.406.028-.612.028-.204 0-.407-.01-.61-.026v1.457c.203.015.407.024.61.024.208 0 .41-.01.614-.023v-1.456zm4.49-.074l-.728-1.264c-.334.23-.688.437-1.057.614l.728 1.26c.367-.18.72-.384 1.058-.61zm3.126-3.57l-1.263-.728c-.177.37-.383.722-.614 1.056l1.263.728c.227-.338.43-.69.612-1.058zM76 3v7h-7v5h7v7h5v-7h7v-5h-7V3h-5zM157 6.25l-8.91 6.25V8.928c-1.543-.06-14.252-1.785-16.033 3.572 0 0-1.853-9.65 16.035-8.928V0L157 6.25zm-148.09 9.822c1.544.062 14.253 1.785 16.034-3.572 0 0 1.853 9.65-16.035 8.928V25L0 18.75l8.91-6.25v3.572zM204.312 10.988c0-1.066.883-1.93 1.973-1.93s1.972.864 1.972 1.93c0 1.066-.883 1.93-1.972 1.93-1.09 0-1.973-.864-1.973-1.93zm-192.72-3.662c-.957.425-1.61-.98-.65-1.407 1.735-.773 4.486-1.12 6.412-.218.95.444.268 1.838-.68 1.393-1.367-.64-3.604-.426-5.08.23zM3.157 9.83L0 10.602v5.406s3.647 2.263 6.204 2.588c0 1.555.262 2.833.897 4.363h3.158s.833-.855 1.097-2.397c.797.35 4.75.594 6.004.078.28 1.185.45 1.853.79 2.318.913.09 3.154 0 3.154 0s1.06-2.75.718-4.364c1.31-1.17 3.2-3.35 2.96-6.683-.285-3.953-3.813-8.02-9.616-8.186-3.754-.108-5.69 1.28-5.69 1.28L6.316 2l-.004 4.74-3.156 3.09zM270.757 15.56v1.36h4.73v-1.36h-4.73zM-257.92 17.6v1.36h4.73V17.6H6.08zm0 2.04V21h4.73v-1.36H6.08zm-6.08 0V21h4.73v-1.36H0zm0-2.04v1.36h4.73V17.6H0zm.676-2.04v1.36h4.73v-1.36H.676zM0 13.52v1.36h4.73v-1.36H0zm1.35-4.08v1.36h4.73V9.44H1.35zm0 2.04v1.36h4.73v-1.36H1.35zm16.412 8.273l-3.804-4.222 1.242-1.344 2.42 1.55 5.03-4.146 1.386 1.537-6.274 6.626zM10.135 4v10.88h2.027v2.72h-.676V21H25V8.08L20.946 4h-10.81zm10.135.68l4.054 4.08H20.27V4.68zm-8.108 1.36h6.08v.68h-6.08v-.68zm0 2.04h6.08v.68h-6.08v-.68zm0 2.04h8.108v.68h-8.108v-.68zm0 2.04h6.08v.68h-6.08v-.68zM340.45 13.618l9.633-7.526 1.796 1.812L341.664 18.4l-1 1.03-.96-1.063-5.438-6.016 1.774-1.817 4.408 3.086zM-317.5 0C5.596 0 0 5.596 0 12.5S5.596 25 12.5 25 25 19.404 25 12.5 19.404 0 12.5 0zM408.7 15.836c-.48.102-1.007.57-2.115 1.583-1.25-.598-2.96-2.187-3.764-3.125-.87-1.012-1.957-2.718-2.35-3.993 1.264-1.155 1.79-1.657 1.825-2.215.018-.3-.585-4.024-1.22-4.403l-.19-.123c-.405-.27-1.015-.674-1.694-.53-.164.034-.323.1-.473.197-.456.295-1.57 1.094-2.08 2.138-.313.65-.455 6.58 3.852 11.593 4.256 4.955 9.506 5.17 10.294 5.004l.022-.005.07-.02c1.064-.395 1.967-1.442 2.306-1.875.627-.797.18-1.747-.06-2.257l-.097-.212c-.286-.695-3.8-1.76-4.09-1.778l-.233.018zM-376 8.976v2.086c-2.49.02-3.06-.197-4.062-1.006 0 2.117.915 3.902 4.062 3.902v2.07l4.54-3.6L20 8.976zm-6 1.052V7.94c2.49-.018 3.06.2 4.06 1.007 0-2.117-.913-3.9-4.06-3.9V2.974l-5.48 3.6L14 10.028z" fill="#fff"/><g fill="#fff"><path d="M475.405 13.406l-2.155-3.504-.24 3 2.395.504zm-463.93-6.324l4.307 6.824 1.632.344-5.784-9.116-.155 1.948zM14.8 4.924h.132l-.014.182-.12-.182zm-.977-1.485c.483-1.053 1.122-1.753 1.79-2.14-.134.35-.223.695-.28.933-.148.61-.27 1.355-.36 2.234H14.5l-.676-1.03zm-.935-1.428c.353-.22.726-.406 1.112-.56-.276.318-.53.685-.76 1.1l-.353-.54zm8.8 12.787C23.628 13.48 25 11.25 25 8.117 25 2.722 20.928.003 16.9 0h-.04c-1.534.006-3.052.39-4.367 1.18l-.588 1.04L20.1 14.93l1.633-.1-.044-.03zm-1.135-1.108c.368-.67.666-1.466.873-2.38h2.014c-.56 1.27-1.458 2.24-2.535 2.907l-.014-.01-.337-.518zm-1.562-2.38h1.49c-.136.56-.31 1.057-.51 1.493l-.98-1.494zm-2.096-3.195h1.16c-.003.318-.015.938-.05 1.688l-1.11-1.688zm1.157-.457h-1.455l-.826-1.258c.02-.53.05-1.023.09-1.478h2.063c.093 1.11.122 2.164.13 2.737zm-1.82-5.214c.08-.328.328-1.26.653-1.516.547.43.84 1.984.997 3.538h-1.977c.085-.804.198-1.478.33-2.022zm4.6 5.672c0 1.032-.09 1.942-.246 2.737h-1.702c.082-1.155.096-2.193.097-2.737h1.852zm-.35-3.194c.195.785.317 1.695.344 2.737H18.98c-.002-.537-.018-1.584-.114-2.735h1.618zm-2.3-3.628c.868.5 1.686 1.527 2.18 3.17h-1.536c-.114-1.13-.31-2.307-.644-3.17zm5.894 6.822c0 1.02-.16 1.934-.45 2.737h-2.1c.153-.826.235-1.74.235-2.737h2.313zm-.632-3.194c.35.794.57 1.707.62 2.737h-2.31c-.026-1-.14-1.915-.326-2.735h2.016zm-3.63-3.46c1.41.567 2.638 1.567 3.408 3.004h-1.907c-.342-1.256-.862-2.265-1.5-3.003zM476.848 18.052c1.117-.008 4.216 1.695 4.538 2.1.646.816.675 1.843.164 2.66-.857 1.365-2.687 2.184-3.427 2.188-1.896.01-7.112-.83-11.45-5.704-5.046-5.67-4.88-12.38-4.51-13.116.594-1.18 1.897-2.084 2.437-2.417.56-.35 1.536-.337 1.9-.024 1.366 1.17 2.402 3.328 2.29 5.52-.03.61-.674 1.3-2.137 2.506.46 1.442 1.734 3.373 2.755 4.518.944 1.06 2.947 2.86 4.41 3.533.606-.535 1.983-1.758 3.03-1.765z"/></g><path d="M538.52 18.064l.118.253c.105.33.5 4.713-.098 5.34l-.18.2c-.423.493-1.215 1.41-2.306 1.068-.592-.186-2.06-.728-2.92-1.738l-.05-.07-.014-.02c-.508-.805-2.52-6.745.793-13.677 3.347-7.014 9.54-9.48 10.347-9.42 1.294.104 2.595.992 3.095 1.37.163.123.3.27.406.44.44.69.28 1.55.173 2.12l-.047.266c-.12.874-3.715 3.194-4.033 3.307-.59.21-1.333-.155-3.066-1.05-1.15 1-2.452 2.967-3.128 4.385-.627 1.312-1.543 3.918-1.627 5.572 1.52.786 2.227 1.165 2.537 1.654zM602 7h9c1.105 0 2 .895 2 2v4c0 1.105-.895 2-2 2h-.7l-6.32 5.132L606.625 15H602c-1.104 0-2-.895-2-2V9c0-1.105.896-2 2-2zm-589.507-7C5.59 0-.007 5.598-.007 12.5c0 6.904 5.598 12.5 12.5 12.5 6.903 0 12.5-5.596 12.5-12.5 0-6.903-5.597-12.5-12.5-12.5zM666.674 8l.826-2.348.826 2.348H671l-2.164 1.652.828 2.348-2.164-1.653L665.336 12l.828-2.348L664 8h2.674zM-660 12.5c0 .508.03 1.008.09 1.5h24.82c.06-.492.09-.992.09-1.5 0-.168.007-.334 0-.5H13v-2h11.75c-.14-.69-.337-1.357-.585-2H13V6h10.18c-2.195-3.598-6.157-6-10.68-6C5.596 0 0 5.596 0 12.5zM23.73 18c.313-.638.573-1.306.775-2H.5c.202.694.462 1.362.775 2H23.73zM2.5 20c2.28 3.036 5.91 5 10 5s7.724-1.964 10.005-5H2.5zM750.873 15.97c0-3.48-3.14-6.302-7.015-6.302-3.875 0-7.016 2.822-7.016 6.303 0 3.483 3.14 6.304 7.016 6.304.645 0 1.27-.08 1.864-.225 1.755.672 4.212 1.703 5.278 2.56 0 0-1.332-2.41-2.1-4.255 1.222-1.134 1.973-2.68 1.973-4.383zm-750.65-5.423c0 2.85 1.328 5.437 3.487 7.335C2.353 20.968 0 25 0 25c1.883-1.433 6.22-3.158 9.32-4.285.42.098.848.177 1.283.237-.966-1.337-1.53-2.952-1.53-4.693 0-4.613 3.96-8.35 8.848-8.35 2.88 0 5.44 1.3 7.054 3.31.017-.224.027-.45.027-.675C25 4.723 19.455 0 12.613 0S.224 4.722.224 10.546z" fill="#fff"/><path stroke="#449FDB" d="M792 0"/><path d="M805.5 2L798 9.5 794.5 6 792 8.5l6 6 10-10zM862.234 7.764L866.47 12l-4.235 4.235 3.53 3.53L870 15.53l4.235 4.234 3.53-3.53L873.53 12l4.234-4.235-3.53-3.53L870 8.47l-4.236-4.235-3.53 3.53z" fill="#fff"/><path stroke="#449FDB" d="M924 0"/><path d="M939.854 12.854L935 8l4.854-4.854c.052-.052.09-.113.114-.178.066-.178.028-.386-.114-.53L937.56.148c-.142-.144-.35-.18-.528-.115-.065.024-.126.062-.178.114L932 5 927.146.146c-.052-.052-.113-.09-.178-.114-.178-.066-.386-.03-.53.114l-2.29 2.294c-.144.142-.18.35-.115.528.024.065.062.126.114.178L929 8l-4.854 4.854c-.052.052-.09.113-.114.178-.066.178-.03.386.114.53l2.293 2.292c.14.143.35.18.527.114.065-.024.126-.062.178-.114L932 11l4.854 4.854c.052.052.113.09.178.114.178.066.386.03.53-.114l2.292-2.293c.143-.14.18-.35.114-.527-.024-.065-.062-.126-.114-.178zM1001 16h-4v-1h1v-1h1v-1h1v-1h1v-1h1v-1h1v1h1v1h1v1h1v1h1v1h1v1h-4v4h-3v-4zm-990-8V5h3v3h-3zm1.5-8C5.596 0 0 5.596 0 12.5S5.596 25 12.5 25 25 19.404 25 12.5 19.404 0 12.5 0zM1071.705 10.395l6.493 6.102h-11.74v1.748h11.74l-6.493 6.1.692.655h1.195l7.408-6.993v-1.273l-7.408-6.994h-1.195l-.692.655zm-1062.41-8.74L8.603 1H7.408L0 7.993v1.273l7.408 6.993h1.195l.692-.656-6.493-6.1h11.74v-1.75H2.802l6.493-6.1zM1143.51 20.546c-.262-.404-.81-.524-1.227-.27-1.817 1.11-3.92 1.7-6.077 1.7-6.3 0-11.427-4.982-11.427-11.102 0-3.754 1.93-7.226 5.164-9.288.41-.262.525-.797.255-1.196-.27-.4-.82-.51-1.233-.248-3.737 2.382-5.967 6.394-5.967 10.732 0 5.72 3.876 10.578 9.21 12.227-1.51.42-2.595 1.1-2.91 1.9h12.71c-.277-.7-1.152-1.313-2.382-1.735 1.267-.33 2.482-.84 3.603-1.526.417-.256.54-.79.28-1.193zM-1108.083 1.138c-5.568 0-10.083 4.385-10.083 9.795s4.515 9.795 10.083 9.795c5.568 0 10.083-4.385 10.083-9.795s-4.515-9.795-10.083-9.795zm4.264 12.807c.003.154-.053.394-.12.533l-.737 1.51c-.068.138-.22.337-.334.443l-2.398 2.176c-.115.105-.08.19.078.19h.275c.158 0 .288.112.288.246 0 .137-.13.247-.287.247h-1.178c-.16 0-.288-.127-.288-.28v-2.98c0-.156.13-.28.288-.28h.327c.16 0 .288-.127.288-.28v-.32c0-.153-.13-.28-.288-.28h-.327c-.16 0-.288-.125-.288-.278v-1.745c0-.154-.13-.28-.29-.28h-.486c-.157 0-.393-.072-.522-.162l-1.55-1.065c-.13-.088-.302-.27-.382-.403L9.52 9.74c-.08-.132-.275-.24-.434-.24H8.74c-.16 0-.345-.114-.413-.252l-.84-1.69c-.07-.14-.126-.38-.126-.533V6.06c0-.153-.122-.243-.273-.197l-.338.1c1.462-1.986 3.776-3.34 6.42-3.557V3.57c0 .153.106.35.235.44l.54.368c.13.09.364.16.523.16h.427c.16 0 .288.103.288.227 0 .124-.09.317-.198.43l-.615.63c-.11.11-.07.202.09.202h.41c.157.002.287.128.287.282l-.002 1.003c0 .154.13.28.288.28h.463c.16 0 .29.096.29.213 0 .117-.13.212-.29.212h-1.42c-.158 0-.39.076-.517.17l-.584.43c-.126.093-.23.296-.23.45v1.672c0 .154-.128.28-.286.28h-.08c-.158 0-.288-.126-.288-.28v-.96c0-.155-.13-.28-.288-.28h-.777c-.158 0-.288.125-.29.28l-.003.776c0 .154.1.36.224.455l1.147.896c.122.097.353.176.512.176l1.915.002c.16 0 .403.06.543.13l2.44 1.24c.14.07.256.254.256.41v.083h.003zm-.74-8.385c-.125.09-.36.166-.52.166H16.8c-.158 0-.288-.126-.288-.28v-.91c0-.154-.13-.28-.288-.28h-.418c-.158 0-.287-.126-.287-.28V2.52c1.378.247 2.647.804 3.72 1.597-.036.12-1.796 1.445-1.796 1.445z" fill="#fff"/><g fill="#fff"><path d="M1197.314 14.325l-5.003.007c-.754-.438-1.427-1.015-1.97-1.73l6.96-.002-.002-1.916-7.962.003c-.176-.53-.296-1.105-.35-1.726l8.32.003-.006-1.923h-2.04V5.31l2.054-.01.08-1.03c0-.295.085-.64.21-.884l-2.344.004V1.665h4.412c.452.203.884.45 1.284.74h1.48C1200.833.798 1198.57 0 1196.333 0c-4.116 0-8.333 2.71-8.333 8.173 0 5.464 4.217 8.173 8.333 8.173.164 0 .817-.003.98-.012v-2.01zm-1193.957-9.728l.63-1.978.63 1.976H6.66L5.008 5.82l.632 1.977-1.653-1.222-1.652 1.222.632-1.978-1.652-1.224h2.042zM1212.16 3.365h-13.053c-.447 0-.812.488-.812.914v19.945c0 .426.365.774.812.774h13.082c.446 0 .81-.35.81-.775V4.28c0-.427-.364-.915-.81-.915h-.028zM-1170.334 24.4c-.746 0-1.354-.58-1.354-1.29 0-.71.61-1.29 1.355-1.29s1.354.58 1.354 1.29c0 .71-.61 1.29-1.354 1.29zm5.864-3.984c0 .406-.35.738-.774.738H12.54c-.427 0-.775-.332-.775-.738V5.546c0-.406.348-.738.774-.738h10.215c.425 0 .773.332.773.737v14.87zm-10.295-.704h8.824V6.25h-8.826v13.462z"/></g><path d="M1254 23v-5.793h2.94v2.896h19.12v-2.896h2.94V23h-25zM-1249.037 9.24h3.125V2h8.824v7.24h3.125L12.5 16.484 4.963 9.24zM1323.583 6.5h17.834l-8.917 7.408-8.917-7.408zM-1295.757 5H.758l-.247.244c-.182.085-.354.19-.51.313l.107.088L0 5.75v13.5l.758.75h23.484l.758-.75V5.75l-.106-.105.106-.088c-.155-.122-.327-.228-.51-.313L24.24 5zM3.293 18.5l4.274-3.472L6.37 14l-4.855 3.94V6.816l10.45 8.685.535.435.536-.434 10.45-8.684V17.94L18.628 14l-1.202 1.032L21.7 18.5H3.293zM1410.795 19.194l-7.695-6.614 7.795-6.763c.06.16.105.328.105.51V18.48c0 .263-.084.498-.205.714zM-1384.28 5.027L1.855 5h21.582l.217.043-11.005 9.384-10.928-9.4zM.142 19.1C.055 18.91 0 18.7 0 18.48V6.327c0-.208.045-.406.12-.587l8.078 6.816L.142 19.1zm12.502-2.642l3.294-2.866L23.366 20H1.856l-.083-.016 7.588-6.41 3.283 2.884z" fill="#fff"/><path stroke="#449FDB" d="M1452 0"/><path d="M1458 8h-5V6h5V4l3 3-3 3zm-1442-8v13l-6 3v-3H4V9h1v3h5V3l4-2H5v4H4V0z" fill="#fff"/><path stroke="#449FDB" d="M1518 0"/><path d="M1530 10V8h-5V6h5V4l3 3zm-1519-1v4H6v3l-6-3V0h11v5h-1V1H2l4 2v9h4V9zM1598 10v4h4v1h-1v1h-1v1h-1v1h-1v1h-1v1h-1v-1h-1v-1h-1v-1h-1v-1h-1v-1h-1v-1h4v-4h3zm-1587-2V5h3v3h-3zm1.5-8C5.596 0 0 5.596 0 12.5S5.596 25 12.5 25 25 19.404 25 12.5 19.404 0 12.5 0zM1658.652 8.715l.015-.216c0-1.347.46-2.466 1.172-3.346.71-.88 1.61-1.333 2.7-1.333 1.016 0 1.866.39 2.55 1.158.686.766 1.03 1.71 1.03 2.84 0 .792-.153 1.42-.445 1.9-.305.476-.965 1.143-1.98 1.998-1.28 1.094-2.066 2.1-2.548 3.03-.482.93-.723 2.062-.723 3.37l.01.473 4.663.016c0-1.12.018-1.892.27-2.32.255-.427.435-1.024 1.463-1.753 1.587-1.12 2.666-2.15 3.237-3.08.57-.93.933-2.125.933-3.57 0-2.327-.87-4.225-2.444-5.684-1.586-1.458-3.63-2.2-6.13-2.2-2.56 0-4.59.61-6.063 2.08-1.486 1.484-2.363 3.668-2.363 6.635h4.652zM-1634.915 25v-4.645h-4.66V25h4.66zM1718.34 16.69c.448-.31 1.696-.815 2.583-.814.598.002 1.203.11 1.905.43.702.317 1.772 1.135 2.18 2.067.41.932.617 2.07.625 2.23 2.01.243 4.063-.436 5.54-2.046.884-.966 1.437-2.14 1.682-3.38-.927.93-1.78 1.5-3.223 1.772-.63.116-1.145.147-1.752.116-.747-.038-1.686-.343-2.39-.677-.55-.263-1.31-.693-2.04-1.676-.312-.42-.557-.678-.957-1.592-.4-.913-.584-2.482-.572-3.053.024-1.095.22-1.77.57-2.596l.01-.022c.07-.167.15-.332.236-.494.274-.523.61-1.02 1.023-1.47 1.27-1.39 2.956-2.096 4.643-2.114.254 0 .768-.466.996-.85-2.967-.564-6.32.545-8.776 3.225-2.884 3.15-3.676 7.53-2.284 10.94zM-1715 20.86C1 23.147 2.756 25 4.923 25c2.166 0 3.923-1.854 3.923-4.14 0-2.287-1.757-4.14-3.923-4.14C2.756 16.72 1 18.574 1 20.86zM21.66 8.31c-.448.31-1.696.815-2.583.813-.598 0-1.203-.11-1.905-.428S15.4 7.56 14.992 6.627c-.41-.932-.617-2.07-.625-2.23-2.01-.243-4.063.436-5.54 2.046-.884.966-1.437 2.14-1.682 3.38.927-.93 1.78-1.5 3.223-1.772.63-.116 1.145-.147 1.752-.116.747.038 1.686.343 2.39.677.55.263 1.31.693 2.04 1.676.312.42.557.678.957 1.592.4.913.584 2.482.572 3.053-.024 1.095-.22 1.77-.57 2.596l-.01.022c-.07.167-.15.332-.236.494-.274.523-.61 1.02-1.024 1.47-1.27 1.39-2.955 2.096-4.64 2.114-.255 0-.77.466-.998.85 2.966.564 6.32-.545 8.775-3.225 2.883-3.147 3.675-7.53 2.283-10.94zM23 4.14C23 1.854 21.244 0 19.077 0c-2.166 0-3.923 1.853-3.923 4.14s1.757 4.14 3.923 4.14C21.244 8.28 23 6.427 23 4.14zM1789.61 18.742l.427.583 6.445 1.294.69-.29 1.067-2.172 5.726 1.344.004 1.498h3.03V4h-3.03l-.003.984-19.695 4.622V8.384H1782v8.048h2.273v-1.55l6.086 1.43-.75 2.43zm-1780.71-.226l.522-1.86 5.672 1.266-.83 1.672L8.9 18.516zM1861.793 9.483v10.345h-2.586V9.483h2.586zM-1836.793 7.76V5.17h2.586v2.59h-2.586zM12.5 0C5.596 0 0 5.596 0 12.5S5.596 25 12.5 25 25 19.404 25 12.5 19.404 0 12.5 0z" fill="#fff"/><g fill="#fff"><path d="M1919.374 8.664l-2.342-.004.802.787.003.596c0 .462.393.835.878.835v2.758l.743.347v-.525l1.335-1.272v-.613c.484 0 .877-.375.877-.836l.003-.596h-.777l-1.522-1.475zm-1917.09-.004h.748v-.893h.89c.366 0 .663-.283.663-.632h.76l.793-.756v-.704l-.786-.748h-.8v.62H3.78c-.412 0-.746-.317-.746-.71 0-.393.334-.712.746-.712v-.73h-.69C4.426 2 6.355 1.123 8.498 1.123c1.6 0 3.078.49 4.28 1.32h1.795C13.03.936 10.877 0 8.498 0 3.812 0 0 3.633 0 8.1c0 4.465 3.812 8.098 8.498 8.098.268 0 .532-.01.794-.035v-1.127c-.26.027-.525.04-.794.04-4.043 0-7.32-3.123-7.32-6.977 0-.316.023-.624.065-.926L2.285 8.66zm5.81.034c0 .705.51 1.294 1.198 1.455V7.714h-.675c-.288 0-.522.224-.522.5v.478zM5.72 2.547l-.573.83.325.475.007.744.785.75.47-1.03c.764 0 1.383-.59 1.383-1.318l-2.398-.45zM1938.16 3.365h-13.053c-.447 0-.812.488-.812.914v19.945c0 .426.365.774.812.774h13.082c.446 0 .81-.35.81-.775V4.28c0-.427-.364-.915-.81-.915h-.028zM-1896.334 24.4c-.746 0-1.354-.58-1.354-1.29 0-.71.61-1.29 1.355-1.29s1.354.58 1.354 1.29c0 .71-.61 1.29-1.354 1.29zm5.864-3.984c0 .406-.35.738-.774.738H12.54c-.427 0-.775-.332-.775-.738V5.546c0-.406.348-.738.774-.738h10.215c.425 0 .773.332.773.737v14.87zm-10.295-.704h8.824V6.25h-8.826v13.462z"/></g><g fill="#fff"><path d="M1992 2.435c5.843 0 11.582 3.858 11.582 11.565H2005c0-8.67-6.553-13-13-13v1.435zM-1968 7.24c3.447 0 6.782 2.26 6.782 6.76h1.403c0-5.463-4.148-8.185-8.185-8.185V7.24zm0 4.353c1.33 0 2.408 1.077 2.408 2.407h1.444c0-2.127-1.725-3.852-3.852-3.852v1.445zM1994.848 18.052c1.117-.008 4.216 1.695 4.538 2.1.646.816.675 1.843.164 2.66-.857 1.365-2.687 2.184-3.427 2.188-1.896.01-7.112-.83-11.45-5.704-5.046-5.67-4.88-12.38-4.51-13.116.594-1.18 1.897-2.084 2.437-2.417.56-.35 1.536-.337 1.9-.024 1.366 1.17 2.402 3.328 2.29 5.52-.03.61-.674 1.3-2.137 2.506.46 1.442 1.734 3.373 2.755 4.518.944 1.06 2.947 2.86 4.41 3.533.606-.535 1.983-1.758 3.03-1.765z"/></g><path d="M2069.485 16.43v1.968l-1.072 1.078h-19.826l-1.072-1.078v-1.97h21.97zm-2047.072-9.906l1.072 1.078v6.54H1.515v-6.54l1.072-1.078h19.826zM22.727 5H2.273l-.536.223L.222 6.747 0 7.287v11.427l.222.54 1.515 1.523.536.223h20.454l.536-.223 1.515-1.524.222-.54V7.287l-.222-.54-1.515-1.523L22.727 5zM3.03 9.952c0 1.052.848 1.905 1.894 1.905 1.046 0 1.894-.853 1.894-1.905S5.97 8.048 4.924 8.048c-1.046 0-1.894.852-1.894 1.904zM2124.5 0c-6.903 0-12.5 5.597-12.5 12.5 0 6.905 5.597 12.5 12.5 12.5s12.5-5.595 12.5-12.5c0-6.903-5.597-12.5-12.5-12.5zm-2112 24.003C6.158 24.003.997 18.846.997 12.5.997 6.158 6.157.997 12.5.997c6.342 0 11.503 5.16 11.503 11.503 0 6.346-5.16 11.503-11.503 11.503zM18.728 9.37l-3.13-3.087-3.17 3.115-3.174-3.115L6.126 9.37 9.3 12.482l-3.174 3.113 3.13 3.086 3.172-3.113 3.17 3.114 3.13-3.085-3.17-3.113 3.17-3.114z" fill="#fff"/><path stroke="#449FDB" d="M2178 0"/><path d="M2193.658 4.91l-1.58-1.58-1.41-1.41-1.578-1.58c-.386-.386-1.076-.455-1.532-.15l-4.32 2.88c-.455.303-.627.953-.382 1.443l1.1 2.203c.035.067.074.14.116.213l-5.572 5.57-.5 3.5h3v-1h2v-2h2v-2h2V9.888c.1.06.195.113.283.157l2.203 1.1c.49.246 1.14.073 1.444-.382l2.88-4.32c.304-.455.236-1.145-.152-1.532zm-2191.304 8.444l-.707-.707L6.515 7.78l.707.706-4.868 4.868zM14.328 6.62l-.707.708c-.192.194-.51.194-.705 0L8.67 3.085c-.193-.194-.193-.513 0-.707l.708-.707c.194-.192.513-.192.707 0l4.243 4.245c.194.194.194.513 0 .707z" fill="#fff"/><path stroke="#449FDB" d="M2244 0"/><path d="M2255 0c-2.76 0-5 2.24-5 5 0 .313.03.62.084.916L2244 12v3c0 .552.448 1 1 1h1v-1h2v-2h2v-2h2l1.298-1.298c.53.192 1.105.298 1.702.298 2.76 0 5-2.24 5-5s-2.24-5-5-5zm-2242.502 5.002c-.828 0-1.5-.672-1.5-1.5s.672-1.5 1.5-1.5 1.5.672 1.5 1.5-.672 1.5-1.5 1.5zM2322.5 0c-6.908 0-12.5 5.598-12.5 12.5 0 6.903 5.592 12.5 12.5 12.5 6.9 0 12.5-5.597 12.5-12.5 0-6.902-5.598-12.5-12.5-12.5zM-2292 14h-4v4h-3v-4H7v-3h4V6.997h3v4h4v3z" fill="#fff"/><path stroke="#449FDB" d="M2376 0"/><path d="M2377 3h14v3h-14zm-2376 4h14v3H1zm0 4h14v3H1z" fill="#fff"/><path stroke="#449FDB" d="M2442 0"/><path d="M2442 6.5v3c0 .276.224.5.5.5h15c.276 0 .5-.224.5-.5v-3c0-.276-.224-.5-.5-.5h-15c-.276 0-.5.224-.5.5zM2528.03 0h-15.09c-.52 0-.94.564-.94 1.056v23.05c0 .492.422.894.94.894h15.12c.518 0 .94-.402.94-.894V1.056c0-.492-.422-1.056-.94-1.056h-.03zm-2515.51 24.308c-.862 0-1.565-.67-1.565-1.49 0-.823.703-1.492 1.566-1.492.864 0 1.567.67 1.567 1.49 0 .822-.704 1.492-1.566 1.492zm6.78-4.605c0 .47-.402.852-.894.852H6.594c-.492 0-.894-.383-.894-.852V2.52c0-.47.402-.853.894-.853h11.812c.492 0 .894.383.894.852V19.7zM7.4 18.89h10.2V3.332H7.4V18.89zM2597.254 20h-21.508c-.964 0-1.746-.785-1.746-1.748V6.745c0-.965.782-1.745 1.746-1.745h21.508c.964 0 1.746.78 1.746 1.745v11.51c0 .965-.782 1.745-1.746 1.745zm-2573.57-11.95c0-.965-.782-1.746-1.746-1.746H3.062c-.964 0-1.746.78-1.746 1.745v8.9c0 .964.782 1.745 1.746 1.745h18.876c.964 0 1.746-.78 1.746-1.745v-8.9zm-3.062 9.34H4.378c-.965 0-1.746-.395-1.746-1.358v-6.68c0-.962.78-1.743 1.746-1.743h16.244c.965 0 1.746.78 1.746 1.742v6.294c0 .963-.78 1.744-1.746 1.744zM7.237 12.175H4.605v1.304h2.632v-1.305zm5.18-3.295c-2.01 0-3.645 1.63-3.645 3.64 0 2.012 1.633 3.642 3.644 3.642 2.015 0 3.645-1.63 3.645-3.64 0-2.013-1.63-3.643-3.642-3.643zm7.978 3.294h-2.632v1.304h2.632v-1.304zm-7.49-.025c.846.296.926.694.926 1.34 0 .632-.512 1.164-1.33 1.3v.644h-.657v-.675c-.476-.02-.94-.3-1.21-.45l.414-.694c.3.163.8.406 1.262.406.41 0 .634-.203.654-.48.023-.322-.226-.504-.92-.734-.605-.2-1.094-.57-1.094-1.26 0-.63.245-1.145.892-1.292v-.693h.658l.007.693c.466.02 1.15.223 1.398.336l-.225.795c-.178-.086-.61-.276-1.12-.313-.434-.03-.635.105-.635.45 0 .327.37.4.98.622zM2652.5 0c-6.904 0-12.5 5.596-12.5 12.5s5.596 12.5 12.5 12.5 12.5-5.596 12.5-12.5S2659.404 0 2652.5 0zM-2623 16.03V14h-3v3h2.16l-3.623 4-3.468-4H11v-3H8v2.03l-3.984-3.588L8 8.814V11h3V8H8.913l3.624-4 3.488 4H14v3h3V8.876l4.005 3.64L17 16.03zM2723 16.03V14h-3v3h2.16l-3.623 4-3.468-4h1.93v-3h-3v2.03l-3.984-3.588L2714 8.814V11h3V8h-2.087l3.624-4 3.488 4H2720v3h3V8.876l4.005 3.64L2723 16.03zM2789.412 15.84l-.008.098c0 .004 0 .008-.002.01-.075.472-.494.833-1 .833v.003h-.386c-.324.02-.586.262-.626.573-.003.02-.006.042-.006.064l-.54 6.576-.016.197c-.084.46-.497.807-.993.807h-2.665c-.505 0-.923-.36-1-.83l-.01-.152-.542-6.59c0-.028-.004-.056-.01-.085-.043-.304-.302-.54-.623-.56-.014-.002-.027-.002-.043-.002-.014 0-.03 0-.043.003h-.308c-.493 0-.904-.345-.993-.8l-.018-.188L2779 9.55c0-.837.698-1.515 1.56-1.515h7.88c.862 0 1.56.678 1.56 1.514l-.588 6.29zM-2759.5 6.708c-1.906 0-3.45-1.502-3.45-3.353C9.05 1.502 10.593 0 12.5 0c1.906 0 3.452 1.502 3.452 3.354 0 1.85-1.546 3.353-3.452 3.353zM2856.02 6.26h-2.06l1.06-2.678h2.063l-1.063 2.678zm-2843.976 0v.89h1.972l-1.06 2.68h1.592l1.06-2.68h2.06l-1.06 2.68H18.2l1.06-2.68h1.914v-.89h-1.56l1.056-2.68H23v-.89h-1.972l1.06-2.68h-1.592l-1.06 2.677h-2.06L18.436.01h-1.593l-1.06 2.677H13.87v.892h1.56l-1.062 2.68h-2.324zM10.15 24.12c-.844 0-1.533-.658-1.533-1.464 0-.806.69-1.463 1.534-1.463.847 0 1.537.657 1.537 1.463s-.69 1.464-1.535 1.464zM14.67 0L2.92.012c-.507 0-.92.8-.92 1.285v22.825c0 .484.413.878.92.878H16.6c.508 0 .922-.394.922-.878v-13.4h-.913v8.98c0 .46-.397.836-.88.836H3.79c-.482 0-.877-.377-.877-.837V2.636c0-.46.395-.837.877-.837h9.084L14.67 0zM4.74 18.753h10.043V10.72h-2.74l.004-2.727-.917.05.02-3.066 1.833-.467.01-.928H4.74v15.17zM2904 9.925V25h25V9.924h-6.482v1.884h4.63v11.306h-21.296V11.81h1.852V9.924H2904zm-2898.444 1.884l-.843 4.74 4.546-.973-3.705-3.77zm2.178-1.886l3.377 3.33 9.86-9.926L17.593 0l-9.86 9.925zm5.23 5.653v1.884h7.406v-1.883h-7.407zM9.26 18.403v1.885h11.11v-1.886H9.26zM2991.875 22h-18.75c-1.718 0-3.125-1.425-3.125-3.167V6.167c0-1.743 1.407-3.167 3.125-3.167h18.75c1.718 0 3.125 1.425 3.125 3.167v12.666c0 1.742-1.407 3.167-3.125 3.167zM-2946.562 6.166c0-.872-.7-1.583-1.563-1.583H3.125c-.86 0-1.562.71-1.562 1.583V7.75h21.875V6.167zm0 4.75H1.563v7.917c0 .873.7 1.584 1.562 1.584h18.75c.863 0 1.563-.71 1.563-1.584v-7.916zm-6.25 1.584h4.687v3.167h-4.688V12.5zm-14.063 0H12.5v1.583H3.125V12.5zm3.125 4.75H3.125v-1.583H6.25v1.583zM3054.965 7.52h-2.082l1.07-2.76h2.087l-1.075 2.76zm-3042.042 0v.92h1.994l-1.07 2.76h1.608l1.073-2.76h2.08l-1.07 2.76h1.61l1.072-2.76h1.934v-.92h-1.58l1.072-2.76H24v-.92h-1.994l1.07-2.76H21.47l-1.073 2.76h-2.08l1.07-2.76h-1.61l-1.072 2.76H14.77v.92h1.578l-1.076 2.76h-2.35zm3.695 9.37c-.654.134-1.37.75-2.88 2.082-1.702-.784-4.03-2.875-5.128-4.11-1.187-1.33-2.668-3.576-3.202-5.253 1.72-1.52 2.438-2.18 2.484-2.916C7.916 6.3 7.095 1.4 6.23.902L5.97.74C5.42.384 4.59-.15 3.666.04 3.44.085 3.223.172 3.02.3 2.396.69.877 1.74.186 3.113c-.427.856-.622 8.66 5.246 15.253 5.798 6.523 12.95 6.806 14.023 6.587l.03-.006.095-.027c1.45-.52 2.68-1.896 3.143-2.466.852-1.05.243-2.3-.085-2.97l-.13-.28c-.39-.914-5.175-2.315-5.57-2.338l-.32.024z" fill="#fff"/><path stroke="#449FDB" d="M3102 0"/><path d="M3110 0c-4.418 0-8 3.582-8 8s3.582 8 8 8 8-3.582 8-8-3.582-8-8-8zm-3102 14.5c-3.59 0-6.5-2.91-6.5-6.5S4.41 1.5 8 1.5s6.5 2.91 6.5 6.5-2.91 6.5-6.5 6.5zm-2-10L12 8l-6 3.5z" fill="#fff"/><path stroke="#449FDB" d="M3168 0"/><path d="M3183.5 6h-5.5V.5c0-.276-.224-.5-.5-.5h-3c-.276 0-.5.224-.5.5V6h-5.5c-.276 0-.5.224-.5.5v3c0 .276.224.5.5.5h5.5v5.5c0 .276.224.5.5.5h3c.276 0 .5-.224.5-.5V10h5.5c.276 0 .5-.224.5-.5v-3c0-.276-.224-.5-.5-.5zM3252.055 15.13h3.473v1.392h-3.473V15.13zm-3238.86 0h3.472v1.392h-3.473V15.13zm-4.862 0h3.473v1.392H8.332V15.13zm-4.86 0h3.47l.002 1.392H3.47V15.13zm9.722-5.217c0-1.345 1.088-2.435 2.43-2.435.68 0 1.295.28 1.736.73.443-.45 1.058-.73 1.738-.73 1.343 0 2.43 1.09 2.43 2.435s-1.087 2.435-2.43 2.435c-.68 0-1.295-.28-1.736-.73-.44.45-1.055.73-1.735.73-1.342 0-2.43-1.09-2.43-2.435zM2.143 4C.96 4 0 4.934 0 6.087v11.826C0 19.066.96 20 2.143 20h20.714C24.04 20 25 19.066 25 17.913V6.087C25 4.934 24.04 4 22.857 4H2.143zM3306 9v8h13v-2h1v3h-15V8h15v3h-1V9h-13zm-3299 1h11v2h-1v2h1v2H7v-6zM12.5.008C5.6.008.005 5.602.005 12.504.005 19.404 5.6 25 12.5 25s12.496-5.596 12.496-12.496C24.996 5.602 19.402.008 12.5.008zM3381.767 17.254l.714-.182.333-.084-.15.416-.18.508-5.883 5.395-1.023.365.285-1.033 5.905-5.387zm-3361.77-5.197c0-.74.612-1.34 1.365-1.34.754 0 1.365.6 1.365 1.34 0 .74-.61 1.34-1.365 1.34-.753 0-1.364-.6-1.364-1.34zm-2.782 7.526c.215-.047.42-.137.61-.207.54.176 1.118.272 1.72.272 3.012 0 5.455-2.4 5.455-5.358 0-2.96-2.443-5.36-5.456-5.36-3.014 0-5.457 2.4-5.457 5.36 0 .665.125 1.3.35 1.89-.044.042-.09.09-.136.143-1.946 1.853-4.205 3.754-6.123 5.578v2.214l1.38.887h1.332c.576-.327 1.38-.887 1.38-.887v-1.338h1.375l.463-1.34h1.433l.807-1.786s.663-.02.87-.066zM11.485 0H9.312c-1.744.426-2.98 1.54-4.077 2.868-1.018 1.23-2.29 1.618-3.9 1.615-.41 0-.882-.017-1.32-.017-.12 4.283.47 8.47 2.455 12.138 1.175 2.173 2.787 3.915 4.813 5.27l.002-.374c.362-.345.735-.694 1.116-1.046-3.92-2.504-6.676-8.13-6.586-14.2 2.36-.138 4.11-1.235 5.522-2.998.757-.947 1.822-1.483 3.136-1.484l.016 16.78c.99-.898 1.98-1.797 2.905-2.675-.135-.51-.212-1.037-.212-1.587 0-3.453 2.85-6.252 6.367-6.252.44 0 .872.043 1.29.127.083-1.254.072-2.514.057-3.677-.288-.03-.612-.002-.742-.002C18 4.5 16.347 4 15.03 2.3 14.128 1.134 12.934.37 11.49 0zM3444.5 0c6.904 0 12.5 5.597 12.5 12.5s-5.596 12.5-12.5 12.5-12.5-5.597-12.5-12.5S3437.596 0 3444.5 0zM-3419 15v3.01l6.913-5.957L13 5.835v3.01c-3.01 0-6.926 1.64-6.926 9.165 1.505-3.01 3.65-5.278 6.95-2.998L13 15zM3499.852 20.32h4.63v1.84h-4.632v-1.84zM-3498 9.235V24h25V9.35L13.918 19.4h-1.91L0 9.235zM12.963 5.6c0-2.54-2.066-4.6-4.623-4.6-2.557 0-4.63 2.06-4.63 4.6 0 1.83 1.12 3.24 2.626 4.62l6.627 5.58 6.633-5.58c1.506-1.38 2.626-2.79 2.626-4.62 0-2.54-2.073-4.6-4.63-4.6-2.556 0-4.63 2.06-4.63 4.6zM3585.182 3.704v17.592h-16.364V3.704h16.364zm-3579.455-1.852H3v21.296h2.727V25h.91v-1.852h1.817V25h.91v-1.852h1.818V25h.91v-1.852h1.817V25h.907v-1.852h1.818V25h.91v-1.852h1.818V25h.91v-1.852H23V1.852h-2.727V0h-.91v1.852h-1.817V0h-.91v1.852h-1.818V0h-.91v1.852H12.09V0h-.907v1.852h-1.82V0h-.91v1.852H6.637V0h-.91v1.852zm8.38 15.885c.456.52 1.123.782 1.99.782v.923h.752v-.925c.88-.002 1.56-.262 2.03-.812.47-.535.71-1.258.71-2.17 0-.984-.37-1.707-1.08-2.17-.255-.16-.81-.39-1.66-.68v-3.5c.41 0 .75.172 1.035.505.27.334.412.754.427 1.274h.994c0-.795-.227-1.446-.654-1.938-.44-.492-1.037-.782-1.804-.854v-.767h-.753v.767c-.824.116-1.45.42-1.875.897-.426.492-.64 1.13-.64 1.924 0 .897.3 1.592.91 2.055.27.23.81.476 1.605.737v3.834c-.625-.086-1.08-.36-1.35-.81-.1-.144-.17-.29-.2-.463-.027-.173-.07-.506-.127-1.012h-.994c0 .03-.014.072-.014.13v.116c0 .91.227 1.635.696 2.156zm.896-7.986c.255-.287.61-.475 1.094-.562v3.4c-.995-.29-1.478-.854-1.478-1.707 0-.462.126-.84.382-1.13zm1.846 4.17c.652.216 1.092.447 1.334.71.24.26.37.605.37 1.07 0 .52-.157.953-.44 1.3-.3.35-.726.565-1.266.622V13.92zm-10.215 4.6v.925h4.546v-.925l-4.545-.002zm0-2.778v.927h2.728v-.927H6.636zm0-2.777v.926h3.637v-.926H6.636zm0-2.778v.926h4.546v-.925H6.637zm0-2.778v.925h5.455V7.41H6.637zM23 23.146h-.91V25H23v-1.852zM22.09 0v1.852H23V0h-.91zM3.91 25v-1.852H3V25h.91zM3 1.852h.91V0H3v1.852zM3655 4h-25v17h25v-5.035c-.163.023-.33.035-.5.035-1.933 0-3.5-1.567-3.5-3.5s1.567-3.5 3.5-3.5c.17 0 .337.012.5.035V4zm-3654 1h23v2.615c-2.353.202-4.5 1.834-4.5 4.885 0 3.05 2.147 4.683 4.5 4.885V20H1V5zm22 1.765V6H2v13h21v-.765c-2.405-.554-4.5-2.463-4.5-5.735 0-3.272 2.095-5.18 4.5-5.735zM3708.5 0c-6.903 0-12.5 5.597-12.5 12.5 0 6.904 5.597 12.5 12.5 12.5s12.5-5.596 12.5-12.5c0-6.903-5.597-12.5-12.5-12.5zm-3692.46 18H8.968l2.265-6.468c-1.095-.486-1.857-1.38-1.857-2.657 0-1.726 1.388-3.06 3.112-3.06 1.727 0 3.138 1.334 3.138 3.06 0 1.276-.766 2.12-1.862 2.605L16.04 18zM3778.04 19h-7.072l2.265-6.468c-1.095-.486-1.857-1.38-1.857-2.657 0-1.726 1.388-3.06 3.112-3.06 1.727 0 3.138 1.334 3.138 3.06 0 1.276-.766 2.12-1.862 2.605l2.276 6.52zM3842 7.5c0-1.38 1.12-2.5 2.5-2.5s2.5 1.12 2.5 2.5-1.12 2.5-2.5 2.5c-.77 0-1.46-.35-1.92-.9l-5.625 2.935c.028.15.045.306.045.465 0 .258-.037.51-.11.745l5.615 2.75c.455-.605 1.18-.995 1.995-.995 1.38 0 2.5 1.12 2.5 2.5s-1.12 2.5-2.5 2.5-2.5-1.12-2.5-2.5c0-.207.027-.407.075-.6l-5.67-2.78c-.458.54-1.142.88-1.905.88-1.38 0-2.5-1.12-2.5-2.5s1.12-2.5 2.5-2.5c.864 0 1.626.44 2.075 1.105l5.53-2.885c-.07-.228-.105-.47-.105-.72zM-3815.5.002C5.592.002 0 5.6 0 12.502 0 19.4 5.594 25 12.5 25 19.4 25 25 19.403 25 12.5 25 5.6 19.4.003 12.5.003zM3911.635.187c-.46-.337-1.08-.207-1.458.295l-8.663 10.902c-.242.336-.514.498-.514 1.116 0 .615.272.78.514 1.116l8.663 10.902c.378.502 1 .632 1.458.295.413-.302.504-1.02.126-1.522l-8.632-10.79 8.632-10.79c.38-.503.288-1.22-.125-1.523zM3967.365.187c.46-.337 1.08-.207 1.458.295l8.663 10.902c.242.335.514.498.514 1.115 0 .614-.272.78-.514 1.115l-8.663 10.903c-.378.502-1 .632-1.458.295-.413-.302-.504-1.02-.126-1.522l8.632-10.79-8.632-10.79c-.38-.504-.29-1.22.124-1.524zM4038.5 0c-6.903 0-12.5 5.598-12.5 12.5 0 6.904 5.597 12.5 12.5 12.5s12.5-5.596 12.5-12.5c0-6.9-5.597-12.5-12.5-12.5zm-4022.69 12.448h-2.165v7.72h-3.21v-7.72H8.912V9.722h1.526V7.957c0-1.265.6-3.238 3.238-3.238l2.375.007v2.648h-1.725c-.28 0-.68.14-.68.74V9.72h2.446l-.28 2.727zM4104.5 0c-6.903 0-12.5 5.598-12.5 12.5 0 6.904 5.597 12.5 12.5 12.5s12.5-5.596 12.5-12.5c0-6.9-5.597-12.5-12.5-12.5zm-4090.8 15.963c-.964 0-1.872-.52-2.182-1.113 0 0-.52 2.058-.63 2.455-.385 1.403-1.522 2.808-1.61 2.923-.063.08-.198.055-.213-.052-.025-.178-.315-1.95.027-3.393.17-.726 1.15-4.867 1.15-4.867s-.286-.57-.286-1.414c0-1.323.767-2.312 1.722-2.312.812 0 1.205.61 1.205 1.34 0 .818-.52 2.04-.79 3.17-.223.948.476 1.72 1.41 1.72 1.692 0 2.833-2.173 2.833-4.748 0-1.957-1.318-3.423-3.717-3.423-2.71 0-4.4 2.02-4.4 4.276 0 .778.23 1.328.59 1.752.166.194.19.272.13.496-.045.165-.14.56-.184.717-.06.228-.242.308-.447.224-1.248-.51-1.83-1.875-1.83-3.41 0-2.538 2.14-5.58 6.383-5.58 3.41 0 5.654 2.466 5.654 5.116 0 3.504-1.948 6.12-4.818 6.12zM4170.5 0c-6.902 0-12.5 5.598-12.5 12.5 0 6.904 5.597 12.5 12.5 12.5 6.904 0 12.5-5.596 12.5-12.5 0-6.9-5.596-12.5-12.5-12.5zm-4151.702 9.98c.006.136.01.27.01.408-.002 4.163-3.17 8.963-8.964 8.963-1.78 0-3.435-.52-4.83-1.413.247.03.498.043.752.043 1.476 0 2.834-.504 3.912-1.35-1.378-.025-2.54-.935-2.942-2.187.192.037.39.057.593.057.285 0 .563-.038.83-.11-1.444-.29-2.53-1.564-2.53-3.09v-.04c.425.237.91.378 1.428.395-.847-.566-1.403-1.53-1.403-2.622 0-.578.155-1.12.426-1.584 1.555 1.904 3.877 3.16 6.495 3.29-.054-.23-.082-.47-.082-.72 0-1.74 1.41-3.15 3.15-3.15.907 0 1.725.384 2.3.996.718-.14 1.392-.404 2-.765-.235.738-.735 1.355-1.385 1.744.638-.076 1.245-.245 1.81-.496-.422.63-.957 1.186-1.572 1.63zM4231.163 13.552h.905v4.496h.875v-4.496h.904v-.765h-2.684v.765zm-4218.63-3.736c.12 0 .214-.032.283-.096.07-.066.105-.157.105-.27V7.12c0-.094-.033-.17-.105-.227-.07-.058-.164-.087-.28-.087-.106 0-.193.03-.26.087-.066.057-.1.133-.1.227v2.33c0 .116.032.207.094.27.06.064.15.096.265.096zm1.93 4.304c-.12 0-.24.03-.36.09-.115.063-.226.154-.33.272v-1.695h-.785v5.26h.784v-.296c.1.12.213.21.332.265.117.057.253.085.406.085.23 0 .406-.074.527-.22.12-.148.182-.358.182-.633v-2.154c0-.32-.066-.56-.196-.725-.13-.166-.317-.25-.563-.25zm-.044 3.02c0 .125-.024.213-.07.268-.044.055-.113.082-.21.082-.064 0-.125-.015-.186-.042-.06-.026-.12-.074-.183-.137v-2.416c.054-.054.107-.094.16-.12.055-.025.11-.037.165-.037.105 0 .186.033.242.1.055.068.08.167.08.3v2.004zm-2.792-.024c-.073.083-.153.152-.24.207-.088.055-.16.082-.216.082-.073 0-.126-.02-.16-.062-.03-.04-.048-.107-.048-.198v-2.978h-.776v3.246c0 .232.046.402.136.52.092.115.226.173.406.173.146 0 .296-.04.45-.123.156-.085.304-.204.448-.36v.425h.776v-3.88h-.776v2.948zM12.5 0C5.597 0 0 5.597 0 12.5 0 19.404 5.597 25 12.5 25S25 19.404 25 12.5C25 5.597 19.403 0 12.5 0zm2.02 6.174h.872v3.278c0 .103.02.175.056.22.036.045.096.07.178.07.064 0 .145-.032.244-.09.098-.063.188-.14.27-.233V6.172h.873v4.276h-.874v-.473c-.16.173-.33.307-.505.397-.174.09-.342.137-.506.137-.204 0-.356-.063-.458-.19-.102-.127-.153-.317-.153-.574V6.174zm-3.244.977c0-.33.117-.592.352-.79.236-.194.552-.293.948-.293.362 0 .658.104.89.31.23.206.345.474.345.8v2.21c0 .366-.11.652-.336.86-.228.207-.54.31-.936.31-.382 0-.688-.106-.917-.32-.23-.216-.343-.505-.343-.868V7.15zm-2.38-2.495l.64 2.316h.06l.61-2.315h1l-1.146 3.39v2.405h-.983V8.153l-1.17-3.5h.99zm11.442 12.2c0 1.546-1.254 2.8-2.802 2.8H7.803C6.255 19.655 5 18.4 5 16.855V14.6c0-1.547 1.255-2.8 2.803-2.8h9.733c1.548 0 2.802 1.253 2.802 2.8v2.253zm-3.533-2.785c-.348 0-.63.105-.85.32-.22.21-.33.486-.33.82v1.744c0 .375.102.67.3.88.2.214.474.32.822.32.387 0 .677-.1.87-.3.197-.2.292-.5.292-.9v-.2h-.8v.178c0 .23-.027.377-.077.443s-.14.1-.27.1c-.123 0-.21-.04-.263-.117-.05-.08-.074-.22-.074-.426v-.73h1.483v-.992c0-.367-.096-.65-.287-.846-.19-.195-.464-.294-.82-.294zm.307 1.527h-.686v-.392c0-.163.025-.28.08-.348.054-.073.142-.107.266-.107.118 0 .205.034.258.107.054.067.082.185.082.348v.392zM4302.493 0c-6.903 0-12.5 5.598-12.5 12.5 0 6.904 5.598 12.5 12.5 12.5 6.903 0 12.5-5.596 12.5-12.5 0-6.903-5.597-12.5-12.5-12.5zm-4283.337 17.063c-.47.47-1.422.703-2.01.185l-5.704-4.4-.04-.044-.154-.18-.11-.16-.066-.2-.06-.212L11 11.99V7.592c0-.608.845-1.614 1.476-1.614.63 0 1.524 1.006 1.524 1.614v3.868l4.89 3.665c.49.38.782 1.422.266 1.938zM4378.338 2.525l-2.128 2.1 2.662 2.618 2.128-2.1-2.662-2.618zm-4359.192 3.15L9.043 15.65v2.625h2.675l10.09-9.982-2.662-2.618zM0 11.45v2.1h7.98v-2.1H0zm0 9.45V23h20.745v-2.1H0zM0 6.725v2.1h11.702v-2.1H0zm0 9.45v2.1h5.85v-2.1H0zM0 2v2.1h15.957V2H0zM4434.5 22.256c-3.72 0-6.747-3.015-6.747-6.72 0-3.708 3.027-6.723 6.747-6.723 3.72 0 6.747 3.016 6.747 6.722 0 3.706-3.027 6.72-6.747 6.72zM-4411.324 3.19c0-1.003.818-1.818 1.824-1.818 1.006 0 1.824.815 1.824 1.817 0 .62-.313 1.17-.79 1.495V4.08c0-.567-.463-1.028-1.034-1.028-.57 0-1.032.46-1.032 1.03v.604c-.478-.327-.792-.876-.792-1.497zM13.7 6.144c1.173-.474 2-1.62 2-2.956C15.7 1.43 14.266 0 12.5 0c-1.765 0-3.2 1.43-3.2 3.19 0 1.335.828 2.48 2 2.955-1.534.193-2.953.75-4.168 1.58l-.8-.798c-.74-.735-1.94-.735-2.678 0l-.098.097c-.738.735-.738 1.932 0 2.667l.866.865C3.522 12 3 13.707 3 15.535 3 20.762 7.253 25 12.5 25s9.5-4.238 9.5-9.465c0-4.822-3.62-8.802-8.3-9.39zM12.5 16.46c-.512 0-.93-.415-.93-.925s.418-.926.93-.926.93.413.93.924c0 .51-.418.926-.93.926zm2.957-5.12l-2.08 2.07c-.27-.11-.566-.172-.877-.172-1.272 0-2.306 1.03-2.306 2.297 0 1.267 1.035 2.298 2.306 2.298 1.272 0 2.306-1.03 2.306-2.298 0-.197-.025-.387-.072-.57l.04-.036 2.143-2.136c.403-.402.403-1.053 0-1.454-.403-.402-1.057-.402-1.46 0zM4496.706 7.87c0-1.79 1.475-3.24 3.294-3.24 1.82 0 3.294 1.45 3.294 3.24 0 1.79-1.475 3.24-3.294 3.24-1.82 0-3.294-1.45-3.294-3.24zM-4484 7.87c0 1.53.446 2.96 1.214 4.167L12.146 25l6.645-12.963C19.56 10.83 20 9.4 20 7.87 20 3.524 16.418 0 12 0S4 3.524 4 7.87zM4566.5 25c-6.903 0-12.5-5.596-12.5-12.5 0-6.903 5.597-12.5 12.5-12.5s12.5 5.597 12.5 12.5c0 6.904-5.597 12.5-12.5 12.5zM-4541.5.997C6.158.997.997 6.157.997 12.5c0 6.346 5.16 11.503 11.503 11.503 6.342 0 11.503-5.157 11.503-11.503C24.003 6.158 18.843.997 12.5.997zm-2.213 18.17l-.93-1.08-4.334-5.18 1.716-1.852 3.335 2.2 7.47-5.777 1.737 1.844-8.03 8.8-.966 1.044zM4640.14 14.435h1.388v1.39h-1.39v-1.39zm-4623.473 0h1.388v1.39h-1.388v-1.39zm-3.473 0h1.39v1.39h-1.39v-1.39zM2.778 12.348h4.86v3.478H2.78v-3.478zM0 10.956v6.957C0 19.066.96 20 2.143 20h20.714C24.04 20 25 19.066 25 17.913v-6.957H0zM2.143 4C.96 4 0 4.934 0 6.087V8.87h25V6.087C25 4.934 24.04 4 22.857 4H2.143z" fill="#fff"/></svg>