<svg baseProfile="tiny" xmlns="http://www.w3.org/2000/svg" preserveAspectRatio="xMinYMin meet" viewBox="0 0 1583 26" width="1583" height="26"><path stroke="#449FDB" d="M0 0"/><path d="M15.658 4.91l-1.58-1.58-1.409-1.409-1.58-1.58c-.387-.387-1.077-.456-1.533-.152l-4.319 2.88c-.456.304-.628.954-.383 1.444l1.101 2.203.115.213-5.571 5.571-.5 3.5h3v-1h2v-2h2v-2h2v-1.112l.284.157 2.203 1.101c.49.245 1.14.072 1.444-.383l2.88-4.319c.304-.456.236-1.146-.152-1.533zm-13.304 8.444l-.707-.707 4.868-4.868.707.707-4.868 4.868zm11.974-6.733l-.707.707c-.194.194-.513.194-.707 0l-4.243-4.243c-.194-.194-.194-.513 0-.707l.707-.707c.194-.194.513-.194.707 0l4.243 4.243c.194.194.194.513 0 .707z" fill="#fff"/><g transform="translate(17)"><path stroke="#449FDB" d="M0 0"/><path d="M13.5 2l-7.5 7.5-3.5-3.5-2.5 2.5 6 6 10-10z" fill="#fff"/></g><g transform="translate(34)"><path stroke="#449FDB" d="M0 0"/><path d="M15.854 12.854l-4.854-4.854 4.854-4.854.114-.178c.066-.178.028-.386-.114-.529l-2.293-2.293c-.143-.143-.351-.181-.529-.114l-.178.114-4.854 4.854-4.854-4.854-.178-.114c-.178-.066-.386-.029-.529.114l-2.293 2.293c-.143.143-.181.351-.114.529l.114.178 4.854 4.854-4.854 4.854-.114.178c-.066.178-.029.386.114.529l2.293 2.293c.143.143.351.181.529.114l.178-.114 4.854-4.854 4.854 4.854.178.114c.178.066.386.029.529-.114l2.293-2.293c.143-.143.181-.351.114-.529l-.114-.178z" fill="#fff"/></g><g transform="translate(51)"><path stroke="#449FDB" d="M0 0"/><path d="M6 8h-5v-2h5v-2l3 3-3 3zm10-8v13l-6 3v-3h-6v-4h1v3h5v-9l4-2h-9v4h-1v-5z" fill="#fff"/></g><g transform="translate(68)"><path stroke="#449FDB" d="M0 0"/><path d="M12 10v-2h-5v-2h5v-2l3 3zm-1-1v4h-5v3l-6-3v-13h11v5h-1v-4h-8l4 2v9h4v-3z" fill="#fff"/></g><g transform="translate(85)"><path stroke="#449FDB" d="M0 0"/><path d="M11 0c-2.761 0-5 2.239-5 5 0 .313.029.619.084.916l-6.084 6.084v3c0 .552.448 1 1 1h1v-1h2v-2h2v-2h2l1.298-1.298c.531.192 1.105.298 1.702.298 2.761 0 5-2.239 5-5s-2.239-5-5-5zm1.498 5.002c-.828 0-1.5-.672-1.5-1.5s.672-1.5 1.5-1.5 1.5.672 1.5 1.5-.672 1.5-1.5 1.5z" fill="#fff"/></g><g transform="translate(102)"><path stroke="#449FDB" d="M0 0"/><path d="M1 3h14v3h-14zm0 4h14v3h-14zm0 4h14v3h-14z" fill="#fff"/></g><g transform="translate(119)"><path stroke="#449FDB" d="M0 0"/><path d="M0 6.5v3c0 .276.224.5.5.5h15c.276 0 .5-.224.5-.5v-3c0-.276-.224-.5-.5-.5h-15c-.276 0-.5.224-.5.5z" fill="#fff"/></g><g transform="translate(136)"><path stroke="#449FDB" d="M0 0"/><path d="M15.5 6h-5.5v-5.5c0-.276-.224-.5-.5-.5h-3c-.276 0-.5.224-.5.5v5.5h-5.5c-.276 0-.5.224-.5.5v3c0 .276.224.5.5.5h5.5v5.5c0 .276.224.5.5.5h3c.276 0 .5-.224.5-.5v-5.5h5.5c.276 0 .5-.224.5-.5v-3c0-.276-.224-.5-.5-.5z" fill="#fff"/></g><g transform="translate(153)"><path d="M8 7h9c1.105 0 2 .895 2 2v4c0 1.105-.895 2-2 2h-.7l-6.32 5.132 2.645-5.132h-4.625c-1.104 0-2-.895-2-2v-4c0-1.105.896-2 2-2zm4.493-6.999c-6.902 0-12.5 5.596-12.5 12.499 0 6.903 5.598 12.5 12.5 12.5 6.903 0 12.499-5.596 12.499-12.5 0-6.903-5.596-12.499-12.499-12.499z" fill="#fff"/></g><g transform="translate(179)"><path d="M6.674 8l.826-2.348.826 2.348h2.674l-2.164 1.652.828 2.348-2.164-1.653-2.164 1.653.828-2.348-2.164-1.652h2.674zm-6.674 4.5c0 .508.031 1.008.09 1.5h24.82c.059-.492.09-.992.09-1.5v-.5h-12v-2h11.75c-.14-.689-.337-1.357-.585-2h-11.165v-2h10.18c-2.195-3.598-6.157-6-10.68-6-6.904 0-12.5 5.596-12.5 12.5zm23.73 5.5c.313-.638.573-1.306.775-2h-24.005c.202.694.462 1.362.775 2h22.455zm-21.23 2c2.279 3.036 5.91 5 10 5s7.724-1.964 10.005-5h-20.005z" fill="#fff"/></g><g transform="translate(205)"><path d="M24.873 15.971c0-3.481-3.141-6.303-7.015-6.303-3.875 0-7.016 2.822-7.016 6.303s3.141 6.303 7.016 6.303c.645 0 1.27-.079 1.864-.226 1.755.674 4.212 1.705 5.278 2.561 0 0-1.332-2.41-2.101-4.255 1.223-1.134 1.974-2.679 1.974-4.383zm-24.649-5.424c0 2.851 1.327 5.437 3.486 7.334-1.358 3.086-3.71 7.119-3.71 7.119 1.883-1.433 6.221-3.158 9.32-4.285.419.098.848.177 1.283.237-.966-1.338-1.531-2.952-1.531-4.693 0-4.611 3.962-8.349 8.849-8.349 2.88 0 5.436 1.299 7.052 3.309.016-.222.027-.447.027-.672 0-5.825-5.546-10.546-12.388-10.546s-12.388 4.722-12.388 10.546z" fill="#fff"/></g><g transform="translate(231)"><path d="M10 3v7h-7v5h7v7h5v-7h7v-5h-7v-7h-5z" fill="#fff"/></g><g transform="translate(257)"><path d="M4.234 7.764l4.236 4.236-4.235 4.235 3.529 3.529 4.236-4.235 4.235 4.234 3.529-3.529-4.234-4.235 4.234-4.235-3.529-3.529-4.235 4.235-4.236-4.235-3.529 3.529z" fill="#fff"/></g><g transform="translate(283)"><path d="M25 6.25l-8.909 6.25v-3.572c-1.545-.063-14.254-1.786-16.036 3.572 0 0-1.853-9.651 16.036-8.928v-3.572l8.909 6.25zm-16.091 9.822c1.545.063 14.254 1.786 16.036-3.572 0 0 1.853 9.651-16.036 8.928v3.572l-8.909-6.25 8.909-6.25v3.572z" fill="#fff"/></g><g transform="translate(309)"><path d="M11 16h-4v-1h1v-1h1v-1h1v-1h1v-1h1v-1h1v1h1v1h1v1h1v1h1v1h1v1h-4v4h-3v-4zm0-8v-3h3v3h-3zm1.5-8c-6.904 0-12.5 5.596-12.5 12.5s5.596 12.5 12.5 12.5 12.5-5.596 12.5-12.5-5.596-12.5-12.5-12.5z" fill="#fff"/></g><g transform="translate(335)"><path d="M15.705 10.395l6.493 6.101h-11.74v1.748h11.74l-6.493 6.101.693.654h1.195l7.408-6.993v-1.273l-7.408-6.993h-1.195l-.693.654zm-6.41-8.741l-.693-.654h-1.195l-7.408 6.993v1.273l7.408 6.993h1.195l.693-.654-6.493-6.101h11.739v-1.748h-11.739l6.493-6.101z" fill="#fff"/></g><g transform="translate(361)"><g fill="#fff"><path d="M21.51 20.546c-.262-.404-.811-.524-1.227-.271-1.817 1.112-3.919 1.699-6.077 1.699-6.301 0-11.427-4.98-11.427-11.101 0-3.754 1.931-7.226 5.166-9.288.41-.261.525-.797.255-1.196-.27-.399-.821-.51-1.232-.248-3.738 2.382-5.968 6.394-5.968 10.732 0 5.721 3.876 10.578 9.21 12.227-1.509.418-2.596 1.1-2.909 1.899h12.708c-.276-.702-1.151-1.314-2.381-1.736 1.267-.329 2.482-.84 3.603-1.526.415-.255.54-.788.279-1.192zM13.917 1.138c-5.568 0-10.083 4.385-10.083 9.795s4.515 9.795 10.083 9.795c5.568 0 10.083-4.385 10.083-9.795s-4.515-9.795-10.083-9.795zm4.264 12.807c0 .154-.055.394-.123.533l-.736 1.509c-.068.139-.219.338-.334.444l-2.397 2.174c-.115.105-.08.191.078.191h.274c.158 0 .288.11.288.245s-.13.246-.288.246h-1.178c-.158 0-.288-.127-.288-.281v-2.977c0-.155.129-.28.288-.28h.328c.159 0 .288-.126.288-.28v-.318c0-.154-.13-.28-.288-.28h-.328c-.158 0-.288-.126-.288-.28v-1.745c0-.153-.13-.28-.289-.28h-.488c-.158 0-.394-.073-.523-.162l-1.55-1.065c-.13-.088-.302-.27-.382-.403l-.725-1.196c-.08-.133-.276-.241-.434-.241h-.346c-.159 0-.344-.113-.413-.252l-.841-1.691c-.068-.138-.125-.378-.125-.532v-.964c0-.154-.124-.243-.275-.198l-.338.101c1.463-1.986 3.777-3.34 6.421-3.557v1.163c0 .153.106.352.236.44l.54.369c.13.088.365.161.524.161h.427c.159 0 .288.102.288.226 0 .124-.089.317-.198.429l-.615.63c-.11.111-.069.203.09.203l.41.001c.158 0 .288.126.288.28l-.002 1.005c0 .154.13.28.287.28h.463c.158 0 .288.095.288.213 0 .117-.13.212-.288.212h-1.421c-.158 0-.391.077-.517.17l-.582.431c-.126.093-.229.295-.229.449v1.672c0 .154-.129.28-.288.28h-.08c-.158 0-.288-.126-.288-.28v-.963c0-.154-.129-.28-.288-.28h-.777c-.158 0-.288.126-.289.28l-.004.777c-.001.154.1.358.224.455l1.147.894c.123.097.354.175.512.176l1.915.001c.159 0 .403.059.543.13l2.441 1.239c.14.071.255.255.255.41v.085h.001zm-.74-8.385c-.128.091-.362.166-.52.166h-.124c-.158 0-.288-.126-.288-.28v-.91c0-.154-.129-.28-.287-.28h-.417c-.158 0-.288-.126-.288-.28v-1.459c1.379.247 2.648.804 3.722 1.597-.037.12-1.797 1.445-1.797 1.445z"/></g></g><g transform="translate(387)"><g fill="#fff"><path d="M9.314 14.325l-5.002.006c-.756-.438-1.429-1.015-1.971-1.728l6.958-.006v-1.916l-7.963.003c-.176-.531-.296-1.105-.35-1.726l8.321.003-.007-1.923h-2.038v-1.727l2.053-.008.08-1.032c0-.295.085-.639.211-.883l-2.344.004v-1.727l4.411.001c.453.202.884.448 1.284.738h1.48c-1.603-1.605-3.868-2.404-6.103-2.404-4.117 0-8.333 2.709-8.333 8.173s4.217 8.173 8.333 8.173c.163 0 .817-.003.98-.012v-2.009zm-5.957-9.728l.631-1.978.631 1.978h2.042l-1.652 1.222.632 1.978-1.652-1.223-1.652 1.223.632-1.978-1.652-1.222h2.042z"/><path d="M24.161 3.365h-13.055c-.447 0-.812.488-.812.914v19.947c0 .426.365.774.812.774h13.082c.447 0 .812-.348.812-.774v-19.947c0-.426-.365-.914-.812-.914h-.027zm-6.497 21.035c-.746 0-1.354-.58-1.354-1.29 0-.711.608-1.29 1.354-1.29.746 0 1.354.579 1.354 1.29 0 .711-.608 1.29-1.354 1.29zm5.865-3.985c0 .406-.348.737-.774.737h-10.217c-.426 0-.774-.332-.774-.737v-14.871c0-.406.348-.738.774-.738h10.217c.425 0 .774.332.774.738v14.871zm-10.294-.705h8.823v-13.462h-8.823v13.462z"/></g></g><g transform="translate(413)"><path d="M0 23v-5.793h2.941v2.896h19.118v-2.896h2.941v5.793h-25zm4.963-13.759h3.125v-7.241h8.823v7.241h3.125l-7.537 7.242-7.537-7.242z" fill="#fff"/></g><g transform="translate(439)"><path d="M3.583 6.5h17.833l-8.917 7.408-8.917-7.408zm20.659-1.5h-23.486l-.246.244c-.184.085-.357.191-.511.314l.106.088-.106.105v13.5l.758.75h23.485000000000003l.758-.75v-13.5l-.106-.105.106-.088c-.155-.122-.327-.229-.511-.314l-.246-.244zm-20.951 13.5l4.277-3.472-1.197-1.028-4.856 3.941v-11.126l10.449 8.685.536.434.536-.434 10.449-8.685v11.126l-4.856-3.941-1.201 1.032 4.273 3.468h-18.409z" fill="#fff"/></g><g transform="translate(465)"><path d="M24.795 19.194l-7.694-6.616 7.794-6.762c.06.161.105.329.105.51v12.155c0 .263-.084.498-.205.713zm-23.074-14.167l.132-.027h21.582l.217.043-11.005 9.383-10.927-9.4zm-1.58 14.072c-.087-.19-.141-.397-.141-.619v-12.155c0-.208.045-.406.12-.588l8.077 6.817-8.056 6.544zm12.5-2.642l3.294-2.866 7.431 6.408h-21.513l-.081-.016 7.588-6.409 3.282 2.883z" fill="#fff"/></g><g transform="translate(491)"><path d="M6.312 10.988c0-1.066.883-1.931 1.972-1.931 1.09 0 1.973.864 1.973 1.931 0 1.066-.883 1.931-1.973 1.931-1.089 0-1.972-.864-1.972-1.931zm5.281-3.662c-.958.426-1.61-.981-.652-1.406 1.736-.771 4.486-1.118 6.413-.216.949.444.268 1.838-.681 1.393-1.367-.64-3.604-.427-5.08.229zm-8.437 2.504l-3.156.772v5.406s3.647 2.263 6.204 2.588c0 1.555.263 2.833.897 4.363h3.156s.833-.853 1.096-2.395c.798.349 4.75.594 6.005.078.281 1.184.452 1.853.789 2.317.915.093 3.156 0 3.156 0s1.059-2.748.717-4.363c1.309-1.169 3.198-3.35 2.959-6.683-.284-3.954-3.812-8.02-9.615-8.187-3.754-.108-5.69 1.281-5.69 1.281l-3.357-3.007-.005 4.74-3.156 3.089z" fill="#fff"/></g><g transform="translate(517)"><path d="M12.162 11h6.081v.667h-6.081v-.667zm0-2h8.108v.667h-8.108v-.667zm0-2h6.081v.667h-6.081v-.667zm0-2h6.081v.667h-6.081v-.667zm8.108-1.333l4.054 4h-4.054v-4zm-10.135-.667v11.995c1.192.188 2.027.633 2.027 2.005 0 .512-.17 1.159-.861 1.333.691.225.861.482.861 1.333h12.838v-12.667l-4.054-4h-10.811zm7.627 15.444l-3.804-4.139 1.242-1.319 2.419 1.519 5.032-4.064 1.385 1.508-6.274 6.496zm-11.681-1.444c0 .736 1.21 1.333 2.703 1.333 1.493 0 2.703-.597 2.703-1.333s-1.21-1.333-2.703-1.333c-1.493 0-2.703.597-2.703 1.333zm0 2.667c0 .736 1.21 1.333 2.703 1.333 1.493 0 2.703-.597 2.703-1.333 0-.243-.131-.471-.361-.667-.467.399-1.341.667-2.341.667-1 0-1.874-.268-2.341-.667-.23.196-.361.424-.361.667zm-4.73-9.333c0 .736 1.21 1.333 2.703 1.333 1.493 0 2.703-.597 2.703-1.333s-1.21-1.333-2.703-1.333c-1.493 0-2.703.597-2.703 1.333zm4.054 2.667l-.024-.173c-.392.109-.845.173-1.328.173-1.374 0-2.508-.505-2.679-1.16-.82.229-1.375.662-1.375 1.16 0 .736 1.21 1.333 2.703 1.333 1.492 0 2.703-.597 2.703-1.333zm-4.73 2.667c0 .736 1.21 1.333 2.703 1.333.872 0 1.648-.203 2.142-.52.111-.244.297-.469.544-.667l.017-.147c0-.369-.304-.702-.794-.943-.338.546-1.367.943-2.584.943-.746 0-1.42-.149-1.909-.39-.076.123-.118.254-.118.39zm5.405 2.667l-.017-.147c-.174-.139-.317-.293-.426-.457-.483.363-1.315.603-2.26.603-1.001 0-1.874-.268-2.341-.667-.23.196-.361.424-.361.667 0 .736 1.21 1.333 2.703 1.333.872 0 1.648-.203 2.142-.52.111-.244.297-.469.544-.667l.017-.147z" fill="#fff"/></g><g transform="translate(543)"><path d="M14 10v4h4v1h-1v1h-1v1h-1v1h-1v1h-1v1h-1v-1h-1v-1h-1v-1h-1v-1h-1v-1h-1v-1h4v-4h3zm-3-2v-3h3v3h-3zm1.5-8c-6.904 0-12.5 5.596-12.5 12.5s5.596 12.5 12.5 12.5 12.5-5.596 12.5-12.5-5.596-12.5-12.5-12.5z" fill="#fff"/></g><g transform="translate(569)"><path d="M8.652 8.715l.015-.216c0-1.345.461-2.464 1.172-3.344.711-.88 1.612-1.333 2.703-1.333 1.015 0 1.865.39 2.551 1.157.685.767 1.028 1.71 1.028 2.841 0 .792-.152 1.421-.444 1.898-.305.478-.965 1.144-1.98 1.999-1.282 1.094-2.066 2.1-2.548 3.03-.482.93-.723 2.062-.723 3.37l.009.473 4.664.016c0-1.119.017-1.891.271-2.319.254-.427.434-1.024 1.461-1.754 1.586-1.119 2.665-2.15 3.236-3.08.571-.93.933-2.125.933-3.571 0-2.326-.87-4.224-2.444-5.683-1.586-1.458-3.629-2.2-6.129-2.2-2.563 0-4.594.609-6.066 2.08-1.485 1.484-2.362 3.668-2.362 6.635h4.652zm6.433 16.285v-4.645h-4.66v4.645h4.66z" fill="#fff"/></g><g transform="translate(595)"><path d="M2.34 16.691c.448-.31 1.696-.816 2.583-.814.598.001 1.203.11 1.905.428s1.772 1.137 2.181 2.069c.409.932.616 2.071.624 2.231 2.01.242 4.063-.437 5.54-2.047.884-.966 1.438-2.14 1.683-3.38-.927.931-1.78 1.501-3.223 1.771-.63.118-1.145.149-1.752.119-.747-.038-1.686-.343-2.389-.677-.551-.262-1.31-.692-2.042-1.675-.312-.419-.556-.678-.956-1.591-.4-.914-.584-2.482-.572-3.053.022-1.094.218-1.768.569-2.595l.01-.022c.072-.167.15-.332.235-.494.274-.522.611-1.019 1.024-1.47 1.272-1.388 2.956-2.095 4.643-2.113.254 0 .768-.465.996-.848-2.966-.566-6.319.543-8.774 3.224-2.883 3.147-3.675 7.527-2.283 10.94zm-1.34 4.169c0 2.287 1.756 4.14 3.923 4.14s3.923-1.854 3.923-4.14c0-2.286-1.756-4.14-3.923-4.14s-3.923 1.854-3.923 4.14zm20.66-12.551c-.448.31-1.696.816-2.583.814-.598-.001-1.203-.11-1.905-.428s-1.772-1.137-2.181-2.068c-.409-.932-.616-2.071-.624-2.231-2.01-.242-4.063.437-5.54 2.048-.884.966-1.438 2.14-1.683 3.38.927-.931 1.78-1.501 3.223-1.772.63-.118 1.145-.149 1.752-.119.747.038 1.686.343 2.389.677.551.262 1.31.692 2.042 1.675.312.419.556.678.956 1.591.4.914.584 2.482.572 3.053-.022 1.094-.218 1.768-.569 2.595l-.01.022c-.072.167-.15.332-.235.494-.274.523-.611 1.02-1.024 1.47-1.272 1.388-2.956 2.095-4.643 2.113-.254 0-.768.465-.996.848 2.966.566 6.319-.543 8.774-3.224 2.883-3.147 3.675-7.527 2.283-10.939zm1.34-4.169c0-2.287-1.756-4.14-3.923-4.14s-3.923 1.853-3.923 4.14c0 2.286 1.756 4.14 3.923 4.14s3.923-1.854 3.923-4.14z" fill="#fff"/></g><g transform="translate(621)"><path d="M13.793 9.483v10.345h-2.586v-10.345h2.586zm-2.586-1.724v-2.586h2.586v2.586h-2.586zm1.293-7.759c-6.904 0-12.5 5.596-12.5 12.5s5.596 12.5 12.5 12.5 12.5-5.596 12.5-12.5-5.596-12.5-12.5-12.5z" fill="#fff"/></g><g transform="translate(647)"><g fill="#fff"><path d="M5.374 8.664l-2.343-.004.803.787.003.595c0 .462.393.836.877.836v2.758l.744.347v-.525l1.335-1.272v-.614c.484 0 .877-.375.877-.836l.003-.596h-.778l-1.521-1.477zm-3.089-.004h.747v-.893h.891c.366 0 .663-.283.663-.631h.759l.794-.757v-.701l-.785-.749h-.799v.623h-.775c-.412 0-.747-.319-.747-.712 0-.393.334-.712.747-.712v-.729h-.691c1.339-1.399 3.267-2.277 5.411-2.277 1.599 0 3.077.491 4.281 1.321h1.794c-1.544-1.506-3.697-2.442-6.075-2.442-4.686 0-8.498 3.633-8.498 8.099s3.812 8.099 8.498 8.099c.268 0 .532-.011.793-.034v-1.127c-.261.027-.525.04-.793.04-4.044 0-7.321-3.124-7.321-6.977 0-.314.024-.622.066-.924l1.042 1.485zm5.81.034c0 .705.51 1.294 1.197 1.455v-2.433l-.674.001c-.289 0-.523.223-.523.498v.479zm-2.377-6.147l-.573.83.325.475.007.745.786.749.47-1.03c.764 0 1.383-.59 1.383-1.318l-2.398-.451z"/><path d="M24.161 3.365h-13.055c-.447 0-.812.488-.812.914v19.947c0 .426.365.774.812.774h13.082c.447 0 .812-.348.812-.774v-19.947c0-.426-.365-.914-.812-.914h-.027zm-6.497 21.035c-.746 0-1.354-.58-1.354-1.29 0-.711.608-1.29 1.354-1.29.746 0 1.354.579 1.354 1.29 0 .711-.608 1.29-1.354 1.29zm5.865-3.985c0 .406-.348.737-.774.737h-10.217c-.426 0-.774-.332-.774-.737v-14.871c0-.406.348-.738.774-.738h10.217c.425 0 .774.332.774.738v14.871zm-10.294-.705h8.823v-13.462h-8.823v13.462z"/></g></g><g transform="translate(673)"><g fill="#fff"><path d="M12 2.435c5.843 0 11.582 3.858 11.582 11.565h1.418c0-8.669-6.553-13-13-13v1.435zm0 4.805c3.447 0 6.782 2.259 6.782 6.76h1.403c0-5.463-4.148-8.185-8.185-8.185v1.426zm0 4.352c1.33 0 2.408 1.078 2.408 2.407h1.444c0-2.127-1.724-3.852-3.852-3.852v1.444z"/><path d="M14.848 18.052c1.117-.008 4.216 1.696 4.538 2.101.646.815.675 1.842.163 2.658-.857 1.366-2.687 2.185-3.426 2.189-1.896.01-7.113-.829-11.449-5.704-5.048-5.67-4.881-12.38-4.513-13.116.595-1.18 1.9-2.086 2.437-2.419.561-.349 1.536-.337 1.901-.023 1.366 1.173 2.402 3.33 2.291 5.522-.031.609-.674 1.298-2.137 2.506.459 1.442 1.733 3.373 2.755 4.518.944 1.061 2.947 2.859 4.41 3.533.606-.534 1.982-1.758 3.03-1.765z"/></g></g><g transform="translate(699)"><path d="M23.485 16.429v1.97l-1.072 1.078h-19.826l-1.072-1.078v-1.97h21.97zm-1.072-9.905l1.072 1.078v6.541h-21.97v-6.541l1.072-1.078h19.826zm.314-1.524h-20.455l-.536.223-1.515 1.524-.222.539v11.429l.222.539 1.515 1.524.536.223h20.455l.536-.223 1.515-1.524.222-.539v-11.429l-.222-.539-1.515-1.524-.536-.223zm-19.697 4.952c0 1.052.848 1.905 1.894 1.905 1.046 0 1.894-.853 1.894-1.905s-.848-1.905-1.894-1.905c-1.046 0-1.894.853-1.894 1.905z" fill="#fff"/></g><g transform="translate(725)"><path d="M12.5 0c-6.903 0-12.5 5.597-12.5 12.5 0 6.905 5.597 12.5 12.5 12.5s12.5-5.595 12.5-12.5c0-6.903-5.597-12.5-12.5-12.5zm0 24.003c-6.342 0-11.503-5.158-11.503-11.503 0-6.342 5.161-11.503 11.503-11.503 6.342 0 11.503 5.161 11.503 11.503 0 6.346-5.161 11.503-11.503 11.503zm6.228-14.635l-3.128-3.085-3.171 3.114-3.174-3.114-3.129 3.085 3.174 3.114-3.174 3.114 3.131 3.085 3.171-3.114 3.171 3.114 3.128-3.085-3.171-3.114 3.171-3.114z" fill="#fff"/></g><g transform="translate(751)"><path d="M12.499 0c-6.907 0-12.5 5.598-12.5 12.5 0 6.903 5.593 12.5 12.5 12.5 6.903 0 12.5-5.597 12.5-12.5 0-6.902-5.597-12.5-12.5-12.5zm5.501 13.999h-4v4.001h-3v-4.001h-4v-3h4v-4.001h3v4.001h4v3z" fill="#fff"/></g><g transform="translate(777)"><path d="M10.449 13.618l9.635-7.527 1.796 1.812-10.213 10.497-.999 1.028-.96-1.062-5.439-6.016 1.774-1.819 4.407 3.087zm2.051-13.618c-6.904 0-12.5 5.596-12.5 12.5s5.596 12.5 12.5 12.5 12.5-5.596 12.5-12.5-5.596-12.5-12.5-12.5z" fill="#fff"/></g><g transform="translate(803)"><path d="M12.5.198c-6.171 0-12.5 4.092-12.5 12.302s6.329 12.302 12.5 12.302 12.5-4.092 12.5-12.302-6.329-12.302-12.5-12.302zm.001 2.769c5.259 0 9.538 4.276 9.538 9.531 0 5.256-4.278 9.531-9.538 9.531-5.259 0-9.537-4.276-9.537-9.531 0-5.255 4.278-9.531 9.537-9.531zm9.148 10.142c.013-.202.023-.405.023-.611 0-.206-.009-.409-.023-.611h-1.457c.016.202.027.405.027.611 0 .206-.011.409-.027.611h1.457zm-2.795-4.982c.231.335.437.687.614 1.057l1.261-.728c-.181-.367-.385-.72-.612-1.057l-1.263.728zm-3.037-2.591c.37.177.723.383 1.057.613l.73-1.262c-.338-.227-.692-.431-1.059-.612l-.728 1.26zm-3.585 7.963l3.812-2.199-.734-1.27-2.542 1.466-2.568-4.445-1.271.733 3.302 5.714zm-.343-8.686c.202-.016.405-.027.611-.027.206 0 .409.011.612.027v-1.456c-.203-.013-.406-.023-.612-.023-.206 0-.409.009-.611.023v1.457zm-4.492.074l.729 1.262c.335-.231.688-.437 1.058-.613l-.728-1.26c-.367.181-.721.385-1.058.612zm1.787 14.573c-.37-.177-.723-.383-1.058-.613l-.729 1.262c.337.226.691.43 1.058.611l.729-1.26zm-4.912-11.004l1.261.728c.177-.37.383-.722.614-1.057l-1.263-.728c-.227.337-.431.691-.612 1.057zm.511 4.042c0-.206.011-.409.026-.611h-1.458c-.014.203-.023.405-.023.611 0 .206.009.409.023.611h1.458c-.016-.202-.026-.405-.026-.611zm1.364 4.371c-.231-.334-.437-.687-.614-1.056l-1.261.728c.181.367.385.72.612 1.057l1.263-.729zm6.965 3.314c-.202.017-.405.027-.612.027-.206 0-.409-.011-.611-.027v1.457c.202.014.406.023.611.023.206 0 .409-.009.612-.023v-1.457zm4.491-.074l-.729-1.262c-.334.231-.688.436-1.057.613l.728 1.26c.367-.181.721-.384 1.058-.611zm3.125-3.569l-1.261-.728c-.177.369-.383.722-.614 1.056l1.263.729c.227-.337.431-.691.612-1.057z" fill="#fff"/></g><g transform="translate(829)"><path d="M12.7 15.836c-.48.102-1.006.57-2.115 1.582-1.249-.595-2.958-2.185-3.764-3.122-.872-1.012-1.959-2.718-2.351-3.993 1.263-1.155 1.79-1.657 1.824-2.215.018-.3-.585-4.024-1.22-4.403l-.191-.124c-.404-.268-1.015-.675-1.693-.532-.165.035-.324.102-.474.198-.457.296-1.571 1.095-2.079 2.138-.314.65-.457 6.581 3.851 11.593 4.257 4.957 9.507 5.172 10.295 5.005l.022-.004.069-.02c1.064-.394 1.967-1.441 2.307-1.874.625-.797.178-1.747-.062-2.257l-.096-.213c-.286-.695-3.799-1.76-4.089-1.778l-.235.018zm7.3-6.861v2.087c-2.489.019-3.061-.198-4.062-1.006 0 2.117.915 3.902 4.062 3.902v2.07l4.541-3.599-4.541-3.453zm-6 1.053v-2.087c2.489-.019 3.061.198 4.061 1.006 0-2.117-.914-3.902-4.061-3.902v-2.07l-5.48 3.599 5.48 3.453z" fill="#fff"/></g><g transform="translate(855)"><g fill="#fff"><path d="M13.405 13.406l-2.155-3.504-.239 3 2.393.504zm-1.93-6.324l4.308 6.824 1.632.345-5.785-9.116-.155 1.948zm3.324-2.158h.134l-.014.183-.12-.183zm-.975-1.485c.483-1.05 1.122-1.751 1.789-2.138-.133.349-.222.696-.28.933-.148.61-.271 1.355-.359 2.234h-.475l-.676-1.029zm-.935-1.426c.354-.219.727-.406 1.113-.559-.277.317-.532.684-.759 1.1l-.354-.541zm8.8 12.788c1.939-1.321 3.311-3.551 3.311-6.683 0-5.395-4.072-8.114-8.101-8.118l-.037.001c-1.535.005-3.053.389-4.368 1.18l-.587 1.04 8.195 12.71 1.633-.101-.045-.029zm-1.133-1.107c.368-.671.665-1.467.873-2.382h2.014c-.561 1.272-1.459 2.242-2.535 2.909l-.014-.012-.338-.515zm-1.563-2.382h1.491c-.138.561-.312 1.058-.512 1.494l-.979-1.494zm-2.097-3.194h1.16c-.003.318-.014.938-.051 1.688l-1.109-1.688zm1.157-.456h-1.456l-.826-1.259c.021-.53.051-1.023.09-1.478h2.063c.094 1.111.122 2.164.13 2.738zm-1.819-5.216c.079-.328.326-1.259.651-1.516.547.429.841 1.984.997 3.538h-1.977c.085-.804.198-1.477.33-2.022zm4.599 5.672c0 1.032-.09 1.942-.248 2.738h-1.701c.082-1.155.096-2.193.097-2.738h1.852zm-.35-3.194c.193.785.315 1.695.343 2.738h-1.845c-.003-.539-.02-1.586-.116-2.738h1.618zm-2.303-3.627c.867.499 1.686 1.527 2.178 3.171h-1.535c-.114-1.131-.31-2.309-.644-3.171zm5.894 6.821c0 1.021-.161 1.934-.449 2.738h-2.102c.154-.827.236-1.741.236-2.738h2.315zm-.632-3.194c.351.794.57 1.707.62 2.738h-2.31c-.027-1.003-.14-1.918-.326-2.738h2.016zm-3.63-3.459c1.411.566 2.637 1.566 3.407 3.002h-1.907c-.341-1.256-.862-2.265-1.5-3.002z"/><path d="M14.848 18.052c1.117-.008 4.216 1.696 4.538 2.101.646.815.675 1.842.163 2.658-.857 1.366-2.687 2.185-3.426 2.189-1.896.01-7.113-.829-11.449-5.704-5.048-5.67-4.881-12.38-4.513-13.116.595-1.18 1.9-2.086 2.437-2.419.561-.349 1.536-.337 1.901-.023 1.366 1.173 2.402 3.33 2.291 5.522-.031.609-.674 1.298-2.137 2.506.459 1.442 1.733 3.373 2.755 4.518.944 1.061 2.947 2.859 4.41 3.533.606-.534 1.982-1.758 3.03-1.765z"/></g></g><g transform="translate(881)"><path d="M20.031 0h-15.092c-.517 0-.939.564-.939 1.056v23.049c0 .493.422.894.939.894h15.122c.517 0 .939-.402.939-.894v-23.049c0-.493-.422-1.056-.939-1.056h-.03zm-7.51 24.308c-.862 0-1.565-.67-1.565-1.491 0-.821.703-1.491 1.565-1.491s1.565.67 1.565 1.491c0 .821-.703 1.491-1.565 1.491zm6.78-4.604c0 .469-.403.852-.895.852h-11.811c-.492 0-.894-.383-.894-.852v-17.185c0-.469.403-.852.894-.852h11.811c.492 0 .895.384.895.852v17.185zm-11.9-.814h10.2v-15.556h-10.2v15.556z" fill="#fff"/></g><g transform="translate(907)"><path d="M23.254 20h-21.508c-.964 0-1.746-.785-1.746-1.748v-11.507c0-.964.782-1.745 1.746-1.745h21.508c.964 0 1.746.781 1.746 1.745v11.511c0 .963-.782 1.744-1.746 1.744zm.43-11.951c0-.963-.782-1.744-1.746-1.744h-18.876c-.964 0-1.746.781-1.746 1.744v8.903c0 .964.782 1.744 1.746 1.744h18.876c.964 0 1.746-.781 1.746-1.744v-8.903zm-3.062 9.343h-16.244c-.965 0-1.746-.396-1.746-1.36v-6.679c0-.963.782-1.744 1.746-1.744h16.244c.965 0 1.746.781 1.746 1.744v6.294c0 .964-.782 1.745-1.746 1.745zm-13.385-5.217h-2.632v1.304h2.632v-1.304zm5.18-3.295c-2.011 0-3.645 1.63-3.645 3.641 0 2.012 1.634 3.641 3.645 3.641 2.015 0 3.645-1.629 3.645-3.641s-1.63-3.641-3.645-3.641zm7.978 3.295h-2.632v1.304h2.632v-1.304zm-7.49-.025c.846.298.926.697.926 1.342 0 .632-.514 1.164-1.331 1.299v.645h-.658v-.674c-.476-.022-.939-.301-1.209-.45l.413-.693c.299.163.8.406 1.262.406.412 0 .635-.203.655-.479.024-.323-.225-.505-.921-.735-.604-.199-1.092-.569-1.092-1.258 0-.632.245-1.146.893-1.293v-.693h.658l.007.693c.466.021 1.149.222 1.398.336l-.226.794c-.178-.085-.609-.274-1.119-.312-.434-.032-.635.105-.635.451 0 .325.369.4.98.62z" fill="#fff"/></g><g transform="translate(933)"><path d="M12.5 0c-6.904 0-12.5 5.596-12.5 12.5s5.596 12.5 12.5 12.5 12.5-5.596 12.5-12.5-5.596-12.5-12.5-12.5zm4.5 16.03v-2.03h-3v3h2.161l-3.624 4-3.469-4h1.931v-3h-3v2.03l-3.984-3.588 3.984-3.628v2.186h3v-3h-2.087l3.624-4 3.488 4h-2.025v3h3v-2.124l4.005 3.639-4.005 3.515z" fill="#fff"/></g><g transform="translate(959)"><path d="M17 16.03v-2.03h-3v3h2.161l-3.624 4-3.469-4h1.931v-3h-3v2.03l-3.984-3.588 3.984-3.628v2.186h3v-3h-2.087l3.624-4 3.488 4h-2.025v3h3v-2.124l4.005 3.639-4.005 3.515z" fill="#fff"/></g><g transform="translate(985)"><path d="M17.412 15.841l-.008.097-.002.011c-.074.471-.493.833-.999.833v.001h-.301l-.043-.001-.043.001c-.323.02-.586.262-.626.572l-.005.064-.541 6.578-.015.196c-.084.459-.497.807-.994.807h-2.666c-.504 0-.922-.359-.998-.829l-.012-.153-.541-6.59-.008-.086c-.044-.304-.304-.541-.624-.56l-.043-.001-.043.001h-.306v-.001c-.493 0-.904-.344-.993-.799l-.017-.189-.583-6.245c0-.836.698-1.515 1.559-1.515h7.882c.861 0 1.559.678 1.559 1.515l-.588 6.291zm-4.912-9.134c-1.906 0-3.451-1.502-3.451-3.353 0-1.852 1.545-3.354 3.451-3.354 1.906 0 3.452 1.502 3.452 3.354 0 1.851-1.546 3.353-3.452 3.353z" fill="#fff"/></g><g transform="translate(1011)"><path d="M18.019 6.259h-2.059l1.059-2.677h2.063l-1.064 2.677zm-5.976 0v.892h1.972l-1.059 2.677h1.591l1.061-2.677h2.059l-1.059 2.677h1.591l1.061-2.677h1.913v-.892h-1.561l1.059-2.677h2.328v-.892h-1.972l1.059-2.677h-1.591l-1.061 2.677h-2.059l1.059-2.677h-1.591l-1.061 2.677h-1.913v.892h1.561l-1.064 2.677h-2.324zm-1.892 17.863c-.846 0-1.535-.658-1.535-1.464 0-.806.689-1.464 1.535-1.464.845 0 1.534.658 1.534 1.464 0 .806-.689 1.464-1.534 1.464zm4.519-24.122l-11.75.012c-.507 0-.92.801-.92 1.285v22.825c0 .484.413.878.92.878h13.681c.507 0 .92-.394.92-.878v-13.401h-.913v8.98c0 .46-.395.837-.877.837h-11.942c-.482 0-.877-.377-.877-.837v-17.068c0-.46.395-.837.877-.837h9.084l1.796-1.797zm-9.931 18.753h10.044v-8.032h-2.739l.004-2.728-.917.05.021-3.067 1.832-.467.01-.928h-8.254v15.171z" fill="#fff"/></g><g transform="translate(1037)"><path d="M0 9.925v15.075000000000001h25v-15.075000000000001h-6.482v1.884h4.63v11.307h-21.296v-11.307h1.852v-1.884h-3.704zm5.556 1.884l-.842 4.74 4.546-.971-3.704-3.769zm2.179-1.884l3.377 3.329 9.858-9.925-3.377-3.329-9.858 9.925zm5.229 5.653v1.884h7.407v-1.884h-7.407zm-3.704 2.827v1.884h11.111v-1.884h-11.111z" fill="#fff"/></g><g transform="translate(1063)"><path d="M21.875 22h-18.75c-1.718 0-3.125-1.425-3.125-3.167v-12.667c0-1.742 1.407-3.166 3.125-3.166h18.75c1.718 0 3.125 1.425 3.125 3.167v12.667c0 1.742-1.407 3.167-3.125 3.167zm1.563-15.834c0-.873-.699-1.583-1.563-1.583h-18.75c-.861 0-1.562.71-1.562 1.583v1.584h21.875v-1.584zm0 4.75h-21.875v7.917c0 .873.702 1.584 1.562 1.584h18.75c.863 0 1.563-.71 1.563-1.584v-7.917zm-6.25 1.583h4.688v3.167h-4.688v-3.167zm-14.063 0h9.375v1.583h-9.375v-1.583zm3.125 4.75h-3.125v-1.583h3.125v1.583z" fill="#fff"/></g><g transform="translate(1089)"><path d="M18.965 7.52h-2.082l1.071-2.76h2.086l-1.075 2.76zm-6.041 0v.92h1.994l-1.071 2.76h1.609l1.073-2.76h2.082l-1.071 2.76h1.609l1.073-2.76h1.934v-.92h-1.579l1.071-2.76h2.354v-.92h-1.994l1.071-2.76h-1.609l-1.073 2.76h-2.082l1.071-2.76h-1.609l-1.073 2.76h-1.934v.92h1.579l-1.075 2.76h-2.349zm3.695 9.37c-.653.134-1.371.75-2.881 2.082-1.701-.783-4.029-2.875-5.127-4.109-1.187-1.332-2.669-3.577-3.202-5.255 1.721-1.52 2.438-2.18 2.484-2.914.025-.395-.797-5.295-1.661-5.793l-.259-.163c-.55-.353-1.383-.888-2.306-.7-.226.047-.442.134-.646.261-.622.389-2.141 1.44-2.832 2.813-.428.856-.622 8.659 5.245 15.253 5.798 6.522 12.95 6.805 14.024 6.586l.03-.006.095-.027c1.449-.519 2.68-1.896 3.142-2.465.852-1.049.243-2.299-.084-2.97l-.131-.28c-.39-.915-5.175-2.316-5.57-2.339l-.319.024z" fill="#fff"/></g><g transform="translate(1115)"><path d="M10.519 18.064l.119.253c.105.331.499 4.713-.098 5.339l-.179.201c-.425.493-1.216 1.411-2.307 1.068-.592-.186-2.059-.728-2.919-1.738l-.051-.068-.014-.022c-.508-.804-2.52-6.744.793-13.676 3.347-7.014 9.54-9.48 10.346-9.419 1.295.103 2.595.991 3.095 1.368.163.124.3.271.407.44.436.691.277 1.552.171 2.12l-.047.267c-.121.874-3.715 3.194-4.033 3.307-.591.21-1.334-.155-3.066-1.049-1.151 1-2.453 2.966-3.128 4.385-.627 1.312-1.542 3.918-1.626 5.572 1.519.786 2.227 1.165 2.536 1.654z" fill="#fff"/></g><g transform="translate(1141)"><path d="M18.055 15.13h3.472v1.391h-3.472v-1.391zm-4.861 0h3.472v1.391h-3.472v-1.391zm-4.861 0h3.472v1.391h-3.472v-1.391zm-4.861 0h3.472v1.391h-3.472v-1.391zm9.722-5.217c0-1.345 1.088-2.435 2.43-2.435.68 0 1.295.279 1.736.73.441-.451 1.056-.73 1.736-.73 1.342 0 2.431 1.09 2.431 2.435s-1.088 2.435-2.431 2.435c-.68 0-1.295-.279-1.736-.73-.441.451-1.056.73-1.736.73-1.342 0-2.431-1.09-2.431-2.435zm-11.052-5.913c-1.183 0-2.143.934-2.143 2.087v11.826c0 1.153.959 2.087 2.143 2.087h20.714c1.183 0 2.143-.934 2.143-2.087v-11.826c0-1.153-.959-2.087-2.143-2.087h-20.714z" fill="#fff"/></g><g transform="translate(1167)"><path d="M6 9v8h13v-2h1v3h-15v-10h15v3h-1v-2h-13zm1 1h11v2h-1v2h1v2h-11v-6zm5.501-9.992c-6.902 0-12.497 5.594-12.497 12.496 0 6.9 5.595 12.496 12.497 12.496 6.901 0 12.496-5.596 12.496-12.496 0-6.902-5.594-12.496-12.496-12.496z" fill="#fff"/></g><g transform="translate(1193)"><path d="M15.767 17.254l.714-.182.33-.084-.148.417-.181.508-5.884 5.395-1.021.365.284-1.033 5.906-5.385zm4.231-5.197c0-.74.611-1.34 1.364-1.34.753 0 1.364.6 1.364 1.34 0 .74-.611 1.34-1.364 1.34-.753 0-1.364-.6-1.364-1.34zm-2.783 7.526c.214-.047.42-.137.609-.207.541.176 1.118.272 1.719.272 3.013 0 5.456-2.399 5.456-5.359s-2.443-5.359-5.456-5.359c-3.013 0-5.456 2.399-5.456 5.359 0 .665.124 1.301.35 1.889l-.137.145c-1.948 1.853-4.207 3.754-6.125 5.578v2.211l1.378.887h1.333c.577-.328 1.381-.888 1.381-.888v-1.338h1.376l.463-1.34h1.433l.806-1.787s.663-.02.87-.065zm-5.73-19.583h-2.173c-1.744.426-2.979 1.541-4.077 2.868-1.018 1.23-2.291 1.618-3.9 1.615l-1.32-.017c-.119 4.283.472 8.47 2.455 12.138 1.175 2.173 2.787 3.914 4.813 5.27l.002-.375c.362-.345.735-.694 1.116-1.046-3.921-2.504-6.678-8.13-6.588-14.202 2.359-.137 4.11-1.234 5.522-2.997.758-.947 1.823-1.482 3.137-1.483l.015 16.78c.99-.898 1.981-1.797 2.905-2.676-.136-.508-.214-1.037-.214-1.587 0-3.453 2.85-6.252 6.366-6.252.442 0 .872.043 1.289.127.084-1.255.073-2.514.058-3.678-.288-.029-.613-.002-.743-.001-2.153.014-3.805-.486-5.122-2.187-.902-1.165-2.096-1.928-3.541-2.3z" fill="#fff"/></g><g transform="translate(1219)"><path d="M12.5 0c6.904 0 12.5 5.597 12.5 12.5s-5.596 12.5-12.5 12.5-12.5-5.597-12.5-12.5 5.596-12.5 12.5-12.5zm.5 15v3.011l6.913-5.958-6.913-6.218v3.01c-3.011 0-6.926 1.639-6.926 9.165 1.505-3.011 3.651-5.279 6.95-2.998l-.023-.012z" fill="#fff"/></g><g transform="translate(1245)"><path d="M21.182 3.704v17.593h-16.364v-17.593h16.364zm-15.454-1.852h-2.727v21.295999999999996h2.727v1.852h.909v-1.852h1.818v1.852h.909v-1.852h1.818v1.852h.909v-1.852h1.818v1.852h.909v-1.852h1.818v1.852h.909v-1.852h1.818v1.852h.909v-1.852h2.727v-21.295999999999996h-2.727v-1.852h-.909v1.852h-1.818v-1.852h-.909v1.852h-1.818v-1.852h-.909v1.852h-1.818v-1.852h-.909v1.852h-1.818v-1.852h-.909v1.852h-1.818v-1.852h-.909v1.852zm8.381 15.885c.454.521 1.122.781 1.989.781v.926h.753v-.926c.881 0 1.563-.26 2.031-.81.469-.535.71-1.259.71-2.17 0-.984-.369-1.707-1.08-2.17-.256-.159-.81-.391-1.662-.68v-3.501c.412 0 .753.174 1.037.506.27.333.412.752.426 1.273h.994c0-.796-.227-1.447-.653-1.939-.44-.492-1.037-.781-1.804-.854v-.767h-.753v.767c-.824.116-1.449.42-1.875.897-.426.492-.639 1.129-.639 1.924 0 .897.298 1.591.909 2.054.27.232.81.477 1.605.738v3.834c-.625-.087-1.08-.362-1.349-.81-.099-.145-.17-.289-.199-.463-.028-.174-.071-.506-.128-1.013h-.994l-.014.13v.116c0 .911.227 1.635.696 2.156zm.895-7.986c.256-.289.611-.478 1.094-.564v3.4c-.994-.289-1.477-.854-1.477-1.707 0-.463.128-.839.383-1.128zm1.847 4.167c.653.217 1.094.449 1.335.709.241.261.369.608.369 1.071 0 .521-.156.955-.44 1.302-.298.347-.724.564-1.264.622v-3.704zm-10.213 4.601v.926h4.545v-.926h-4.545zm0-2.778v.926h2.727v-.926h-2.727zm0-2.778v.926h3.636v-.926h-3.636zm0-2.778v.926h4.545v-.926h-4.545zm0-2.778v.926h5.454v-.926h-5.454zm16.364 15.741h-.909v1.852h.909v-1.852zm-.909-23.148v1.852h.909v-1.852h-.909zm-18.182 25v-1.852h-.909v1.852h.909zm-.909-23.148h.909v-1.852h-.909v1.852z" fill="#fff"/></g><g transform="translate(1271)"><path d="M25 4h-25v17h25v-5.035c-.163.023-.33.035-.5.035-1.933 0-3.5-1.567-3.5-3.5s1.567-3.5 3.5-3.5c.17 0 .337.012.5.035v-5.035zm-24 1h23v2.615c-2.353.202-4.5 1.834-4.5 4.885 0 3.051 2.147 4.683 4.5 4.885v2.615h-23v-15zm22 1.765v-.765h-21v13h21v-.765c-2.405-.554-4.5-2.463-4.5-5.735 0-3.272 2.095-5.181 4.5-5.735z" fill="#fff"/></g><g transform="translate(1297)"><path d="M12.5 0c-6.903 0-12.5 5.597-12.5 12.5 0 6.904 5.597 12.5 12.5 12.5s12.5-5.596 12.5-12.5c0-6.903-5.597-12.5-12.5-12.5zm3.541 18h-7.074l2.265-6.468c-1.096-.486-1.857-1.381-1.857-2.657 0-1.726 1.388-3.059 3.112-3.059 1.728 0 3.138 1.333 3.138 3.059 0 1.276-.766 2.119-1.862 2.605l2.278 6.52z" fill="#fff"/></g><g transform="translate(1323)"><path d="M16.041 19h-7.074l2.265-6.468c-1.096-.486-1.857-1.381-1.857-2.657 0-1.726 1.388-3.059 3.112-3.059 1.728 0 3.138 1.333 3.138 3.059 0 1.276-.766 2.119-1.862 2.605l2.278 6.52z" fill="#fff"/></g><g transform="translate(1349)"><path d="M14 7.5c0-1.381 1.119-2.5 2.5-2.5s2.5 1.119 2.5 2.5-1.119 2.5-2.5 2.5c-.771 0-1.461-.351-1.92-.9l-5.625 2.935c.028.151.045.306.045.465 0 .258-.037.51-.11.745l5.615 2.75c.456-.605 1.179-.995 1.995-.995 1.381 0 2.5 1.119 2.5 2.5s-1.119 2.5-2.5 2.5-2.5-1.119-2.5-2.5c0-.207.027-.407.075-.6l-5.67-2.78c-.458.539-1.142.88-1.905.88-1.381 0-2.5-1.119-2.5-2.5s1.119-2.5 2.5-2.5c.864 0 1.626.439 2.075 1.105l5.53-2.885c-.069-.228-.105-.469-.105-.72zm-1.501-7.498c-6.906 0-12.499 5.597-12.499 12.499s5.592 12.499 12.499 12.499c6.902 0 12.499-5.597 12.499-12.499s-5.597-12.499-12.499-12.499z" fill="#fff"/></g><g transform="translate(1375)"><path d="M17.635.187c-.459-.336-1.08-.206-1.458.295l-8.663 10.902c-.242.335-.514.498-.514 1.115 0 .616.272.782.514 1.117l8.663 10.902c.378.501.999.631 1.458.295.413-.302.503-1.021.125-1.522l-8.634-10.793 8.634-10.79c.378-.501.287-1.22-.125-1.522z" fill="#fff"/></g><g transform="translate(1401)"><path d="M7.365.187c.459-.336 1.08-.206 1.458.295l8.664 10.902c.242.335.514.498.514 1.115 0 .616-.272.782-.514 1.117l-8.664 10.902c-.378.501-.999.631-1.458.295-.413-.302-.503-1.021-.125-1.522l8.634-10.793-8.634-10.79c-.378-.501-.287-1.22.125-1.522z" fill="#fff"/></g><g transform="translate(1427)"><path d="M12.493.001c-6.902 0-12.5 5.596-12.5 12.499 0 6.903 5.598 12.5 12.5 12.5 6.903 0 12.499-5.596 12.499-12.5 0-6.903-5.596-12.499-12.499-12.499zm6.663 17.062c-.469.469-1.422.703-2.01.185l-5.704-4.398-.04-.045-.154-.181-.111-.159-.065-.2-.059-.213-.013-.062v-4.398c0-.608.845-1.614 1.476-1.614.63 0 1.524 1.006 1.524 1.614v3.868l4.891 3.665c.49.38.781 1.422.266 1.938z" fill="#fff"/></g><g transform="translate(1453)"><path d="M22.338 2.525l-2.128 2.1 2.662 2.618 2.128-2.1-2.662-2.618zm-3.192 3.15l-10.104 9.974v2.626h2.675l10.091-9.982-2.662-2.618zm-19.146 5.775v2.1h7.979v-2.1h-7.979zm0 9.45v2.1h20.745v-2.1h-20.745zm0-14.175v2.1h11.702v-2.1h-11.702zm0 9.45v2.1h5.851v-2.1h-5.851zm0-14.175v2.1h15.957v-2.1h-15.957z" fill="#fff"/></g><g transform="translate(1479)"><path d="M12.5 22.256c-3.72 0-6.747-3.015-6.747-6.722 0-3.707 3.026-6.721 6.747-6.721 3.72 0 6.747 3.015 6.747 6.721s-3.027 6.721-6.747 6.721zm-1.824-19.067c0-1.002.818-1.817 1.824-1.817 1.006 0 1.824.815 1.824 1.817 0 .62-.314 1.169-.791 1.497v-.605c0-.568-.462-1.029-1.032-1.029-.57 0-1.033.46-1.033 1.029v.605c-.478-.328-.792-.877-.792-1.497zm3.025 2.956c1.172-.474 2.001-1.62 2.001-2.956 0-1.758-1.436-3.189-3.201-3.189-1.765 0-3.201 1.431-3.201 3.189 0 1.336.829 2.482 2 2.956-1.533.193-2.952.75-4.167 1.58l-.802-.798c-.738-.735-1.939-.735-2.677 0l-.097.097c-.738.735-.738 1.932 0 2.667l.866.862c-.901 1.447-1.422 3.154-1.422 4.981 0 5.227 4.253 9.465 9.5 9.465s9.5-4.238 9.5-9.465c0-4.822-3.619-8.802-8.299-9.39zm-1.201 10.316c-.512 0-.929-.416-.929-.926 0-.511.417-.926.929-.926s.929.415.929.926c0 .511-.417.926-.929.926zm2.957-5.121l-2.079 2.071c-.271-.111-.568-.173-.878-.173-1.272 0-2.306 1.031-2.306 2.297 0 1.267 1.035 2.298 2.306 2.298 1.272 0 2.306-1.03 2.306-2.298 0-.197-.025-.387-.072-.569l.041-.037 2.142-2.134c.403-.402.403-1.053 0-1.455-.403-.402-1.057-.402-1.46-.001z" fill="#fff"/></g><g transform="translate(1505)"><path d="M8.706 7.87c0-1.79 1.475-3.241 3.294-3.241s3.294 1.451 3.294 3.241-1.475 3.241-3.294 3.241-3.294-1.451-3.294-3.241zm-4.706 0c0 1.53.446 2.958 1.214 4.167l6.932 12.963 6.645-12.963c.768-1.208 1.209-2.637 1.209-4.167 0-4.347-3.582-7.87-8-7.87s-8 3.524-8 7.87z" fill="#fff"/></g><g transform="translate(1531)"><path d="M12.5 25c-6.903 0-12.5-5.596-12.5-12.5 0-6.903 5.597-12.5 12.5-12.5s12.5 5.597 12.5 12.5c0 6.904-5.597 12.5-12.5 12.5zm0-24.003c-6.342 0-11.503 5.161-11.503 11.503 0 6.345 5.161 11.503 11.503 11.503 6.342 0 11.503-5.158 11.503-11.503 0-6.342-5.161-11.503-11.503-11.503zm-2.213 18.169l-.929-1.08-4.336-5.18 1.716-1.85 3.338 2.201 7.47-5.778 1.737 1.843-8.029 8.799-.967 1.045z" fill="#fff"/></g><g transform="translate(1557)"><path d="M20.139 14.435h1.389v1.391h-1.389v-1.391zm-3.472 0h1.389v1.391h-1.389v-1.391zm-3.472 0h1.389v1.391h-1.389v-1.391zm-10.417-2.087h4.861v3.478h-4.861v-3.478zm-2.778-1.391v6.957c0 1.153.959 2.087 2.143 2.087h20.714c1.183 0 2.143-.934 2.143-2.087v-6.957h-25zm2.143-6.957c-1.183 0-2.143.934-2.143 2.087v2.783h25v-2.783c0-1.153-.959-2.087-2.143-2.087h-20.714z" fill="#fff"/></g></svg>