<svg baseProfile="tiny" xmlns="http://www.w3.org/2000/svg" preserveAspectRatio="xMinYMin meet" viewBox="0 0 103 35" width="103" height="35"><path stroke="#449FDB" d="M0 0"/><path d="M15.854 12.854l-4.854-4.854 4.854-4.854.114-.178c.066-.178.028-.386-.114-.529l-2.293-2.293c-.143-.143-.351-.181-.529-.114l-.178.114-4.854 4.854-4.854-4.854-.178-.114c-.178-.066-.386-.029-.529.114l-2.293 2.293c-.143.143-.181.351-.114.529l.114.178 4.854 4.854-4.854 4.854-.114.178c-.066.178-.029.386.114.529l2.293 2.293c.143.143.351.181.529.114l.178-.114 4.854-4.854 4.854 4.854.178.114c.178.066.386.029.529-.114l2.293-2.293c.143-.143.181-.351.114-.529l-.114-.178z" fill="#fff"/><g transform="translate(17)"><path stroke="#449FDB" d="M0 0"/><path d="M1 3h14v3h-14zm0 4h14v3h-14zm0 4h14v3h-14z" fill="#fff"/></g><g transform="translate(34)"><path stroke="#449FDB" d="M0 0"/><path d="M0 6.5v3c0 .276.224.5.5.5h15c.276 0 .5-.224.5-.5v-3c0-.276-.224-.5-.5-.5h-15c-.276 0-.5.224-.5.5z" fill="#fff"/></g><g transform="translate(51)"><path stroke="#449FDB" d="M0 0"/><path d="M15.5 6h-5.5v-5.5c0-.276-.224-.5-.5-.5h-3c-.276 0-.5.224-.5.5v5.5h-5.5c-.276 0-.5.224-.5.5v3c0 .276.224.5.5.5h5.5v5.5c0 .276.224.5.5.5h3c.276 0 .5-.224.5-.5v-5.5h5.5c.276 0 .5-.224.5-.5v-3c0-.276-.224-.5-.5-.5z" fill="#fff"/></g><g transform="translate(68)"><g fill="#fff"><path class="color-1" d="M32 5.678c0 3.136-2.423 5.678-5.412 5.678s-5.412-2.542-5.412-5.678 2.423-5.678 5.412-5.678 5.412 2.542 5.412 5.678z"/><path class="color-1" d="M30.151 11.396c-.618.425-1.308.741-2.047.926l-.002-.003c-.238.059-.48.106-.726.139l-.044.005c-.244.031-.492.049-.745.049-.214 0-.426-.011-.634-.033l-.199-.03-.419-.065-.222-.056-.376-.098-.218-.078-.358-.133-.203-.095-.35-.17-.18-.106-.343-.211-.157-.113-.337-.254-.13-.112-.33-.302-.104-.108-.319-.35-.081-.1-.301-.399-.059-.089-.278-.449-.041-.075c-.089-.161-.172-.326-.248-.495l-.028-.063c-.077-.176-.147-.354-.21-.538l-.018-.051c-.063-.188-.118-.38-.166-.575l-.01-.043c-.047-.198-.085-.4-.115-.604l-.006-.04c-.03-.214-.051-.431-.062-.65-2.773-.331-5.606.599-7.643 2.808-1.22 1.324-1.984 2.935-2.321 4.635 1.279-1.277 2.828-2.085 4.446-2.429l.312-.057.429-.065.334-.035.486-.025h.44l.416.019.331.03.521.076.349.07.479.118.274.081c.206.065.409.136.611.217l.174.074c.188.081.373.168.557.263l.206.109c.218.12.434.247.643.388l.044.031c.202.137.399.286.591.442l.159.132c.203.172.403.352.595.546.205.208.396.426.578.649l.172.226.337.465.179.281.261.448.163.309.208.454.139.325.17.488c.071.217.135.437.19.659l.095.387.085.495.044.3.05.534.014.252.009.58-.006.166c-.04 1.214-.3 2.425-.786 3.559l-.013.03c-.099.229-.207.456-.324.678-.378.716-.843 1.398-1.413 2.016-1.755 1.904-4.079 2.873-6.406 2.898-.351 0-1.06.638-1.374 1.164 4.092.776 8.718-.745 12.106-4.421 3.978-4.316 5.07-10.324 3.15-15.003z"/><path class="color-2" d="M2 28.322c0-3.136 2.423-5.678 5.412-5.678s5.412 2.542 5.412 5.678-2.423 5.678-5.412 5.678-5.412-2.542-5.412-5.678z"/><path class="color-2" d="M3.849 22.604c.618-.425 1.308-.74 2.047-.926l.002.003c.237-.059.48-.106.726-.139l.045-.005c.244-.031.492-.049.745-.049.214 0 .426.011.635.033l.199.03.418.065.222.056.376.098.218.078.358.133.203.095.35.17.181.106.343.211.157.113.337.254.13.113.33.301.104.108.319.35.081.1.301.399.059.089.278.448.041.075c.089.161.172.326.248.495l.028.063c.077.175.147.355.21.538l.018.051c.063.189.118.38.165.575l.01.043c.047.198.085.4.115.604l.006.04c.03.214.051.43.062.65 2.773.332 5.606-.6 7.643-2.808 1.22-1.325 1.984-2.936 2.321-4.635-1.279 1.277-2.828 2.085-4.446 2.429l-.312.057-.429.065-.334.035-.486.026h-.44l-.416-.019-.331-.03-.521-.075-.349-.07-.479-.118-.274-.081c-.206-.065-.409-.136-.611-.217l-.174-.074c-.188-.081-.373-.169-.557-.263l-.207-.11c-.218-.12-.434-.247-.643-.387l-.044-.032c-.202-.137-.399-.286-.591-.442l-.159-.132c-.203-.172-.403-.352-.595-.546-.205-.208-.396-.426-.578-.649l-.172-.226-.337-.465-.179-.281-.26-.447-.163-.31-.208-.454-.139-.325-.17-.488c-.071-.218-.134-.437-.19-.659l-.095-.387-.085-.495-.044-.3-.05-.534-.014-.253-.009-.58.006-.166c.04-1.214.3-2.425.786-3.559l.013-.03c.099-.229.207-.456.324-.678.378-.717.843-1.399 1.412-2.016 1.755-1.904 4.079-2.873 6.406-2.898.351 0 1.06-.638 1.374-1.164-4.092-.776-8.718.745-12.106 4.422-3.978 4.316-5.07 10.324-3.15 15.003z"/></g></g></svg>