<svg baseProfile="tiny" xmlns="http://www.w3.org/2000/svg" preserveAspectRatio="xMinYMin meet" viewBox="0 0 105 15" width="105" height="15"><path stroke="#449FDB" d="M0 0"/><path d="M0 7q0-1.633.805-3.012t2.184-2.184 3.012-.805 3.012.805 2.184 2.184.805 3.012-.805 3.012-2.184 2.184-3.012.805-3.012-.805-2.184-2.184-.805-3.012zm2.414 2h.734l.813-1.25h4.078l.813 1.25h.734l-3.586-5.398zm2.016-1.75l1.57-2.391 1.57 2.391h-3.141z"/><g transform="translate(15)"><path stroke="#449FDB" d="M0 0"/><path d="M0 11.5v-1q0-.203.148-.352t.352-.148h13q.203 0 .352.148t.148.352v1q0 .203-.148.352t-.352.148h-13q-.203 0-.352-.148t-.148-.352zm1-6v-1q0-.203.148-.352t.352-.148h11q.203 0 .352.148t.148.352v1q0 .203-.148.352t-.352.148h-11q-.203 0-.352-.148t-.148-.352zm2 3v-1q0-.203.148-.352t.352-.148h7q.203 0 .352.148t.148.352v1q0 .203-.148.352t-.352.148h-7q-.203 0-.352-.148t-.148-.352zm1-6v-1q0-.203.148-.352t.352-.148h5q.203 0 .352.148t.148.352v1q0 .203-.148.352t-.352.148h-5q-.203 0-.352-.148t-.148-.352z"/></g><g transform="translate(30)"><path stroke="#449FDB" d="M0 0"/><path d="M0 11.5v-1q0-.203.148-.352t.352-.148h13q.203 0 .352.148t.148.352v1q0 .203-.148.352t-.352.148h-13q-.203 0-.352-.148t-.148-.352zm0-3v-1q0-.203.148-.352t.352-.148h13q.203 0 .352.148t.148.352v1q0 .203-.148.352t-.352.148h-13q-.203 0-.352-.148t-.148-.352zm0-3v-1q0-.203.148-.352t.352-.148h13q.203 0 .352.148t.148.352v1q0 .203-.148.352t-.352.148h-13q-.203 0-.352-.148t-.148-.352zm0-3v-1q0-.203.148-.352t.352-.148h13q.203 0 .352.148t.148.352v1q0 .203-.148.352t-.352.148h-13q-.203 0-.352-.148t-.148-.352z"/></g><g transform="translate(45)"><path stroke="#449FDB" d="M0 0"/><path d="M0 11.5v-1q0-.203.148-.352t.352-.148h13q.203 0 .352.148t.148.352v1q0 .203-.148.352t-.352.148h-13q-.203 0-.352-.148t-.148-.352zm0-3v-1q0-.203.148-.352t.352-.148h10q.203 0 .352.148t.148.352v1q0 .203-.148.352t-.352.148h-10q-.203 0-.352-.148t-.148-.352zm0-3v-1q0-.203.148-.352t.352-.148h12q.203 0 .352.148t.148.352v1q0 .203-.148.352t-.352.148h-12q-.203 0-.352-.148t-.148-.352zm0-3v-1q0-.203.148-.352t.352-.148h9q.203 0 .352.148t.148.352v1q0 .203-.148.352t-.352.148h-9q-.203 0-.352-.148t-.148-.352z"/></g><g transform="translate(60)"><path stroke="#449FDB" d="M0 0"/><path d="M0 11.5v-1q0-.203.148-.352t.352-.148h13q.203 0 .352.148t.148.352v1q0 .203-.148.352t-.352.148h-13q-.203 0-.352-.148t-.148-.352zm1-6v-1q0-.203.148-.352t.352-.148h12q.203 0 .352.148t.148.352v1q0 .203-.148.352t-.352.148h-12q-.203 0-.352-.148t-.148-.352zm2 3v-1q0-.203.148-.352t.352-.148h10q.203 0 .352.148t.148.352v1q0 .203-.148.352t-.352.148h-10q-.203 0-.352-.148t-.148-.352zm1-6v-1q0-.203.148-.352t.352-.148h9q.203 0 .352.148t.148.352v1q0 .203-.148.352t-.352.148h-9q-.203 0-.352-.148t-.148-.352z"/></g><g transform="translate(75)"><path stroke="#449FDB" d="M0 0"/><path d="M0 11.75v-1.5q0-.102.074-.176t.176-.074h1.5q.102 0 .176.074t.074.176v1.5q0 .102-.074.176t-.176.074h-1.5q-.102 0-.176-.074t-.074-.176zm0-3v-1.5q0-.102.074-.176t.176-.074h1.5q.102 0 .176.074t.074.176v1.5q0 .102-.074.176t-.176.074h-1.5q-.102 0-.176-.074t-.074-.176zm0-3v-1.5q0-.102.074-.176t.176-.074h1.5q.102 0 .176.074t.074.176v1.5q0 .102-.074.176t-.176.074h-1.5q-.102 0-.176-.074t-.074-.176zm0-3v-1.5q0-.102.074-.176t.176-.074h1.5q.102 0 .176.074t.074.176v1.5q0 .102-.074.176t-.176.074h-1.5q-.102 0-.176-.074t-.074-.176zm3 9v-1.5q0-.102.074-.176t.176-.074h10.5q.102 0 .176.074t.074.176v1.5q0 .102-.074.176t-.176.074h-10.5q-.102 0-.176-.074t-.074-.176zm0-3v-1.5q0-.102.074-.176t.176-.074h10.5q.102 0 .176.074t.074.176v1.5q0 .102-.074.176t-.176.074h-10.5q-.102 0-.176-.074t-.074-.176zm0-3v-1.5q0-.102.074-.176t.176-.074h10.5q.102 0 .176.074t.074.176v1.5q0 .102-.074.176t-.176.074h-10.5q-.102 0-.176-.074t-.074-.176zm0-3v-1.5q0-.102.074-.176t.176-.074h10.5q.102 0 .176.074t.074.176v1.5q0 .102-.074.176t-.176.074h-10.5q-.102 0-.176-.074t-.074-.176z"/></g><g transform="translate(90)"><path stroke="#449FDB" d="M0 0"/><path d="M2.625.875v10.5h10.5v-10.5h-10.5zm9.625 9.625h-8.75v-8.75h8.75v8.75zm-10.5 1.75v-8.75l-.875-.875v10.5h10.5l-.875-.875zm4.119-2.881l2.625-2.625 2.006 2.006v-5.25h-5.25l2.006 2.006-2.625 2.625z"/></g></svg>