<svg xmlns="http://www.w3.org/2000/svg"><symbol viewBox="0 0 25 25" id="i--add-number"><title>add-number</title> <g id="svgstoree7c9cb0e19e636b920144fc029ef47ddadd-number"> <path id="svgstoree7c9cb0e19e636b920144fc029ef47ddbase38" d="M 10 3 L 10 10 L 3 10 L 3 15 L 10 15 L 10 22 L 15 22 L 15 15 L 22 15 L 22 10 L 15 10 L 15 3 L 10 3 Z"/> </g> </symbol><symbol viewBox="0 0 25 25" id="i--add-numbers"><title>add-numbers</title> <g id="svgstore433f87e33c07d1c3d8c9034b73dbf61cadd-numbers"> <path id="svgstore433f87e33c07d1c3d8c9034b73dbf61cbase42" d="M 12.4995 0 C 5.5925 0 -0.0005 5.5977 -0.0005 12.5 C -0.0005 19.4026 5.5925 25 12.4995 25 C 19.4021 25 24.9995 19.4026 24.9995 12.5 C 24.9995 5.5977 19.4021 0 12.4995 0 ZM 18.0005 13.999 L 14 13.999 L 14 17.9995 L 10.9998 17.9995 L 10.9998 13.999 L 6.9995 13.999 L 6.9995 10.999 L 10.9998 10.999 L 10.9998 6.9985 L 14 6.9985 L 14 10.999 L 18.0005 10.999 L 18.0005 13.999 Z"/> </g> </symbol><symbol viewBox="0 0 25 25" id="i--autorecharge"><title>autorecharge</title> <g id="svgstore3ba6ba1fa5479bf841255d6e3f8d9d9eautorecharge"> <path id="svgstore3ba6ba1fa5479bf841255d6e3f8d9d9ebase20" d="M 25 6.25 L 16.0914 12.5 L 16.0914 8.9285 C 14.5464 8.8659 1.8374 7.1429 0.0556 12.5 C 0.0556 12.5 -1.7974 2.8494 16.0914 3.5715 L 16.0914 0 L 25 6.25 ZM 8.9088 16.0715 C 10.454 16.1343 23.1628 17.8573 24.9444 12.5 C 24.9444 12.5 26.7974 22.1506 8.9088 21.4285 L 8.9088 25 L 0 18.75 L 8.9088 12.5 L 8.9088 16.0715 Z"/> </g> </symbol><symbol viewBox="0 0 25 25" id="i--balance"><title>balance</title> <g id="svgstore4489a237d633812cbcec92342f6b3d50balance"> <path id="svgstore4489a237d633812cbcec92342f6b3d50base33" d="M 6.3121 10.988 C 6.3121 9.9217 7.1952 9.0572 8.2846 9.0572 C 9.3741 9.0572 10.2572 9.9217 10.2572 10.988 C 10.2572 12.0544 9.3741 12.9188 8.2846 12.9188 C 7.1952 12.9188 6.3121 12.0544 6.3121 10.988 ZM 11.5934 7.3256 C 10.6354 7.7512 9.9832 6.3448 10.9411 5.9192 C 12.6774 5.1477 15.4275 4.8008 17.3543 5.703 C 18.3033 6.1474 17.6223 7.5408 16.6733 7.0964 C 15.3068 6.4565 13.0697 6.6696 11.5934 7.3256 ZM 3.1561 9.8296 L 0 10.6019 L 0 16.008 C 0 16.008 3.6467 18.271 6.2036 18.5961 C 6.2031 20.1507 6.4663 21.4289 7.1011 22.9589 L 10.2572 22.9589 C 10.2572 22.9589 11.0904 22.1057 11.3536 20.5643 C 12.1512 20.9132 16.1034 21.158 17.3583 20.6419 C 17.6396 21.8262 17.8103 22.4945 18.1473 22.9589 C 19.062 23.0514 21.3034 22.9589 21.3034 22.9589 C 21.3034 22.9589 22.362 20.2112 22.0206 18.5961 C 23.3293 17.4266 25.219 15.2457 24.9792 11.9132 C 24.6948 7.9591 21.1672 3.8935 15.3638 3.7265 C 11.6096 3.6184 9.6742 5.0073 9.6742 5.0073 L 6.3173 2 L 6.3121 6.7403 L 3.1561 9.8296 Z"/> </g> </symbol><symbol viewBox="0 0 25 25" id="i--bill-pay"><title>bill-pay</title> <path id="svgstore8bbde29759b16a7c5ce7c59cb1a0e9a9base" d="M 6.7568 15.56 L 6.7568 16.92 L 11.4865 16.92 L 11.4865 15.56 L 6.7568 15.56 ZM 6.0811 17.6 L 6.0811 18.96 L 10.8108 18.96 L 10.8108 17.6 L 6.0811 17.6 ZM 6.0811 19.64 L 6.0811 21 L 10.8108 21 L 10.8108 19.64 L 6.0811 19.64 ZM 0 19.64 L 0 21 L 4.7297 21 L 4.7297 19.64 L 0 19.64 ZM 0 17.6 L 0 18.96 L 4.7297 18.96 L 4.7297 17.6 L 0 17.6 ZM 0.6757 15.56 L 0.6757 16.92 L 5.4054 16.92 L 5.4054 15.56 L 0.6757 15.56 ZM 0 13.52 L 0 14.88 L 4.7297 14.88 L 4.7297 13.52 L 0 13.52 ZM 1.3514 9.44 L 1.3514 10.8 L 6.0811 10.8 L 6.0811 9.44 L 1.3514 9.44 ZM 1.3514 11.48 L 1.3514 12.84 L 6.0811 12.84 L 6.0811 11.48 L 1.3514 11.48 ZM 17.7617 19.7531 L 13.958 15.531 L 15.1998 14.1851 L 17.6192 15.7343 L 22.6509 11.5894 L 24.0361 13.1275 L 17.7617 19.7531 ZM 10.1351 4 L 10.1351 14.88 L 12.1622 14.88 L 12.1622 17.6 L 11.4865 17.6 L 11.4865 21 L 25 21 L 25 8.08 L 20.9459 4 L 10.1351 4 ZM 20.2703 4.68 L 24.3243 8.76 L 20.2703 8.76 L 20.2703 4.68 ZM 12.1622 6.04 L 18.2432 6.04 L 18.2432 6.72 L 12.1622 6.72 L 12.1622 6.04 ZM 12.1622 8.08 L 18.2432 8.08 L 18.2432 8.76 L 12.1622 8.76 L 12.1622 8.08 ZM 12.1622 10.12 L 20.2703 10.12 L 20.2703 10.8 L 12.1622 10.8 L 12.1622 10.12 ZM 12.1622 12.16 L 18.2432 12.16 L 18.2432 12.84 L 12.1622 12.84 L 12.1622 12.16 Z"/> </symbol><symbol viewBox="0 0 25 25" id="i--box"><title>box</title> <g id="svgstorefda42be2566ca69d4dbccc100a903d52box"> <path id="svgstorefda42be2566ca69d4dbccc100a903d52base29" d="M 10.4486 13.6185 L 20.0832 6.0916 L 21.879 7.9039 L 11.6658 18.4012 L 10.6664 19.4289 L 9.7064 18.3669 L 4.2678 12.3508 L 6.0416 10.5319 L 10.4486 13.6185 ZM 12.5 0 C 5.5964 0 0 5.5964 0 12.5 C 0 19.4036 5.5964 25 12.5 25 C 19.4036 25 25 19.4036 25 12.5 C 25 5.5964 19.4036 0 12.5 0 Z"/> </g> </symbol><symbol viewBox="0 0 25 25" id="i--call-history"><title>call-history</title> <g id="svgstore64bd5d062a3031dfb947db122c97a82dcall-history"> <path id="svgstore64bd5d062a3031dfb947db122c97a82dbase35" d="M 12.6995 15.8362 C 12.2197 15.938 11.6931 16.4058 10.5845 17.4185 C 9.3357 16.8232 7.6265 15.2339 6.821 14.2961 C 5.9495 13.2837 4.8618 11.5776 4.4702 10.3027 C 5.7334 9.1475 6.2603 8.6458 6.2937 8.0879 C 6.3115 7.7878 5.7087 4.0635 5.074 3.6853 L 4.8835 3.5615 C 4.4795 3.293 3.8687 2.8867 3.1904 3.0295 C 3.0249 3.0649 2.866 3.1316 2.7163 3.2275 C 2.2598 3.5234 1.145 4.3223 0.6375 5.3657 C 0.3235 6.0161 0.1807 11.9468 4.4883 16.9585 C 8.7449 21.9153 13.9949 22.1304 14.7834 21.9639 L 14.8052 21.9595 L 14.8745 21.939 C 15.9387 21.5447 16.8418 20.4983 17.1814 20.0652 C 17.8066 19.2678 17.3599 18.3181 17.1194 17.8083 L 17.0232 17.5957 C 16.7371 16.9009 13.2241 15.8354 12.9341 15.8179 L 12.6995 15.8362 ZM 20 8.9753 L 20 11.0625 C 17.5107 11.0815 16.9395 10.8645 15.9385 10.0562 C 15.9385 12.1733 16.853 13.9578 20 13.9578 L 20 16.0281 L 24.5408 12.4287 L 20 8.9753 ZM 14 10.0281 L 14 7.9409 C 16.4895 7.9219 17.0605 8.1389 18.0613 8.9473 C 18.0613 6.8301 17.147 5.0457 14 5.0457 L 14 2.9753 L 8.5203 6.5747 L 14 10.0281 Z"/> </g> </symbol><symbol viewBox="0 0 25 25" id="i--call-me"><title>call-me</title> <g id="svgstore13b5099abbdcce17fdf5ab03e6591b08call-me"> <path id="svgstore13b5099abbdcce17fdf5ab03e6591b08color" d="M 13.405 13.406 L 11.25 9.9018 L 11.0115 12.9018 L 13.405 13.406 ZM 11.4745 7.082 L 15.7823 13.9056 L 17.4143 14.2501 L 11.6296 5.1337 L 11.4745 7.082 ZM 14.7986 4.9238 L 14.9329 4.9238 L 14.9189 5.1063 L 14.7986 4.9238 ZM 13.8241 3.4386 C 14.307 2.3881 14.9462 1.6878 15.6134 1.3009 C 15.4801 1.6498 15.3914 1.9964 15.3339 2.234 C 15.1863 2.8437 15.0634 3.5886 14.9745 4.4675 L 14.5 4.4675 L 13.8241 3.4386 ZM 12.8889 2.0127 C 13.2428 1.794 13.6155 1.6072 14.0023 1.4538 C 13.7258 1.7706 13.4707 2.1378 13.243 2.5534 L 12.8889 2.0127 ZM 21.6886 14.8003 C 23.6281 13.4798 25 11.2497 25 8.1177 C 25 2.7224 20.9285 0.0033 16.8986 0 L 16.8611 0.0005 C 15.3265 0.0058 13.8083 0.3894 12.4928 1.1809 L 11.9054 2.2214 L 20.1001 14.9312 L 21.7332 14.8297 L 21.6886 14.8003 ZM 20.5555 13.6935 C 20.9231 13.023 21.2208 12.2266 21.4282 11.3117 L 23.4421 11.3117 C 22.8806 12.5834 21.9836 13.5536 20.9073 14.2205 L 20.8932 14.2088 L 20.5555 13.6935 ZM 18.993 11.3117 L 20.4838 11.3117 C 20.3461 11.8726 20.1721 12.3696 19.9722 12.806 L 18.993 11.3117 ZM 16.8959 8.1177 L 18.0555 8.1177 C 18.0527 8.4356 18.0414 9.0558 18.0046 9.8059 L 16.8959 8.1177 ZM 18.0532 7.6614 L 16.5972 7.6614 L 15.7708 6.4021 C 15.7913 5.8717 15.8218 5.3792 15.8611 4.9238 L 17.9236 4.9238 C 18.0175 6.0348 18.0457 7.0878 18.0532 7.6614 ZM 16.2345 2.4457 C 16.3137 2.1182 16.5602 1.1863 16.8851 0.93 C 17.4319 1.3592 17.7258 2.914 17.882 4.4675 L 15.905 4.4675 C 15.9896 3.6637 16.1027 2.9901 16.2345 2.4457 ZM 20.8334 8.1177 C 20.8334 9.1498 20.7438 10.0601 20.5856 10.8554 L 18.8843 10.8554 C 18.9661 9.7 18.98 8.6625 18.9814 8.1177 L 20.8334 8.1177 ZM 20.4838 4.9238 C 20.6769 5.7089 20.7986 6.6189 20.8264 7.6614 L 18.9814 7.6614 C 18.9785 7.1224 18.9619 6.075 18.8657 4.9238 L 20.4838 4.9238 ZM 18.1805 1.2964 C 19.0477 1.7951 19.8663 2.8232 20.3588 4.4675 L 18.824 4.4675 C 18.7102 3.3369 18.5144 2.1587 18.1805 1.2964 ZM 24.0741 8.1177 C 24.0741 9.139 23.9132 10.0515 23.6249 10.8554 L 21.5232 10.8554 C 21.677 10.0286 21.7593 9.1141 21.7593 8.1177 L 24.0741 8.1177 ZM 23.4421 4.9238 C 23.7928 5.7181 24.0123 6.6306 24.0625 7.6614 L 21.7523 7.6614 C 21.7258 6.6583 21.6121 5.7437 21.4259 4.9238 L 23.4421 4.9238 ZM 19.8125 1.4652 C 21.2233 2.0311 22.4497 3.0314 23.2198 4.4675 L 21.3125 4.4675 C 20.9711 3.212 20.4508 2.2027 19.8125 1.4652 Z"/> <path id="svgstore13b5099abbdcce17fdf5ab03e6591b08base" d="M 14.8485 18.0517 C 15.9651 18.0438 19.0645 19.7474 19.3862 20.1532 C 20.0322 20.9683 20.0613 21.9954 19.5496 22.8111 C 18.6926 24.1772 16.8627 24.9961 16.1234 24.9999 C 14.2271 25.0098 9.0106 24.1713 4.674 19.2961 C -0.3741 13.6262 -0.2068 6.9164 0.161 6.1805 C 0.7559 5.0002 2.0614 4.0949 2.5975 3.7617 C 3.1587 3.4128 4.1337 3.4246 4.499 3.7383 C 5.8652 4.9112 6.9011 7.0682 6.7899 9.2605 C 6.759 9.8691 6.1158 10.559 4.6531 11.7662 C 5.1118 13.2084 6.3865 15.1389 7.408 16.2842 C 8.3518 17.3451 10.3549 19.1432 11.8185 19.8168 C 12.4244 19.2824 13.8009 18.0591 14.8485 18.0517 Z"/> </g> </symbol><symbol viewBox="0 0 25 25" id="i--call"><title>call</title> <g id="svgstoreb1890d1e5adcc12a0a706b16fe67c2cecall"> <path id="svgstoreb1890d1e5adcc12a0a706b16fe67c2cebase12" d="M 10.5186 18.0637 L 10.6377 18.3165 C 10.7428 18.6476 11.1372 23.0296 10.54 23.6557 L 10.3612 23.8569 C 9.9367 24.3503 9.145 25.2682 8.0539 24.925 C 7.4621 24.7388 5.9953 24.1966 5.1348 23.1867 L 5.084 23.1184 L 5.0702 23.0963 C 4.5622 22.2921 2.5498 16.3524 5.8628 9.4198 C 9.2101 2.4061 15.4033 -0.0604 16.2093 0.0011 C 17.504 0.1043 18.8045 0.9916 19.3045 1.3691 C 19.4676 1.4931 19.6042 1.6404 19.7112 1.8093 C 20.1477 2.5007 19.9879 3.3609 19.8819 3.9293 L 19.8352 4.1961 C 19.7141 5.0702 16.1203 7.39 15.8025 7.5028 C 15.2116 7.7126 14.4687 7.3482 12.7363 6.4535 C 11.585 7.4537 10.2836 9.4198 9.6082 10.8381 C 8.9816 12.1497 8.066 14.7561 7.9823 16.4098 C 9.5012 17.1957 10.2093 17.5749 10.5186 18.0637 Z"/> </g> </symbol><symbol viewBox="0 0 25 25" id="i--change-notification-number"><title>change-notification-number</title> <g id="svgstored666c40c5ad627dbef9afde2c2fbbca3change-notification-number"> <path id="svgstored666c40c5ad627dbef9afde2c2fbbca3base44" d="M 8 7 L 17 7 C 18.1045 7 19 7.8954 19 9 L 19 13 C 19 14.1046 18.1045 15 17 15 L 16.3 15 L 9.9802 20.1323 L 12.625 15 L 8 15 C 6.8955 15 6 14.1046 6 13 L 6 9 C 6 7.8954 6.8955 7 8 7 ZM 12.4929 0.0007 C 5.5913 0.0007 -0.0068 5.5972 -0.0068 12.5002 C -0.0068 19.4036 5.5913 25 12.4929 25 C 19.396 25 24.9924 19.4036 24.9924 12.5002 C 24.9924 5.5972 19.396 0.0007 12.4929 0.0007 Z"/> </g> </symbol><symbol viewBox="0 0 25 25" id="i--change-us-number"><title>change-us-number</title> <g id="svgstoreda681471b61be8f1e6e7ef290255ecebchange-us-number"> <path id="svgstoreda681471b61be8f1e6e7ef290255ecebbase43" d="M 6.6738 8 L 7.5 5.6523 L 8.3259 8 L 11 8 L 8.8364 9.6519 L 9.6641 12 L 7.5 10.3472 L 5.3364 12 L 6.1641 9.6519 L 4 8 L 6.6738 8 ZM 0 12.5 C 0 13.0077 0.031 13.5082 0.0898 14 L 24.9099 14 C 24.9688 13.5082 25 13.0077 25 12.5 C 25 12.3325 25.0066 12.1659 25 12 L 13 12 L 13 10 L 24.75 10 C 24.6101 9.311 24.4128 8.6427 24.165 8 L 13 8 L 13 6 L 23.1799 6 C 20.9854 2.402 17.0229 0 12.5 0 C 5.5962 0 0 5.5962 0 12.5 ZM 23.73 18 C 24.043 17.3621 24.303 16.6935 24.5049 16 L 0.5 16 C 0.7019 16.6935 0.9619 17.3621 1.2749 18 L 23.73 18 ZM 2.5 20 C 4.7793 23.0361 8.4102 25 12.5 25 C 16.5898 25 20.2241 23.0361 22.5049 20 L 2.5 20 Z"/> </g> </symbol><symbol viewBox="0 0 25 25" id="i--chat"><title>chat</title> <g id="svgstoref7ae49914f63814cdfd1cb2204fdb1a8chat"> <path id="svgstoref7ae49914f63814cdfd1cb2204fdb1a8base13" d="M 24.8732 15.9706 C 24.8732 12.4895 21.7323 9.6676 17.8578 9.6676 C 13.9831 9.6676 10.8422 12.4895 10.8422 15.9706 C 10.8422 19.4516 13.9831 22.2735 17.8578 22.2735 C 18.5033 22.2735 19.1283 22.1942 19.7219 22.0476 C 21.4767 22.7211 23.9339 23.7523 25 24.6085 C 25 24.6085 23.6677 22.1983 22.8989 20.3537 C 24.1216 19.2196 24.8732 17.6744 24.8732 15.9706 ZM 0.2238 10.5465 C 0.2238 13.3974 1.5511 15.983 3.7101 17.8807 C 2.3526 20.9671 0 25 0 25 C 1.8827 23.5674 6.2215 21.842 9.3202 20.715 C 9.7393 20.8131 10.1677 20.8916 10.6032 20.9523 C 9.6374 19.6146 9.0724 17.9999 9.0724 16.2592 C 9.0724 11.6479 13.034 7.9099 17.9211 7.9099 C 20.801 7.9099 23.3575 9.2089 24.9734 11.2188 C 24.9898 10.9968 25 10.772 25 10.5465 C 25 4.7217 19.4538 0 12.6119 0 C 5.77 0 0.2238 4.7217 0.2238 10.5465 Z"/> </g> </symbol><symbol viewBox="0 0 16 16" id="i--checkmark"><title>checkmark</title> <g id="svgstore2fd03e5b76698552b9e6ea5240c5899bicomoon-ignore"> <line stroke-width="1" x1="" y1="" x2="" y2="" stroke="#449FDB" opacity=""/> </g> <path d="M13.5 2l-7.5 7.5-3.5-3.5-2.5 2.5 6 6 10-10z"/> </symbol><symbol viewBox="0 0 25 25" id="i--clear"><title>clear</title> <g id="svgstore770f48ad9feca4502d5c56291a59b324clear"> <path d="M 4.2345 7.7643 L 8.47 12 L 4.235 16.2354 L 7.7644 19.7648 L 12 15.53 L 16.2345 19.7643 L 19.7639 16.2349 L 15.53 12 L 19.7644 7.7648 L 16.235 4.2354 L 12 8.47 L 7.7639 4.2349 L 4.2345 7.7643 Z"/> </g> </symbol><symbol viewBox="0 0 16 16" id="i--close"><title>close</title> <g id="svgstore88e8fae0b416ee1c55a3dc8ce21260d3icomoon-ignore"> <line stroke-width="1" x1="" y1="" x2="" y2="" stroke="#449FDB" opacity=""/> </g> <path d="M15.854 12.854c-0-0-0-0-0-0l-4.854-4.854 4.854-4.854c0-0 0-0 0-0 0.052-0.052 0.090-0.113 0.114-0.178 0.066-0.178 0.028-0.386-0.114-0.529l-2.293-2.293c-0.143-0.143-0.351-0.181-0.529-0.114-0.065 0.024-0.126 0.062-0.178 0.114 0 0-0 0-0 0l-4.854 4.854-4.854-4.854c-0-0-0-0-0-0-0.052-0.052-0.113-0.090-0.178-0.114-0.178-0.066-0.386-0.029-0.529 0.114l-2.293 2.293c-0.143 0.143-0.181 0.351-0.114 0.529 0.024 0.065 0.062 0.126 0.114 0.178 0 0 0 0 0 0l4.854 4.854-4.854 4.854c-0 0-0 0-0 0-0.052 0.052-0.090 0.113-0.114 0.178-0.066 0.178-0.029 0.386 0.114 0.529l2.293 2.293c0.143 0.143 0.351 0.181 0.529 0.114 0.065-0.024 0.126-0.062 0.178-0.114 0-0 0-0 0-0l4.854-4.854 4.854 4.854c0 0 0 0 0 0 0.052 0.052 0.113 0.090 0.178 0.114 0.178 0.066 0.386 0.029 0.529-0.114l2.293-2.293c0.143-0.143 0.181-0.351 0.114-0.529-0.024-0.065-0.062-0.126-0.114-0.178z"/> </symbol><symbol viewBox="0 0 25 25" id="i--collapse"><title>collapse</title> <g id="svgstored5c501adced940d00ac2c3c990471e74collapse"> <path id="svgstored5c501adced940d00ac2c3c990471e74base26" d="M 11 16 L 7 16 L 7 15 L 8 15 L 8 14 L 9 14 L 9 13 L 10 13 L 10 12 L 11 12 L 11 11 L 12 11 L 12 10 L 13 10 L 13 11 L 14 11 L 14 12 L 15 12 L 15 13 L 16 13 L 16 14 L 17 14 L 17 15 L 18 15 L 18 16 L 14 16 L 14 20 L 11 20 L 11 16 ZM 11 8 L 11 5 L 14 5 L 14 8 L 11 8 ZM 12.5 0 C 5.5964 0 0 5.5963 0 12.5 C 0 19.4037 5.5964 25 12.5 25 C 19.4036 25 25 19.4037 25 12.5 C 25 5.5963 19.4036 0 12.5 0 Z"/> </g> </symbol><symbol viewBox="0 0 25 25" id="i--currency"><title>currency</title> <g id="svgstore002b59f4054251235664a82a1dd1e3c5currency"> <path id="svgstore002b59f4054251235664a82a1dd1e3c5base17" d="M 15.7048 10.3951 L 22.1977 16.4965 L 10.4582 16.4965 L 10.4582 18.2447 L 22.1977 18.2447 L 15.7048 24.346 L 16.3974 25 L 17.592 25 L 25 18.0071 L 25 16.734 L 17.592 9.7411 L 16.3974 9.7411 L 15.7048 10.3951 ZM 9.2952 1.654 L 8.6026 1 L 7.408 1 L 0 7.9929 L 0 9.266 L 7.408 16.2589 L 8.6026 16.2589 L 9.2952 15.6048 L 2.8023 9.5035 L 14.5418 9.5035 L 14.5418 7.7553 L 2.8023 7.7553 L 9.2952 1.654 Z"/> </g> </symbol><symbol viewBox="0 0 25 25" id="i--destination"><title>destination</title> <g id="svgstore2651962a70d79d79107de432bf47900fdestination"> <g id="svgstore2651962a70d79d79107de432bf47900fbase11"> <path d="M 21.51 20.546 C 21.2482 20.1423 20.6992 20.0215 20.2831 20.2754 C 18.466 21.3872 16.3642 21.9747 14.2057 21.9747 C 7.9045 21.9747 2.7785 16.9942 2.7785 10.8735 C 2.7785 7.1196 4.7094 3.6479 7.9445 1.5857 C 8.3548 1.3242 8.4696 0.7887 8.1999 0.39 C 7.9296 -0.009 7.3793 -0.1199 6.9682 0.1417 C 3.2307 2.524 1 6.5362 1 10.8737 C 1 16.5942 4.8758 21.4517 10.2101 23.1006 C 8.7015 23.5183 7.6146 24.2007 7.3007 25 L 20.0085 25 C 19.7328 24.2984 18.8578 23.6863 17.6276 23.2639 C 18.895 22.9348 20.1101 22.4238 21.2309 21.7381 C 21.6459 21.4826 21.7708 20.9502 21.51 20.546 L 21.51 20.546 Z"/> <path d="M 13.9173 1.1382 C 8.3488 1.1382 3.8342 5.5234 3.8342 10.9331 C 3.8342 16.3433 8.3488 20.7283 13.9173 20.7283 C 19.4854 20.7283 24 16.3433 24 10.9331 C 23.9998 5.5232 19.4854 1.1382 13.9173 1.1382 L 13.9173 1.1382 ZM 18.1815 13.945 C 18.1815 14.0987 18.1261 14.3392 18.058 14.4779 L 17.322 15.9867 C 17.2539 16.1256 17.1034 16.325 16.9877 16.4308 L 14.5907 18.6048 C 14.4754 18.7097 14.5103 18.7963 14.6684 18.7963 L 14.9426 18.7963 C 15.101 18.7963 15.2309 18.9066 15.2309 19.0413 C 15.2309 19.1766 15.101 19.2872 14.9426 19.2872 L 13.7646 19.2872 C 13.6062 19.2872 13.4769 19.1607 13.4769 19.0066 L 13.4769 16.0291 C 13.4769 15.8744 13.6062 15.7491 13.7646 15.7491 L 14.0921 15.7491 C 14.2506 15.7491 14.3802 15.6231 14.3802 15.4694 L 14.3802 15.1515 C 14.3802 14.9972 14.2506 14.8712 14.0921 14.8712 L 13.7646 14.8712 C 13.6062 14.8712 13.4769 14.7454 13.4769 14.5916 L 13.4769 12.8469 C 13.4769 12.6934 13.3468 12.5673 13.1884 12.5673 L 12.7008 12.5673 C 12.5431 12.5673 12.3068 12.4946 12.1779 12.4054 L 10.6279 11.3401 C 10.4984 11.2516 10.3262 11.07 10.246 10.9372 L 9.5206 9.7409 C 9.4404 9.6084 9.245 9.4996 9.0861 9.4996 L 8.7397 9.4996 C 8.5809 9.4996 8.3953 9.3862 8.3268 9.2477 L 7.4863 7.5568 C 7.4182 7.4183 7.3611 7.1791 7.3611 7.0247 L 7.3611 6.0607 C 7.3611 5.9067 7.2374 5.8174 7.0858 5.8627 L 6.7479 5.9637 C 8.2109 3.9775 10.5246 2.624 13.1684 2.4065 L 13.1684 3.5693 C 13.1684 3.7228 13.2745 3.9212 13.4041 4.0095 L 13.9439 4.3783 C 14.0734 4.4666 14.3085 4.5391 14.4674 4.5391 L 14.8943 4.5391 C 15.0534 4.5391 15.1822 4.6407 15.1822 4.7652 C 15.1822 4.8893 15.0929 5.082 14.984 5.1942 L 14.3688 5.8242 C 14.2591 5.9355 14.2995 6.0271 14.4586 6.0274 L 14.8687 6.0284 C 15.0269 6.0287 15.1568 6.1547 15.1568 6.3089 L 15.1553 7.3144 C 15.1549 7.4683 15.2848 7.5942 15.4428 7.5942 L 15.9062 7.5942 C 16.0646 7.5942 16.1946 7.6896 16.1946 7.8069 C 16.1946 7.9236 16.0646 8.0192 15.9062 8.0192 L 14.4857 8.0192 C 14.3279 8.0192 14.0947 8.0957 13.9691 8.1889 L 13.3872 8.6202 C 13.2614 8.7134 13.1581 8.9156 13.1581 9.0696 L 13.1583 10.7418 C 13.1583 10.8959 13.029 11.0219 12.8706 11.0219 L 12.7901 11.0219 C 12.6321 11.0219 12.5022 10.8959 12.5022 10.7418 L 12.5022 9.7791 C 12.5022 9.6251 12.3731 9.4995 12.2144 9.4995 L 11.4372 9.4995 C 11.2792 9.4995 11.149 9.6251 11.148 9.7791 L 11.1437 10.5562 C 11.143 10.7101 11.2442 10.9147 11.368 11.0114 L 12.5146 11.9052 C 12.6374 12.0019 12.8685 12.0806 13.0269 12.081 L 14.9419 12.0819 C 15.1006 12.0822 15.3454 12.1406 15.4854 12.212 L 17.9262 13.4508 C 18.0662 13.5218 18.1807 13.7061 18.1807 13.8607 L 18.1807 13.9454 L 18.1815 13.9454 L 18.1815 13.945 ZM 17.4414 5.5599 C 17.3138 5.6512 17.0798 5.7259 16.9214 5.7259 L 16.7971 5.7259 C 16.6394 5.7259 16.5093 5.5999 16.5093 5.4461 L 16.5093 4.5362 C 16.5093 4.3822 16.3801 4.2564 16.2218 4.2564 L 15.8044 4.2564 C 15.6464 4.2564 15.5165 4.1305 15.5165 3.9767 L 15.5165 2.5179 C 16.8952 2.765 18.1643 3.3215 19.2383 4.1149 C 19.201 4.235 17.4414 5.5599 17.4414 5.5599 L 17.4414 5.5599 Z"/> </g> </g> </symbol><symbol viewBox="0 0 25 25" id="i--domestic-airtime-top-up"><title>domestic-airtime-top-up</title> <g id="svgstore6c30ca5fdeec1f4887f4f598a542a455domestic-airtime-top-up"> <path id="svgstore6c30ca5fdeec1f4887f4f598a542a455color4" d="M 9.3137 14.3254 L 4.3113 14.3317 C 3.5548 13.8936 2.8823 13.3167 2.3407 12.6034 L 9.2985 12.5977 L 9.2985 10.6821 L 1.3358 10.6851 C 1.16 10.1542 1.0399 9.5797 0.9854 8.9591 L 9.306 8.9619 L 9.2985 7.0388 L 7.2603 7.0388 L 7.2603 5.3116 L 9.3137 5.3035 L 9.3938 4.2712 C 9.3938 3.9767 9.479 3.6323 9.6047 3.3879 L 7.2603 3.3924 L 7.2603 1.6653 L 11.6715 1.6659 C 12.1245 1.8679 12.5557 2.1136 12.9558 2.4038 L 14.4363 2.4038 C 12.833 0.7989 10.5687 0 8.3334 0 C 4.2167 0 0 2.7093 0 8.1731 C 0 13.6368 4.2167 16.3462 8.3334 16.3462 C 8.4967 16.3462 9.1504 16.3427 9.3137 16.3341 L 9.3137 14.3254 ZM 3.3566 4.597 L 3.9873 2.6193 L 4.6179 4.597 L 6.6598 4.597 L 5.0078 5.819 L 5.6396 7.7973 L 3.9873 6.5746 L 2.3353 7.7973 L 2.9672 5.819 L 1.3148 4.597 L 3.3566 4.597 Z"/> <path id="svgstore6c30ca5fdeec1f4887f4f598a542a455base4" d="M 24.1613 3.3654 L 11.1062 3.3654 C 10.6589 3.3654 10.2941 3.8533 10.2941 4.2795 L 10.2941 24.226 C 10.2941 24.6524 10.6589 25 11.1062 25 L 24.1879 25 C 24.6351 25 25 24.6524 25 24.226 L 25 4.2795 C 25 3.8533 24.6351 3.3654 24.1879 3.3654 L 24.1613 3.3654 ZM 17.6648 24.4009 C 16.9188 24.4009 16.3108 23.8212 16.3108 23.1106 C 16.3108 22.3998 16.9188 21.8203 17.6648 21.8203 C 18.4105 21.8203 19.0188 22.3998 19.0188 23.1106 C 19.0188 23.8212 18.4105 24.4009 17.6648 24.4009 ZM 23.5294 20.4164 C 23.5294 20.822 23.1812 21.1538 22.7557 21.1538 L 12.5385 21.1538 C 12.1129 21.1538 11.7646 20.822 11.7646 20.4164 L 11.7646 5.5452 C 11.7646 5.1396 12.1129 4.8077 12.5385 4.8077 L 22.7557 4.8077 C 23.1812 4.8077 23.5294 5.1396 23.5294 5.5452 L 23.5294 20.4164 ZM 13.2354 19.7115 L 22.0588 19.7115 L 22.0588 6.25 L 13.2354 6.25 L 13.2354 19.7115 Z"/> </g> </symbol><symbol viewBox="0 0 25 25" id="i--download-the-app"><title>download-the-app</title> <g id="svgstorea0fe97059e70e22cacf378b660f4fd64download-the-app"> <path id="svgstorea0fe97059e70e22cacf378b660f4fd64base10" d="M 0 23 L 0 17.2069 L 2.9412 17.2069 L 2.9412 20.1034 L 22.0588 20.1034 L 22.0588 17.2069 L 25 17.2069 L 25 23 L 0 23 ZM 4.9633 9.2413 L 8.0883 9.2413 L 8.0883 2 L 16.9117 2 L 16.9117 9.2413 L 20.0367 9.2413 L 12.5 16.4828 L 4.9633 9.2413 Z"/> </g> </symbol><symbol viewBox="0 0 25 25" id="i--email-alt"><title>email-alt</title> <g id="svgstore4a25971738762e9bb4b83a3b01fe994aemail-alt"> <path id="svgstore4a25971738762e9bb4b83a3b01fe994abase15" d="M 3.5833 6.5 L 21.4167 6.5 L 12.5 13.9077 L 3.5833 6.5 ZM 24.2424 5 L 23.3606 5 L 23.2217 5 L 1.778 5 L 1.6394 5 L 0.7576 5 L 0.5114 5.2438 C 0.327 5.3288 0.1546 5.4352 0 5.5574 L 0.106 5.645 L 0 5.75 L 0 19.172 L 0 19.25 L 0.7576 20 L 23.5463 20 L 24.2424 20 L 25 19.25 L 25 19.172 L 25 5.75 L 24.8938 5.645 L 25 5.5574 C 24.8454 5.4352 24.673 5.3289 24.4886 5.2438 L 24.2424 5 ZM 3.2916 18.5 L 7.5684 15.0283 L 6.3713 14 L 1.5152 17.9413 L 1.5152 6.815 L 11.9642 15.5 L 12.5 15.9336 L 13.0358 15.5 L 23.4848 6.815 L 23.4848 17.9413 L 18.6287 14 L 17.4278 15.0321 L 21.7008 18.5 L 3.2916 18.5 Z"/> </g> </symbol><symbol viewBox="0 0 25 25" id="i--email"><title>email</title> <g id="svgstore50c6eaa14d983f23cdb0999afac5efdaemail"> <path id="svgstore50c6eaa14d983f23cdb0999afac5efdabase14" d="M 24.7953 19.1943 L 17.1009 12.5786 L 24.8946 5.8166 C 24.9549 5.9776 25 6.1451 25 6.3262 L 25 18.4808 C 25 18.7433 24.9157 18.9785 24.7953 19.1943 ZM 1.7212 5.0269 L 1.8536 5 L 23.436 5 L 23.6528 5.0432 L 12.648 14.4265 L 1.7212 5.0269 ZM 0.1415 19.0993 C 0.0544 18.9094 0 18.7025 0 18.4808 L 0 6.3262 C 0 6.118 0.0451 5.9198 0.1204 5.7387 L 8.1976 12.5557 L 0.1415 19.0993 ZM 12.6417 16.4578 L 15.9359 13.5919 L 23.3668 20 L 1.8536 20 L 1.7722 19.9836 L 9.3598 13.5749 L 12.6417 16.4578 Z"/> </g> </symbol><symbol viewBox="0 0 16 16" id="i--enter"><title>enter</title> <g id="svgstoreeae9f69adbb81adb52d95c462f33bf73icomoon-ignore"> <line stroke-width="1" x1="" y1="" x2="" y2="" stroke="#449FDB" opacity=""/> </g> <path d="M6 8h-5v-2h5v-2l3 3-3 3zM16 0v13l-6 3v-3h-6v-4h1v3h5v-9l4-2h-9v4h-1v-5z"/> </symbol><symbol viewBox="0 0 16 16" id="i--exit"><title>exit</title> <g id="svgstore49e60d1f08d55a58779523fb1445e90cicomoon-ignore"> <line stroke-width="1" x1="" y1="" x2="" y2="" stroke="#449FDB" opacity=""/> </g> <path d="M12 10v-2h-5v-2h5v-2l3 3zM11 9v4h-5v3l-6-3v-13h11v5h-1v-4h-8l4 2v9h4v-3z"/> </symbol><symbol viewBox="0 0 25 25" id="i--expand"><title>expand</title> <g id="svgstoredcb21fcbde40fa633153e27c929157efexpand"> <path id="svgstoredcb21fcbde40fa633153e27c929157efbase25" d="M 14 10 L 14 14 L 18 14 L 18 15 L 17 15 L 17 16 L 16 16 L 16 17 L 15 17 L 15 18 L 14 18 L 14 19 L 13 19 L 13 20 L 12 20 L 12 19 L 11 19 L 11 18 L 10 18 L 10 17 L 9 17 L 9 16 L 8 16 L 8 15 L 7 15 L 7 14 L 11 14 L 11 10 L 14 10 ZM 11 8 L 11 5 L 14 5 L 14 8 L 11 8 ZM 12.5 0 C 5.5964 0 0 5.5964 0 12.5 C 0 19.4036 5.5964 25 12.5 25 C 19.4036 25 25 19.4036 25 12.5 C 25 5.5964 19.4036 0 12.5 0 Z"/> </g> </symbol><symbol viewBox="0 0 25 25" id="i--faqs"><title>faqs</title> <g id="svgstorea02c17575539b914b244a46434ccf006faqs"> <path id="svgstorea02c17575539b914b244a46434ccf006base9" d="M 8.6523 8.7152 L 8.667 8.4991 C 8.667 7.1539 9.1281 6.0349 9.8386 5.1548 C 10.5492 4.2747 11.4502 3.8221 12.5416 3.8221 C 13.5568 3.8221 14.407 4.2119 15.0922 4.9788 C 15.7773 5.7457 16.12 6.6887 16.12 7.8203 C 16.12 8.6123 15.9678 9.241 15.676 9.7187 C 15.3713 10.1965 14.7115 10.8629 13.6963 11.7178 C 12.4146 12.8116 11.6304 13.8174 11.1482 14.7478 C 10.6659 15.6781 10.4249 16.8098 10.4249 18.1173 L 10.4341 18.5906 L 15.0981 18.6066 C 15.0981 17.4877 15.1155 16.7152 15.3693 16.2877 C 15.623 15.8604 15.8029 15.2633 16.8308 14.5341 C 18.4169 13.4151 19.4956 12.3842 20.0667 11.4538 C 20.6376 10.5234 21 9.3289 21 7.8831 C 21 5.5572 20.13 3.6587 18.5565 2.2003 C 16.9702 0.7418 14.9274 0 12.4274 0 C 9.864 0 7.8336 0.6094 6.3617 2.0804 C 4.877 3.564 4 5.748 4 8.7152 L 8.6523 8.7152 ZM 15.0852 25 L 15.0852 20.3555 L 10.4249 20.3555 L 10.4249 25 L 15.0852 25 Z"/> </g> </symbol><symbol viewBox="0 0 25 25" id="i--friends-forever"><title>friends-forever</title> <g id="svgstore2329597334d5559ddf332f1a7f715eb4friends-forever"> <path d="M 2.34 16.6909 C 2.7878 16.3811 4.0356 15.8749 4.9229 15.8765 C 5.5211 15.8777 6.1259 15.9866 6.8278 16.3047 C 7.5297 16.6227 8.5996 17.4413 9.0085 18.3732 C 9.4174 19.3051 9.6249 20.444 9.6327 20.6044 C 11.6422 20.8461 13.6962 20.1674 15.1725 18.5569 C 16.0566 17.5912 16.6104 16.4165 16.855 15.1771 C 15.9277 16.1082 15.0754 16.6781 13.6323 16.9486 C 13.0021 17.0668 12.4871 17.0981 11.8804 17.0674 C 11.1334 17.0295 10.1941 16.7239 9.4912 16.39 C 8.9398 16.1282 8.1808 15.6978 7.4493 14.7146 C 7.1377 14.2957 6.8928 14.0366 6.4932 13.1232 C 6.0935 12.2097 5.9094 10.6409 5.9209 10.0703 C 5.9427 8.9764 6.1384 8.3024 6.4902 7.4753 L 6.4998 7.4532 C 6.5714 7.2864 6.6497 7.1212 6.7347 6.9591 C 7.009 6.4366 7.3456 5.9396 7.7585 5.4891 C 9.0304 4.1007 10.7148 3.394 12.4015 3.3759 C 12.6555 3.3759 13.1698 2.9105 13.3975 2.5275 C 10.4318 1.9617 7.0785 3.0709 4.6232 5.7513 C 1.74 8.8981 0.9485 13.2787 2.34 16.6909 ZM 1 20.8599 C 1 23.1465 2.7562 25 4.9229 25 C 7.0894 25 8.8458 23.1465 8.8458 20.8599 C 8.8458 18.5735 7.0894 16.7197 4.9229 16.7197 C 2.7562 16.7197 1 18.5735 1 20.8599 ZM 21.66 8.3092 C 21.2122 8.6189 19.9644 9.1251 19.0771 9.1235 C 18.4789 9.1223 17.8741 9.0134 17.1722 8.6953 C 16.4703 8.3773 15.4004 7.5587 14.9915 6.6268 C 14.5826 5.6949 14.3751 4.556 14.3673 4.3956 C 12.3578 4.1539 10.3038 4.8326 8.8275 6.4431 C 7.9434 7.4088 7.3896 8.5835 7.145 9.8229 C 8.0723 8.8918 8.9246 8.3219 10.3677 8.0514 C 10.9979 7.9332 11.5129 7.9019 12.1196 7.9326 C 12.8666 7.9705 13.8059 8.2761 14.5088 8.61 C 15.0602 8.8718 15.8192 9.3022 16.5507 10.2854 C 16.8623 10.7043 17.1072 10.9634 17.5068 11.8768 C 17.9065 12.7903 18.0906 14.3591 18.0791 14.9297 C 18.0573 16.0236 17.8616 16.6976 17.5098 17.5247 L 17.5002 17.5468 C 17.4286 17.7136 17.3503 17.8788 17.2653 18.0409 C 16.991 18.5634 16.6544 19.0604 16.2415 19.5109 C 14.9696 20.8993 13.2852 21.606 11.5985 21.6241 C 11.3445 21.6241 10.8302 22.0895 10.6025 22.4725 C 13.5682 23.0383 16.9215 21.9291 19.3768 19.2487 C 22.26 16.1019 23.0515 11.7213 21.66 8.3092 ZM 23 4.1401 C 23 1.8535 21.2438 0 19.0771 0 C 16.9106 0 15.1542 1.8535 15.1542 4.1401 C 15.1542 6.4265 16.9106 8.2803 19.0771 8.2803 C 21.2438 8.2803 23 6.4265 23 4.1401 Z"/> </g> </symbol><symbol viewBox="0 0 25 25" id="i--horn"><title>horn</title> <path id="svgstore30cebc1fa378cb9b3ddda25d98c80682base" d="M 7.6087 18.7416 L 8.037 19.3246 L 14.4818 20.6191 L 15.1719 20.3322 L 16.2391 18.159 L 21.9674 19.5042 L 21.9697 21 L 25 21 L 25 4 L 21.9697 4 L 21.9674 4.9841 L 2.2717 9.606 L 2.2727 8.3838 L 0 8.3838 L 0 16.4316 L 2.2727 16.4316 L 2.2717 14.8823 L 8.3594 16.3125 L 7.6087 18.7416 ZM 8.8996 18.5164 L 9.4219 16.6563 L 15.0938 17.9219 L 14.2644 19.5937 L 8.8996 18.5164 Z"/> </symbol><symbol viewBox="0 0 25 25" id="i--info"><title>info</title> <g id="svgstore30f3900b27637c735dc1d2b133be1fdeinfo"> <path id="svgstore30f3900b27637c735dc1d2b133be1fdebase24" d="M 13.7931 9.4828 L 13.7931 19.8276 L 11.2069 19.8276 L 11.2069 9.4828 L 13.7931 9.4828 ZM 11.2069 7.7586 L 11.2069 5.1724 L 13.7931 5.1724 L 13.7931 7.7586 L 11.2069 7.7586 ZM 12.5 0 C 5.5965 0 0 5.5963 0 12.4999 C 0 19.4037 5.5965 25 12.5 25 C 19.4035 25 25 19.4037 25 12.4999 C 25 5.5963 19.4035 0 12.5 0 Z"/> </g> </symbol><symbol viewBox="0 0 25 25" id="i--inter-airtime-top-up"><title>inter-airtime-top-up</title> <g id="svgstorec66ef707b745a449d70bb99ba2b7b532inter-airtime-top-up"> <path id="svgstorec66ef707b745a449d70bb99ba2b7b532color3" d="M 5.3741 8.6643 L 3.0315 8.6601 L 3.8342 9.4472 L 3.8372 10.0425 C 3.8372 10.5047 4.2301 10.8784 4.7147 10.8784 L 4.7147 13.6362 L 5.4584 13.983 L 5.4584 13.4583 L 6.793 12.1863 L 6.793 11.5727 C 7.2775 11.5727 7.6702 11.1981 7.6702 10.7368 L 7.6732 10.1412 L 6.8956 10.1412 L 5.3741 8.6643 ZM 2.2849 8.6601 L 3.0315 8.6601 L 3.0315 7.7667 L 3.922 7.7667 C 4.2881 7.7667 4.5846 7.484 4.5846 7.1354 L 5.3436 7.1354 L 6.1377 6.3785 L 6.1377 5.6774 L 5.3523 4.9288 L 4.5529 4.9288 L 4.5529 5.5513 L 3.7783 5.5513 C 3.366 5.5513 3.0317 5.2327 3.0317 4.8396 C 3.0317 4.4465 3.366 4.1281 3.7783 4.1281 L 3.7783 3.3986 L 3.0876 3.3986 C 4.4264 1.9996 6.3546 1.1217 8.4983 1.1217 C 10.0973 1.1217 11.5756 1.6127 12.7794 2.4423 L 14.5735 2.4423 C 13.0294 0.9365 10.8766 0 8.4983 0 C 3.8124 0 0 3.6332 0 8.0989 C 0 12.5645 3.8124 16.1975 8.4983 16.1975 C 8.7659 16.1975 9.0304 16.1867 9.2916 16.1635 L 9.2916 15.036 C 9.031 15.063 8.7665 15.0762 8.4983 15.0762 C 4.4548 15.0762 1.177 11.9526 1.177 8.099 C 1.177 7.7854 1.2008 7.4772 1.2429 7.1747 L 2.2849 8.6601 ZM 8.0948 8.6941 C 8.0948 9.3988 8.6046 9.9879 9.2916 10.149 L 9.2916 7.7163 L 8.6174 7.7174 C 8.3286 7.7174 8.0948 7.9403 8.0948 8.2155 L 8.0948 8.6941 ZM 5.7177 2.5467 L 5.1451 3.3769 L 5.47 3.8515 L 5.4769 4.5965 L 6.2626 5.3453 L 6.7328 4.3156 C 7.4969 4.3156 8.1162 3.7255 8.1162 2.9977 L 5.7177 2.5467 Z"/> <path id="svgstorec66ef707b745a449d70bb99ba2b7b532base3" d="M 24.1613 3.3654 L 11.1062 3.3654 C 10.6589 3.3654 10.2941 3.8533 10.2941 4.2795 L 10.2941 24.226 C 10.2941 24.6524 10.6589 25 11.1062 25 L 24.1879 25 C 24.6351 25 25 24.6524 25 24.226 L 25 4.2795 C 25 3.8533 24.6351 3.3654 24.1879 3.3654 L 24.1613 3.3654 ZM 17.6648 24.4009 C 16.9188 24.4009 16.3108 23.8212 16.3108 23.1106 C 16.3108 22.3998 16.9188 21.8203 17.6648 21.8203 C 18.4105 21.8203 19.0188 22.3998 19.0188 23.1106 C 19.0188 23.8212 18.4105 24.4009 17.6648 24.4009 ZM 23.5294 20.4164 C 23.5294 20.822 23.1812 21.1538 22.7557 21.1538 L 12.5385 21.1538 C 12.1129 21.1538 11.7646 20.822 11.7646 20.4164 L 11.7646 5.5452 C 11.7646 5.1396 12.1129 4.8077 12.5385 4.8077 L 22.7557 4.8077 C 23.1812 4.8077 23.5294 5.1396 23.5294 5.5452 L 23.5294 20.4164 ZM 13.2354 19.7115 L 22.0588 19.7115 L 22.0588 6.25 L 13.2354 6.25 L 13.2354 19.7115 Z"/> </g> </symbol><symbol viewBox="0 0 25 25" id="i--inter-calling"><title>inter-calling</title> <g id="svgstoref94bcad3e8a82f881d28d6a641a89c16inter-calling"> <path id="svgstoref94bcad3e8a82f881d28d6a641a89c16color2" d="M 12 2.4351 C 17.8435 2.4351 23.5818 6.2931 23.5818 13.9999 L 25 13.9999 C 25 5.3304 18.4473 1 12 1 L 12 2.4351 ZM 12 7.2404 C 15.4465 7.2404 18.782 9.4995 18.782 14 L 20.1853 14 C 20.1853 8.5374 16.0371 5.8148 12 5.8148 L 12 7.2404 ZM 12 11.5926 C 13.3298 11.5926 14.4075 12.6704 14.4075 14 L 15.8518 14 C 15.8518 11.8727 14.1274 10.1482 12 10.1482 L 12 11.5926 Z"/> <path id="svgstoref94bcad3e8a82f881d28d6a641a89c16base2" d="M 14.8485 18.0517 C 15.9651 18.0438 19.0645 19.7474 19.3862 20.1532 C 20.0322 20.9683 20.0613 21.9954 19.5496 22.8111 C 18.6926 24.1772 16.8627 24.9961 16.1234 24.9999 C 14.2271 25.0098 9.0106 24.1713 4.674 19.2961 C -0.3741 13.6262 -0.2068 6.9164 0.161 6.1805 C 0.7559 5.0002 2.0614 4.0949 2.5975 3.7617 C 3.1587 3.4128 4.1337 3.4246 4.499 3.7383 C 5.8652 4.9112 6.9011 7.0682 6.7899 9.2605 C 6.759 9.8691 6.1158 10.559 4.6531 11.7662 C 5.1118 13.2084 6.3865 15.1389 7.408 16.2842 C 8.3518 17.3451 10.3549 19.1432 11.8185 19.8168 C 12.4244 19.2824 13.8009 18.0591 14.8485 18.0517 Z"/> </g> </symbol><symbol viewBox="0 0 25 25" id="i--inter-top-up"><title>inter-top-up</title> <g id="svgstore9bb2c4a75eabcaaf110e3e97809ba832inter-top-up"> <path id="svgstore9bb2c4a75eabcaaf110e3e97809ba832base21" d="M 23.4848 16.4286 L 23.4848 18.3981 L 22.4128 19.4762 L 2.5872 19.4762 L 1.5152 18.3981 L 1.5152 16.4286 L 23.4848 16.4286 ZM 22.4128 6.5238 L 23.4848 7.6019 L 23.4848 14.1429 L 1.5152 14.1429 L 1.5152 7.6019 L 2.5872 6.5238 L 22.4128 6.5238 ZM 22.7273 5 L 2.2727 5 L 1.7371 5.2232 L 0.2219 6.747 L 0 7.2857 L 0 18.7143 L 0.2219 19.253 L 1.7371 20.7768 L 2.2727 21 L 22.7273 21 L 23.2629 20.7768 L 24.7781 19.253 L 25 18.7143 L 25 7.2857 L 24.7781 6.747 L 23.2629 5.2232 L 22.7273 5 ZM 3.0303 9.9524 C 3.0303 11.0044 3.8783 11.8571 4.9242 11.8571 C 5.9702 11.8571 6.8182 11.0044 6.8182 9.9524 C 6.8182 8.9004 5.9702 8.0476 4.9242 8.0476 C 3.8783 8.0476 3.0303 8.9004 3.0303 9.9524 Z"/> </g> </symbol><symbol viewBox="0 0 25 25" id="i--invalid"><title>invalid</title> <g id="svgstored1eb64c0e0aae8e88d828db586775f94invalid"> <path d="M 12.5 0 C 5.5972 0 0 5.5972 0 12.5 C 0 19.4048 5.5972 25 12.5 25 C 19.4033 25 25 19.4048 25 12.5 C 25 5.5972 19.4033 0 12.5 0 ZM 12.5 24.0034 C 6.158 24.0034 0.9968 18.8457 0.9968 12.5 C 0.9968 6.158 6.158 0.9968 12.5 0.9968 C 18.8423 0.9968 24.0032 6.158 24.0032 12.5 C 24.0032 18.8457 18.8423 24.0034 12.5 24.0034 ZM 18.7278 9.3687 L 15.5994 6.2834 L 12.4282 9.3975 L 9.2542 6.2834 L 6.1257 9.3687 L 9.2998 12.4827 L 6.1257 15.5962 L 9.2571 18.6816 L 12.4282 15.5679 L 15.5994 18.6816 L 18.7278 15.5962 L 15.5566 12.4827 L 18.7278 9.3687 Z"/> </g> </symbol><symbol viewBox="0 0 16 16" id="i--key"><title>key</title> <g id="svgstore7bfecba0ab43dc8578480d5bb6fc2ab3icomoon-ignore"> <line stroke-width="1" x1="" y1="" x2="" y2="" stroke="#449FDB" opacity=""/> </g> <path d="M15.658 4.91l-1.58-1.58c-0.387-0.387-1.021-1.021-1.409-1.409l-1.58-1.58c-0.387-0.387-1.077-0.456-1.533-0.152l-4.319 2.88c-0.456 0.304-0.628 0.954-0.383 1.444l1.101 2.203c0.034 0.067 0.073 0.139 0.115 0.213l-5.571 5.571-0.5 3.5h3v-1h2v-2h2v-2h2v-1.112c0.1 0.060 0.196 0.113 0.284 0.157l2.203 1.101c0.49 0.245 1.14 0.072 1.444-0.383l2.88-4.319c0.304-0.456 0.236-1.146-0.152-1.533zM2.354 13.354l-0.707-0.707 4.868-4.868 0.707 0.707-4.868 4.868zM14.328 6.621l-0.707 0.707c-0.194 0.194-0.513 0.194-0.707 0l-4.243-4.243c-0.194-0.194-0.194-0.513 0-0.707l0.707-0.707c0.194-0.194 0.513-0.194 0.707 0l4.243 4.243c0.194 0.194 0.194 0.513 0 0.707z"/> </symbol><symbol viewBox="0 0 16 16" id="i--key2"><title>key2</title> <g id="svgstore56be228c723ea318bc377633697adc4bicomoon-ignore"> <line stroke-width="1" x1="" y1="" x2="" y2="" stroke="#449FDB" opacity=""/> </g> <path d="M11 0c-2.761 0-5 2.239-5 5 0 0.313 0.029 0.619 0.084 0.916l-6.084 6.084v3c0 0.552 0.448 1 1 1h1v-1h2v-2h2v-2h2l1.298-1.298c0.531 0.192 1.105 0.298 1.702 0.298 2.761 0 5-2.239 5-5s-2.239-5-5-5zM12.498 5.002c-0.828 0-1.5-0.672-1.5-1.5s0.672-1.5 1.5-1.5 1.5 0.672 1.5 1.5-0.672 1.5-1.5 1.5z"/> </symbol><symbol viewBox="0 0 25 25" id="i--local-time"><title>local-time</title> <g id="svgstore478c5df2f93780b75892883e7cd6dca6local-time"> <path id="svgstore478c5df2f93780b75892883e7cd6dca6base16" d="M 12.5 0.1979 C 6.3289 0.1979 0 4.2902 0 12.5 C 0 20.7098 6.3289 24.8021 12.5 24.8021 C 18.6711 24.8021 25 20.7098 25 12.5 C 25 4.2902 18.6711 0.1979 12.5 0.1979 ZM 12.5012 2.9674 C 17.7603 2.9674 22.0388 7.243 22.0388 12.4985 C 22.0388 17.7542 17.7603 22.0298 12.5012 22.0298 C 7.2422 22.0298 2.9639 17.7542 2.9639 12.4985 C 2.9639 7.243 7.2422 2.9674 12.5012 2.9674 ZM 21.6494 13.1093 C 21.6628 12.9075 21.6719 12.7042 21.6719 12.4985 C 21.6719 12.2928 21.6628 12.09 21.6494 11.8875 L 20.1919 11.8875 C 20.2078 12.0893 20.2185 12.2928 20.2185 12.4985 C 20.2185 12.7047 20.2078 12.9077 20.1919 13.1093 L 21.6494 13.1093 ZM 18.8542 8.1274 C 19.0854 8.4622 19.2913 8.8148 19.4678 9.1843 L 20.729 8.4565 C 20.5479 8.0897 20.344 7.7361 20.1169 7.3992 L 18.8542 8.1274 ZM 15.8176 5.5364 C 16.1875 5.7131 16.5405 5.919 16.875 6.1498 L 17.6045 4.8879 C 17.2666 4.6613 16.9128 4.4572 16.5457 4.276 L 15.8176 5.5364 ZM 12.2329 13.4998 L 16.0452 11.3007 L 15.3115 10.031 L 12.7698 11.4971 L 10.2021 7.0524 L 8.9314 7.7854 L 12.2329 13.4998 ZM 11.8899 4.8135 C 12.0918 4.7971 12.2954 4.7866 12.5012 4.7866 C 12.7073 4.7866 12.9106 4.7971 13.1128 4.8132 L 13.1128 3.3568 C 12.9102 3.3433 12.707 3.3341 12.5012 3.3341 C 12.2957 3.3341 12.092 3.3433 11.8899 3.3568 L 11.8899 4.8135 ZM 7.3984 4.8877 L 8.1274 6.1496 C 8.4622 5.919 8.8154 5.7131 9.1851 5.5364 L 8.4568 4.276 C 8.0898 4.4572 7.7361 4.6613 7.3984 4.8877 ZM 9.1851 19.4606 C 8.8152 19.2836 8.4619 19.0779 8.1274 18.8472 L 7.3984 20.1095 C 7.7358 20.336 8.0896 20.5397 8.4565 20.7208 L 9.1851 19.4606 ZM 4.2734 8.4565 L 5.5347 9.1843 C 5.7114 8.8148 5.9175 8.4622 6.1484 8.1274 L 4.8857 7.3992 C 4.6587 7.7361 4.4546 8.0897 4.2734 8.4565 ZM 4.7844 12.4985 C 4.7844 12.2928 4.7949 12.0893 4.8108 11.8875 L 3.3533 11.8875 C 3.3398 12.09 3.3306 12.2928 3.3306 12.4985 C 3.3306 12.7042 3.3398 12.9075 3.3533 13.1093 L 4.8108 13.1093 C 4.7949 12.9077 4.7844 12.7047 4.7844 12.4985 ZM 6.1482 16.8691 C 5.9172 16.5348 5.7114 16.1819 5.5347 15.8129 L 4.2734 16.5404 C 4.4546 16.9073 4.6587 17.2604 4.8855 17.5978 L 6.1482 16.8691 ZM 13.1128 20.1835 C 12.9106 20.2 12.7073 20.2106 12.5012 20.2106 C 12.2954 20.2106 12.092 20.2 11.8899 20.1835 L 11.8899 21.6401 C 12.092 21.6539 12.2957 21.6634 12.5012 21.6634 C 12.707 21.6634 12.9104 21.6539 13.1128 21.6401 L 13.1128 20.1835 ZM 17.6042 20.109 L 16.875 18.8472 C 16.5405 19.0779 16.1875 19.2836 15.8176 19.4606 L 16.5457 20.7205 C 16.9131 20.5397 17.2666 20.3364 17.6042 20.109 ZM 20.7292 16.5404 L 19.468 15.8129 C 19.2913 16.1822 19.0854 16.5348 18.8542 16.8693 L 20.1172 17.5978 C 20.3442 17.2604 20.5479 16.9073 20.7292 16.5404 Z"/> </g> </symbol><symbol viewBox="0 0 16 16" id="i--menu"><title>menu</title> <g id="svgstoreac4a0569dd6c21d817a51f57e680f90ficomoon-ignore"> <line stroke-width="1" x1="" y1="" x2="" y2="" stroke="#449FDB" opacity=""/> </g> <path d="M1 3h14v3h-14zM1 7h14v3h-14zM1 11h14v3h-14z"/> </symbol><symbol viewBox="0 0 16 16" id="i--minus"><title>minus</title> <g id="svgstore81a14723fa0f84fa435d030030d278e9icomoon-ignore"> <line stroke-width="1" x1="" y1="" x2="" y2="" stroke="#449FDB" opacity=""/> </g> <path d="M0 6.5v3c0 0.276 0.224 0.5 0.5 0.5h15c0.276 0 0.5-0.224 0.5-0.5v-3c0-0.276-0.224-0.5-0.5-0.5h-15c-0.276 0-0.5 0.224-0.5 0.5z"/> </symbol><symbol viewBox="0 0 25 25" id="i--mobile-top-up"><title>mobile-top-up</title> <g id="svgstoredf4ec548b7f17ad4a8dbb22ea78691bdmobile-top-up"> <path id="svgstoredf4ec548b7f17ad4a8dbb22ea78691bdbase18" d="M 20.0306 0 L 4.9389 0 C 4.4216 0 4 0.5638 4 1.0563 L 4 24.1057 C 4 24.5983 4.4216 25 4.9389 25 L 20.0611 25 C 20.5784 25 21 24.5983 21 24.1057 L 21 1.0563 C 21 0.5638 20.5784 0 20.0611 0 L 20.0306 0 ZM 12.5205 24.3077 C 11.6581 24.3077 10.9552 23.6379 10.9552 22.8167 C 10.9552 21.9953 11.6581 21.3256 12.5205 21.3256 C 13.3825 21.3256 14.0857 21.9953 14.0857 22.8167 C 14.0857 23.6379 13.3825 24.3077 12.5205 24.3077 ZM 19.3001 19.7034 C 19.3001 20.1721 18.8975 20.5555 18.4056 20.5555 L 6.5944 20.5555 C 6.1025 20.5555 5.6999 20.1721 5.6999 19.7034 L 5.6999 2.5188 C 5.6999 2.0502 6.1025 1.6666 6.5944 1.6666 L 18.4056 1.6666 C 18.8975 1.6666 19.3001 2.0502 19.3001 2.5188 L 19.3001 19.7034 ZM 7.4 18.8889 L 17.6 18.8889 L 17.6 3.3333 L 7.4 3.3333 L 7.4 18.8889 Z"/> </g> </symbol><symbol viewBox="0 0 25 25" id="i--money-transfer"><title>money-transfer</title> <g id="svgstore7ee637bc7b99e0faab750a80e30cf5d5money-transfer"> <path id="svgstore7ee637bc7b99e0faab750a80e30cf5d5base5" d="M 23.2538 20 L 1.7462 20 C 0.7819 20 0 19.2153 0 18.2521 L 0 6.7446 C 0 5.7808 0.7819 5 1.7462 5 L 23.2538 5 C 24.2181 5 25 5.7808 25 6.7446 L 25 18.2556 C 25 19.2189 24.2181 20 23.2538 20 ZM 23.6842 8.0486 C 23.6842 7.0853 22.9023 6.3043 21.938 6.3043 L 3.062 6.3043 C 2.0977 6.3043 1.3158 7.0853 1.3158 8.0486 L 1.3158 16.9512 C 1.3158 17.9149 2.0977 18.6957 3.062 18.6957 L 21.938 18.6957 C 22.9023 18.6957 23.6842 17.9149 23.6842 16.9512 L 23.6842 8.0486 ZM 20.6222 17.3913 L 4.3778 17.3913 C 3.4133 17.3913 2.6316 16.9952 2.6316 16.0316 L 2.6316 9.353 C 2.6316 8.3897 3.4133 7.6087 4.3778 7.6087 L 20.6222 7.6087 C 21.5867 7.6087 22.3684 8.3897 22.3684 9.353 L 22.3684 15.6467 C 22.3684 16.6103 21.5867 17.3913 20.6222 17.3913 ZM 7.2368 12.1739 L 4.6052 12.1739 L 4.6052 13.4783 L 7.2368 13.4783 L 7.2368 12.1739 ZM 12.4165 8.8793 C 10.4055 8.8793 8.7717 10.5088 8.7717 12.5206 C 8.7717 14.5322 10.4055 16.1615 12.4165 16.1615 C 14.4313 16.1615 16.0614 14.5322 16.0614 12.5206 C 16.0614 10.5088 14.4313 8.8793 12.4165 8.8793 ZM 20.3948 12.1739 L 17.7632 12.1739 L 17.7632 13.4783 L 20.3948 13.4783 L 20.3948 12.1739 ZM 12.905 12.1487 C 13.7509 12.4468 13.8312 12.8453 13.8309 13.4912 C 13.8309 14.1232 13.3174 14.6552 12.5 14.7902 L 12.5 15.4348 L 11.8422 15.4348 L 11.8422 14.7603 C 11.3657 14.7388 10.9033 14.459 10.6332 14.31 L 11.0461 13.6172 C 11.3447 13.7804 11.8456 14.0231 12.3077 14.0231 C 12.7201 14.0231 12.9426 13.8198 12.9626 13.5438 C 12.9863 13.2208 12.7372 13.0388 12.0415 12.809 C 11.4379 12.6096 10.9491 12.2402 10.9491 11.5512 C 10.9491 10.9194 11.1945 10.4053 11.8422 10.2584 L 11.8422 9.5652 L 12.5 9.5652 L 12.5074 10.2584 C 12.9733 10.2794 13.6563 10.4808 13.9052 10.5942 L 13.6796 11.3886 C 13.502 11.3036 13.0707 11.1141 12.5603 11.0771 C 12.1262 11.0455 11.9249 11.1819 11.9249 11.5284 C 11.9249 11.8538 12.2936 11.9284 12.905 12.1487 Z"/> </g> </symbol><symbol viewBox="0 0 25 25" id="i--move-service"><title>move-service</title> <g id="svgstore47e98611853d7a495420decd72c1c52amovie-service"> <path id="svgstore47e98611853d7a495420decd72c1c52abase41" d="M 12.5 0 C 5.5964 0 0 5.5964 0 12.5 C 0 19.4038 5.5964 25 12.5 25 C 19.4036 25 25 19.4038 25 12.5 C 25 5.5964 19.4036 0 12.5 0 ZM 17 16.03 L 17 14 L 14 14 L 14 17 L 16.1614 17 L 12.5374 21 L 9.0688 17 L 11 17 L 11 14 L 8 14 L 8 16.03 L 4.0161 12.4419 L 8 8.814 L 8 11 L 11 11 L 11 8 L 8.9133 8 L 12.5374 3.9998 L 16.0254 8 L 14 8 L 14 11 L 17 11 L 17 8.876 L 21.0049 12.5151 L 17 16.03 Z"/> </g> </symbol><symbol viewBox="0 0 25 25" id="i--movie-service"><title>movie-service</title> <g id="svgstoreb27cb4823bfe2836ccd6e50e1d896193movie-service"> <path id="svgstoreb27cb4823bfe2836ccd6e50e1d896193base41" d="M 17 16.03 L 17 14 L 14 14 L 14 17 L 16.1614 17 L 12.5374 21 L 9.0688 17 L 11 17 L 11 14 L 8 14 L 8 16.03 L 4.0161 12.4419 L 8 8.814 L 8 11 L 11 11 L 11 8 L 8.9133 8 L 12.5374 3.9998 L 16.0254 8 L 14 8 L 14 11 L 17 11 L 17 8.876 L 21.0049 12.5151 L 17 16.03 Z"/> </g> </symbol><symbol viewBox="0 0 25 25" id="i--my-account"><title>my-account</title> <g id="svgstorecb223a2753b9522e95634330e4b667b2my-account"> <path id="svgstorecb223a2753b9522e95634330e4b667b2base19" d="M 17.4119 15.8408 L 17.4036 15.938 C 17.4027 15.9419 17.4027 15.9458 17.4016 15.9489 C 17.3275 16.4202 16.9083 16.7814 16.4029 16.7814 L 16.4029 16.7825 L 16.1021 16.7825 C 16.0878 16.7814 16.0734 16.7814 16.0589 16.7814 C 16.0445 16.7814 16.03 16.7814 16.0157 16.7825 C 15.6923 16.8021 15.4298 17.0445 15.3895 17.3547 C 15.3866 17.3757 15.3844 17.3968 15.3844 17.4186 L 14.8438 23.9964 L 14.8283 24.1928 C 14.7439 24.6521 14.3309 25 13.8347 25 L 11.1687 25 C 10.665 25 10.2469 24.6412 10.1708 24.1714 L 10.1585 24.0182 L 9.6177 17.4286 C 9.6168 17.3999 9.6145 17.3715 9.6094 17.3427 C 9.5652 17.0386 9.3057 16.8021 8.9855 16.7825 C 8.9709 16.7814 8.9577 16.7814 8.9422 16.7814 C 8.9279 16.7814 8.9134 16.7814 8.8988 16.7825 L 8.5931 16.7825 L 8.5931 16.7814 C 8.0998 16.7814 7.6891 16.4372 7.6004 15.9829 L 7.5829 15.7939 L 7 9.5494 C 7 8.713 7.6982 8.0348 8.5593 8.0348 L 16.4409 8.0348 C 17.3018 8.0348 18 8.713 18 9.5494 L 17.4119 15.8408 ZM 12.5002 6.707 C 10.594 6.707 9.0493 5.2053 9.0493 3.3541 C 9.0493 1.502 10.594 0 12.5002 0 C 14.4062 0 15.9518 1.502 15.9518 3.3541 C 15.9518 5.2053 14.4062 6.707 12.5002 6.707 Z"/> </g> </symbol><symbol viewBox="0 0 25 25" id="i--number-to-top-up"><title>number-to-top-up</title> <g id="svgstoreb832ed44b7a35d4f47fbe8318eda0a81number-to-top-up"> <path id="svgstoreb832ed44b7a35d4f47fbe8318eda0a81base34" d="M 18.0193 6.259 L 15.9604 6.259 L 17.0195 3.5817 L 19.083 3.5817 L 18.0193 6.259 ZM 12.0435 6.259 L 12.0435 7.1514 L 14.0156 7.1514 L 12.9565 9.8287 L 14.5478 9.8287 L 15.6088 7.1514 L 17.6677 7.1514 L 16.6087 9.8287 L 18.1999 9.8287 L 19.261 7.1514 L 21.1739 7.1514 L 21.1739 6.259 L 19.6125 6.259 L 20.6717 3.5817 L 23 3.5817 L 23 2.6893 L 21.0278 2.6893 L 22.087 0.012 L 20.4957 0.012 L 19.4345 2.6893 L 17.3756 2.6893 L 18.4348 0.012 L 16.8435 0.012 L 15.7824 2.6893 L 13.8696 2.6893 L 13.8696 3.5817 L 15.4308 3.5817 L 14.3671 6.259 L 12.0435 6.259 ZM 10.1514 24.122 C 9.3059 24.122 8.6168 23.4644 8.6168 22.6582 C 8.6168 21.8521 9.3059 21.1945 10.1514 21.1945 C 10.9965 21.1945 11.6859 21.8521 11.6859 22.6582 C 11.6859 23.4644 10.9965 24.122 10.1514 24.122 ZM 14.67 0 L 2.9204 0.012 C 2.4134 0.012 2 0.8133 2 1.2968 L 2 24.122 C 2 24.6056 2.4134 25 2.9204 25 L 16.6013 25 C 17.1082 25 17.5217 24.6056 17.5217 24.122 L 17.5217 10.7211 L 16.6087 10.7211 L 16.6087 19.7012 C 16.6087 20.1614 16.2139 20.5379 15.7318 20.5379 L 3.79 20.5379 C 3.3077 20.5379 2.913 20.1614 2.913 19.7012 L 2.913 2.6335 C 2.913 2.1733 3.3077 1.7968 3.79 1.7968 L 12.8743 1.7968 L 14.67 0 ZM 4.7391 18.753 L 14.7826 18.753 L 14.7826 10.7211 L 12.0435 10.7211 L 12.0473 7.9933 L 11.1304 8.0438 L 11.1513 4.9769 L 12.983 4.5099 L 12.993 3.5817 L 4.7391 3.5817 L 4.7391 18.753 Z"/> </g> </symbol><symbol viewBox="0 0 25 25" id="i--payment-by-check"><title>payment-by-check</title> <g id="svgstore213075f50161749faa95e9de02864921payment-by-check"> <path id="svgstore213075f50161749faa95e9de02864921base23" d="M 0 9.9246 L 0 11.809 L 0 23.1156 L 0 25 L 1.8519 25 L 23.1481 25 L 25 25 L 25 23.1156 L 25 11.809 L 25 9.9246 L 23.1481 9.9246 L 18.5185 9.9246 L 18.5185 11.809 L 23.1481 11.809 L 23.1481 23.1156 L 1.8519 23.1156 L 1.8519 11.809 L 3.7037 11.809 L 3.7037 9.9246 L 1.8519 9.9246 L 0 9.9246 ZM 5.5556 11.809 L 4.7135 16.5486 L 9.2593 15.5779 L 5.5556 11.809 ZM 7.7343 9.9246 L 11.1111 13.2538 L 20.9694 3.3291 L 17.5926 0 L 7.7343 9.9246 ZM 12.963 15.5779 L 12.963 17.4623 L 20.3704 17.4623 L 20.3704 15.5779 L 12.963 15.5779 ZM 9.2593 18.4045 L 9.2593 20.2889 L 20.3704 20.2889 L 20.3704 18.4045 L 9.2593 18.4045 Z"/> </g> </symbol><symbol viewBox="0 0 25 25" id="i--payment-by-credit-card"><title>payment-by-credit-card</title> <g id="svgstore52725a53c7a0ba852fd4e4fcd98636a9payment-by-credit-card"> <path id="svgstore52725a53c7a0ba852fd4e4fcd98636a9base22" d="M 21.875 22 L 3.125 22 C 1.407 22 0 20.5751 0 18.8332 L 0 6.1665 C 0 4.4249 1.407 3 3.125 3 L 21.875 3 C 23.593 3 25 4.4249 25 6.1665 L 25 18.8332 C 25 20.5751 23.593 22 21.875 22 ZM 23.4375 6.1665 C 23.4375 5.2936 22.7385 4.5834 21.875 4.5834 L 3.125 4.5834 C 2.2644 4.5834 1.5627 5.2936 1.5627 6.1665 L 1.5627 7.7502 L 23.4375 7.7502 L 23.4375 6.1665 ZM 23.4375 10.9167 L 1.5627 10.9167 L 1.5627 18.8332 C 1.5627 19.7064 2.2644 20.4168 3.125 20.4168 L 21.875 20.4168 C 22.7385 20.4168 23.4375 19.7064 23.4375 18.8332 L 23.4375 10.9167 ZM 17.1875 12.5001 L 21.875 12.5001 L 21.875 15.6666 L 17.1875 15.6666 L 17.1875 12.5001 ZM 3.125 12.5001 L 12.5 12.5001 L 12.5 14.0831 L 3.125 14.0831 L 3.125 12.5001 ZM 6.25 17.2501 L 3.125 17.2501 L 3.125 15.6666 L 6.25 15.6666 L 6.25 17.2501 Z"/> </g> </symbol><symbol viewBox="0 0 25 25" id="i--phone-number"><title>phone-number</title> <g id="svgstore778a24fbe1774e6ca53296775944c429phone-number"> <path id="svgstore778a24fbe1774e6ca53296775944c429base30" d="M 18.9645 7.5201 L 16.883 7.5201 L 17.9538 4.7601 L 20.04 4.7601 L 18.9645 7.5201 ZM 12.9231 7.5201 L 12.9231 8.4401 L 14.9168 8.4401 L 13.8461 11.2001 L 15.4548 11.2001 L 16.5276 8.4401 L 18.6091 8.4401 L 17.5385 11.2001 L 19.1471 11.2001 L 20.2199 8.4401 L 22.1538 8.4401 L 22.1538 7.5201 L 20.5753 7.5201 L 21.6461 4.7601 L 24 4.7601 L 24 3.8401 L 22.0061 3.8401 L 23.0769 1.0801 L 21.4683 1.0801 L 20.3954 3.8401 L 18.3138 3.8401 L 19.3846 1.0801 L 17.776 1.0801 L 16.703 3.8401 L 14.7692 3.8401 L 14.7692 4.7601 L 16.3477 4.7601 L 15.2722 7.5201 L 12.9231 7.5201 ZM 16.6177 16.8896 C 15.9644 17.0236 15.247 17.6393 13.7368 18.9718 C 12.0356 18.1884 9.7074 16.0972 8.6103 14.8633 C 7.4231 13.5314 5.9415 11.2862 5.4082 9.6088 C 7.1288 8.0888 7.8464 7.4286 7.8919 6.6947 C 7.9165 6.2998 7.0951 1.3995 6.2305 0.9017 L 5.9711 0.7389 C 5.4209 0.3854 4.5886 -0.1491 3.6649 0.039 C 3.4392 0.0856 3.2229 0.1732 3.0191 0.2996 C 2.397 0.6887 0.8784 1.7399 0.1873 3.1128 C -0.2405 3.9685 -0.4349 11.772 5.4326 18.3662 C 11.2309 24.8885 18.3823 25.1715 19.4564 24.9526 L 19.486 24.9468 L 19.5807 24.9197 C 21.0301 24.401 22.2604 23.0241 22.7228 22.4543 C 23.5746 21.4051 22.9662 20.1553 22.6383 19.4848 L 22.5072 19.205 C 22.1177 18.2904 17.3326 16.8888 16.9371 16.8655 L 16.6177 16.8896 Z"/> </g> </symbol><symbol viewBox="0 0 16 16" id="i--play"><title>play</title> <g id="svgstored17f94c70408ba01ae6735c16e2046f1icomoon-ignore"> <line stroke-width="1" x1="" y1="" x2="" y2="" stroke="#449FDB" opacity=""/> </g> <path d="M8 0c-4.418 0-8 3.582-8 8s3.582 8 8 8 8-3.582 8-8-3.582-8-8-8zM8 14.5c-3.59 0-6.5-2.91-6.5-6.5s2.91-6.5 6.5-6.5 6.5 2.91 6.5 6.5-2.91 6.5-6.5 6.5zM6 4.5l6 3.5-6 3.5z"/> </symbol><symbol viewBox="0 0 16 16" id="i--plus"><title>plus</title> <g id="svgstore4c647c776706ebff41f368338461dabaicomoon-ignore"> <line stroke-width="1" x1="" y1="" x2="" y2="" stroke="#449FDB" opacity=""/> </g> <path d="M15.5 6h-5.5v-5.5c0-0.276-0.224-0.5-0.5-0.5h-3c-0.276 0-0.5 0.224-0.5 0.5v5.5h-5.5c-0.276 0-0.5 0.224-0.5 0.5v3c0 0.276 0.224 0.5 0.5 0.5h5.5v5.5c0 0.276 0.224 0.5 0.5 0.5h3c0.276 0 0.5-0.224 0.5-0.5v-5.5h5.5c0.276 0 0.5-0.224 0.5-0.5v-3c0-0.276-0.224-0.5-0.5-0.5z"/> </symbol><symbol viewBox="0 0 25 25" id="i--prepaid-visa-card"><title>prepaid-visa-card</title> <g id="svgstore6162fbdc0aa0662d31d7ba4b4daef23eprepaid-visa-card"> <path d="M 18.0555 15.1304 L 21.5278 15.1304 L 21.5278 16.5217 L 18.0555 16.5217 L 18.0555 15.1304 ZM 13.1945 15.1304 L 16.6666 15.1304 L 16.6666 16.5217 L 13.1945 16.5217 L 13.1945 15.1304 ZM 8.3334 15.1304 L 11.8055 15.1304 L 11.8055 16.5217 L 8.3334 16.5217 L 8.3334 15.1304 ZM 3.4722 15.1304 L 6.9445 15.1304 L 6.9445 16.5217 L 3.4722 16.5217 L 3.4722 15.1304 ZM 13.1945 9.913 C 13.1945 8.5683 14.2826 7.4783 15.625 7.4783 C 16.3052 7.4783 16.9199 7.7578 17.3611 8.2087 C 17.8022 7.7578 18.4171 7.4783 19.0972 7.4783 C 20.4396 7.4783 21.5278 8.5683 21.5278 9.913 C 21.5278 11.2578 20.4396 12.3478 19.0972 12.3478 C 18.4171 12.3478 17.8022 12.0684 17.3611 11.6174 C 16.9199 12.0684 16.3052 12.3478 15.625 12.3478 C 14.2826 12.3478 13.1945 11.2578 13.1945 9.913 ZM 2.1428 4 C 0.9594 4 0 4.9344 0 6.087 L 0 17.913 C 0 19.0656 0.9594 20 2.1428 20 L 22.8572 20 C 24.0406 20 25 19.0656 25 17.913 L 25 6.087 C 25 4.9344 24.0406 4 22.8572 4 L 2.1428 4 Z"/> </g> </symbol><symbol viewBox="0 0 25 25" id="i--print-virtual-card"><title>print-virtual-card</title> <g id="svgstore534c0b571af5a45950d70272f27dcaeaprint-virtual-card"> <path d="M 6 9 L 6 17 L 19 17 L 19 15 L 20 15 L 20 18 L 5 18 L 5 8 L 20 8 L 20 11 L 19 11 L 19 9 L 6 9 ZM 7 10 L 18 10 L 18 12 L 17 12 L 17 14 L 18 14 L 18 16 L 7 16 L 7 10 ZM 12.5005 0.0078 C 5.5986 0.0078 0.0039 5.6021 0.0039 12.5039 C 0.0039 19.4043 5.5986 25 12.5005 25 C 19.4019 25 24.9963 19.4043 24.9963 12.5039 C 24.9963 5.6021 19.4019 0.0078 12.5005 0.0078 Z"/> </g> </symbol><symbol viewBox="0 0 25 25" id="i--privacy-policy"><title>privacy-policy</title> <g id="svgstore48803df9f3d16306587d3462f65e6e6eprivacy-policy"> <path id="svgstore48803df9f3d16306587d3462f65e6e6ebase8" d="M 15.7673 17.254 L 16.4812 17.0717 L 16.8116 16.9877 L 16.6632 17.4044 L 16.4824 17.9122 L 10.5985 23.3074 L 9.5774 23.6722 L 9.8617 22.6389 L 15.7673 17.254 ZM 19.9983 12.0569 C 19.9983 11.3171 20.609 10.7173 21.3624 10.7173 C 22.1158 10.7173 22.7266 11.3171 22.7266 12.0569 C 22.7266 12.7968 22.1158 13.3966 21.3624 13.3966 C 20.609 13.3966 19.9983 12.7968 19.9983 12.0569 ZM 17.2155 19.5826 C 17.4299 19.536 17.6351 19.4459 17.8248 19.376 C 18.3655 19.5521 18.9429 19.6483 19.5436 19.6483 C 22.5571 19.6483 25 17.2492 25 14.2897 C 25 11.3301 22.5571 8.9311 19.5436 8.9311 C 16.5302 8.9311 14.0873 11.3301 14.0873 14.2897 C 14.0873 14.955 14.2117 15.591 14.4374 16.1786 C 14.3929 16.2224 14.3467 16.271 14.3008 16.3231 C 12.353 18.1759 10.0936 20.0773 8.1763 21.9014 L 8.1763 24.1127 L 9.5546 25 L 10.8878 25 C 11.4647 24.6722 12.2684 24.1122 12.2684 24.1122 L 12.2684 22.7742 L 13.6444 22.7742 L 14.1074 21.4346 L 15.5403 21.4346 L 16.3459 19.648 C 16.3459 19.648 17.0088 19.6276 17.2155 19.5826 ZM 11.485 0 L 9.3115 0 C 7.568 0.4257 6.3322 1.5414 5.2346 2.8683 C 4.217 4.0985 2.9441 4.4858 1.3342 4.4834 C 0.9244 4.4829 0.453 4.4664 0.0146 4.4664 C -0.1046 8.7495 0.4864 12.936 2.47 16.6044 C 3.6449 18.7772 5.2574 20.5187 7.2827 21.8744 L 7.2848 21.4999 C 7.647 21.1553 8.0201 20.8062 8.4012 20.4543 C 4.4799 17.9503 1.7228 12.3239 1.8127 6.2527 C 4.1716 6.1157 5.9226 5.0191 7.3345 3.2556 C 8.0925 2.3087 9.1573 1.7732 10.4711 1.7723 L 10.4861 18.5521 C 11.4763 17.6542 12.4675 16.7554 13.3914 15.8765 C 13.2555 15.3683 13.1779 14.8398 13.1779 14.2897 C 13.1779 10.8369 16.028 8.038 19.5436 8.038 C 19.9855 8.038 20.4161 8.0811 20.8326 8.1652 C 20.9166 6.9105 20.906 5.6511 20.8907 4.4877 C 20.6022 4.4586 20.278 4.4856 20.1476 4.4865 C 17.9949 4.5004 16.343 4.0007 15.0261 2.2997 C 14.124 1.1344 12.9299 0.3713 11.485 0 Z"/> </g> </symbol><symbol viewBox="0 0 25 25" id="i--quick-call"><title>quick-call</title> <g id="svgstore683b18cdc9ac01651bfb308fc90d66f9quick-call"> <path id="svgstore683b18cdc9ac01651bfb308fc90d66f9base39" d="M 12.5 0 C 19.4036 0 25 5.5967 25 12.5 C 25 19.4033 19.4036 25 12.5 25 C 5.5964 25 0 19.4033 0 12.5 C 0 5.5967 5.5964 0 12.5 0 L 12.5 0 ZM 13 15 L 13 18.0105 L 19.9126 12.0527 L 13 5.835 L 13 8.8452 C 9.9895 8.8452 6.0735 10.4844 6.0735 18.0105 C 7.5789 15 9.7246 12.7319 13.0234 15.012 L 13 15 Z"/> </g> </symbol><symbol viewBox="0 0 25 25" id="i--recent-referals"><title>recent-referals</title> <path id="svgstore4476b3a3e38056cad929037abac8ea41base" d="M 1.8519 20.32 L 6.4815 20.32 L 6.4815 22.16 L 1.8519 22.16 L 1.8519 20.32 ZM 0 9.2352 L 0 24 L 25 24 L 25 9.3502 L 13.9178 19.4 L 12.0081 19.4 L 0 9.2352 ZM 12.963 5.6 C 12.963 3.0594 10.8966 1 8.3397 1 C 5.7828 1 3.71 3.0594 3.71 5.6 C 3.71 7.4293 4.8306 8.8391 6.3363 10.219 L 12.963 15.8009 L 19.596 10.219 C 21.1017 8.8391 22.2222 7.4293 22.2222 5.6 C 22.2222 3.0594 20.1495 1 17.5926 1 C 15.0357 1 12.963 3.0594 12.963 5.6 Z"/> </symbol><symbol viewBox="0 0 25 25" id="i--recent-transactions"><title>recent-transactions</title> <g id="svgstore3cfb330b0ed78cc687643de7caaf117erecent-transactions"> <path id="svgstore3cfb330b0ed78cc687643de7caaf117ebase32" d="M 21.1818 3.7037 L 21.1818 21.2963 L 4.8182 21.2963 L 4.8182 3.7037 L 21.1818 3.7037 ZM 5.7273 1.8519 L 3 1.8519 L 3 2.7778 L 3 22.2222 L 3 23.1481 L 5.7273 23.1481 L 5.7273 25 L 6.6364 25 L 6.6364 23.1481 L 8.4545 23.1481 L 8.4545 25 L 9.3636 25 L 9.3636 23.1481 L 11.1818 23.1481 L 11.1818 25 L 12.0909 25 L 12.0909 23.1481 L 13.9091 23.1481 L 13.9091 25 L 14.8182 25 L 14.8182 23.1481 L 16.6364 23.1481 L 16.6364 25 L 17.5455 25 L 17.5455 23.1481 L 19.3636 23.1481 L 19.3636 25 L 20.2727 25 L 20.2727 23.1481 L 23 23.1481 L 23 22.2222 L 23 2.7778 L 23 1.8519 L 20.2727 1.8519 L 20.2727 0 L 19.3636 0 L 19.3636 1.8519 L 17.5455 1.8519 L 17.5455 0 L 16.6364 0 L 16.6364 1.8519 L 14.8182 1.8519 L 14.8182 0 L 13.9091 0 L 13.9091 1.8519 L 12.0909 1.8519 L 12.0909 0 L 11.1818 0 L 11.1818 1.8519 L 9.3636 1.8519 L 9.3636 0 L 8.4545 0 L 8.4545 1.8519 L 6.6364 1.8519 L 6.6364 0 L 5.7273 0 L 5.7273 1.8519 ZM 14.108 17.7373 C 14.5625 18.2581 15.2301 18.5185 16.0966 18.5185 L 16.0966 19.4444 L 16.8494 19.4444 L 16.8494 18.5185 C 17.7301 18.5185 18.4119 18.2581 18.8807 17.7083 C 19.3494 17.173 19.5909 16.4497 19.5909 15.5382 C 19.5909 14.5544 19.2216 13.831 18.5114 13.3681 C 18.2557 13.2089 17.7017 12.9774 16.8494 12.6881 L 16.8494 9.1869 C 17.2614 9.1869 17.6023 9.3605 17.8864 9.6933 C 18.1563 10.026 18.2983 10.4456 18.3125 10.9664 L 19.3068 10.9664 C 19.3068 10.1707 19.0795 9.5197 18.6534 9.0278 C 18.2131 8.5359 17.6165 8.2465 16.8494 8.1742 L 16.8494 7.4074 L 16.0966 7.4074 L 16.0966 8.1742 C 15.2727 8.2899 14.6477 8.5938 14.2216 9.0712 C 13.7955 9.5631 13.5824 10.1997 13.5824 10.9954 C 13.5824 11.8924 13.8807 12.5868 14.4915 13.0498 C 14.7614 13.2813 15.3011 13.5272 16.0966 13.7876 L 16.0966 17.6215 C 15.4716 17.5347 15.017 17.2598 14.7472 16.8113 C 14.6477 16.6667 14.5767 16.522 14.5483 16.3484 C 14.5199 16.1748 14.4773 15.842 14.4205 15.3356 L 13.4261 15.3356 C 13.4261 15.3646 13.4119 15.408 13.4119 15.4659 L 13.4119 15.5816 C 13.4119 16.4931 13.6392 17.2164 14.108 17.7373 ZM 15.0028 9.7512 C 15.2585 9.4618 15.6136 9.2737 16.0966 9.1869 L 16.0966 12.5868 C 15.1023 12.2975 14.6193 11.7332 14.6193 10.8796 C 14.6193 10.4167 14.7472 10.0405 15.0028 9.7512 ZM 16.8494 13.9178 C 17.5028 14.1348 17.9432 14.3663 18.1847 14.6267 C 18.4261 14.8872 18.554 15.2344 18.554 15.6973 C 18.554 16.2182 18.3977 16.6522 18.1136 16.9994 C 17.8153 17.3466 17.3892 17.5637 16.8494 17.6215 L 16.8494 13.9178 ZM 6.6364 18.5185 L 6.6364 19.4444 L 11.1818 19.4444 L 11.1818 18.5185 L 6.6364 18.5185 ZM 6.6364 15.7407 L 6.6364 16.6667 L 9.3636 16.6667 L 9.3636 15.7407 L 6.6364 15.7407 ZM 6.6364 12.963 L 6.6364 13.8889 L 10.2727 13.8889 L 10.2727 12.963 L 6.6364 12.963 ZM 6.6364 10.1852 L 6.6364 11.1111 L 11.1818 11.1111 L 11.1818 10.1852 L 6.6364 10.1852 ZM 6.6364 7.4074 L 6.6364 8.3333 L 12.0909 8.3333 L 12.0909 7.4074 L 6.6364 7.4074 ZM 23 23.1481 L 22.0909 23.1481 L 22.0909 25 L 23 25 L 23 23.1481 ZM 22.0909 0 L 22.0909 1.8519 L 23 1.8519 L 23 0 L 22.0909 0 ZM 3.9091 25 L 3.9091 23.1481 L 3 23.1481 L 3 25 L 3.9091 25 ZM 3 1.8519 L 3.9091 1.8519 L 3.9091 0 L 3 0 L 3 1.8519 Z"/> </g> </symbol><symbol viewBox="0 0 25 25" id="i--redeem-br-card"><title>redeem-br-card</title> <g id="svgstore4502e0c7776a88039736fea4f85c13d3redeem-br-card"> <path id="svgstore4502e0c7776a88039736fea4f85c13d3base36" d="M 25 4 L 0 4 L 0 21 L 25 21 L 25 15.965 C 24.8367 15.9883 24.6698 16 24.5 16 C 22.567 16 21 14.433 21 12.5 C 21 10.567 22.567 9 24.5 9 C 24.6698 9 24.8367 9.0116 25 9.0349 L 25 4 ZM 1 5 L 24 5 L 24 7.615 C 21.6472 7.8166 19.5 9.4491 19.5 12.5 C 19.5 15.5509 21.6472 17.1833 24 17.385 L 24 20 L 1 20 L 1 5 ZM 23 6.765 L 23 6 L 2 6 L 2 19 L 23 19 L 23 18.235 C 20.5946 17.6808 18.5 15.7717 18.5 12.5 C 18.5 9.2283 20.5947 7.3187 23 6.765 Z"/> </g> </symbol><symbol viewBox="0 0 25 25" id="i--security-code"><title>security-code</title> <g id="svgstore45e7d48cd8f36bc5592e0f9ec49c0f40sequrity-code"> <path id="svgstore45e7d48cd8f36bc5592e0f9ec49c0f40Shape%2041" d="M 12.5 0 C 5.5969 0 0 5.5969 0 12.5 C 0 19.4038 5.5969 25 12.5 25 C 19.4031 25 25 19.4038 25 12.5 C 25 5.5969 19.4031 0 12.5 0 ZM 16.0415 18 L 8.9673 18 L 11.2324 11.5317 C 10.1367 11.0459 9.375 10.1509 9.375 8.875 C 9.375 7.1494 10.7627 5.8164 12.4868 5.8164 C 14.2144 5.8164 15.625 7.1494 15.625 8.875 C 15.625 10.1509 14.8591 10.9941 13.7634 11.48 L 16.0415 18 Z"/> </g> </symbol><symbol viewBox="0 0 25 25" id="i--sequrity-code"><title>sequrity-code</title> <g id="svgstore8e71dd14f092af50c3ac1a338b32d4a6sequrity-code"> <path id="svgstore8e71dd14f092af50c3ac1a338b32d4a6base42" d="M 16.0415 19 L 8.9673 19 L 11.2324 12.5317 C 10.1367 12.0459 9.375 11.1509 9.375 9.875 C 9.375 8.1494 10.7627 6.8164 12.4868 6.8164 C 14.2144 6.8164 15.625 8.1494 15.625 9.875 C 15.625 11.1509 14.8591 11.9941 13.7634 12.48 L 16.0415 19 Z"/> </g> </symbol><symbol viewBox="0 0 25 25" id="i--share-your-number"><title>share-your-number</title> <g id="svgstore53e419df6f2a98347b4ee67ff743b501share-your-number"> <path d="M 14 7.5 C 14 6.1191 15.1191 5 16.5 5 C 17.8809 5 19 6.1191 19 7.5 C 19 8.8809 17.8809 10 16.5 10 C 15.729 10 15.0386 9.6489 14.5798 9.1 L 8.9548 12.0349 C 8.9832 12.1857 9 12.3409 9 12.5 C 9 12.7584 8.9626 13.0103 8.8899 13.245 L 14.5049 15.995 C 14.9607 15.39 15.6843 15 16.5 15 C 17.8809 15 19 16.1191 19 17.5 C 19 18.8809 17.8809 20 16.5 20 C 15.1191 20 14 18.8809 14 17.5 C 14 17.2925 14.0273 17.0927 14.075 16.8999 L 8.405 14.12 C 7.9465 14.6589 7.2632 15 6.5 15 C 5.1191 15 4 13.8809 4 12.5 C 4 11.1191 5.1191 10 6.5 10 C 7.364 10 8.126 10.4388 8.575 11.105 L 14.105 8.22 C 14.0364 7.9917 14 7.7506 14 7.5 ZM 12.4995 0.002 C 5.593 0.002 0.0005 5.5991 0.0005 12.501 C 0.0005 19.4028 5.593 25 12.4995 25 C 19.4016 25 24.9988 19.4028 24.9988 12.501 C 24.9988 5.5991 19.4016 0.002 12.4995 0.002 Z"/> </g> </symbol><symbol viewBox="0 0 25 25" id="i--slider-arrow-left"><title>slider-arrow-left</title> <g id="svgstorefffd2af980c4747d444bd4c82003f708slider-arrow-left"> <path id="svgstorefffd2af980c4747d444bd4c82003f708base27" d="M 17.6354 0.1866 C 17.1764 -0.1497 16.5554 -0.0196 16.1773 0.4817 L 7.5138 11.384 C 7.2722 11.7193 7 11.8823 7 12.4986 C 7 13.115 7.2722 13.2807 7.5138 13.616 L 16.1773 24.5183 C 16.5554 25.0196 17.1764 25.1497 17.6354 24.8134 C 18.048 24.5112 18.1387 23.7926 17.7607 23.2913 L 9.1267 12.4986 L 17.7607 1.7087 C 18.1387 1.2074 18.048 0.4888 17.6354 0.1866 Z"/> </g> </symbol><symbol viewBox="0 0 25 25" id="i--slider-arrow-right"><title>slider-arrow-right</title> <g id="svgstoref1ee4be08e31e32009d4e70a2fcd6cb2slider-arrow-right"> <path id="svgstoref1ee4be08e31e32009d4e70a2fcd6cb2base28" d="M 7.3646 0.1866 C 7.8236 -0.1497 8.4446 -0.0196 8.8227 0.4817 L 17.4862 11.384 C 17.7278 11.7193 18 11.8823 18 12.4986 C 18 13.115 17.7278 13.2807 17.4862 13.616 L 8.8227 24.5183 C 8.4446 25.0196 7.8236 25.1497 7.3646 24.8134 C 6.952 24.5112 6.8613 23.7926 7.2393 23.2913 L 15.8733 12.4986 L 7.2393 1.7087 C 6.8613 1.2074 6.952 0.4888 7.3646 0.1866 Z"/> </g> </symbol><symbol viewBox="0 0 25 25" id="i--social-fb"><title>social-fb</title> <path id="svgstoree58d6dd0073710a29ac5171b27732e9fbase" d="M 12.5 0 C 5.5966 0 0 5.5979 0 12.5005 C 0 19.4041 5.5966 25 12.5 25 C 19.4034 25 25 19.4041 25 12.5005 C 25 5.5979 19.4034 0 12.5 0 ZM 15.8089 12.4479 L 13.6446 12.4479 C 13.6446 15.9072 13.6446 20.1676 13.6446 20.1676 L 10.4358 20.1676 C 10.4358 20.1676 10.4358 15.9508 10.4358 12.4479 L 8.9105 12.4479 L 8.9105 9.7224 L 10.4358 9.7224 L 10.4358 7.9566 C 10.4358 6.6924 11.0361 4.7194 13.6739 4.7194 L 16.0493 4.7283 L 16.0493 7.3756 C 16.0493 7.3756 14.6048 7.3756 14.3242 7.3756 C 14.0432 7.3756 13.6446 7.5164 13.6446 8.1172 L 13.6446 9.7224 L 16.09 9.7224 L 15.8089 12.4479 Z"/> </symbol><symbol viewBox="0 0 25 25" id="i--social-pn"><title>social-pn</title> <path id="svgstore1d8d7138a42210c72cf1ca591ec477a0base" d="M 12.5 0 C 5.5966 0 0 5.5979 0 12.5005 C 0 19.4041 5.5966 25 12.5 25 C 19.4034 25 25 19.4041 25 12.5005 C 25 5.5979 19.4034 0 12.5 0 ZM 13.6996 15.963 C 12.7355 15.963 11.8278 15.4422 11.518 14.8498 C 11.518 14.8498 10.9995 16.9076 10.8894 17.3049 C 10.5033 18.7084 9.3656 20.1133 9.2773 20.228 C 9.2154 20.3081 9.0796 20.2828 9.0652 20.1765 C 9.0404 19.998 8.7504 18.2272 9.0919 16.7827 C 9.263 16.0572 10.241 11.9158 10.241 11.9158 C 10.241 11.9158 9.956 11.3452 9.956 10.5022 C 9.956 9.1786 10.7234 8.1903 11.6781 8.1903 C 12.4901 8.1903 12.8827 8.8001 12.8827 9.5308 C 12.8827 10.348 12.3627 11.5693 12.094 12.7005 C 11.8704 13.6484 12.5689 14.4212 13.5038 14.4212 C 15.1952 14.4212 16.3359 12.2472 16.3359 9.6718 C 16.3359 7.7151 15.0182 6.2493 12.619 6.2493 C 9.9109 6.2493 8.222 8.2699 8.222 10.527 C 8.222 11.3053 8.452 11.8546 8.8114 12.2789 C 8.9769 12.4742 8.9997 12.5523 8.9403 12.7761 C 8.8961 12.9415 8.799 13.3368 8.7573 13.4932 C 8.6983 13.7198 8.5149 13.8003 8.3102 13.7165 C 7.063 13.2074 6.4815 11.8407 6.4815 10.3049 C 6.4815 7.7677 8.621 4.7251 12.8644 4.7251 C 16.2744 4.7251 18.5185 7.1924 18.5185 9.8421 C 18.5185 13.3457 16.5703 15.963 13.6996 15.963 Z"/> </symbol><symbol viewBox="0 0 25 25" id="i--social-tw"><title>social-tw</title> <path id="svgstoreb33b6cd0e15727c92193503553dc9677base" d="M 12.5005 0 C 5.5969 0 0 5.5979 0 12.5005 C 0 19.4041 5.5969 25 12.5005 25 C 19.4041 25 25 19.4041 25 12.5005 C 25 5.5979 19.4041 0 12.5005 0 ZM 18.7978 9.9802 C 18.804 10.1155 18.8065 10.2513 18.8065 10.3877 C 18.8065 14.5509 15.638 19.3511 9.8436 19.3511 C 8.0646 19.3511 6.4086 18.8296 5.0144 17.9358 C 5.261 17.9645 5.5116 17.9794 5.7657 17.9794 C 7.242 17.9794 8.6003 17.4757 9.6783 16.631 C 8.2999 16.6052 7.1366 15.6945 6.7358 14.4433 C 6.9279 14.4805 7.125 14.4998 7.3285 14.4998 C 7.616 14.4998 7.8941 14.4616 8.1586 14.3893 C 6.717 14.0997 5.6311 12.8262 5.6311 11.3008 C 5.6311 11.2869 5.6311 11.274 5.6316 11.2607 C 6.0562 11.4966 6.542 11.6384 7.0585 11.6553 C 6.2131 11.0891 5.6569 10.1259 5.6569 9.0328 C 5.6569 8.4553 5.8123 7.9139 6.0834 7.4489 C 7.6371 9.355 9.9586 10.6088 12.5768 10.7401 C 12.5231 10.5096 12.4953 10.2692 12.4953 10.0223 C 12.4953 8.2828 13.9059 6.8724 15.6454 6.8724 C 16.5517 6.8724 17.3704 7.2551 17.9447 7.8668 C 18.6628 7.7261 19.3367 7.4633 19.9455 7.1024 C 19.71 7.8386 19.2105 8.4558 18.5599 8.8454 C 19.1977 8.7691 19.8047 8.5995 20.3696 8.3492 C 19.9477 8.9808 19.413 9.536 18.7978 9.9802 Z"/> </symbol><symbol viewBox="0 0 25 25" id="i--social-yt"><title>social-yt</title> <g id="svgstore8372cdff9cf69400167fed358e0d90b5base"> <path d="M 7.1631 13.5519 L 8.0683 13.5519 L 8.0683 18.0481 L 8.9427 18.0481 L 8.9427 13.5519 L 9.8474 13.5519 L 9.8474 12.7865 L 7.1631 12.7865 L 7.1631 13.5519 Z"/> <path d="M 12.5342 9.8162 C 12.6527 9.8162 12.7469 9.7845 12.8163 9.72 C 12.8862 9.6536 12.9214 9.5634 12.9214 9.4494 L 12.9214 7.1195 C 12.9214 7.0263 12.8857 6.95 12.8143 6.8934 C 12.7434 6.8349 12.6497 6.8062 12.5342 6.8062 C 12.4276 6.8062 12.3414 6.8349 12.274 6.8934 C 12.208 6.95 12.1748 7.0263 12.1748 7.1195 L 12.1748 9.4494 C 12.1748 9.5663 12.2055 9.6566 12.268 9.72 C 12.3295 9.7845 12.4187 9.8162 12.5342 9.8162 Z"/> <path d="M 14.4625 14.119 C 14.3416 14.119 14.2226 14.1497 14.1041 14.2112 C 13.9881 14.2727 13.8766 14.3639 13.772 14.4819 L 13.772 12.7865 L 12.9878 12.7865 L 12.9878 18.0481 L 13.772 18.0481 L 13.772 17.7506 C 13.8731 17.8706 13.9847 17.9578 14.1036 18.0144 C 14.2211 18.0709 14.357 18.0986 14.5096 18.0986 C 14.7387 18.0986 14.9161 18.0263 15.0366 17.8795 C 15.1585 17.7318 15.2195 17.5216 15.2195 17.247 L 15.2195 15.0926 C 15.2195 14.7744 15.1551 14.5324 15.0247 14.3679 C 14.8958 14.2023 14.7079 14.119 14.4625 14.119 ZM 14.4194 17.1399 C 14.4194 17.2648 14.3966 17.3531 14.3525 17.4076 C 14.3074 17.4631 14.2385 17.4899 14.1428 17.4899 C 14.0774 17.4899 14.0159 17.475 13.9554 17.4482 C 13.8959 17.4215 13.834 17.3739 13.772 17.3114 L 13.772 14.8933 C 13.8246 14.8388 13.8781 14.7991 13.9316 14.7744 C 13.9857 14.7476 14.0407 14.7357 14.0962 14.7357 C 14.2008 14.7357 14.2816 14.7694 14.3381 14.8358 C 14.3926 14.9042 14.4194 15.0034 14.4194 15.1352 L 14.4194 17.1399 Z"/> <path d="M 11.628 17.1161 C 11.5552 17.1994 11.4754 17.2678 11.3876 17.3233 C 11.3004 17.3779 11.227 17.4046 11.1715 17.4046 C 11.0986 17.4046 11.0456 17.3848 11.0119 17.3432 C 10.9806 17.3025 10.9638 17.2361 10.9638 17.1449 L 10.9638 14.1666 L 10.188 14.1666 L 10.188 17.4126 C 10.188 17.6446 10.2336 17.8151 10.3243 17.9331 C 10.416 18.0481 10.5498 18.1056 10.7298 18.1056 C 10.8755 18.1056 11.0257 18.0659 11.1804 17.9826 C 11.3356 17.8984 11.4843 17.7794 11.628 17.6227 L 11.628 18.0481 L 12.4043 18.0481 L 12.4043 14.1666 L 11.628 14.1666 L 11.628 17.1161 Z"/> <path d="M 12.5 0 C 5.5966 0 0 5.5966 0 12.5 C 0 19.4043 5.5966 25 12.5 25 C 19.4034 25 25 19.4043 25 12.5 C 25 5.5966 19.4034 0 12.5 0 ZM 14.52 6.1737 L 15.392 6.1737 L 15.392 9.4523 C 15.392 9.5545 15.4118 9.6268 15.4485 9.6714 C 15.4842 9.717 15.5442 9.7408 15.626 9.7408 C 15.6899 9.7408 15.7712 9.7101 15.8699 9.6506 C 15.9675 9.5892 16.0578 9.5128 16.1386 9.4186 L 16.1386 6.1737 L 17.013 6.1737 L 17.013 10.4497 L 16.1386 10.4497 L 16.1386 9.9778 C 15.9789 10.1513 15.8114 10.2851 15.6364 10.3754 C 15.4624 10.4656 15.2939 10.5122 15.1298 10.5122 C 14.927 10.5122 14.7753 10.4477 14.6727 10.3198 C 14.5711 10.1939 14.52 10.0036 14.52 9.7468 L 14.52 6.1737 ZM 11.2756 7.1512 C 11.2756 6.8211 11.3931 6.5573 11.628 6.3591 C 11.8635 6.1647 12.1798 6.0656 12.5763 6.0656 C 12.9382 6.0656 13.2342 6.1697 13.4662 6.3759 C 13.6957 6.5821 13.8112 6.8498 13.8112 7.177 L 13.8112 9.3849 C 13.8112 9.7517 13.6977 10.0383 13.4726 10.2455 C 13.2451 10.4527 12.9338 10.5568 12.5367 10.5568 C 12.155 10.5568 11.8486 10.4497 11.6196 10.2366 C 11.3906 10.0204 11.2756 9.7309 11.2756 9.3681 L 11.2756 7.1512 ZM 8.8961 4.6538 L 9.5351 6.9698 L 9.5971 6.9698 L 10.2053 4.6538 L 11.2047 4.6538 L 10.0601 8.0455 L 10.0601 10.4497 L 9.0766 10.4497 L 9.0766 8.1526 L 7.9057 4.6538 L 8.8961 4.6538 ZM 20.3378 16.8534 C 20.3378 18.4 19.0836 19.6552 17.5365 19.6552 L 7.8026 19.6552 C 6.255 19.6552 5.0008 18.4 5.0008 16.8534 L 5.0008 14.6008 C 5.0008 13.0532 6.255 11.7991 7.8026 11.7991 L 17.5365 11.7991 C 19.0836 11.7991 20.3378 13.0532 20.3378 14.6008 L 20.3378 16.8534 Z"/> <path d="M 16.8048 14.0704 C 16.4573 14.0704 16.1752 14.1755 15.9556 14.3887 C 15.736 14.5999 15.6255 14.8755 15.6255 15.2096 L 15.6255 16.9545 C 15.6255 17.3293 15.7266 17.6227 15.9254 17.8349 C 16.1247 18.0481 16.3988 18.1551 16.7468 18.1551 C 17.1335 18.1551 17.4235 18.055 17.6173 17.8547 C 17.8136 17.6525 17.9093 17.3531 17.9093 16.9545 L 17.9093 16.7552 L 17.1117 16.7552 L 17.1117 16.9317 C 17.1117 17.1607 17.0844 17.3085 17.0343 17.3749 C 16.9833 17.4413 16.893 17.475 16.7647 17.475 C 16.6407 17.475 16.553 17.4363 16.5014 17.358 C 16.4509 17.2777 16.4261 17.1369 16.4261 16.9317 L 16.4261 16.201 L 17.9093 16.201 L 17.9093 15.2096 C 17.9093 14.8428 17.8151 14.5612 17.6237 14.3639 C 17.4334 14.1686 17.1602 14.0704 16.8048 14.0704 ZM 17.1117 15.5972 L 16.4261 15.5972 L 16.4261 15.2046 C 16.4261 15.042 16.4514 14.9241 16.5059 14.8566 C 16.5599 14.7843 16.6482 14.7496 16.7721 14.7496 C 16.8896 14.7496 16.9773 14.7843 17.0299 14.8566 C 17.0839 14.9241 17.1117 15.042 17.1117 15.2046 L 17.1117 15.5972 Z"/> </g> </symbol><symbol viewBox="0 0 25 25" id="i--speed-dial"><title>speed-dial</title> <g id="svgstorecb9204e774edecf745107bb3b4cb8baespeed-dial"> <path id="svgstorecb9204e774edecf745107bb3b4cb8baebase40" d="M 12.4929 0.0007 C 5.5913 0.0007 -0.0068 5.5972 -0.0068 12.5002 C -0.0068 19.4036 5.5913 25 12.4929 25 C 19.396 25 24.9924 19.4036 24.9924 12.5002 C 24.9924 5.5972 19.396 0.0007 12.4929 0.0007 ZM 19.1563 17.0625 C 18.6873 17.5315 17.7344 17.7656 17.146 17.2476 L 11.4421 12.8491 L 11.4019 12.8042 L 11.248 12.6235 L 11.1367 12.4648 L 11.072 12.2651 L 11.0132 12.0522 L 11 11.9902 L 11 7.5918 C 11 6.9839 11.845 5.9775 12.4756 5.9775 C 13.106 5.9775 14 6.9839 14 7.5918 L 14 11.4597 L 18.8906 15.125 C 19.3809 15.5049 19.6719 16.5469 19.1563 17.0625 Z"/> </g> </symbol><symbol viewBox="0 0 25 25" id="i--terms-conditions"><title>terms-conditions</title> <g id="svgstore18b2884cfb39c67a3771ab932f36c3b2terms-conditions"> <path id="svgstore18b2884cfb39c67a3771ab932f36c3b2base7" d="M 22.3378 2.525 L 20.2101 4.625 L 22.8723 7.2429 L 25 5.1429 L 22.3378 2.525 ZM 19.1462 5.675 L 9.0426 15.6494 L 9.0426 18.275 L 11.7179 18.275 L 21.8085 8.2929 L 19.1462 5.675 ZM 0 11.45 L 0 13.55 L 7.9788 13.55 L 7.9788 11.45 L 0 11.45 ZM 0 20.9 L 0 23 L 20.7446 23 L 20.7446 20.9 L 0 20.9 ZM 0 6.725 L 0 8.825 L 11.7021 8.825 L 11.7021 6.725 L 0 6.725 ZM 0 16.175 L 0 18.275 L 5.8511 18.275 L 5.8511 16.175 L 0 16.175 ZM 0 2 L 0 4.1 L 15.9574 4.1 L 15.9574 2 L 0 2 Z"/> </g> </symbol><symbol viewBox="0 0 25 25" id="i--time"><title>time</title> <g id="svgstore21c0a6c367c4a365915a9c2998457685time"> <path d="M 12.5 22.2564 C 8.78 22.2564 5.7535 19.2411 5.7535 15.5347 C 5.7535 11.8282 8.78 8.8135 12.5 8.8135 C 16.2202 8.8135 19.2469 11.8288 19.2469 15.5349 C 19.2469 19.2412 16.2202 22.2564 12.5 22.2564 ZM 10.6757 3.1892 C 10.6757 2.1869 11.494 1.3718 12.5 1.3718 C 13.506 1.3718 14.3243 2.1869 14.3243 3.1892 C 14.3243 3.8097 14.0107 4.3585 13.5328 4.6864 L 13.5328 4.081 C 13.5328 3.5127 13.0707 3.0523 12.5004 3.0523 C 11.93 3.0523 11.4676 3.5127 11.4676 4.081 L 11.4676 4.6864 C 10.9896 4.3585 10.6757 3.8097 10.6757 3.1892 ZM 13.7007 6.1449 C 14.8726 5.6707 15.7014 4.5251 15.7014 3.1892 C 15.7014 1.4308 14.2651 0 12.5 0 C 10.7349 0 9.2989 1.4308 9.2989 3.1892 C 9.2989 4.5251 10.1276 5.6707 11.2993 6.1449 C 9.7663 6.3377 8.3475 6.8946 7.1321 7.7252 L 6.3306 6.9268 C 5.5926 6.1916 4.3914 6.1916 3.6535 6.9268 L 3.5561 7.0239 C 2.8182 7.7592 2.8182 8.9559 3.5561 9.6913 L 4.4217 10.5535 C 3.5206 12.0004 3 13.707 3 15.5349 C 2.9996 20.7623 7.2531 25 12.5 25 C 17.7469 25 22 20.7623 22 15.5349 C 22 10.713 18.3807 6.7331 13.7007 6.1449 ZM 12.5 16.461 C 11.9875 16.461 11.5706 16.0454 11.5706 15.5349 C 11.5706 15.0243 11.9875 14.6092 12.5 14.6092 C 13.0125 14.6092 13.4292 15.0243 13.4292 15.5349 C 13.4292 16.0454 13.0125 16.461 12.5 16.461 ZM 15.4569 11.34 L 13.3784 13.4111 C 13.1073 13.2996 12.8106 13.2376 12.5 13.2376 C 11.2283 13.2376 10.194 14.2682 10.194 15.5349 C 10.194 16.8021 11.2286 17.8326 12.5 17.8326 C 13.7717 17.8326 14.806 16.8021 14.806 15.5349 C 14.806 15.3383 14.7811 15.1476 14.7344 14.9658 L 14.7752 14.9292 L 16.9171 12.7952 C 17.3205 12.3935 17.3205 11.7421 16.9171 11.3405 C 16.5138 10.9382 15.8603 10.9382 15.4569 11.34 Z"/> </g> </symbol><symbol viewBox="0 0 25 25" id="i--unlim"><title>unlim</title> <g id="svgstoreeace3d60afa010a626e0f2a2137385fdunlim"> <path id="svgstoreeace3d60afa010a626e0f2a2137385fdbase31" d="M 8.7059 7.8704 C 8.7059 6.0806 10.1807 4.6296 12 4.6296 C 13.8193 4.6296 15.2941 6.0806 15.2941 7.8704 C 15.2941 9.6602 13.8193 11.1111 12 11.1111 C 10.1807 11.1111 8.7059 9.6602 8.7059 7.8704 ZM 4 7.8704 C 4 9.4005 4.4461 10.8287 5.214 12.037 L 12.146 25 L 18.7906 12.037 C 19.5585 10.8287 20 9.4005 20 7.8704 C 20 3.5236 16.4183 0 12 0 C 7.5817 0 4 3.5236 4 7.8704 Z"/> </g> </symbol><symbol viewBox="0 0 25 25" id="i--valid"><title>valid</title> <g id="svgstoreba9113fae259baa6b511a1094ace36advalid"> <path id="svgstoreba9113fae259baa6b511a1094ace36adbase37" d="M 12.5 25 C 5.5969 25 0 19.4045 0 12.5002 C 0 5.5972 5.5969 0 12.5 0 C 19.4033 0 25 5.5972 25 12.5002 C 25 19.4045 19.4033 25 12.5 25 ZM 12.5 0.9971 C 6.1577 0.9971 0.9969 6.158 0.9969 12.5002 C 0.9969 18.8455 6.1577 24.0032 12.5 24.0032 C 18.8423 24.0032 24.0032 18.8455 24.0032 12.5002 C 24.0032 6.158 18.8423 0.9971 12.5 0.9971 ZM 10.2874 19.1663 L 9.3585 18.0859 L 5.0225 12.9058 L 6.7388 11.0554 L 10.0764 13.2563 L 17.546 7.4783 L 19.2833 9.3218 L 11.2542 18.1211 L 10.2874 19.1663 Z"/> </g> </symbol><symbol viewBox="0 0 25 25" id="i--visa-virtual"><title>visa-virtual</title> <g id="svgstoreaa1a7e0db410269bae8e8b59108380b3visa-virtual"> <path id="svgstoreaa1a7e0db410269bae8e8b59108380b3base6" d="M 20.1389 14.4348 L 21.5278 14.4348 L 21.5278 15.8261 L 20.1389 15.8261 L 20.1389 14.4348 ZM 16.6666 14.4348 L 18.0555 14.4348 L 18.0555 15.8261 L 16.6666 15.8261 L 16.6666 14.4348 ZM 13.1945 14.4348 L 14.5834 14.4348 L 14.5834 15.8261 L 13.1945 15.8261 L 13.1945 14.4348 ZM 2.7778 12.3478 L 7.6389 12.3478 L 7.6389 15.8261 L 2.7778 15.8261 L 2.7778 12.3478 ZM 0 10.9565 L 0 17.913 C 0 19.0656 0.9594 20 2.1428 20 L 22.8572 20 C 24.0406 20 25 19.0656 25 17.913 L 25 10.9565 L 0 10.9565 ZM 2.1428 4 C 0.9594 4 0 4.9344 0 6.087 L 0 8.8696 L 25 8.8696 L 25 6.087 C 25 4.9344 24.0406 4 22.8572 4 L 2.1428 4 Z"/> </g> </symbol></svg>