<?xml version="1.0" standalone="no"?>
<!-- Generator: Adobe Fireworks 10, Export SVG Extension by Aaron Beall (http://fireworks.abeall.com) . Version: 0.6.1  -->
<!DOCTYPE svg PUBLIC "-//W3C//DTD SVG 1.1//EN" "http://www.w3.org/Graphics/SVG/1.1/DTD/svg11.dtd">
<svg id="Untitled-Page%201" viewBox="0 0 135 40" style="background-color:#ffffff00" version="1.1"
	xmlns="http://www.w3.org/2000/svg" xmlns:xlink="http://www.w3.org/1999/xlink" xml:space="preserve"
	x="0px" y="0px" width="135px" height="40px"
>
	<g id="appstore">
		<rect x="0" y="0" width="135" height="40" fill="#000000"/>
		<g>
			<path d="M 30.1279 19.7842 C 30.0991 16.561 32.7671 14.9932 32.8892 14.9199 C 31.3779 12.7168 29.0361 12.416 28.2129 12.3921 C 26.2461 12.1851 24.3379 13.5688 23.3359 13.5688 C 22.314 13.5688 20.771 12.4121 19.1079 12.4458 C 16.9678 12.479 14.9658 13.7178 13.8682 15.6421 C 11.6021 19.5649 13.292 25.3301 15.4629 28.501 C 16.5488 30.0547 17.8179 31.7881 19.479 31.7266 C 21.104 31.6611 21.7109 30.6914 23.6719 30.6914 C 25.6152 30.6914 26.1851 31.7266 27.8789 31.6875 C 29.623 31.6611 30.7212 30.1279 31.769 28.5605 C 33.0239 26.7822 33.5278 25.0273 33.5479 24.9375 C 33.5068 24.9238 30.1611 23.6465 30.1279 19.7842 Z" fill="#ffffff"/>
			<path d="M 26.9282 10.3062 C 27.8022 9.2129 28.3999 7.7261 28.2339 6.2168 C 26.9692 6.2729 25.3872 7.0918 24.4761 8.1611 C 23.6699 9.103 22.9502 10.647 23.1362 12.0991 C 24.5571 12.2051 26.0161 11.3818 26.9282 10.3062 Z" fill="#ffffff"/>
		</g>
		<g>
			<path d="M 53.645 31.5039 L 51.374 31.5039 L 50.1299 27.5947 L 45.8062 27.5947 L 44.6211 31.5039 L 42.4102 31.5039 L 46.6938 18.1958 L 49.3398 18.1958 L 53.645 31.5039 ZM 49.7549 25.9551 L 48.6299 22.4805 C 48.5112 22.125 48.2881 21.2891 47.959 19.9731 L 47.9189 19.9731 C 47.7881 20.5391 47.5771 21.375 47.2871 22.4805 L 46.1821 25.9551 L 49.7549 25.9551 Z" fill="#ffffff"/>
			<path d="M 64.6621 26.5879 C 64.6621 28.2197 64.2212 29.5098 63.3389 30.457 C 62.5488 31.2998 61.5679 31.7207 60.397 31.7207 C 59.1328 31.7207 58.2251 31.2676 57.6719 30.3594 L 57.6318 30.3594 L 57.6318 35.415 L 55.5 35.415 L 55.5 25.0664 C 55.5 24.041 55.4731 22.9883 55.4209 21.9082 L 57.2959 21.9082 L 57.415 23.4297 L 57.4551 23.4297 C 58.166 22.2832 59.2451 21.71 60.6929 21.71 C 61.8252 21.71 62.77 22.1572 63.5259 23.0518 C 64.2842 23.9492 64.6621 25.127 64.6621 26.5879 ZM 62.4902 26.666 C 62.4902 25.7324 62.2798 24.9619 61.8579 24.3555 C 61.397 23.7246 60.7778 23.4082 60.002 23.4082 C 59.4761 23.4082 58.998 23.584 58.5708 23.9316 C 58.1431 24.2813 57.8628 24.7383 57.7319 25.3047 C 57.666 25.5684 57.6328 25.7832 57.6328 25.9531 L 57.6328 27.5547 C 57.6328 28.251 57.8472 28.8398 58.2749 29.3223 C 58.7031 29.8018 59.2588 30.043 59.9429 30.043 C 60.7461 30.043 61.3711 29.7324 61.8179 29.1152 C 62.2661 28.4961 62.4902 27.6797 62.4902 26.666 Z" fill="#ffffff"/>
			<path d="M 75.6992 26.5879 C 75.6992 28.2197 75.2578 29.5098 74.375 30.457 C 73.5859 31.2998 72.6055 31.7207 71.4336 31.7207 C 70.1699 31.7207 69.2617 31.2676 68.71 30.3594 L 68.6699 30.3594 L 68.6699 35.415 L 66.5381 35.415 L 66.5381 25.0664 C 66.5381 24.041 66.5112 22.9883 66.459 21.9082 L 68.334 21.9082 L 68.4531 23.4297 L 68.4932 23.4297 C 69.2031 22.2832 70.2822 21.71 71.7305 21.71 C 72.8613 21.71 73.8066 22.1572 74.5645 23.0518 C 75.3203 23.9492 75.6992 25.127 75.6992 26.5879 ZM 73.5273 26.666 C 73.5273 25.7324 73.3164 24.9619 72.8945 24.3555 C 72.4336 23.7246 71.8164 23.4082 71.0391 23.4082 C 70.5117 23.4082 70.0352 23.584 69.6074 23.9316 C 69.1797 24.2813 68.9004 24.7383 68.7695 25.3047 C 68.7041 25.5684 68.6689 25.7832 68.6689 25.9531 L 68.6689 27.5547 C 68.6689 28.251 68.8828 28.8398 69.3105 29.3223 C 69.7383 29.8008 70.293 30.043 70.9805 30.043 C 71.7832 30.043 72.4082 29.7324 72.8555 29.1152 C 73.3027 28.4961 73.5273 27.6797 73.5273 26.666 Z" fill="#ffffff"/>
			<path d="M 88.0391 27.7715 C 88.0391 28.9043 87.6465 29.8252 86.8574 30.5361 C 85.9902 31.3125 84.7832 31.7012 83.2324 31.7012 C 81.7988 31.7012 80.6523 31.4248 79.7832 30.8721 L 80.2773 29.0947 C 81.2129 29.6611 82.2402 29.9453 83.3594 29.9453 C 84.1621 29.9453 84.7871 29.7637 85.2363 29.4004 C 85.6836 29.04 85.9063 28.5527 85.9063 27.9482 C 85.9063 27.4082 85.7227 26.9531 85.3535 26.584 C 84.9863 26.2148 84.373 25.8721 83.5176 25.5566 C 81.1875 24.6875 80.0234 23.4131 80.0234 21.7402 C 80.0234 20.6465 80.4316 19.749 81.248 19.0508 C 82.0625 18.3521 83.1484 18.0029 84.5059 18.0029 C 85.7168 18.0029 86.7227 18.2139 87.5254 18.6348 L 86.9941 20.373 C 86.2441 19.9648 85.3945 19.7607 84.4453 19.7607 C 83.6953 19.7607 83.1094 19.9458 82.6895 20.314 C 82.3359 20.6426 82.1582 21.0439 82.1582 21.5195 C 82.1582 22.0449 82.3594 22.4805 82.7676 22.8232 C 83.123 23.1387 83.7676 23.4805 84.7051 23.8496 C 85.8516 24.3105 86.6895 24.8496 87.2305 25.4668 C 87.7695 26.0811 88.0391 26.8516 88.0391 27.7715 Z" fill="#ffffff"/>
			<path d="M 95.0879 23.5078 L 92.7383 23.5078 L 92.7383 28.167 C 92.7383 29.3516 93.1523 29.9434 93.9824 29.9434 C 94.3633 29.9434 94.6797 29.9111 94.9297 29.8438 L 94.9883 31.4629 C 94.5684 31.6201 94.0156 31.6992 93.3301 31.6992 C 92.4883 31.6992 91.8301 31.4414 91.3555 30.9277 C 90.8809 30.4141 90.6445 29.5527 90.6445 28.3408 L 90.6445 23.5039 L 89.2441 23.5039 L 89.2441 21.9043 L 90.6445 21.9043 L 90.6445 20.147 L 92.7383 19.5151 L 92.7383 21.9043 L 95.0879 21.9043 L 95.0879 23.5078 Z" fill="#ffffff"/>
			<path d="M 105.6914 26.627 C 105.6914 28.1016 105.2695 29.3125 104.4277 30.2598 C 103.543 31.2344 102.3711 31.7207 100.9102 31.7207 C 99.502 31.7207 98.3809 31.2539 97.5449 30.3203 C 96.709 29.3857 96.291 28.208 96.291 26.7871 C 96.291 25.2998 96.7227 24.082 97.584 23.1348 C 98.4434 22.1875 99.6055 21.7129 101.0664 21.7129 C 102.4746 21.7129 103.6074 22.1816 104.4629 23.1152 C 105.2832 24.0215 105.6914 25.1914 105.6914 26.627 ZM 103.4785 26.6953 C 103.4785 25.8105 103.291 25.0508 102.9082 24.4189 C 102.4609 23.6523 101.8203 23.2715 100.9941 23.2715 C 100.1387 23.2715 99.4844 23.6553 99.0391 24.4189 C 98.6543 25.0527 98.4668 25.8242 98.4668 26.7363 C 98.4668 27.6211 98.6543 28.3799 99.0391 29.0107 C 99.5 29.7773 100.1426 30.1592 100.9766 30.1592 C 101.7891 30.1592 102.4277 29.7676 102.8906 28.9912 C 103.2813 28.3477 103.4785 27.5801 103.4785 26.6953 Z" fill="#ffffff"/>
			<path d="M 112.6211 23.7832 C 112.4102 23.7441 112.1855 23.7246 111.9492 23.7246 C 111.1992 23.7246 110.6191 24.0059 110.2109 24.5742 C 109.8555 25.0742 109.6777 25.7061 109.6777 26.4688 L 109.6777 31.5039 L 107.5469 31.5039 L 107.5664 24.9297 C 107.5664 23.8252 107.541 22.8164 107.4863 21.9092 L 109.3438 21.9092 L 109.4219 23.7451 L 109.4805 23.7451 C 109.707 23.1143 110.0605 22.6055 110.5469 22.2246 C 111.0215 21.8809 111.5352 21.71 112.0879 21.71 C 112.2852 21.71 112.4629 21.7246 112.6211 21.749 L 112.6211 23.7832 Z" fill="#ffffff"/>
			<path d="M 122.1563 26.252 C 122.1563 26.6338 122.1309 26.9561 122.0781 27.2188 L 115.6816 27.2188 C 115.707 28.167 116.0156 28.8926 116.6094 29.3926 C 117.1484 29.8389 117.8457 30.0625 118.7031 30.0625 C 119.6484 30.0625 120.5156 29.9131 121.291 29.6094 L 121.625 31.0889 C 120.7168 31.4844 119.6465 31.6816 118.4082 31.6816 C 116.9199 31.6816 115.752 31.2441 114.9004 30.3691 C 114.0527 29.4941 113.6289 28.3184 113.6289 26.8457 C 113.6289 25.3984 114.0254 24.1934 114.8164 23.2324 C 115.6445 22.207 116.7637 21.6934 118.1699 21.6934 C 119.5527 21.6934 120.6016 22.207 121.3125 23.2324 C 121.873 24.0469 122.1563 25.0547 122.1563 26.252 ZM 120.123 25.6992 C 120.1367 25.0664 119.998 24.5215 119.709 24.0605 C 119.3398 23.4658 118.7734 23.1699 118.0098 23.1699 C 117.3125 23.1699 116.7461 23.459 116.3125 24.0391 C 115.959 24.5 115.748 25.0547 115.6816 25.6973 L 120.123 25.6992 L 120.123 25.6992 Z" fill="#ffffff"/>
		</g>
		<g>
			<path d="M 49.0498 10.0088 C 49.0498 11.186 48.6968 12.0723 47.9922 12.667 C 47.3389 13.2158 46.4111 13.4912 45.209 13.4912 C 44.6128 13.4912 44.103 13.4648 43.6758 13.4131 L 43.6758 6.9819 C 44.2329 6.8921 44.833 6.8462 45.481 6.8462 C 46.626 6.8462 47.4888 7.0947 48.0708 7.5928 C 48.7231 8.1563 49.0498 8.9609 49.0498 10.0088 ZM 47.9448 10.0381 C 47.9448 9.2749 47.7432 8.6899 47.3389 8.2822 C 46.9351 7.875 46.3452 7.6709 45.5679 7.6709 C 45.2378 7.6709 44.957 7.6929 44.7241 7.7393 L 44.7241 12.6279 C 44.853 12.6479 45.0889 12.6572 45.4321 12.6572 C 46.2339 12.6572 46.853 12.4341 47.2891 11.9878 C 47.7251 11.542 47.9448 10.8921 47.9448 10.0381 Z" fill="#ffffff"/>
			<path d="M 54.9092 11.0371 C 54.9092 11.7622 54.7021 12.356 54.2881 12.8223 C 53.854 13.3008 53.2788 13.54 52.561 13.54 C 51.8691 13.54 51.3179 13.311 50.9072 12.8511 C 50.4971 12.3921 50.292 11.813 50.292 11.1152 C 50.292 10.3848 50.5029 9.7861 50.9268 9.3208 C 51.3511 8.856 51.9209 8.623 52.6392 8.623 C 53.3311 8.623 53.8872 8.8521 54.3081 9.311 C 54.708 9.7568 54.9092 10.333 54.9092 11.0371 ZM 53.8218 11.0708 C 53.8218 10.6357 53.728 10.2632 53.541 9.9521 C 53.3208 9.5762 53.0078 9.3882 52.6011 9.3882 C 52.1802 9.3882 51.8599 9.5762 51.6401 9.9521 C 51.4521 10.2632 51.3589 10.6421 51.3589 11.0898 C 51.3589 11.5249 51.4531 11.8979 51.6401 12.209 C 51.8672 12.585 52.1831 12.7729 52.5908 12.7729 C 52.9912 12.7729 53.3052 12.582 53.5308 12.1992 C 53.7251 11.8818 53.8218 11.5059 53.8218 11.0708 Z" fill="#ffffff"/>
			<path d="M 62.7651 8.7188 L 61.29 13.4331 L 60.3301 13.4331 L 59.7192 11.3857 C 59.564 10.875 59.438 10.3672 59.3398 9.8628 L 59.3208 9.8628 C 59.23 10.3809 59.104 10.8882 58.9419 11.3857 L 58.293 13.4331 L 57.3218 13.4331 L 55.9351 8.7188 L 57.0122 8.7188 L 57.5449 10.96 C 57.6738 11.4902 57.7798 11.9951 57.8652 12.4731 L 57.8838 12.4731 C 57.9619 12.0791 58.0908 11.5771 58.2729 10.9697 L 58.9419 8.7197 L 59.7959 8.7197 L 60.437 10.9219 C 60.5918 11.459 60.7178 11.9761 60.8149 12.4741 L 60.8442 12.4741 C 60.915 11.9893 61.022 11.4722 61.1641 10.9219 L 61.7358 8.7197 L 62.7651 8.7188 L 62.7651 8.7188 Z" fill="#ffffff"/>
			<path d="M 68.1973 13.4331 L 67.1499 13.4331 L 67.1499 10.7329 C 67.1499 9.9009 66.834 9.4849 66.2002 9.4849 C 65.8892 9.4849 65.6382 9.5991 65.4429 9.8281 C 65.25 10.0571 65.1519 10.3271 65.1519 10.6357 L 65.1519 13.4321 L 64.104 13.4321 L 64.104 10.0659 C 64.104 9.6519 64.0908 9.2031 64.0659 8.7168 L 64.9868 8.7168 L 65.0361 9.4541 L 65.0649 9.4541 C 65.187 9.2251 65.3691 9.0361 65.6079 8.8848 C 65.8921 8.709 66.21 8.6201 66.5581 8.6201 C 66.998 8.6201 67.3638 8.7622 67.6548 9.0469 C 68.0176 9.396 68.1973 9.917 68.1973 10.6089 L 68.1973 13.4331 Z" fill="#ffffff"/>
			<path d="M 71.0879 13.4331 L 70.041 13.4331 L 70.041 6.5562 L 71.0879 6.5562 L 71.0879 13.4331 Z" fill="#ffffff"/>
			<path d="M 77.2578 11.0371 C 77.2578 11.7622 77.0508 12.356 76.6367 12.8223 C 76.2031 13.3008 75.627 13.54 74.9102 13.54 C 74.2168 13.54 73.666 13.311 73.2559 12.8511 C 72.8457 12.3921 72.6406 11.813 72.6406 11.1152 C 72.6406 10.3848 72.8516 9.7861 73.2754 9.3208 C 73.7012 8.856 74.2695 8.623 74.9863 8.623 C 75.6797 8.623 76.2344 8.8521 76.6582 9.311 C 77.0566 9.7568 77.2578 10.333 77.2578 11.0371 ZM 76.1699 11.0708 C 76.1699 10.6357 76.0762 10.2632 75.8887 9.9521 C 75.6699 9.5762 75.3555 9.3882 74.9512 9.3882 C 74.5273 9.3882 74.209 9.5762 73.9883 9.9521 C 73.8008 10.2632 73.709 10.6421 73.709 11.0898 C 73.709 11.5249 73.8047 11.8979 73.9883 12.209 C 74.2168 12.585 74.5332 12.7729 74.9395 12.7729 C 75.3398 12.7729 75.6523 12.582 75.8789 12.1992 C 76.0742 11.8818 76.1699 11.5059 76.1699 11.0708 Z" fill="#ffffff"/>
			<path d="M 82.3301 13.4331 L 81.3887 13.4331 L 81.3105 12.8901 L 81.2832 12.8901 C 80.9609 13.3232 80.502 13.54 79.9043 13.54 C 79.4609 13.54 79.0996 13.397 78.8301 13.1128 C 78.584 12.855 78.4609 12.5342 78.4609 12.1528 C 78.4609 11.5771 78.7012 11.1382 79.1855 10.834 C 79.666 10.5303 80.3438 10.3809 81.2168 10.3882 L 81.2168 10.2998 C 81.2168 9.6792 80.8926 9.3691 80.2383 9.3691 C 79.7734 9.3691 79.3633 9.4858 79.0088 9.7178 L 78.7949 9.0303 C 79.2324 8.7588 79.7734 8.623 80.4121 8.623 C 81.6445 8.623 82.2617 9.2729 82.2617 10.5732 L 82.2617 12.3091 C 82.2617 12.7803 82.2852 13.1553 82.3301 13.4331 ZM 81.2422 11.813 L 81.2422 11.0859 C 80.0859 11.0659 79.5078 11.3828 79.5078 12.0361 C 79.5078 12.2822 79.5742 12.4658 79.709 12.5889 C 79.8438 12.7119 80.0156 12.7729 80.2207 12.7729 C 80.4512 12.7729 80.666 12.7002 80.8613 12.5552 C 81.0586 12.4092 81.1797 12.2241 81.2246 11.9971 C 81.2363 11.9458 81.2422 11.8838 81.2422 11.813 Z" fill="#ffffff"/>
			<path d="M 88.2852 13.4331 L 87.3555 13.4331 L 87.3066 12.6758 L 87.2773 12.6758 C 86.9805 13.252 86.4746 13.54 85.7637 13.54 C 85.1953 13.54 84.7227 13.3169 84.3477 12.8711 C 83.9727 12.4248 83.7842 11.8462 83.7842 11.1348 C 83.7842 10.3721 83.9863 9.7539 84.3945 9.2822 C 84.79 8.8418 85.2734 8.6221 85.8496 8.6221 C 86.4824 8.6221 86.9258 8.835 87.1777 9.2622 L 87.1973 9.2622 L 87.1973 6.5562 L 88.2471 6.5562 L 88.2471 12.1631 C 88.248 12.6221 88.2598 13.0449 88.2852 13.4331 ZM 87.1992 11.4448 L 87.1992 10.6592 C 87.1992 10.5229 87.1895 10.4131 87.1699 10.3291 C 87.1113 10.0771 86.9844 9.8652 86.791 9.6938 C 86.5957 9.5229 86.3613 9.437 86.0898 9.437 C 85.6992 9.437 85.3926 9.5918 85.168 9.9028 C 84.9453 10.2139 84.832 10.6108 84.832 11.0962 C 84.832 11.562 84.9395 11.9399 85.1543 12.231 C 85.3809 12.541 85.6875 12.6958 86.0703 12.6958 C 86.4141 12.6958 86.6895 12.5669 86.8984 12.3081 C 87.0996 12.0688 87.1992 11.7813 87.1992 11.4448 Z" fill="#ffffff"/>
			<path d="M 97.248 11.0371 C 97.248 11.7622 97.041 12.356 96.627 12.8223 C 96.1934 13.3008 95.6191 13.54 94.9004 13.54 C 94.209 13.54 93.6582 13.311 93.2461 12.8511 C 92.8359 12.3921 92.6309 11.813 92.6309 11.1152 C 92.6309 10.3848 92.8418 9.7861 93.2656 9.3208 C 93.6895 8.856 94.2598 8.623 94.9785 8.623 C 95.6699 8.623 96.2266 8.8521 96.6465 9.311 C 97.0469 9.7568 97.248 10.333 97.248 11.0371 ZM 96.1621 11.0708 C 96.1621 10.6357 96.0684 10.2632 95.8809 9.9521 C 95.6602 9.5762 95.3477 9.3882 94.9395 9.3882 C 94.5195 9.3882 94.2012 9.5762 93.9785 9.9521 C 93.791 10.2632 93.6992 10.6421 93.6992 11.0898 C 93.6992 11.5249 93.793 11.8979 93.9785 12.209 C 94.207 12.585 94.5215 12.7729 94.9297 12.7729 C 95.3301 12.7729 95.6445 12.582 95.8711 12.1992 C 96.0645 11.8818 96.1621 11.5059 96.1621 11.0708 Z" fill="#ffffff"/>
			<path d="M 102.8828 13.4331 L 101.8359 13.4331 L 101.8359 10.7329 C 101.8359 9.9009 101.5195 9.4849 100.8848 9.4849 C 100.5742 9.4849 100.3232 9.5991 100.1289 9.8281 C 99.9355 10.0571 99.8379 10.3271 99.8379 10.6357 L 99.8379 13.4321 L 98.7891 13.4321 L 98.7891 10.0659 C 98.7891 9.6519 98.7773 9.2031 98.752 8.7168 L 99.6719 8.7168 L 99.7207 9.4541 L 99.75 9.4541 C 99.873 9.2251 100.0547 9.0361 100.293 8.8848 C 100.5781 8.709 100.8945 8.6201 101.2441 8.6201 C 101.6836 8.6201 102.0488 8.7622 102.3398 9.0469 C 102.7031 9.396 102.8828 9.917 102.8828 10.6089 L 102.8828 13.4331 Z" fill="#ffffff"/>
			<path d="M 109.9355 9.5039 L 108.7832 9.5039 L 108.7832 11.7939 C 108.7832 12.376 108.9863 12.667 109.3926 12.667 C 109.5811 12.667 109.7363 12.6509 109.8594 12.6182 L 109.8867 13.4131 C 109.6797 13.4912 109.4082 13.5303 109.0723 13.5303 C 108.6602 13.5303 108.3379 13.4038 108.1035 13.1519 C 107.8701 12.8999 107.7539 12.4761 107.7539 11.8809 L 107.7539 9.5039 L 107.0645 9.5039 L 107.0645 8.7188 L 107.7539 8.7188 L 107.7539 7.855 L 108.7813 7.5449 L 108.7813 8.7178 L 109.9355 8.7178 L 109.9355 9.5039 L 109.9355 9.5039 Z" fill="#ffffff"/>
			<path d="M 115.4844 13.4331 L 114.4355 13.4331 L 114.4355 10.7529 C 114.4355 9.9082 114.1191 9.4849 113.4863 9.4849 C 113 9.4849 112.668 9.73 112.4863 10.2197 C 112.4551 10.3242 112.4375 10.4492 112.4375 10.5972 L 112.4375 13.4321 L 111.3906 13.4321 L 111.3906 6.5562 L 112.4375 6.5562 L 112.4375 9.397 L 112.457 9.397 C 112.7871 8.8799 113.2598 8.6221 113.873 8.6221 C 114.3066 8.6221 114.666 8.7642 114.9512 9.0488 C 115.3066 9.4038 115.4844 9.9321 115.4844 10.6299 L 115.4844 13.4331 Z" fill="#ffffff"/>
			<path d="M 121.207 10.853 C 121.207 11.041 121.1934 11.1992 121.168 11.3281 L 118.0254 11.3281 C 118.0391 11.7939 118.1895 12.1489 118.4805 12.395 C 118.7461 12.6152 119.0879 12.7251 119.5078 12.7251 C 119.9746 12.7251 120.3984 12.6509 120.7793 12.502 L 120.9434 13.23 C 120.4971 13.4238 119.9707 13.521 119.3613 13.521 C 118.6318 13.521 118.0566 13.3062 117.6406 12.876 C 117.2227 12.4458 117.0156 11.8691 117.0156 11.145 C 117.0156 10.4341 117.208 9.8418 117.5977 9.3701 C 118.0029 8.8662 118.5527 8.6143 119.2451 8.6143 C 119.9229 8.6143 120.4375 8.8662 120.7861 9.3701 C 121.0684 9.77 121.207 10.2651 121.207 10.853 ZM 120.207 10.582 C 120.2148 10.271 120.1465 10.0029 120.0039 9.7769 C 119.8223 9.4858 119.5449 9.3398 119.1699 9.3398 C 118.8281 9.3398 118.5488 9.4819 118.3359 9.7671 C 118.1621 9.9941 118.0586 10.2651 118.0254 10.582 L 120.207 10.582 Z" fill="#ffffff"/>
		</g>
	</g>
</svg>