<?xml version="1.0" standalone="no"?>
<!-- Generator: Adobe Fireworks 10, Export SVG Extension by Aaron Beall (http://fireworks.abeall.com) . Version: 0.6.1  -->
<!DOCTYPE svg PUBLIC "-//W3C//DTD SVG 1.1//EN" "http://www.w3.org/Graphics/SVG/1.1/DTD/svg11.dtd">
<svg id="Untitled-Page%201" viewBox="0 0 135 40" style="background-color:#ffffff00" version="1.1"
	xmlns="http://www.w3.org/2000/svg" xmlns:xlink="http://www.w3.org/1999/xlink" xml:space="preserve"
	x="0px" y="0px" width="135px" height="40px"
>
	<defs>
		<linearGradient id="gradient1" x1="60.0942%" y1="91.9735%" x2="33.4966%" y2="-59.2442%">
			<stop stop-color="#d6e59c" stop-opacity="1" offset="1%"/>
			<stop stop-color="#93c3a9" stop-opacity="1" offset="44%"/>
			<stop stop-color="#00a3b5" stop-opacity="1" offset="99%"/>
		</linearGradient>
		<linearGradient id="gradient2" x1="-31.9745%" y1="-128.7886%" x2="80.449%" y2="114.2679%">
			<stop stop-color="#ed2e7b" stop-opacity="1" offset="1%"/>
			<stop stop-color="#f6bc80" stop-opacity="1" offset="70%"/>
			<stop stop-color="#fdea73" stop-opacity="1" offset="99%"/>
		</linearGradient>
		<linearGradient id="gradient3" x1="50.8964%" y1="74.718%" x2="-0.02%" y2="-29.4339%">
			<stop stop-color="#88cebc" stop-opacity="1" offset="1%"/>
			<stop stop-color="#7cbdba" stop-opacity="1" offset="9%"/>
			<stop stop-color="#447bab" stop-opacity="1" offset="53%"/>
			<stop stop-color="#1b59a1" stop-opacity="1" offset="85%"/>
			<stop stop-color="#074c9e" stop-opacity="1" offset="99%"/>
		</linearGradient>
		<linearGradient id="gradient4" x1="119.3005%" y1="35.6732%" x2="-22.9873%" y2="61.1797%">
			<stop stop-color="#ef492a" stop-opacity="1" offset="1%"/>
			<stop stop-color="#b44e6a" stop-opacity="1" offset="47%"/>
			<stop stop-color="#8a5090" stop-opacity="1" offset="83%"/>
			<stop stop-color="#7750a0" stop-opacity="1" offset="99%"/>
		</linearGradient>
	</defs>
	<g id="gplay">
		<path d="M 135 0 L 135 40 L 0 40 L 0 0 L 135 0 Z" fill="#000000"/>
		<g>
			<path d="M 86.9568 28.7125 L 86.0766 29.5385 C 85.8745 29.6496 85.6724 29.7809 85.4704 29.8716 C 84.8614 30.1478 84.2403 30.2169 83.6897 30.2169 C 83.1024 30.2169 82.183 30.179 81.2458 29.502 C 79.9411 28.5853 79.3715 27.0105 79.3715 25.6361 C 79.3715 22.7926 81.6907 21.3993 83.5812 21.3993 C 84.2417 21.3993 84.9211 21.5644 85.4731 21.9124 C 86.3912 22.5177 86.6286 23.3058 86.7601 23.7269 L 82.442 25.4696 L 81.0261 25.5792 C 81.4845 27.9096 83.0658 29.265 84.8099 29.265 C 85.6819 29.265 86.3302 28.982 86.9229 28.6882 C 86.9229 28.6895 87.0422 28.6272 86.9568 28.7125 ZM 84.3515 24.0749 C 84.7014 23.9476 84.8845 23.8379 84.8845 23.582 C 84.8845 22.8495 84.0545 22.0059 83.0645 22.0059 C 82.3308 22.0059 80.9529 22.5746 80.9529 24.5569 C 80.9529 24.8657 80.9895 25.1947 81.0085 25.5251 L 84.3515 24.0749 Z" fill="#ffffff"/>
			<path d="M 77.9286 28.569 C 77.9286 29.2826 78.056 29.3923 78.6595 29.4492 C 78.9742 29.4871 79.2875 29.502 79.5994 29.5412 L 78.9199 29.9434 L 75.684 29.9434 C 76.1085 29.3936 76.1804 29.3395 76.1804 28.9739 L 76.1804 28.5636 L 76.1736 17.661 L 74.7442 17.661 L 76.1194 16.9989 L 78.745 16.9989 C 78.1767 17.3279 78.0059 17.5277 77.9313 18.1688 L 77.9286 28.569 Z" fill="#ffffff"/>
			<path d="M 72.9093 22.2983 C 73.3297 22.645 74.2112 23.3789 74.2112 24.7722 C 74.2112 26.129 73.4436 26.7708 72.6706 27.3774 C 72.4332 27.6157 72.1566 27.8744 72.1566 28.2752 C 72.1566 28.68 72.4332 28.8994 72.6339 29.0646 L 73.2985 29.5751 C 74.1027 30.2548 74.8391 30.879 74.8391 32.1451 C 74.8391 33.8688 73.1683 35.6088 70.0083 35.6088 C 67.3461 35.6088 66.0591 34.3441 66.0591 32.9873 C 66.0591 32.3265 66.3887 31.3909 67.475 30.7491 C 68.6142 30.0544 70.1562 29.961 70.9835 29.9082 C 70.7244 29.5751 70.4301 29.2271 70.4301 28.6584 C 70.4301 28.3469 70.5251 28.1614 70.6146 27.9434 C 70.4138 27.9624 70.2118 27.9841 70.0273 27.9841 C 68.0785 27.9841 66.9759 26.5298 66.9759 25.1026 C 66.9759 24.259 67.3624 23.3234 68.1531 22.645 C 69.2001 21.7838 70.4491 21.6349 71.4391 21.6349 L 75.2243 21.6349 L 74.0498 22.2983 L 72.9093 22.2983 L 72.9093 22.2983 ZM 71.6073 30.4403 C 71.4568 30.4214 71.3659 30.4214 71.1855 30.4214 C 71.0187 30.4214 70.0273 30.4579 69.2584 30.7152 C 68.8529 30.8641 67.677 31.3029 67.677 32.6055 C 67.677 33.9054 68.9464 34.8437 70.9075 34.8437 C 72.6719 34.8437 73.6091 33.9988 73.6091 32.8641 C 73.6077 31.9257 73.0015 31.4315 71.6073 30.4403 ZM 72.1349 26.955 C 72.5607 26.5311 72.5973 25.9475 72.5973 25.6158 C 72.5973 24.2969 71.8094 22.2428 70.2823 22.2428 C 69.8063 22.2428 69.2909 22.4811 68.9966 22.8495 C 68.6874 23.2327 68.5952 23.7282 68.5952 24.2035 C 68.5952 25.4316 69.3113 27.4695 70.8885 27.4695 C 71.3496 27.4695 71.8446 27.2447 72.1349 26.955 Z" fill="#ffffff"/>
			<path d="M 61.5213 30.1817 C 58.6014 30.1817 57.0404 27.9109 57.0404 25.8568 C 57.0404 23.4547 59.0041 21.3993 61.7966 21.3993 C 64.4967 21.3993 66.1879 23.5102 66.1879 25.7255 C 66.1879 27.8893 64.5171 30.1817 61.5213 30.1817 ZM 63.8186 28.6963 C 64.2635 28.11 64.3706 27.3788 64.3706 26.6638 C 64.3706 25.0484 63.599 21.968 61.3205 21.968 C 60.7157 21.968 60.1054 22.2049 59.666 22.5908 C 58.9472 23.2327 58.8211 24.0383 58.8211 24.8291 C 58.8211 26.6408 59.7175 29.6306 61.9444 29.6306 C 62.6632 29.6306 63.3955 29.284 63.8186 28.6963 Z" fill="#ffffff"/>
			<path d="M 51.7458 30.1817 C 48.8259 30.1817 47.2669 27.9109 47.2669 25.8568 C 47.2669 23.4547 49.232 21.3993 52.0238 21.3993 C 54.7226 21.3993 56.4111 23.5102 56.4111 25.7255 C 56.4111 27.8893 54.743 30.1817 51.7458 30.1817 ZM 54.0438 28.6963 C 54.4839 28.11 54.5945 27.3788 54.5945 26.6638 C 54.5945 25.0484 53.8221 21.968 51.5457 21.968 C 50.9381 21.968 50.334 22.2049 49.8932 22.5908 C 49.1744 23.2327 49.0483 24.0383 49.0483 24.8291 C 49.0483 26.6408 49.9474 29.6306 52.1703 29.6306 C 52.8884 29.6306 53.62 29.284 54.0438 28.6963 Z" fill="#ffffff"/>
			<path d="M 46.0999 29.5453 L 43.6371 30.1072 C 42.6396 30.2656 41.7438 30.4038 40.7951 30.4038 C 36.0457 30.4038 34.2359 26.913 34.2359 24.1805 C 34.2359 20.8441 36.7998 17.7517 41.1911 17.7517 C 42.1195 17.7517 43.0139 17.8872 43.8283 18.1085 C 45.118 18.4708 45.7229 18.9176 46.0999 19.1789 L 44.6684 20.5367 L 44.0656 20.6694 L 44.4948 19.9856 C 43.913 19.4186 42.8423 18.3692 40.8107 18.3692 C 38.0936 18.3692 36.0444 20.4297 36.0444 23.4412 C 36.0444 26.6733 38.3852 29.7159 42.1371 29.7159 C 43.2397 29.7159 43.8079 29.4938 44.3219 29.288 L 44.3219 26.5163 L 41.7221 26.6557 L 43.1007 25.9164 L 46.7488 25.9164 L 46.302 26.3456 C 46.1813 26.4485 46.1664 26.4824 46.1325 26.6205 C 46.1141 26.7776 46.0972 27.2745 46.0972 27.4492 L 46.0972 29.5453 L 46.0999 29.5453 L 46.0999 29.5453 Z" fill="#ffffff"/>
		</g>
		<g>
			<path d="M 92.2514 28.7911 L 92.2514 33.4612 L 91.3224 33.4612 L 91.3224 21.5753 L 92.2514 21.5753 L 92.2514 22.928 C 92.8562 22.0533 93.9615 21.36 95.2459 21.36 C 97.5487 21.36 99.1029 23.1054 99.1029 25.8663 C 99.1029 28.611 97.55 30.3916 95.2459 30.3916 C 94.0348 30.3929 92.9485 29.7687 92.2514 28.7911 ZM 98.1047 25.8677 C 98.1047 23.7865 97.0184 22.1981 95.0899 22.1981 C 93.8924 22.1981 92.7491 23.1379 92.2514 23.9557 L 92.2514 27.7606 C 92.7491 28.5812 93.8924 29.5548 95.0899 29.5548 C 97.0184 29.5548 98.1047 27.9543 98.1047 25.8677 Z" fill="#ffffff"/>
			<path d="M 100.3709 30.1803 L 100.3709 18.2947 L 101.3013 18.2947 L 101.3013 30.1803 L 100.3709 30.1803 Z" fill="#ffffff"/>
			<path d="M 111.725 32.6935 C 111.923 32.7815 112.2621 32.837 112.4777 32.837 C 113.0446 32.837 113.442 32.6041 113.796 31.7836 L 114.4754 30.2508 L 110.815 21.5753 L 111.8512 21.5753 L 114.9908 29.0944 L 118.1005 21.5753 L 119.1516 21.5753 L 114.687 32.0706 C 114.2245 33.1539 113.4949 33.6738 112.494 33.6738 C 112.1929 33.6738 111.7983 33.6197 111.5664 33.5479 L 111.725 32.6935 Z" fill="#ffffff"/>
			<path d="M 109.0113 30.1533 C 108.9489 29.854 108.9028 29.5913 108.8689 29.372 C 108.8404 29.154 108.8255 28.9278 108.8255 28.7004 C 108.5068 29.1689 108.0552 29.5561 107.4801 29.8635 C 106.9024 30.1695 106.3545 30.3225 105.6018 30.3225 C 104.6972 30.3225 103.9961 30.1005 103.4929 29.6482 C 102.9938 29.1986 102.7416 28.5866 102.7416 27.8148 C 102.7416 27.043 103.1064 26.4161 103.832 25.9394 C 104.5589 25.4574 105.496 25.2204 106.6583 25.2204 L 108.8255 25.2204 L 108.8255 24.1494 C 108.8255 23.5333 108.6139 23.0499 108.1949 22.6978 C 107.7744 22.3457 107.1818 22.1697 106.4155 22.1697 C 105.7144 22.1697 105.1461 22.3308 104.7148 22.6477 C 104.2863 22.97 104.0693 23.3694 104.0693 23.8515 L 103.1186 23.8515 L 103.0996 23.8054 C 103.0657 23.1555 103.3627 22.5854 103.9961 22.0939 C 104.6253 21.601 105.4526 21.3546 106.4698 21.3546 C 107.4801 21.3546 108.3006 21.5997 108.9191 22.0831 C 109.5361 22.5637 109.8454 23.2597 109.8454 24.1697 L 109.8454 28.4133 C 109.8454 28.718 109.8603 29.0118 109.8982 29.2988 C 109.9389 29.5873 110 29.873 110.084 30.1519 L 109.0113 30.1533 L 109.0113 30.1533 ZM 105.7144 29.4776 C 106.5037 29.4776 107.0706 29.3016 107.651 28.9536 C 108.226 28.6069 108.6193 28.1574 108.8241 27.6103 L 108.8241 25.957 L 106.6461 25.957 C 105.8147 25.957 105.1271 26.1412 104.5833 26.5122 C 104.0422 26.8805 103.7655 27.3287 103.7655 27.85 C 103.7655 28.3402 103.9405 28.7315 104.2863 29.0294 C 104.6348 29.3286 105.1095 29.4776 105.7144 29.4776 Z" fill="#ffffff"/>
		</g>
		<g>
			<path d="M 34.2745 8.5441 C 34.2745 6.7175 35.6341 5.5429 37.3239 5.5429 C 38.4564 5.5429 39.1975 6.0824 39.6586 6.7432 L 38.832 7.2212 C 38.5174 6.7872 37.9681 6.448 37.3239 6.448 C 36.1739 6.448 35.3202 7.3173 35.3202 8.5435 C 35.3202 9.7533 36.1739 10.6402 37.3239 10.6402 C 37.9166 10.6402 38.4387 10.3701 38.7005 10.1189 L 38.7005 9.2225 L 36.9578 9.2225 L 36.9578 8.3261 L 39.7108 8.3261 L 39.7108 10.4926 C 39.1446 11.1277 38.3255 11.5542 37.3233 11.5542 C 35.6341 11.5542 34.2745 10.3626 34.2745 8.5441 Z" fill="#ffffff"/>
			<path d="M 40.9721 11.4411 L 40.9721 5.6383 L 44.9539 5.6383 L 44.9539 6.5347 L 41.992 6.5347 L 41.992 8.0303 L 44.8929 8.0303 L 44.8929 8.926 L 41.992 8.926 L 41.992 10.5441 L 44.9539 10.5441 L 44.9539 11.4405 L 40.9721 11.4411 L 40.9721 11.4411 Z" fill="#ffffff"/>
			<path d="M 47.7748 11.4411 L 47.7748 6.5347 L 46.0145 6.5347 L 46.0145 5.6397 L 50.5537 5.6397 L 50.5537 6.5347 L 48.7933 6.5347 L 48.7933 11.4411 L 47.7748 11.4411 Z" fill="#ffffff"/>
			<path d="M 54.0961 11.4411 L 54.0961 5.6383 L 55.1152 5.6383 L 55.1152 11.4411 L 54.0961 11.4411 Z" fill="#ffffff"/>
			<path d="M 57.9531 11.4411 L 57.9531 6.5347 L 56.1941 6.5347 L 56.1941 5.6397 L 60.7319 5.6397 L 60.7319 6.5347 L 58.9729 6.5347 L 58.9729 11.4411 L 57.9531 11.4411 Z" fill="#ffffff"/>
			<path d="M 64.0234 8.5441 C 64.0234 6.813 65.2508 5.5429 66.9935 5.5429 C 68.7267 5.5429 69.9636 6.813 69.9636 8.5441 C 69.9636 10.2753 68.7267 11.5454 66.9935 11.5454 C 65.2508 11.5454 64.0234 10.2753 64.0234 8.5441 ZM 68.9193 8.5441 C 68.9193 7.3444 68.1612 6.448 66.9949 6.448 C 65.819 6.448 65.0704 7.3444 65.0704 8.5441 C 65.0704 9.7364 65.819 10.6402 66.9949 10.6402 C 68.1612 10.6402 68.9193 9.7364 68.9193 8.5441 Z" fill="#ffffff"/>
			<path d="M 75.2053 11.4411 L 72.1742 7.2916 L 72.1742 11.4411 L 71.1557 11.4411 L 71.1557 5.6383 L 72.2013 5.6383 L 75.17 9.6572 L 75.17 5.6383 L 76.1913 5.6383 L 76.1913 11.4411 L 75.2053 11.4411 Z" fill="#ffffff"/>
		</g>
		<g>
			<path d="M 22.1033 25.3843 L 25.0842 22.4094 L 25.0836 22.4094 L 22.1033 25.3843 L 12.5909 15.8865 L 12.5909 15.8865 L 22.1033 25.3856 L 12.5753 34.8979 L 12.5753 34.8979 L 22.1033 25.3856 L 25.0978 28.374 L 25.0992 28.374 L 22.1033 25.3843 Z" fill="none"/>
			<path d="M 25.0836 22.4094 L 13.4697 16.0328 C 13.1415 15.8534 12.8364 15.8114 12.5909 15.8872 L 22.104 25.3843 L 25.0836 22.4094 Z" fill="url(#gradient1)"/>
			<path d="M 25.0992 28.374 L 29.0633 26.1967 C 29.8676 25.7526 29.8676 25.0322 29.0633 24.5921 L 25.0842 22.4094 L 22.104 25.3843 L 25.0992 28.374 Z" fill="url(#gradient2)"/>
			<path d="M 12.5909 15.8865 C 12.2376 15.9969 12.0091 16.3544 12.0091 16.8946 L 12.0105 33.8945 C 12.0105 34.4294 12.2329 34.7801 12.5753 34.8979 L 22.104 25.3843 L 12.5909 15.8865 Z" fill="url(#gradient3)"/>
			<path d="M 12.5753 34.8979 C 12.8228 34.9818 13.1334 34.9412 13.4697 34.7584 L 25.0978 28.374 L 22.104 25.3856 L 12.5753 34.8979 Z" fill="url(#gradient4)"/>
		</g>
	</g>
</svg>