<?xml version="1.0" standalone="no"?>
<!-- Generator: Adobe Fireworks 10, Export SVG Extension by Aaron Beall (http://fireworks.abeall.com) . Version: 0.6.1  -->
<!DOCTYPE svg PUBLIC "-//W3C//DTD SVG 1.1//EN" "http://www.w3.org/Graphics/SVG/1.1/DTD/svg11.dtd">
<svg id="Icons.fw-Page%201" viewBox="0 0 39 39" style="background-color:#ffffff00" version="1.1"
	xmlns="http://www.w3.org/2000/svg" xmlns:xlink="http://www.w3.org/1999/xlink" xml:space="preserve"
	x="0px" y="0px" width="39px" height="39px"
>
	<g>
		<path id="Ellipse" d="M 0 22.0143 C 0 13.738 6.9937 7.0288 15.6209 7.0288 C 24.2484 7.0288 31.242 13.738 31.242 22.0143 C 31.242 30.2908 24.2484 37 15.6209 37 C 6.9937 37 0 30.2908 0 22.0143 Z" fill="#555555"/>
		<path d="M 12.9787 21.9137 C 10.6625 21.9137 8.785 23.7148 8.785 25.9369 L 8.785 28.7528 C 8.785 28.8887 8.7923 29.0228 8.806 29.1553 L 22.8125 29.1553 C 22.8261 29.0228 22.8335 28.8887 22.8335 28.7528 L 22.8335 25.9369 C 22.8335 23.7148 20.956 21.9137 18.64 21.9137 L 12.9787 21.9137 ZM 11.7205 17.1869 C 11.7205 19.3531 13.5511 21.1091 15.8092 21.1091 C 18.0674 21.1091 19.8979 19.3531 19.8979 17.1869 C 19.8979 15.0205 18.0674 13.2643 15.8092 13.2643 C 13.5511 13.2643 11.7205 15.0205 11.7205 17.1869 Z" fill="#ffffff"/>
		<path id="Ellipse2" d="M 23.0646 9.6438 C 23.0646 5.4221 26.6318 2 31.0323 2 C 35.4327 2 39 5.4221 39 9.6438 C 39 13.8651 35.4327 17.2874 31.0323 17.2874 C 26.6318 17.2874 23.0646 13.8651 23.0646 9.6438 Z" fill="#ca0000"/>
		<path d="M 34.5185 6.2993 C 34.2617 6.053 33.8306 6.0673 33.5556 6.3312 L 31.0323 8.7516 L 28.5089 6.3312 C 28.2339 6.0673 27.8029 6.053 27.5461 6.2993 C 27.2895 6.5455 27.3043 6.9592 27.5793 7.223 L 30.1024 9.6438 L 27.5793 12.0643 C 27.3043 12.3281 27.2895 12.7418 27.5461 12.988 C 27.8029 13.2344 28.2339 13.22 28.5089 12.9562 L 31.0323 10.5359 L 33.5556 12.9562 C 33.8306 13.22 34.2617 13.2344 34.5185 12.988 C 34.7751 12.7418 34.7602 12.3281 34.4853 12.0643 L 31.9622 9.6438 L 34.4853 7.223 C 34.7602 6.9592 34.7751 6.5455 34.5185 6.2993 Z" fill="#ffffff"/>
	</g>
</svg>