<?xml version="1.0" standalone="no"?>
<!-- Generator: Adobe Fireworks 10, Export SVG Extension by Aaron Beall (http://fireworks.abeall.com) . Version: 0.6.1  -->
<!DOCTYPE svg PUBLIC "-//W3C//DTD SVG 1.1//EN" "http://www.w3.org/Graphics/SVG/1.1/DTD/svg11.dtd">
<svg id="Icons.fw-back-to-myaccount" viewBox="0 0 13 11" style="background-color:#ffffff00" version="1.1"
	xmlns="http://www.w3.org/2000/svg" xmlns:xlink="http://www.w3.org/1999/xlink" xml:space="preserve"
	x="0px" y="0px" width="13px" height="11px"
>
	<path id="base" d="M 13 7 L 13 4 L 6 4 L 6 0 L 5 0 L 5 1 L 4 1 L 4 2 L 3 2 L 3 3 L 2 3 L 2 4 L 1 4 L 1 5 L 0 5 L 0 6 L 1 6 L 1 7 L 2 7 L 2 8 L 3 8 L 3 9 L 4 9 L 4 10 L 5 10 L 5 11 L 6 11 L 6 7 L 13 7 Z" fill="#ffffff"/>
</svg>