<?xml version="1.0" standalone="no"?>
<!-- Generator: Adobe Fireworks 10, Export SVG Extension by Aaron Beall (http://fireworks.abeall.com) . Version: 0.6.1  -->
<!DOCTYPE svg PUBLIC "-//W3C//DTD SVG 1.1//EN" "http://www.w3.org/Graphics/SVG/1.1/DTD/svg11.dtd">
<svg id="Icons.fw-bills" viewBox="0 0 25 25" style="background-color:#ffffff00" version="1.1"
	xmlns="http://www.w3.org/2000/svg" xmlns:xlink="http://www.w3.org/1999/xlink" xml:space="preserve"
	x="0px" y="0px" width="25px" height="25px"
>
	<g id="Layer%2012">
		<path id="base46" d="M 20.6615 15.7566 C 18.8184 15.7566 17.3235 17.2498 17.3235 19.0913 C 17.3235 20.9329 18.8184 22.426 20.6615 22.426 C 22.5056 22.426 24 20.9329 24 19.0913 C 24 17.2498 22.5056 15.7566 20.6615 15.7566 ZM 20.3542 20.6104 L 18.8558 19.146 L 19.5798 18.5107 L 20.3826 19.3606 L 22.0355 17.7092 L 22.6813 18.3445 L 20.3542 20.6104 ZM 12.2156 17.3469 L 12.2156 18.3674 L 16.2006 18.3674 C 16.2814 17.9492 16.2006 17.6787 16.2006 17.3469 L 12.2156 17.3469 ZM 12.2156 19.8979 L 12.2156 20.9185 L 16.2974 20.9185 C 16.1338 20.5491 16.3533 20.3125 16.2974 19.8979 L 12.2156 19.8979 ZM 17.8342 15.8003 L 17.8342 14.7959 L 12.2156 14.7959 L 12.2156 15.8164 L 17.479 15.8164 C 17.5834 15.7346 17.723 15.8726 17.8342 15.8003 ZM 19.4823 23.4695 L 3.5323 23.4695 L 3.5323 8.6735 L 10.6832 8.6735 L 10.6832 1.5306 L 19.8773 1.5306 L 19.8773 14.7959 L 21.4097 14.7959 L 21.4097 0 L 9.328 0 L 2 7.233 L 2 25 L 21.4097 25 L 21.4097 23.4695 L 19.4823 23.4695 ZM 8.1294 20.9185 L 8.1294 19.7371 C 9.4617 19.5063 10.3326 18.7969 10.3326 17.7668 C 10.3326 16.7251 9.7765 16.0889 8.3977 15.6025 C 7.4131 15.2324 7.0066 14.9888 7.0066 14.6071 C 7.0066 14.2832 7.2405 13.9584 7.9932 13.9584 C 8.8278 13.9584 9.361 14.225 9.6617 14.3519 L 9.6617 13.0446 C 9.2802 12.8588 8.7589 12.6973 7.9822 12.6625 L 8.1294 11.7347 L 7.1078 11.7347 L 7.1078 12.8344 C 5.8683 13.0775 5.1495 13.7855 5.1495 14.8033 C 5.1495 15.9265 6.0797 16.5054 7.3193 16.9219 C 8.1772 17.2114 8.5474 17.489 8.5474 17.929 C 8.5474 18.3918 8.0959 18.6465 7.4355 18.6465 C 6.6819 18.6465 5.9989 18.4038 5.5116 18.1372 L 5.137 19.4915 C 5.5785 19.7461 6.3312 19.9548 7.1078 19.9893 L 7.1078 20.9185 L 8.1294 20.9185 ZM 17.8342 5.1021 L 12.2156 5.1021 L 12.2156 6.1224 L 17.8342 6.1224 L 17.8342 5.1021 ZM 17.8342 12.2449 L 12.2156 12.2449 L 12.2156 13.2653 L 17.8342 13.2653 L 17.8342 12.2449 ZM 17.8342 7.6531 L 12.2156 7.6531 L 12.2156 8.6735 L 17.8342 8.6735 L 17.8342 7.6531 Z" fill="#ffffff"/>
	</g>
</svg>