<?xml version="1.0" standalone="no"?>
<!-- Generator: Adobe Fireworks 10, Export SVG Extension by Aaron Beall (http://fireworks.abeall.com) . Version: 0.6.1  -->
<!DOCTYPE svg PUBLIC "-//W3C//DTD SVG 1.1//EN" "http://www.w3.org/Graphics/SVG/1.1/DTD/svg11.dtd">
<svg id="Icons.fw-bill-pay" viewBox="0 0 25 25" style="background-color:#ffffff00" version="1.1"
	xmlns="http://www.w3.org/2000/svg" xmlns:xlink="http://www.w3.org/1999/xlink" xml:space="preserve"
	x="0px" y="0px" width="25px" height="25px"
>
	<g id="bill-pay">
		<path d="M 12.1621 11 L 18.2433 11 L 18.2433 11.6667 L 12.1621 11.6667 L 12.1621 11 ZM 12.1621 9 L 20.2703 9 L 20.2703 9.6667 L 12.1621 9.6667 L 12.1621 9 ZM 12.1621 7 L 18.2433 7 L 18.2433 7.6667 L 12.1621 7.6667 L 12.1621 7 ZM 12.1621 5 L 18.2433 5 L 18.2433 5.6667 L 12.1621 5.6667 L 12.1621 5 ZM 20.2703 3.6667 L 24.3243 7.6667 L 20.2703 7.6667 L 20.2703 3.6667 ZM 10.1351 3 L 10.1351 14.9947 C 11.3268 15.1823 12.1621 15.6276 12.1621 17 C 12.1621 17.5123 11.9921 18.1594 11.3007 18.3333 C 11.9921 18.5579 12.1621 18.8157 12.1621 19.6667 L 25 19.6667 L 25 7 L 20.9459 3 L 10.1351 3 ZM 17.7617 18.4442 L 13.958 14.3049 L 15.1998 12.9854 L 17.6191 14.5042 L 22.6509 10.4406 L 24.036 11.9485 L 17.7617 18.4442 ZM 6.0811 17 C 6.0811 17.7364 7.2911 18.3333 8.7838 18.3333 C 10.2764 18.3333 11.4865 17.7364 11.4865 17 C 11.4865 16.2636 10.2764 15.6667 8.7838 15.6667 C 7.2911 15.6667 6.0811 16.2636 6.0811 17 ZM 6.0811 19.6667 C 6.0811 20.403 7.2911 21 8.7838 21 C 10.2764 21 11.4865 20.403 11.4865 19.6667 C 11.4865 19.4238 11.355 19.1961 11.125 19 C 10.6576 19.3986 9.7842 19.6667 8.7838 19.6667 C 7.7833 19.6667 6.9098 19.3986 6.4425 19 C 6.2125 19.1961 6.0811 19.4238 6.0811 19.6667 ZM 1.3513 10.3333 C 1.3513 11.0697 2.5614 11.6667 4.0541 11.6667 C 5.5468 11.6667 6.7567 11.0697 6.7567 10.3333 C 6.7567 9.597 5.5468 9 4.0541 9 C 2.5614 9 1.3513 9.597 1.3513 10.3333 ZM 5.4054 13 C 5.4054 12.9417 5.3964 12.883 5.3817 12.8267 C 4.9893 12.9362 4.5371 13 4.0541 13 C 2.6796 13 1.5461 12.4951 1.375 11.84 C 0.5548 12.0689 0 12.502 0 13 C 0 13.7364 1.2101 14.3333 2.7028 14.3333 C 4.1953 14.3333 5.4054 13.7364 5.4054 13 ZM 0.6757 15.6667 C 0.6757 16.403 1.8857 17 3.3784 17 C 4.2509 17 5.0261 16.7965 5.5203 16.48 C 5.6311 16.2359 5.817 16.0111 6.0642 15.8133 C 6.0747 15.7654 6.0811 15.7159 6.0811 15.6667 C 6.0811 15.2982 5.7771 14.9647 5.2871 14.7233 C 4.9492 15.2695 3.9204 15.6667 2.7028 15.6667 C 1.957 15.6667 1.2828 15.5175 0.7938 15.2767 C 0.7175 15.4 0.6757 15.5311 0.6757 15.6667 ZM 6.0811 18.3333 C 6.0811 18.2841 6.0747 18.2346 6.0642 18.1866 C 5.8905 18.0475 5.7469 17.8932 5.6385 17.73 C 5.1553 18.0925 4.3235 18.3333 3.3784 18.3333 C 2.3779 18.3333 1.5044 18.0652 1.0371 17.6667 C 0.8071 17.8628 0.6757 18.0905 0.6757 18.3333 C 0.6757 19.0697 1.8857 19.6667 3.3784 19.6667 C 4.2509 19.6667 5.0261 19.4632 5.5203 19.1467 C 5.6311 18.9026 5.817 18.6778 6.0642 18.48 C 6.0747 18.4321 6.0811 18.3826 6.0811 18.3333 Z" fill="#ffffff"/>
	</g>
</svg>