<?xml version="1.0" standalone="no"?>
<!-- Generator: Adobe Fireworks 10, Export SVG Extension by Aaron Beall (http://fireworks.abeall.com) . Version: 0.6.1  -->
<!DOCTYPE svg PUBLIC "-//W3C//DTD SVG 1.1//EN" "http://www.w3.org/Graphics/SVG/1.1/DTD/svg11.dtd">
<svg id="Icons.fw-collapse-widget" viewBox="0 0 25 25" style="background-color:#ffffff00" version="1.1"
	xmlns="http://www.w3.org/2000/svg" xmlns:xlink="http://www.w3.org/1999/xlink" xml:space="preserve"
	x="0px" y="0px" width="25px" height="25px"
>
	<g id="Layer%20165">
		<g>
			<path id="Ellipse2" d="M 1.5 12.5 C 1.5 6.7009 6.2009 2 12 2 C 17.7991 2 22.5 6.7009 22.5 12.5 C 22.5 18.2991 17.7991 23 12 23 C 6.2009 23 1.5 18.2991 1.5 12.5 Z" stroke="#84bfff" stroke-width="1" fill="none"/>
			<path d="M 17.6322 11.0779 C 17.8033 11.2903 17.7373 11.5778 17.4822 11.7527 L 12.5682 15.126 C 12.3975 15.2376 12.3146 15.3637 12.0006 15.3637 C 11.6869 15.3637 11.6025 15.2376 11.4318 15.126 L 6.5178 11.7527 C 6.2627 11.5778 6.1967 11.2903 6.3678 11.0779 C 6.5216 10.8867 6.8873 10.8451 7.1426 11.0198 L 12.0006 14.3793 L 16.8574 11.0198 C 17.1127 10.8451 17.4784 10.8867 17.6322 11.0779 Z" fill="#84bfff"/>
		</g>
	</g>
</svg>