<?xml version="1.0" standalone="no"?>
<!-- Generator: Adobe Fireworks 10, Export SVG Extension by Aaron Beall (http://fireworks.abeall.com) . Version: 0.6.1  -->
<!DOCTYPE svg PUBLIC "-//W3C//DTD SVG 1.1//EN" "http://www.w3.org/Graphics/SVG/1.1/DTD/svg11.dtd">
<svg id="Icons.fw-domestic-airtime-top-up" viewBox="0 0 25 25" style="background-color:#ffffff00" version="1.1"
	xmlns="http://www.w3.org/2000/svg" xmlns:xlink="http://www.w3.org/1999/xlink" xml:space="preserve"
	x="0px" y="0px" width="25px" height="25px"
>
	<g id="domestic-airtime-top-up">
		<path id="color4" d="M 9.3137 14.3254 L 4.3113 14.3317 C 3.5548 13.8936 2.8823 13.3167 2.3407 12.6034 L 9.2985 12.5977 L 9.2985 10.6821 L 1.3358 10.6851 C 1.16 10.1542 1.0399 9.5797 0.9854 8.9591 L 9.306 8.9619 L 9.2985 7.0388 L 7.2603 7.0388 L 7.2603 5.3116 L 9.3137 5.3035 L 9.3938 4.2712 C 9.3938 3.9767 9.479 3.6323 9.6047 3.3879 L 7.2603 3.3924 L 7.2603 1.6653 L 11.6715 1.6659 C 12.1245 1.8679 12.5557 2.1136 12.9558 2.4038 L 14.4363 2.4038 C 12.833 0.7989 10.5687 0 8.3334 0 C 4.2167 0 0 2.7093 0 8.1731 C 0 13.6368 4.2167 16.3462 8.3334 16.3462 C 8.4967 16.3462 9.1504 16.3427 9.3137 16.3341 L 9.3137 14.3254 ZM 3.3566 4.597 L 3.9873 2.6193 L 4.6179 4.597 L 6.6598 4.597 L 5.0078 5.819 L 5.6396 7.7973 L 3.9873 6.5746 L 2.3353 7.7973 L 2.9672 5.819 L 1.3148 4.597 L 3.3566 4.597 Z" fill="#ff8888"/>
		<path id="base4" d="M 24.1613 3.3654 L 11.1062 3.3654 C 10.6589 3.3654 10.2941 3.8533 10.2941 4.2795 L 10.2941 24.226 C 10.2941 24.6524 10.6589 25 11.1062 25 L 24.1879 25 C 24.6351 25 25 24.6524 25 24.226 L 25 4.2795 C 25 3.8533 24.6351 3.3654 24.1879 3.3654 L 24.1613 3.3654 ZM 17.6648 24.4009 C 16.9188 24.4009 16.3108 23.8212 16.3108 23.1106 C 16.3108 22.3998 16.9188 21.8203 17.6648 21.8203 C 18.4105 21.8203 19.0188 22.3998 19.0188 23.1106 C 19.0188 23.8212 18.4105 24.4009 17.6648 24.4009 ZM 23.5294 20.4164 C 23.5294 20.822 23.1812 21.1538 22.7557 21.1538 L 12.5385 21.1538 C 12.1129 21.1538 11.7646 20.822 11.7646 20.4164 L 11.7646 5.5452 C 11.7646 5.1396 12.1129 4.8077 12.5385 4.8077 L 22.7557 4.8077 C 23.1812 4.8077 23.5294 5.1396 23.5294 5.5452 L 23.5294 20.4164 ZM 13.2354 19.7115 L 22.0588 19.7115 L 22.0588 6.25 L 13.2354 6.25 L 13.2354 19.7115 Z" fill="#ffffff"/>
	</g>
</svg>