<?xml version="1.0" standalone="no"?>
<!-- Generator: Adobe Fireworks 10, Export SVG Extension by Aaron Beall (http://fireworks.abeall.com) . Version: 0.6.1  -->
<!DOCTYPE svg PUBLIC "-//W3C//DTD SVG 1.1//EN" "http://www.w3.org/Graphics/SVG/1.1/DTD/svg11.dtd">
<svg id="Icons.fw-expand-alt" viewBox="0 0 25 25" style="background-color:#ffffff00" version="1.1"
	xmlns="http://www.w3.org/2000/svg" xmlns:xlink="http://www.w3.org/1999/xlink" xml:space="preserve"
	x="0px" y="0px" width="25px" height="25px"
>
	<g id="base">
		<path id="Ellipse" d="M 1 12.5 C 1 6.1486 6.1486 1 12.5 1 C 18.8514 1 24 6.1486 24 12.5 C 24 18.8514 18.8514 24 12.5 24 C 6.1486 24 1 18.8514 1 12.5 Z" stroke="#ffffff" stroke-width="1" fill="none"/>
		<path d="M 14.1429 9.7619 L 14.1429 14.1429 L 18.5238 14.1429 L 18.5238 15.2381 L 17.4286 15.2381 L 17.4286 16.3333 L 16.3333 16.3333 L 16.3333 17.4286 L 15.2381 17.4286 L 15.2381 18.5238 L 14.1429 18.5238 L 14.1429 19.619 L 13.0476 19.619 L 13.0476 20.7143 L 11.9524 20.7143 L 11.9524 19.619 L 10.8571 19.619 L 10.8571 18.5238 L 9.7619 18.5238 L 9.7619 17.4286 L 8.6667 17.4286 L 8.6667 16.3333 L 7.5714 16.3333 L 7.5714 15.2381 L 6.4762 15.2381 L 6.4762 14.1429 L 10.8571 14.1429 L 10.8571 9.7619 L 14.1429 9.7619 ZM 10.8571 7.5714 L 10.8571 4.2857 L 14.1429 4.2857 L 14.1429 7.5714 L 10.8571 7.5714 Z" fill="#ffffff"/>
	</g>
</svg>