<?xml version="1.0" standalone="no"?>
<!-- Generator: Adobe Fireworks 10, Export SVG Extension by Aaron Beall (http://fireworks.abeall.com) . Version: 0.6.1  -->
<!DOCTYPE svg PUBLIC "-//W3C//DTD SVG 1.1//EN" "http://www.w3.org/Graphics/SVG/1.1/DTD/svg11.dtd">
<svg id="Icons.fw-expcoll" viewBox="0 0 25 25" style="background-color:#ffffff00" version="1.1"
	xmlns="http://www.w3.org/2000/svg" xmlns:xlink="http://www.w3.org/1999/xlink" xml:space="preserve"
	x="0px" y="0px" width="25px" height="25px"
>
	<g id="Layer%20124">
		<g id="base64">
			<g>
				<path id="Shape%2015" d="M 10.8846 10.8846 L 10.8846 14.1154 L 18.1538 14.1154 L 18.1538 10.8846 L 10.8846 10.8846 ZM 9.2692 14.1154 L 9.2692 10.8846 L 6.0385 10.8846 L 6.0385 14.1154 L 9.2692 14.1154 Z" fill="#84c2ff"/>
				<g>
					<rect x="18.5576" y="12.0962" width="0.8077" height="1.6154" fill="#84c2ff"/>
					<rect x="15.3268" y="8.8654" width="0.8077" height="8.0768" fill="#84c2ff"/>
					<rect x="14.5192" y="8.0578" width="0.8077" height="9.6922" fill="#84c2ff"/>
					<rect x="16.9422" y="11.2884" width="0.8077" height="3.2308" fill="#84c2ff"/>
					<rect x="16.1345" y="9.6733" width="0.8077" height="6.4614" fill="#84c2ff"/>
					<rect x="16.9422" y="10.4809" width="0.8077" height="4.846" fill="#84c2ff"/>
				</g>
			</g>
			<path id="Shape%2013%20copy" d="M 2 12.5 C 2 6.701 6.701 2 12.5 2 C 18.299 2 23 6.701 23 12.5 C 23 18.299 18.299 23 12.5 23 C 6.701 23 2 18.299 2 12.5 Z" stroke="#ffffff" stroke-width="2" fill="none"/>
		</g>
	</g>
</svg>