<?xml version="1.0" standalone="no"?>
<!-- Generator: Adobe Fireworks 10, Export SVG Extension by Aaron Beall (http://fireworks.abeall.com) . Version: 0.6.1  -->
<!DOCTYPE svg PUBLIC "-//W3C//DTD SVG 1.1//EN" "http://www.w3.org/Graphics/SVG/1.1/DTD/svg11.dtd">
<svg id="Icons.fw-friends-forever" viewBox="0 0 25 25" style="background-color:#ffffff00" version="1.1"
	xmlns="http://www.w3.org/2000/svg" xmlns:xlink="http://www.w3.org/1999/xlink" xml:space="preserve"
	x="0px" y="0px" width="25px" height="25px"
>
	<g id="friends-forever">
		<path d="M 2.34 16.6909 C 2.7878 16.3811 4.0356 15.8749 4.9229 15.8765 C 5.5211 15.8777 6.1259 15.9866 6.8278 16.3047 C 7.5297 16.6227 8.5996 17.4413 9.0085 18.3732 C 9.4174 19.3051 9.6249 20.444 9.6327 20.6044 C 11.6422 20.8461 13.6962 20.1674 15.1725 18.5569 C 16.0566 17.5912 16.6104 16.4165 16.855 15.1771 C 15.9277 16.1082 15.0754 16.6781 13.6323 16.9486 C 13.0021 17.0668 12.4871 17.0981 11.8804 17.0674 C 11.1334 17.0295 10.1941 16.7239 9.4912 16.39 C 8.9398 16.1282 8.1808 15.6978 7.4493 14.7146 C 7.1377 14.2957 6.8928 14.0366 6.4932 13.1232 C 6.0935 12.2097 5.9094 10.6409 5.9209 10.0703 C 5.9427 8.9764 6.1384 8.3024 6.4902 7.4753 L 6.4998 7.4532 C 6.5714 7.2864 6.6497 7.1212 6.7347 6.9591 C 7.009 6.4366 7.3456 5.9396 7.7585 5.4891 C 9.0304 4.1007 10.7148 3.394 12.4015 3.3759 C 12.6555 3.3759 13.1698 2.9105 13.3975 2.5275 C 10.4318 1.9617 7.0785 3.0709 4.6232 5.7513 C 1.74 8.8981 0.9485 13.2787 2.34 16.6909 ZM 1 20.8599 C 1 23.1465 2.7562 25 4.9229 25 C 7.0894 25 8.8458 23.1465 8.8458 20.8599 C 8.8458 18.5735 7.0894 16.7197 4.9229 16.7197 C 2.7562 16.7197 1 18.5735 1 20.8599 ZM 21.66 8.3092 C 21.2122 8.6189 19.9644 9.1251 19.0771 9.1235 C 18.4789 9.1223 17.8741 9.0134 17.1722 8.6953 C 16.4703 8.3773 15.4004 7.5587 14.9915 6.6268 C 14.5826 5.6949 14.3751 4.556 14.3673 4.3956 C 12.3578 4.1539 10.3038 4.8326 8.8275 6.4431 C 7.9434 7.4088 7.3896 8.5835 7.145 9.8229 C 8.0723 8.8918 8.9246 8.3219 10.3677 8.0514 C 10.9979 7.9332 11.5129 7.9019 12.1196 7.9326 C 12.8666 7.9705 13.8059 8.2761 14.5088 8.61 C 15.0602 8.8718 15.8192 9.3022 16.5507 10.2854 C 16.8623 10.7043 17.1072 10.9634 17.5068 11.8768 C 17.9065 12.7903 18.0906 14.3591 18.0791 14.9297 C 18.0573 16.0236 17.8616 16.6976 17.5098 17.5247 L 17.5002 17.5468 C 17.4286 17.7136 17.3503 17.8788 17.2653 18.0409 C 16.991 18.5634 16.6544 19.0604 16.2415 19.5109 C 14.9696 20.8993 13.2852 21.606 11.5985 21.6241 C 11.3445 21.6241 10.8302 22.0895 10.6025 22.4725 C 13.5682 23.0383 16.9215 21.9291 19.3768 19.2487 C 22.26 16.1019 23.0515 11.7213 21.66 8.3092 ZM 23 4.1401 C 23 1.8535 21.2438 0 19.0771 0 C 16.9106 0 15.1542 1.8535 15.1542 4.1401 C 15.1542 6.4265 16.9106 8.2803 19.0771 8.2803 C 21.2438 8.2803 23 6.4265 23 4.1401 Z" fill="#ffffff"/>
	</g>
</svg>