<?xml version="1.0" standalone="no"?>
<!-- Generator: Adobe Fireworks 10, Export SVG Extension by Aaron Beall (http://fireworks.abeall.com) . Version: 0.6.1  -->
<!DOCTYPE svg PUBLIC "-//W3C//DTD SVG 1.1//EN" "http://www.w3.org/Graphics/SVG/1.1/DTD/svg11.dtd">
<svg id="Icons.fw-ingo" viewBox="0 0 25 25" style="background-color:#ffffff00" version="1.1"
	xmlns="http://www.w3.org/2000/svg" xmlns:xlink="http://www.w3.org/1999/xlink" xml:space="preserve"
	x="0px" y="0px" width="25px" height="25px"
>
	<defs>
		<filter id="filter1" x="-100%" y="-100%" width="300%" height="300%">
			<!-- Drop Shadow -->
			<feOffset result="out" in="SourceGraphic" dx="0.7193" dy="0.6947"/>
			<feColorMatrix result="out" in="out" type="matrix" values="0 0 0 0 0  0 0 0 0 0  0 0 0 0 0  0 0 0 0.251 0"/>
			<feGaussianBlur result="out" in="out" stdDeviation="0"/>
			<feBlend in="SourceGraphic" in2="out" mode="normal" result="Drop_Shadow1"/>
		</filter>
	</defs>
	<g id="Layer%20123">
		<g id="base63" filter="url(#filter1)">
			<path d="M 3.4994 10.0333 L 4.8447 10.0333 L 4.8447 2.4797 L 3.4994 2.4797 L 3.4994 10.0333 Z" fill="#ffffff"/>
			<path d="M 8.2845 4.7997 L 12.4949 10.0333 L 13.5667 10.0333 L 13.5667 2.4797 L 12.3089 2.4797 L 12.3089 7.7349 L 8.0986 2.4797 L 7.0269 2.4797 L 7.0269 10.0333 L 8.2845 10.0333 L 8.2845 4.7997 Z" fill="#ffffff"/>
			<path d="M 16.2324 16.0659 C 14.7668 16.0659 13.6733 17.1557 13.6733 18.7203 C 13.6733 20.2311 14.7997 21.3749 16.2324 21.3749 C 17.8399 21.3749 18.8023 20.2095 18.8023 18.7203 C 18.8023 17.1557 17.6758 16.0659 16.2324 16.0659 Z" fill="#ffffff"/>
			<path d="M 19.644 12.6258 L 15.9906 12.6258 L 15.9906 2.3876 C 15.9906 1.0744 14.9017 0 13.5709 0 L 3.4197 0 C 2.0888 0 1 1.0744 1 2.3876 L 1 8.8057 L 1 11.4852 L 1 18.5106 L 1 19.5891 L 1 20.2247 C 1 22.8512 3.1778 25 5.8395 25 L 6.7901 25 L 8.3329 25 L 19.644 25 L 24 18.813 L 19.644 12.6258 ZM 1.5121 10.6925 L 1.5121 2.3876 C 1.5121 1.3497 2.3678 0.5054 3.4197 0.5054 L 13.5709 0.5054 C 14.6228 0.5054 15.4784 1.3497 15.4784 2.3876 L 15.4784 12.6258 L 8.1921 12.6258 L 6.7901 12.6258 L 4.8716 12.6258 C 3.4372 12.6258 2.181 11.844 1.5121 10.6925 ZM 10.4928 21.5583 C 9.8147 22.2273 8.5788 22.6159 7.6274 22.6159 C 5.123 22.6159 3.6358 21.0728 3.6358 18.7203 C 3.6358 16.5514 5.1122 14.8249 7.4525 14.8249 C 8.5461 14.8249 9.2898 15.1054 9.9132 15.5911 L 9.3445 16.6486 C 8.9617 16.2925 8.2837 16.0659 7.6166 16.0659 C 6.1402 16.0659 5.0575 17.0371 5.0575 18.7203 C 5.0575 20.3282 6.0963 21.3749 7.6495 21.3749 C 8.24 21.3749 8.9507 21.1269 9.2352 20.857 L 9.2352 19.6699 L 7.3869 19.6699 L 7.3869 18.429 L 10.4928 18.429 L 10.4928 21.5583 ZM 16.2324 22.6159 C 13.9576 22.6159 12.2516 21.0728 12.2516 18.7203 C 12.2516 16.5299 13.8809 14.8249 16.2324 14.8249 C 18.507 14.8249 20.2242 16.368 20.2242 18.7203 C 20.2242 20.9865 18.507 22.6159 16.2324 22.6159 Z" fill="#ffffff"/>
			<path d="M 21.6137 24.136 L 21.9482 24.136 L 21.9482 25 L 22.2029 25 L 22.2029 24.136 L 22.5374 24.136 L 22.5374 23.9003 L 21.6137 23.9003 L 21.6137 24.136 Z" fill="#ffffff"/>
			<path d="M 23.3123 24.3638 L 22.9685 23.9003 L 22.7121 23.9003 L 22.7121 25 L 22.967 25 L 22.967 24.304 L 23.2758 24.7282 L 23.3123 24.7282 L 23.6229 24.2992 L 23.6229 25 L 23.8776 25 L 23.8776 23.9003 L 23.6373 23.9003 L 23.3123 24.3638 Z" fill="#ffffff"/>
		</g>
	</g>
</svg>