<?xml version="1.0" encoding="utf-8"?>
<!-- Generated by IcoMoon.io -->
<!DOCTYPE svg PUBLIC "-//W3C//DTD SVG 1.1//EN" "http://www.w3.org/Graphics/SVG/1.1/DTD/svg11.dtd">
<svg version="1.1" xmlns="http://www.w3.org/2000/svg" xmlns:xlink="http://www.w3.org/1999/xlink" width="14" height="14" viewBox="0 0 14 14">
<g id="icomoon-ignore">
	<line stroke-width="1" x1="" y1="" x2="" y2="" stroke="#449FDB" opacity=""></line>
</g>
	<path d="M0 11.75v-1.5q0-0.102 0.074-0.176t0.176-0.074h1.5q0.102 0 0.176 0.074t0.074 0.176v1.5q0 0.102-0.074 0.176t-0.176 0.074h-1.5q-0.102 0-0.176-0.074t-0.074-0.176zM0 8.75v-1.5q0-0.102 0.074-0.176t0.176-0.074h1.5q0.102 0 0.176 0.074t0.074 0.176v1.5q0 0.102-0.074 0.176t-0.176 0.074h-1.5q-0.102 0-0.176-0.074t-0.074-0.176zM0 5.75v-1.5q0-0.102 0.074-0.176t0.176-0.074h1.5q0.102 0 0.176 0.074t0.074 0.176v1.5q0 0.102-0.074 0.176t-0.176 0.074h-1.5q-0.102 0-0.176-0.074t-0.074-0.176zM0 2.75v-1.5q0-0.102 0.074-0.176t0.176-0.074h1.5q0.102 0 0.176 0.074t0.074 0.176v1.5q0 0.102-0.074 0.176t-0.176 0.074h-1.5q-0.102 0-0.176-0.074t-0.074-0.176zM3 11.75v-1.5q0-0.102 0.074-0.176t0.176-0.074h10.5q0.102 0 0.176 0.074t0.074 0.176v1.5q0 0.102-0.074 0.176t-0.176 0.074h-10.5q-0.102 0-0.176-0.074t-0.074-0.176zM3 8.75v-1.5q0-0.102 0.074-0.176t0.176-0.074h10.5q0.102 0 0.176 0.074t0.074 0.176v1.5q0 0.102-0.074 0.176t-0.176 0.074h-10.5q-0.102 0-0.176-0.074t-0.074-0.176zM3 5.75v-1.5q0-0.102 0.074-0.176t0.176-0.074h10.5q0.102 0 0.176 0.074t0.074 0.176v1.5q0 0.102-0.074 0.176t-0.176 0.074h-10.5q-0.102 0-0.176-0.074t-0.074-0.176zM3 2.75v-1.5q0-0.102 0.074-0.176t0.176-0.074h10.5q0.102 0 0.176 0.074t0.074 0.176v1.5q0 0.102-0.074 0.176t-0.176 0.074h-10.5q-0.102 0-0.176-0.074t-0.074-0.176z" fill="#000000"></path>
</svg>
