<?xml version="1.0" standalone="no"?>
<!-- Generator: Adobe Fireworks 10, Export SVG Extension by Aaron Beall (http://fireworks.abeall.com) . Version: 0.6.1  -->
<!DOCTYPE svg PUBLIC "-//W3C//DTD SVG 1.1//EN" "http://www.w3.org/Graphics/SVG/1.1/DTD/svg11.dtd">
<svg id="Icons.fw-next-step" viewBox="0 0 25 25" style="background-color:#ffffff00" version="1.1"
	xmlns="http://www.w3.org/2000/svg" xmlns:xlink="http://www.w3.org/1999/xlink" xml:space="preserve"
	x="0px" y="0px" width="25px" height="25px"
>
	<g id="Layer%20167">
		<g>
			<path d="M 11.91 11.9298 C 11.91 12.2441 12.1745 12.4973 12.4996 12.4973 C 12.8244 12.4973 13.0891 12.2425 13.0891 11.9298 C 13.0897 11.265 13.335 10.6185 13.7798 10.11 C 14.7697 8.9792 15.5116 7.7534 15.9817 6.4663 C 16.0453 6.2923 16.0173 6.0995 15.9073 5.9492 C 15.7962 5.7985 15.6173 5.7092 15.4253 5.7092 L 9.5731 5.7092 C 9.3814 5.7092 9.2019 5.7985 9.0911 5.9492 C 8.9805 6.0995 8.953 6.2923 9.0164 6.4663 C 9.4873 7.7534 10.2282 8.9792 11.2183 10.11 C 11.6636 10.6185 11.9095 11.2655 11.91 11.9298 Z" fill="#004c8e"/>
			<path d="M 13.0891 14.2064 C 13.0891 13.8927 12.8244 13.6392 12.4996 13.6392 C 12.1745 13.6392 11.91 13.8937 11.91 14.2064 C 11.9095 15.0271 11.4008 15.838 10.4783 16.4961 C 8.5053 17.8995 7.0283 19.4245 6.0888 21.0275 C 5.9855 21.2041 5.9872 21.4191 6.0936 21.5926 C 6.1986 21.7671 6.3929 21.8741 6.6026 21.8741 L 18.3977 21.8741 C 18.6068 21.8741 18.8004 21.7671 18.9066 21.5926 C 19.0117 21.4191 19.0139 21.2041 18.9109 21.0275 C 17.9723 19.4245 16.4944 17.8995 14.5217 16.4961 C 13.5987 15.838 13.0897 15.0271 13.0891 14.2064 Z" fill="#004c8e"/>
			<path d="M 22.8193 22.727 L 22.4666 22.727 C 22.0612 18.3057 19.374 14.9108 17.2843 12.4999 C 19.374 10.0895 22.0607 6.6943 22.4678 2.2727 L 22.8203 2.2727 C 23.4716 2.2727 24 1.7637 24 1.1363 C 24 0.5085 23.4716 0 22.8203 0 L 2.1794 0 C 1.5278 0 1 0.509 1 1.1363 C 1 1.7637 1.5278 2.2727 2.1794 2.2727 L 2.532 2.2727 C 2.938 6.6948 5.6243 10.09 7.7141 12.4999 C 5.6249 14.9108 2.938 18.3046 2.5315 22.727 L 2.1794 22.727 C 1.5278 22.727 1 23.235 1 23.8625 C 1 24.491 1.5278 25 2.1794 25 L 3.654 25 L 21.3452 25 L 22.8203 25 C 23.4716 25 24 24.491 24 23.8625 C 24 23.235 23.4716 22.727 22.8193 22.727 ZM 4.8961 22.727 C 5.3396 18.7316 8.0354 15.6556 10.0499 13.3566 L 10.1575 13.234 C 10.5287 12.8113 10.5287 12.1918 10.1575 11.7685 L 10.0505 11.6462 C 8.0365 9.3467 5.3396 6.2704 4.8961 2.2748 L 20.103 2.2748 C 19.6598 6.2704 16.963 9.3467 14.9487 11.6462 L 14.842 11.7685 C 14.471 12.1913 14.471 12.8102 14.842 13.234 L 14.9498 13.3566 C 16.9641 15.6556 19.6598 18.7321 20.103 22.727 L 4.8961 22.727 Z" fill="#004c8e"/>
		</g>
	</g>
</svg>