<?xml version="1.0" standalone="no"?>
<!-- Generator: Adobe Fireworks 10, Export SVG Extension by Aaron Beall (http://fireworks.abeall.com) . Version: 0.6.1  -->
<!DOCTYPE svg PUBLIC "-//W3C//DTD SVG 1.1//EN" "http://www.w3.org/Graphics/SVG/1.1/DTD/svg11.dtd">
<svg id="Icons.fw-order-status" viewBox="0 0 25 25" style="background-color:#ffffff00" version="1.1"
	xmlns="http://www.w3.org/2000/svg" xmlns:xlink="http://www.w3.org/1999/xlink" xml:space="preserve"
	x="0px" y="0px" width="25px" height="25px"
>
	<g id="Layer%20166">
		<path d="M 20.6744 7.9873 L 16.3491 12.7374 L 19.7069 12.7374 C 19.5801 16.5624 16.4052 19.6248 12.5044 19.6248 C 11.7091 19.6248 10.9448 19.4956 10.2293 19.2604 C 10.106 19.2201 9.9841 19.176 9.8638 19.1293 C 9.8131 19.1095 9.7617 19.0909 9.7115 19.07 C 9.183 18.8512 8.6855 18.5739 8.23 18.2425 L 6.5769 19.9854 C 7.3424 20.5773 8.2018 21.0554 9.1281 21.3982 L 9.1299 21.3949 C 10.1799 21.7849 11.3164 22 12.5044 22 C 17.7325 22 21.982 17.8742 22.1103 12.7374 L 25 12.7374 L 20.6744 7.9873 ZM 5.2931 12.2627 C 5.4198 8.4377 8.5948 5.375 12.4956 5.375 C 13.4876 5.375 14.4326 5.5733 15.2927 5.9314 C 15.2929 5.9312 15.2931 5.931 15.2931 5.9308 C 15.8201 6.1497 16.3158 6.4271 16.77 6.7575 L 18.4231 5.0146 C 17.6404 4.4095 16.7597 3.923 15.8098 3.5789 L 15.8082 3.5817 C 14.7756 3.2061 13.6601 3 12.4956 3 C 7.2676 3 3.0178 7.1258 2.8897 12.2627 L 0 12.2627 L 4.3257 17.0127 L 8.6509 12.2627 L 5.2931 12.2627 Z" fill="#004c8e"/>
	</g>
</svg>