<?xml version="1.0" standalone="no"?>
<!-- Generator: Adobe Fireworks 10, Export SVG Extension by Aaron Beall (http://fireworks.abeall.com) . Version: 0.6.1  -->
<!DOCTYPE svg PUBLIC "-//W3C//DTD SVG 1.1//EN" "http://www.w3.org/Graphics/SVG/1.1/DTD/svg11.dtd">
<svg id="Icons.fw-play-video" viewBox="0 0 51 51" style="background-color:#ffffff00" version="1.1"
	xmlns="http://www.w3.org/2000/svg" xmlns:xlink="http://www.w3.org/1999/xlink" xml:space="preserve"
	x="0px" y="0px" width="51px" height="51px"
>
	<path id="base" d="M 25 0 C 13.9551 0 5 8.9551 5 20 C 5 31.0449 13.9551 40 25 40 C 36.0449 40 45 31.0449 45 20 C 45 8.9551 36.0449 0 25 0 ZM 25 36.25 C 16.0254 36.25 8.75 28.9746 8.75 20 C 8.75 11.0254 16.0254 3.75 25 3.75 C 33.9746 3.75 41.25 11.0254 41.25 20 C 41.25 28.9746 33.9746 36.25 25 36.25 ZM 20 11.25 L 35 20 L 20 28.75 L 20 11.25 Z" fill="#ffffff"/>
	<g>
		<path d="M 13.5 51 L 17 44 L 16 44 L 13.5 49 L 11 44 L 10 44 L 13.4844 51 L 13.5 51 L 13.5 51 Z" fill="#ffffff"/>
		<path d="M 19 51 L 19 44 L 18 44 L 18 51 L 19 51 L 19 51 Z" fill="#ffffff"/>
		<path d="M 21 51 L 23.2656 51 C 23.7031 51 24.0625 50.9531 24.3281 50.8594 C 24.6719 50.7344 24.9531 50.5469 25.1719 50.2969 C 25.4531 49.9844 25.6563 49.5781 25.8125 49.0625 C 25.9375 48.6563 26 48.1563 26 47.5625 C 26 46.9063 25.9219 46.3594 25.7969 45.9063 C 25.6719 45.4688 25.4844 45.0938 25.2344 44.7813 C 24.9844 44.4688 24.6875 44.2656 24.3438 44.1406 C 24.0781 44.0469 23.7031 44 23.2031 44 L 21 44 L 21 51 L 21 51 ZM 22.6406 45 C 23.2031 45 23.5938 45.0313 23.7969 45.0781 C 24.0625 45.1406 24.2813 45.2656 24.4531 45.4375 C 24.625 45.6094 24.7656 45.8438 24.8594 46.1563 C 24.9531 46.4688 25 46.9219 25 47.5 C 25 48.0938 24.9531 48.5469 24.8594 48.8906 C 24.7656 49.2344 24.6406 49.4688 24.4844 49.6094 C 24.3281 49.7656 24.1406 49.8594 23.9063 49.9219 C 23.7344 49.9844 23.4531 50 23.0625 50 L 22 50 L 22 45 L 22.6406 45 L 22.6406 45 Z" fill="#ffffff"/>
		<path d="M 33 51 L 33 50 L 29 50 L 29 48 L 33 48 L 33 47 L 29 47 L 29 45 L 33 45 L 33 44 L 28 44 L 28 51 L 33 51 L 33 51 Z" fill="#ffffff"/>
		<path d="M 35.8125 50.0781 C 36.3438 50.7031 37.0781 51 38.0156 51 C 38.9219 51 39.6406 50.7031 40.1875 50.0781 C 40.7188 49.4531 41 48.6094 41 47.5156 C 41 46.4219 40.7188 45.5625 40.1719 44.9375 C 39.625 44.3125 38.8906 44 37.9844 44 C 37.4844 44 37.0313 44.0938 36.6563 44.2656 C 36.3594 44.4063 36.0938 44.6094 35.8594 44.875 C 35.6094 45.1563 35.4219 45.4688 35.2813 45.8125 C 35.0938 46.2813 35 46.8594 35 47.5469 C 35 48.625 35.2656 49.4688 35.8125 50.0781 L 35.8125 50.0781 ZM 36.3594 45.625 C 36.6094 45.2188 37.1563 45 38 45 C 38.8438 45 39.3906 45.2188 39.6406 45.625 C 39.875 46.0313 40 46.6563 40 47.4688 C 40 48.3125 39.875 48.9531 39.625 49.375 C 39.375 49.7969 38.8281 50 38 50 C 37.1719 50 36.625 49.7969 36.375 49.375 C 36.125 48.9531 36 48.3281 36 47.5 C 36 46.6719 36.1094 46.0469 36.3594 45.625 L 36.3594 45.625 Z" fill="#ffffff"/>
	</g>
</svg>