<?xml version="1.0" standalone="no"?>
<!-- Generator: Adobe Fireworks 10, Export SVG Extension by Aaron Beall (http://fireworks.abeall.com) . Version: 0.6.1  -->
<!DOCTYPE svg PUBLIC "-//W3C//DTD SVG 1.1//EN" "http://www.w3.org/Graphics/SVG/1.1/DTD/svg11.dtd">
<svg id="Icons.fw-play-video" viewBox="0 0 52 52" style="background-color:#ffffff00" version="1.1"
	xmlns="http://www.w3.org/2000/svg" xmlns:xlink="http://www.w3.org/1999/xlink" xml:space="preserve"
	x="0px" y="0px" width="52px" height="52px"
>
	<path id="base" d="M 26 0 C 14.9551 0 6 8.9551 6 20 C 6 31.0449 14.9551 40 26 40 C 37.0449 40 46 31.0449 46 20 C 46 8.9551 37.0449 0 26 0 ZM 26 36.25 C 17.0254 36.25 9.75 28.9746 9.75 20 C 9.75 11.0254 17.0254 3.75 26 3.75 C 34.9746 3.75 42.25 11.0254 42.25 20 C 42.25 28.9746 34.9746 36.25 26 36.25 ZM 21 11.25 L 36 20 L 21 28.75 L 21 11.25 Z" fill="#ffffff"/>
	<g>
		<path d="M 13.5 50 L 17 43 L 16 43 L 13.5 48 L 11 43 L 10 43 L 13.4844 50 L 13.5 50 L 13.5 50 Z" fill="#ffffff"/>
		<path d="M 19 50 L 19 43 L 18 43 L 18 50 L 19 50 L 19 50 Z" fill="#ffffff"/>
		<path d="M 21 50 L 23.2656 50 C 23.7031 50 24.0625 49.9531 24.3281 49.8594 C 24.6719 49.7344 24.9531 49.5469 25.1719 49.2969 C 25.4531 48.9844 25.6563 48.5781 25.8125 48.0625 C 25.9375 47.6563 26 47.1563 26 46.5625 C 26 45.9063 25.9219 45.3594 25.7969 44.9063 C 25.6719 44.4688 25.4844 44.0938 25.2344 43.7813 C 24.9844 43.4688 24.6875 43.2656 24.3438 43.1406 C 24.0781 43.0469 23.7031 43 23.2031 43 L 21 43 L 21 50 L 21 50 ZM 22.6406 44 C 23.2031 44 23.5938 44.0313 23.7969 44.0781 C 24.0625 44.1406 24.2813 44.2656 24.4531 44.4375 C 24.625 44.6094 24.7656 44.8438 24.8594 45.1563 C 24.9531 45.4688 25 45.9219 25 46.5 C 25 47.0938 24.9531 47.5469 24.8594 47.8906 C 24.7656 48.2344 24.6406 48.4688 24.4844 48.6094 C 24.3281 48.7656 24.1406 48.8594 23.9063 48.9219 C 23.7344 48.9844 23.4531 49 23.0625 49 L 22 49 L 22 44 L 22.6406 44 L 22.6406 44 Z" fill="#ffffff"/>
		<path d="M 33 50 L 33 49 L 29 49 L 29 47 L 33 47 L 33 46 L 29 46 L 29 44 L 33 44 L 33 43 L 28 43 L 28 50 L 33 50 L 33 50 Z" fill="#ffffff"/>
		<path d="M 35.8125 49.0781 C 36.3438 49.7031 37.0781 50 38.0156 50 C 38.9219 50 39.6406 49.7031 40.1875 49.0781 C 40.7188 48.4531 41 47.6094 41 46.5156 C 41 45.4219 40.7188 44.5625 40.1719 43.9375 C 39.625 43.3125 38.8906 43 37.9844 43 C 37.4844 43 37.0313 43.0938 36.6563 43.2656 C 36.3594 43.4063 36.0938 43.6094 35.8594 43.875 C 35.6094 44.1563 35.4219 44.4688 35.2813 44.8125 C 35.0938 45.2813 35 45.8594 35 46.5469 C 35 47.625 35.2656 48.4688 35.8125 49.0781 L 35.8125 49.0781 ZM 36.3594 44.625 C 36.6094 44.2188 37.1563 44 38 44 C 38.8438 44 39.3906 44.2188 39.6406 44.625 C 39.875 45.0313 40 45.6563 40 46.4688 C 40 47.3125 39.875 47.9531 39.625 48.375 C 39.375 48.7969 38.8281 49 38 49 C 37.1719 49 36.625 48.7969 36.375 48.375 C 36.125 47.9531 36 47.3281 36 46.5 C 36 45.6719 36.1094 45.0469 36.3594 44.625 L 36.3594 44.625 Z" fill="#ffffff"/>
	</g>
</svg>