<?xml version="1.0" standalone="no"?>
<!-- Generator: Adobe Fireworks 10, Export SVG Extension by Aaron Beall (http://fireworks.abeall.com) . Version: 0.6.1  -->
<!DOCTYPE svg PUBLIC "-//W3C//DTD SVG 1.1//EN" "http://www.w3.org/Graphics/SVG/1.1/DTD/svg11.dtd">
<svg id="Icons.fw-share-gplus" viewBox="0 0 25 25" style="background-color:#ffffff00" version="1.1"
	xmlns="http://www.w3.org/2000/svg" xmlns:xlink="http://www.w3.org/1999/xlink" xml:space="preserve"
	x="0px" y="0px" width="25px" height="25px"
>
	<g id="Layer%2017">
		<g id="colored3">
			<rect x="0" y="0" width="25" height="25" fill="#cc1a20" rx="1.75" ry="1.75"/>
			<g>
				<path d="M 3.2204 18.4414 C 2.6132 18.5575 2.1883 18.7155 1.5711 18.9137 C 1.0146 19.0923 0.4904 19.3235 0 19.6064 L 0 25 L 0.481 25 C 0.1854 24.4738 0.0374 23.8856 0.0374 23.2349 C 0.0374 22.6049 0.1597 22.0805 0.4042 21.6603 C 0.6494 21.2406 0.9343 20.8909 1.2612 20.6104 C 1.5876 20.3304 1.9201 20.115 2.2587 19.9632 C 2.5957 19.8113 2.8586 19.7006 3.0451 19.6312 C 3.4177 19.5142 3.8023 19.4153 4.1996 19.3337 C 4.5954 19.2518 4.9691 19.1933 5.3186 19.1583 C 5.668 19.1237 5.9712 19.0996 6.2278 19.0887 C 6.4836 19.0766 6.648 19.0708 6.7169 19.0708 C 6.9035 19.0708 7.0495 19.0708 7.1546 19.0708 C 7.2595 19.0708 7.382 19.0827 7.5215 19.1063 C 8.1742 19.5724 8.7452 19.9923 9.235 20.3655 C 9.7251 20.7388 10.121 21.1 10.4243 21.4505 C 10.7268 21.8 10.9545 22.1553 11.1063 22.5172 C 11.2575 22.879 11.3337 23.2813 11.3337 23.7242 C 11.3337 24.1834 11.256 24.6083 11.1026 25 L 12.9591 25 C 13.0019 24.9235 13.0433 24.8464 13.0824 24.7683 C 13.4783 23.974 13.677 23.1677 13.677 22.3505 C 13.677 21.7433 13.5951 21.2054 13.4319 20.7393 C 13.2688 20.2718 13.0533 19.8516 12.7852 19.4788 C 12.5171 19.1041 12.2021 18.753 11.8409 18.427 C 11.4792 18.1001 11.112 17.7729 10.7389 17.4453 L 9.4802 16.4651 C 9.2931 16.3015 9.0952 16.1081 8.8853 15.8862 C 8.6757 15.6648 8.5711 15.3556 8.5711 14.9583 C 8.5711 14.5612 8.6757 14.2339 8.8853 13.9765 C 9.0952 13.7204 9.3166 13.4751 9.5497 13.2408 C 9.923 12.9612 10.2846 12.6637 10.6343 12.3479 C 10.9843 12.033 11.299 11.6826 11.5789 11.2972 C 11.8578 10.9117 12.0798 10.4741 12.2434 9.9828 C 12.4053 9.4924 12.4879 8.9201 12.4879 8.2659 C 12.4879 7.613 12.3946 7.0287 12.2081 6.5147 C 12.021 6.0006 11.7999 5.5519 11.5437 5.1665 C 11.2871 4.7803 11.0187 4.426 10.7389 4.1568 C 10.4593 3.889 10.2142 3.6731 10.0043 3.5088 L 12.1728 3.5088 L 14.412 2.193 L 7.2067 2.193 C 6.2507 2.193 5.2194 2.3099 4.1113 2.5424 C 3.0039 2.7764 2.1361 3.4205 1.1341 4.2364 C 0.6896 4.6252 0.312 5.0455 0 5.4964 L 0 12.2319 C 0.1235 12.3954 0.2558 12.5532 0.3995 12.7035 C 0.8892 13.2166 1.3079 13.6303 2.031 13.9453 C 2.7536 14.2604 3.5816 14.4174 4.514 14.4174 C 4.7005 14.4174 4.8863 14.4123 5.0734 14.3999 C 5.2598 14.3888 5.4463 14.3714 5.6327 14.3478 C 5.5403 14.5578 5.4589 14.7618 5.3881 14.9604 C 5.3186 15.1586 5.283 15.4097 5.283 15.7122 C 5.283 16.2491 5.3936 16.6977 5.6155 17.0591 C 5.8369 17.4216 6.0754 17.7651 6.3323 18.092 C 5.9357 18.1149 5.4695 18.1498 4.9336 18.1962 C 4.3972 18.243 3.8261 18.3247 3.2204 18.4414 ZM 6.1577 13.4384 C 5.4116 13.4384 4.7641 13.222 4.2165 12.7888 C 3.6683 12.3558 3.2138 11.823 2.8527 11.1915 C 2.4906 10.5592 2.2234 9.8804 2.0487 9.1546 C 1.8735 8.4293 1.7858 7.7736 1.7858 7.1884 C 1.7858 6.7202 1.8388 6.2642 1.943 5.8196 C 2.0487 5.3747 2.2521 4.9649 2.5554 4.5898 C 2.8351 4.2388 3.1963 3.9583 3.6394 3.748 C 4.0821 3.5374 4.5366 3.4316 5.0035 3.4316 C 5.7261 3.4316 6.3616 3.648 6.9098 4.0813 C 7.4571 4.5136 7.9172 5.0584 8.291 5.7144 C 8.6639 6.3692 8.9437 7.0718 9.1308 7.8205 C 9.3166 8.5694 9.4103 9.2595 9.4103 9.8916 C 9.4103 10.2197 9.3633 10.6292 9.2702 11.1204 C 9.1769 11.6127 8.9326 12.0569 8.5359 12.4549 C 8.2555 12.736 7.9004 12.9695 7.4694 13.1576 C 7.0378 13.3447 6.6001 13.4384 6.1577 13.4384 Z" fill="#9e1418"/>
				<g>
					<path d="M 0.5693 25 C 0.2684 24.5617 0.0779 24.0769 0 23.5447 L 0 25 L 0.5693 25 Z" fill="#ffffff"/>
					<path d="M 0.9955 20.3446 C 1.3219 20.0647 1.6544 19.8492 1.993 19.6974 C 2.33 19.5455 2.593 19.4349 2.7794 19.3653 C 3.152 19.2484 3.5366 19.1495 3.9339 19.0679 C 4.3296 18.986 4.7035 18.9275 5.0529 18.8925 C 5.4023 18.8578 5.7056 18.8338 5.9622 18.8229 C 6.2178 18.8108 6.3823 18.8049 6.4512 18.8049 C 6.6377 18.8049 6.7838 18.8049 6.8889 18.8049 C 6.9938 18.8049 7.1164 18.8169 7.2558 18.8404 C 7.9085 19.3065 8.4795 19.7265 8.9693 20.0997 C 9.4594 20.473 9.8554 20.8342 10.1587 21.1847 C 10.4611 21.5342 10.6888 21.8895 10.8406 22.2514 C 10.9918 22.6132 11.068 23.0156 11.068 23.4584 C 11.068 24.0235 10.9509 24.5371 10.7186 25 L 12.5356 25 C 12.6377 24.838 12.7317 24.6723 12.8168 24.5025 C 13.2126 23.7082 13.4113 22.9019 13.4113 22.0848 C 13.4113 21.4775 13.3294 20.9397 13.1662 20.4735 C 13.0031 20.006 12.7876 19.5858 12.5195 19.213 C 12.2514 18.8383 11.9364 18.4872 11.5752 18.1612 C 11.2135 17.8344 10.8463 17.5071 10.4732 17.1796 L 9.2145 16.1993 C 9.0274 16.0357 8.8295 15.8423 8.6196 15.6204 C 8.4099 15.399 8.3054 15.0898 8.3054 14.6926 C 8.3054 14.2953 8.4099 13.9681 8.6196 13.7107 C 8.8295 13.4547 9.0509 13.2093 9.284 12.9749 C 9.6573 12.6954 10.019 12.3978 10.3686 12.0821 C 10.7186 11.7671 11.0334 11.4168 11.3132 11.0314 C 11.5921 10.646 11.8141 10.2082 11.9776 9.717 C 12.1397 9.2266 12.2222 8.6543 12.2222 8.0001 C 12.2222 7.3472 12.1288 6.763 11.9424 6.2489 C 11.7553 5.7347 11.5342 5.2861 11.278 4.9007 C 11.0214 4.5145 10.753 4.426 10.4732 4.1568 C 10.1937 3.889 9.9485 3.6731 9.7385 3.5088 L 11.9071 3.5088 L 14.1463 2.193 L 6.9411 2.193 C 5.985 2.193 4.9538 2.3099 3.8457 2.5424 C 2.7381 2.7764 1.8705 3.1547 0.8684 3.9707 C 0.5435 4.2548 0.2541 4.5557 0 4.8732 L 0 12.2906 C 0.0439 12.3401 0.0878 12.3896 0.1338 12.4376 C 0.6235 12.9509 1.0422 13.3645 1.7653 13.6795 C 2.4879 13.9947 3.3158 14.1515 4.2483 14.1515 C 4.4348 14.1515 4.6206 14.1465 4.8077 14.1341 C 4.9941 14.123 5.1805 14.1057 5.367 14.0819 C 5.2746 14.292 5.1932 14.4961 5.1224 14.6946 C 5.0529 14.8928 5.0173 15.1439 5.0173 15.4464 C 5.0173 15.9833 5.1279 16.4319 5.3499 16.7933 C 5.5712 17.1558 5.8097 17.4993 6.0667 17.8262 C 5.67 17.8491 5.2038 17.884 4.6679 17.9304 C 4.1315 17.9772 3.5604 18.0589 2.9547 18.1756 C 2.3474 18.2917 1.9226 18.4497 1.3055 18.6479 C 0.8482 18.7946 0.4128 18.9767 0 19.1938 L 0 22.3836 C 0.0539 22.007 0.1617 21.6767 0.3259 21.3945 C 0.5711 20.9748 0.6687 20.6251 0.9955 20.3446 ZM 5.892 13.1727 C 5.1459 13.1727 4.4984 12.9562 3.9508 12.523 C 3.4026 12.09 2.9481 11.5572 2.587 10.9257 C 2.2249 10.2935 1.9578 9.6145 1.7831 8.8888 C 1.6077 8.1635 1.5201 7.5078 1.5201 6.9226 C 1.5201 6.4544 1.5731 5.9984 1.6773 5.5538 C 1.7831 5.109 1.9864 4.6992 2.2896 4.3241 C 2.5694 3.973 2.9306 3.6925 3.3737 3.4822 C 3.8164 3.2716 4.2709 3.1658 4.7378 3.1658 C 5.4604 3.1658 6.0959 3.3822 6.6441 3.8154 C 7.1914 4.2478 7.6515 4.7926 8.0253 5.4486 C 8.3982 6.1034 8.678 6.806 8.8651 7.5547 C 9.0509 8.3036 9.1446 8.9936 9.1446 9.6257 C 9.1446 9.9539 9.0976 10.3633 9.0045 10.8546 C 8.9112 11.3469 8.6669 11.791 8.2702 12.1891 C 7.9898 12.4702 7.6347 12.7038 7.2037 12.8917 C 6.7721 13.0789 6.3345 13.1727 5.892 13.1727 Z" fill="#ffffff"/>
				</g>
				<path d="M 24.5614 6.5789 L 20.614 6.5789 L 20.614 2.6316 L 18.8596 2.6316 L 18.8596 6.5789 L 14.4737 6.5789 L 14.4737 8.7719 L 18.8596 8.7719 L 18.8596 12.7193 L 20.614 12.7193 L 20.614 8.7719 L 24.5614 8.7719 L 24.5614 6.5789 Z" fill="#9e1418"/>
				<path d="M 20.614 6.5789 L 20.614 2.193 L 18.8596 2.193 L 18.8596 6.5789 L 14.0351 6.5789 L 14.0351 8.3333 L 18.8596 8.3333 L 18.8596 12.7193 L 20.614 12.7193 L 20.614 8.3333 L 25 8.3333 L 25 6.5789 L 20.614 6.5789 Z" fill="#ffffff"/>
			</g>
		</g>
	</g>
</svg>