<?xml version="1.0" standalone="no"?>
<!-- Generator: Adobe Fireworks 10, Export SVG Extension by Aaron Beall (http://fireworks.abeall.com) . Version: 0.6.1  -->
<!DOCTYPE svg PUBLIC "-//W3C//DTD SVG 1.1//EN" "http://www.w3.org/Graphics/SVG/1.1/DTD/svg11.dtd">
<svg id="Icons.fw-share-tw" viewBox="0 0 25 25" style="background-color:#ffffff00" version="1.1"
	xmlns="http://www.w3.org/2000/svg" xmlns:xlink="http://www.w3.org/1999/xlink" xml:space="preserve"
	x="0px" y="0px" width="25px" height="25px"
>
	<g id="colored">
		<rect x="0" y="0" width="25" height="25" fill="#00adee" rx="1.75" ry="1.75"/>
		<g>
			<path d="M 21.5859 7.3235 C 20.9467 7.6072 20.2599 7.7989 19.5388 7.8851 C 20.2746 7.4437 20.8396 6.7451 21.1058 5.9126 C 20.4172 6.321 19.6546 6.618 18.8428 6.7777 C 18.1927 6.0848 17.2664 5.652 16.2414 5.652 C 14.2733 5.652 12.6775 7.2481 12.6775 9.2171 C 12.6775 9.4965 12.709 9.7685 12.7699 10.0296 C 9.808 9.8808 7.182 8.4614 5.4242 6.3043 C 5.1174 6.8312 4.9416 7.4432 4.9416 8.097 C 4.9416 9.3338 5.5708 10.425 6.5272 11.0643 C 5.943 11.0459 5.3933 10.8856 4.9129 10.6185 C 4.9125 10.6333 4.9125 10.6484 4.9125 10.6634 C 4.9125 12.3907 6.141 13.8316 7.7714 14.1595 C 7.4723 14.2408 7.1575 14.2845 6.8324 14.2845 C 6.6027 14.2845 6.3796 14.2621 6.162 14.2204 C 6.6154 15.6368 7.9317 16.6678 9.491 16.6963 C 8.2713 17.6526 6.7348 18.2225 5.0649 18.2225 C 4.7774 18.2225 4.4936 18.2057 4.2149 18.1728 C 5.7919 19.1843 7.6654 19.7747 9.6779 19.7747 C 16.2331 19.7747 19.8177 14.3419 19.8177 9.6306 C 19.8177 9.476 19.8143 9.3223 19.8073 9.1692 C 20.5039 8.6665 21.108 8.0388 21.5859 7.3235 Z" fill="#005d81"/>
			<path d="M 21.3201 7.0046 C 20.681 7.2883 19.9942 7.48 19.2731 7.5661 C 20.0089 7.1248 20.5739 6.4262 20.8401 5.5937 C 20.1516 6.002 19.3889 6.299 18.5771 6.4588 C 17.927 5.7658 17.0007 5.333 15.9757 5.333 C 14.0076 5.333 12.4119 6.9292 12.4119 8.8982 C 12.4119 9.1776 12.4434 9.4496 12.5042 9.7106 C 9.5423 9.5618 6.9162 8.1424 5.1585 5.9854 C 4.8517 6.5121 4.6759 7.1242 4.6759 7.778 C 4.6759 9.0148 5.3051 10.106 6.2615 10.7455 C 5.6773 10.727 5.1277 10.5667 4.6472 10.2995 C 4.6468 10.3144 4.6468 10.3295 4.6468 10.3444 C 4.6468 12.0717 5.8752 13.5126 7.5057 13.8405 C 7.2066 13.9219 6.8918 13.9654 6.5667 13.9654 C 6.3371 13.9654 6.1139 13.9431 5.8963 13.9015 C 6.3497 15.3179 7.666 16.3487 9.2254 16.3773 C 8.0056 17.3336 6.4691 17.9035 4.7992 17.9035 C 4.5118 17.9035 4.2278 17.8867 3.9492 17.8539 C 5.5263 18.8653 7.3998 19.4557 9.4122 19.4557 C 15.9674 19.4557 19.5519 14.0229 19.5519 9.3116 C 19.5519 9.157 19.5486 9.0033 19.5417 8.8503 C 20.2382 8.3476 20.8423 7.7199 21.3201 7.0046 Z" fill="#ffffff"/>
		</g>
	</g>
</svg>