<svg width="175" height="90" viewBox="0 0 175 90" xmlns="http://www.w3.org/2000/svg"><title>bossrevolution-horizontal</title><g fill="none" fill-rule="evenodd"><path d="M4.767 11.19c.257-.414.962-.45 1.58-.07.637.362.93 1 .688 1.414-.257.38-.962.413-1.58.052-.637-.362-.93-1-.688-1.397zM7.19 12.896l12.083 7.274.172-.31-12.083-7.257" fill="#000"/><path d="M18.706 21.514c-.206.328-.292.707-.292 1.086 0 .62.24 1.276.653 1.862.43.603 1.03 1.155 1.77 1.603l39.446 23.2c.91.535 1.89.81 2.75.81.5 0 .963-.086 1.358-.275.396-.19.74-.466.963-.828l6.67-10.876c.206-.327.31-.707.29-1.086 0-.62-.24-1.258-.67-1.86-.41-.605-1.03-1.156-1.77-1.605l-39.41-23.2c-.912-.535-1.89-.81-2.75-.81-.5 0-.963.086-1.36.275-.394.173-.755.466-.978.828l-6.67 10.876z" fill="#FFF"/><path d="M25.77 10.88c.172-.277.447-.484.774-.64.326-.154.72-.223 1.168-.223.774 0 1.668.242 2.51.74L69.668 33.96c.687.396 1.237.913 1.615 1.464.378.535.585 1.103.585 1.586 0 .31-.07.586-.224.827l-6.67 10.877c-.17.276-.428.5-.755.638-.328.155-.723.224-1.17.224-.773 0-1.667-.242-2.51-.74L21.08 25.633c-.688-.414-1.238-.914-1.616-1.465-.378-.536-.584-1.105-.584-1.587 0-.31.07-.586.223-.828l6.67-10.876-.395-.242-6.67 10.876c-.205.328-.29.707-.29 1.086 0 .62.24 1.276.652 1.862.43.603 1.03 1.155 1.77 1.603l39.446 23.2c.91.535 1.89.81 2.75.81.5 0 .963-.086 1.358-.275.396-.19.74-.466.963-.828l6.67-10.876c.206-.327.31-.707.29-1.086 0-.62-.24-1.258-.67-1.86-.41-.605-1.03-1.156-1.77-1.605l-39.41-23.2c-.912-.535-1.89-.81-2.75-.81-.5 0-.963.086-1.36.275-.394.173-.755.466-.978.828l.395.24z" fill="#000"/><path d="M43.233 34.304l14.472 8.515.206-.346-14.47-8.515-.207.344zM45.673 34.494l.894-1.5 2.407 1.413-.877 1.43-2.424-1.343-.67.086 3.266 1.913 1.39-2.258-3.265-1.913-1.392 2.258.67-.086zM49.106 36.493l.882-1.413 2.423 1.413-.876 1.43-2.428-1.43-.665.19 3.266 1.913 1.375-2.258-3.247-1.913-1.392 2.258.666-.19zM50.59 34.132l.893-1.5 2.406 1.413-.877 1.43-2.423-1.343-.67.086 3.265 1.913 1.375-2.257-3.25-1.913-1.39 2.258.67-.086zM52.632 38.51l.862-1.43 2.406 1.43-.876 1.43-2.392-1.43-.702.172 3.265 1.913 1.393-2.258-3.266-1.913-1.392 2.258.702-.172zM26.097 24.962c-.207-.12-.378-.276-.482-.43-.12-.157-.154-.312-.154-.432 0-.07.018-.138.052-.19l5.31-8.67c.036-.07.104-.12.173-.155.086-.035.19-.07.327-.07.223 0 .498.07.756.225l13.355 7.843c.206.12.378.276.48.43.104.156.156.31.156.432 0 .07-.018.137-.053.19l-5.328 8.67c-.035.068-.104.103-.173.154-.086.034-.19.068-.326.068-.223 0-.498-.07-.756-.224l-13.337-7.842-.224.43 13.338 7.826c.327.19.67.293.998.293.19 0 .36-.033.515-.102.155-.07.293-.19.396-.345l5.31-8.67c.086-.138.12-.293.12-.448 0-.242-.103-.5-.24-.707-.155-.224-.38-.414-.637-.586L32.32 14.81c-.328-.19-.672-.294-.998-.294-.19 0-.36.035-.516.103-.155.068-.292.19-.395.344l-5.31 8.67c-.086.138-.12.293-.12.448 0 .26.085.5.257.724.155.224.378.414.636.586l.224-.43z" fill="#000"/><path d="M41.91 17.412l6.77 1.723-2.525 5.86-7.563-.792 3.317-6.79z" fill="#FFF"/><path d="M39.094 23.92l2.936-6.232 6.308 1.62L46 24.738l-6.906-.818-.88.49 8.095.845 2.698-6.275-7.236-1.86-3.558 7.29.88-.49z" fill="#000"/><path d="M50.228 19.584l6.308 2.533-3.626 8.36-.636-4.74-4.727-.638 2.68-5.516z" fill="#FFF"/><path d="M50.308 19.855l5.902 2.383-3.18 7.343-.55-4.05-4.572-.62 2.4-5.055-.16-.546-2.962 5.996 4.864.655.74 5.414 4.055-9.394-6.696-2.67.158.545z" fill="#000"/><path d="M58.41 23.427l-6.927 12.325 5.362 1.896 6.463-11.532-4.898-2.69z" fill="#FFF"/><path d="M58.324 23.1L51.14 35.89l5.826 2.068 6.686-11.945-5.328-2.913.193.633 4.465 2.47-6.24 11.152-4.898-1.74 6.673-11.882-.193-.633z" fill="#000"/><path d="M65.044 27.857l-5.208 9.963 3.317 1.57 5.672-8.05-3.78-3.483z" fill="#FFF"/><path d="M64.975 27.46L59.51 37.925l3.73 1.758 5.912-8.377-4.177-3.844.127.8 3.397 3.114-5.433 7.705-2.904-1.38 4.94-9.44-.128-.8z" fill="#000"/><path d="M62.174 49.007l-13.56-8.067-3.456-4.895-4.9-.638 1.256-1.258-1.255-1.415 3.643 1.26 7.253-2.38-.326-4.258-14.816-2.068-7.1 11.375 13.253 17.392-1.1 27.734h19.147L58.72 52.938c-.018.017 2.08-2.465 3.454-3.93" fill="#FFF"/><path d="M62.517 48.955l-13.763-8.187-3.484-4.947-4.514-.585 1.082-1.086-.807-.898 2.85.983 7.482-2.465-.343-4.637L35.9 25.03l-7.26 11.653 13.266 17.46-1.098 27.666h19.615l-1.51-28.873 3.604-3.982-.753.12c-1.39 1.466-3.28 3.724-3.28 3.724l1.442 28.526H41.288l1.082-27.338-13.18-17.34 6.916-11.1 14.45 2.016.29 3.88-6.983 2.308-3.553-1.24-.257.378 1.115 1.242-1.44 1.447 5.267.69 3.415 4.86 13.354 7.946M75 33.5c-1.48 0-2.5-1.07-2.5-2.5 0-1.526 1.15-2.5 2.5-2.5s2.5 1.006 2.5 2.5c-.033 1.494-1.184 2.5-2.5 2.5zm0-4.578c-1.118 0-1.974.844-1.974 2.078 0 1.136.757 2.078 1.974 2.078 1.086 0 1.94-.844 1.94-2.078s-.854-2.078-1.94-2.078zm-.526 3.507h-.46v-2.794h1.085c.69 0 1.018.228 1.018.812 0 .52-.33.714-.723.747l.79 1.234h-.527l-.724-1.203h-.427v1.202h-.033zM75 30.87c.362 0 .658-.032.658-.454 0-.325-.33-.39-.625-.39h-.56v.812H75v.032z" fill="#000"/><g><path d="M159.67 66.454h-3.224v6.753l-2.164-6.753h-3.224v14.99h3.224V74.62l2.006 6.82h3.382V66.455zm-10.01 8.784V72.66c0-1.53-.045-2.624-.113-3.24-.068-.616-.293-1.186-.676-1.71-.383-.526-.9-.913-1.532-1.187-.632-.25-1.353-.388-2.142-.388-.834 0-1.578.137-2.21.41-.63.274-1.127.685-1.487 1.187-.362.525-.588 1.095-.655 1.71-.068.617-.113 1.69-.113 3.195v2.578c0 1.55.045 2.623.113 3.24.067.615.293 1.186.676 1.71.384.525.903.913 1.534 1.187.63.25 1.353.387 2.142.387.834 0 1.556-.137 2.187-.41.63-.275 1.127-.686 1.488-1.21.384-.502.61-1.05.677-1.688.068-.616.113-1.69.113-3.194zm-3.855 1.962c0 .867-.045 1.437-.113 1.665-.068.228-.248.365-.496.365s-.428-.09-.496-.297c-.068-.205-.113-.73-.113-1.597v-7.003c0-.776.068-1.232.158-1.392.113-.16.27-.227.473-.227.248 0 .406.09.474.297.068.205.113.638.113 1.346V77.2zm-6.72 4.243v-14.99h-3.854v14.99h3.856zM133.88 69.42v-3.01H125.4v3.01h2.3v12.046h3.88V69.42h2.298zm-10.055 7.05V66.454h-3.855v11.042c0 .753-.045 1.21-.113 1.415-.067.206-.225.297-.473.297-.203 0-.36-.09-.428-.274-.068-.182-.113-.593-.113-1.254V66.43h-3.854v8.874c0 1.688.022 2.806.09 3.33.068.526.248 1.027.586 1.507.338.48.834.866 1.51 1.163.677.297 1.466.433 2.345.433.812 0 1.488-.115 2.097-.366.586-.25 1.06-.616 1.42-1.095.384-.48.61-.96.677-1.415.068-.456.113-1.255.113-2.395zm-9.942 4.973v-3.01h-2.32v-12h-3.856v15.01h6.177zm-7.597-6.205V72.66c0-1.53-.045-2.624-.112-3.24-.067-.616-.292-1.186-.676-1.71-.383-.526-.902-.913-1.533-1.187-.63-.25-1.35-.388-2.14-.388-.835 0-1.58.137-2.21.41-.63.274-1.127.685-1.488 1.187-.383.525-.586 1.095-.654 1.71-.067.617-.09 1.69-.09 3.195v2.578c0 1.55.045 2.623.113 3.24.068.615.316 1.186.7 1.71.383.525.902.913 1.533 1.187.63.25 1.352.387 2.142.387.834 0 1.578-.137 2.21-.41.63-.275 1.126-.686 1.51-1.21.293-.502.518-1.05.586-1.688.068-.616.113-1.69.113-3.194zm-3.855 1.962c0 .867-.045 1.437-.113 1.665-.067.228-.248.365-.496.365-.27 0-.43-.09-.497-.297-.067-.205-.112-.73-.112-1.597v-7.003c0-.776.068-1.232.16-1.392.11-.16.27-.227.472-.227.248 0 .406.09.473.297.068.205.113.638.113 1.346V77.2zm-5.614-10.746h-4.058s-.7 7.62-.9 10.495c-.204-2.853-.542-6.344-1.016-10.496h-4.058l2.232 14.99h5.84l1.96-14.99zm-10.257 14.99V78.43h-2.82v-3.286h2.414v-2.85H83.74v-2.853h2.57v-3.01h-6.425v15.01h6.674zm-8.162 0v-3.948c0-1.21-.022-1.94-.09-2.213-.068-.274-.225-.57-.496-.89-.27-.32-.767-.57-1.534-.775.834-.07 1.398-.32 1.69-.73.294-.41.43-1.186.43-2.35 0-1.277-.204-2.213-.61-2.783-.405-.593-.924-.958-1.578-1.095-.653-.137-1.87-.206-3.697-.206h-2.727v14.99h3.855V74.69c.52 0 .857.09.97.297.135.182.18.684.18 1.483v4.973h3.607zm-3.584-10.45c0 .662-.09 1.05-.247 1.187-.18.115-.474.183-.902.183V69.01c.452 0 .745.068.925.228.158.16.248.456.248.935v.82h-.022z" fill="#000"/><g fill-opacity=".2" fill="#000"><path d="M81.236 63.146H72.42c-.653 0-1.24-.387-1.487-1.003l-.18-.41c-.136-.32-.158-.685-.068-1.028l5.41-20.783c.18-.707.812-1.21 1.556-1.21h11.274c3.81 0 6.177.777 7.462 2.442.924 1.21 1.15 2.784.654 4.63-.54 2.1-1.69 3.697-3.404 4.77.225.205.428.433.608.684.857 1.186 1.037 2.737.54 4.608-1.193 4.63-6.13 7.3-13.548 7.3zm1.668-8.76l-.315 1.21c1.17-.138 1.306-.64 1.396-.982.023-.045.023-.09.023-.137-.16-.045-.474-.09-.993-.09h-.113zm2.12-8.167l-.203.775c.7-.137.88-.457.947-.753-.135-.023-.315-.023-.586-.023h-.157z"/><path d="M105.427 63.557h-.563c-4.217 0-7.035-1.05-8.68-3.194-2.12-2.783-1.51-6.547-.655-9.855 1.194-4.563 3.178-12.205 15.353-12.205 4.53 0 7.552 1.05 9.175 3.194 2.232 2.92 1.195 6.935.43 9.855-1.467 5.68-4.51 12.205-15.06 12.205zm.338-8.12c.067.02.248.067.654.067 1.6 0 2.05-.707 3.155-4.996.338-1.323.924-3.513.72-4.107-.066-.02-.27-.067-.652-.067-1.6 0-2.052.707-3.157 4.996-.36 1.322-.924 3.512-.72 4.106z"/><path d="M125.762 63.557c-2.84 0-5.59-.776-7.35-2.053-.54-.388-.79-1.072-.608-1.734l1.172-4.47c.18-.71.79-1.188 1.51-1.21l.857-.023c.406-.023.767.137 1.083.388.88.752 2.434 1.23 4.035 1.23 1.31 0 2.053-.18 2.323-.386-.45-.298-1.375-.686-2.03-.96-2.794-1.163-7.484-3.102-6.063-8.486 1.262-4.814 5.884-7.55 12.737-7.55 3.833 0 6.11.66 8.094 2.326.475.41.677 1.05.52 1.665l-1.173 4.494c-.18.706-.81 1.186-1.533 1.208h-.608c-.43 0-.835-.16-1.15-.48-.7-.706-2.165-1.185-3.743-1.185-.947 0-1.578.09-1.984.228.405.184.88.39 1.262.526 2.683 1.095 7.665 3.125 6.245 8.51-.947 3.65-4.08 7.96-13.595 7.96z"/><path d="M145.444 63.557c-2.84 0-5.59-.776-7.35-2.053-.54-.388-.79-1.072-.608-1.734 0 0 .79-3.034 1.172-4.47.18-.71.79-1.188 1.51-1.21l.835-.023c.383-.023.766.137 1.06.388.878.752 2.434 1.23 4.035 1.23 1.307 0 2.03-.18 2.322-.364-.45-.295-1.375-.683-2.03-.957-2.795-1.163-7.462-3.125-6.064-8.486 1.263-4.814 5.884-7.552 12.738-7.552 3.833 0 6.11.662 8.094 2.327.473.41.676 1.05.518 1.666 0 0-.834 3.148-1.172 4.494-.18.707-.79 1.186-1.51 1.21l-.61-.024c-.428 0-.856-.16-1.172-.48-.72-.73-2.186-1.185-3.72-1.185-.946 0-1.578.09-1.984.228.406.184.88.39 1.263.526 2.684 1.095 7.666 3.125 6.246 8.51-.924 3.65-4.036 7.96-13.572 7.96z"/></g><g fill="#FFF"><path d="M80.11 62.234h-8.816c-.654 0-1.24-.388-1.488-1.004l-.18-.41c-.136-.32-.16-.685-.068-1.027l5.41-20.783c.18-.707.812-1.21 1.556-1.21h11.272c3.81 0 6.178.776 7.463 2.442.923 1.21 1.15 2.783.653 4.63-.54 2.1-1.69 3.697-3.405 4.77.226.204.43.432.61.683.856 1.187 1.036 2.738.54 4.61-1.195 4.63-6.132 7.3-13.55 7.3zm1.667-8.76l-.316 1.21c1.174-.138 1.31-.64 1.4-.982.022-.046.022-.092.022-.137-.158-.046-.474-.09-.992-.09h-.113zm2.12-8.168l-.204.776c.7-.137.88-.456.947-.753-.135-.024-.315-.024-.586-.024h-.158z"/><path d="M104.3 62.645H103.735c-4.216 0-7.034-1.05-8.68-3.194-2.12-2.783-1.51-6.547-.654-9.855 1.195-4.562 3.18-12.205 15.353-12.205 4.532 0 7.553 1.05 9.176 3.194 2.233 2.92 1.196 6.935.43 9.855-1.466 5.68-4.51 12.205-15.06 12.205zm.338-8.122c.067.023.248.068.653.068 1.602 0 2.053-.706 3.158-4.995.338-1.323.924-3.513.72-4.106-.067-.024-.27-.07-.653-.07-1.6 0-2.05.708-3.156 4.997-.362 1.323-.925 3.513-.722 4.106z"/><path d="M124.635 62.645c-2.84 0-5.59-.776-7.35-2.054-.54-.386-.79-1.07-.608-1.732l1.172-4.472c.18-.707.788-1.186 1.51-1.21l.856-.022c.406-.023.767.137 1.082.388.88.753 2.435 1.232 4.036 1.232 1.307 0 2.05-.183 2.322-.388-.45-.296-1.375-.684-2.03-.958-2.795-1.164-7.484-3.103-6.064-8.487 1.263-4.812 5.885-7.55 12.738-7.55 3.833 0 6.11.662 8.094 2.327.473.41.676 1.05.518 1.665l-1.172 4.495c-.18.707-.812 1.186-1.533 1.21h-.61c-.427 0-.833-.16-1.15-.48-.697-.707-2.163-1.187-3.74-1.187-.948 0-1.58.092-1.985.23.406.18.88.386 1.263.523 2.682 1.095 7.665 3.126 6.245 8.51-.947 3.65-4.08 7.962-13.595 7.962z"/><path d="M144.317 62.645c-2.84 0-5.59-.776-7.35-2.054-.54-.386-.79-1.07-.61-1.732 0 0 .79-3.035 1.174-4.472.18-.707.79-1.186 1.51-1.21l.835-.022c.384-.023.767.137 1.06.388.88.753 2.435 1.232 4.035 1.232 1.308 0 2.03-.183 2.323-.365-.45-.298-1.376-.685-2.03-.96-2.795-1.163-7.462-3.125-6.064-8.486 1.26-4.813 5.883-7.55 12.737-7.55 3.832 0 6.11.66 8.093 2.326.474.41.677 1.05.52 1.665 0 0-.835 3.15-1.173 4.495-.18.707-.79 1.186-1.51 1.21l-.61-.024c-.428 0-.856-.16-1.172-.48-.72-.73-2.187-1.186-3.72-1.186-.947 0-1.578.092-1.984.23.407.18.88.386 1.264.523 2.683 1.095 7.665 3.126 6.245 8.51-.926 3.65-4.037 7.962-13.573 7.962z"/></g><g fill="#6D1B00"><path d="M71.43 60.477c.765-2.965 5.41-20.783 5.41-20.783h11.272c5.41 0 7.44 1.688 6.56 5.042-.608 2.327-2.254 4.563-6.763 5.133l-.023.068c4.576.273 5.185 2.395 4.53 4.86-1.08 4.128-5.793 6.09-12.038 6.09h-8.816l-.135-.41zm8.25-3.855h1.353c2.074 0 3.27-.685 3.675-2.236.406-1.55-.43-2.258-2.503-2.258h-1.352l-1.173 4.494zm2.255-8.578h1.353c1.78 0 2.885-.662 3.246-2.1.383-1.46-.406-1.96-2.142-1.96h-1.398l-1.06 4.06zM118.142 50.28c-1.285 4.95-3.765 11.133-13.798 11.02-10.1.113-9.356-6.047-8.07-11.02 1.284-4.95 3.11-11.02 13.797-11.02 10.71.024 9.357 6.07 8.072 11.02zm-12.558 6.205c3.044 0 3.72-2.373 4.712-6.205.992-3.833 1.556-6.206-1.488-6.206-3.043 0-3.72 2.373-4.712 6.206-.97 3.832-1.555 6.205 1.488 6.205zM137.87 45.74c-.993-1.004-2.82-1.666-4.87-1.666-1.94 0-3.788.388-4.127 1.69-.63 2.462 9.807 2.28 8.117 8.782-1.15 4.426-5.276 6.73-12.062 6.73-2.457 0-4.915-.662-6.403-1.757 0 0 .79-3.035 1.173-4.472l.856-.023c1.173.98 3.066 1.597 5.073 1.597 2.953 0 3.787-.82 4.035-1.757.812-3.125-10.032-2.555-8.274-9.285 1.038-4.015 4.983-6.342 11.183-6.342 3.63 0 5.457.593 7.08 1.962 0 0-.834 3.17-1.172 4.494l-.61.046zM157.55 45.74c-.99-1.004-2.818-1.666-4.847-1.666-1.938 0-3.787.388-4.125 1.69-.654 2.462 9.807 2.28 8.116 8.782-1.15 4.426-5.276 6.73-12.062 6.73-2.457 0-4.915-.662-6.402-1.757 0 0 .79-3.035 1.172-4.472l.857-.023c1.17.98 3.065 1.597 5.07 1.597 2.955 0 3.79-.82 4.037-1.757.81-3.125-10.033-2.555-8.274-9.285 1.037-4.015 4.982-6.342 11.182-6.342 3.63 0 5.456.593 7.08 1.962 0 0-.812 3.148-1.173 4.494l-.63.046z"/></g><g fill="#DC0814"><path d="M70.91 60.044c.767-2.966 5.41-20.783 5.41-20.783h11.274c5.41 0 7.44 1.69 6.56 5.043-.61 2.304-2.254 4.562-6.763 5.133l-.022.068c4.577.274 5.185 2.395 4.532 4.86-1.082 4.13-5.794 6.09-12.04 6.09h-8.814l-.136-.41zm8.252-3.878h1.352c2.075 0 3.27-.685 3.675-2.236.405-1.55-.43-2.26-2.503-2.26h-1.353l-1.172 4.496zm2.232-8.578h1.352c1.78 0 2.886-.662 3.247-2.1.383-1.46-.406-1.96-2.142-1.96h-1.397l-1.06 4.06zM117.623 49.846c-1.285 4.95-3.765 11.133-13.797 11.02-10.1.113-9.356-6.046-8.07-11.02 1.284-4.95 3.11-11.02 13.796-11.02 10.687.024 9.357 6.07 8.07 11.02zm-12.557 6.206c3.043 0 3.72-2.373 4.712-6.206.992-3.832 1.555-6.205-1.488-6.205-3.044 0-3.72 2.374-4.712 6.206-.992 3.833-1.556 6.206 1.488 6.206zM137.35 45.306c-.992-1.003-2.818-1.642-4.87-1.642-1.938 0-3.787.388-4.125 1.688-.654 2.464 9.807 2.28 8.116 8.783-1.15 4.426-5.297 6.73-12.06 6.73-2.458 0-4.915-.66-6.403-1.756 0 0 .79-3.036 1.172-4.473l.833-.023c1.15.98 3.066 1.62 5.073 1.62 2.953 0 3.787-.82 4.035-1.757.813-3.125-10.03-2.555-8.273-9.285 1.037-4.015 4.983-6.342 11.183-6.342 3.63 0 5.456.593 7.08 1.962 0 0-.835 3.17-1.174 4.494h-.586zM157.01 45.306c-.993-1.003-2.82-1.642-4.848-1.642-1.94 0-3.765.388-4.103 1.688-.632 2.464 9.806 2.28 8.115 8.783-1.15 4.426-5.275 6.73-12.06 6.73-2.46 0-4.916-.66-6.404-1.756 0 0 .79-3.036 1.173-4.473l.834-.023c1.173.98 3.067 1.62 5.073 1.62 2.953 0 3.788-.82 4.036-1.757.81-3.125-10.033-2.555-8.274-9.285 1.037-4.015 5.005-6.342 11.182-6.342 3.63 0 5.456.593 7.08 1.962 0 0-.835 3.148-1.173 4.494h-.63z"/></g><path d="M165.065 72.508c-1.942 0-3.28-1.418-3.28-3.31 0-2.018 1.51-3.308 3.28-3.308 1.77 0 3.28 1.332 3.28 3.31-.044 1.976-1.554 3.308-3.28 3.308zm0-6.06c-1.467 0-2.59 1.118-2.59 2.75 0 1.505.993 2.75 2.59 2.75 1.424 0 2.546-1.116 2.546-2.75 0-1.632-1.12-2.75-2.545-2.75zm-.69 4.642h-.604v-3.696h1.424c.906 0 1.338.3 1.338 1.075 0 .686-.432.944-.95.987l1.036 1.633h-.69l-.95-1.59h-.56v1.59h-.043zm.69-2.063c.475 0 .863-.043.863-.6 0-.43-.432-.517-.82-.517h-.733v1.074h.69v.043z" fill="#000"/></g></g></svg>