<svg width="95" height="100" viewBox="0 0 95 100" xmlns="http://www.w3.org/2000/svg"><title>bossrevolution</title><g fill="none" fill-rule="evenodd"><path d="M2.734 5.912c.25-.4.933-.435 1.533-.067.617.35.9.97.667 1.37-.25.368-.934.402-1.534.05-.616-.35-.9-.97-.666-1.353zm2.35 1.654L16.8 14.62l.167-.3L5.25 7.28" id="Shape" fill="#000"/><path d="M16.25 15.924c-.2.317-.283.685-.283 1.053 0 .6.233 1.236.633 1.805.417.585 1 1.12 1.717 1.554l38.25 22.498c.883.518 1.833.785 2.667.785.483 0 .933-.09 1.316-.27.384-.19.717-.45.934-.81L67.95 32c.2-.317.3-.685.284-1.052 0-.602-.234-1.22-.65-1.805-.4-.585-1-1.12-1.717-1.555L27.65 5.093c-.883-.518-1.833-.786-2.666-.786-.484 0-.934.084-1.317.268-.383.167-.733.45-.95.802L16.25 15.924z" fill="#FFF"/><path d="M23.1 5.61c.167-.267.434-.467.75-.618.317-.15.7-.217 1.134-.217.75 0 1.616.234 2.433.72l38.25 22.496c.667.39 1.2.89 1.567 1.43.366.52.566 1.07.566 1.54 0 .3-.066.57-.216.802L61.117 42.3c-.167.266-.417.483-.733.617-.317.15-.7.217-1.134.217-.75 0-1.616-.234-2.433-.718L18.55 19.918c-.666-.4-1.2-.886-1.566-1.42-.367-.52-.567-1.07-.567-1.538 0-.3.067-.568.217-.802L23.1 5.61l-.383-.233-6.467 10.547c-.2.317-.283.685-.283 1.053 0 .6.233 1.236.633 1.805.417.585 1 1.12 1.717 1.554l38.25 22.498c.883.518 1.833.785 2.667.785.483 0 .933-.09 1.316-.27.384-.19.717-.45.934-.81L67.95 32c.2-.317.3-.685.284-1.052 0-.602-.234-1.22-.65-1.805-.4-.585-1-1.12-1.717-1.555L27.65 5.093c-.883-.518-1.833-.786-2.666-.786-.484 0-.934.084-1.317.268-.383.167-.733.45-.95.802l.383.234zm16.934 22.716l14.033 8.256.2-.334-14.033-8.257-.2.34zm2.366.184l.867-1.455 2.333 1.37-.85 1.388-2.35-1.304-.65.08 3.167 1.85 1.35-2.19L43.1 26.4l-1.35 2.19.65-.083zm3.33 1.938l.854-1.37 2.35 1.37-.85 1.388-2.355-1.388-.65.184 3.16 1.855 1.334-2.19-3.15-1.854-1.35 2.19.645-.185zm1.438-2.29l.866-1.454 2.333 1.37-.85 1.388-2.35-1.304-.65.084 3.167 1.855 1.333-2.19-3.15-1.855-1.35 2.19.65-.084zm1.98 4.246l.836-1.387 2.333 1.387-.85 1.387-2.32-1.38-.68.17 3.167 1.856 1.35-2.19-3.167-1.855-1.35 2.19.68-.166z" id="Shape" fill="#000"/><path d="M23.417 19.266c-.2-.117-.367-.267-.467-.417-.116-.16-.15-.31-.15-.42 0-.07.017-.14.05-.19L28 9.84c.034-.067.1-.117.167-.15.083-.034.183-.068.317-.068.216 0 .483.067.733.218l12.95 7.605c.2.117.367.267.467.417.1.15.15.3.15.418 0 .067-.017.134-.05.184l-5.167 8.407c-.033.07-.1.11-.167.16-.083.034-.183.068-.316.068-.217 0-.484-.067-.734-.22L23.417 19.27l-.217.417 12.934 7.59c.316.182.65.283.966.283.184 0 .35-.034.5-.1.15-.067.284-.184.384-.335l5.15-8.407c.083-.134.116-.284.116-.435 0-.233-.1-.483-.233-.684-.15-.22-.367-.4-.617-.57L29.45 9.42c-.316-.184-.65-.284-.966-.284-.184 0-.35.032-.5.1-.15.066-.284.183-.384.333l-5.15 8.404c-.083.13-.116.28-.116.43 0 .25.083.486.25.703.15.217.366.4.616.57l.217-.418z" id="Shape" fill="#000"/><path d="M38.75 11.946l6.567 1.67-2.45 5.684-7.333-.77 3.216-6.584z" id="Shape" fill="#FFF"/><path d="M36.02 18.257l2.847-6.044 6.117 1.57-2.267 5.266-6.697-.8-.853.473 7.85.82 2.617-6.085-7.017-1.806-3.45 7.07.853-.474z" id="Shape" fill="#000"/><path d="M46.817 14.052l6.117 2.457-3.517 8.1-.617-4.6-4.583-.62 2.6-5.348z" id="Shape" fill="#FFF"/><path d="M46.894 14.315l5.723 2.31-3.083 7.12L49 19.82l-4.433-.602 2.327-4.9-.154-.53-2.873 5.815 4.717.636.716 5.24 3.934-9.11-6.494-2.59.154.53z" id="Shape" fill="#000"/><path d="M54.75 17.78l-6.716 11.95 5.2 1.838L59.5 20.386l-4.75-2.607z" id="Shape" fill="#FFF"/><path d="M54.667 17.46L47.7 29.864l5.65 2.006 6.484-11.584-5.167-2.825.187.62 4.33 2.4-6.05 10.814-4.75-1.69 6.47-11.52-.187-.614z" id="Shape" fill="#000"/><path d="M61.184 22.074l-5.05 9.66 3.216 1.522 5.5-7.805-3.666-3.37z" id="Shape" fill="#FFF"/><path d="M61.117 21.69l-5.3 10.146 3.617 1.704 5.733-8.123-4.05-3.727.122.776 3.29 3.018-5.27 7.47-2.82-1.336 4.79-9.152-.123-.776z" id="Shape" fill="#000"/><path d="M58.4 42.583L45.25 34.76l-3.35-4.746-4.75-.62 1.217-1.22-1.217-1.37 3.534 1.22 7.033-2.306-.317-4.128-14.366-2.006-6.884 11.03L39 47.48l-1.066 26.893H56.5l-1.45-27.98c-.016.017 2.017-2.39 3.35-3.81" id="Shape" fill="#FFF"/><path d="M58.733 42.533l-13.346-7.94-3.378-4.797-4.38-.568 1.05-1.053-.79-.87 2.76.954 7.257-2.39-.333-4.5-14.66-2.04-7.04 11.3L38.74 47.56l-1.064 26.83H56.7l-1.46-28 3.493-3.86-.73.115c-1.348 1.42-3.18 3.61-3.18 3.61l1.398 27.66H38.15l1.05-26.51L26.415 30.6l6.707-10.765 14.01 1.955.284 3.76-6.773 2.24-3.444-1.203-.25.368 1.08 1.203-1.4 1.404 5.11.67 3.31 4.712L58 42.65" id="Shape" fill="#000"/><path d="M81.283 82.413H78.9v4.948l-1.6-4.94h-2.383V93.4H77.3v-5l1.483 4.997h2.5V82.413zm-7.4 6.435V86.96c0-1.12-.033-1.923-.083-2.374-.05-.45-.217-.87-.5-1.253-.283-.385-.667-.67-1.133-.87-.467-.183-1-.284-1.584-.284-.616 0-1.166.1-1.633.3-.467.2-.833.5-1.1.87-.267.38-.433.8-.483 1.25-.05.45-.084 1.23-.084 2.34v1.89c0 1.13.034 1.92.084 2.37.05.45.216.87.5 1.25.283.383.666.667 1.133.87.467.183 1 .283 1.583.283.617 0 1.15-.1 1.617-.3.467-.203.833-.503 1.1-.888.283-.37.45-.77.5-1.238.05-.45.083-1.24.083-2.34zm-2.85 1.438c0 .635-.033 1.053-.083 1.22-.05.167-.183.267-.367.267-.183 0-.316-.067-.366-.217-.05-.15-.084-.535-.084-1.17v-5.13c0-.57.05-.904.117-1.02.083-.118.2-.168.35-.168.183 0 .3.067.35.217.05.15.083.468.083.986v5.02zm-4.966 3.11V82.412h-2.85v10.982h2.85zm-3.85-8.81V82.38H55.95v2.206h1.7v8.825h2.867v-8.82h1.7zm-7.434 5.165v-7.33h-2.85v8.09c0 .555-.033.89-.083 1.04-.05.15-.167.217-.35.217-.15 0-.267-.066-.317-.2-.05-.134-.083-.435-.083-.92V82.4h-2.85v6.5c0 1.238.017 2.057.067 2.442.05.382.183.75.433 1.1.25.35.617.636 1.117.853.5.218 1.083.318 1.733.318.6 0 1.1-.082 1.55-.266.433-.183.783-.45 1.05-.802.283-.35.45-.7.5-1.035.05-.334.083-.92.083-1.755zm-7.35 3.65v-2.21h-1.716V82.4h-2.85v10.996h4.566zm-5.616-4.543v-1.89c0-1.12-.034-1.922-.084-2.373-.05-.45-.216-.87-.5-1.253-.283-.385-.666-.67-1.133-.87-.467-.183-1-.284-1.583-.284-.617 0-1.167.1-1.634.3-.466.2-.833.5-1.1.87-.283.382-.433.8-.483 1.25-.05.45-.067 1.238-.067 2.34v1.89c0 1.136.034 1.92.084 2.373.05.45.233.87.516 1.253.284.38.667.665 1.134.866.466.183 1 .283 1.583.283.617 0 1.167-.1 1.633-.3.467-.203.834-.503 1.117-.89.217-.366.383-.77.433-1.235.05-.45.084-1.237.084-2.34zm-2.85 1.438c0 .636-.034 1.054-.084 1.22-.05.168-.183.268-.366.268-.2 0-.317-.066-.367-.216-.05-.15-.083-.534-.083-1.17v-5.13c0-.57.05-.903.116-1.02.084-.117.2-.167.35-.167.184 0 .3.064.35.214.05.15.084.47.084.987v5.02zm-4.15-7.872h-3S31.3 88 31.15 90.11c-.15-2.09-.4-4.65-.75-7.69h-3l1.65 10.98h4.317l1.45-10.983zM27.233 93.4v-2.21H25.15v-2.41h1.783v-2.088H25.15v-2.09h1.9v-2.205H22.3v10.998h4.933zm-6.033 0v-2.893c0-.886-.017-1.42-.067-1.62-.05-.202-.166-.42-.366-.653-.2-.232-.567-.416-1.134-.566.617-.05 1.034-.234 1.25-.535.217-.3.317-.87.317-1.722 0-.93-.15-1.62-.45-2.04-.3-.43-.683-.7-1.167-.8-.483-.1-1.383-.15-2.733-.15h-2.017V93.4h2.85v-4.95c.384 0 .634.066.717.216.1.134.133.502.133 1.087v3.645H21.2zm-2.65-7.657c0 .485-.067.77-.183.87-.134.083-.35.133-.667.133V84.29c.333 0 .55.05.683.166.117.117.184.335.184.686v.6h-.017z" fill="#000"/><g fill-opacity=".2" fill="#000"><path d="M23.3 79.99h-6.517c-.483 0-.916-.285-1.1-.736l-.133-.3c-.1-.235-.117-.502-.05-.753l4-15.22c.133-.52.6-.883 1.15-.883h8.333c2.817 0 4.567.57 5.517 1.79.683.885.85 2.038.483 3.39-.4 1.54-1.25 2.71-2.516 3.495.166.15.316.318.45.5.633.87.766 2.006.4 3.377C32.433 78.042 28.783 80 23.3 80zm1.233-6.42l-.233.887c.867-.1.967-.468 1.033-.72.017-.032.017-.066.017-.1-.117-.032-.35-.066-.733-.066h-.084zm1.567-5.983l-.15.57c.517-.102.65-.336.7-.553-.1-.017-.233-.017-.433-.017H26.1z" id="Shape"/><path d="M41.183 80.29h-.416c-3.117 0-5.2-.77-6.417-2.34-1.567-2.04-1.117-4.797-.483-7.22.883-3.343 2.35-8.942 11.35-8.942 3.35 0 5.583.768 6.783 2.34 1.65 2.14.883 5.08.317 7.22-1.084 4.162-3.334 8.942-11.134 8.942zm.25-5.95c.05.017.184.05.484.05 1.183 0 1.516-.518 2.333-3.66.25-.97.683-2.574.533-3.01-.05-.016-.2-.05-.483-.05-1.183 0-1.517.52-2.333 3.66-.267.97-.684 2.575-.534 3.01z"/><path d="M56.217 80.29c-2.1 0-4.134-.568-5.434-1.504-.4-.284-.583-.786-.45-1.27l.867-3.276c.133-.518.583-.87 1.117-.886l.633-.017c.3-.017.567.1.8.284.65.56 1.8.91 2.983.91.967 0 1.517-.13 1.717-.28-.333-.218-1.017-.5-1.5-.7-2.067-.855-5.533-2.275-4.483-6.22.933-3.527 4.35-5.53 9.416-5.53 2.834 0 4.517.482 5.984 1.702.35.3.5.77.383 1.22l-.867 3.293c-.133.518-.6.87-1.133.886h-.45c-.317 0-.617-.116-.85-.35-.517-.52-1.6-.87-2.767-.87-.7 0-1.166.068-1.466.168.3.134.65.284.933.385 1.983.8 5.667 2.29 4.617 6.235-.7 2.674-3.017 5.833-10.05 5.833z"/><path d="M70.767 80.29c-2.1 0-4.134-.568-5.434-1.504-.4-.284-.583-.786-.45-1.27 0 0 .584-2.223.867-3.276.133-.518.583-.87 1.117-.886l.616-.017c.284-.017.567.1.784.284.65.56 1.8.91 2.983.91.967 0 1.5-.13 1.717-.27-.334-.213-1.017-.5-1.5-.7-2.067-.85-5.517-2.29-4.484-6.215.934-3.527 4.35-5.533 9.417-5.533 2.833 0 4.517.485 5.983 1.705.35.3.5.77.384 1.22 0 0-.617 2.31-.867 3.295-.133.516-.583.87-1.117.884l-.45-.017c-.316 0-.633-.116-.866-.35-.534-.535-1.617-.87-2.75-.87-.7 0-1.167.07-1.467.17.3.132.65.282.933.383 1.984.804 5.667 2.29 4.617 6.236-.683 2.674-2.983 5.833-10.033 5.833z"/></g><g fill="#FFF"><path d="M22.467 79.32H15.95c-.483 0-.916-.283-1.1-.734l-.133-.3c-.1-.235-.117-.502-.05-.753l4-15.227c.133-.518.6-.886 1.15-.886h8.333c2.817 0 4.567.57 5.517 1.79.683.885.85 2.038.483 3.392-.4 1.538-1.25 2.708-2.516 3.493.166.15.316.318.45.502.633.87.766 2.005.4 3.376-.884 3.393-4.534 5.348-10.017 5.348zm1.233-6.417l-.233.886c.867-.1.967-.47 1.033-.72.017-.04.017-.07.017-.1-.117-.04-.35-.07-.733-.07H23.7zm1.567-5.984l-.15.56c.517-.1.65-.336.7-.55-.1-.02-.233-.02-.433-.02h-.117z"/><path d="M40.35 79.622h-.416c-3.117 0-5.2-.77-6.417-2.34-1.567-2.04-1.117-4.797-.483-7.22.883-3.343 2.35-8.942 11.35-8.942 3.35 0 5.583.768 6.783 2.34 1.65 2.14.883 5.08.317 7.22-1.084 4.162-3.334 8.942-11.134 8.942zm.25-5.95c.05.017.184.05.484.05 1.183 0 1.516-.518 2.333-3.66.25-.97.683-2.574.533-3.01-.05-.016-.2-.05-.483-.05-1.183 0-1.517.52-2.333 3.66-.267.97-.684 2.575-.534 3.01z"/><path d="M55.384 79.622c-2.1 0-4.134-.568-5.434-1.504-.4-.284-.583-.786-.45-1.27l.867-3.276c.133-.518.583-.87 1.117-.886l.633-.017c.3-.02.567.1.8.28.65.55 1.8.9 2.983.9.967 0 1.517-.137 1.717-.287-.333-.218-1.017-.5-1.5-.7-2.067-.855-5.533-2.275-4.483-6.22.933-3.527 4.35-5.53 9.416-5.53 2.834 0 4.517.482 5.984 1.702.35.3.5.77.383 1.22l-.867 3.292c-.133.517-.6.87-1.133.885h-.45c-.317 0-.617-.117-.85-.35-.517-.52-1.6-.87-2.767-.87-.7 0-1.166.067-1.466.167.3.13.65.28.933.382 1.983.803 5.667 2.29 4.617 6.235-.7 2.674-3.017 5.833-10.05 5.833z"/><path d="M69.934 79.622c-2.1 0-4.134-.568-5.434-1.504-.4-.284-.583-.786-.45-1.27 0 0 .584-2.223.867-3.276.133-.518.583-.87 1.117-.886l.616-.017c.284-.02.567.1.784.28.65.55 1.8.9 2.983.9.967 0 1.5-.137 1.717-.27-.334-.218-1.017-.5-1.5-.7-2.067-.85-5.517-2.29-4.484-6.22.934-3.527 4.35-5.533 9.417-5.533 2.833 0 4.517.485 5.983 1.705.35.3.5.77.384 1.22 0 0-.617 2.307-.867 3.293-.133.52-.583.87-1.117.884l-.45-.02c-.316 0-.633-.12-.866-.35-.534-.537-1.617-.87-2.75-.87-.7 0-1.167.066-1.467.166.3.133.65.283.933.384 1.984.8 5.667 2.29 4.617 6.234-.683 2.672-2.983 5.83-10.033 5.83z"/></g><path d="M16.05 78.034c.567-2.173 4-15.227 4-15.227h8.333c4 0 5.5 1.237 4.85 3.694-.45 1.71-1.666 3.35-5 3.77l-.016.05c3.383.2 3.833 1.756 3.35 3.56-.8 3.027-4.284 4.464-8.9 4.464H16.15l-.1-.3zm6.1-2.825h1c1.533 0 2.417-.51 2.717-1.64.3-1.14-.317-1.66-1.85-1.66h-1l-.867 3.29zm1.667-6.29h1c1.316 0 2.133-.49 2.4-1.54.283-1.07-.3-1.44-1.584-1.44H24.6l-.783 2.975zm26.766 1.64c-.95 3.622-2.783 8.15-10.2 8.07-7.466.08-6.916-4.43-5.966-8.075.95-3.627 2.3-8.073 10.2-8.073 7.916.016 6.916 4.445 5.966 8.072zM41.3 75.11c2.25 0 2.75-1.74 3.483-4.547.734-2.808 1.15-4.546-1.1-4.546s-2.75 1.738-3.483 4.546c-.717 2.808-1.15 4.546 1.1 4.546zm23.867-7.873c-.734-.736-2.084-1.22-3.6-1.22-1.434 0-2.8.284-3.05 1.236-.467 1.806 7.25 1.672 6 6.435-.85 3.243-3.9 4.93-8.917 4.93-1.817 0-3.633-.484-4.733-1.286 0 0 .583-2.223.866-3.276l.634-.017c.866.71 2.266 1.17 3.75 1.17 2.183 0 2.8-.61 2.983-1.29.6-2.29-7.417-1.87-6.117-6.8.767-2.95 3.684-4.65 8.267-4.65 2.683 0 4.033.43 5.233 1.44 0 0-.616 2.32-.866 3.29l-.45.03zm14.55 0c-.734-.736-2.084-1.22-3.584-1.22-1.433 0-2.8.284-3.05 1.236-.483 1.806 7.25 1.672 6 6.435-.85 3.243-3.9 4.93-8.916 4.93-1.817 0-3.634-.484-4.734-1.286 0 0 .584-2.223.867-3.276l.633-.017c.867.71 2.267 1.17 3.75 1.17 2.184 0 2.8-.61 2.984-1.29.6-2.29-7.417-1.87-6.117-6.8.767-2.95 3.683-4.65 8.267-4.65 2.683 0 4.033.43 5.233 1.44 0 0-.6 2.3-.867 3.29l-.466.03z" fill="#6D1B00"/><path d="M15.667 77.717c.567-2.173 4-15.227 4-15.227H28c4 0 5.5 1.237 4.85 3.694-.45 1.688-1.666 3.343-5 3.76l-.016.05c3.383.2 3.833 1.756 3.35 3.56-.8 3.026-4.284 4.464-8.9 4.464h-6.517l-.1-.3zm6.1-2.842h1c1.533 0 2.417-.5 2.717-1.638.3-1.136-.317-1.654-1.85-1.654h-1l-.867 3.292zm1.65-6.284h1c1.317 0 2.133-.48 2.4-1.53.283-1.07-.3-1.435-1.583-1.435H24.2l-.783 2.975zM50.2 70.25c-.95 3.627-2.783 8.156-10.2 8.073-7.466.08-6.916-4.43-5.966-8.074.95-3.63 2.3-8.08 10.2-8.08 7.9.017 6.916 4.447 5.966 8.074zm-9.283 4.546c2.25 0 2.75-1.738 3.483-4.546.734-2.808 1.15-4.547-1.1-4.547s-2.75 1.738-3.483 4.546c-.733 2.802-1.15 4.54 1.1 4.54zm23.867-7.872c-.734-.735-2.084-1.203-3.6-1.203-1.434 0-2.8.29-3.05 1.24-.484 1.807 7.25 1.67 6 6.437-.85 3.24-3.917 4.93-8.917 4.93-1.817 0-3.633-.484-4.733-1.286 0 0 .583-2.223.866-3.276l.617-.016c.85.718 2.267 1.186 3.75 1.186 2.183 0 2.8-.603 2.983-1.288.6-2.29-7.416-1.874-6.116-6.805.766-2.942 3.683-4.647 8.266-4.647 2.684 0 4.034.434 5.234 1.437 0 0-.617 2.32-.867 3.29h-.433zm14.533 0c-.733-.735-2.083-1.203-3.583-1.203-1.434 0-2.784.29-3.034 1.24-.466 1.807 7.25 1.67 6 6.437-.85 3.24-3.9 4.93-8.916 4.93-1.817 0-3.634-.484-4.734-1.286 0 0 .584-2.223.867-3.276l.617-.016c.866.718 2.266 1.186 3.75 1.186 2.183 0 2.8-.603 2.983-1.288.6-2.29-7.417-1.874-6.117-6.805.767-2.942 3.7-4.647 8.267-4.647 2.683 0 4.033.434 5.233 1.437 0 0-.616 2.303-.866 3.29h-.467z" fill="#DC0814"/><path d="M70.5 28.763c-.75 0-1.267-.552-1.267-1.287 0-.786.584-1.287 1.267-1.287.683 0 1.267.51 1.267 1.28-.017.77-.6 1.284-1.267 1.284zm0-2.357c-.567 0-1 .435-1 1.07 0 .585.383 1.07 1 1.07.55 0 .983-.435.983-1.07s-.433-1.07-.983-1.07zm-.267 1.805H70v-1.43h.55c.35 0 .517.12.517.42 0 .27-.167.37-.367.386l.4.634h-.267l-.366-.618h-.217v.618h-.017zm.267-.8c.183 0 .333-.01.333-.23 0-.163-.166-.2-.316-.2h-.284v.42h.267v.018z" fill="#000"/></g></svg>