<svg width="100" height="140" viewBox="0 0 100 140" xmlns="http://www.w3.org/2000/svg"><title>logo-bossrevolution-en</title><g fill="none" fill-rule="evenodd"><path d="M4.767 26.19c.257-.414.962-.45 1.58-.07.637.362.93 1 .688 1.414-.257.38-.962.413-1.58.052-.637-.362-.93-1-.688-1.397zM7.19 27.896l12.083 7.274.172-.31-12.083-7.257" id="Shape" fill="#000"/><path d="M18.706 36.514c-.206.328-.292.707-.292 1.086 0 .62.24 1.276.653 1.862.43.603 1.03 1.155 1.77 1.603l39.446 23.2c.91.535 1.89.81 2.75.81.5 0 .963-.086 1.358-.275.396-.19.74-.466.963-.828l6.67-10.876c.206-.327.31-.707.29-1.086 0-.62-.24-1.258-.67-1.86-.41-.605-1.03-1.156-1.77-1.605l-39.41-23.2c-.912-.535-1.89-.81-2.75-.81-.5 0-.963.086-1.36.275-.394.173-.755.466-.978.828l-6.67 10.876z" fill="#FFF"/><path d="M25.77 25.88c.172-.277.447-.484.774-.64.326-.154.72-.223 1.168-.223.774 0 1.668.242 2.51.74L69.668 48.96c.687.396 1.237.913 1.615 1.464.378.535.585 1.103.585 1.586 0 .31-.07.586-.224.827l-6.67 10.877c-.17.276-.428.5-.755.638-.328.155-.723.224-1.17.224-.773 0-1.667-.242-2.51-.74L21.08 40.633c-.688-.414-1.238-.914-1.616-1.465-.378-.536-.584-1.105-.584-1.587 0-.31.07-.586.223-.828l6.67-10.876-.395-.242-6.67 10.876c-.205.328-.29.707-.29 1.086 0 .62.24 1.276.652 1.862.43.603 1.03 1.155 1.77 1.603l39.446 23.2c.91.535 1.89.81 2.75.81.5 0 .963-.086 1.358-.275.396-.19.74-.466.963-.828l6.67-10.876c.206-.327.31-.707.29-1.086 0-.62-.24-1.258-.67-1.86-.41-.605-1.03-1.156-1.77-1.605l-39.41-23.2c-.912-.535-1.89-.81-2.75-.81-.5 0-.963.086-1.36.275-.394.173-.755.466-.978.828l.395.24zM43.233 49.304l14.472 8.515.206-.346-14.47-8.515-.207.344zM45.673 49.494l.894-1.5 2.407 1.413-.877 1.43-2.424-1.343-.67.086 3.266 1.913 1.39-2.258-3.265-1.913-1.392 2.258.67-.086zM49.106 51.493l.882-1.413 2.423 1.413-.876 1.43-2.428-1.43-.665.19 3.266 1.913 1.375-2.258-3.247-1.913-1.392 2.258.666-.19zM50.59 49.132l.893-1.5 2.406 1.413-.877 1.43-2.423-1.343-.67.086 3.265 1.913 1.375-2.257-3.25-1.913-1.39 2.258.67-.086zM52.632 53.51l.862-1.43 2.406 1.43-.876 1.43-2.392-1.43-.702.172 3.265 1.913 1.393-2.258-3.266-1.913-1.392 2.258.702-.172z" id="Shape" fill="#000"/><path d="M26.097 39.962c-.207-.12-.378-.276-.482-.43-.12-.157-.154-.312-.154-.432 0-.07.018-.138.052-.19l5.31-8.67c.036-.07.104-.12.173-.155.086-.035.19-.07.327-.07.223 0 .498.07.756.225l13.355 7.843c.206.12.378.276.48.43.104.156.156.31.156.432 0 .07-.018.137-.053.19l-5.328 8.67c-.035.068-.104.103-.173.154-.086.034-.19.068-.326.068-.223 0-.498-.07-.756-.224l-13.337-7.842-.224.43 13.338 7.826c.327.19.67.293.998.293.19 0 .36-.033.515-.102.155-.07.293-.19.396-.345l5.31-8.67c.086-.138.12-.293.12-.448 0-.242-.103-.5-.24-.707-.155-.224-.38-.414-.637-.586L32.32 29.81c-.328-.19-.672-.294-.998-.294-.19 0-.36.035-.516.103-.155.068-.292.19-.395.344l-5.31 8.67c-.086.138-.12.293-.12.448 0 .26.085.5.257.724.155.224.378.414.636.586l.224-.43z" id="Shape" fill="#000"/><path d="M41.91 32.412l6.77 1.723-2.525 5.86-7.563-.792 3.317-6.79z" id="Shape" fill="#FFF"/><path d="M39.094 38.92l2.936-6.232 6.308 1.62L46 39.738l-6.906-.818-.88.49 8.095.845 2.698-6.275-7.236-1.86-3.558 7.29.88-.49z" id="Shape" fill="#000"/><path d="M50.228 34.584l6.308 2.533-3.626 8.36-.636-4.74-4.727-.638 2.68-5.516z" id="Shape" fill="#FFF"/><path d="M50.308 34.855l5.902 2.383-3.18 7.343-.55-4.05-4.572-.62 2.4-5.055-.16-.546-2.962 5.996 4.864.655.74 5.414 4.055-9.394-6.696-2.67.158.545z" id="Shape" fill="#000"/><path d="M58.41 38.427l-6.927 12.325 5.362 1.896 6.463-11.532-4.898-2.69z" id="Shape" fill="#FFF"/><path d="M58.324 38.1L51.14 50.89l5.826 2.068 6.686-11.945-5.328-2.913.193.633 4.465 2.47-6.24 11.152-4.898-1.74 6.673-11.882-.193-.633z" id="Shape" fill="#000"/><path d="M65.044 42.857l-5.208 9.963 3.317 1.57 5.672-8.05-3.78-3.483z" id="Shape" fill="#FFF"/><path d="M64.975 42.46L59.51 52.925l3.73 1.758 5.912-8.377-4.177-3.844.127.8 3.397 3.114-5.433 7.705-2.904-1.38 4.94-9.44-.128-.8z" id="Shape" fill="#000"/><path d="M62.174 64.007l-13.56-8.067-3.456-4.895-4.9-.638 1.256-1.258-1.255-1.415 3.643 1.26 7.253-2.38-.326-4.258-14.816-2.068-7.1 11.375 13.253 17.392-1.1 27.734h19.147L58.72 67.938c-.018.017 2.08-2.465 3.454-3.93" id="Shape" fill="#FFF"/><path d="M62.517 63.955l-13.763-8.187-3.484-4.947-4.514-.585 1.082-1.086-.807-.898 2.85.983 7.482-2.465-.343-4.637L35.9 40.03l-7.26 11.653 13.266 17.46-1.098 27.666h19.615l-1.51-28.873 3.604-3.982-.753.12c-1.39 1.466-3.28 3.724-3.28 3.724l1.442 28.526H41.288l1.082-27.338-13.18-17.34 6.916-11.1 14.45 2.016.29 3.88-6.983 2.308-3.553-1.24-.257.378 1.115 1.242-1.44 1.447 5.267.69 3.415 4.86 13.354 7.946" id="Shape" fill="#000"/><g fill="#000"><path d="M85.74 104.05h-2.457v5.103l-1.65-5.102h-2.458v11.326h2.458v-5.154l1.53 5.154h2.578V104.05zm-7.63 6.637v-1.948c0-1.155-.035-1.983-.086-2.448-.052-.466-.224-.896-.516-1.293-.292-.397-.687-.69-1.17-.897-.48-.19-1.03-.293-1.63-.293-.637 0-1.204.103-1.686.31-.48.207-.86.517-1.134.896-.275.397-.447.828-.5 1.293-.05.464-.085 1.275-.085 2.412v1.948c0 1.172.035 1.982.086 2.448.05.465.223.896.515 1.292.292.397.688.69 1.17.897.48.19 1.03.293 1.632.293.636 0 1.186-.104 1.667-.31.48-.207.86-.518 1.134-.914.292-.38.464-.793.516-1.276.05-.465.086-1.275.086-2.413zm-2.94 1.483c0 .655-.034 1.086-.085 1.258-.052.172-.19.276-.378.276-.19 0-.327-.07-.378-.224-.053-.156-.087-.552-.087-1.207v-5.292c0-.585.05-.93.12-1.05.086-.12.206-.173.36-.173.19 0 .31.07.362.225.05.155.086.482.086 1.017v5.17zm-5.12 3.206V104.05h-2.94v11.326h2.94zm-3.972-9.084v-2.275h-6.462v2.275h1.753v9.1h2.955v-9.1h1.753zm-7.665 5.326v-7.567h-2.94v8.344c0 .568-.034.913-.085 1.068-.052.155-.172.224-.36.224-.156 0-.276-.07-.328-.206-.05-.138-.086-.45-.086-.948v-8.498h-2.94v6.705c0 1.274.018 2.12.07 2.516.05.396.19.775.447 1.137.26.362.637.655 1.152.88.516.223 1.118.327 1.788.327.62 0 1.134-.086 1.598-.276.447-.19.808-.465 1.083-.827.293-.362.465-.724.517-1.07.05-.344.086-.947.086-1.81zm-7.58 3.758V113.1h-1.77v-9.066h-2.94v11.342h4.71zm-5.792-4.69v-1.947c0-1.155-.034-1.983-.085-2.448-.052-.466-.224-.896-.516-1.293-.293-.397-.688-.69-1.17-.897-.48-.19-1.03-.293-1.633-.293-.635 0-1.203.103-1.684.31-.48.207-.86.517-1.134.896-.294.397-.448.828-.5 1.293-.05.464-.07 1.275-.07 2.412v1.948c0 1.172.036 1.982.087 2.448.052.465.24.896.533 1.292.292.397.688.69 1.17.897.48.19 1.03.293 1.632.293.636 0 1.203-.104 1.684-.31.48-.207.86-.518 1.152-.914.223-.38.395-.793.447-1.276.05-.465.086-1.275.086-2.413zm-2.938 1.484c0 .655-.035 1.086-.086 1.258-.052.172-.19.276-.38.276-.205 0-.325-.07-.377-.224-.052-.156-.087-.552-.087-1.207v-5.292c0-.585.052-.93.12-1.05.087-.12.207-.173.362-.173.19 0 .31.07.36.225.052.155.087.482.087 1.017v5.17zm-4.28-8.12h-3.094s-.533 5.758-.688 7.93c-.154-2.155-.412-4.792-.773-7.93h-3.094l1.702 11.326h4.45l1.497-11.325zm-7.82 11.326V113.1h-2.15v-2.482h1.84v-2.154h-1.84v-2.155h1.96v-2.276h-4.898v11.342H30zm-6.223 0v-2.982c0-.914-.018-1.465-.07-1.672-.05-.207-.17-.43-.377-.673-.207-.242-.585-.43-1.17-.587.637-.05 1.066-.24 1.29-.55.223-.31.326-.897.326-1.777 0-.965-.155-1.672-.465-2.102-.31-.45-.704-.724-1.203-.828-.498-.103-1.426-.155-2.82-.155h-2.078v11.326h2.94v-5.102c.394 0 .652.068.738.224.103.138.137.517.137 1.12v3.758h2.75zm-2.733-7.895c0 .5-.07.794-.19.897-.137.087-.36.138-.687.138v-2.533c.344 0 .567.05.705.172.12.12.19.345.19.707v.62h-.018z"/></g><g><g fill-opacity=".2" fill="#000"><path d="M25.945 101.552h-6.72c-.5 0-.946-.293-1.135-.758l-.137-.31c-.104-.242-.12-.518-.052-.776l4.126-15.703c.138-.534.62-.914 1.186-.914h8.594c2.905 0 4.71.587 5.69 1.846.704.913.876 2.103.497 3.5-.412 1.585-1.29 2.79-2.595 3.6.172.156.327.33.464.518.653.897.79 2.07.413 3.482-.91 3.5-4.675 5.516-10.33 5.516zm1.272-6.62l-.24.915c.893-.104.996-.483 1.065-.74.017-.036.017-.07.017-.105-.12-.034-.362-.07-.757-.07h-.086zm1.615-6.17l-.154.586c.533-.103.67-.344.722-.568-.104-.018-.24-.018-.447-.018h-.12z" id="Shape"/><path d="M44.387 101.862h-.429c-3.215 0-5.363-.793-6.618-2.413-1.615-2.104-1.15-4.948-.498-7.447.91-3.447 2.423-9.222 11.705-9.222 3.454 0 5.758.794 6.995 2.414 1.702 2.207.91 5.24.327 7.447-1.12 4.293-3.44 9.222-11.483 9.222zm.258-6.136c.052.017.19.052.5.052 1.22 0 1.563-.535 2.405-3.775.258-1 .705-2.655.55-3.103-.052-.017-.206-.05-.5-.05-1.22 0-1.563.533-2.405 3.773-.275 1-.705 2.655-.55 3.103z" id="Shape"/><path d="M59.89 101.862c-2.165 0-4.262-.586-5.603-1.55-.412-.294-.6-.81-.464-1.31l.894-3.38c.138-.534.602-.896 1.152-.913l.652-.018c.31-.017.584.103.825.293.67.57 1.856.93 3.076.93.997 0 1.565-.137 1.77-.292-.343-.224-1.048-.517-1.546-.724-2.13-.88-5.706-2.346-4.624-6.413.963-3.637 4.486-5.706 9.71-5.706 2.923 0 4.66.5 6.172 1.76.36.31.515.792.395 1.258l-.894 3.395c-.137.535-.618.897-1.168.914h-.464c-.327 0-.636-.12-.877-.362-.533-.534-1.65-.896-2.853-.896-.722 0-1.203.067-1.513.17.31.14.672.294.964.397 2.045.828 5.844 2.362 4.76 6.43-.72 2.758-3.11 6.015-10.363 6.015z" id="Shape"/><path d="M74.896 101.862c-2.166 0-4.263-.586-5.604-1.55-.412-.294-.6-.81-.464-1.31 0 0 .602-2.293.894-3.38.137-.534.602-.896 1.152-.913l.636-.018c.292-.017.584.103.807.293.67.57 1.857.93 3.077.93.997 0 1.547-.137 1.77-.275-.343-.224-1.048-.517-1.547-.724-2.13-.88-5.69-2.362-4.623-6.412.962-3.637 4.486-5.706 9.71-5.706 2.923 0 4.66.5 6.17 1.76.362.31.517.79.397 1.257 0 0-.635 2.38-.893 3.396-.138.535-.602.897-1.152.914l-.464-.017c-.325 0-.652-.12-.893-.362-.55-.552-1.667-.896-2.835-.896-.722 0-1.204.067-1.513.17.308.14.67.294.962.397 2.045.828 5.843 2.362 4.76 6.43-.704 2.758-3.076 6.015-10.346 6.015z" id="Shape"/></g><g fill="#FFF"><path d="M25.086 100.862h-6.72c-.5 0-.946-.293-1.135-.758l-.136-.31c-.104-.242-.12-.518-.052-.776l4.125-15.703c.138-.534.62-.914 1.186-.914h8.594c2.905 0 4.71.587 5.69 1.846.704.913.876 2.103.497 3.5-.412 1.585-1.29 2.79-2.595 3.6.17.156.326.33.463.518.653.897.79 2.07.413 3.482-.91 3.5-4.675 5.516-10.33 5.516zm1.272-6.62l-.24.915c.893-.104.996-.483 1.065-.74.017-.036.017-.07.017-.105-.12-.034-.36-.07-.756-.07h-.086zm1.615-6.17l-.154.586c.532-.103.67-.344.72-.568-.103-.018-.24-.018-.446-.018h-.12z" id="Shape"/><path d="M43.528 101.172H43.1c-3.216 0-5.364-.793-6.62-2.413-1.614-2.104-1.15-4.948-.497-7.447.91-3.447 2.423-9.222 11.705-9.222 3.454 0 5.758.794 6.995 2.414 1.702 2.207.91 5.24.327 7.447-1.118 4.293-3.438 9.222-11.482 9.222zm.258-6.136c.052.017.19.052.5.052 1.22 0 1.563-.535 2.405-3.775.26-1 .706-2.655.55-3.103-.05-.017-.205-.05-.498-.05-1.22 0-1.564.533-2.406 3.773-.275 1-.705 2.655-.55 3.103z" id="Shape"/><path d="M59.032 101.172c-2.166 0-4.263-.586-5.604-1.55-.412-.294-.6-.81-.464-1.31l.894-3.38c.138-.534.602-.896 1.152-.913l.653-.018c.31-.017.584.103.825.293.67.57 1.856.93 3.076.93.997 0 1.565-.137 1.77-.292-.343-.224-1.048-.517-1.546-.724-2.13-.88-5.706-2.346-4.624-6.413.963-3.637 4.486-5.706 9.71-5.706 2.923 0 4.66.5 6.172 1.76.36.31.515.792.395 1.258l-.893 3.395c-.137.535-.618.897-1.168.914h-.465c-.327 0-.636-.12-.877-.362-.533-.534-1.65-.896-2.853-.896-.722 0-1.203.067-1.513.17.31.14.67.294.963.397 2.045.828 5.844 2.362 4.76 6.43-.72 2.758-3.11 6.015-10.363 6.015z" id="Shape"/><path d="M74.037 101.172c-2.166 0-4.263-.586-5.604-1.55-.412-.294-.6-.81-.464-1.31 0 0 .6-2.293.893-3.38.137-.534.602-.896 1.152-.913L70.65 94c.293-.017.585.103.808.293.67.57 1.857.93 3.077.93.997 0 1.547-.137 1.77-.275-.343-.224-1.048-.517-1.547-.724-2.13-.88-5.69-2.362-4.623-6.412.962-3.637 4.486-5.706 9.71-5.706 2.923 0 4.66.5 6.17 1.76.362.31.517.79.397 1.257 0 0-.636 2.38-.894 3.396-.138.535-.602.897-1.152.914l-.464-.017c-.326 0-.653-.12-.894-.362-.55-.552-1.667-.896-2.835-.896-.722 0-1.204.067-1.513.17.31.14.67.294.963.397 2.045.828 5.843 2.362 4.76 6.43-.704 2.758-3.076 6.015-10.346 6.015z" id="Shape"/></g><g fill="#6D1B00"><path d="M18.47 99.535c.583-2.24 4.124-15.703 4.124-15.703h8.593c4.126 0 5.672 1.275 5.002 3.81-.465 1.757-1.72 3.446-5.157 3.877l-.017.05c3.49.208 3.953 1.81 3.454 3.673-.825 3.12-4.417 4.602-9.178 4.602h-6.72l-.103-.31zm6.29-2.913h1.03c1.582 0 2.493-.518 2.802-1.69.31-1.172-.326-1.706-1.908-1.706h-1.03l-.895 3.396zm1.718-6.482h1.03c1.36 0 2.2-.5 2.476-1.585.293-1.103-.31-1.483-1.632-1.483h-1.066l-.808 3.068zM54.082 91.83c-.98 3.74-2.87 8.41-10.52 8.325-7.7.086-7.132-4.568-6.153-8.325.98-3.74 2.37-8.326 10.518-8.326 8.164.018 7.133 4.585 6.154 8.326zm-9.574 4.688c2.32 0 2.836-1.793 3.592-4.688.756-2.896 1.186-4.69-1.134-4.69s-2.836 1.794-3.592 4.69c-.74 2.895-1.186 4.688 1.134 4.688zM69.12 88.4c-.755-.76-2.148-1.26-3.712-1.26-1.478 0-2.887.294-3.145 1.277-.48 1.86 7.477 1.723 6.187 6.636-.876 3.344-4.02 5.085-9.195 5.085-1.873 0-3.747-.5-4.88-1.327 0 0 .6-2.292.892-3.378l.654-.017c.894.74 2.338 1.207 3.868 1.207 2.25 0 2.887-.62 3.076-1.328.62-2.36-7.648-1.93-6.307-7.015.79-3.035 3.798-4.793 8.525-4.793 2.767 0 4.16.448 5.397 1.482 0 0-.637 2.395-.895 3.395l-.464.035zM84.126 88.4c-.757-.76-2.15-1.26-3.696-1.26-1.478 0-2.887.294-3.145 1.277-.498 1.86 7.477 1.723 6.188 6.636-.877 3.344-4.022 5.085-9.196 5.085-1.873 0-3.747-.5-4.88-1.327 0 0 .6-2.292.893-3.378l.653-.017c.893.74 2.337 1.207 3.867 1.207 2.252 0 2.887-.62 3.077-1.328.618-2.36-7.65-1.93-6.308-7.015.79-3.035 3.797-4.793 8.524-4.793 2.767 0 4.16.448 5.397 1.482 0 0-.618 2.378-.893 3.395l-.48.035z" id="Shape"/></g><g fill="#DC0814"><path d="M18.073 99.208c.584-2.24 4.125-15.703 4.125-15.703h8.594c4.125 0 5.672 1.276 5.002 3.81-.465 1.74-1.72 3.447-5.157 3.878l-.017.05c3.49.208 3.953 1.81 3.455 3.673-.825 3.12-4.417 4.602-9.178 4.602h-6.72l-.104-.31zm6.29-2.93h1.032c1.58 0 2.492-.518 2.802-1.69.31-1.172-.327-1.706-1.908-1.706h-1.033l-.893 3.396zm1.702-6.482h1.032c1.357 0 2.2-.5 2.475-1.585.292-1.102-.31-1.482-1.633-1.482h-1.067l-.808 3.068zM53.686 91.503c-.98 3.74-2.87 8.41-10.52 8.325-7.7.086-7.132-4.567-6.152-8.325.98-3.74 2.372-8.325 10.52-8.325 8.146.017 7.132 4.585 6.152 8.325zm-9.574 4.688c2.32 0 2.836-1.79 3.593-4.687.756-2.896 1.186-4.69-1.135-4.69-2.32 0-2.836 1.794-3.592 4.69-.756 2.896-1.186 4.688 1.134 4.688zM68.725 88.073c-.756-.76-2.148-1.24-3.712-1.24-1.478 0-2.888.292-3.146 1.274-.498 1.862 7.477 1.724 6.188 6.636-.877 3.344-4.04 5.085-9.196 5.085-1.874 0-3.747-.5-4.882-1.327 0 0 .602-2.29.894-3.377l.636-.018c.876.742 2.337 1.224 3.867 1.224 2.252 0 2.888-.62 3.077-1.328.618-2.36-7.65-1.93-6.308-7.015.79-3.034 3.798-4.792 8.525-4.792 2.766 0 4.158.448 5.396 1.482 0 0-.636 2.396-.894 3.396h-.447z" id="Shape"/><path d="M83.713 88.073c-.756-.76-2.15-1.24-3.695-1.24-1.48 0-2.87.292-3.13 1.274-.48 1.862 7.478 1.724 6.19 6.636-.878 3.344-4.023 5.085-9.196 5.085-1.874 0-3.747-.5-4.882-1.327 0 0 .602-2.29.894-3.377l.636-.018c.894.742 2.337 1.224 3.867 1.224 2.252 0 2.888-.62 3.077-1.328.62-2.36-7.65-1.93-6.308-7.015.79-3.034 3.816-4.792 8.525-4.792 2.768 0 4.16.448 5.398 1.482 0 0-.636 2.38-.894 3.396h-.48z"/></g></g><path d="M75 48.5c-1.48 0-2.5-1.07-2.5-2.5 0-1.526 1.15-2.5 2.5-2.5s2.5 1.006 2.5 2.5c-.033 1.494-1.184 2.5-2.5 2.5zm0-4.578c-1.118 0-1.974.844-1.974 2.078 0 1.136.757 2.078 1.974 2.078 1.086 0 1.94-.844 1.94-2.078s-.854-2.078-1.94-2.078zm-.526 3.507h-.46v-2.794h1.085c.69 0 1.018.228 1.018.812 0 .52-.33.714-.723.747l.79 1.234h-.527l-.724-1.203h-.427v1.202h-.033zM75 45.87c.362 0 .658-.032.658-.454 0-.325-.33-.39-.625-.39h-.56v.812H75v.032zM90 108.5c-1.48 0-2.5-1.07-2.5-2.5 0-1.526 1.15-2.5 2.5-2.5s2.5 1.006 2.5 2.5c-.033 1.494-1.184 2.5-2.5 2.5zm0-4.578c-1.118 0-1.974.844-1.974 2.078 0 1.136.757 2.078 1.974 2.078 1.086 0 1.94-.844 1.94-2.078s-.854-2.078-1.94-2.078zm-.526 3.507h-.46v-2.794h1.085c.69 0 1.018.228 1.018.812 0 .52-.33.714-.723.747l.79 1.234h-.527l-.724-1.203h-.427v1.202h-.033zm.526-1.56c.362 0 .658-.032.658-.454 0-.325-.33-.39-.625-.39h-.56v.812H90v.032zM17 119h69v1H17zM20.77 130v-4.644h-.566v2.44c0 .233-.027.462-.08.687-.055.226-.14.425-.253.6-.113.173-.257.312-.43.417-.175.106-.385.158-.63.158-.45 0-.767-.108-.95-.324-.184-.216-.28-.534-.293-.954v-3.024H17v3.015c0 .277.03.523.09.74.06.215.154.398.284.548.13.15.296.266.504.347.207.08.457.12.75.12.35 0 .665-.08.95-.246.286-.167.503-.405.653-.717h.02V130h.52zm1.23-4.644V130h.567v-2.71c.006-.227.043-.438.113-.634.07-.195.164-.362.288-.504.123-.14.272-.252.45-.332.177-.08.38-.122.607-.122.228 0 .418.036.572.108.153.072.274.17.364.297.09.126.154.274.19.446.036.17.054.354.054.552V130h.567v-2.988c0-.276-.026-.525-.08-.747-.054-.222-.147-.41-.28-.563-.13-.153-.306-.27-.526-.355-.22-.084-.49-.126-.814-.126-.33 0-.633.086-.91.258-.275.17-.467.397-.575.68h-.018v-.802H22zm5-1.782v.91h.567v-.91H27zm0 1.782V130h.567v-4.644H27zm2.977 0v-1.395h-.567v1.396h-.81v.477h.81v3.177c-.006.396.066.667.216.815.15.147.414.22.792.22.084 0 .168-.003.252-.01.084-.005.168-.008.252-.008v-.477c-.162.018-.324.027-.486.027-.204-.012-.33-.07-.382-.175-.05-.106-.077-.25-.077-.437v-3.132h.945v-.477h-.945zm5.497 1.998h-3.006c.024-.21.073-.415.148-.617.076-.2.176-.377.302-.53.126-.154.28-.276.46-.37.18-.093.386-.14.62-.14.228 0 .432.047.612.14.18.093.333.216.46.37.125.153.222.328.29.526.07.198.108.405.114.62zm-3.006.477h3.573c.013-.323-.017-.642-.09-.957-.07-.316-.19-.594-.355-.838-.165-.243-.38-.44-.643-.59-.264-.15-.582-.224-.954-.224-.366 0-.682.07-.95.213-.267.14-.484.326-.652.557-.168.232-.292.494-.373.788-.082.294-.122.594-.122.9 0 .33.04.643.123.94.08.298.205.558.373.784.168.225.385.4.652.53.268.13.584.194.95.194.588 0 1.042-.144 1.364-.432.32-.288.54-.696.66-1.224h-.566c-.09.36-.252.648-.486.864-.234.216-.558.324-.972.324-.27 0-.5-.057-.693-.17-.192-.115-.35-.26-.477-.433-.126-.174-.217-.37-.275-.59-.057-.22-.085-.43-.085-.634zM39 125.357l1.854 4.626-.198.522-.135.297c-.04.09-.092.167-.152.23-.06.064-.13.113-.212.15-.08.035-.184.053-.31.053-.066 0-.13-.005-.193-.013-.064-.01-.128-.02-.194-.032v.477c.047.018.102.03.166.03.063.005.15.01.265.015.18 0 .33-.017.447-.05.117-.032.218-.087.305-.16.088-.077.167-.178.24-.308.07-.13.15-.292.233-.49l2.016-5.346h-.566l-1.43 3.96-1.53-3.96H39zm6.93.342c.27 0 .506.057.71.17.204.115.373.265.508.45.135.187.237.398.306.636.07.237.104.478.104.724s-.035.487-.104.725c-.07.237-.17.448-.306.634-.135.186-.304.336-.508.45-.204.114-.44.17-.71.17-.27 0-.508-.056-.712-.17-.204-.114-.374-.264-.51-.45-.134-.186-.236-.397-.305-.635-.07-.237-.103-.478-.103-.724s.034-.487.103-.724c.07-.238.17-.45.306-.635.134-.187.304-.337.508-.45.204-.115.44-.172.71-.172zm-.034-.477c-.354 0-.667.067-.94.2-.274.13-.503.308-.69.53-.185.222-.326.48-.422.778-.096.298-.144.614-.144.95 0 .336.048.652.144.95.096.297.237.556.423.778.186.222.415.397.69.526.272.13.585.194.94.194.353 0 .666-.064.94-.194.273-.13.502-.304.688-.526.186-.222.327-.48.423-.78.096-.296.144-.612.144-.948 0-.336-.048-.652-.144-.95-.096-.297-.237-.556-.423-.778-.186-.222-.415-.4-.688-.53-.274-.133-.587-.2-.94-.2zM52.77 130v-4.644h-.566v2.44c0 .233-.027.462-.08.687-.055.226-.14.425-.253.6-.113.173-.257.312-.43.417-.175.106-.385.158-.63.158-.45 0-.767-.108-.95-.324-.184-.216-.28-.534-.293-.954v-3.024H49v3.015c0 .277.03.523.09.74.06.215.154.398.283.548.13.15.297.266.505.347.207.08.457.12.75.12.35 0 .665-.08.95-.246.286-.167.503-.405.653-.717h.02V130h.52zm1.23-4.644V130h.567v-2.475c0-.246.042-.472.126-.68.084-.207.202-.385.355-.535.154-.15.335-.266.545-.347.21-.08.444-.115.702-.103v-.567c-.42-.018-.78.075-1.084.28-.303.203-.526.494-.67.872h-.018v-1.09H54zm5 0L60.494 130h.62l1.135-3.906h.017L63.41 130h.62l1.495-4.644h-.603l-1.188 3.978h-.018l-1.134-3.978h-.64l-1.133 3.978h-.02l-1.187-3.978H59zm9.48.342c.27 0 .507.057.71.17.205.115.374.265.51.45.135.187.236.398.306.636.07.237.103.478.103.724s-.035.487-.104.725c-.07.237-.17.448-.306.634-.136.186-.305.336-.51.45-.203.114-.44.17-.71.17-.27 0-.507-.056-.71-.17-.205-.114-.374-.264-.51-.45-.135-.186-.236-.397-.305-.635-.07-.237-.104-.478-.104-.724s.035-.487.105-.724c.07-.238.17-.45.306-.635.136-.187.305-.337.51-.45.203-.115.44-.172.71-.172zm0-.477c-.354 0-.667.067-.94.2-.274.13-.503.308-.69.53-.185.222-.326.48-.422.778-.096.298-.144.614-.144.95 0 .336.048.652.144.95.096.297.237.556.423.778.187.222.416.397.69.526.273.13.586.194.94.194s.667-.064.94-.194c.274-.13.503-.304.69-.526.185-.222.326-.48.422-.78.096-.296.144-.612.144-.948 0-.336-.048-.652-.144-.95-.096-.297-.237-.556-.423-.778-.187-.222-.416-.4-.69-.53-.273-.133-.586-.2-.94-.2zm3.42.136V130h.567v-2.475c0-.246.042-.472.126-.68.084-.207.203-.385.356-.535.152-.15.333-.266.543-.347.21-.08.444-.115.702-.103v-.567c-.42-.018-.78.075-1.084.28-.302.203-.526.494-.67.872h-.018v-1.09H71.9zm3.1-1.782V130h.567v-6.426H75zM80.854 130v-6.426h-.567v2.664h-.018c-.06-.168-.146-.315-.258-.44-.11-.127-.238-.234-.382-.32-.144-.087-.298-.152-.464-.194-.165-.042-.334-.063-.508-.063-.354 0-.66.067-.923.2-.26.13-.478.31-.652.534-.174.226-.303.486-.387.784-.084.297-.126.61-.126.94 0 .33.042.643.126.94.084.298.213.558.387.784.174.225.39.4.652.53s.57.194.923.194c.168 0 .337-.024.508-.072.172-.048.332-.115.482-.203.15-.085.283-.192.4-.318.118-.126.206-.264.266-.414h.018V130h.522zm-3.714-2.322c0-.24.028-.478.085-.715.057-.238.147-.45.27-.635.123-.186.28-.337.473-.454.192-.118.423-.176.693-.176.3 0 .554.058.76.176.21.117.376.268.505.454.13.186.222.397.28.635.056.237.085.475.085.715s-.03.478-.086.715c-.057.238-.15.45-.28.635-.128.186-.295.337-.503.454-.206.118-.46.176-.76.176-.27 0-.5-.058-.692-.175-.192-.118-.35-.27-.473-.455-.123-.186-.213-.397-.27-.635-.057-.237-.085-.475-.085-.715zm7.932-.963h.567c-.013-.252-.064-.47-.154-.657-.09-.186-.212-.342-.365-.468-.152-.126-.33-.22-.53-.28-.2-.06-.418-.09-.652-.09-.204 0-.41.025-.617.073-.206.048-.393.123-.56.225-.17.102-.306.237-.41.405-.106.168-.158.37-.158.603 0 .198.033.364.1.5.065.135.156.25.273.342.117.093.254.17.41.234.156.063.327.118.513.166l.73.162c.125.03.25.066.372.108.123.042.233.094.33.157.095.064.17.142.228.234.057.093.086.208.086.346 0 .162-.04.298-.122.41-.08.11-.184.202-.31.274-.126.072-.263.123-.41.153-.147.03-.29.045-.427.045-.378 0-.694-.097-.95-.292-.255-.196-.394-.485-.418-.87h-.567c.048.57.24.985.58 1.243.34.257.782.386 1.328.386.216 0 .435-.024.657-.072.222-.048.42-.127.598-.24.177-.11.323-.253.437-.43.114-.178.17-.392.17-.644 0-.204-.038-.38-.116-.53-.078-.15-.18-.277-.302-.38-.123-.1-.264-.183-.423-.246-.16-.064-.32-.107-.482-.13l-.756-.172c-.096-.024-.2-.055-.315-.094-.114-.04-.22-.09-.315-.15-.096-.06-.176-.132-.24-.22-.062-.087-.093-.193-.093-.32 0-.15.032-.275.098-.377.066-.1.153-.184.26-.246.11-.063.227-.108.356-.135.13-.028.257-.042.383-.042.162 0 .315.02.46.06.143.038.27.1.38.183.112.085.2.19.267.32.066.13.102.28.108.455zM87.676 123.995h-.274c-.01.177.015.33.07.456.055.127.134.23.236.312.103.08.227.14.372.18.145.038.303.058.472.058.17 0 .315-.015.436-.046.12-.03.223-.072.305-.122.082-.05.147-.105.194-.167.047-.062.083-.123.11-.184.025-.06.04-.117.047-.17.007-.054.01-.097.01-.13 0-.118-.02-.22-.058-.302-.04-.084-.093-.155-.16-.212-.07-.058-.15-.107-.24-.146-.09-.04-.186-.072-.288-.1l-.703-.172c-.06-.014-.115-.03-.168-.053-.052-.02-.098-.05-.14-.085-.04-.035-.07-.077-.094-.127-.023-.05-.034-.108-.034-.175 0-.108.02-.198.06-.27.04-.074.093-.132.16-.177.065-.043.142-.075.23-.096.087-.02.178-.03.272-.03.102 0 .2.014.292.043.093.028.175.07.247.125.072.055.13.124.174.206.045.082.07.178.075.288h.274c0-.148-.03-.278-.087-.39-.058-.11-.135-.205-.232-.28-.097-.075-.21-.132-.34-.17-.13-.037-.265-.056-.407-.056-.202 0-.368.03-.497.087-.128.058-.23.128-.304.212-.074.082-.124.17-.15.265-.028.094-.042.177-.042.247 0 .113.02.208.055.286.035.078.083.144.142.198.06.054.13.097.208.13.08.032.16.06.244.08l.642.158c.068.016.136.037.206.062.07.026.134.06.192.1.058.04.105.09.142.148.036.06.054.13.054.21 0 .105-.026.195-.077.27-.05.073-.115.133-.19.18-.078.048-.16.082-.25.104-.09.02-.17.032-.246.032-.132 0-.256-.013-.372-.04-.115-.024-.216-.066-.3-.126-.085-.06-.152-.138-.2-.238-.05-.1-.072-.223-.07-.37zm2.81-1.934l.957 2.528.994-2.527h.403v2.883h-.274v-2.49h-.008l-.986 2.49h-.258l-.95-2.49h-.007v2.49h-.274v-2.882h.403z" fill="#000"/></g></svg>