<svg width="100" height="140" viewBox="0 0 100 140" xmlns="http://www.w3.org/2000/svg"><title>logo-bossrevolution-en</title><g fill="none" fill-rule="evenodd"><path d="M4.767 26.19c.257-.414.962-.45 1.58-.07.637.362.93 1 .688 1.414-.257.38-.962.413-1.58.052-.637-.362-.93-1-.688-1.397zm2.423 1.706l12.083 7.274.172-.31-12.083-7.257" fill="#000"/><path d="M18.706 36.514c-.206.328-.292.707-.292 1.086 0 .62.24 1.276.653 1.862.43.603 1.03 1.155 1.77 1.603l39.446 23.2c.91.535 1.89.81 2.75.81.5 0 .963-.086 1.358-.275.397-.19.74-.466.964-.828l6.67-10.876c.206-.327.31-.707.29-1.086 0-.62-.24-1.258-.67-1.86-.41-.605-1.03-1.156-1.77-1.605l-39.41-23.2c-.912-.535-1.89-.81-2.75-.81-.5 0-.963.086-1.36.275-.394.173-.755.466-.978.828l-6.67 10.876z" fill="#FFF"/><path d="M25.77 25.88c.172-.277.447-.484.774-.64.326-.154.72-.223 1.168-.223.774 0 1.668.242 2.51.74L69.668 48.96c.687.396 1.237.913 1.615 1.464.378.535.585 1.103.585 1.586 0 .31-.07.586-.224.827l-6.67 10.877c-.17.276-.428.5-.755.638-.33.155-.724.224-1.17.224-.774 0-1.668-.242-2.51-.74L21.08 40.633c-.688-.414-1.238-.914-1.616-1.465-.378-.536-.584-1.105-.584-1.587 0-.31.07-.585.223-.827l6.67-10.876-.395-.242-6.67 10.876c-.205.33-.29.708-.29 1.087 0 .62.24 1.276.652 1.862.43.602 1.03 1.154 1.77 1.602l39.446 23.2c.91.535 1.89.81 2.75.81.5 0 .963-.086 1.358-.275.396-.19.74-.466.963-.828l6.67-10.877c.206-.327.31-.707.29-1.086 0-.62-.24-1.258-.67-1.86-.41-.605-1.03-1.156-1.77-1.605l-39.41-23.2c-.912-.535-1.89-.81-2.75-.81-.5 0-.963.086-1.36.275-.394.173-.755.466-.978.828l.394.24zm17.463 23.424l14.472 8.515.206-.347-14.47-8.515-.206.344zm2.44.19l.894-1.5 2.407 1.413-.877 1.43-2.424-1.343-.67.086 3.266 1.913 1.39-2.258-3.266-1.913-1.392 2.258.67-.086zm3.433 2l.882-1.414 2.423 1.413-.875 1.43-2.428-1.43-.665.19 3.266 1.913 1.375-2.258-3.247-1.913-1.392 2.258.666-.19zm1.484-2.362l.893-1.5 2.406 1.413-.878 1.43-2.423-1.343-.67.086 3.264 1.913 1.375-2.256-3.25-1.913-1.39 2.26.67-.087zm2.042 4.378l.862-1.43 2.406 1.43-.876 1.43-2.392-1.43-.702.172 3.265 1.913 1.393-2.258-3.266-1.913-1.392 2.258.702-.172z" fill="#000"/><path d="M26.097 39.962c-.207-.12-.378-.276-.482-.43-.12-.157-.154-.312-.154-.432 0-.07.02-.138.053-.19l5.31-8.67c.036-.07.104-.12.173-.155.086-.035.19-.07.327-.07.223 0 .498.07.756.225l13.354 7.843c.206.12.378.276.48.43.104.156.156.31.156.432 0 .07-.018.137-.053.19l-5.328 8.67c-.036.068-.105.103-.174.154-.086.033-.19.067-.326.067-.223 0-.498-.07-.756-.224L26.097 39.96l-.224.43 13.338 7.827c.328.19.67.293 1 .293.19 0 .36-.033.514-.102.155-.07.293-.19.396-.345l5.31-8.67c.086-.138.12-.293.12-.448 0-.242-.103-.5-.24-.707-.155-.224-.38-.414-.637-.586L32.32 29.81c-.328-.19-.672-.294-.998-.294-.19 0-.36.035-.516.103-.155.067-.292.19-.395.343l-5.31 8.67c-.085.138-.12.293-.12.448 0 .26.086.5.258.725.155.224.378.414.636.586l.224-.43z" fill="#000"/><path d="M41.91 32.412l6.77 1.723-2.525 5.86-7.563-.792 3.317-6.79z" fill="#FFF"/><path d="M39.094 38.92l2.936-6.232 6.308 1.62L46 39.738l-6.906-.818-.88.49 8.095.845 2.697-6.275-7.236-1.86-3.557 7.29.88-.49z" fill="#000"/><path d="M50.228 34.584l6.308 2.533-3.626 8.36-.636-4.74-4.727-.638 2.68-5.517z" fill="#FFF"/><path d="M50.308 34.855l5.902 2.383-3.18 7.343-.55-4.05-4.572-.62 2.4-5.054-.16-.546-2.962 5.996 4.864.655.74 5.415 4.055-9.394-6.696-2.67.157.546z" fill="#000"/><path d="M58.41 38.427l-6.927 12.325 5.362 1.896 6.463-11.532-4.898-2.69z" fill="#FFF"/><path d="M58.324 38.1L51.14 50.89l5.826 2.068 6.686-11.945-5.328-2.913.193.633 4.465 2.47-6.24 11.152-4.898-1.74 6.673-11.882-.193-.633z" fill="#000"/><path d="M65.044 42.857l-5.208 9.963 3.317 1.57 5.672-8.05-3.78-3.483z" fill="#FFF"/><path d="M64.975 42.46L59.51 52.925l3.73 1.758 5.912-8.377-4.177-3.844.127.8 3.397 3.114-5.434 7.705-2.904-1.38 4.94-9.44-.128-.8z" fill="#000"/><path d="M62.174 64.007l-13.56-8.067-3.456-4.895-4.9-.638 1.256-1.258-1.255-1.416 3.642 1.26 7.253-2.38-.326-4.258-14.817-2.068-7.1 11.375 13.253 17.392-1.1 27.734h19.147L58.72 67.937c-.018.017 2.08-2.465 3.454-3.93" fill="#FFF"/><path d="M62.517 63.955l-13.763-8.187-3.484-4.947-4.514-.584 1.082-1.086-.807-.898 2.85.983 7.483-2.465-.343-4.637L35.9 40.03l-7.26 11.653 13.266 17.46-1.098 27.666h19.615l-1.51-28.874 3.604-3.982-.753.12c-1.39 1.466-3.28 3.724-3.28 3.724l1.442 28.526H41.288l1.082-27.338-13.18-17.34 6.916-11.1 14.45 2.016.29 3.88-6.983 2.308-3.553-1.24-.257.378 1.115 1.242-1.44 1.447 5.267.69 3.415 4.86 13.354 7.946M85.74 104.05h-2.457v5.103l-1.65-5.102h-2.458v11.327h2.458v-5.154l1.53 5.154h2.578V104.05zm-7.63 6.637v-1.948c0-1.156-.035-1.984-.086-2.45-.052-.465-.224-.895-.516-1.292-.292-.397-.687-.69-1.17-.897-.48-.19-1.03-.292-1.63-.292-.637 0-1.204.103-1.686.31-.48.207-.86.517-1.134.896-.275.397-.447.828-.5 1.293-.05.464-.085 1.275-.085 2.412v1.947c0 1.172.035 1.982.086 2.448.05.465.222.896.514 1.292.292.397.688.69 1.17.897.48.19 1.03.293 1.632.293.636 0 1.186-.104 1.667-.31.48-.207.86-.518 1.134-.914.292-.38.464-.793.516-1.276.05-.465.086-1.275.086-2.413zm-2.94 1.483c0 .655-.034 1.086-.085 1.258-.052.172-.19.276-.378.276-.19 0-.327-.07-.378-.224-.054-.156-.088-.552-.088-1.207v-5.292c0-.584.05-.93.12-1.05.086-.12.206-.172.36-.172.19 0 .31.07.362.225.05.155.086.482.086 1.017v5.17zm-5.12 3.206V104.05h-2.94v11.326h2.94zm-3.972-9.084v-2.275h-6.462v2.275h1.753v9.1h2.954v-9.1h1.753zm-7.665 5.326v-7.567h-2.94v8.345c0 .568-.034.913-.085 1.068-.052.155-.172.224-.36.224-.156 0-.276-.07-.328-.206-.05-.137-.086-.45-.086-.947v-8.498h-2.94v6.705c0 1.274.018 2.12.07 2.516.05.396.19.775.447 1.137.26.362.638.655 1.153.88.516.223 1.118.327 1.788.327.62 0 1.135-.086 1.6-.276.446-.19.807-.465 1.082-.827.293-.362.465-.724.517-1.07.05-.344.085-.947.085-1.81zm-7.58 3.758V113.1h-1.77v-9.066h-2.94v11.342h4.71zm-5.792-4.69v-1.947c0-1.156-.033-1.984-.084-2.45-.052-.465-.224-.895-.516-1.292-.293-.397-.688-.69-1.17-.897-.48-.19-1.03-.292-1.633-.292-.635 0-1.203.103-1.684.31-.48.207-.86.517-1.134.896-.295.397-.45.828-.5 1.293-.05.464-.07 1.275-.07 2.412v1.947c0 1.172.035 1.982.086 2.448.052.465.24.896.533 1.292.29.397.687.69 1.17.897.48.19 1.03.293 1.63.293.637 0 1.204-.104 1.685-.31.48-.207.86-.518 1.152-.914.223-.38.395-.793.447-1.276.05-.465.086-1.275.086-2.413zm-2.937 1.484c0 .655-.035 1.086-.086 1.258-.052.172-.19.276-.38.276-.205 0-.325-.07-.377-.224-.052-.156-.087-.552-.087-1.207v-5.292c0-.584.052-.93.12-1.05.087-.12.207-.172.362-.172.19 0 .31.07.36.225.052.155.087.482.087 1.017v5.17zm-4.28-8.12H34.73s-.534 5.758-.69 7.93c-.153-2.155-.41-4.792-.772-7.93h-3.094l1.702 11.326h4.45l1.497-11.325zm-7.82 11.326V113.1h-2.15v-2.482h1.84v-2.154h-1.84v-2.155h1.96v-2.277h-4.898v11.342H30zm-6.223 0v-2.982c0-.914-.018-1.465-.07-1.672-.05-.207-.17-.43-.377-.673-.207-.243-.585-.43-1.17-.588.637-.05 1.066-.24 1.29-.55.223-.31.326-.897.326-1.777 0-.965-.156-1.672-.466-2.102-.31-.45-.704-.724-1.203-.828-.497-.103-1.425-.155-2.82-.155h-2.077v11.326h2.94v-5.102c.394 0 .652.068.738.224.104.138.138.517.138 1.12v3.758h2.75zm-2.733-7.895c0 .5-.07.795-.19.898-.137.087-.36.138-.687.138v-2.533c.344 0 .567.05.705.172.12.12.19.345.19.707v.62h-.018z" fill="#000"/><g fill-opacity=".2" fill="#000"><path d="M25.945 101.552h-6.72c-.5 0-.946-.293-1.135-.758l-.137-.31c-.104-.242-.12-.518-.052-.776l4.127-15.703c.138-.534.62-.914 1.186-.914h8.594c2.905 0 4.71.588 5.69 1.847.704.913.876 2.103.497 3.5-.412 1.585-1.29 2.79-2.595 3.6.17.156.326.33.463.518.653.897.79 2.07.413 3.482-.91 3.5-4.675 5.516-10.33 5.516zm1.272-6.62l-.24.915c.893-.104.996-.483 1.065-.74.017-.036.017-.07.017-.105-.12-.034-.363-.07-.758-.07h-.086zm1.615-6.17l-.154.586c.533-.103.67-.344.722-.568-.104-.018-.24-.018-.447-.018h-.12z"/><path d="M44.387 101.862h-.43c-3.214 0-5.362-.793-6.617-2.413-1.615-2.105-1.15-4.95-.498-7.448.91-3.447 2.423-9.222 11.705-9.222 3.454 0 5.758.794 6.995 2.414 1.702 2.207.91 5.24.327 7.447-1.12 4.294-3.44 9.223-11.484 9.223zm.258-6.136c.052.017.19.052.5.052 1.22 0 1.563-.535 2.405-3.775.258-1 .705-2.655.55-3.103-.052-.017-.206-.05-.5-.05-1.22 0-1.563.533-2.405 3.773-.275 1-.705 2.655-.55 3.103z"/><path d="M59.89 101.862c-2.165 0-4.262-.586-5.603-1.55-.412-.294-.6-.81-.464-1.31l.894-3.38c.138-.534.602-.896 1.152-.913l.65-.02c.31-.016.585.104.826.294.67.57 1.856.93 3.076.93.997 0 1.565-.137 1.77-.292-.343-.224-1.048-.517-1.546-.724-2.13-.88-5.706-2.346-4.624-6.413.963-3.637 4.486-5.706 9.71-5.706 2.923 0 4.66.5 6.172 1.76.36.31.515.79.395 1.257l-.895 3.395c-.137.535-.618.897-1.168.914h-.464c-.327 0-.636-.12-.877-.362-.533-.534-1.65-.896-2.853-.896-.722 0-1.203.067-1.513.17.31.14.672.294.964.397 2.045.828 5.844 2.362 4.76 6.43-.72 2.758-3.11 6.015-10.363 6.015z"/><path d="M74.896 101.862c-2.166 0-4.263-.586-5.604-1.55-.412-.294-.6-.81-.464-1.31 0 0 .602-2.293.894-3.38.137-.534.602-.896 1.152-.913l.636-.02c.292-.016.584.104.807.294.67.57 1.857.93 3.077.93.997 0 1.547-.137 1.77-.275-.343-.225-1.048-.518-1.547-.725-2.13-.88-5.69-2.362-4.623-6.412.962-3.637 4.486-5.706 9.71-5.706 2.923 0 4.66.5 6.17 1.76.362.31.517.79.397 1.257 0 0-.634 2.38-.892 3.396-.138.535-.602.897-1.152.914l-.464-.017c-.325 0-.652-.12-.893-.362-.55-.552-1.668-.896-2.836-.896-.722 0-1.204.066-1.513.17.31.14.67.293.963.396 2.045.828 5.843 2.362 4.76 6.43-.704 2.758-3.076 6.015-10.346 6.015z"/></g><g fill="#FFF"><path d="M25.086 100.862h-6.72c-.5 0-.946-.293-1.135-.758l-.135-.31c-.104-.242-.12-.518-.052-.776l4.125-15.703c.138-.534.62-.914 1.186-.914h8.594c2.905 0 4.71.588 5.69 1.847.704.913.876 2.103.497 3.5-.412 1.585-1.29 2.79-2.595 3.6.17.156.326.33.463.518.653.897.79 2.07.413 3.482-.91 3.5-4.675 5.516-10.33 5.516zm1.272-6.62l-.24.915c.893-.104.996-.483 1.065-.74.017-.036.017-.07.017-.105-.12-.034-.36-.07-.756-.07h-.086zm1.615-6.17l-.154.586c.53-.103.67-.344.72-.568-.104-.018-.24-.018-.447-.018h-.12z"/><path d="M43.528 101.172H43.1c-3.216 0-5.364-.793-6.62-2.413-1.614-2.105-1.15-4.95-.497-7.448.91-3.447 2.423-9.222 11.705-9.222 3.454 0 5.758.794 6.995 2.414 1.702 2.207.91 5.24.327 7.447-1.118 4.294-3.438 9.223-11.482 9.223zm.258-6.136c.052.017.19.052.5.052 1.22 0 1.563-.535 2.405-3.775.26-1 .707-2.655.55-3.103-.05-.017-.204-.05-.497-.05-1.22 0-1.564.533-2.406 3.773-.275 1-.705 2.655-.55 3.103z"/><path d="M59.032 101.172c-2.166 0-4.263-.586-5.604-1.55-.412-.294-.6-.81-.464-1.31l.894-3.38c.138-.534.602-.896 1.152-.913l.653-.02c.31-.016.584.104.825.294.67.57 1.856.93 3.076.93.997 0 1.565-.137 1.77-.292-.343-.224-1.048-.517-1.546-.724-2.13-.88-5.706-2.346-4.624-6.413.963-3.637 4.486-5.706 9.71-5.706 2.923 0 4.66.5 6.172 1.76.36.31.515.79.395 1.257l-.892 3.395c-.137.535-.618.897-1.168.914h-.465c-.327 0-.636-.12-.877-.362-.533-.534-1.65-.896-2.853-.896-.722 0-1.203.067-1.513.17.31.14.67.294.963.397 2.045.828 5.844 2.362 4.76 6.43-.72 2.758-3.11 6.015-10.363 6.015z"/><path d="M74.037 101.172c-2.166 0-4.263-.586-5.604-1.55-.412-.294-.6-.81-.464-1.31 0 0 .6-2.293.892-3.38.137-.534.602-.896 1.152-.913l.636-.02c.293-.017.585.103.808.293.67.57 1.857.93 3.077.93.997 0 1.547-.137 1.77-.275-.343-.224-1.048-.517-1.547-.724-2.13-.88-5.69-2.362-4.623-6.412.962-3.637 4.486-5.706 9.71-5.706 2.923 0 4.66.5 6.17 1.76.362.31.517.79.397 1.257 0 0-.636 2.38-.894 3.396-.138.534-.602.896-1.152.913l-.464-.017c-.326 0-.653-.12-.894-.362-.55-.552-1.667-.896-2.835-.896-.722 0-1.204.067-1.513.17.31.14.67.294.963.397 2.045.828 5.843 2.362 4.76 6.43-.704 2.758-3.076 6.015-10.346 6.015z"/></g><path d="M18.47 99.535c.583-2.24 4.124-15.703 4.124-15.703h8.593c4.126 0 5.672 1.275 5.002 3.81-.466 1.757-1.72 3.446-5.158 3.877l-.017.05c3.49.207 3.953 1.81 3.454 3.672-.826 3.12-4.418 4.602-9.18 4.602h-6.72l-.102-.31zm6.29-2.913h1.03c1.582 0 2.493-.518 2.802-1.69.31-1.172-.326-1.706-1.908-1.706h-1.03l-.895 3.396zm1.718-6.482h1.03c1.36 0 2.2-.5 2.476-1.585.293-1.103-.31-1.483-1.632-1.483h-1.066l-.808 3.068zm27.604 1.69c-.98 3.74-2.87 8.41-10.52 8.325-7.7.086-7.132-4.568-6.153-8.325.98-3.74 2.37-8.326 10.517-8.326 8.164.018 7.133 4.585 6.154 8.326zm-9.574 4.688c2.32 0 2.836-1.793 3.592-4.688.756-2.896 1.186-4.69-1.134-4.69s-2.836 1.794-3.592 4.69c-.74 2.895-1.186 4.688 1.134 4.688zM69.12 88.4c-.755-.76-2.148-1.26-3.712-1.26-1.478 0-2.887.294-3.145 1.277-.48 1.86 7.477 1.723 6.187 6.636-.876 3.344-4.02 5.085-9.195 5.085-1.873 0-3.747-.5-4.88-1.327 0 0 .6-2.29.892-3.377l.654-.017c.895.74 2.34 1.207 3.87 1.207 2.25 0 2.886-.62 3.075-1.328.62-2.36-7.648-1.93-6.307-7.015.79-3.035 3.798-4.793 8.525-4.793 2.767 0 4.16.448 5.397 1.482 0 0-.637 2.394-.895 3.394l-.464.035zm15.006 0c-.757-.76-2.15-1.26-3.696-1.26-1.478 0-2.887.294-3.145 1.277-.498 1.86 7.477 1.723 6.188 6.636-.877 3.344-4.022 5.085-9.196 5.085-1.873 0-3.747-.5-4.88-1.327 0 0 .6-2.29.893-3.377l.653-.017c.893.74 2.337 1.207 3.867 1.207 2.252 0 2.887-.62 3.077-1.328.618-2.36-7.65-1.93-6.308-7.015.79-3.035 3.796-4.793 8.523-4.793 2.767 0 4.16.448 5.397 1.482 0 0-.618 2.377-.893 3.394l-.48.035z" fill="#6D1B00"/><g fill="#DC0814"><path d="M18.073 99.208c.584-2.24 4.125-15.703 4.125-15.703h8.594c4.125 0 5.672 1.276 5.002 3.81-.465 1.74-1.72 3.447-5.157 3.878l-.017.05c3.49.208 3.953 1.81 3.455 3.673-.825 3.12-4.417 4.602-9.178 4.602h-6.72l-.104-.31zm6.29-2.93h1.032c1.58 0 2.492-.518 2.802-1.69.31-1.172-.327-1.706-1.908-1.706h-1.034l-.893 3.396zm1.702-6.482h1.032c1.357 0 2.2-.5 2.475-1.585.292-1.1-.31-1.48-1.633-1.48H26.87l-.808 3.067zm27.62 1.707c-.98 3.74-2.87 8.41-10.52 8.325-7.7.086-7.13-4.567-6.15-8.325.98-3.74 2.37-8.325 10.52-8.325 8.145.017 7.13 4.585 6.15 8.325zm-9.573 4.688c2.32 0 2.836-1.79 3.593-4.686.756-2.896 1.186-4.69-1.135-4.69-2.32 0-2.836 1.794-3.592 4.69-.756 2.896-1.186 4.688 1.134 4.688zm24.613-8.117c-.756-.76-2.148-1.24-3.712-1.24-1.478 0-2.888.292-3.146 1.274-.498 1.862 7.477 1.724 6.188 6.636-.877 3.344-4.04 5.085-9.196 5.085-1.875 0-3.748-.5-4.883-1.327 0 0 .602-2.29.894-3.376l.637-.018c.876.742 2.337 1.224 3.867 1.224 2.252 0 2.888-.62 3.077-1.328.62-2.36-7.65-1.93-6.307-7.015.79-3.034 3.798-4.792 8.525-4.792 2.766 0 4.158.448 5.396 1.482 0 0-.636 2.396-.894 3.396h-.447zM83.713 88.073c-.756-.76-2.15-1.24-3.695-1.24-1.48 0-2.87.292-3.13 1.274-.48 1.862 7.478 1.724 6.19 6.636-.878 3.344-4.023 5.085-9.196 5.085-1.874 0-3.747-.5-4.882-1.327 0 0 .602-2.29.894-3.376l.636-.018c.894.742 2.337 1.224 3.867 1.224 2.252 0 2.888-.62 3.077-1.328.62-2.36-7.65-1.93-6.308-7.015.79-3.034 3.816-4.792 8.525-4.792 2.77 0 4.16.448 5.4 1.482 0 0-.637 2.38-.895 3.396h-.48z"/></g><path d="M75 48.5c-1.48 0-2.5-1.07-2.5-2.5 0-1.526 1.15-2.5 2.5-2.5s2.5 1.006 2.5 2.5c-.033 1.494-1.184 2.5-2.5 2.5zm0-4.578c-1.118 0-1.974.844-1.974 2.078 0 1.136.757 2.078 1.974 2.078 1.086 0 1.94-.844 1.94-2.078s-.854-2.078-1.94-2.078zm-.526 3.507h-.46v-2.795H75.1c.69 0 1.017.228 1.017.812 0 .52-.33.714-.723.747l.79 1.234h-.527l-.724-1.203h-.427v1.202h-.033zM75 45.87c.362 0 .658-.032.658-.454 0-.325-.33-.39-.625-.39h-.56v.812H75v.032zm15 62.63c-1.48 0-2.5-1.07-2.5-2.5 0-1.526 1.15-2.5 2.5-2.5s2.5 1.006 2.5 2.5c-.033 1.494-1.184 2.5-2.5 2.5zm0-4.578c-1.118 0-1.974.844-1.974 2.078 0 1.136.757 2.078 1.974 2.078 1.086 0 1.94-.844 1.94-2.078s-.854-2.078-1.94-2.078zm-.526 3.507h-.46v-2.795H90.1c.69 0 1.017.228 1.017.812 0 .52-.33.714-.723.747l.79 1.234h-.527l-.724-1.203h-.427v1.202h-.033zm.526-1.56c.362 0 .658-.033.658-.455 0-.325-.33-.39-.625-.39h-.56v.812H90v.032zM17 119h69v1H17zm3.77 11v-4.644h-.566v2.44c0 .233-.027.462-.08.687-.055.226-.14.425-.253.6-.112.173-.256.312-.43.417-.174.106-.384.158-.63.158-.45 0-.766-.108-.95-.324-.183-.216-.28-.534-.292-.954v-3.024H17v3.015c0 .278.03.524.09.74.06.216.154.4.284.55.13.15.296.265.504.346.207.08.457.12.75.12.35 0 .665-.08.95-.246.286-.167.503-.405.653-.717h.02V130h.52zm1.23-4.644V130h.567v-2.71c.006-.227.043-.438.113-.634.07-.195.164-.362.288-.504.123-.14.272-.252.45-.332.177-.08.38-.122.607-.122.228 0 .418.036.572.108.153.072.274.17.364.297.09.126.155.274.19.446.037.17.055.353.055.55v2.9h.567v-2.988c0-.276-.026-.525-.08-.747-.054-.222-.147-.41-.28-.563-.13-.153-.306-.27-.526-.355-.22-.084-.49-.126-.814-.126-.33 0-.633.087-.91.26-.275.17-.467.396-.575.68h-.018v-.803H22zm5-1.782v.91h.567v-.91H27zm0 1.782V130h.567v-4.644H27zm2.977 0v-1.395h-.567v1.397h-.81v.477h.81v3.177c-.006.397.066.668.216.816.15.147.414.22.792.22.084 0 .168-.003.252-.01.084-.005.168-.008.252-.008v-.477c-.162.02-.324.028-.486.028-.204-.012-.33-.07-.382-.175-.05-.106-.077-.25-.077-.437v-3.132h.945v-.477h-.945zm5.497 1.998h-3.006c.024-.21.073-.415.148-.617.076-.2.176-.377.302-.53.126-.154.28-.276.46-.37.18-.093.386-.14.62-.14.228 0 .432.047.612.14.18.093.333.216.46.37.125.153.222.328.29.526.07.198.108.405.114.62zm-3.006.477h3.573c.014-.322-.016-.64-.09-.956-.07-.316-.19-.594-.354-.838-.165-.243-.38-.44-.643-.59-.264-.15-.582-.224-.954-.224-.367 0-.683.07-.95.213-.268.14-.485.326-.653.557-.168.232-.292.494-.373.788-.082.294-.122.594-.122.9 0 .33.04.643.123.94.08.298.205.558.373.784.168.225.385.4.652.53.268.13.584.194.95.194.588 0 1.042-.144 1.364-.432.32-.288.54-.696.66-1.224h-.566c-.09.36-.252.648-.486.864-.234.216-.558.324-.972.324-.27 0-.5-.057-.693-.17-.192-.115-.35-.26-.477-.433-.126-.174-.217-.37-.275-.59-.057-.22-.085-.43-.085-.634zM39 125.358l1.854 4.626-.198.522-.135.297c-.04.09-.09.167-.15.23-.06.064-.13.113-.213.15-.08.035-.184.053-.31.053-.066 0-.13-.005-.193-.013-.064-.01-.128-.02-.194-.032v.477c.047.018.102.03.166.03.063.005.15.01.265.015.18 0 .33-.017.448-.05.117-.032.218-.087.305-.16.088-.077.167-.178.24-.308.07-.13.15-.292.233-.49l2.016-5.346h-.566l-1.43 3.96-1.53-3.96H39zm6.93.342c.27 0 .506.056.71.17.204.114.373.264.508.45s.237.397.306.635c.07.237.104.478.104.724s-.035.486-.104.724c-.07.237-.17.448-.306.634-.135.186-.304.336-.508.45-.204.114-.44.17-.71.17-.27 0-.508-.056-.712-.17-.204-.114-.374-.264-.51-.45-.134-.186-.236-.397-.305-.635-.07-.237-.103-.478-.103-.724s.034-.488.103-.725c.07-.238.17-.45.306-.635.133-.187.303-.337.507-.45.204-.115.44-.172.71-.172zm-.034-.478c-.354 0-.667.067-.94.2-.274.13-.503.308-.69.53-.185.222-.326.48-.422.778-.096.298-.144.614-.144.95 0 .336.048.652.144.95.096.297.237.556.423.778.186.222.415.397.69.526.272.13.585.194.94.194.353 0 .666-.064.94-.194.273-.13.502-.304.688-.526.186-.222.327-.48.423-.78.096-.296.144-.612.144-.948 0-.336-.048-.652-.144-.95-.096-.297-.237-.556-.423-.778-.186-.222-.415-.4-.688-.53-.274-.133-.587-.2-.94-.2zM52.77 130v-4.644h-.566v2.44c0 .233-.027.462-.08.687-.055.226-.14.425-.253.6-.112.173-.256.312-.43.417-.174.106-.384.158-.63.158-.45 0-.766-.108-.95-.324-.183-.216-.28-.534-.292-.954v-3.024H49v3.015c0 .278.03.524.09.74.06.216.154.4.283.55.13.15.297.265.505.346.207.08.457.12.75.12.35 0 .665-.08.95-.246.286-.167.503-.405.653-.717h.02V130h.52zm1.23-4.644V130h.567v-2.475c0-.246.042-.472.126-.68.084-.207.202-.385.355-.535.154-.15.335-.266.545-.347.21-.08.444-.115.702-.103v-.567c-.42-.018-.78.075-1.084.28-.302.203-.525.494-.67.872h-.017v-1.09H54zm5 0L60.494 130h.62l1.135-3.906h.016L63.41 130h.62l1.495-4.644h-.603l-1.188 3.978h-.018l-1.134-3.978h-.64l-1.133 3.978h-.02l-1.188-3.978H59zm9.48.342c.27 0 .507.057.71.17.205.115.374.265.51.45.135.187.236.398.306.636.07.237.103.478.103.724s-.036.487-.105.725c-.07.237-.17.448-.306.634-.137.186-.306.336-.51.45-.204.114-.44.17-.71.17-.27 0-.508-.056-.71-.17-.206-.114-.375-.264-.51-.45-.136-.186-.237-.397-.306-.635-.07-.237-.104-.478-.104-.724s.035-.487.105-.724c.07-.238.17-.45.306-.635.137-.188.306-.338.51-.45.204-.116.44-.173.71-.173zm0-.477c-.354 0-.667.068-.94.2-.274.13-.503.31-.69.53-.185.223-.326.48-.422.78-.096.297-.144.613-.144.95 0 .335.048.65.144.95.096.296.237.555.423.777.188.222.417.397.69.526.274.13.587.194.94.194s.668-.064.94-.194c.275-.13.504-.304.69-.526.186-.222.327-.48.423-.78.096-.296.144-.612.144-.948 0-.337-.048-.653-.144-.95-.096-.298-.237-.557-.423-.78-.187-.22-.416-.4-.69-.53-.273-.132-.586-.2-.94-.2zm3.42.137V130h.567v-2.475c0-.246.042-.472.126-.68.084-.207.203-.385.356-.535.15-.15.332-.266.542-.347.21-.08.444-.115.702-.103v-.567c-.42-.018-.78.075-1.084.28-.302.203-.526.494-.67.872h-.018v-1.09H71.9zm3.1-1.782V130h.567v-6.426H75zM80.854 130v-6.426h-.567v2.664h-.018c-.06-.168-.147-.315-.26-.44-.11-.127-.237-.234-.38-.32-.145-.087-.3-.152-.465-.194-.165-.042-.334-.063-.508-.063-.354 0-.66.068-.923.2-.26.13-.478.31-.652.535-.174.226-.303.486-.387.784-.084.296-.126.61-.126.94 0 .33.04.642.125.94.084.297.213.557.387.783.174.225.39.4.652.53s.57.194.923.194c.168 0 .337-.024.508-.072.172-.048.332-.115.482-.203.15-.085.283-.192.4-.318.118-.126.206-.264.266-.414h.018v.88h.523zm-3.714-2.322c0-.24.028-.478.085-.715.057-.238.147-.45.27-.635.123-.186.28-.337.473-.454.192-.118.423-.176.693-.176.3 0 .555.058.76.176.21.117.377.268.506.454.13.186.222.397.28.635.056.237.085.475.085.715s-.03.478-.085.715c-.057.238-.15.45-.28.635-.128.186-.295.337-.503.454-.206.118-.46.176-.76.176-.27 0-.5-.058-.692-.175-.192-.118-.35-.27-.473-.455-.123-.186-.213-.397-.27-.635-.057-.237-.085-.475-.085-.715zm7.932-.963h.567c-.014-.252-.065-.47-.155-.657-.09-.186-.212-.342-.365-.468-.152-.126-.33-.22-.53-.28-.2-.06-.418-.09-.652-.09-.204 0-.41.025-.617.073-.205.048-.392.123-.56.225-.17.102-.305.237-.41.405-.105.168-.157.37-.157.603 0 .198.033.364.1.5.065.135.156.25.273.342.117.093.254.17.41.234.156.063.327.118.513.166l.73.162c.124.03.25.066.37.108.124.042.234.094.33.157.096.064.17.142.23.234.056.092.085.207.085.345 0 .162-.04.298-.122.41-.08.11-.184.202-.31.274-.126.07-.263.122-.41.152-.147.03-.29.045-.427.045-.378 0-.694-.097-.95-.292-.255-.196-.394-.485-.418-.87h-.567c.05.57.24.985.58 1.243.34.257.783.386 1.33.386.215 0 .434-.024.656-.072.222-.048.42-.127.598-.24.177-.11.323-.253.437-.43.115-.178.17-.392.17-.644 0-.204-.037-.38-.115-.53-.078-.15-.18-.277-.302-.38-.123-.1-.264-.183-.423-.246-.16-.064-.32-.107-.482-.13l-.756-.172c-.096-.024-.2-.055-.315-.094-.114-.04-.22-.09-.315-.15-.096-.06-.176-.132-.24-.22-.062-.087-.093-.193-.093-.32 0-.15.03-.275.097-.377.066-.1.153-.185.26-.247.11-.063.227-.108.356-.135.13-.028.257-.042.383-.042.162 0 .315.02.46.06.143.038.27.1.38.183.112.084.2.19.267.32.066.13.102.28.108.454zm2.604-2.72h-.274c-.01.177.015.33.07.456.055.128.134.23.236.313.103.08.227.14.372.18.145.038.303.058.472.058.17 0 .315-.014.436-.045.12-.03.223-.072.305-.122.082-.05.147-.105.194-.167.047-.062.083-.123.11-.184.025-.06.04-.117.047-.17.007-.054.01-.097.01-.13 0-.118-.02-.22-.058-.302-.04-.084-.093-.155-.16-.212-.07-.058-.15-.107-.24-.146-.09-.04-.186-.072-.288-.1l-.703-.172c-.06-.014-.115-.03-.168-.053-.052-.02-.098-.05-.14-.085-.04-.035-.07-.077-.094-.127-.023-.05-.034-.108-.034-.175 0-.108.02-.198.06-.27.04-.074.092-.132.16-.177.064-.043.14-.075.23-.096.086-.02.177-.03.27-.03.103 0 .2.014.293.043.093.028.175.07.247.125.072.055.13.124.174.206.045.083.07.18.075.29h.273c0-.15-.03-.28-.087-.39-.058-.11-.135-.206-.232-.28-.097-.076-.21-.133-.34-.17-.13-.038-.265-.057-.407-.057-.202 0-.368.03-.497.087-.128.058-.23.128-.304.212-.074.082-.124.17-.15.265-.028.094-.042.177-.042.247 0 .113.02.208.055.286.034.078.082.144.14.198.06.054.13.097.21.13.08.032.16.06.243.08l.642.158c.068.016.136.037.206.062.07.026.135.06.193.1.058.04.105.09.142.148.036.06.054.13.054.21 0 .105-.027.195-.078.27-.05.073-.115.133-.19.18-.078.048-.16.082-.25.104-.09.02-.17.032-.246.032-.132 0-.256-.013-.372-.04-.115-.024-.216-.066-.3-.126-.085-.06-.152-.138-.2-.238-.05-.1-.072-.223-.07-.37zm2.81-1.934l.957 2.53.994-2.528h.403v2.883h-.274v-2.49h-.008l-.986 2.49h-.258l-.95-2.49h-.007v2.49h-.274v-2.882h.403z" fill="#000"/></g></svg>